M48
; DRILL file {KiCad 8.0.7} date 2024-12-28T15:10:13+0300
; FORMAT={-:-/ absolute / inch / decimal}
; #@! TF.CreationDate,2024-12-28T15:10:13+03:00
; #@! TF.GenerationSoftware,Kicad,Pcbnew,8.0.7
; #@! TF.FileFunction,Plated,1,2,PTH
FMAT,2
INCH
; #@! TA.AperFunction,Plated,PTH,ViaDrill
T1C0.0118
; #@! TA.AperFunction,Plated,PTH,ComponentDrill
T2C0.0394
; #@! TA.AperFunction,Plated,PTH,ComponentDrill
T3C0.0400
; #@! TA.AperFunction,Plated,PTH,ComponentDrill
T4C0.0866
%
G90
G05
T1
X5.4272Y-3.622
X5.4528Y-3.3661
X5.4724Y-3.5531
X5.6004Y-3.4252
X5.6004Y-3.5531
X5.6201Y-2.4606
X5.7185Y-3.3366
X6.0728Y-3.7106
X6.1319Y-3.878
X6.2303Y-3.878
X6.3091Y-3.6319
X6.4075Y-3.8287
X6.4665Y-3.8189
X6.5256Y-3.8287
X6.6929Y-3.7598
X6.752Y-3.7697
X6.7618Y-3.563
X6.7703Y-3.8358
X6.7766Y-3.6491
X6.8012Y-3.8976
X6.8209Y-3.3268
X6.8307Y-3.4744
X6.8307Y-3.6614
X6.8307Y-3.7402
X6.8307Y-3.8386
X6.8311Y-3.5334
X6.8406Y-3.5925
X6.8701Y-3.6319
X6.8799Y-3.8091
X6.8898Y-3.5236
X6.8898Y-3.75
X6.8996Y-3.3268
X6.9094Y-3.4744
X6.9193Y-3.5728
X6.9193Y-3.622
X6.9272Y-3.662
X6.9685Y-3.5531
X6.9783Y-3.3268
X6.9783Y-3.622
X7.0079Y-3.6811
X7.0303Y-3.5842
X7.0374Y-3.3268
X7.0374Y-3.5335
X7.0571Y-3.6516
X7.0571Y-3.7205
X7.0768Y-3.5827
X7.0965Y-3.3268
X7.1161Y-3.7008
X7.1363Y-3.5532
X7.1457Y-3.3268
X7.1644Y-3.9065
X7.166Y-3.6266
X7.185Y-3.6909
X7.185Y-3.9469
X7.1949Y-3.7402
X7.1949Y-3.8386
X7.2047Y-3.3268
X7.2047Y-3.4154
X7.2047Y-3.4941
X7.2047Y-3.7795
X7.2047Y-3.9075
X7.2244Y-3.622
X7.2343Y-3.4547
X7.2343Y-3.5236
X7.2343Y-3.5728
X7.2343Y-3.6713
X7.2343Y-3.7106
X7.2343Y-3.937
X7.2395Y-3.4019
X7.2441Y-3.75
X7.2441Y-3.7992
X7.2539Y-3.8386
X7.2539Y-3.9075
X7.2638Y-3.3268
X7.2638Y-3.4941
X7.2638Y-3.6024
X7.2638Y-3.6417
X7.2736Y-3.435
X7.2736Y-3.5531
X7.2736Y-3.7106
X7.2736Y-3.937
X7.2933Y-3.9075
X7.313Y-3.3268
T2
X5.1073Y-4.2224
X5.128Y-3.71
X5.128Y-3.81
X5.2073Y-4.2224
X5.3073Y-4.2224
X5.748Y-4.2126
X5.8465Y-4.2126
X6.1697Y-3.7697
X6.237Y-4.2224
X6.2697Y-3.7697
X6.337Y-4.2224
X6.437Y-4.2224
X6.7094Y-4.2224
X6.8094Y-4.2224
X6.9094Y-4.2224
T3
X5.1563Y-2.574
X5.1563Y-3.174
X5.2563Y-2.574
X5.2563Y-3.174
X5.3563Y-2.574
X5.3563Y-3.174
X5.4563Y-2.574
X5.4563Y-3.174
X5.5563Y-2.574
X5.5563Y-3.174
X5.6563Y-2.574
X5.6563Y-3.174
X5.7563Y-2.574
X5.7563Y-3.174
X5.8563Y-2.574
X5.8563Y-3.174
X5.9563Y-2.574
X5.9563Y-3.174
X6.0563Y-2.574
X6.0563Y-3.174
X6.1563Y-2.574
X6.1563Y-3.174
X6.2563Y-2.574
X6.2563Y-3.174
X6.3563Y-2.574
X6.3563Y-3.174
X6.4563Y-2.574
X6.4563Y-3.174
X6.5563Y-2.574
X6.5563Y-3.174
T4
X7.1457Y-2.5787
X7.1752Y-4.1634
M30
