%TF.GenerationSoftware,KiCad,Pcbnew,8.0.7*%
%TF.CreationDate,2024-12-28T15:10:21+03:00*%
%TF.ProjectId,SingleSwitch,53696e67-6c65-4537-9769-7463682e6b69,rev?*%
%TF.SameCoordinates,Original*%
%TF.FileFunction,Drillmap*%
%TF.FilePolarity,Positive*%
%FSLAX45Y45*%
G04 Gerber Fmt 4.5, Leading zero omitted, Abs format (unit mm)*
G04 Created by KiCad (PCBNEW 8.0.7) date 2024-12-28 15:10:21*
%MOMM*%
%LPD*%
G01*
G04 APERTURE LIST*
%ADD10C,0.050000*%
%ADD11C,0.200000*%
%ADD12C,0.100000*%
%ADD13C,0.101600*%
%ADD14C,0.220000*%
G04 APERTURE END LIST*
D10*
X18800000Y-10125000D02*
X18800000Y-7050000D01*
X12575000Y-11150000D02*
X12575000Y-6025000D01*
X17775000Y-11150000D02*
X12575000Y-11150000D01*
X18800000Y-10125000D02*
G75*
G02*
X17775000Y-11150000I-1025000J0D01*
G01*
X17775000Y-6025000D02*
X12575000Y-6025000D01*
X17775000Y-6025000D02*
G75*
G02*
X18800000Y-7050000I0J-1025000D01*
G01*
D11*
D12*
X13770000Y-9185000D02*
X13800000Y-9215000D01*
X13800000Y-9185000D02*
X13770000Y-9215000D01*
X13835000Y-8535000D02*
X13865000Y-8565000D01*
X13865000Y-8535000D02*
X13835000Y-8565000D01*
X13885000Y-9010000D02*
X13915000Y-9040000D01*
X13915000Y-9010000D02*
X13885000Y-9040000D01*
X14210000Y-8685000D02*
X14240000Y-8715000D01*
X14240000Y-8685000D02*
X14210000Y-8715000D01*
X14210000Y-9010000D02*
X14240000Y-9040000D01*
X14240000Y-9010000D02*
X14210000Y-9040000D01*
X14260000Y-6235000D02*
X14290000Y-6265000D01*
X14290000Y-6235000D02*
X14260000Y-6265000D01*
X14510000Y-8460000D02*
X14540000Y-8490000D01*
X14540000Y-8460000D02*
X14510000Y-8490000D01*
X15410000Y-9410000D02*
X15440000Y-9440000D01*
X15440000Y-9410000D02*
X15410000Y-9440000D01*
X15560000Y-9835000D02*
X15590000Y-9865000D01*
X15590000Y-9835000D02*
X15560000Y-9865000D01*
X15810000Y-9835000D02*
X15840000Y-9865000D01*
X15840000Y-9835000D02*
X15810000Y-9865000D01*
X16010000Y-9210000D02*
X16040000Y-9240000D01*
X16040000Y-9210000D02*
X16010000Y-9240000D01*
X16260000Y-9710000D02*
X16290000Y-9740000D01*
X16290000Y-9710000D02*
X16260000Y-9740000D01*
X16410000Y-9685000D02*
X16440000Y-9715000D01*
X16440000Y-9685000D02*
X16410000Y-9715000D01*
X16560000Y-9710000D02*
X16590000Y-9740000D01*
X16590000Y-9710000D02*
X16560000Y-9740000D01*
X16985000Y-9535000D02*
X17015000Y-9565000D01*
X17015000Y-9535000D02*
X16985000Y-9565000D01*
X17135000Y-9560000D02*
X17165000Y-9590000D01*
X17165000Y-9560000D02*
X17135000Y-9590000D01*
X17160000Y-9035000D02*
X17190000Y-9065000D01*
X17190000Y-9035000D02*
X17160000Y-9065000D01*
X17181538Y-9727948D02*
X17211538Y-9757948D01*
X17211538Y-9727948D02*
X17181538Y-9757948D01*
X17197500Y-9253750D02*
X17227500Y-9283750D01*
X17227500Y-9253750D02*
X17197500Y-9283750D01*
X17260000Y-9885000D02*
X17290000Y-9915000D01*
X17290000Y-9885000D02*
X17260000Y-9915000D01*
X17310000Y-8435000D02*
X17340000Y-8465000D01*
X17340000Y-8435000D02*
X17310000Y-8465000D01*
X17335000Y-8810000D02*
X17365000Y-8840000D01*
X17365000Y-8810000D02*
X17335000Y-8840000D01*
X17335000Y-9285000D02*
X17365000Y-9315000D01*
X17365000Y-9285000D02*
X17335000Y-9315000D01*
X17335000Y-9485000D02*
X17365000Y-9515000D01*
X17365000Y-9485000D02*
X17335000Y-9515000D01*
X17335000Y-9735000D02*
X17365000Y-9765000D01*
X17365000Y-9735000D02*
X17335000Y-9765000D01*
X17335895Y-8959754D02*
X17365895Y-8989754D01*
X17365895Y-8959754D02*
X17335895Y-8989754D01*
X17360000Y-9110000D02*
X17390000Y-9140000D01*
X17390000Y-9110000D02*
X17360000Y-9140000D01*
X17435000Y-9210000D02*
X17465000Y-9240000D01*
X17465000Y-9210000D02*
X17435000Y-9240000D01*
X17460000Y-9660000D02*
X17490000Y-9690000D01*
X17490000Y-9660000D02*
X17460000Y-9690000D01*
X17485000Y-8935000D02*
X17515000Y-8965000D01*
X17515000Y-8935000D02*
X17485000Y-8965000D01*
X17485000Y-9510000D02*
X17515000Y-9540000D01*
X17515000Y-9510000D02*
X17485000Y-9540000D01*
X17510000Y-8435000D02*
X17540000Y-8465000D01*
X17540000Y-8435000D02*
X17510000Y-8465000D01*
X17535000Y-8810000D02*
X17565000Y-8840000D01*
X17565000Y-8810000D02*
X17535000Y-8840000D01*
X17560000Y-9060000D02*
X17590000Y-9090000D01*
X17590000Y-9060000D02*
X17560000Y-9090000D01*
X17560000Y-9185000D02*
X17590000Y-9215000D01*
X17590000Y-9185000D02*
X17560000Y-9215000D01*
X17579994Y-9286416D02*
X17609994Y-9316416D01*
X17609994Y-9286416D02*
X17579994Y-9316416D01*
X17685000Y-9010000D02*
X17715000Y-9040000D01*
X17715000Y-9010000D02*
X17685000Y-9040000D01*
X17710000Y-8435000D02*
X17740000Y-8465000D01*
X17740000Y-8435000D02*
X17710000Y-8465000D01*
X17710000Y-9185000D02*
X17740000Y-9215000D01*
X17740000Y-9185000D02*
X17710000Y-9215000D01*
X17785000Y-9335000D02*
X17815000Y-9365000D01*
X17815000Y-9335000D02*
X17785000Y-9365000D01*
X17842042Y-9088983D02*
X17872042Y-9118983D01*
X17872042Y-9088983D02*
X17842042Y-9118983D01*
X17860000Y-8435000D02*
X17890000Y-8465000D01*
X17890000Y-8435000D02*
X17860000Y-8465000D01*
X17860000Y-8960000D02*
X17890000Y-8990000D01*
X17890000Y-8960000D02*
X17860000Y-8990000D01*
X17910000Y-9260000D02*
X17940000Y-9290000D01*
X17940000Y-9260000D02*
X17910000Y-9290000D01*
X17910000Y-9435000D02*
X17940000Y-9465000D01*
X17940000Y-9435000D02*
X17910000Y-9465000D01*
X17960000Y-9085000D02*
X17990000Y-9115000D01*
X17990000Y-9085000D02*
X17960000Y-9115000D01*
X18010000Y-8435000D02*
X18040000Y-8465000D01*
X18040000Y-8435000D02*
X18010000Y-8465000D01*
X18060000Y-9385000D02*
X18090000Y-9415000D01*
X18090000Y-9385000D02*
X18060000Y-9415000D01*
X18111269Y-9010010D02*
X18141269Y-9040010D01*
X18141269Y-9010010D02*
X18111269Y-9040010D01*
X18135000Y-8435000D02*
X18165000Y-8465000D01*
X18165000Y-8435000D02*
X18135000Y-8465000D01*
X18182561Y-9907607D02*
X18212561Y-9937607D01*
X18212561Y-9907607D02*
X18182561Y-9937607D01*
X18186652Y-9196674D02*
X18216652Y-9226674D01*
X18216652Y-9196674D02*
X18186652Y-9226674D01*
X18235000Y-9360000D02*
X18265000Y-9390000D01*
X18265000Y-9360000D02*
X18235000Y-9390000D01*
X18235000Y-10010000D02*
X18265000Y-10040000D01*
X18265000Y-10010000D02*
X18235000Y-10040000D01*
X18260000Y-9485000D02*
X18290000Y-9515000D01*
X18290000Y-9485000D02*
X18260000Y-9515000D01*
X18260000Y-9735000D02*
X18290000Y-9765000D01*
X18290000Y-9735000D02*
X18260000Y-9765000D01*
X18285000Y-8435000D02*
X18315000Y-8465000D01*
X18315000Y-8435000D02*
X18285000Y-8465000D01*
X18285000Y-8660000D02*
X18315000Y-8690000D01*
X18315000Y-8660000D02*
X18285000Y-8690000D01*
X18285000Y-8860000D02*
X18315000Y-8890000D01*
X18315000Y-8860000D02*
X18285000Y-8890000D01*
X18285000Y-9585000D02*
X18315000Y-9615000D01*
X18315000Y-9585000D02*
X18285000Y-9615000D01*
X18285000Y-9910000D02*
X18315000Y-9940000D01*
X18315000Y-9910000D02*
X18285000Y-9940000D01*
X18335000Y-9185000D02*
X18365000Y-9215000D01*
X18365000Y-9185000D02*
X18335000Y-9215000D01*
X18360000Y-8760000D02*
X18390000Y-8790000D01*
X18390000Y-8760000D02*
X18360000Y-8790000D01*
X18360000Y-8935000D02*
X18390000Y-8965000D01*
X18390000Y-8935000D02*
X18360000Y-8965000D01*
X18360000Y-9060000D02*
X18390000Y-9090000D01*
X18390000Y-9060000D02*
X18360000Y-9090000D01*
X18360000Y-9310000D02*
X18390000Y-9340000D01*
X18390000Y-9310000D02*
X18360000Y-9340000D01*
X18360000Y-9410000D02*
X18390000Y-9440000D01*
X18390000Y-9410000D02*
X18360000Y-9440000D01*
X18360000Y-9985000D02*
X18390000Y-10015000D01*
X18390000Y-9985000D02*
X18360000Y-10015000D01*
X18373316Y-8625913D02*
X18403316Y-8655913D01*
X18403316Y-8625913D02*
X18373316Y-8655913D01*
X18385000Y-9510000D02*
X18415000Y-9540000D01*
X18415000Y-9510000D02*
X18385000Y-9540000D01*
X18385000Y-9635000D02*
X18415000Y-9665000D01*
X18415000Y-9635000D02*
X18385000Y-9665000D01*
X18410000Y-9735000D02*
X18440000Y-9765000D01*
X18440000Y-9735000D02*
X18410000Y-9765000D01*
X18410000Y-9910000D02*
X18440000Y-9940000D01*
X18440000Y-9910000D02*
X18410000Y-9940000D01*
X18435000Y-8435000D02*
X18465000Y-8465000D01*
X18465000Y-8435000D02*
X18435000Y-8465000D01*
X18435000Y-8860000D02*
X18465000Y-8890000D01*
X18465000Y-8860000D02*
X18435000Y-8890000D01*
X18435000Y-9135000D02*
X18465000Y-9165000D01*
X18465000Y-9135000D02*
X18435000Y-9165000D01*
X18435000Y-9235000D02*
X18465000Y-9265000D01*
X18465000Y-9235000D02*
X18435000Y-9265000D01*
X18460000Y-8710000D02*
X18490000Y-8740000D01*
X18490000Y-8710000D02*
X18460000Y-8740000D01*
X18460000Y-9010000D02*
X18490000Y-9040000D01*
X18490000Y-9010000D02*
X18460000Y-9040000D01*
X18460000Y-9410000D02*
X18490000Y-9440000D01*
X18490000Y-9410000D02*
X18460000Y-9440000D01*
X18460000Y-9985000D02*
X18490000Y-10015000D01*
X18490000Y-9985000D02*
X18460000Y-10015000D01*
X18510000Y-9910000D02*
X18540000Y-9940000D01*
X18540000Y-9910000D02*
X18510000Y-9940000D01*
X18560000Y-8435000D02*
X18590000Y-8465000D01*
X18590000Y-8435000D02*
X18560000Y-8465000D01*
X13022500Y-10725000D02*
G75*
G02*
X12922500Y-10725000I-50000J0D01*
G01*
X12922500Y-10725000D02*
G75*
G02*
X13022500Y-10725000I50000J0D01*
G01*
X13075000Y-9423500D02*
G75*
G02*
X12975000Y-9423500I-50000J0D01*
G01*
X12975000Y-9423500D02*
G75*
G02*
X13075000Y-9423500I50000J0D01*
G01*
X13075000Y-9677500D02*
G75*
G02*
X12975000Y-9677500I-50000J0D01*
G01*
X12975000Y-9677500D02*
G75*
G02*
X13075000Y-9677500I50000J0D01*
G01*
X13276500Y-10725000D02*
G75*
G02*
X13176500Y-10725000I-50000J0D01*
G01*
X13176500Y-10725000D02*
G75*
G02*
X13276500Y-10725000I50000J0D01*
G01*
X13530500Y-10725000D02*
G75*
G02*
X13430500Y-10725000I-50000J0D01*
G01*
X13430500Y-10725000D02*
G75*
G02*
X13530500Y-10725000I50000J0D01*
G01*
X14650000Y-10700000D02*
G75*
G02*
X14550000Y-10700000I-50000J0D01*
G01*
X14550000Y-10700000D02*
G75*
G02*
X14650000Y-10700000I50000J0D01*
G01*
X14900000Y-10700000D02*
G75*
G02*
X14800000Y-10700000I-50000J0D01*
G01*
X14800000Y-10700000D02*
G75*
G02*
X14900000Y-10700000I50000J0D01*
G01*
X15721000Y-9575000D02*
G75*
G02*
X15621000Y-9575000I-50000J0D01*
G01*
X15621000Y-9575000D02*
G75*
G02*
X15721000Y-9575000I50000J0D01*
G01*
X15892000Y-10725000D02*
G75*
G02*
X15792000Y-10725000I-50000J0D01*
G01*
X15792000Y-10725000D02*
G75*
G02*
X15892000Y-10725000I50000J0D01*
G01*
X15975000Y-9575000D02*
G75*
G02*
X15875000Y-9575000I-50000J0D01*
G01*
X15875000Y-9575000D02*
G75*
G02*
X15975000Y-9575000I50000J0D01*
G01*
X16146000Y-10725000D02*
G75*
G02*
X16046000Y-10725000I-50000J0D01*
G01*
X16046000Y-10725000D02*
G75*
G02*
X16146000Y-10725000I50000J0D01*
G01*
X16400000Y-10725000D02*
G75*
G02*
X16300000Y-10725000I-50000J0D01*
G01*
X16300000Y-10725000D02*
G75*
G02*
X16400000Y-10725000I50000J0D01*
G01*
X17092000Y-10725000D02*
G75*
G02*
X16992000Y-10725000I-50000J0D01*
G01*
X16992000Y-10725000D02*
G75*
G02*
X17092000Y-10725000I50000J0D01*
G01*
X17346000Y-10725000D02*
G75*
G02*
X17246000Y-10725000I-50000J0D01*
G01*
X17246000Y-10725000D02*
G75*
G02*
X17346000Y-10725000I50000J0D01*
G01*
X17600000Y-10725000D02*
G75*
G02*
X17500000Y-10725000I-50000J0D01*
G01*
X17500000Y-10725000D02*
G75*
G02*
X17600000Y-10725000I50000J0D01*
G01*
D13*
X13097000Y-6487200D02*
X13097000Y-6588800D01*
X13046200Y-6538000D02*
X13147800Y-6538000D01*
X13097000Y-8011200D02*
X13097000Y-8112800D01*
X13046200Y-8062000D02*
X13147800Y-8062000D01*
X13351000Y-6487200D02*
X13351000Y-6588800D01*
X13300200Y-6538000D02*
X13401800Y-6538000D01*
X13351000Y-8011200D02*
X13351000Y-8112800D01*
X13300200Y-8062000D02*
X13401800Y-8062000D01*
X13605000Y-6487200D02*
X13605000Y-6588800D01*
X13554200Y-6538000D02*
X13655800Y-6538000D01*
X13605000Y-8011200D02*
X13605000Y-8112800D01*
X13554200Y-8062000D02*
X13655800Y-8062000D01*
X13859000Y-6487200D02*
X13859000Y-6588800D01*
X13808200Y-6538000D02*
X13909800Y-6538000D01*
X13859000Y-8011200D02*
X13859000Y-8112800D01*
X13808200Y-8062000D02*
X13909800Y-8062000D01*
X14113000Y-6487200D02*
X14113000Y-6588800D01*
X14062200Y-6538000D02*
X14163800Y-6538000D01*
X14113000Y-8011200D02*
X14113000Y-8112800D01*
X14062200Y-8062000D02*
X14163800Y-8062000D01*
X14367000Y-6487200D02*
X14367000Y-6588800D01*
X14316200Y-6538000D02*
X14417800Y-6538000D01*
X14367000Y-8011200D02*
X14367000Y-8112800D01*
X14316200Y-8062000D02*
X14417800Y-8062000D01*
X14621000Y-6487200D02*
X14621000Y-6588800D01*
X14570200Y-6538000D02*
X14671800Y-6538000D01*
X14621000Y-8011200D02*
X14621000Y-8112800D01*
X14570200Y-8062000D02*
X14671800Y-8062000D01*
X14875000Y-6487200D02*
X14875000Y-6588800D01*
X14824200Y-6538000D02*
X14925800Y-6538000D01*
X14875000Y-8011200D02*
X14875000Y-8112800D01*
X14824200Y-8062000D02*
X14925800Y-8062000D01*
X15129000Y-6487200D02*
X15129000Y-6588800D01*
X15078200Y-6538000D02*
X15179800Y-6538000D01*
X15129000Y-8011200D02*
X15129000Y-8112800D01*
X15078200Y-8062000D02*
X15179800Y-8062000D01*
X15383000Y-6487200D02*
X15383000Y-6588800D01*
X15332200Y-6538000D02*
X15433800Y-6538000D01*
X15383000Y-8011200D02*
X15383000Y-8112800D01*
X15332200Y-8062000D02*
X15433800Y-8062000D01*
X15637000Y-6487200D02*
X15637000Y-6588800D01*
X15586200Y-6538000D02*
X15687800Y-6538000D01*
X15637000Y-8011200D02*
X15637000Y-8112800D01*
X15586200Y-8062000D02*
X15687800Y-8062000D01*
X15891000Y-6487200D02*
X15891000Y-6588800D01*
X15840200Y-6538000D02*
X15941800Y-6538000D01*
X15891000Y-8011200D02*
X15891000Y-8112800D01*
X15840200Y-8062000D02*
X15941800Y-8062000D01*
X16145000Y-6487200D02*
X16145000Y-6588800D01*
X16094200Y-6538000D02*
X16195800Y-6538000D01*
X16145000Y-8011200D02*
X16145000Y-8112800D01*
X16094200Y-8062000D02*
X16195800Y-8062000D01*
X16399000Y-6487200D02*
X16399000Y-6588800D01*
X16348200Y-6538000D02*
X16449800Y-6538000D01*
X16399000Y-8011200D02*
X16399000Y-8112800D01*
X16348200Y-8062000D02*
X16449800Y-8062000D01*
X16653000Y-6487200D02*
X16653000Y-6588800D01*
X16602200Y-6538000D02*
X16703800Y-6538000D01*
X16653000Y-8011200D02*
X16653000Y-8112800D01*
X16602200Y-8062000D02*
X16703800Y-8062000D01*
D14*
X18227783Y-6627782D02*
X18227783Y-6472217D01*
X18072218Y-6472217D01*
X18072218Y-6627782D01*
X18227783Y-6627782D01*
X18302783Y-10652783D02*
X18302783Y-10497218D01*
X18147218Y-10497218D01*
X18147218Y-10652783D01*
X18302783Y-10652783D01*
D11*
X12833277Y-11463984D02*
X12833277Y-11263984D01*
X12833277Y-11263984D02*
X12880896Y-11263984D01*
X12880896Y-11263984D02*
X12909467Y-11273508D01*
X12909467Y-11273508D02*
X12928515Y-11292555D01*
X12928515Y-11292555D02*
X12938039Y-11311603D01*
X12938039Y-11311603D02*
X12947562Y-11349698D01*
X12947562Y-11349698D02*
X12947562Y-11378269D01*
X12947562Y-11378269D02*
X12938039Y-11416365D01*
X12938039Y-11416365D02*
X12928515Y-11435412D01*
X12928515Y-11435412D02*
X12909467Y-11454460D01*
X12909467Y-11454460D02*
X12880896Y-11463984D01*
X12880896Y-11463984D02*
X12833277Y-11463984D01*
X13033277Y-11463984D02*
X13033277Y-11330650D01*
X13033277Y-11368746D02*
X13042801Y-11349698D01*
X13042801Y-11349698D02*
X13052324Y-11340174D01*
X13052324Y-11340174D02*
X13071372Y-11330650D01*
X13071372Y-11330650D02*
X13090420Y-11330650D01*
X13157086Y-11463984D02*
X13157086Y-11330650D01*
X13157086Y-11263984D02*
X13147562Y-11273508D01*
X13147562Y-11273508D02*
X13157086Y-11283031D01*
X13157086Y-11283031D02*
X13166610Y-11273508D01*
X13166610Y-11273508D02*
X13157086Y-11263984D01*
X13157086Y-11263984D02*
X13157086Y-11283031D01*
X13280896Y-11463984D02*
X13261848Y-11454460D01*
X13261848Y-11454460D02*
X13252324Y-11435412D01*
X13252324Y-11435412D02*
X13252324Y-11263984D01*
X13385658Y-11463984D02*
X13366610Y-11454460D01*
X13366610Y-11454460D02*
X13357086Y-11435412D01*
X13357086Y-11435412D02*
X13357086Y-11263984D01*
X13614229Y-11463984D02*
X13614229Y-11263984D01*
X13614229Y-11263984D02*
X13680896Y-11406841D01*
X13680896Y-11406841D02*
X13747562Y-11263984D01*
X13747562Y-11263984D02*
X13747562Y-11463984D01*
X13928515Y-11463984D02*
X13928515Y-11359222D01*
X13928515Y-11359222D02*
X13918991Y-11340174D01*
X13918991Y-11340174D02*
X13899943Y-11330650D01*
X13899943Y-11330650D02*
X13861848Y-11330650D01*
X13861848Y-11330650D02*
X13842801Y-11340174D01*
X13928515Y-11454460D02*
X13909467Y-11463984D01*
X13909467Y-11463984D02*
X13861848Y-11463984D01*
X13861848Y-11463984D02*
X13842801Y-11454460D01*
X13842801Y-11454460D02*
X13833277Y-11435412D01*
X13833277Y-11435412D02*
X13833277Y-11416365D01*
X13833277Y-11416365D02*
X13842801Y-11397317D01*
X13842801Y-11397317D02*
X13861848Y-11387793D01*
X13861848Y-11387793D02*
X13909467Y-11387793D01*
X13909467Y-11387793D02*
X13928515Y-11378269D01*
X14023753Y-11330650D02*
X14023753Y-11530650D01*
X14023753Y-11340174D02*
X14042801Y-11330650D01*
X14042801Y-11330650D02*
X14080896Y-11330650D01*
X14080896Y-11330650D02*
X14099943Y-11340174D01*
X14099943Y-11340174D02*
X14109467Y-11349698D01*
X14109467Y-11349698D02*
X14118991Y-11368746D01*
X14118991Y-11368746D02*
X14118991Y-11425888D01*
X14118991Y-11425888D02*
X14109467Y-11444936D01*
X14109467Y-11444936D02*
X14099943Y-11454460D01*
X14099943Y-11454460D02*
X14080896Y-11463984D01*
X14080896Y-11463984D02*
X14042801Y-11463984D01*
X14042801Y-11463984D02*
X14023753Y-11454460D01*
X14204705Y-11444936D02*
X14214229Y-11454460D01*
X14214229Y-11454460D02*
X14204705Y-11463984D01*
X14204705Y-11463984D02*
X14195182Y-11454460D01*
X14195182Y-11454460D02*
X14204705Y-11444936D01*
X14204705Y-11444936D02*
X14204705Y-11463984D01*
X14204705Y-11340174D02*
X14214229Y-11349698D01*
X14214229Y-11349698D02*
X14204705Y-11359222D01*
X14204705Y-11359222D02*
X14195182Y-11349698D01*
X14195182Y-11349698D02*
X14204705Y-11340174D01*
X14204705Y-11340174D02*
X14204705Y-11359222D01*
D12*
X12542500Y-11777500D02*
X12572500Y-11807500D01*
X12572500Y-11777500D02*
X12542500Y-11807500D01*
D11*
X12871372Y-11683984D02*
X12890420Y-11683984D01*
X12890420Y-11683984D02*
X12909467Y-11693508D01*
X12909467Y-11693508D02*
X12918991Y-11703031D01*
X12918991Y-11703031D02*
X12928515Y-11722079D01*
X12928515Y-11722079D02*
X12938039Y-11760174D01*
X12938039Y-11760174D02*
X12938039Y-11807793D01*
X12938039Y-11807793D02*
X12928515Y-11845888D01*
X12928515Y-11845888D02*
X12918991Y-11864936D01*
X12918991Y-11864936D02*
X12909467Y-11874460D01*
X12909467Y-11874460D02*
X12890420Y-11883984D01*
X12890420Y-11883984D02*
X12871372Y-11883984D01*
X12871372Y-11883984D02*
X12852324Y-11874460D01*
X12852324Y-11874460D02*
X12842801Y-11864936D01*
X12842801Y-11864936D02*
X12833277Y-11845888D01*
X12833277Y-11845888D02*
X12823753Y-11807793D01*
X12823753Y-11807793D02*
X12823753Y-11760174D01*
X12823753Y-11760174D02*
X12833277Y-11722079D01*
X12833277Y-11722079D02*
X12842801Y-11703031D01*
X12842801Y-11703031D02*
X12852324Y-11693508D01*
X12852324Y-11693508D02*
X12871372Y-11683984D01*
X13023753Y-11864936D02*
X13033277Y-11874460D01*
X13033277Y-11874460D02*
X13023753Y-11883984D01*
X13023753Y-11883984D02*
X13014229Y-11874460D01*
X13014229Y-11874460D02*
X13023753Y-11864936D01*
X13023753Y-11864936D02*
X13023753Y-11883984D01*
X13099943Y-11683984D02*
X13223753Y-11683984D01*
X13223753Y-11683984D02*
X13157086Y-11760174D01*
X13157086Y-11760174D02*
X13185658Y-11760174D01*
X13185658Y-11760174D02*
X13204705Y-11769698D01*
X13204705Y-11769698D02*
X13214229Y-11779222D01*
X13214229Y-11779222D02*
X13223753Y-11798269D01*
X13223753Y-11798269D02*
X13223753Y-11845888D01*
X13223753Y-11845888D02*
X13214229Y-11864936D01*
X13214229Y-11864936D02*
X13204705Y-11874460D01*
X13204705Y-11874460D02*
X13185658Y-11883984D01*
X13185658Y-11883984D02*
X13128515Y-11883984D01*
X13128515Y-11883984D02*
X13109467Y-11874460D01*
X13109467Y-11874460D02*
X13099943Y-11864936D01*
X13347562Y-11683984D02*
X13366610Y-11683984D01*
X13366610Y-11683984D02*
X13385658Y-11693508D01*
X13385658Y-11693508D02*
X13395182Y-11703031D01*
X13395182Y-11703031D02*
X13404705Y-11722079D01*
X13404705Y-11722079D02*
X13414229Y-11760174D01*
X13414229Y-11760174D02*
X13414229Y-11807793D01*
X13414229Y-11807793D02*
X13404705Y-11845888D01*
X13404705Y-11845888D02*
X13395182Y-11864936D01*
X13395182Y-11864936D02*
X13385658Y-11874460D01*
X13385658Y-11874460D02*
X13366610Y-11883984D01*
X13366610Y-11883984D02*
X13347562Y-11883984D01*
X13347562Y-11883984D02*
X13328515Y-11874460D01*
X13328515Y-11874460D02*
X13318991Y-11864936D01*
X13318991Y-11864936D02*
X13309467Y-11845888D01*
X13309467Y-11845888D02*
X13299943Y-11807793D01*
X13299943Y-11807793D02*
X13299943Y-11760174D01*
X13299943Y-11760174D02*
X13309467Y-11722079D01*
X13309467Y-11722079D02*
X13318991Y-11703031D01*
X13318991Y-11703031D02*
X13328515Y-11693508D01*
X13328515Y-11693508D02*
X13347562Y-11683984D01*
X13538039Y-11683984D02*
X13557086Y-11683984D01*
X13557086Y-11683984D02*
X13576134Y-11693508D01*
X13576134Y-11693508D02*
X13585658Y-11703031D01*
X13585658Y-11703031D02*
X13595182Y-11722079D01*
X13595182Y-11722079D02*
X13604705Y-11760174D01*
X13604705Y-11760174D02*
X13604705Y-11807793D01*
X13604705Y-11807793D02*
X13595182Y-11845888D01*
X13595182Y-11845888D02*
X13585658Y-11864936D01*
X13585658Y-11864936D02*
X13576134Y-11874460D01*
X13576134Y-11874460D02*
X13557086Y-11883984D01*
X13557086Y-11883984D02*
X13538039Y-11883984D01*
X13538039Y-11883984D02*
X13518991Y-11874460D01*
X13518991Y-11874460D02*
X13509467Y-11864936D01*
X13509467Y-11864936D02*
X13499943Y-11845888D01*
X13499943Y-11845888D02*
X13490420Y-11807793D01*
X13490420Y-11807793D02*
X13490420Y-11760174D01*
X13490420Y-11760174D02*
X13499943Y-11722079D01*
X13499943Y-11722079D02*
X13509467Y-11703031D01*
X13509467Y-11703031D02*
X13518991Y-11693508D01*
X13518991Y-11693508D02*
X13538039Y-11683984D01*
X13690420Y-11883984D02*
X13690420Y-11750650D01*
X13690420Y-11769698D02*
X13699943Y-11760174D01*
X13699943Y-11760174D02*
X13718991Y-11750650D01*
X13718991Y-11750650D02*
X13747563Y-11750650D01*
X13747563Y-11750650D02*
X13766610Y-11760174D01*
X13766610Y-11760174D02*
X13776134Y-11779222D01*
X13776134Y-11779222D02*
X13776134Y-11883984D01*
X13776134Y-11779222D02*
X13785658Y-11760174D01*
X13785658Y-11760174D02*
X13804705Y-11750650D01*
X13804705Y-11750650D02*
X13833277Y-11750650D01*
X13833277Y-11750650D02*
X13852324Y-11760174D01*
X13852324Y-11760174D02*
X13861848Y-11779222D01*
X13861848Y-11779222D02*
X13861848Y-11883984D01*
X13957086Y-11883984D02*
X13957086Y-11750650D01*
X13957086Y-11769698D02*
X13966610Y-11760174D01*
X13966610Y-11760174D02*
X13985658Y-11750650D01*
X13985658Y-11750650D02*
X14014229Y-11750650D01*
X14014229Y-11750650D02*
X14033277Y-11760174D01*
X14033277Y-11760174D02*
X14042801Y-11779222D01*
X14042801Y-11779222D02*
X14042801Y-11883984D01*
X14042801Y-11779222D02*
X14052324Y-11760174D01*
X14052324Y-11760174D02*
X14071372Y-11750650D01*
X14071372Y-11750650D02*
X14099943Y-11750650D01*
X14099943Y-11750650D02*
X14118991Y-11760174D01*
X14118991Y-11760174D02*
X14128515Y-11779222D01*
X14128515Y-11779222D02*
X14128515Y-11883984D01*
X14518991Y-11674460D02*
X14347563Y-11931603D01*
X14776134Y-11683984D02*
X14795182Y-11683984D01*
X14795182Y-11683984D02*
X14814229Y-11693508D01*
X14814229Y-11693508D02*
X14823753Y-11703031D01*
X14823753Y-11703031D02*
X14833277Y-11722079D01*
X14833277Y-11722079D02*
X14842801Y-11760174D01*
X14842801Y-11760174D02*
X14842801Y-11807793D01*
X14842801Y-11807793D02*
X14833277Y-11845888D01*
X14833277Y-11845888D02*
X14823753Y-11864936D01*
X14823753Y-11864936D02*
X14814229Y-11874460D01*
X14814229Y-11874460D02*
X14795182Y-11883984D01*
X14795182Y-11883984D02*
X14776134Y-11883984D01*
X14776134Y-11883984D02*
X14757086Y-11874460D01*
X14757086Y-11874460D02*
X14747563Y-11864936D01*
X14747563Y-11864936D02*
X14738039Y-11845888D01*
X14738039Y-11845888D02*
X14728515Y-11807793D01*
X14728515Y-11807793D02*
X14728515Y-11760174D01*
X14728515Y-11760174D02*
X14738039Y-11722079D01*
X14738039Y-11722079D02*
X14747563Y-11703031D01*
X14747563Y-11703031D02*
X14757086Y-11693508D01*
X14757086Y-11693508D02*
X14776134Y-11683984D01*
X14928515Y-11864936D02*
X14938039Y-11874460D01*
X14938039Y-11874460D02*
X14928515Y-11883984D01*
X14928515Y-11883984D02*
X14918991Y-11874460D01*
X14918991Y-11874460D02*
X14928515Y-11864936D01*
X14928515Y-11864936D02*
X14928515Y-11883984D01*
X15061848Y-11683984D02*
X15080896Y-11683984D01*
X15080896Y-11683984D02*
X15099944Y-11693508D01*
X15099944Y-11693508D02*
X15109467Y-11703031D01*
X15109467Y-11703031D02*
X15118991Y-11722079D01*
X15118991Y-11722079D02*
X15128515Y-11760174D01*
X15128515Y-11760174D02*
X15128515Y-11807793D01*
X15128515Y-11807793D02*
X15118991Y-11845888D01*
X15118991Y-11845888D02*
X15109467Y-11864936D01*
X15109467Y-11864936D02*
X15099944Y-11874460D01*
X15099944Y-11874460D02*
X15080896Y-11883984D01*
X15080896Y-11883984D02*
X15061848Y-11883984D01*
X15061848Y-11883984D02*
X15042801Y-11874460D01*
X15042801Y-11874460D02*
X15033277Y-11864936D01*
X15033277Y-11864936D02*
X15023753Y-11845888D01*
X15023753Y-11845888D02*
X15014229Y-11807793D01*
X15014229Y-11807793D02*
X15014229Y-11760174D01*
X15014229Y-11760174D02*
X15023753Y-11722079D01*
X15023753Y-11722079D02*
X15033277Y-11703031D01*
X15033277Y-11703031D02*
X15042801Y-11693508D01*
X15042801Y-11693508D02*
X15061848Y-11683984D01*
X15318991Y-11883984D02*
X15204706Y-11883984D01*
X15261848Y-11883984D02*
X15261848Y-11683984D01*
X15261848Y-11683984D02*
X15242801Y-11712555D01*
X15242801Y-11712555D02*
X15223753Y-11731603D01*
X15223753Y-11731603D02*
X15204706Y-11741127D01*
X15509467Y-11883984D02*
X15395182Y-11883984D01*
X15452325Y-11883984D02*
X15452325Y-11683984D01*
X15452325Y-11683984D02*
X15433277Y-11712555D01*
X15433277Y-11712555D02*
X15414229Y-11731603D01*
X15414229Y-11731603D02*
X15395182Y-11741127D01*
X15623753Y-11769698D02*
X15604706Y-11760174D01*
X15604706Y-11760174D02*
X15595182Y-11750650D01*
X15595182Y-11750650D02*
X15585658Y-11731603D01*
X15585658Y-11731603D02*
X15585658Y-11722079D01*
X15585658Y-11722079D02*
X15595182Y-11703031D01*
X15595182Y-11703031D02*
X15604706Y-11693508D01*
X15604706Y-11693508D02*
X15623753Y-11683984D01*
X15623753Y-11683984D02*
X15661848Y-11683984D01*
X15661848Y-11683984D02*
X15680896Y-11693508D01*
X15680896Y-11693508D02*
X15690420Y-11703031D01*
X15690420Y-11703031D02*
X15699944Y-11722079D01*
X15699944Y-11722079D02*
X15699944Y-11731603D01*
X15699944Y-11731603D02*
X15690420Y-11750650D01*
X15690420Y-11750650D02*
X15680896Y-11760174D01*
X15680896Y-11760174D02*
X15661848Y-11769698D01*
X15661848Y-11769698D02*
X15623753Y-11769698D01*
X15623753Y-11769698D02*
X15604706Y-11779222D01*
X15604706Y-11779222D02*
X15595182Y-11788746D01*
X15595182Y-11788746D02*
X15585658Y-11807793D01*
X15585658Y-11807793D02*
X15585658Y-11845888D01*
X15585658Y-11845888D02*
X15595182Y-11864936D01*
X15595182Y-11864936D02*
X15604706Y-11874460D01*
X15604706Y-11874460D02*
X15623753Y-11883984D01*
X15623753Y-11883984D02*
X15661848Y-11883984D01*
X15661848Y-11883984D02*
X15680896Y-11874460D01*
X15680896Y-11874460D02*
X15690420Y-11864936D01*
X15690420Y-11864936D02*
X15699944Y-11845888D01*
X15699944Y-11845888D02*
X15699944Y-11807793D01*
X15699944Y-11807793D02*
X15690420Y-11788746D01*
X15690420Y-11788746D02*
X15680896Y-11779222D01*
X15680896Y-11779222D02*
X15661848Y-11769698D01*
X15776134Y-11683984D02*
X15776134Y-11722079D01*
X15852325Y-11683984D02*
X15852325Y-11722079D01*
X16147563Y-11960174D02*
X16138039Y-11950650D01*
X16138039Y-11950650D02*
X16118991Y-11922079D01*
X16118991Y-11922079D02*
X16109468Y-11903031D01*
X16109468Y-11903031D02*
X16099944Y-11874460D01*
X16099944Y-11874460D02*
X16090420Y-11826841D01*
X16090420Y-11826841D02*
X16090420Y-11788746D01*
X16090420Y-11788746D02*
X16099944Y-11741127D01*
X16099944Y-11741127D02*
X16109468Y-11712555D01*
X16109468Y-11712555D02*
X16118991Y-11693508D01*
X16118991Y-11693508D02*
X16138039Y-11664936D01*
X16138039Y-11664936D02*
X16147563Y-11655412D01*
X16252325Y-11769698D02*
X16233277Y-11760174D01*
X16233277Y-11760174D02*
X16223753Y-11750650D01*
X16223753Y-11750650D02*
X16214229Y-11731603D01*
X16214229Y-11731603D02*
X16214229Y-11722079D01*
X16214229Y-11722079D02*
X16223753Y-11703031D01*
X16223753Y-11703031D02*
X16233277Y-11693508D01*
X16233277Y-11693508D02*
X16252325Y-11683984D01*
X16252325Y-11683984D02*
X16290420Y-11683984D01*
X16290420Y-11683984D02*
X16309468Y-11693508D01*
X16309468Y-11693508D02*
X16318991Y-11703031D01*
X16318991Y-11703031D02*
X16328515Y-11722079D01*
X16328515Y-11722079D02*
X16328515Y-11731603D01*
X16328515Y-11731603D02*
X16318991Y-11750650D01*
X16318991Y-11750650D02*
X16309468Y-11760174D01*
X16309468Y-11760174D02*
X16290420Y-11769698D01*
X16290420Y-11769698D02*
X16252325Y-11769698D01*
X16252325Y-11769698D02*
X16233277Y-11779222D01*
X16233277Y-11779222D02*
X16223753Y-11788746D01*
X16223753Y-11788746D02*
X16214229Y-11807793D01*
X16214229Y-11807793D02*
X16214229Y-11845888D01*
X16214229Y-11845888D02*
X16223753Y-11864936D01*
X16223753Y-11864936D02*
X16233277Y-11874460D01*
X16233277Y-11874460D02*
X16252325Y-11883984D01*
X16252325Y-11883984D02*
X16290420Y-11883984D01*
X16290420Y-11883984D02*
X16309468Y-11874460D01*
X16309468Y-11874460D02*
X16318991Y-11864936D01*
X16318991Y-11864936D02*
X16328515Y-11845888D01*
X16328515Y-11845888D02*
X16328515Y-11807793D01*
X16328515Y-11807793D02*
X16318991Y-11788746D01*
X16318991Y-11788746D02*
X16309468Y-11779222D01*
X16309468Y-11779222D02*
X16290420Y-11769698D01*
X16395182Y-11683984D02*
X16518991Y-11683984D01*
X16518991Y-11683984D02*
X16452325Y-11760174D01*
X16452325Y-11760174D02*
X16480896Y-11760174D01*
X16480896Y-11760174D02*
X16499944Y-11769698D01*
X16499944Y-11769698D02*
X16509468Y-11779222D01*
X16509468Y-11779222D02*
X16518991Y-11798269D01*
X16518991Y-11798269D02*
X16518991Y-11845888D01*
X16518991Y-11845888D02*
X16509468Y-11864936D01*
X16509468Y-11864936D02*
X16499944Y-11874460D01*
X16499944Y-11874460D02*
X16480896Y-11883984D01*
X16480896Y-11883984D02*
X16423753Y-11883984D01*
X16423753Y-11883984D02*
X16404706Y-11874460D01*
X16404706Y-11874460D02*
X16395182Y-11864936D01*
X16757087Y-11883984D02*
X16757087Y-11683984D01*
X16842801Y-11883984D02*
X16842801Y-11779222D01*
X16842801Y-11779222D02*
X16833277Y-11760174D01*
X16833277Y-11760174D02*
X16814230Y-11750650D01*
X16814230Y-11750650D02*
X16785658Y-11750650D01*
X16785658Y-11750650D02*
X16766610Y-11760174D01*
X16766610Y-11760174D02*
X16757087Y-11769698D01*
X16966611Y-11883984D02*
X16947563Y-11874460D01*
X16947563Y-11874460D02*
X16938039Y-11864936D01*
X16938039Y-11864936D02*
X16928515Y-11845888D01*
X16928515Y-11845888D02*
X16928515Y-11788746D01*
X16928515Y-11788746D02*
X16938039Y-11769698D01*
X16938039Y-11769698D02*
X16947563Y-11760174D01*
X16947563Y-11760174D02*
X16966611Y-11750650D01*
X16966611Y-11750650D02*
X16995182Y-11750650D01*
X16995182Y-11750650D02*
X17014230Y-11760174D01*
X17014230Y-11760174D02*
X17023753Y-11769698D01*
X17023753Y-11769698D02*
X17033277Y-11788746D01*
X17033277Y-11788746D02*
X17033277Y-11845888D01*
X17033277Y-11845888D02*
X17023753Y-11864936D01*
X17023753Y-11864936D02*
X17014230Y-11874460D01*
X17014230Y-11874460D02*
X16995182Y-11883984D01*
X16995182Y-11883984D02*
X16966611Y-11883984D01*
X17147563Y-11883984D02*
X17128515Y-11874460D01*
X17128515Y-11874460D02*
X17118992Y-11855412D01*
X17118992Y-11855412D02*
X17118992Y-11683984D01*
X17299944Y-11874460D02*
X17280896Y-11883984D01*
X17280896Y-11883984D02*
X17242801Y-11883984D01*
X17242801Y-11883984D02*
X17223753Y-11874460D01*
X17223753Y-11874460D02*
X17214230Y-11855412D01*
X17214230Y-11855412D02*
X17214230Y-11779222D01*
X17214230Y-11779222D02*
X17223753Y-11760174D01*
X17223753Y-11760174D02*
X17242801Y-11750650D01*
X17242801Y-11750650D02*
X17280896Y-11750650D01*
X17280896Y-11750650D02*
X17299944Y-11760174D01*
X17299944Y-11760174D02*
X17309468Y-11779222D01*
X17309468Y-11779222D02*
X17309468Y-11798269D01*
X17309468Y-11798269D02*
X17214230Y-11817317D01*
X17385658Y-11874460D02*
X17404706Y-11883984D01*
X17404706Y-11883984D02*
X17442801Y-11883984D01*
X17442801Y-11883984D02*
X17461849Y-11874460D01*
X17461849Y-11874460D02*
X17471373Y-11855412D01*
X17471373Y-11855412D02*
X17471373Y-11845888D01*
X17471373Y-11845888D02*
X17461849Y-11826841D01*
X17461849Y-11826841D02*
X17442801Y-11817317D01*
X17442801Y-11817317D02*
X17414230Y-11817317D01*
X17414230Y-11817317D02*
X17395182Y-11807793D01*
X17395182Y-11807793D02*
X17385658Y-11788746D01*
X17385658Y-11788746D02*
X17385658Y-11779222D01*
X17385658Y-11779222D02*
X17395182Y-11760174D01*
X17395182Y-11760174D02*
X17414230Y-11750650D01*
X17414230Y-11750650D02*
X17442801Y-11750650D01*
X17442801Y-11750650D02*
X17461849Y-11760174D01*
X17538039Y-11960174D02*
X17547563Y-11950650D01*
X17547563Y-11950650D02*
X17566611Y-11922079D01*
X17566611Y-11922079D02*
X17576134Y-11903031D01*
X17576134Y-11903031D02*
X17585658Y-11874460D01*
X17585658Y-11874460D02*
X17595182Y-11826841D01*
X17595182Y-11826841D02*
X17595182Y-11788746D01*
X17595182Y-11788746D02*
X17585658Y-11741127D01*
X17585658Y-11741127D02*
X17576134Y-11712555D01*
X17576134Y-11712555D02*
X17566611Y-11693508D01*
X17566611Y-11693508D02*
X17547563Y-11664936D01*
X17547563Y-11664936D02*
X17538039Y-11655412D01*
D12*
X12572500Y-12056500D02*
G75*
G02*
X12472500Y-12056500I-50000J0D01*
G01*
X12472500Y-12056500D02*
G75*
G02*
X12572500Y-12056500I50000J0D01*
G01*
D11*
X12938039Y-12147984D02*
X12823753Y-12147984D01*
X12880896Y-12147984D02*
X12880896Y-11947984D01*
X12880896Y-11947984D02*
X12861848Y-11976555D01*
X12861848Y-11976555D02*
X12842801Y-11995603D01*
X12842801Y-11995603D02*
X12823753Y-12005127D01*
X13023753Y-12128936D02*
X13033277Y-12138460D01*
X13033277Y-12138460D02*
X13023753Y-12147984D01*
X13023753Y-12147984D02*
X13014229Y-12138460D01*
X13014229Y-12138460D02*
X13023753Y-12128936D01*
X13023753Y-12128936D02*
X13023753Y-12147984D01*
X13157086Y-11947984D02*
X13176134Y-11947984D01*
X13176134Y-11947984D02*
X13195182Y-11957508D01*
X13195182Y-11957508D02*
X13204705Y-11967031D01*
X13204705Y-11967031D02*
X13214229Y-11986079D01*
X13214229Y-11986079D02*
X13223753Y-12024174D01*
X13223753Y-12024174D02*
X13223753Y-12071793D01*
X13223753Y-12071793D02*
X13214229Y-12109888D01*
X13214229Y-12109888D02*
X13204705Y-12128936D01*
X13204705Y-12128936D02*
X13195182Y-12138460D01*
X13195182Y-12138460D02*
X13176134Y-12147984D01*
X13176134Y-12147984D02*
X13157086Y-12147984D01*
X13157086Y-12147984D02*
X13138039Y-12138460D01*
X13138039Y-12138460D02*
X13128515Y-12128936D01*
X13128515Y-12128936D02*
X13118991Y-12109888D01*
X13118991Y-12109888D02*
X13109467Y-12071793D01*
X13109467Y-12071793D02*
X13109467Y-12024174D01*
X13109467Y-12024174D02*
X13118991Y-11986079D01*
X13118991Y-11986079D02*
X13128515Y-11967031D01*
X13128515Y-11967031D02*
X13138039Y-11957508D01*
X13138039Y-11957508D02*
X13157086Y-11947984D01*
X13347562Y-11947984D02*
X13366610Y-11947984D01*
X13366610Y-11947984D02*
X13385658Y-11957508D01*
X13385658Y-11957508D02*
X13395182Y-11967031D01*
X13395182Y-11967031D02*
X13404705Y-11986079D01*
X13404705Y-11986079D02*
X13414229Y-12024174D01*
X13414229Y-12024174D02*
X13414229Y-12071793D01*
X13414229Y-12071793D02*
X13404705Y-12109888D01*
X13404705Y-12109888D02*
X13395182Y-12128936D01*
X13395182Y-12128936D02*
X13385658Y-12138460D01*
X13385658Y-12138460D02*
X13366610Y-12147984D01*
X13366610Y-12147984D02*
X13347562Y-12147984D01*
X13347562Y-12147984D02*
X13328515Y-12138460D01*
X13328515Y-12138460D02*
X13318991Y-12128936D01*
X13318991Y-12128936D02*
X13309467Y-12109888D01*
X13309467Y-12109888D02*
X13299943Y-12071793D01*
X13299943Y-12071793D02*
X13299943Y-12024174D01*
X13299943Y-12024174D02*
X13309467Y-11986079D01*
X13309467Y-11986079D02*
X13318991Y-11967031D01*
X13318991Y-11967031D02*
X13328515Y-11957508D01*
X13328515Y-11957508D02*
X13347562Y-11947984D01*
X13538039Y-11947984D02*
X13557086Y-11947984D01*
X13557086Y-11947984D02*
X13576134Y-11957508D01*
X13576134Y-11957508D02*
X13585658Y-11967031D01*
X13585658Y-11967031D02*
X13595182Y-11986079D01*
X13595182Y-11986079D02*
X13604705Y-12024174D01*
X13604705Y-12024174D02*
X13604705Y-12071793D01*
X13604705Y-12071793D02*
X13595182Y-12109888D01*
X13595182Y-12109888D02*
X13585658Y-12128936D01*
X13585658Y-12128936D02*
X13576134Y-12138460D01*
X13576134Y-12138460D02*
X13557086Y-12147984D01*
X13557086Y-12147984D02*
X13538039Y-12147984D01*
X13538039Y-12147984D02*
X13518991Y-12138460D01*
X13518991Y-12138460D02*
X13509467Y-12128936D01*
X13509467Y-12128936D02*
X13499943Y-12109888D01*
X13499943Y-12109888D02*
X13490420Y-12071793D01*
X13490420Y-12071793D02*
X13490420Y-12024174D01*
X13490420Y-12024174D02*
X13499943Y-11986079D01*
X13499943Y-11986079D02*
X13509467Y-11967031D01*
X13509467Y-11967031D02*
X13518991Y-11957508D01*
X13518991Y-11957508D02*
X13538039Y-11947984D01*
X13690420Y-12147984D02*
X13690420Y-12014650D01*
X13690420Y-12033698D02*
X13699943Y-12024174D01*
X13699943Y-12024174D02*
X13718991Y-12014650D01*
X13718991Y-12014650D02*
X13747563Y-12014650D01*
X13747563Y-12014650D02*
X13766610Y-12024174D01*
X13766610Y-12024174D02*
X13776134Y-12043222D01*
X13776134Y-12043222D02*
X13776134Y-12147984D01*
X13776134Y-12043222D02*
X13785658Y-12024174D01*
X13785658Y-12024174D02*
X13804705Y-12014650D01*
X13804705Y-12014650D02*
X13833277Y-12014650D01*
X13833277Y-12014650D02*
X13852324Y-12024174D01*
X13852324Y-12024174D02*
X13861848Y-12043222D01*
X13861848Y-12043222D02*
X13861848Y-12147984D01*
X13957086Y-12147984D02*
X13957086Y-12014650D01*
X13957086Y-12033698D02*
X13966610Y-12024174D01*
X13966610Y-12024174D02*
X13985658Y-12014650D01*
X13985658Y-12014650D02*
X14014229Y-12014650D01*
X14014229Y-12014650D02*
X14033277Y-12024174D01*
X14033277Y-12024174D02*
X14042801Y-12043222D01*
X14042801Y-12043222D02*
X14042801Y-12147984D01*
X14042801Y-12043222D02*
X14052324Y-12024174D01*
X14052324Y-12024174D02*
X14071372Y-12014650D01*
X14071372Y-12014650D02*
X14099943Y-12014650D01*
X14099943Y-12014650D02*
X14118991Y-12024174D01*
X14118991Y-12024174D02*
X14128515Y-12043222D01*
X14128515Y-12043222D02*
X14128515Y-12147984D01*
X14518991Y-11938460D02*
X14347563Y-12195603D01*
X14776134Y-11947984D02*
X14795182Y-11947984D01*
X14795182Y-11947984D02*
X14814229Y-11957508D01*
X14814229Y-11957508D02*
X14823753Y-11967031D01*
X14823753Y-11967031D02*
X14833277Y-11986079D01*
X14833277Y-11986079D02*
X14842801Y-12024174D01*
X14842801Y-12024174D02*
X14842801Y-12071793D01*
X14842801Y-12071793D02*
X14833277Y-12109888D01*
X14833277Y-12109888D02*
X14823753Y-12128936D01*
X14823753Y-12128936D02*
X14814229Y-12138460D01*
X14814229Y-12138460D02*
X14795182Y-12147984D01*
X14795182Y-12147984D02*
X14776134Y-12147984D01*
X14776134Y-12147984D02*
X14757086Y-12138460D01*
X14757086Y-12138460D02*
X14747563Y-12128936D01*
X14747563Y-12128936D02*
X14738039Y-12109888D01*
X14738039Y-12109888D02*
X14728515Y-12071793D01*
X14728515Y-12071793D02*
X14728515Y-12024174D01*
X14728515Y-12024174D02*
X14738039Y-11986079D01*
X14738039Y-11986079D02*
X14747563Y-11967031D01*
X14747563Y-11967031D02*
X14757086Y-11957508D01*
X14757086Y-11957508D02*
X14776134Y-11947984D01*
X14928515Y-12128936D02*
X14938039Y-12138460D01*
X14938039Y-12138460D02*
X14928515Y-12147984D01*
X14928515Y-12147984D02*
X14918991Y-12138460D01*
X14918991Y-12138460D02*
X14928515Y-12128936D01*
X14928515Y-12128936D02*
X14928515Y-12147984D01*
X15061848Y-11947984D02*
X15080896Y-11947984D01*
X15080896Y-11947984D02*
X15099944Y-11957508D01*
X15099944Y-11957508D02*
X15109467Y-11967031D01*
X15109467Y-11967031D02*
X15118991Y-11986079D01*
X15118991Y-11986079D02*
X15128515Y-12024174D01*
X15128515Y-12024174D02*
X15128515Y-12071793D01*
X15128515Y-12071793D02*
X15118991Y-12109888D01*
X15118991Y-12109888D02*
X15109467Y-12128936D01*
X15109467Y-12128936D02*
X15099944Y-12138460D01*
X15099944Y-12138460D02*
X15080896Y-12147984D01*
X15080896Y-12147984D02*
X15061848Y-12147984D01*
X15061848Y-12147984D02*
X15042801Y-12138460D01*
X15042801Y-12138460D02*
X15033277Y-12128936D01*
X15033277Y-12128936D02*
X15023753Y-12109888D01*
X15023753Y-12109888D02*
X15014229Y-12071793D01*
X15014229Y-12071793D02*
X15014229Y-12024174D01*
X15014229Y-12024174D02*
X15023753Y-11986079D01*
X15023753Y-11986079D02*
X15033277Y-11967031D01*
X15033277Y-11967031D02*
X15042801Y-11957508D01*
X15042801Y-11957508D02*
X15061848Y-11947984D01*
X15195182Y-11947984D02*
X15318991Y-11947984D01*
X15318991Y-11947984D02*
X15252325Y-12024174D01*
X15252325Y-12024174D02*
X15280896Y-12024174D01*
X15280896Y-12024174D02*
X15299944Y-12033698D01*
X15299944Y-12033698D02*
X15309467Y-12043222D01*
X15309467Y-12043222D02*
X15318991Y-12062269D01*
X15318991Y-12062269D02*
X15318991Y-12109888D01*
X15318991Y-12109888D02*
X15309467Y-12128936D01*
X15309467Y-12128936D02*
X15299944Y-12138460D01*
X15299944Y-12138460D02*
X15280896Y-12147984D01*
X15280896Y-12147984D02*
X15223753Y-12147984D01*
X15223753Y-12147984D02*
X15204706Y-12138460D01*
X15204706Y-12138460D02*
X15195182Y-12128936D01*
X15414229Y-12147984D02*
X15452325Y-12147984D01*
X15452325Y-12147984D02*
X15471372Y-12138460D01*
X15471372Y-12138460D02*
X15480896Y-12128936D01*
X15480896Y-12128936D02*
X15499944Y-12100365D01*
X15499944Y-12100365D02*
X15509467Y-12062269D01*
X15509467Y-12062269D02*
X15509467Y-11986079D01*
X15509467Y-11986079D02*
X15499944Y-11967031D01*
X15499944Y-11967031D02*
X15490420Y-11957508D01*
X15490420Y-11957508D02*
X15471372Y-11947984D01*
X15471372Y-11947984D02*
X15433277Y-11947984D01*
X15433277Y-11947984D02*
X15414229Y-11957508D01*
X15414229Y-11957508D02*
X15404706Y-11967031D01*
X15404706Y-11967031D02*
X15395182Y-11986079D01*
X15395182Y-11986079D02*
X15395182Y-12033698D01*
X15395182Y-12033698D02*
X15404706Y-12052746D01*
X15404706Y-12052746D02*
X15414229Y-12062269D01*
X15414229Y-12062269D02*
X15433277Y-12071793D01*
X15433277Y-12071793D02*
X15471372Y-12071793D01*
X15471372Y-12071793D02*
X15490420Y-12062269D01*
X15490420Y-12062269D02*
X15499944Y-12052746D01*
X15499944Y-12052746D02*
X15509467Y-12033698D01*
X15680896Y-12014650D02*
X15680896Y-12147984D01*
X15633277Y-11938460D02*
X15585658Y-12081317D01*
X15585658Y-12081317D02*
X15709467Y-12081317D01*
X15776134Y-11947984D02*
X15776134Y-11986079D01*
X15852325Y-11947984D02*
X15852325Y-11986079D01*
X16147563Y-12224174D02*
X16138039Y-12214650D01*
X16138039Y-12214650D02*
X16118991Y-12186079D01*
X16118991Y-12186079D02*
X16109468Y-12167031D01*
X16109468Y-12167031D02*
X16099944Y-12138460D01*
X16099944Y-12138460D02*
X16090420Y-12090841D01*
X16090420Y-12090841D02*
X16090420Y-12052746D01*
X16090420Y-12052746D02*
X16099944Y-12005127D01*
X16099944Y-12005127D02*
X16109468Y-11976555D01*
X16109468Y-11976555D02*
X16118991Y-11957508D01*
X16118991Y-11957508D02*
X16138039Y-11928936D01*
X16138039Y-11928936D02*
X16147563Y-11919412D01*
X16328515Y-12147984D02*
X16214229Y-12147984D01*
X16271372Y-12147984D02*
X16271372Y-11947984D01*
X16271372Y-11947984D02*
X16252325Y-11976555D01*
X16252325Y-11976555D02*
X16233277Y-11995603D01*
X16233277Y-11995603D02*
X16214229Y-12005127D01*
X16509468Y-11947984D02*
X16414229Y-11947984D01*
X16414229Y-11947984D02*
X16404706Y-12043222D01*
X16404706Y-12043222D02*
X16414229Y-12033698D01*
X16414229Y-12033698D02*
X16433277Y-12024174D01*
X16433277Y-12024174D02*
X16480896Y-12024174D01*
X16480896Y-12024174D02*
X16499944Y-12033698D01*
X16499944Y-12033698D02*
X16509468Y-12043222D01*
X16509468Y-12043222D02*
X16518991Y-12062269D01*
X16518991Y-12062269D02*
X16518991Y-12109888D01*
X16518991Y-12109888D02*
X16509468Y-12128936D01*
X16509468Y-12128936D02*
X16499944Y-12138460D01*
X16499944Y-12138460D02*
X16480896Y-12147984D01*
X16480896Y-12147984D02*
X16433277Y-12147984D01*
X16433277Y-12147984D02*
X16414229Y-12138460D01*
X16414229Y-12138460D02*
X16404706Y-12128936D01*
X16757087Y-12147984D02*
X16757087Y-11947984D01*
X16842801Y-12147984D02*
X16842801Y-12043222D01*
X16842801Y-12043222D02*
X16833277Y-12024174D01*
X16833277Y-12024174D02*
X16814230Y-12014650D01*
X16814230Y-12014650D02*
X16785658Y-12014650D01*
X16785658Y-12014650D02*
X16766610Y-12024174D01*
X16766610Y-12024174D02*
X16757087Y-12033698D01*
X16966611Y-12147984D02*
X16947563Y-12138460D01*
X16947563Y-12138460D02*
X16938039Y-12128936D01*
X16938039Y-12128936D02*
X16928515Y-12109888D01*
X16928515Y-12109888D02*
X16928515Y-12052746D01*
X16928515Y-12052746D02*
X16938039Y-12033698D01*
X16938039Y-12033698D02*
X16947563Y-12024174D01*
X16947563Y-12024174D02*
X16966611Y-12014650D01*
X16966611Y-12014650D02*
X16995182Y-12014650D01*
X16995182Y-12014650D02*
X17014230Y-12024174D01*
X17014230Y-12024174D02*
X17023753Y-12033698D01*
X17023753Y-12033698D02*
X17033277Y-12052746D01*
X17033277Y-12052746D02*
X17033277Y-12109888D01*
X17033277Y-12109888D02*
X17023753Y-12128936D01*
X17023753Y-12128936D02*
X17014230Y-12138460D01*
X17014230Y-12138460D02*
X16995182Y-12147984D01*
X16995182Y-12147984D02*
X16966611Y-12147984D01*
X17147563Y-12147984D02*
X17128515Y-12138460D01*
X17128515Y-12138460D02*
X17118992Y-12119412D01*
X17118992Y-12119412D02*
X17118992Y-11947984D01*
X17299944Y-12138460D02*
X17280896Y-12147984D01*
X17280896Y-12147984D02*
X17242801Y-12147984D01*
X17242801Y-12147984D02*
X17223753Y-12138460D01*
X17223753Y-12138460D02*
X17214230Y-12119412D01*
X17214230Y-12119412D02*
X17214230Y-12043222D01*
X17214230Y-12043222D02*
X17223753Y-12024174D01*
X17223753Y-12024174D02*
X17242801Y-12014650D01*
X17242801Y-12014650D02*
X17280896Y-12014650D01*
X17280896Y-12014650D02*
X17299944Y-12024174D01*
X17299944Y-12024174D02*
X17309468Y-12043222D01*
X17309468Y-12043222D02*
X17309468Y-12062269D01*
X17309468Y-12062269D02*
X17214230Y-12081317D01*
X17385658Y-12138460D02*
X17404706Y-12147984D01*
X17404706Y-12147984D02*
X17442801Y-12147984D01*
X17442801Y-12147984D02*
X17461849Y-12138460D01*
X17461849Y-12138460D02*
X17471373Y-12119412D01*
X17471373Y-12119412D02*
X17471373Y-12109888D01*
X17471373Y-12109888D02*
X17461849Y-12090841D01*
X17461849Y-12090841D02*
X17442801Y-12081317D01*
X17442801Y-12081317D02*
X17414230Y-12081317D01*
X17414230Y-12081317D02*
X17395182Y-12071793D01*
X17395182Y-12071793D02*
X17385658Y-12052746D01*
X17385658Y-12052746D02*
X17385658Y-12043222D01*
X17385658Y-12043222D02*
X17395182Y-12024174D01*
X17395182Y-12024174D02*
X17414230Y-12014650D01*
X17414230Y-12014650D02*
X17442801Y-12014650D01*
X17442801Y-12014650D02*
X17461849Y-12024174D01*
X17538039Y-12224174D02*
X17547563Y-12214650D01*
X17547563Y-12214650D02*
X17566611Y-12186079D01*
X17566611Y-12186079D02*
X17576134Y-12167031D01*
X17576134Y-12167031D02*
X17585658Y-12138460D01*
X17585658Y-12138460D02*
X17595182Y-12090841D01*
X17595182Y-12090841D02*
X17595182Y-12052746D01*
X17595182Y-12052746D02*
X17585658Y-12005127D01*
X17585658Y-12005127D02*
X17576134Y-11976555D01*
X17576134Y-11976555D02*
X17566611Y-11957508D01*
X17566611Y-11957508D02*
X17547563Y-11928936D01*
X17547563Y-11928936D02*
X17538039Y-11919412D01*
D13*
X12521700Y-12269700D02*
X12521700Y-12371300D01*
X12470900Y-12320500D02*
X12572500Y-12320500D01*
D11*
X12938039Y-12411984D02*
X12823753Y-12411984D01*
X12880896Y-12411984D02*
X12880896Y-12211984D01*
X12880896Y-12211984D02*
X12861848Y-12240555D01*
X12861848Y-12240555D02*
X12842801Y-12259603D01*
X12842801Y-12259603D02*
X12823753Y-12269127D01*
X13023753Y-12392936D02*
X13033277Y-12402460D01*
X13033277Y-12402460D02*
X13023753Y-12411984D01*
X13023753Y-12411984D02*
X13014229Y-12402460D01*
X13014229Y-12402460D02*
X13023753Y-12392936D01*
X13023753Y-12392936D02*
X13023753Y-12411984D01*
X13157086Y-12211984D02*
X13176134Y-12211984D01*
X13176134Y-12211984D02*
X13195182Y-12221508D01*
X13195182Y-12221508D02*
X13204705Y-12231031D01*
X13204705Y-12231031D02*
X13214229Y-12250079D01*
X13214229Y-12250079D02*
X13223753Y-12288174D01*
X13223753Y-12288174D02*
X13223753Y-12335793D01*
X13223753Y-12335793D02*
X13214229Y-12373888D01*
X13214229Y-12373888D02*
X13204705Y-12392936D01*
X13204705Y-12392936D02*
X13195182Y-12402460D01*
X13195182Y-12402460D02*
X13176134Y-12411984D01*
X13176134Y-12411984D02*
X13157086Y-12411984D01*
X13157086Y-12411984D02*
X13138039Y-12402460D01*
X13138039Y-12402460D02*
X13128515Y-12392936D01*
X13128515Y-12392936D02*
X13118991Y-12373888D01*
X13118991Y-12373888D02*
X13109467Y-12335793D01*
X13109467Y-12335793D02*
X13109467Y-12288174D01*
X13109467Y-12288174D02*
X13118991Y-12250079D01*
X13118991Y-12250079D02*
X13128515Y-12231031D01*
X13128515Y-12231031D02*
X13138039Y-12221508D01*
X13138039Y-12221508D02*
X13157086Y-12211984D01*
X13414229Y-12411984D02*
X13299943Y-12411984D01*
X13357086Y-12411984D02*
X13357086Y-12211984D01*
X13357086Y-12211984D02*
X13338039Y-12240555D01*
X13338039Y-12240555D02*
X13318991Y-12259603D01*
X13318991Y-12259603D02*
X13299943Y-12269127D01*
X13585658Y-12211984D02*
X13547562Y-12211984D01*
X13547562Y-12211984D02*
X13528515Y-12221508D01*
X13528515Y-12221508D02*
X13518991Y-12231031D01*
X13518991Y-12231031D02*
X13499943Y-12259603D01*
X13499943Y-12259603D02*
X13490420Y-12297698D01*
X13490420Y-12297698D02*
X13490420Y-12373888D01*
X13490420Y-12373888D02*
X13499943Y-12392936D01*
X13499943Y-12392936D02*
X13509467Y-12402460D01*
X13509467Y-12402460D02*
X13528515Y-12411984D01*
X13528515Y-12411984D02*
X13566610Y-12411984D01*
X13566610Y-12411984D02*
X13585658Y-12402460D01*
X13585658Y-12402460D02*
X13595182Y-12392936D01*
X13595182Y-12392936D02*
X13604705Y-12373888D01*
X13604705Y-12373888D02*
X13604705Y-12326269D01*
X13604705Y-12326269D02*
X13595182Y-12307222D01*
X13595182Y-12307222D02*
X13585658Y-12297698D01*
X13585658Y-12297698D02*
X13566610Y-12288174D01*
X13566610Y-12288174D02*
X13528515Y-12288174D01*
X13528515Y-12288174D02*
X13509467Y-12297698D01*
X13509467Y-12297698D02*
X13499943Y-12307222D01*
X13499943Y-12307222D02*
X13490420Y-12326269D01*
X13690420Y-12411984D02*
X13690420Y-12278650D01*
X13690420Y-12297698D02*
X13699943Y-12288174D01*
X13699943Y-12288174D02*
X13718991Y-12278650D01*
X13718991Y-12278650D02*
X13747563Y-12278650D01*
X13747563Y-12278650D02*
X13766610Y-12288174D01*
X13766610Y-12288174D02*
X13776134Y-12307222D01*
X13776134Y-12307222D02*
X13776134Y-12411984D01*
X13776134Y-12307222D02*
X13785658Y-12288174D01*
X13785658Y-12288174D02*
X13804705Y-12278650D01*
X13804705Y-12278650D02*
X13833277Y-12278650D01*
X13833277Y-12278650D02*
X13852324Y-12288174D01*
X13852324Y-12288174D02*
X13861848Y-12307222D01*
X13861848Y-12307222D02*
X13861848Y-12411984D01*
X13957086Y-12411984D02*
X13957086Y-12278650D01*
X13957086Y-12297698D02*
X13966610Y-12288174D01*
X13966610Y-12288174D02*
X13985658Y-12278650D01*
X13985658Y-12278650D02*
X14014229Y-12278650D01*
X14014229Y-12278650D02*
X14033277Y-12288174D01*
X14033277Y-12288174D02*
X14042801Y-12307222D01*
X14042801Y-12307222D02*
X14042801Y-12411984D01*
X14042801Y-12307222D02*
X14052324Y-12288174D01*
X14052324Y-12288174D02*
X14071372Y-12278650D01*
X14071372Y-12278650D02*
X14099943Y-12278650D01*
X14099943Y-12278650D02*
X14118991Y-12288174D01*
X14118991Y-12288174D02*
X14128515Y-12307222D01*
X14128515Y-12307222D02*
X14128515Y-12411984D01*
X14518991Y-12202460D02*
X14347563Y-12459603D01*
X14776134Y-12211984D02*
X14795182Y-12211984D01*
X14795182Y-12211984D02*
X14814229Y-12221508D01*
X14814229Y-12221508D02*
X14823753Y-12231031D01*
X14823753Y-12231031D02*
X14833277Y-12250079D01*
X14833277Y-12250079D02*
X14842801Y-12288174D01*
X14842801Y-12288174D02*
X14842801Y-12335793D01*
X14842801Y-12335793D02*
X14833277Y-12373888D01*
X14833277Y-12373888D02*
X14823753Y-12392936D01*
X14823753Y-12392936D02*
X14814229Y-12402460D01*
X14814229Y-12402460D02*
X14795182Y-12411984D01*
X14795182Y-12411984D02*
X14776134Y-12411984D01*
X14776134Y-12411984D02*
X14757086Y-12402460D01*
X14757086Y-12402460D02*
X14747563Y-12392936D01*
X14747563Y-12392936D02*
X14738039Y-12373888D01*
X14738039Y-12373888D02*
X14728515Y-12335793D01*
X14728515Y-12335793D02*
X14728515Y-12288174D01*
X14728515Y-12288174D02*
X14738039Y-12250079D01*
X14738039Y-12250079D02*
X14747563Y-12231031D01*
X14747563Y-12231031D02*
X14757086Y-12221508D01*
X14757086Y-12221508D02*
X14776134Y-12211984D01*
X14928515Y-12392936D02*
X14938039Y-12402460D01*
X14938039Y-12402460D02*
X14928515Y-12411984D01*
X14928515Y-12411984D02*
X14918991Y-12402460D01*
X14918991Y-12402460D02*
X14928515Y-12392936D01*
X14928515Y-12392936D02*
X14928515Y-12411984D01*
X15061848Y-12211984D02*
X15080896Y-12211984D01*
X15080896Y-12211984D02*
X15099944Y-12221508D01*
X15099944Y-12221508D02*
X15109467Y-12231031D01*
X15109467Y-12231031D02*
X15118991Y-12250079D01*
X15118991Y-12250079D02*
X15128515Y-12288174D01*
X15128515Y-12288174D02*
X15128515Y-12335793D01*
X15128515Y-12335793D02*
X15118991Y-12373888D01*
X15118991Y-12373888D02*
X15109467Y-12392936D01*
X15109467Y-12392936D02*
X15099944Y-12402460D01*
X15099944Y-12402460D02*
X15080896Y-12411984D01*
X15080896Y-12411984D02*
X15061848Y-12411984D01*
X15061848Y-12411984D02*
X15042801Y-12402460D01*
X15042801Y-12402460D02*
X15033277Y-12392936D01*
X15033277Y-12392936D02*
X15023753Y-12373888D01*
X15023753Y-12373888D02*
X15014229Y-12335793D01*
X15014229Y-12335793D02*
X15014229Y-12288174D01*
X15014229Y-12288174D02*
X15023753Y-12250079D01*
X15023753Y-12250079D02*
X15033277Y-12231031D01*
X15033277Y-12231031D02*
X15042801Y-12221508D01*
X15042801Y-12221508D02*
X15061848Y-12211984D01*
X15299944Y-12278650D02*
X15299944Y-12411984D01*
X15252325Y-12202460D02*
X15204706Y-12345317D01*
X15204706Y-12345317D02*
X15328515Y-12345317D01*
X15442801Y-12211984D02*
X15461848Y-12211984D01*
X15461848Y-12211984D02*
X15480896Y-12221508D01*
X15480896Y-12221508D02*
X15490420Y-12231031D01*
X15490420Y-12231031D02*
X15499944Y-12250079D01*
X15499944Y-12250079D02*
X15509467Y-12288174D01*
X15509467Y-12288174D02*
X15509467Y-12335793D01*
X15509467Y-12335793D02*
X15499944Y-12373888D01*
X15499944Y-12373888D02*
X15490420Y-12392936D01*
X15490420Y-12392936D02*
X15480896Y-12402460D01*
X15480896Y-12402460D02*
X15461848Y-12411984D01*
X15461848Y-12411984D02*
X15442801Y-12411984D01*
X15442801Y-12411984D02*
X15423753Y-12402460D01*
X15423753Y-12402460D02*
X15414229Y-12392936D01*
X15414229Y-12392936D02*
X15404706Y-12373888D01*
X15404706Y-12373888D02*
X15395182Y-12335793D01*
X15395182Y-12335793D02*
X15395182Y-12288174D01*
X15395182Y-12288174D02*
X15404706Y-12250079D01*
X15404706Y-12250079D02*
X15414229Y-12231031D01*
X15414229Y-12231031D02*
X15423753Y-12221508D01*
X15423753Y-12221508D02*
X15442801Y-12211984D01*
X15633277Y-12211984D02*
X15652325Y-12211984D01*
X15652325Y-12211984D02*
X15671372Y-12221508D01*
X15671372Y-12221508D02*
X15680896Y-12231031D01*
X15680896Y-12231031D02*
X15690420Y-12250079D01*
X15690420Y-12250079D02*
X15699944Y-12288174D01*
X15699944Y-12288174D02*
X15699944Y-12335793D01*
X15699944Y-12335793D02*
X15690420Y-12373888D01*
X15690420Y-12373888D02*
X15680896Y-12392936D01*
X15680896Y-12392936D02*
X15671372Y-12402460D01*
X15671372Y-12402460D02*
X15652325Y-12411984D01*
X15652325Y-12411984D02*
X15633277Y-12411984D01*
X15633277Y-12411984D02*
X15614229Y-12402460D01*
X15614229Y-12402460D02*
X15604706Y-12392936D01*
X15604706Y-12392936D02*
X15595182Y-12373888D01*
X15595182Y-12373888D02*
X15585658Y-12335793D01*
X15585658Y-12335793D02*
X15585658Y-12288174D01*
X15585658Y-12288174D02*
X15595182Y-12250079D01*
X15595182Y-12250079D02*
X15604706Y-12231031D01*
X15604706Y-12231031D02*
X15614229Y-12221508D01*
X15614229Y-12221508D02*
X15633277Y-12211984D01*
X15776134Y-12211984D02*
X15776134Y-12250079D01*
X15852325Y-12211984D02*
X15852325Y-12250079D01*
X16147563Y-12488174D02*
X16138039Y-12478650D01*
X16138039Y-12478650D02*
X16118991Y-12450079D01*
X16118991Y-12450079D02*
X16109468Y-12431031D01*
X16109468Y-12431031D02*
X16099944Y-12402460D01*
X16099944Y-12402460D02*
X16090420Y-12354841D01*
X16090420Y-12354841D02*
X16090420Y-12316746D01*
X16090420Y-12316746D02*
X16099944Y-12269127D01*
X16099944Y-12269127D02*
X16109468Y-12240555D01*
X16109468Y-12240555D02*
X16118991Y-12221508D01*
X16118991Y-12221508D02*
X16138039Y-12192936D01*
X16138039Y-12192936D02*
X16147563Y-12183412D01*
X16204706Y-12211984D02*
X16328515Y-12211984D01*
X16328515Y-12211984D02*
X16261848Y-12288174D01*
X16261848Y-12288174D02*
X16290420Y-12288174D01*
X16290420Y-12288174D02*
X16309468Y-12297698D01*
X16309468Y-12297698D02*
X16318991Y-12307222D01*
X16318991Y-12307222D02*
X16328515Y-12326269D01*
X16328515Y-12326269D02*
X16328515Y-12373888D01*
X16328515Y-12373888D02*
X16318991Y-12392936D01*
X16318991Y-12392936D02*
X16309468Y-12402460D01*
X16309468Y-12402460D02*
X16290420Y-12411984D01*
X16290420Y-12411984D02*
X16233277Y-12411984D01*
X16233277Y-12411984D02*
X16214229Y-12402460D01*
X16214229Y-12402460D02*
X16204706Y-12392936D01*
X16452325Y-12211984D02*
X16471372Y-12211984D01*
X16471372Y-12211984D02*
X16490420Y-12221508D01*
X16490420Y-12221508D02*
X16499944Y-12231031D01*
X16499944Y-12231031D02*
X16509468Y-12250079D01*
X16509468Y-12250079D02*
X16518991Y-12288174D01*
X16518991Y-12288174D02*
X16518991Y-12335793D01*
X16518991Y-12335793D02*
X16509468Y-12373888D01*
X16509468Y-12373888D02*
X16499944Y-12392936D01*
X16499944Y-12392936D02*
X16490420Y-12402460D01*
X16490420Y-12402460D02*
X16471372Y-12411984D01*
X16471372Y-12411984D02*
X16452325Y-12411984D01*
X16452325Y-12411984D02*
X16433277Y-12402460D01*
X16433277Y-12402460D02*
X16423753Y-12392936D01*
X16423753Y-12392936D02*
X16414229Y-12373888D01*
X16414229Y-12373888D02*
X16404706Y-12335793D01*
X16404706Y-12335793D02*
X16404706Y-12288174D01*
X16404706Y-12288174D02*
X16414229Y-12250079D01*
X16414229Y-12250079D02*
X16423753Y-12231031D01*
X16423753Y-12231031D02*
X16433277Y-12221508D01*
X16433277Y-12221508D02*
X16452325Y-12211984D01*
X16757087Y-12411984D02*
X16757087Y-12211984D01*
X16842801Y-12411984D02*
X16842801Y-12307222D01*
X16842801Y-12307222D02*
X16833277Y-12288174D01*
X16833277Y-12288174D02*
X16814230Y-12278650D01*
X16814230Y-12278650D02*
X16785658Y-12278650D01*
X16785658Y-12278650D02*
X16766610Y-12288174D01*
X16766610Y-12288174D02*
X16757087Y-12297698D01*
X16966611Y-12411984D02*
X16947563Y-12402460D01*
X16947563Y-12402460D02*
X16938039Y-12392936D01*
X16938039Y-12392936D02*
X16928515Y-12373888D01*
X16928515Y-12373888D02*
X16928515Y-12316746D01*
X16928515Y-12316746D02*
X16938039Y-12297698D01*
X16938039Y-12297698D02*
X16947563Y-12288174D01*
X16947563Y-12288174D02*
X16966611Y-12278650D01*
X16966611Y-12278650D02*
X16995182Y-12278650D01*
X16995182Y-12278650D02*
X17014230Y-12288174D01*
X17014230Y-12288174D02*
X17023753Y-12297698D01*
X17023753Y-12297698D02*
X17033277Y-12316746D01*
X17033277Y-12316746D02*
X17033277Y-12373888D01*
X17033277Y-12373888D02*
X17023753Y-12392936D01*
X17023753Y-12392936D02*
X17014230Y-12402460D01*
X17014230Y-12402460D02*
X16995182Y-12411984D01*
X16995182Y-12411984D02*
X16966611Y-12411984D01*
X17147563Y-12411984D02*
X17128515Y-12402460D01*
X17128515Y-12402460D02*
X17118992Y-12383412D01*
X17118992Y-12383412D02*
X17118992Y-12211984D01*
X17299944Y-12402460D02*
X17280896Y-12411984D01*
X17280896Y-12411984D02*
X17242801Y-12411984D01*
X17242801Y-12411984D02*
X17223753Y-12402460D01*
X17223753Y-12402460D02*
X17214230Y-12383412D01*
X17214230Y-12383412D02*
X17214230Y-12307222D01*
X17214230Y-12307222D02*
X17223753Y-12288174D01*
X17223753Y-12288174D02*
X17242801Y-12278650D01*
X17242801Y-12278650D02*
X17280896Y-12278650D01*
X17280896Y-12278650D02*
X17299944Y-12288174D01*
X17299944Y-12288174D02*
X17309468Y-12307222D01*
X17309468Y-12307222D02*
X17309468Y-12326269D01*
X17309468Y-12326269D02*
X17214230Y-12345317D01*
X17385658Y-12402460D02*
X17404706Y-12411984D01*
X17404706Y-12411984D02*
X17442801Y-12411984D01*
X17442801Y-12411984D02*
X17461849Y-12402460D01*
X17461849Y-12402460D02*
X17471373Y-12383412D01*
X17471373Y-12383412D02*
X17471373Y-12373888D01*
X17471373Y-12373888D02*
X17461849Y-12354841D01*
X17461849Y-12354841D02*
X17442801Y-12345317D01*
X17442801Y-12345317D02*
X17414230Y-12345317D01*
X17414230Y-12345317D02*
X17395182Y-12335793D01*
X17395182Y-12335793D02*
X17385658Y-12316746D01*
X17385658Y-12316746D02*
X17385658Y-12307222D01*
X17385658Y-12307222D02*
X17395182Y-12288174D01*
X17395182Y-12288174D02*
X17414230Y-12278650D01*
X17414230Y-12278650D02*
X17442801Y-12278650D01*
X17442801Y-12278650D02*
X17461849Y-12288174D01*
X17538039Y-12488174D02*
X17547563Y-12478650D01*
X17547563Y-12478650D02*
X17566611Y-12450079D01*
X17566611Y-12450079D02*
X17576134Y-12431031D01*
X17576134Y-12431031D02*
X17585658Y-12402460D01*
X17585658Y-12402460D02*
X17595182Y-12354841D01*
X17595182Y-12354841D02*
X17595182Y-12316746D01*
X17595182Y-12316746D02*
X17585658Y-12269127D01*
X17585658Y-12269127D02*
X17576134Y-12240555D01*
X17576134Y-12240555D02*
X17566611Y-12221508D01*
X17566611Y-12221508D02*
X17547563Y-12192936D01*
X17547563Y-12192936D02*
X17538039Y-12183412D01*
X12543211Y-12655211D02*
X12543211Y-12513789D01*
X12401789Y-12513789D01*
X12401789Y-12655211D01*
X12543211Y-12655211D01*
X12823753Y-12495031D02*
X12833277Y-12485508D01*
X12833277Y-12485508D02*
X12852324Y-12475984D01*
X12852324Y-12475984D02*
X12899943Y-12475984D01*
X12899943Y-12475984D02*
X12918991Y-12485508D01*
X12918991Y-12485508D02*
X12928515Y-12495031D01*
X12928515Y-12495031D02*
X12938039Y-12514079D01*
X12938039Y-12514079D02*
X12938039Y-12533127D01*
X12938039Y-12533127D02*
X12928515Y-12561698D01*
X12928515Y-12561698D02*
X12814229Y-12675984D01*
X12814229Y-12675984D02*
X12938039Y-12675984D01*
X13023753Y-12656936D02*
X13033277Y-12666460D01*
X13033277Y-12666460D02*
X13023753Y-12675984D01*
X13023753Y-12675984D02*
X13014229Y-12666460D01*
X13014229Y-12666460D02*
X13023753Y-12656936D01*
X13023753Y-12656936D02*
X13023753Y-12675984D01*
X13109467Y-12495031D02*
X13118991Y-12485508D01*
X13118991Y-12485508D02*
X13138039Y-12475984D01*
X13138039Y-12475984D02*
X13185658Y-12475984D01*
X13185658Y-12475984D02*
X13204705Y-12485508D01*
X13204705Y-12485508D02*
X13214229Y-12495031D01*
X13214229Y-12495031D02*
X13223753Y-12514079D01*
X13223753Y-12514079D02*
X13223753Y-12533127D01*
X13223753Y-12533127D02*
X13214229Y-12561698D01*
X13214229Y-12561698D02*
X13099943Y-12675984D01*
X13099943Y-12675984D02*
X13223753Y-12675984D01*
X13347562Y-12475984D02*
X13366610Y-12475984D01*
X13366610Y-12475984D02*
X13385658Y-12485508D01*
X13385658Y-12485508D02*
X13395182Y-12495031D01*
X13395182Y-12495031D02*
X13404705Y-12514079D01*
X13404705Y-12514079D02*
X13414229Y-12552174D01*
X13414229Y-12552174D02*
X13414229Y-12599793D01*
X13414229Y-12599793D02*
X13404705Y-12637888D01*
X13404705Y-12637888D02*
X13395182Y-12656936D01*
X13395182Y-12656936D02*
X13385658Y-12666460D01*
X13385658Y-12666460D02*
X13366610Y-12675984D01*
X13366610Y-12675984D02*
X13347562Y-12675984D01*
X13347562Y-12675984D02*
X13328515Y-12666460D01*
X13328515Y-12666460D02*
X13318991Y-12656936D01*
X13318991Y-12656936D02*
X13309467Y-12637888D01*
X13309467Y-12637888D02*
X13299943Y-12599793D01*
X13299943Y-12599793D02*
X13299943Y-12552174D01*
X13299943Y-12552174D02*
X13309467Y-12514079D01*
X13309467Y-12514079D02*
X13318991Y-12495031D01*
X13318991Y-12495031D02*
X13328515Y-12485508D01*
X13328515Y-12485508D02*
X13347562Y-12475984D01*
X13538039Y-12475984D02*
X13557086Y-12475984D01*
X13557086Y-12475984D02*
X13576134Y-12485508D01*
X13576134Y-12485508D02*
X13585658Y-12495031D01*
X13585658Y-12495031D02*
X13595182Y-12514079D01*
X13595182Y-12514079D02*
X13604705Y-12552174D01*
X13604705Y-12552174D02*
X13604705Y-12599793D01*
X13604705Y-12599793D02*
X13595182Y-12637888D01*
X13595182Y-12637888D02*
X13585658Y-12656936D01*
X13585658Y-12656936D02*
X13576134Y-12666460D01*
X13576134Y-12666460D02*
X13557086Y-12675984D01*
X13557086Y-12675984D02*
X13538039Y-12675984D01*
X13538039Y-12675984D02*
X13518991Y-12666460D01*
X13518991Y-12666460D02*
X13509467Y-12656936D01*
X13509467Y-12656936D02*
X13499943Y-12637888D01*
X13499943Y-12637888D02*
X13490420Y-12599793D01*
X13490420Y-12599793D02*
X13490420Y-12552174D01*
X13490420Y-12552174D02*
X13499943Y-12514079D01*
X13499943Y-12514079D02*
X13509467Y-12495031D01*
X13509467Y-12495031D02*
X13518991Y-12485508D01*
X13518991Y-12485508D02*
X13538039Y-12475984D01*
X13690420Y-12675984D02*
X13690420Y-12542650D01*
X13690420Y-12561698D02*
X13699943Y-12552174D01*
X13699943Y-12552174D02*
X13718991Y-12542650D01*
X13718991Y-12542650D02*
X13747563Y-12542650D01*
X13747563Y-12542650D02*
X13766610Y-12552174D01*
X13766610Y-12552174D02*
X13776134Y-12571222D01*
X13776134Y-12571222D02*
X13776134Y-12675984D01*
X13776134Y-12571222D02*
X13785658Y-12552174D01*
X13785658Y-12552174D02*
X13804705Y-12542650D01*
X13804705Y-12542650D02*
X13833277Y-12542650D01*
X13833277Y-12542650D02*
X13852324Y-12552174D01*
X13852324Y-12552174D02*
X13861848Y-12571222D01*
X13861848Y-12571222D02*
X13861848Y-12675984D01*
X13957086Y-12675984D02*
X13957086Y-12542650D01*
X13957086Y-12561698D02*
X13966610Y-12552174D01*
X13966610Y-12552174D02*
X13985658Y-12542650D01*
X13985658Y-12542650D02*
X14014229Y-12542650D01*
X14014229Y-12542650D02*
X14033277Y-12552174D01*
X14033277Y-12552174D02*
X14042801Y-12571222D01*
X14042801Y-12571222D02*
X14042801Y-12675984D01*
X14042801Y-12571222D02*
X14052324Y-12552174D01*
X14052324Y-12552174D02*
X14071372Y-12542650D01*
X14071372Y-12542650D02*
X14099943Y-12542650D01*
X14099943Y-12542650D02*
X14118991Y-12552174D01*
X14118991Y-12552174D02*
X14128515Y-12571222D01*
X14128515Y-12571222D02*
X14128515Y-12675984D01*
X14518991Y-12466460D02*
X14347563Y-12723603D01*
X14776134Y-12475984D02*
X14795182Y-12475984D01*
X14795182Y-12475984D02*
X14814229Y-12485508D01*
X14814229Y-12485508D02*
X14823753Y-12495031D01*
X14823753Y-12495031D02*
X14833277Y-12514079D01*
X14833277Y-12514079D02*
X14842801Y-12552174D01*
X14842801Y-12552174D02*
X14842801Y-12599793D01*
X14842801Y-12599793D02*
X14833277Y-12637888D01*
X14833277Y-12637888D02*
X14823753Y-12656936D01*
X14823753Y-12656936D02*
X14814229Y-12666460D01*
X14814229Y-12666460D02*
X14795182Y-12675984D01*
X14795182Y-12675984D02*
X14776134Y-12675984D01*
X14776134Y-12675984D02*
X14757086Y-12666460D01*
X14757086Y-12666460D02*
X14747563Y-12656936D01*
X14747563Y-12656936D02*
X14738039Y-12637888D01*
X14738039Y-12637888D02*
X14728515Y-12599793D01*
X14728515Y-12599793D02*
X14728515Y-12552174D01*
X14728515Y-12552174D02*
X14738039Y-12514079D01*
X14738039Y-12514079D02*
X14747563Y-12495031D01*
X14747563Y-12495031D02*
X14757086Y-12485508D01*
X14757086Y-12485508D02*
X14776134Y-12475984D01*
X14928515Y-12656936D02*
X14938039Y-12666460D01*
X14938039Y-12666460D02*
X14928515Y-12675984D01*
X14928515Y-12675984D02*
X14918991Y-12666460D01*
X14918991Y-12666460D02*
X14928515Y-12656936D01*
X14928515Y-12656936D02*
X14928515Y-12675984D01*
X15061848Y-12475984D02*
X15080896Y-12475984D01*
X15080896Y-12475984D02*
X15099944Y-12485508D01*
X15099944Y-12485508D02*
X15109467Y-12495031D01*
X15109467Y-12495031D02*
X15118991Y-12514079D01*
X15118991Y-12514079D02*
X15128515Y-12552174D01*
X15128515Y-12552174D02*
X15128515Y-12599793D01*
X15128515Y-12599793D02*
X15118991Y-12637888D01*
X15118991Y-12637888D02*
X15109467Y-12656936D01*
X15109467Y-12656936D02*
X15099944Y-12666460D01*
X15099944Y-12666460D02*
X15080896Y-12675984D01*
X15080896Y-12675984D02*
X15061848Y-12675984D01*
X15061848Y-12675984D02*
X15042801Y-12666460D01*
X15042801Y-12666460D02*
X15033277Y-12656936D01*
X15033277Y-12656936D02*
X15023753Y-12637888D01*
X15023753Y-12637888D02*
X15014229Y-12599793D01*
X15014229Y-12599793D02*
X15014229Y-12552174D01*
X15014229Y-12552174D02*
X15023753Y-12514079D01*
X15023753Y-12514079D02*
X15033277Y-12495031D01*
X15033277Y-12495031D02*
X15042801Y-12485508D01*
X15042801Y-12485508D02*
X15061848Y-12475984D01*
X15242801Y-12561698D02*
X15223753Y-12552174D01*
X15223753Y-12552174D02*
X15214229Y-12542650D01*
X15214229Y-12542650D02*
X15204706Y-12523603D01*
X15204706Y-12523603D02*
X15204706Y-12514079D01*
X15204706Y-12514079D02*
X15214229Y-12495031D01*
X15214229Y-12495031D02*
X15223753Y-12485508D01*
X15223753Y-12485508D02*
X15242801Y-12475984D01*
X15242801Y-12475984D02*
X15280896Y-12475984D01*
X15280896Y-12475984D02*
X15299944Y-12485508D01*
X15299944Y-12485508D02*
X15309467Y-12495031D01*
X15309467Y-12495031D02*
X15318991Y-12514079D01*
X15318991Y-12514079D02*
X15318991Y-12523603D01*
X15318991Y-12523603D02*
X15309467Y-12542650D01*
X15309467Y-12542650D02*
X15299944Y-12552174D01*
X15299944Y-12552174D02*
X15280896Y-12561698D01*
X15280896Y-12561698D02*
X15242801Y-12561698D01*
X15242801Y-12561698D02*
X15223753Y-12571222D01*
X15223753Y-12571222D02*
X15214229Y-12580746D01*
X15214229Y-12580746D02*
X15204706Y-12599793D01*
X15204706Y-12599793D02*
X15204706Y-12637888D01*
X15204706Y-12637888D02*
X15214229Y-12656936D01*
X15214229Y-12656936D02*
X15223753Y-12666460D01*
X15223753Y-12666460D02*
X15242801Y-12675984D01*
X15242801Y-12675984D02*
X15280896Y-12675984D01*
X15280896Y-12675984D02*
X15299944Y-12666460D01*
X15299944Y-12666460D02*
X15309467Y-12656936D01*
X15309467Y-12656936D02*
X15318991Y-12637888D01*
X15318991Y-12637888D02*
X15318991Y-12599793D01*
X15318991Y-12599793D02*
X15309467Y-12580746D01*
X15309467Y-12580746D02*
X15299944Y-12571222D01*
X15299944Y-12571222D02*
X15280896Y-12561698D01*
X15490420Y-12475984D02*
X15452325Y-12475984D01*
X15452325Y-12475984D02*
X15433277Y-12485508D01*
X15433277Y-12485508D02*
X15423753Y-12495031D01*
X15423753Y-12495031D02*
X15404706Y-12523603D01*
X15404706Y-12523603D02*
X15395182Y-12561698D01*
X15395182Y-12561698D02*
X15395182Y-12637888D01*
X15395182Y-12637888D02*
X15404706Y-12656936D01*
X15404706Y-12656936D02*
X15414229Y-12666460D01*
X15414229Y-12666460D02*
X15433277Y-12675984D01*
X15433277Y-12675984D02*
X15471372Y-12675984D01*
X15471372Y-12675984D02*
X15490420Y-12666460D01*
X15490420Y-12666460D02*
X15499944Y-12656936D01*
X15499944Y-12656936D02*
X15509467Y-12637888D01*
X15509467Y-12637888D02*
X15509467Y-12590269D01*
X15509467Y-12590269D02*
X15499944Y-12571222D01*
X15499944Y-12571222D02*
X15490420Y-12561698D01*
X15490420Y-12561698D02*
X15471372Y-12552174D01*
X15471372Y-12552174D02*
X15433277Y-12552174D01*
X15433277Y-12552174D02*
X15414229Y-12561698D01*
X15414229Y-12561698D02*
X15404706Y-12571222D01*
X15404706Y-12571222D02*
X15395182Y-12590269D01*
X15680896Y-12475984D02*
X15642801Y-12475984D01*
X15642801Y-12475984D02*
X15623753Y-12485508D01*
X15623753Y-12485508D02*
X15614229Y-12495031D01*
X15614229Y-12495031D02*
X15595182Y-12523603D01*
X15595182Y-12523603D02*
X15585658Y-12561698D01*
X15585658Y-12561698D02*
X15585658Y-12637888D01*
X15585658Y-12637888D02*
X15595182Y-12656936D01*
X15595182Y-12656936D02*
X15604706Y-12666460D01*
X15604706Y-12666460D02*
X15623753Y-12675984D01*
X15623753Y-12675984D02*
X15661848Y-12675984D01*
X15661848Y-12675984D02*
X15680896Y-12666460D01*
X15680896Y-12666460D02*
X15690420Y-12656936D01*
X15690420Y-12656936D02*
X15699944Y-12637888D01*
X15699944Y-12637888D02*
X15699944Y-12590269D01*
X15699944Y-12590269D02*
X15690420Y-12571222D01*
X15690420Y-12571222D02*
X15680896Y-12561698D01*
X15680896Y-12561698D02*
X15661848Y-12552174D01*
X15661848Y-12552174D02*
X15623753Y-12552174D01*
X15623753Y-12552174D02*
X15604706Y-12561698D01*
X15604706Y-12561698D02*
X15595182Y-12571222D01*
X15595182Y-12571222D02*
X15585658Y-12590269D01*
X15776134Y-12475984D02*
X15776134Y-12514079D01*
X15852325Y-12475984D02*
X15852325Y-12514079D01*
X16147563Y-12752174D02*
X16138039Y-12742650D01*
X16138039Y-12742650D02*
X16118991Y-12714079D01*
X16118991Y-12714079D02*
X16109468Y-12695031D01*
X16109468Y-12695031D02*
X16099944Y-12666460D01*
X16099944Y-12666460D02*
X16090420Y-12618841D01*
X16090420Y-12618841D02*
X16090420Y-12580746D01*
X16090420Y-12580746D02*
X16099944Y-12533127D01*
X16099944Y-12533127D02*
X16109468Y-12504555D01*
X16109468Y-12504555D02*
X16118991Y-12485508D01*
X16118991Y-12485508D02*
X16138039Y-12456936D01*
X16138039Y-12456936D02*
X16147563Y-12447412D01*
X16214229Y-12495031D02*
X16223753Y-12485508D01*
X16223753Y-12485508D02*
X16242801Y-12475984D01*
X16242801Y-12475984D02*
X16290420Y-12475984D01*
X16290420Y-12475984D02*
X16309468Y-12485508D01*
X16309468Y-12485508D02*
X16318991Y-12495031D01*
X16318991Y-12495031D02*
X16328515Y-12514079D01*
X16328515Y-12514079D02*
X16328515Y-12533127D01*
X16328515Y-12533127D02*
X16318991Y-12561698D01*
X16318991Y-12561698D02*
X16204706Y-12675984D01*
X16204706Y-12675984D02*
X16328515Y-12675984D01*
X16566610Y-12675984D02*
X16566610Y-12475984D01*
X16652325Y-12675984D02*
X16652325Y-12571222D01*
X16652325Y-12571222D02*
X16642801Y-12552174D01*
X16642801Y-12552174D02*
X16623753Y-12542650D01*
X16623753Y-12542650D02*
X16595182Y-12542650D01*
X16595182Y-12542650D02*
X16576134Y-12552174D01*
X16576134Y-12552174D02*
X16566610Y-12561698D01*
X16776134Y-12675984D02*
X16757087Y-12666460D01*
X16757087Y-12666460D02*
X16747563Y-12656936D01*
X16747563Y-12656936D02*
X16738039Y-12637888D01*
X16738039Y-12637888D02*
X16738039Y-12580746D01*
X16738039Y-12580746D02*
X16747563Y-12561698D01*
X16747563Y-12561698D02*
X16757087Y-12552174D01*
X16757087Y-12552174D02*
X16776134Y-12542650D01*
X16776134Y-12542650D02*
X16804706Y-12542650D01*
X16804706Y-12542650D02*
X16823753Y-12552174D01*
X16823753Y-12552174D02*
X16833277Y-12561698D01*
X16833277Y-12561698D02*
X16842801Y-12580746D01*
X16842801Y-12580746D02*
X16842801Y-12637888D01*
X16842801Y-12637888D02*
X16833277Y-12656936D01*
X16833277Y-12656936D02*
X16823753Y-12666460D01*
X16823753Y-12666460D02*
X16804706Y-12675984D01*
X16804706Y-12675984D02*
X16776134Y-12675984D01*
X16957087Y-12675984D02*
X16938039Y-12666460D01*
X16938039Y-12666460D02*
X16928515Y-12647412D01*
X16928515Y-12647412D02*
X16928515Y-12475984D01*
X17109468Y-12666460D02*
X17090420Y-12675984D01*
X17090420Y-12675984D02*
X17052325Y-12675984D01*
X17052325Y-12675984D02*
X17033277Y-12666460D01*
X17033277Y-12666460D02*
X17023753Y-12647412D01*
X17023753Y-12647412D02*
X17023753Y-12571222D01*
X17023753Y-12571222D02*
X17033277Y-12552174D01*
X17033277Y-12552174D02*
X17052325Y-12542650D01*
X17052325Y-12542650D02*
X17090420Y-12542650D01*
X17090420Y-12542650D02*
X17109468Y-12552174D01*
X17109468Y-12552174D02*
X17118992Y-12571222D01*
X17118992Y-12571222D02*
X17118992Y-12590269D01*
X17118992Y-12590269D02*
X17023753Y-12609317D01*
X17195182Y-12666460D02*
X17214230Y-12675984D01*
X17214230Y-12675984D02*
X17252325Y-12675984D01*
X17252325Y-12675984D02*
X17271373Y-12666460D01*
X17271373Y-12666460D02*
X17280896Y-12647412D01*
X17280896Y-12647412D02*
X17280896Y-12637888D01*
X17280896Y-12637888D02*
X17271373Y-12618841D01*
X17271373Y-12618841D02*
X17252325Y-12609317D01*
X17252325Y-12609317D02*
X17223753Y-12609317D01*
X17223753Y-12609317D02*
X17204706Y-12599793D01*
X17204706Y-12599793D02*
X17195182Y-12580746D01*
X17195182Y-12580746D02*
X17195182Y-12571222D01*
X17195182Y-12571222D02*
X17204706Y-12552174D01*
X17204706Y-12552174D02*
X17223753Y-12542650D01*
X17223753Y-12542650D02*
X17252325Y-12542650D01*
X17252325Y-12542650D02*
X17271373Y-12552174D01*
X17347563Y-12752174D02*
X17357087Y-12742650D01*
X17357087Y-12742650D02*
X17376134Y-12714079D01*
X17376134Y-12714079D02*
X17385658Y-12695031D01*
X17385658Y-12695031D02*
X17395182Y-12666460D01*
X17395182Y-12666460D02*
X17404706Y-12618841D01*
X17404706Y-12618841D02*
X17404706Y-12580746D01*
X17404706Y-12580746D02*
X17395182Y-12533127D01*
X17395182Y-12533127D02*
X17385658Y-12504555D01*
X17385658Y-12504555D02*
X17376134Y-12485508D01*
X17376134Y-12485508D02*
X17357087Y-12456936D01*
X17357087Y-12456936D02*
X17347563Y-12447412D01*
M02*
