%TF.GenerationSoftware,KiCad,Pcbnew,8.0.7*%
%TF.CreationDate,2024-12-28T13:43:39+03:00*%
%TF.ProjectId,SingleSwitch,53696e67-6c65-4537-9769-7463682e6b69,rev?*%
%TF.SameCoordinates,Original*%
%TF.FileFunction,AssemblyDrawing,Top*%
%FSLAX46Y46*%
G04 Gerber Fmt 4.6, Leading zero omitted, Abs format (unit mm)*
G04 Created by KiCad (PCBNEW 8.0.7) date 2024-12-28 13:43:39*
%MOMM*%
%LPD*%
G01*
G04 APERTURE LIST*
%ADD10C,0.150000*%
%ADD11C,0.060000*%
%ADD12C,0.040000*%
%ADD13C,0.120000*%
%ADD14C,0.100000*%
%ADD15C,0.127000*%
%ADD16C,0.200000*%
G04 APERTURE END LIST*
D10*
X139010714Y-63954819D02*
X138439286Y-63954819D01*
X138725000Y-63954819D02*
X138725000Y-62954819D01*
X138725000Y-62954819D02*
X138629762Y-63097676D01*
X138629762Y-63097676D02*
X138534524Y-63192914D01*
X138534524Y-63192914D02*
X138439286Y-63240533D01*
X139629762Y-62954819D02*
X139725000Y-62954819D01*
X139725000Y-62954819D02*
X139820238Y-63002438D01*
X139820238Y-63002438D02*
X139867857Y-63050057D01*
X139867857Y-63050057D02*
X139915476Y-63145295D01*
X139915476Y-63145295D02*
X139963095Y-63335771D01*
X139963095Y-63335771D02*
X139963095Y-63573866D01*
X139963095Y-63573866D02*
X139915476Y-63764342D01*
X139915476Y-63764342D02*
X139867857Y-63859580D01*
X139867857Y-63859580D02*
X139820238Y-63907200D01*
X139820238Y-63907200D02*
X139725000Y-63954819D01*
X139725000Y-63954819D02*
X139629762Y-63954819D01*
X139629762Y-63954819D02*
X139534524Y-63907200D01*
X139534524Y-63907200D02*
X139486905Y-63859580D01*
X139486905Y-63859580D02*
X139439286Y-63764342D01*
X139439286Y-63764342D02*
X139391667Y-63573866D01*
X139391667Y-63573866D02*
X139391667Y-63335771D01*
X139391667Y-63335771D02*
X139439286Y-63145295D01*
X139439286Y-63145295D02*
X139486905Y-63050057D01*
X139486905Y-63050057D02*
X139534524Y-63002438D01*
X139534524Y-63002438D02*
X139629762Y-62954819D01*
X140391667Y-62954819D02*
X140391667Y-63764342D01*
X140391667Y-63764342D02*
X140439286Y-63859580D01*
X140439286Y-63859580D02*
X140486905Y-63907200D01*
X140486905Y-63907200D02*
X140582143Y-63954819D01*
X140582143Y-63954819D02*
X140772619Y-63954819D01*
X140772619Y-63954819D02*
X140867857Y-63907200D01*
X140867857Y-63907200D02*
X140915476Y-63859580D01*
X140915476Y-63859580D02*
X140963095Y-63764342D01*
X140963095Y-63764342D02*
X140963095Y-62954819D01*
D11*
X139467857Y-62393832D02*
X139448809Y-62412880D01*
X139448809Y-62412880D02*
X139391667Y-62431927D01*
X139391667Y-62431927D02*
X139353571Y-62431927D01*
X139353571Y-62431927D02*
X139296428Y-62412880D01*
X139296428Y-62412880D02*
X139258333Y-62374784D01*
X139258333Y-62374784D02*
X139239286Y-62336689D01*
X139239286Y-62336689D02*
X139220238Y-62260499D01*
X139220238Y-62260499D02*
X139220238Y-62203356D01*
X139220238Y-62203356D02*
X139239286Y-62127165D01*
X139239286Y-62127165D02*
X139258333Y-62089070D01*
X139258333Y-62089070D02*
X139296428Y-62050975D01*
X139296428Y-62050975D02*
X139353571Y-62031927D01*
X139353571Y-62031927D02*
X139391667Y-62031927D01*
X139391667Y-62031927D02*
X139448809Y-62050975D01*
X139448809Y-62050975D02*
X139467857Y-62070022D01*
X139848809Y-62431927D02*
X139620238Y-62431927D01*
X139734524Y-62431927D02*
X139734524Y-62031927D01*
X139734524Y-62031927D02*
X139696428Y-62089070D01*
X139696428Y-62089070D02*
X139658333Y-62127165D01*
X139658333Y-62127165D02*
X139620238Y-62146213D01*
X140229761Y-62431927D02*
X140001190Y-62431927D01*
X140115476Y-62431927D02*
X140115476Y-62031927D01*
X140115476Y-62031927D02*
X140077380Y-62089070D01*
X140077380Y-62089070D02*
X140039285Y-62127165D01*
X140039285Y-62127165D02*
X140001190Y-62146213D01*
D10*
X131285714Y-62204819D02*
X130714286Y-62204819D01*
X131000000Y-62204819D02*
X131000000Y-61204819D01*
X131000000Y-61204819D02*
X130904762Y-61347676D01*
X130904762Y-61347676D02*
X130809524Y-61442914D01*
X130809524Y-61442914D02*
X130714286Y-61490533D01*
X131904762Y-61204819D02*
X132000000Y-61204819D01*
X132000000Y-61204819D02*
X132095238Y-61252438D01*
X132095238Y-61252438D02*
X132142857Y-61300057D01*
X132142857Y-61300057D02*
X132190476Y-61395295D01*
X132190476Y-61395295D02*
X132238095Y-61585771D01*
X132238095Y-61585771D02*
X132238095Y-61823866D01*
X132238095Y-61823866D02*
X132190476Y-62014342D01*
X132190476Y-62014342D02*
X132142857Y-62109580D01*
X132142857Y-62109580D02*
X132095238Y-62157200D01*
X132095238Y-62157200D02*
X132000000Y-62204819D01*
X132000000Y-62204819D02*
X131904762Y-62204819D01*
X131904762Y-62204819D02*
X131809524Y-62157200D01*
X131809524Y-62157200D02*
X131761905Y-62109580D01*
X131761905Y-62109580D02*
X131714286Y-62014342D01*
X131714286Y-62014342D02*
X131666667Y-61823866D01*
X131666667Y-61823866D02*
X131666667Y-61585771D01*
X131666667Y-61585771D02*
X131714286Y-61395295D01*
X131714286Y-61395295D02*
X131761905Y-61300057D01*
X131761905Y-61300057D02*
X131809524Y-61252438D01*
X131809524Y-61252438D02*
X131904762Y-61204819D01*
X132666667Y-61204819D02*
X132666667Y-62014342D01*
X132666667Y-62014342D02*
X132714286Y-62109580D01*
X132714286Y-62109580D02*
X132761905Y-62157200D01*
X132761905Y-62157200D02*
X132857143Y-62204819D01*
X132857143Y-62204819D02*
X133047619Y-62204819D01*
X133047619Y-62204819D02*
X133142857Y-62157200D01*
X133142857Y-62157200D02*
X133190476Y-62109580D01*
X133190476Y-62109580D02*
X133238095Y-62014342D01*
X133238095Y-62014342D02*
X133238095Y-61204819D01*
D11*
X134967857Y-62143832D02*
X134948809Y-62162880D01*
X134948809Y-62162880D02*
X134891667Y-62181927D01*
X134891667Y-62181927D02*
X134853571Y-62181927D01*
X134853571Y-62181927D02*
X134796428Y-62162880D01*
X134796428Y-62162880D02*
X134758333Y-62124784D01*
X134758333Y-62124784D02*
X134739286Y-62086689D01*
X134739286Y-62086689D02*
X134720238Y-62010499D01*
X134720238Y-62010499D02*
X134720238Y-61953356D01*
X134720238Y-61953356D02*
X134739286Y-61877165D01*
X134739286Y-61877165D02*
X134758333Y-61839070D01*
X134758333Y-61839070D02*
X134796428Y-61800975D01*
X134796428Y-61800975D02*
X134853571Y-61781927D01*
X134853571Y-61781927D02*
X134891667Y-61781927D01*
X134891667Y-61781927D02*
X134948809Y-61800975D01*
X134948809Y-61800975D02*
X134967857Y-61820022D01*
X135348809Y-62181927D02*
X135120238Y-62181927D01*
X135234524Y-62181927D02*
X135234524Y-61781927D01*
X135234524Y-61781927D02*
X135196428Y-61839070D01*
X135196428Y-61839070D02*
X135158333Y-61877165D01*
X135158333Y-61877165D02*
X135120238Y-61896213D01*
X135596428Y-61781927D02*
X135634523Y-61781927D01*
X135634523Y-61781927D02*
X135672619Y-61800975D01*
X135672619Y-61800975D02*
X135691666Y-61820022D01*
X135691666Y-61820022D02*
X135710714Y-61858118D01*
X135710714Y-61858118D02*
X135729761Y-61934308D01*
X135729761Y-61934308D02*
X135729761Y-62029546D01*
X135729761Y-62029546D02*
X135710714Y-62105737D01*
X135710714Y-62105737D02*
X135691666Y-62143832D01*
X135691666Y-62143832D02*
X135672619Y-62162880D01*
X135672619Y-62162880D02*
X135634523Y-62181927D01*
X135634523Y-62181927D02*
X135596428Y-62181927D01*
X135596428Y-62181927D02*
X135558333Y-62162880D01*
X135558333Y-62162880D02*
X135539285Y-62143832D01*
X135539285Y-62143832D02*
X135520238Y-62105737D01*
X135520238Y-62105737D02*
X135501190Y-62029546D01*
X135501190Y-62029546D02*
X135501190Y-61934308D01*
X135501190Y-61934308D02*
X135520238Y-61858118D01*
X135520238Y-61858118D02*
X135539285Y-61820022D01*
X135539285Y-61820022D02*
X135558333Y-61800975D01*
X135558333Y-61800975D02*
X135596428Y-61781927D01*
D10*
X138323333Y-96704819D02*
X137751905Y-96704819D01*
X138037619Y-96704819D02*
X138037619Y-95704819D01*
X138037619Y-95704819D02*
X137942381Y-95847676D01*
X137942381Y-95847676D02*
X137847143Y-95942914D01*
X137847143Y-95942914D02*
X137751905Y-95990533D01*
X138942381Y-95704819D02*
X139037619Y-95704819D01*
X139037619Y-95704819D02*
X139132857Y-95752438D01*
X139132857Y-95752438D02*
X139180476Y-95800057D01*
X139180476Y-95800057D02*
X139228095Y-95895295D01*
X139228095Y-95895295D02*
X139275714Y-96085771D01*
X139275714Y-96085771D02*
X139275714Y-96323866D01*
X139275714Y-96323866D02*
X139228095Y-96514342D01*
X139228095Y-96514342D02*
X139180476Y-96609580D01*
X139180476Y-96609580D02*
X139132857Y-96657200D01*
X139132857Y-96657200D02*
X139037619Y-96704819D01*
X139037619Y-96704819D02*
X138942381Y-96704819D01*
X138942381Y-96704819D02*
X138847143Y-96657200D01*
X138847143Y-96657200D02*
X138799524Y-96609580D01*
X138799524Y-96609580D02*
X138751905Y-96514342D01*
X138751905Y-96514342D02*
X138704286Y-96323866D01*
X138704286Y-96323866D02*
X138704286Y-96085771D01*
X138704286Y-96085771D02*
X138751905Y-95895295D01*
X138751905Y-95895295D02*
X138799524Y-95800057D01*
X138799524Y-95800057D02*
X138847143Y-95752438D01*
X138847143Y-95752438D02*
X138942381Y-95704819D01*
X139894762Y-95704819D02*
X139990000Y-95704819D01*
X139990000Y-95704819D02*
X140085238Y-95752438D01*
X140085238Y-95752438D02*
X140132857Y-95800057D01*
X140132857Y-95800057D02*
X140180476Y-95895295D01*
X140180476Y-95895295D02*
X140228095Y-96085771D01*
X140228095Y-96085771D02*
X140228095Y-96323866D01*
X140228095Y-96323866D02*
X140180476Y-96514342D01*
X140180476Y-96514342D02*
X140132857Y-96609580D01*
X140132857Y-96609580D02*
X140085238Y-96657200D01*
X140085238Y-96657200D02*
X139990000Y-96704819D01*
X139990000Y-96704819D02*
X139894762Y-96704819D01*
X139894762Y-96704819D02*
X139799524Y-96657200D01*
X139799524Y-96657200D02*
X139751905Y-96609580D01*
X139751905Y-96609580D02*
X139704286Y-96514342D01*
X139704286Y-96514342D02*
X139656667Y-96323866D01*
X139656667Y-96323866D02*
X139656667Y-96085771D01*
X139656667Y-96085771D02*
X139704286Y-95895295D01*
X139704286Y-95895295D02*
X139751905Y-95800057D01*
X139751905Y-95800057D02*
X139799524Y-95752438D01*
X139799524Y-95752438D02*
X139894762Y-95704819D01*
D12*
X138822857Y-96368200D02*
X138736190Y-96244391D01*
X138674285Y-96368200D02*
X138674285Y-96108200D01*
X138674285Y-96108200D02*
X138773333Y-96108200D01*
X138773333Y-96108200D02*
X138798095Y-96120581D01*
X138798095Y-96120581D02*
X138810476Y-96132962D01*
X138810476Y-96132962D02*
X138822857Y-96157724D01*
X138822857Y-96157724D02*
X138822857Y-96194867D01*
X138822857Y-96194867D02*
X138810476Y-96219629D01*
X138810476Y-96219629D02*
X138798095Y-96232010D01*
X138798095Y-96232010D02*
X138773333Y-96244391D01*
X138773333Y-96244391D02*
X138674285Y-96244391D01*
X139070476Y-96368200D02*
X138921904Y-96368200D01*
X138996190Y-96368200D02*
X138996190Y-96108200D01*
X138996190Y-96108200D02*
X138971428Y-96145343D01*
X138971428Y-96145343D02*
X138946666Y-96170105D01*
X138946666Y-96170105D02*
X138921904Y-96182486D01*
X139231428Y-96108200D02*
X139256190Y-96108200D01*
X139256190Y-96108200D02*
X139280952Y-96120581D01*
X139280952Y-96120581D02*
X139293333Y-96132962D01*
X139293333Y-96132962D02*
X139305714Y-96157724D01*
X139305714Y-96157724D02*
X139318095Y-96207248D01*
X139318095Y-96207248D02*
X139318095Y-96269153D01*
X139318095Y-96269153D02*
X139305714Y-96318677D01*
X139305714Y-96318677D02*
X139293333Y-96343439D01*
X139293333Y-96343439D02*
X139280952Y-96355820D01*
X139280952Y-96355820D02*
X139256190Y-96368200D01*
X139256190Y-96368200D02*
X139231428Y-96368200D01*
X139231428Y-96368200D02*
X139206666Y-96355820D01*
X139206666Y-96355820D02*
X139194285Y-96343439D01*
X139194285Y-96343439D02*
X139181904Y-96318677D01*
X139181904Y-96318677D02*
X139169523Y-96269153D01*
X139169523Y-96269153D02*
X139169523Y-96207248D01*
X139169523Y-96207248D02*
X139181904Y-96157724D01*
X139181904Y-96157724D02*
X139194285Y-96132962D01*
X139194285Y-96132962D02*
X139206666Y-96120581D01*
X139206666Y-96120581D02*
X139231428Y-96108200D01*
D10*
X126678570Y-91681009D02*
X126821427Y-91728628D01*
X126821427Y-91728628D02*
X126869046Y-91776247D01*
X126869046Y-91776247D02*
X126916665Y-91871485D01*
X126916665Y-91871485D02*
X126916665Y-92014342D01*
X126916665Y-92014342D02*
X126869046Y-92109580D01*
X126869046Y-92109580D02*
X126821427Y-92157200D01*
X126821427Y-92157200D02*
X126726189Y-92204819D01*
X126726189Y-92204819D02*
X126345237Y-92204819D01*
X126345237Y-92204819D02*
X126345237Y-91204819D01*
X126345237Y-91204819D02*
X126678570Y-91204819D01*
X126678570Y-91204819D02*
X126773808Y-91252438D01*
X126773808Y-91252438D02*
X126821427Y-91300057D01*
X126821427Y-91300057D02*
X126869046Y-91395295D01*
X126869046Y-91395295D02*
X126869046Y-91490533D01*
X126869046Y-91490533D02*
X126821427Y-91585771D01*
X126821427Y-91585771D02*
X126773808Y-91633390D01*
X126773808Y-91633390D02*
X126678570Y-91681009D01*
X126678570Y-91681009D02*
X126345237Y-91681009D01*
X127773808Y-91538152D02*
X127773808Y-92204819D01*
X127345237Y-91538152D02*
X127345237Y-92061961D01*
X127345237Y-92061961D02*
X127392856Y-92157200D01*
X127392856Y-92157200D02*
X127488094Y-92204819D01*
X127488094Y-92204819D02*
X127630951Y-92204819D01*
X127630951Y-92204819D02*
X127726189Y-92157200D01*
X127726189Y-92157200D02*
X127773808Y-92109580D01*
X128392856Y-92204819D02*
X128297618Y-92157200D01*
X128297618Y-92157200D02*
X128249999Y-92061961D01*
X128249999Y-92061961D02*
X128249999Y-91204819D01*
X128773809Y-92204819D02*
X128773809Y-91204819D01*
X128773809Y-91585771D02*
X128869047Y-91538152D01*
X128869047Y-91538152D02*
X129059523Y-91538152D01*
X129059523Y-91538152D02*
X129154761Y-91585771D01*
X129154761Y-91585771D02*
X129202380Y-91633390D01*
X129202380Y-91633390D02*
X129249999Y-91728628D01*
X129249999Y-91728628D02*
X129249999Y-92014342D01*
X129249999Y-92014342D02*
X129202380Y-92109580D01*
X129202380Y-92109580D02*
X129154761Y-92157200D01*
X129154761Y-92157200D02*
X129059523Y-92204819D01*
X129059523Y-92204819D02*
X128869047Y-92204819D01*
X128869047Y-92204819D02*
X128773809Y-92157200D01*
X130297619Y-91538152D02*
X130678571Y-91538152D01*
X130440476Y-91204819D02*
X130440476Y-92061961D01*
X130440476Y-92061961D02*
X130488095Y-92157200D01*
X130488095Y-92157200D02*
X130583333Y-92204819D01*
X130583333Y-92204819D02*
X130678571Y-92204819D01*
X131392857Y-92157200D02*
X131297619Y-92204819D01*
X131297619Y-92204819D02*
X131107143Y-92204819D01*
X131107143Y-92204819D02*
X131011905Y-92157200D01*
X131011905Y-92157200D02*
X130964286Y-92061961D01*
X130964286Y-92061961D02*
X130964286Y-91681009D01*
X130964286Y-91681009D02*
X131011905Y-91585771D01*
X131011905Y-91585771D02*
X131107143Y-91538152D01*
X131107143Y-91538152D02*
X131297619Y-91538152D01*
X131297619Y-91538152D02*
X131392857Y-91585771D01*
X131392857Y-91585771D02*
X131440476Y-91681009D01*
X131440476Y-91681009D02*
X131440476Y-91776247D01*
X131440476Y-91776247D02*
X130964286Y-91871485D01*
X131869048Y-92204819D02*
X131869048Y-91538152D01*
X131869048Y-91728628D02*
X131916667Y-91633390D01*
X131916667Y-91633390D02*
X131964286Y-91585771D01*
X131964286Y-91585771D02*
X132059524Y-91538152D01*
X132059524Y-91538152D02*
X132154762Y-91538152D01*
X132488096Y-92204819D02*
X132488096Y-91538152D01*
X132488096Y-91633390D02*
X132535715Y-91585771D01*
X132535715Y-91585771D02*
X132630953Y-91538152D01*
X132630953Y-91538152D02*
X132773810Y-91538152D01*
X132773810Y-91538152D02*
X132869048Y-91585771D01*
X132869048Y-91585771D02*
X132916667Y-91681009D01*
X132916667Y-91681009D02*
X132916667Y-92204819D01*
X132916667Y-91681009D02*
X132964286Y-91585771D01*
X132964286Y-91585771D02*
X133059524Y-91538152D01*
X133059524Y-91538152D02*
X133202381Y-91538152D01*
X133202381Y-91538152D02*
X133297620Y-91585771D01*
X133297620Y-91585771D02*
X133345239Y-91681009D01*
X133345239Y-91681009D02*
X133345239Y-92204819D01*
X133821429Y-92204819D02*
X133821429Y-91538152D01*
X133821429Y-91204819D02*
X133773810Y-91252438D01*
X133773810Y-91252438D02*
X133821429Y-91300057D01*
X133821429Y-91300057D02*
X133869048Y-91252438D01*
X133869048Y-91252438D02*
X133821429Y-91204819D01*
X133821429Y-91204819D02*
X133821429Y-91300057D01*
X134297619Y-91538152D02*
X134297619Y-92204819D01*
X134297619Y-91633390D02*
X134345238Y-91585771D01*
X134345238Y-91585771D02*
X134440476Y-91538152D01*
X134440476Y-91538152D02*
X134583333Y-91538152D01*
X134583333Y-91538152D02*
X134678571Y-91585771D01*
X134678571Y-91585771D02*
X134726190Y-91681009D01*
X134726190Y-91681009D02*
X134726190Y-92204819D01*
X135630952Y-92204819D02*
X135630952Y-91681009D01*
X135630952Y-91681009D02*
X135583333Y-91585771D01*
X135583333Y-91585771D02*
X135488095Y-91538152D01*
X135488095Y-91538152D02*
X135297619Y-91538152D01*
X135297619Y-91538152D02*
X135202381Y-91585771D01*
X135630952Y-92157200D02*
X135535714Y-92204819D01*
X135535714Y-92204819D02*
X135297619Y-92204819D01*
X135297619Y-92204819D02*
X135202381Y-92157200D01*
X135202381Y-92157200D02*
X135154762Y-92061961D01*
X135154762Y-92061961D02*
X135154762Y-91966723D01*
X135154762Y-91966723D02*
X135202381Y-91871485D01*
X135202381Y-91871485D02*
X135297619Y-91823866D01*
X135297619Y-91823866D02*
X135535714Y-91823866D01*
X135535714Y-91823866D02*
X135630952Y-91776247D01*
X136250000Y-92204819D02*
X136154762Y-92157200D01*
X136154762Y-92157200D02*
X136107143Y-92061961D01*
X136107143Y-92061961D02*
X136107143Y-91204819D01*
X129704819Y-95838333D02*
X130419104Y-95838333D01*
X130419104Y-95838333D02*
X130561961Y-95885952D01*
X130561961Y-95885952D02*
X130657200Y-95981190D01*
X130657200Y-95981190D02*
X130704819Y-96124047D01*
X130704819Y-96124047D02*
X130704819Y-96219285D01*
X129704819Y-94933571D02*
X129704819Y-95124047D01*
X129704819Y-95124047D02*
X129752438Y-95219285D01*
X129752438Y-95219285D02*
X129800057Y-95266904D01*
X129800057Y-95266904D02*
X129942914Y-95362142D01*
X129942914Y-95362142D02*
X130133390Y-95409761D01*
X130133390Y-95409761D02*
X130514342Y-95409761D01*
X130514342Y-95409761D02*
X130609580Y-95362142D01*
X130609580Y-95362142D02*
X130657200Y-95314523D01*
X130657200Y-95314523D02*
X130704819Y-95219285D01*
X130704819Y-95219285D02*
X130704819Y-95028809D01*
X130704819Y-95028809D02*
X130657200Y-94933571D01*
X130657200Y-94933571D02*
X130609580Y-94885952D01*
X130609580Y-94885952D02*
X130514342Y-94838333D01*
X130514342Y-94838333D02*
X130276247Y-94838333D01*
X130276247Y-94838333D02*
X130181009Y-94885952D01*
X130181009Y-94885952D02*
X130133390Y-94933571D01*
X130133390Y-94933571D02*
X130085771Y-95028809D01*
X130085771Y-95028809D02*
X130085771Y-95219285D01*
X130085771Y-95219285D02*
X130133390Y-95314523D01*
X130133390Y-95314523D02*
X130181009Y-95362142D01*
X130181009Y-95362142D02*
X130276247Y-95409761D01*
X173857142Y-105884819D02*
X173285714Y-105884819D01*
X173571428Y-105884819D02*
X173571428Y-104884819D01*
X173571428Y-104884819D02*
X173476190Y-105027676D01*
X173476190Y-105027676D02*
X173380952Y-105122914D01*
X173380952Y-105122914D02*
X173285714Y-105170533D01*
X174476190Y-104884819D02*
X174571428Y-104884819D01*
X174571428Y-104884819D02*
X174666666Y-104932438D01*
X174666666Y-104932438D02*
X174714285Y-104980057D01*
X174714285Y-104980057D02*
X174761904Y-105075295D01*
X174761904Y-105075295D02*
X174809523Y-105265771D01*
X174809523Y-105265771D02*
X174809523Y-105503866D01*
X174809523Y-105503866D02*
X174761904Y-105694342D01*
X174761904Y-105694342D02*
X174714285Y-105789580D01*
X174714285Y-105789580D02*
X174666666Y-105837200D01*
X174666666Y-105837200D02*
X174571428Y-105884819D01*
X174571428Y-105884819D02*
X174476190Y-105884819D01*
X174476190Y-105884819D02*
X174380952Y-105837200D01*
X174380952Y-105837200D02*
X174333333Y-105789580D01*
X174333333Y-105789580D02*
X174285714Y-105694342D01*
X174285714Y-105694342D02*
X174238095Y-105503866D01*
X174238095Y-105503866D02*
X174238095Y-105265771D01*
X174238095Y-105265771D02*
X174285714Y-105075295D01*
X174285714Y-105075295D02*
X174333333Y-104980057D01*
X174333333Y-104980057D02*
X174380952Y-104932438D01*
X174380952Y-104932438D02*
X174476190Y-104884819D01*
X175666666Y-105218152D02*
X175666666Y-105884819D01*
X175238095Y-105218152D02*
X175238095Y-105741961D01*
X175238095Y-105741961D02*
X175285714Y-105837200D01*
X175285714Y-105837200D02*
X175380952Y-105884819D01*
X175380952Y-105884819D02*
X175523809Y-105884819D01*
X175523809Y-105884819D02*
X175619047Y-105837200D01*
X175619047Y-105837200D02*
X175666666Y-105789580D01*
D11*
X174433333Y-104143832D02*
X174414285Y-104162880D01*
X174414285Y-104162880D02*
X174357143Y-104181927D01*
X174357143Y-104181927D02*
X174319047Y-104181927D01*
X174319047Y-104181927D02*
X174261904Y-104162880D01*
X174261904Y-104162880D02*
X174223809Y-104124784D01*
X174223809Y-104124784D02*
X174204762Y-104086689D01*
X174204762Y-104086689D02*
X174185714Y-104010499D01*
X174185714Y-104010499D02*
X174185714Y-103953356D01*
X174185714Y-103953356D02*
X174204762Y-103877165D01*
X174204762Y-103877165D02*
X174223809Y-103839070D01*
X174223809Y-103839070D02*
X174261904Y-103800975D01*
X174261904Y-103800975D02*
X174319047Y-103781927D01*
X174319047Y-103781927D02*
X174357143Y-103781927D01*
X174357143Y-103781927D02*
X174414285Y-103800975D01*
X174414285Y-103800975D02*
X174433333Y-103820022D01*
X174623809Y-104181927D02*
X174700000Y-104181927D01*
X174700000Y-104181927D02*
X174738095Y-104162880D01*
X174738095Y-104162880D02*
X174757143Y-104143832D01*
X174757143Y-104143832D02*
X174795238Y-104086689D01*
X174795238Y-104086689D02*
X174814285Y-104010499D01*
X174814285Y-104010499D02*
X174814285Y-103858118D01*
X174814285Y-103858118D02*
X174795238Y-103820022D01*
X174795238Y-103820022D02*
X174776190Y-103800975D01*
X174776190Y-103800975D02*
X174738095Y-103781927D01*
X174738095Y-103781927D02*
X174661904Y-103781927D01*
X174661904Y-103781927D02*
X174623809Y-103800975D01*
X174623809Y-103800975D02*
X174604762Y-103820022D01*
X174604762Y-103820022D02*
X174585714Y-103858118D01*
X174585714Y-103858118D02*
X174585714Y-103953356D01*
X174585714Y-103953356D02*
X174604762Y-103991451D01*
X174604762Y-103991451D02*
X174623809Y-104010499D01*
X174623809Y-104010499D02*
X174661904Y-104029546D01*
X174661904Y-104029546D02*
X174738095Y-104029546D01*
X174738095Y-104029546D02*
X174776190Y-104010499D01*
X174776190Y-104010499D02*
X174795238Y-103991451D01*
X174795238Y-103991451D02*
X174814285Y-103953356D01*
D10*
X160357142Y-106134819D02*
X159785714Y-106134819D01*
X160071428Y-106134819D02*
X160071428Y-105134819D01*
X160071428Y-105134819D02*
X159976190Y-105277676D01*
X159976190Y-105277676D02*
X159880952Y-105372914D01*
X159880952Y-105372914D02*
X159785714Y-105420533D01*
X160976190Y-105134819D02*
X161071428Y-105134819D01*
X161071428Y-105134819D02*
X161166666Y-105182438D01*
X161166666Y-105182438D02*
X161214285Y-105230057D01*
X161214285Y-105230057D02*
X161261904Y-105325295D01*
X161261904Y-105325295D02*
X161309523Y-105515771D01*
X161309523Y-105515771D02*
X161309523Y-105753866D01*
X161309523Y-105753866D02*
X161261904Y-105944342D01*
X161261904Y-105944342D02*
X161214285Y-106039580D01*
X161214285Y-106039580D02*
X161166666Y-106087200D01*
X161166666Y-106087200D02*
X161071428Y-106134819D01*
X161071428Y-106134819D02*
X160976190Y-106134819D01*
X160976190Y-106134819D02*
X160880952Y-106087200D01*
X160880952Y-106087200D02*
X160833333Y-106039580D01*
X160833333Y-106039580D02*
X160785714Y-105944342D01*
X160785714Y-105944342D02*
X160738095Y-105753866D01*
X160738095Y-105753866D02*
X160738095Y-105515771D01*
X160738095Y-105515771D02*
X160785714Y-105325295D01*
X160785714Y-105325295D02*
X160833333Y-105230057D01*
X160833333Y-105230057D02*
X160880952Y-105182438D01*
X160880952Y-105182438D02*
X160976190Y-105134819D01*
X162166666Y-105468152D02*
X162166666Y-106134819D01*
X161738095Y-105468152D02*
X161738095Y-105991961D01*
X161738095Y-105991961D02*
X161785714Y-106087200D01*
X161785714Y-106087200D02*
X161880952Y-106134819D01*
X161880952Y-106134819D02*
X162023809Y-106134819D01*
X162023809Y-106134819D02*
X162119047Y-106087200D01*
X162119047Y-106087200D02*
X162166666Y-106039580D01*
D11*
X160933333Y-104393832D02*
X160914285Y-104412880D01*
X160914285Y-104412880D02*
X160857143Y-104431927D01*
X160857143Y-104431927D02*
X160819047Y-104431927D01*
X160819047Y-104431927D02*
X160761904Y-104412880D01*
X160761904Y-104412880D02*
X160723809Y-104374784D01*
X160723809Y-104374784D02*
X160704762Y-104336689D01*
X160704762Y-104336689D02*
X160685714Y-104260499D01*
X160685714Y-104260499D02*
X160685714Y-104203356D01*
X160685714Y-104203356D02*
X160704762Y-104127165D01*
X160704762Y-104127165D02*
X160723809Y-104089070D01*
X160723809Y-104089070D02*
X160761904Y-104050975D01*
X160761904Y-104050975D02*
X160819047Y-104031927D01*
X160819047Y-104031927D02*
X160857143Y-104031927D01*
X160857143Y-104031927D02*
X160914285Y-104050975D01*
X160914285Y-104050975D02*
X160933333Y-104070022D01*
X161161904Y-104203356D02*
X161123809Y-104184308D01*
X161123809Y-104184308D02*
X161104762Y-104165260D01*
X161104762Y-104165260D02*
X161085714Y-104127165D01*
X161085714Y-104127165D02*
X161085714Y-104108118D01*
X161085714Y-104108118D02*
X161104762Y-104070022D01*
X161104762Y-104070022D02*
X161123809Y-104050975D01*
X161123809Y-104050975D02*
X161161904Y-104031927D01*
X161161904Y-104031927D02*
X161238095Y-104031927D01*
X161238095Y-104031927D02*
X161276190Y-104050975D01*
X161276190Y-104050975D02*
X161295238Y-104070022D01*
X161295238Y-104070022D02*
X161314285Y-104108118D01*
X161314285Y-104108118D02*
X161314285Y-104127165D01*
X161314285Y-104127165D02*
X161295238Y-104165260D01*
X161295238Y-104165260D02*
X161276190Y-104184308D01*
X161276190Y-104184308D02*
X161238095Y-104203356D01*
X161238095Y-104203356D02*
X161161904Y-104203356D01*
X161161904Y-104203356D02*
X161123809Y-104222403D01*
X161123809Y-104222403D02*
X161104762Y-104241451D01*
X161104762Y-104241451D02*
X161085714Y-104279546D01*
X161085714Y-104279546D02*
X161085714Y-104355737D01*
X161085714Y-104355737D02*
X161104762Y-104393832D01*
X161104762Y-104393832D02*
X161123809Y-104412880D01*
X161123809Y-104412880D02*
X161161904Y-104431927D01*
X161161904Y-104431927D02*
X161238095Y-104431927D01*
X161238095Y-104431927D02*
X161276190Y-104412880D01*
X161276190Y-104412880D02*
X161295238Y-104393832D01*
X161295238Y-104393832D02*
X161314285Y-104355737D01*
X161314285Y-104355737D02*
X161314285Y-104279546D01*
X161314285Y-104279546D02*
X161295238Y-104241451D01*
X161295238Y-104241451D02*
X161276190Y-104222403D01*
X161276190Y-104222403D02*
X161238095Y-104203356D01*
D10*
X157634819Y-100869047D02*
X157634819Y-101440475D01*
X157634819Y-101154761D02*
X156634819Y-101154761D01*
X156634819Y-101154761D02*
X156777676Y-101249999D01*
X156777676Y-101249999D02*
X156872914Y-101345237D01*
X156872914Y-101345237D02*
X156920533Y-101440475D01*
X156634819Y-100249999D02*
X156634819Y-100154761D01*
X156634819Y-100154761D02*
X156682438Y-100059523D01*
X156682438Y-100059523D02*
X156730057Y-100011904D01*
X156730057Y-100011904D02*
X156825295Y-99964285D01*
X156825295Y-99964285D02*
X157015771Y-99916666D01*
X157015771Y-99916666D02*
X157253866Y-99916666D01*
X157253866Y-99916666D02*
X157444342Y-99964285D01*
X157444342Y-99964285D02*
X157539580Y-100011904D01*
X157539580Y-100011904D02*
X157587200Y-100059523D01*
X157587200Y-100059523D02*
X157634819Y-100154761D01*
X157634819Y-100154761D02*
X157634819Y-100249999D01*
X157634819Y-100249999D02*
X157587200Y-100345237D01*
X157587200Y-100345237D02*
X157539580Y-100392856D01*
X157539580Y-100392856D02*
X157444342Y-100440475D01*
X157444342Y-100440475D02*
X157253866Y-100488094D01*
X157253866Y-100488094D02*
X157015771Y-100488094D01*
X157015771Y-100488094D02*
X156825295Y-100440475D01*
X156825295Y-100440475D02*
X156730057Y-100392856D01*
X156730057Y-100392856D02*
X156682438Y-100345237D01*
X156682438Y-100345237D02*
X156634819Y-100249999D01*
X156634819Y-99297618D02*
X156634819Y-99202380D01*
X156634819Y-99202380D02*
X156682438Y-99107142D01*
X156682438Y-99107142D02*
X156730057Y-99059523D01*
X156730057Y-99059523D02*
X156825295Y-99011904D01*
X156825295Y-99011904D02*
X157015771Y-98964285D01*
X157015771Y-98964285D02*
X157253866Y-98964285D01*
X157253866Y-98964285D02*
X157444342Y-99011904D01*
X157444342Y-99011904D02*
X157539580Y-99059523D01*
X157539580Y-99059523D02*
X157587200Y-99107142D01*
X157587200Y-99107142D02*
X157634819Y-99202380D01*
X157634819Y-99202380D02*
X157634819Y-99297618D01*
X157634819Y-99297618D02*
X157587200Y-99392856D01*
X157587200Y-99392856D02*
X157539580Y-99440475D01*
X157539580Y-99440475D02*
X157444342Y-99488094D01*
X157444342Y-99488094D02*
X157253866Y-99535713D01*
X157253866Y-99535713D02*
X157015771Y-99535713D01*
X157015771Y-99535713D02*
X156825295Y-99488094D01*
X156825295Y-99488094D02*
X156730057Y-99440475D01*
X156730057Y-99440475D02*
X156682438Y-99392856D01*
X156682438Y-99392856D02*
X156634819Y-99297618D01*
X156968152Y-98535713D02*
X157634819Y-98535713D01*
X157063390Y-98535713D02*
X157015771Y-98488094D01*
X157015771Y-98488094D02*
X156968152Y-98392856D01*
X156968152Y-98392856D02*
X156968152Y-98249999D01*
X156968152Y-98249999D02*
X157015771Y-98154761D01*
X157015771Y-98154761D02*
X157111009Y-98107142D01*
X157111009Y-98107142D02*
X157634819Y-98107142D01*
D11*
X155893832Y-99816666D02*
X155912880Y-99835714D01*
X155912880Y-99835714D02*
X155931927Y-99892856D01*
X155931927Y-99892856D02*
X155931927Y-99930952D01*
X155931927Y-99930952D02*
X155912880Y-99988095D01*
X155912880Y-99988095D02*
X155874784Y-100026190D01*
X155874784Y-100026190D02*
X155836689Y-100045237D01*
X155836689Y-100045237D02*
X155760499Y-100064285D01*
X155760499Y-100064285D02*
X155703356Y-100064285D01*
X155703356Y-100064285D02*
X155627165Y-100045237D01*
X155627165Y-100045237D02*
X155589070Y-100026190D01*
X155589070Y-100026190D02*
X155550975Y-99988095D01*
X155550975Y-99988095D02*
X155531927Y-99930952D01*
X155531927Y-99930952D02*
X155531927Y-99892856D01*
X155531927Y-99892856D02*
X155550975Y-99835714D01*
X155550975Y-99835714D02*
X155570022Y-99816666D01*
X155531927Y-99473809D02*
X155531927Y-99549999D01*
X155531927Y-99549999D02*
X155550975Y-99588095D01*
X155550975Y-99588095D02*
X155570022Y-99607142D01*
X155570022Y-99607142D02*
X155627165Y-99645237D01*
X155627165Y-99645237D02*
X155703356Y-99664285D01*
X155703356Y-99664285D02*
X155855737Y-99664285D01*
X155855737Y-99664285D02*
X155893832Y-99645237D01*
X155893832Y-99645237D02*
X155912880Y-99626190D01*
X155912880Y-99626190D02*
X155931927Y-99588095D01*
X155931927Y-99588095D02*
X155931927Y-99511904D01*
X155931927Y-99511904D02*
X155912880Y-99473809D01*
X155912880Y-99473809D02*
X155893832Y-99454761D01*
X155893832Y-99454761D02*
X155855737Y-99435714D01*
X155855737Y-99435714D02*
X155760499Y-99435714D01*
X155760499Y-99435714D02*
X155722403Y-99454761D01*
X155722403Y-99454761D02*
X155703356Y-99473809D01*
X155703356Y-99473809D02*
X155684308Y-99511904D01*
X155684308Y-99511904D02*
X155684308Y-99588095D01*
X155684308Y-99588095D02*
X155703356Y-99626190D01*
X155703356Y-99626190D02*
X155722403Y-99645237D01*
X155722403Y-99645237D02*
X155760499Y-99664285D01*
D10*
X160134819Y-100392857D02*
X160134819Y-100964285D01*
X160134819Y-100678571D02*
X159134819Y-100678571D01*
X159134819Y-100678571D02*
X159277676Y-100773809D01*
X159277676Y-100773809D02*
X159372914Y-100869047D01*
X159372914Y-100869047D02*
X159420533Y-100964285D01*
X159134819Y-99773809D02*
X159134819Y-99678571D01*
X159134819Y-99678571D02*
X159182438Y-99583333D01*
X159182438Y-99583333D02*
X159230057Y-99535714D01*
X159230057Y-99535714D02*
X159325295Y-99488095D01*
X159325295Y-99488095D02*
X159515771Y-99440476D01*
X159515771Y-99440476D02*
X159753866Y-99440476D01*
X159753866Y-99440476D02*
X159944342Y-99488095D01*
X159944342Y-99488095D02*
X160039580Y-99535714D01*
X160039580Y-99535714D02*
X160087200Y-99583333D01*
X160087200Y-99583333D02*
X160134819Y-99678571D01*
X160134819Y-99678571D02*
X160134819Y-99773809D01*
X160134819Y-99773809D02*
X160087200Y-99869047D01*
X160087200Y-99869047D02*
X160039580Y-99916666D01*
X160039580Y-99916666D02*
X159944342Y-99964285D01*
X159944342Y-99964285D02*
X159753866Y-100011904D01*
X159753866Y-100011904D02*
X159515771Y-100011904D01*
X159515771Y-100011904D02*
X159325295Y-99964285D01*
X159325295Y-99964285D02*
X159230057Y-99916666D01*
X159230057Y-99916666D02*
X159182438Y-99869047D01*
X159182438Y-99869047D02*
X159134819Y-99773809D01*
X159468152Y-99011904D02*
X160134819Y-99011904D01*
X159563390Y-99011904D02*
X159515771Y-98964285D01*
X159515771Y-98964285D02*
X159468152Y-98869047D01*
X159468152Y-98869047D02*
X159468152Y-98726190D01*
X159468152Y-98726190D02*
X159515771Y-98630952D01*
X159515771Y-98630952D02*
X159611009Y-98583333D01*
X159611009Y-98583333D02*
X160134819Y-98583333D01*
D11*
X158393832Y-99816666D02*
X158412880Y-99835714D01*
X158412880Y-99835714D02*
X158431927Y-99892856D01*
X158431927Y-99892856D02*
X158431927Y-99930952D01*
X158431927Y-99930952D02*
X158412880Y-99988095D01*
X158412880Y-99988095D02*
X158374784Y-100026190D01*
X158374784Y-100026190D02*
X158336689Y-100045237D01*
X158336689Y-100045237D02*
X158260499Y-100064285D01*
X158260499Y-100064285D02*
X158203356Y-100064285D01*
X158203356Y-100064285D02*
X158127165Y-100045237D01*
X158127165Y-100045237D02*
X158089070Y-100026190D01*
X158089070Y-100026190D02*
X158050975Y-99988095D01*
X158050975Y-99988095D02*
X158031927Y-99930952D01*
X158031927Y-99930952D02*
X158031927Y-99892856D01*
X158031927Y-99892856D02*
X158050975Y-99835714D01*
X158050975Y-99835714D02*
X158070022Y-99816666D01*
X158031927Y-99454761D02*
X158031927Y-99645237D01*
X158031927Y-99645237D02*
X158222403Y-99664285D01*
X158222403Y-99664285D02*
X158203356Y-99645237D01*
X158203356Y-99645237D02*
X158184308Y-99607142D01*
X158184308Y-99607142D02*
X158184308Y-99511904D01*
X158184308Y-99511904D02*
X158203356Y-99473809D01*
X158203356Y-99473809D02*
X158222403Y-99454761D01*
X158222403Y-99454761D02*
X158260499Y-99435714D01*
X158260499Y-99435714D02*
X158355737Y-99435714D01*
X158355737Y-99435714D02*
X158393832Y-99454761D01*
X158393832Y-99454761D02*
X158412880Y-99473809D01*
X158412880Y-99473809D02*
X158431927Y-99511904D01*
X158431927Y-99511904D02*
X158431927Y-99607142D01*
X158431927Y-99607142D02*
X158412880Y-99645237D01*
X158412880Y-99645237D02*
X158393832Y-99664285D01*
D10*
X165884819Y-99892857D02*
X165884819Y-100464285D01*
X165884819Y-100178571D02*
X164884819Y-100178571D01*
X164884819Y-100178571D02*
X165027676Y-100273809D01*
X165027676Y-100273809D02*
X165122914Y-100369047D01*
X165122914Y-100369047D02*
X165170533Y-100464285D01*
X164884819Y-99273809D02*
X164884819Y-99178571D01*
X164884819Y-99178571D02*
X164932438Y-99083333D01*
X164932438Y-99083333D02*
X164980057Y-99035714D01*
X164980057Y-99035714D02*
X165075295Y-98988095D01*
X165075295Y-98988095D02*
X165265771Y-98940476D01*
X165265771Y-98940476D02*
X165503866Y-98940476D01*
X165503866Y-98940476D02*
X165694342Y-98988095D01*
X165694342Y-98988095D02*
X165789580Y-99035714D01*
X165789580Y-99035714D02*
X165837200Y-99083333D01*
X165837200Y-99083333D02*
X165884819Y-99178571D01*
X165884819Y-99178571D02*
X165884819Y-99273809D01*
X165884819Y-99273809D02*
X165837200Y-99369047D01*
X165837200Y-99369047D02*
X165789580Y-99416666D01*
X165789580Y-99416666D02*
X165694342Y-99464285D01*
X165694342Y-99464285D02*
X165503866Y-99511904D01*
X165503866Y-99511904D02*
X165265771Y-99511904D01*
X165265771Y-99511904D02*
X165075295Y-99464285D01*
X165075295Y-99464285D02*
X164980057Y-99416666D01*
X164980057Y-99416666D02*
X164932438Y-99369047D01*
X164932438Y-99369047D02*
X164884819Y-99273809D01*
X165218152Y-98511904D02*
X165884819Y-98511904D01*
X165313390Y-98511904D02*
X165265771Y-98464285D01*
X165265771Y-98464285D02*
X165218152Y-98369047D01*
X165218152Y-98369047D02*
X165218152Y-98226190D01*
X165218152Y-98226190D02*
X165265771Y-98130952D01*
X165265771Y-98130952D02*
X165361009Y-98083333D01*
X165361009Y-98083333D02*
X165884819Y-98083333D01*
D11*
X164143832Y-99316666D02*
X164162880Y-99335714D01*
X164162880Y-99335714D02*
X164181927Y-99392856D01*
X164181927Y-99392856D02*
X164181927Y-99430952D01*
X164181927Y-99430952D02*
X164162880Y-99488095D01*
X164162880Y-99488095D02*
X164124784Y-99526190D01*
X164124784Y-99526190D02*
X164086689Y-99545237D01*
X164086689Y-99545237D02*
X164010499Y-99564285D01*
X164010499Y-99564285D02*
X163953356Y-99564285D01*
X163953356Y-99564285D02*
X163877165Y-99545237D01*
X163877165Y-99545237D02*
X163839070Y-99526190D01*
X163839070Y-99526190D02*
X163800975Y-99488095D01*
X163800975Y-99488095D02*
X163781927Y-99430952D01*
X163781927Y-99430952D02*
X163781927Y-99392856D01*
X163781927Y-99392856D02*
X163800975Y-99335714D01*
X163800975Y-99335714D02*
X163820022Y-99316666D01*
X163915260Y-98973809D02*
X164181927Y-98973809D01*
X163762880Y-99069047D02*
X164048594Y-99164285D01*
X164048594Y-99164285D02*
X164048594Y-98916666D01*
D10*
X167230057Y-100535713D02*
X167182438Y-100488094D01*
X167182438Y-100488094D02*
X167134819Y-100392856D01*
X167134819Y-100392856D02*
X167134819Y-100154761D01*
X167134819Y-100154761D02*
X167182438Y-100059523D01*
X167182438Y-100059523D02*
X167230057Y-100011904D01*
X167230057Y-100011904D02*
X167325295Y-99964285D01*
X167325295Y-99964285D02*
X167420533Y-99964285D01*
X167420533Y-99964285D02*
X167563390Y-100011904D01*
X167563390Y-100011904D02*
X168134819Y-100583332D01*
X168134819Y-100583332D02*
X168134819Y-99964285D01*
X167230057Y-99583332D02*
X167182438Y-99535713D01*
X167182438Y-99535713D02*
X167134819Y-99440475D01*
X167134819Y-99440475D02*
X167134819Y-99202380D01*
X167134819Y-99202380D02*
X167182438Y-99107142D01*
X167182438Y-99107142D02*
X167230057Y-99059523D01*
X167230057Y-99059523D02*
X167325295Y-99011904D01*
X167325295Y-99011904D02*
X167420533Y-99011904D01*
X167420533Y-99011904D02*
X167563390Y-99059523D01*
X167563390Y-99059523D02*
X168134819Y-99630951D01*
X168134819Y-99630951D02*
X168134819Y-99011904D01*
X167134819Y-98583332D02*
X167944342Y-98583332D01*
X167944342Y-98583332D02*
X168039580Y-98535713D01*
X168039580Y-98535713D02*
X168087200Y-98488094D01*
X168087200Y-98488094D02*
X168134819Y-98392856D01*
X168134819Y-98392856D02*
X168134819Y-98202380D01*
X168134819Y-98202380D02*
X168087200Y-98107142D01*
X168087200Y-98107142D02*
X168039580Y-98059523D01*
X168039580Y-98059523D02*
X167944342Y-98011904D01*
X167944342Y-98011904D02*
X167134819Y-98011904D01*
D11*
X166393832Y-99316666D02*
X166412880Y-99335714D01*
X166412880Y-99335714D02*
X166431927Y-99392856D01*
X166431927Y-99392856D02*
X166431927Y-99430952D01*
X166431927Y-99430952D02*
X166412880Y-99488095D01*
X166412880Y-99488095D02*
X166374784Y-99526190D01*
X166374784Y-99526190D02*
X166336689Y-99545237D01*
X166336689Y-99545237D02*
X166260499Y-99564285D01*
X166260499Y-99564285D02*
X166203356Y-99564285D01*
X166203356Y-99564285D02*
X166127165Y-99545237D01*
X166127165Y-99545237D02*
X166089070Y-99526190D01*
X166089070Y-99526190D02*
X166050975Y-99488095D01*
X166050975Y-99488095D02*
X166031927Y-99430952D01*
X166031927Y-99430952D02*
X166031927Y-99392856D01*
X166031927Y-99392856D02*
X166050975Y-99335714D01*
X166050975Y-99335714D02*
X166070022Y-99316666D01*
X166031927Y-99183333D02*
X166031927Y-98935714D01*
X166031927Y-98935714D02*
X166184308Y-99069047D01*
X166184308Y-99069047D02*
X166184308Y-99011904D01*
X166184308Y-99011904D02*
X166203356Y-98973809D01*
X166203356Y-98973809D02*
X166222403Y-98954761D01*
X166222403Y-98954761D02*
X166260499Y-98935714D01*
X166260499Y-98935714D02*
X166355737Y-98935714D01*
X166355737Y-98935714D02*
X166393832Y-98954761D01*
X166393832Y-98954761D02*
X166412880Y-98973809D01*
X166412880Y-98973809D02*
X166431927Y-99011904D01*
X166431927Y-99011904D02*
X166431927Y-99126190D01*
X166431927Y-99126190D02*
X166412880Y-99164285D01*
X166412880Y-99164285D02*
X166393832Y-99183333D01*
D10*
X163060057Y-96426293D02*
X163012438Y-96378674D01*
X163012438Y-96378674D02*
X162964819Y-96283436D01*
X162964819Y-96283436D02*
X162964819Y-96045341D01*
X162964819Y-96045341D02*
X163012438Y-95950103D01*
X163012438Y-95950103D02*
X163060057Y-95902484D01*
X163060057Y-95902484D02*
X163155295Y-95854865D01*
X163155295Y-95854865D02*
X163250533Y-95854865D01*
X163250533Y-95854865D02*
X163393390Y-95902484D01*
X163393390Y-95902484D02*
X163964819Y-96473912D01*
X163964819Y-96473912D02*
X163964819Y-95854865D01*
X163060057Y-95473912D02*
X163012438Y-95426293D01*
X163012438Y-95426293D02*
X162964819Y-95331055D01*
X162964819Y-95331055D02*
X162964819Y-95092960D01*
X162964819Y-95092960D02*
X163012438Y-94997722D01*
X163012438Y-94997722D02*
X163060057Y-94950103D01*
X163060057Y-94950103D02*
X163155295Y-94902484D01*
X163155295Y-94902484D02*
X163250533Y-94902484D01*
X163250533Y-94902484D02*
X163393390Y-94950103D01*
X163393390Y-94950103D02*
X163964819Y-95521531D01*
X163964819Y-95521531D02*
X163964819Y-94902484D01*
X162964819Y-94473912D02*
X163774342Y-94473912D01*
X163774342Y-94473912D02*
X163869580Y-94426293D01*
X163869580Y-94426293D02*
X163917200Y-94378674D01*
X163917200Y-94378674D02*
X163964819Y-94283436D01*
X163964819Y-94283436D02*
X163964819Y-94092960D01*
X163964819Y-94092960D02*
X163917200Y-93997722D01*
X163917200Y-93997722D02*
X163869580Y-93950103D01*
X163869580Y-93950103D02*
X163774342Y-93902484D01*
X163774342Y-93902484D02*
X162964819Y-93902484D01*
D11*
X165143832Y-95066666D02*
X165162880Y-95085714D01*
X165162880Y-95085714D02*
X165181927Y-95142856D01*
X165181927Y-95142856D02*
X165181927Y-95180952D01*
X165181927Y-95180952D02*
X165162880Y-95238095D01*
X165162880Y-95238095D02*
X165124784Y-95276190D01*
X165124784Y-95276190D02*
X165086689Y-95295237D01*
X165086689Y-95295237D02*
X165010499Y-95314285D01*
X165010499Y-95314285D02*
X164953356Y-95314285D01*
X164953356Y-95314285D02*
X164877165Y-95295237D01*
X164877165Y-95295237D02*
X164839070Y-95276190D01*
X164839070Y-95276190D02*
X164800975Y-95238095D01*
X164800975Y-95238095D02*
X164781927Y-95180952D01*
X164781927Y-95180952D02*
X164781927Y-95142856D01*
X164781927Y-95142856D02*
X164800975Y-95085714D01*
X164800975Y-95085714D02*
X164820022Y-95066666D01*
X164820022Y-94914285D02*
X164800975Y-94895237D01*
X164800975Y-94895237D02*
X164781927Y-94857142D01*
X164781927Y-94857142D02*
X164781927Y-94761904D01*
X164781927Y-94761904D02*
X164800975Y-94723809D01*
X164800975Y-94723809D02*
X164820022Y-94704761D01*
X164820022Y-94704761D02*
X164858118Y-94685714D01*
X164858118Y-94685714D02*
X164896213Y-94685714D01*
X164896213Y-94685714D02*
X164953356Y-94704761D01*
X164953356Y-94704761D02*
X165181927Y-94933333D01*
X165181927Y-94933333D02*
X165181927Y-94685714D01*
D10*
X162024819Y-96119047D02*
X162024819Y-96690475D01*
X162024819Y-96404761D02*
X161024819Y-96404761D01*
X161024819Y-96404761D02*
X161167676Y-96499999D01*
X161167676Y-96499999D02*
X161262914Y-96595237D01*
X161262914Y-96595237D02*
X161310533Y-96690475D01*
X161024819Y-95499999D02*
X161024819Y-95404761D01*
X161024819Y-95404761D02*
X161072438Y-95309523D01*
X161072438Y-95309523D02*
X161120057Y-95261904D01*
X161120057Y-95261904D02*
X161215295Y-95214285D01*
X161215295Y-95214285D02*
X161405771Y-95166666D01*
X161405771Y-95166666D02*
X161643866Y-95166666D01*
X161643866Y-95166666D02*
X161834342Y-95214285D01*
X161834342Y-95214285D02*
X161929580Y-95261904D01*
X161929580Y-95261904D02*
X161977200Y-95309523D01*
X161977200Y-95309523D02*
X162024819Y-95404761D01*
X162024819Y-95404761D02*
X162024819Y-95499999D01*
X162024819Y-95499999D02*
X161977200Y-95595237D01*
X161977200Y-95595237D02*
X161929580Y-95642856D01*
X161929580Y-95642856D02*
X161834342Y-95690475D01*
X161834342Y-95690475D02*
X161643866Y-95738094D01*
X161643866Y-95738094D02*
X161405771Y-95738094D01*
X161405771Y-95738094D02*
X161215295Y-95690475D01*
X161215295Y-95690475D02*
X161120057Y-95642856D01*
X161120057Y-95642856D02*
X161072438Y-95595237D01*
X161072438Y-95595237D02*
X161024819Y-95499999D01*
X161024819Y-94547618D02*
X161024819Y-94452380D01*
X161024819Y-94452380D02*
X161072438Y-94357142D01*
X161072438Y-94357142D02*
X161120057Y-94309523D01*
X161120057Y-94309523D02*
X161215295Y-94261904D01*
X161215295Y-94261904D02*
X161405771Y-94214285D01*
X161405771Y-94214285D02*
X161643866Y-94214285D01*
X161643866Y-94214285D02*
X161834342Y-94261904D01*
X161834342Y-94261904D02*
X161929580Y-94309523D01*
X161929580Y-94309523D02*
X161977200Y-94357142D01*
X161977200Y-94357142D02*
X162024819Y-94452380D01*
X162024819Y-94452380D02*
X162024819Y-94547618D01*
X162024819Y-94547618D02*
X161977200Y-94642856D01*
X161977200Y-94642856D02*
X161929580Y-94690475D01*
X161929580Y-94690475D02*
X161834342Y-94738094D01*
X161834342Y-94738094D02*
X161643866Y-94785713D01*
X161643866Y-94785713D02*
X161405771Y-94785713D01*
X161405771Y-94785713D02*
X161215295Y-94738094D01*
X161215295Y-94738094D02*
X161120057Y-94690475D01*
X161120057Y-94690475D02*
X161072438Y-94642856D01*
X161072438Y-94642856D02*
X161024819Y-94547618D01*
X161358152Y-93785713D02*
X162024819Y-93785713D01*
X161453390Y-93785713D02*
X161405771Y-93738094D01*
X161405771Y-93738094D02*
X161358152Y-93642856D01*
X161358152Y-93642856D02*
X161358152Y-93499999D01*
X161358152Y-93499999D02*
X161405771Y-93404761D01*
X161405771Y-93404761D02*
X161501009Y-93357142D01*
X161501009Y-93357142D02*
X162024819Y-93357142D01*
D11*
X163143832Y-95066666D02*
X163162880Y-95085714D01*
X163162880Y-95085714D02*
X163181927Y-95142856D01*
X163181927Y-95142856D02*
X163181927Y-95180952D01*
X163181927Y-95180952D02*
X163162880Y-95238095D01*
X163162880Y-95238095D02*
X163124784Y-95276190D01*
X163124784Y-95276190D02*
X163086689Y-95295237D01*
X163086689Y-95295237D02*
X163010499Y-95314285D01*
X163010499Y-95314285D02*
X162953356Y-95314285D01*
X162953356Y-95314285D02*
X162877165Y-95295237D01*
X162877165Y-95295237D02*
X162839070Y-95276190D01*
X162839070Y-95276190D02*
X162800975Y-95238095D01*
X162800975Y-95238095D02*
X162781927Y-95180952D01*
X162781927Y-95180952D02*
X162781927Y-95142856D01*
X162781927Y-95142856D02*
X162800975Y-95085714D01*
X162800975Y-95085714D02*
X162820022Y-95066666D01*
X163181927Y-94685714D02*
X163181927Y-94914285D01*
X163181927Y-94799999D02*
X162781927Y-94799999D01*
X162781927Y-94799999D02*
X162839070Y-94838095D01*
X162839070Y-94838095D02*
X162877165Y-94876190D01*
X162877165Y-94876190D02*
X162896213Y-94914285D01*
D10*
X129559523Y-104384819D02*
X128988095Y-104384819D01*
X129273809Y-104384819D02*
X129273809Y-103384819D01*
X129273809Y-103384819D02*
X129178571Y-103527676D01*
X129178571Y-103527676D02*
X129083333Y-103622914D01*
X129083333Y-103622914D02*
X128988095Y-103670533D01*
X130178571Y-103384819D02*
X130273809Y-103384819D01*
X130273809Y-103384819D02*
X130369047Y-103432438D01*
X130369047Y-103432438D02*
X130416666Y-103480057D01*
X130416666Y-103480057D02*
X130464285Y-103575295D01*
X130464285Y-103575295D02*
X130511904Y-103765771D01*
X130511904Y-103765771D02*
X130511904Y-104003866D01*
X130511904Y-104003866D02*
X130464285Y-104194342D01*
X130464285Y-104194342D02*
X130416666Y-104289580D01*
X130416666Y-104289580D02*
X130369047Y-104337200D01*
X130369047Y-104337200D02*
X130273809Y-104384819D01*
X130273809Y-104384819D02*
X130178571Y-104384819D01*
X130178571Y-104384819D02*
X130083333Y-104337200D01*
X130083333Y-104337200D02*
X130035714Y-104289580D01*
X130035714Y-104289580D02*
X129988095Y-104194342D01*
X129988095Y-104194342D02*
X129940476Y-104003866D01*
X129940476Y-104003866D02*
X129940476Y-103765771D01*
X129940476Y-103765771D02*
X129988095Y-103575295D01*
X129988095Y-103575295D02*
X130035714Y-103480057D01*
X130035714Y-103480057D02*
X130083333Y-103432438D01*
X130083333Y-103432438D02*
X130178571Y-103384819D01*
X130940476Y-104384819D02*
X130940476Y-103384819D01*
X131511904Y-104384819D02*
X131083333Y-103813390D01*
X131511904Y-103384819D02*
X130940476Y-103956247D01*
D11*
X130183333Y-102681927D02*
X130050000Y-102491451D01*
X129954762Y-102681927D02*
X129954762Y-102281927D01*
X129954762Y-102281927D02*
X130107143Y-102281927D01*
X130107143Y-102281927D02*
X130145238Y-102300975D01*
X130145238Y-102300975D02*
X130164285Y-102320022D01*
X130164285Y-102320022D02*
X130183333Y-102358118D01*
X130183333Y-102358118D02*
X130183333Y-102415260D01*
X130183333Y-102415260D02*
X130164285Y-102453356D01*
X130164285Y-102453356D02*
X130145238Y-102472403D01*
X130145238Y-102472403D02*
X130107143Y-102491451D01*
X130107143Y-102491451D02*
X129954762Y-102491451D01*
X130526190Y-102281927D02*
X130450000Y-102281927D01*
X130450000Y-102281927D02*
X130411904Y-102300975D01*
X130411904Y-102300975D02*
X130392857Y-102320022D01*
X130392857Y-102320022D02*
X130354762Y-102377165D01*
X130354762Y-102377165D02*
X130335714Y-102453356D01*
X130335714Y-102453356D02*
X130335714Y-102605737D01*
X130335714Y-102605737D02*
X130354762Y-102643832D01*
X130354762Y-102643832D02*
X130373809Y-102662880D01*
X130373809Y-102662880D02*
X130411904Y-102681927D01*
X130411904Y-102681927D02*
X130488095Y-102681927D01*
X130488095Y-102681927D02*
X130526190Y-102662880D01*
X130526190Y-102662880D02*
X130545238Y-102643832D01*
X130545238Y-102643832D02*
X130564285Y-102605737D01*
X130564285Y-102605737D02*
X130564285Y-102510499D01*
X130564285Y-102510499D02*
X130545238Y-102472403D01*
X130545238Y-102472403D02*
X130526190Y-102453356D01*
X130526190Y-102453356D02*
X130488095Y-102434308D01*
X130488095Y-102434308D02*
X130411904Y-102434308D01*
X130411904Y-102434308D02*
X130373809Y-102453356D01*
X130373809Y-102453356D02*
X130354762Y-102472403D01*
X130354762Y-102472403D02*
X130335714Y-102510499D01*
D10*
X142384819Y-89928571D02*
X142384819Y-90499999D01*
X142384819Y-90214285D02*
X141384819Y-90214285D01*
X141384819Y-90214285D02*
X141527676Y-90309523D01*
X141527676Y-90309523D02*
X141622914Y-90404761D01*
X141622914Y-90404761D02*
X141670533Y-90499999D01*
X142289580Y-89499999D02*
X142337200Y-89452380D01*
X142337200Y-89452380D02*
X142384819Y-89499999D01*
X142384819Y-89499999D02*
X142337200Y-89547618D01*
X142337200Y-89547618D02*
X142289580Y-89499999D01*
X142289580Y-89499999D02*
X142384819Y-89499999D01*
X141480057Y-89071428D02*
X141432438Y-89023809D01*
X141432438Y-89023809D02*
X141384819Y-88928571D01*
X141384819Y-88928571D02*
X141384819Y-88690476D01*
X141384819Y-88690476D02*
X141432438Y-88595238D01*
X141432438Y-88595238D02*
X141480057Y-88547619D01*
X141480057Y-88547619D02*
X141575295Y-88500000D01*
X141575295Y-88500000D02*
X141670533Y-88500000D01*
X141670533Y-88500000D02*
X141813390Y-88547619D01*
X141813390Y-88547619D02*
X142384819Y-89119047D01*
X142384819Y-89119047D02*
X142384819Y-88500000D01*
X142384819Y-88071428D02*
X141384819Y-88071428D01*
X142384819Y-87500000D02*
X141813390Y-87928571D01*
X141384819Y-87500000D02*
X141956247Y-88071428D01*
D11*
X140681927Y-89066666D02*
X140491451Y-89199999D01*
X140681927Y-89295237D02*
X140281927Y-89295237D01*
X140281927Y-89295237D02*
X140281927Y-89142856D01*
X140281927Y-89142856D02*
X140300975Y-89104761D01*
X140300975Y-89104761D02*
X140320022Y-89085714D01*
X140320022Y-89085714D02*
X140358118Y-89066666D01*
X140358118Y-89066666D02*
X140415260Y-89066666D01*
X140415260Y-89066666D02*
X140453356Y-89085714D01*
X140453356Y-89085714D02*
X140472403Y-89104761D01*
X140472403Y-89104761D02*
X140491451Y-89142856D01*
X140491451Y-89142856D02*
X140491451Y-89295237D01*
X140281927Y-88704761D02*
X140281927Y-88895237D01*
X140281927Y-88895237D02*
X140472403Y-88914285D01*
X140472403Y-88914285D02*
X140453356Y-88895237D01*
X140453356Y-88895237D02*
X140434308Y-88857142D01*
X140434308Y-88857142D02*
X140434308Y-88761904D01*
X140434308Y-88761904D02*
X140453356Y-88723809D01*
X140453356Y-88723809D02*
X140472403Y-88704761D01*
X140472403Y-88704761D02*
X140510499Y-88685714D01*
X140510499Y-88685714D02*
X140605737Y-88685714D01*
X140605737Y-88685714D02*
X140643832Y-88704761D01*
X140643832Y-88704761D02*
X140662880Y-88723809D01*
X140662880Y-88723809D02*
X140681927Y-88761904D01*
X140681927Y-88761904D02*
X140681927Y-88857142D01*
X140681927Y-88857142D02*
X140662880Y-88895237D01*
X140662880Y-88895237D02*
X140643832Y-88914285D01*
D10*
X153834819Y-98726190D02*
X153834819Y-99202380D01*
X153834819Y-99202380D02*
X154311009Y-99249999D01*
X154311009Y-99249999D02*
X154263390Y-99202380D01*
X154263390Y-99202380D02*
X154215771Y-99107142D01*
X154215771Y-99107142D02*
X154215771Y-98869047D01*
X154215771Y-98869047D02*
X154263390Y-98773809D01*
X154263390Y-98773809D02*
X154311009Y-98726190D01*
X154311009Y-98726190D02*
X154406247Y-98678571D01*
X154406247Y-98678571D02*
X154644342Y-98678571D01*
X154644342Y-98678571D02*
X154739580Y-98726190D01*
X154739580Y-98726190D02*
X154787200Y-98773809D01*
X154787200Y-98773809D02*
X154834819Y-98869047D01*
X154834819Y-98869047D02*
X154834819Y-99107142D01*
X154834819Y-99107142D02*
X154787200Y-99202380D01*
X154787200Y-99202380D02*
X154739580Y-99249999D01*
X153834819Y-98392856D02*
X154834819Y-98059523D01*
X154834819Y-98059523D02*
X153834819Y-97726190D01*
X154787200Y-96678570D02*
X154834819Y-96535713D01*
X154834819Y-96535713D02*
X154834819Y-96297618D01*
X154834819Y-96297618D02*
X154787200Y-96202380D01*
X154787200Y-96202380D02*
X154739580Y-96154761D01*
X154739580Y-96154761D02*
X154644342Y-96107142D01*
X154644342Y-96107142D02*
X154549104Y-96107142D01*
X154549104Y-96107142D02*
X154453866Y-96154761D01*
X154453866Y-96154761D02*
X154406247Y-96202380D01*
X154406247Y-96202380D02*
X154358628Y-96297618D01*
X154358628Y-96297618D02*
X154311009Y-96488094D01*
X154311009Y-96488094D02*
X154263390Y-96583332D01*
X154263390Y-96583332D02*
X154215771Y-96630951D01*
X154215771Y-96630951D02*
X154120533Y-96678570D01*
X154120533Y-96678570D02*
X154025295Y-96678570D01*
X154025295Y-96678570D02*
X153930057Y-96630951D01*
X153930057Y-96630951D02*
X153882438Y-96583332D01*
X153882438Y-96583332D02*
X153834819Y-96488094D01*
X153834819Y-96488094D02*
X153834819Y-96249999D01*
X153834819Y-96249999D02*
X153882438Y-96107142D01*
X154168152Y-95773808D02*
X154834819Y-95583332D01*
X154834819Y-95583332D02*
X154358628Y-95392856D01*
X154358628Y-95392856D02*
X154834819Y-95202380D01*
X154834819Y-95202380D02*
X154168152Y-95011904D01*
X154834819Y-94630951D02*
X154168152Y-94630951D01*
X153834819Y-94630951D02*
X153882438Y-94678570D01*
X153882438Y-94678570D02*
X153930057Y-94630951D01*
X153930057Y-94630951D02*
X153882438Y-94583332D01*
X153882438Y-94583332D02*
X153834819Y-94630951D01*
X153834819Y-94630951D02*
X153930057Y-94630951D01*
X154168152Y-94297618D02*
X154168152Y-93916666D01*
X153834819Y-94154761D02*
X154691961Y-94154761D01*
X154691961Y-94154761D02*
X154787200Y-94107142D01*
X154787200Y-94107142D02*
X154834819Y-94011904D01*
X154834819Y-94011904D02*
X154834819Y-93916666D01*
X154787200Y-93154761D02*
X154834819Y-93249999D01*
X154834819Y-93249999D02*
X154834819Y-93440475D01*
X154834819Y-93440475D02*
X154787200Y-93535713D01*
X154787200Y-93535713D02*
X154739580Y-93583332D01*
X154739580Y-93583332D02*
X154644342Y-93630951D01*
X154644342Y-93630951D02*
X154358628Y-93630951D01*
X154358628Y-93630951D02*
X154263390Y-93583332D01*
X154263390Y-93583332D02*
X154215771Y-93535713D01*
X154215771Y-93535713D02*
X154168152Y-93440475D01*
X154168152Y-93440475D02*
X154168152Y-93249999D01*
X154168152Y-93249999D02*
X154215771Y-93154761D01*
X154834819Y-92726189D02*
X153834819Y-92726189D01*
X154834819Y-92297618D02*
X154311009Y-92297618D01*
X154311009Y-92297618D02*
X154215771Y-92345237D01*
X154215771Y-92345237D02*
X154168152Y-92440475D01*
X154168152Y-92440475D02*
X154168152Y-92583332D01*
X154168152Y-92583332D02*
X154215771Y-92678570D01*
X154215771Y-92678570D02*
X154263390Y-92726189D01*
X157646666Y-95204819D02*
X157646666Y-95919104D01*
X157646666Y-95919104D02*
X157599047Y-96061961D01*
X157599047Y-96061961D02*
X157503809Y-96157200D01*
X157503809Y-96157200D02*
X157360952Y-96204819D01*
X157360952Y-96204819D02*
X157265714Y-96204819D01*
X158599047Y-95204819D02*
X158122857Y-95204819D01*
X158122857Y-95204819D02*
X158075238Y-95681009D01*
X158075238Y-95681009D02*
X158122857Y-95633390D01*
X158122857Y-95633390D02*
X158218095Y-95585771D01*
X158218095Y-95585771D02*
X158456190Y-95585771D01*
X158456190Y-95585771D02*
X158551428Y-95633390D01*
X158551428Y-95633390D02*
X158599047Y-95681009D01*
X158599047Y-95681009D02*
X158646666Y-95776247D01*
X158646666Y-95776247D02*
X158646666Y-96014342D01*
X158646666Y-96014342D02*
X158599047Y-96109580D01*
X158599047Y-96109580D02*
X158551428Y-96157200D01*
X158551428Y-96157200D02*
X158456190Y-96204819D01*
X158456190Y-96204819D02*
X158218095Y-96204819D01*
X158218095Y-96204819D02*
X158122857Y-96157200D01*
X158122857Y-96157200D02*
X158075238Y-96109580D01*
X153145476Y-86931009D02*
X153288333Y-86978628D01*
X153288333Y-86978628D02*
X153335952Y-87026247D01*
X153335952Y-87026247D02*
X153383571Y-87121485D01*
X153383571Y-87121485D02*
X153383571Y-87264342D01*
X153383571Y-87264342D02*
X153335952Y-87359580D01*
X153335952Y-87359580D02*
X153288333Y-87407200D01*
X153288333Y-87407200D02*
X153193095Y-87454819D01*
X153193095Y-87454819D02*
X152812143Y-87454819D01*
X152812143Y-87454819D02*
X152812143Y-86454819D01*
X152812143Y-86454819D02*
X153145476Y-86454819D01*
X153145476Y-86454819D02*
X153240714Y-86502438D01*
X153240714Y-86502438D02*
X153288333Y-86550057D01*
X153288333Y-86550057D02*
X153335952Y-86645295D01*
X153335952Y-86645295D02*
X153335952Y-86740533D01*
X153335952Y-86740533D02*
X153288333Y-86835771D01*
X153288333Y-86835771D02*
X153240714Y-86883390D01*
X153240714Y-86883390D02*
X153145476Y-86931009D01*
X153145476Y-86931009D02*
X152812143Y-86931009D01*
X154288333Y-87454819D02*
X153812143Y-87454819D01*
X153812143Y-87454819D02*
X153812143Y-86454819D01*
X154621667Y-86454819D02*
X154621667Y-87264342D01*
X154621667Y-87264342D02*
X154669286Y-87359580D01*
X154669286Y-87359580D02*
X154716905Y-87407200D01*
X154716905Y-87407200D02*
X154812143Y-87454819D01*
X154812143Y-87454819D02*
X155002619Y-87454819D01*
X155002619Y-87454819D02*
X155097857Y-87407200D01*
X155097857Y-87407200D02*
X155145476Y-87359580D01*
X155145476Y-87359580D02*
X155193095Y-87264342D01*
X155193095Y-87264342D02*
X155193095Y-86454819D01*
X155669286Y-86931009D02*
X156002619Y-86931009D01*
X156145476Y-87454819D02*
X155669286Y-87454819D01*
X155669286Y-87454819D02*
X155669286Y-86454819D01*
X155669286Y-86454819D02*
X156145476Y-86454819D01*
D12*
X154285476Y-89113574D02*
X154285476Y-88863574D01*
X154285476Y-88863574D02*
X154345000Y-88863574D01*
X154345000Y-88863574D02*
X154380714Y-88875479D01*
X154380714Y-88875479D02*
X154404524Y-88899289D01*
X154404524Y-88899289D02*
X154416429Y-88923098D01*
X154416429Y-88923098D02*
X154428333Y-88970717D01*
X154428333Y-88970717D02*
X154428333Y-89006431D01*
X154428333Y-89006431D02*
X154416429Y-89054050D01*
X154416429Y-89054050D02*
X154404524Y-89077860D01*
X154404524Y-89077860D02*
X154380714Y-89101670D01*
X154380714Y-89101670D02*
X154345000Y-89113574D01*
X154345000Y-89113574D02*
X154285476Y-89113574D01*
X154523572Y-88887384D02*
X154535476Y-88875479D01*
X154535476Y-88875479D02*
X154559286Y-88863574D01*
X154559286Y-88863574D02*
X154618810Y-88863574D01*
X154618810Y-88863574D02*
X154642619Y-88875479D01*
X154642619Y-88875479D02*
X154654524Y-88887384D01*
X154654524Y-88887384D02*
X154666429Y-88911193D01*
X154666429Y-88911193D02*
X154666429Y-88935003D01*
X154666429Y-88935003D02*
X154654524Y-88970717D01*
X154654524Y-88970717D02*
X154511667Y-89113574D01*
X154511667Y-89113574D02*
X154666429Y-89113574D01*
D10*
X176714285Y-68704819D02*
X176714285Y-67704819D01*
X176714285Y-67704819D02*
X177047618Y-68419104D01*
X177047618Y-68419104D02*
X177380951Y-67704819D01*
X177380951Y-67704819D02*
X177380951Y-68704819D01*
X177999999Y-68704819D02*
X177904761Y-68657200D01*
X177904761Y-68657200D02*
X177857142Y-68609580D01*
X177857142Y-68609580D02*
X177809523Y-68514342D01*
X177809523Y-68514342D02*
X177809523Y-68228628D01*
X177809523Y-68228628D02*
X177857142Y-68133390D01*
X177857142Y-68133390D02*
X177904761Y-68085771D01*
X177904761Y-68085771D02*
X177999999Y-68038152D01*
X177999999Y-68038152D02*
X178142856Y-68038152D01*
X178142856Y-68038152D02*
X178238094Y-68085771D01*
X178238094Y-68085771D02*
X178285713Y-68133390D01*
X178285713Y-68133390D02*
X178333332Y-68228628D01*
X178333332Y-68228628D02*
X178333332Y-68514342D01*
X178333332Y-68514342D02*
X178285713Y-68609580D01*
X178285713Y-68609580D02*
X178238094Y-68657200D01*
X178238094Y-68657200D02*
X178142856Y-68704819D01*
X178142856Y-68704819D02*
X177999999Y-68704819D01*
X179190475Y-68038152D02*
X179190475Y-68704819D01*
X178761904Y-68038152D02*
X178761904Y-68561961D01*
X178761904Y-68561961D02*
X178809523Y-68657200D01*
X178809523Y-68657200D02*
X178904761Y-68704819D01*
X178904761Y-68704819D02*
X179047618Y-68704819D01*
X179047618Y-68704819D02*
X179142856Y-68657200D01*
X179142856Y-68657200D02*
X179190475Y-68609580D01*
X179666666Y-68038152D02*
X179666666Y-68704819D01*
X179666666Y-68133390D02*
X179714285Y-68085771D01*
X179714285Y-68085771D02*
X179809523Y-68038152D01*
X179809523Y-68038152D02*
X179952380Y-68038152D01*
X179952380Y-68038152D02*
X180047618Y-68085771D01*
X180047618Y-68085771D02*
X180095237Y-68181009D01*
X180095237Y-68181009D02*
X180095237Y-68704819D01*
X180428571Y-68038152D02*
X180809523Y-68038152D01*
X180571428Y-67704819D02*
X180571428Y-68561961D01*
X180571428Y-68561961D02*
X180619047Y-68657200D01*
X180619047Y-68657200D02*
X180714285Y-68704819D01*
X180714285Y-68704819D02*
X180809523Y-68704819D01*
X181142857Y-68704819D02*
X181142857Y-68038152D01*
X181142857Y-67704819D02*
X181095238Y-67752438D01*
X181095238Y-67752438D02*
X181142857Y-67800057D01*
X181142857Y-67800057D02*
X181190476Y-67752438D01*
X181190476Y-67752438D02*
X181142857Y-67704819D01*
X181142857Y-67704819D02*
X181142857Y-67800057D01*
X181619047Y-68038152D02*
X181619047Y-68704819D01*
X181619047Y-68133390D02*
X181666666Y-68085771D01*
X181666666Y-68085771D02*
X181761904Y-68038152D01*
X181761904Y-68038152D02*
X181904761Y-68038152D01*
X181904761Y-68038152D02*
X181999999Y-68085771D01*
X181999999Y-68085771D02*
X182047618Y-68181009D01*
X182047618Y-68181009D02*
X182047618Y-68704819D01*
X182952380Y-68038152D02*
X182952380Y-68847676D01*
X182952380Y-68847676D02*
X182904761Y-68942914D01*
X182904761Y-68942914D02*
X182857142Y-68990533D01*
X182857142Y-68990533D02*
X182761904Y-69038152D01*
X182761904Y-69038152D02*
X182619047Y-69038152D01*
X182619047Y-69038152D02*
X182523809Y-68990533D01*
X182952380Y-68657200D02*
X182857142Y-68704819D01*
X182857142Y-68704819D02*
X182666666Y-68704819D01*
X182666666Y-68704819D02*
X182571428Y-68657200D01*
X182571428Y-68657200D02*
X182523809Y-68609580D01*
X182523809Y-68609580D02*
X182476190Y-68514342D01*
X182476190Y-68514342D02*
X182476190Y-68228628D01*
X182476190Y-68228628D02*
X182523809Y-68133390D01*
X182523809Y-68133390D02*
X182571428Y-68085771D01*
X182571428Y-68085771D02*
X182666666Y-68038152D01*
X182666666Y-68038152D02*
X182857142Y-68038152D01*
X182857142Y-68038152D02*
X182952380Y-68085771D01*
X183428571Y-68704819D02*
X183428571Y-67704819D01*
X183428571Y-68181009D02*
X183999999Y-68181009D01*
X183999999Y-68704819D02*
X183999999Y-67704819D01*
X184619047Y-68704819D02*
X184523809Y-68657200D01*
X184523809Y-68657200D02*
X184476190Y-68609580D01*
X184476190Y-68609580D02*
X184428571Y-68514342D01*
X184428571Y-68514342D02*
X184428571Y-68228628D01*
X184428571Y-68228628D02*
X184476190Y-68133390D01*
X184476190Y-68133390D02*
X184523809Y-68085771D01*
X184523809Y-68085771D02*
X184619047Y-68038152D01*
X184619047Y-68038152D02*
X184761904Y-68038152D01*
X184761904Y-68038152D02*
X184857142Y-68085771D01*
X184857142Y-68085771D02*
X184904761Y-68133390D01*
X184904761Y-68133390D02*
X184952380Y-68228628D01*
X184952380Y-68228628D02*
X184952380Y-68514342D01*
X184952380Y-68514342D02*
X184904761Y-68609580D01*
X184904761Y-68609580D02*
X184857142Y-68657200D01*
X184857142Y-68657200D02*
X184761904Y-68704819D01*
X184761904Y-68704819D02*
X184619047Y-68704819D01*
X185523809Y-68704819D02*
X185428571Y-68657200D01*
X185428571Y-68657200D02*
X185380952Y-68561961D01*
X185380952Y-68561961D02*
X185380952Y-67704819D01*
X186285714Y-68657200D02*
X186190476Y-68704819D01*
X186190476Y-68704819D02*
X186000000Y-68704819D01*
X186000000Y-68704819D02*
X185904762Y-68657200D01*
X185904762Y-68657200D02*
X185857143Y-68561961D01*
X185857143Y-68561961D02*
X185857143Y-68181009D01*
X185857143Y-68181009D02*
X185904762Y-68085771D01*
X185904762Y-68085771D02*
X186000000Y-68038152D01*
X186000000Y-68038152D02*
X186190476Y-68038152D01*
X186190476Y-68038152D02*
X186285714Y-68085771D01*
X186285714Y-68085771D02*
X186333333Y-68181009D01*
X186333333Y-68181009D02*
X186333333Y-68276247D01*
X186333333Y-68276247D02*
X185857143Y-68371485D01*
X180988095Y-66704819D02*
X180988095Y-65704819D01*
X180988095Y-66181009D02*
X181559523Y-66181009D01*
X181559523Y-66704819D02*
X181559523Y-65704819D01*
X182559523Y-66704819D02*
X181988095Y-66704819D01*
X182273809Y-66704819D02*
X182273809Y-65704819D01*
X182273809Y-65704819D02*
X182178571Y-65847676D01*
X182178571Y-65847676D02*
X182083333Y-65942914D01*
X182083333Y-65942914D02*
X181988095Y-65990533D01*
X155940475Y-110359580D02*
X155892856Y-110407200D01*
X155892856Y-110407200D02*
X155749999Y-110454819D01*
X155749999Y-110454819D02*
X155654761Y-110454819D01*
X155654761Y-110454819D02*
X155511904Y-110407200D01*
X155511904Y-110407200D02*
X155416666Y-110311961D01*
X155416666Y-110311961D02*
X155369047Y-110216723D01*
X155369047Y-110216723D02*
X155321428Y-110026247D01*
X155321428Y-110026247D02*
X155321428Y-109883390D01*
X155321428Y-109883390D02*
X155369047Y-109692914D01*
X155369047Y-109692914D02*
X155416666Y-109597676D01*
X155416666Y-109597676D02*
X155511904Y-109502438D01*
X155511904Y-109502438D02*
X155654761Y-109454819D01*
X155654761Y-109454819D02*
X155749999Y-109454819D01*
X155749999Y-109454819D02*
X155892856Y-109502438D01*
X155892856Y-109502438D02*
X155940475Y-109550057D01*
X156511904Y-110454819D02*
X156416666Y-110407200D01*
X156416666Y-110407200D02*
X156369047Y-110359580D01*
X156369047Y-110359580D02*
X156321428Y-110264342D01*
X156321428Y-110264342D02*
X156321428Y-109978628D01*
X156321428Y-109978628D02*
X156369047Y-109883390D01*
X156369047Y-109883390D02*
X156416666Y-109835771D01*
X156416666Y-109835771D02*
X156511904Y-109788152D01*
X156511904Y-109788152D02*
X156654761Y-109788152D01*
X156654761Y-109788152D02*
X156749999Y-109835771D01*
X156749999Y-109835771D02*
X156797618Y-109883390D01*
X156797618Y-109883390D02*
X156845237Y-109978628D01*
X156845237Y-109978628D02*
X156845237Y-110264342D01*
X156845237Y-110264342D02*
X156797618Y-110359580D01*
X156797618Y-110359580D02*
X156749999Y-110407200D01*
X156749999Y-110407200D02*
X156654761Y-110454819D01*
X156654761Y-110454819D02*
X156511904Y-110454819D01*
X157273809Y-109788152D02*
X157273809Y-110454819D01*
X157273809Y-109883390D02*
X157321428Y-109835771D01*
X157321428Y-109835771D02*
X157416666Y-109788152D01*
X157416666Y-109788152D02*
X157559523Y-109788152D01*
X157559523Y-109788152D02*
X157654761Y-109835771D01*
X157654761Y-109835771D02*
X157702380Y-109931009D01*
X157702380Y-109931009D02*
X157702380Y-110454819D01*
X158178571Y-109788152D02*
X158178571Y-110454819D01*
X158178571Y-109883390D02*
X158226190Y-109835771D01*
X158226190Y-109835771D02*
X158321428Y-109788152D01*
X158321428Y-109788152D02*
X158464285Y-109788152D01*
X158464285Y-109788152D02*
X158559523Y-109835771D01*
X158559523Y-109835771D02*
X158607142Y-109931009D01*
X158607142Y-109931009D02*
X158607142Y-110454819D01*
X158845238Y-110550057D02*
X159607142Y-110550057D01*
X160035714Y-109454819D02*
X160130952Y-109454819D01*
X160130952Y-109454819D02*
X160226190Y-109502438D01*
X160226190Y-109502438D02*
X160273809Y-109550057D01*
X160273809Y-109550057D02*
X160321428Y-109645295D01*
X160321428Y-109645295D02*
X160369047Y-109835771D01*
X160369047Y-109835771D02*
X160369047Y-110073866D01*
X160369047Y-110073866D02*
X160321428Y-110264342D01*
X160321428Y-110264342D02*
X160273809Y-110359580D01*
X160273809Y-110359580D02*
X160226190Y-110407200D01*
X160226190Y-110407200D02*
X160130952Y-110454819D01*
X160130952Y-110454819D02*
X160035714Y-110454819D01*
X160035714Y-110454819D02*
X159940476Y-110407200D01*
X159940476Y-110407200D02*
X159892857Y-110359580D01*
X159892857Y-110359580D02*
X159845238Y-110264342D01*
X159845238Y-110264342D02*
X159797619Y-110073866D01*
X159797619Y-110073866D02*
X159797619Y-109835771D01*
X159797619Y-109835771D02*
X159845238Y-109645295D01*
X159845238Y-109645295D02*
X159892857Y-109550057D01*
X159892857Y-109550057D02*
X159940476Y-109502438D01*
X159940476Y-109502438D02*
X160035714Y-109454819D01*
X161321428Y-110454819D02*
X160750000Y-110454819D01*
X161035714Y-110454819D02*
X161035714Y-109454819D01*
X161035714Y-109454819D02*
X160940476Y-109597676D01*
X160940476Y-109597676D02*
X160845238Y-109692914D01*
X160845238Y-109692914D02*
X160750000Y-109740533D01*
X161654762Y-110454819D02*
X162178571Y-109788152D01*
X161654762Y-109788152D02*
X162178571Y-110454819D01*
X162750000Y-109454819D02*
X162845238Y-109454819D01*
X162845238Y-109454819D02*
X162940476Y-109502438D01*
X162940476Y-109502438D02*
X162988095Y-109550057D01*
X162988095Y-109550057D02*
X163035714Y-109645295D01*
X163035714Y-109645295D02*
X163083333Y-109835771D01*
X163083333Y-109835771D02*
X163083333Y-110073866D01*
X163083333Y-110073866D02*
X163035714Y-110264342D01*
X163035714Y-110264342D02*
X162988095Y-110359580D01*
X162988095Y-110359580D02*
X162940476Y-110407200D01*
X162940476Y-110407200D02*
X162845238Y-110454819D01*
X162845238Y-110454819D02*
X162750000Y-110454819D01*
X162750000Y-110454819D02*
X162654762Y-110407200D01*
X162654762Y-110407200D02*
X162607143Y-110359580D01*
X162607143Y-110359580D02*
X162559524Y-110264342D01*
X162559524Y-110264342D02*
X162511905Y-110073866D01*
X162511905Y-110073866D02*
X162511905Y-109835771D01*
X162511905Y-109835771D02*
X162559524Y-109645295D01*
X162559524Y-109645295D02*
X162607143Y-109550057D01*
X162607143Y-109550057D02*
X162654762Y-109502438D01*
X162654762Y-109502438D02*
X162750000Y-109454819D01*
X163416667Y-109454819D02*
X164035714Y-109454819D01*
X164035714Y-109454819D02*
X163702381Y-109835771D01*
X163702381Y-109835771D02*
X163845238Y-109835771D01*
X163845238Y-109835771D02*
X163940476Y-109883390D01*
X163940476Y-109883390D02*
X163988095Y-109931009D01*
X163988095Y-109931009D02*
X164035714Y-110026247D01*
X164035714Y-110026247D02*
X164035714Y-110264342D01*
X164035714Y-110264342D02*
X163988095Y-110359580D01*
X163988095Y-110359580D02*
X163940476Y-110407200D01*
X163940476Y-110407200D02*
X163845238Y-110454819D01*
X163845238Y-110454819D02*
X163559524Y-110454819D01*
X163559524Y-110454819D02*
X163464286Y-110407200D01*
X163464286Y-110407200D02*
X163416667Y-110359580D01*
X164226191Y-110550057D02*
X164988095Y-110550057D01*
X165226191Y-110454819D02*
X165226191Y-109454819D01*
X165226191Y-109454819D02*
X165607143Y-109454819D01*
X165607143Y-109454819D02*
X165702381Y-109502438D01*
X165702381Y-109502438D02*
X165750000Y-109550057D01*
X165750000Y-109550057D02*
X165797619Y-109645295D01*
X165797619Y-109645295D02*
X165797619Y-109788152D01*
X165797619Y-109788152D02*
X165750000Y-109883390D01*
X165750000Y-109883390D02*
X165702381Y-109931009D01*
X165702381Y-109931009D02*
X165607143Y-109978628D01*
X165607143Y-109978628D02*
X165226191Y-109978628D01*
X166226191Y-110454819D02*
X166226191Y-109788152D01*
X166226191Y-109454819D02*
X166178572Y-109502438D01*
X166178572Y-109502438D02*
X166226191Y-109550057D01*
X166226191Y-109550057D02*
X166273810Y-109502438D01*
X166273810Y-109502438D02*
X166226191Y-109454819D01*
X166226191Y-109454819D02*
X166226191Y-109550057D01*
X166702381Y-109788152D02*
X166702381Y-110454819D01*
X166702381Y-109883390D02*
X166750000Y-109835771D01*
X166750000Y-109835771D02*
X166845238Y-109788152D01*
X166845238Y-109788152D02*
X166988095Y-109788152D01*
X166988095Y-109788152D02*
X167083333Y-109835771D01*
X167083333Y-109835771D02*
X167130952Y-109931009D01*
X167130952Y-109931009D02*
X167130952Y-110454819D01*
X160626666Y-106704819D02*
X160626666Y-107419104D01*
X160626666Y-107419104D02*
X160579047Y-107561961D01*
X160579047Y-107561961D02*
X160483809Y-107657200D01*
X160483809Y-107657200D02*
X160340952Y-107704819D01*
X160340952Y-107704819D02*
X160245714Y-107704819D01*
X161626666Y-107704819D02*
X161055238Y-107704819D01*
X161340952Y-107704819D02*
X161340952Y-106704819D01*
X161340952Y-106704819D02*
X161245714Y-106847676D01*
X161245714Y-106847676D02*
X161150476Y-106942914D01*
X161150476Y-106942914D02*
X161055238Y-106990533D01*
X170134819Y-96964285D02*
X170134819Y-97535713D01*
X170134819Y-97249999D02*
X169134819Y-97249999D01*
X169134819Y-97249999D02*
X169277676Y-97345237D01*
X169277676Y-97345237D02*
X169372914Y-97440475D01*
X169372914Y-97440475D02*
X169420533Y-97535713D01*
X170134819Y-96535713D02*
X169134819Y-96535713D01*
X170134819Y-95964285D02*
X169563390Y-96392856D01*
X169134819Y-95964285D02*
X169706247Y-96535713D01*
D11*
X168431927Y-96816666D02*
X168241451Y-96949999D01*
X168431927Y-97045237D02*
X168031927Y-97045237D01*
X168031927Y-97045237D02*
X168031927Y-96892856D01*
X168031927Y-96892856D02*
X168050975Y-96854761D01*
X168050975Y-96854761D02*
X168070022Y-96835714D01*
X168070022Y-96835714D02*
X168108118Y-96816666D01*
X168108118Y-96816666D02*
X168165260Y-96816666D01*
X168165260Y-96816666D02*
X168203356Y-96835714D01*
X168203356Y-96835714D02*
X168222403Y-96854761D01*
X168222403Y-96854761D02*
X168241451Y-96892856D01*
X168241451Y-96892856D02*
X168241451Y-97045237D01*
X168070022Y-96664285D02*
X168050975Y-96645237D01*
X168050975Y-96645237D02*
X168031927Y-96607142D01*
X168031927Y-96607142D02*
X168031927Y-96511904D01*
X168031927Y-96511904D02*
X168050975Y-96473809D01*
X168050975Y-96473809D02*
X168070022Y-96454761D01*
X168070022Y-96454761D02*
X168108118Y-96435714D01*
X168108118Y-96435714D02*
X168146213Y-96435714D01*
X168146213Y-96435714D02*
X168203356Y-96454761D01*
X168203356Y-96454761D02*
X168431927Y-96683333D01*
X168431927Y-96683333D02*
X168431927Y-96435714D01*
D10*
X166380952Y-91054819D02*
X166380952Y-90054819D01*
X166380952Y-90054819D02*
X166714285Y-90769104D01*
X166714285Y-90769104D02*
X167047618Y-90054819D01*
X167047618Y-90054819D02*
X167047618Y-91054819D01*
X167380952Y-90054819D02*
X167952380Y-90054819D01*
X167666666Y-91054819D02*
X167666666Y-90054819D01*
X168190476Y-90054819D02*
X168809523Y-90054819D01*
X168809523Y-90054819D02*
X168476190Y-90435771D01*
X168476190Y-90435771D02*
X168619047Y-90435771D01*
X168619047Y-90435771D02*
X168714285Y-90483390D01*
X168714285Y-90483390D02*
X168761904Y-90531009D01*
X168761904Y-90531009D02*
X168809523Y-90626247D01*
X168809523Y-90626247D02*
X168809523Y-90864342D01*
X168809523Y-90864342D02*
X168761904Y-90959580D01*
X168761904Y-90959580D02*
X168714285Y-91007200D01*
X168714285Y-91007200D02*
X168619047Y-91054819D01*
X168619047Y-91054819D02*
X168333333Y-91054819D01*
X168333333Y-91054819D02*
X168238095Y-91007200D01*
X168238095Y-91007200D02*
X168190476Y-90959580D01*
X169666666Y-90054819D02*
X169476190Y-90054819D01*
X169476190Y-90054819D02*
X169380952Y-90102438D01*
X169380952Y-90102438D02*
X169333333Y-90150057D01*
X169333333Y-90150057D02*
X169238095Y-90292914D01*
X169238095Y-90292914D02*
X169190476Y-90483390D01*
X169190476Y-90483390D02*
X169190476Y-90864342D01*
X169190476Y-90864342D02*
X169238095Y-90959580D01*
X169238095Y-90959580D02*
X169285714Y-91007200D01*
X169285714Y-91007200D02*
X169380952Y-91054819D01*
X169380952Y-91054819D02*
X169571428Y-91054819D01*
X169571428Y-91054819D02*
X169666666Y-91007200D01*
X169666666Y-91007200D02*
X169714285Y-90959580D01*
X169714285Y-90959580D02*
X169761904Y-90864342D01*
X169761904Y-90864342D02*
X169761904Y-90626247D01*
X169761904Y-90626247D02*
X169714285Y-90531009D01*
X169714285Y-90531009D02*
X169666666Y-90483390D01*
X169666666Y-90483390D02*
X169571428Y-90435771D01*
X169571428Y-90435771D02*
X169380952Y-90435771D01*
X169380952Y-90435771D02*
X169285714Y-90483390D01*
X169285714Y-90483390D02*
X169238095Y-90531009D01*
X169238095Y-90531009D02*
X169190476Y-90626247D01*
X170380952Y-90054819D02*
X170476190Y-90054819D01*
X170476190Y-90054819D02*
X170571428Y-90102438D01*
X170571428Y-90102438D02*
X170619047Y-90150057D01*
X170619047Y-90150057D02*
X170666666Y-90245295D01*
X170666666Y-90245295D02*
X170714285Y-90435771D01*
X170714285Y-90435771D02*
X170714285Y-90673866D01*
X170714285Y-90673866D02*
X170666666Y-90864342D01*
X170666666Y-90864342D02*
X170619047Y-90959580D01*
X170619047Y-90959580D02*
X170571428Y-91007200D01*
X170571428Y-91007200D02*
X170476190Y-91054819D01*
X170476190Y-91054819D02*
X170380952Y-91054819D01*
X170380952Y-91054819D02*
X170285714Y-91007200D01*
X170285714Y-91007200D02*
X170238095Y-90959580D01*
X170238095Y-90959580D02*
X170190476Y-90864342D01*
X170190476Y-90864342D02*
X170142857Y-90673866D01*
X170142857Y-90673866D02*
X170142857Y-90435771D01*
X170142857Y-90435771D02*
X170190476Y-90245295D01*
X170190476Y-90245295D02*
X170238095Y-90150057D01*
X170238095Y-90150057D02*
X170285714Y-90102438D01*
X170285714Y-90102438D02*
X170380952Y-90054819D01*
X171285714Y-90483390D02*
X171190476Y-90435771D01*
X171190476Y-90435771D02*
X171142857Y-90388152D01*
X171142857Y-90388152D02*
X171095238Y-90292914D01*
X171095238Y-90292914D02*
X171095238Y-90245295D01*
X171095238Y-90245295D02*
X171142857Y-90150057D01*
X171142857Y-90150057D02*
X171190476Y-90102438D01*
X171190476Y-90102438D02*
X171285714Y-90054819D01*
X171285714Y-90054819D02*
X171476190Y-90054819D01*
X171476190Y-90054819D02*
X171571428Y-90102438D01*
X171571428Y-90102438D02*
X171619047Y-90150057D01*
X171619047Y-90150057D02*
X171666666Y-90245295D01*
X171666666Y-90245295D02*
X171666666Y-90292914D01*
X171666666Y-90292914D02*
X171619047Y-90388152D01*
X171619047Y-90388152D02*
X171571428Y-90435771D01*
X171571428Y-90435771D02*
X171476190Y-90483390D01*
X171476190Y-90483390D02*
X171285714Y-90483390D01*
X171285714Y-90483390D02*
X171190476Y-90531009D01*
X171190476Y-90531009D02*
X171142857Y-90578628D01*
X171142857Y-90578628D02*
X171095238Y-90673866D01*
X171095238Y-90673866D02*
X171095238Y-90864342D01*
X171095238Y-90864342D02*
X171142857Y-90959580D01*
X171142857Y-90959580D02*
X171190476Y-91007200D01*
X171190476Y-91007200D02*
X171285714Y-91054819D01*
X171285714Y-91054819D02*
X171476190Y-91054819D01*
X171476190Y-91054819D02*
X171571428Y-91007200D01*
X171571428Y-91007200D02*
X171619047Y-90959580D01*
X171619047Y-90959580D02*
X171666666Y-90864342D01*
X171666666Y-90864342D02*
X171666666Y-90673866D01*
X171666666Y-90673866D02*
X171619047Y-90578628D01*
X171619047Y-90578628D02*
X171571428Y-90531009D01*
X171571428Y-90531009D02*
X171476190Y-90483390D01*
D11*
X168695238Y-92781927D02*
X168695238Y-93105737D01*
X168695238Y-93105737D02*
X168714285Y-93143832D01*
X168714285Y-93143832D02*
X168733333Y-93162880D01*
X168733333Y-93162880D02*
X168771428Y-93181927D01*
X168771428Y-93181927D02*
X168847619Y-93181927D01*
X168847619Y-93181927D02*
X168885714Y-93162880D01*
X168885714Y-93162880D02*
X168904761Y-93143832D01*
X168904761Y-93143832D02*
X168923809Y-93105737D01*
X168923809Y-93105737D02*
X168923809Y-92781927D01*
X169095238Y-92820022D02*
X169114286Y-92800975D01*
X169114286Y-92800975D02*
X169152381Y-92781927D01*
X169152381Y-92781927D02*
X169247619Y-92781927D01*
X169247619Y-92781927D02*
X169285714Y-92800975D01*
X169285714Y-92800975D02*
X169304762Y-92820022D01*
X169304762Y-92820022D02*
X169323809Y-92858118D01*
X169323809Y-92858118D02*
X169323809Y-92896213D01*
X169323809Y-92896213D02*
X169304762Y-92953356D01*
X169304762Y-92953356D02*
X169076190Y-93181927D01*
X169076190Y-93181927D02*
X169323809Y-93181927D01*
D10*
X168428571Y-87681009D02*
X168571428Y-87728628D01*
X168571428Y-87728628D02*
X168619047Y-87776247D01*
X168619047Y-87776247D02*
X168666666Y-87871485D01*
X168666666Y-87871485D02*
X168666666Y-88014342D01*
X168666666Y-88014342D02*
X168619047Y-88109580D01*
X168619047Y-88109580D02*
X168571428Y-88157200D01*
X168571428Y-88157200D02*
X168476190Y-88204819D01*
X168476190Y-88204819D02*
X168095238Y-88204819D01*
X168095238Y-88204819D02*
X168095238Y-87204819D01*
X168095238Y-87204819D02*
X168428571Y-87204819D01*
X168428571Y-87204819D02*
X168523809Y-87252438D01*
X168523809Y-87252438D02*
X168571428Y-87300057D01*
X168571428Y-87300057D02*
X168619047Y-87395295D01*
X168619047Y-87395295D02*
X168619047Y-87490533D01*
X168619047Y-87490533D02*
X168571428Y-87585771D01*
X168571428Y-87585771D02*
X168523809Y-87633390D01*
X168523809Y-87633390D02*
X168428571Y-87681009D01*
X168428571Y-87681009D02*
X168095238Y-87681009D01*
X169523809Y-88204819D02*
X169523809Y-87681009D01*
X169523809Y-87681009D02*
X169476190Y-87585771D01*
X169476190Y-87585771D02*
X169380952Y-87538152D01*
X169380952Y-87538152D02*
X169190476Y-87538152D01*
X169190476Y-87538152D02*
X169095238Y-87585771D01*
X169523809Y-88157200D02*
X169428571Y-88204819D01*
X169428571Y-88204819D02*
X169190476Y-88204819D01*
X169190476Y-88204819D02*
X169095238Y-88157200D01*
X169095238Y-88157200D02*
X169047619Y-88061961D01*
X169047619Y-88061961D02*
X169047619Y-87966723D01*
X169047619Y-87966723D02*
X169095238Y-87871485D01*
X169095238Y-87871485D02*
X169190476Y-87823866D01*
X169190476Y-87823866D02*
X169428571Y-87823866D01*
X169428571Y-87823866D02*
X169523809Y-87776247D01*
X169857143Y-87538152D02*
X170238095Y-87538152D01*
X170000000Y-87204819D02*
X170000000Y-88061961D01*
X170000000Y-88061961D02*
X170047619Y-88157200D01*
X170047619Y-88157200D02*
X170142857Y-88204819D01*
X170142857Y-88204819D02*
X170238095Y-88204819D01*
X170428572Y-87538152D02*
X170809524Y-87538152D01*
X170571429Y-87204819D02*
X170571429Y-88061961D01*
X170571429Y-88061961D02*
X170619048Y-88157200D01*
X170619048Y-88157200D02*
X170714286Y-88204819D01*
X170714286Y-88204819D02*
X170809524Y-88204819D01*
X171142858Y-87823866D02*
X171904763Y-87823866D01*
X171523810Y-88204819D02*
X171523810Y-87442914D01*
X167952380Y-84281009D02*
X168095237Y-84328628D01*
X168095237Y-84328628D02*
X168142856Y-84376247D01*
X168142856Y-84376247D02*
X168190475Y-84471485D01*
X168190475Y-84471485D02*
X168190475Y-84614342D01*
X168190475Y-84614342D02*
X168142856Y-84709580D01*
X168142856Y-84709580D02*
X168095237Y-84757200D01*
X168095237Y-84757200D02*
X167999999Y-84804819D01*
X167999999Y-84804819D02*
X167619047Y-84804819D01*
X167619047Y-84804819D02*
X167619047Y-83804819D01*
X167619047Y-83804819D02*
X167952380Y-83804819D01*
X167952380Y-83804819D02*
X168047618Y-83852438D01*
X168047618Y-83852438D02*
X168095237Y-83900057D01*
X168095237Y-83900057D02*
X168142856Y-83995295D01*
X168142856Y-83995295D02*
X168142856Y-84090533D01*
X168142856Y-84090533D02*
X168095237Y-84185771D01*
X168095237Y-84185771D02*
X168047618Y-84233390D01*
X168047618Y-84233390D02*
X167952380Y-84281009D01*
X167952380Y-84281009D02*
X167619047Y-84281009D01*
X169047618Y-84804819D02*
X169047618Y-84281009D01*
X169047618Y-84281009D02*
X168999999Y-84185771D01*
X168999999Y-84185771D02*
X168904761Y-84138152D01*
X168904761Y-84138152D02*
X168714285Y-84138152D01*
X168714285Y-84138152D02*
X168619047Y-84185771D01*
X169047618Y-84757200D02*
X168952380Y-84804819D01*
X168952380Y-84804819D02*
X168714285Y-84804819D01*
X168714285Y-84804819D02*
X168619047Y-84757200D01*
X168619047Y-84757200D02*
X168571428Y-84661961D01*
X168571428Y-84661961D02*
X168571428Y-84566723D01*
X168571428Y-84566723D02*
X168619047Y-84471485D01*
X168619047Y-84471485D02*
X168714285Y-84423866D01*
X168714285Y-84423866D02*
X168952380Y-84423866D01*
X168952380Y-84423866D02*
X169047618Y-84376247D01*
X169380952Y-84138152D02*
X169761904Y-84138152D01*
X169523809Y-83804819D02*
X169523809Y-84661961D01*
X169523809Y-84661961D02*
X169571428Y-84757200D01*
X169571428Y-84757200D02*
X169666666Y-84804819D01*
X169666666Y-84804819D02*
X169761904Y-84804819D01*
X169952381Y-84138152D02*
X170333333Y-84138152D01*
X170095238Y-83804819D02*
X170095238Y-84661961D01*
X170095238Y-84661961D02*
X170142857Y-84757200D01*
X170142857Y-84757200D02*
X170238095Y-84804819D01*
X170238095Y-84804819D02*
X170333333Y-84804819D01*
X170666667Y-84423866D02*
X171428572Y-84423866D01*
X171047619Y-84804819D02*
X171047619Y-84042914D01*
X172428571Y-84804819D02*
X171857143Y-84804819D01*
X172142857Y-84804819D02*
X172142857Y-83804819D01*
X172142857Y-83804819D02*
X172047619Y-83947676D01*
X172047619Y-83947676D02*
X171952381Y-84042914D01*
X171952381Y-84042914D02*
X171857143Y-84090533D01*
X157961190Y-86358152D02*
X157961190Y-87024819D01*
X157723095Y-85977200D02*
X157485000Y-86691485D01*
X157485000Y-86691485D02*
X158104047Y-86691485D01*
X158485000Y-86929580D02*
X158532619Y-86977200D01*
X158532619Y-86977200D02*
X158485000Y-87024819D01*
X158485000Y-87024819D02*
X158437381Y-86977200D01*
X158437381Y-86977200D02*
X158485000Y-86929580D01*
X158485000Y-86929580D02*
X158485000Y-87024819D01*
X158865952Y-86024819D02*
X159532618Y-86024819D01*
X159532618Y-86024819D02*
X159104047Y-87024819D01*
X159913571Y-87024819D02*
X159913571Y-86024819D01*
X160484999Y-87024819D02*
X160056428Y-86453390D01*
X160484999Y-86024819D02*
X159913571Y-86596247D01*
D11*
X158918333Y-88181927D02*
X158785000Y-87991451D01*
X158689762Y-88181927D02*
X158689762Y-87781927D01*
X158689762Y-87781927D02*
X158842143Y-87781927D01*
X158842143Y-87781927D02*
X158880238Y-87800975D01*
X158880238Y-87800975D02*
X158899285Y-87820022D01*
X158899285Y-87820022D02*
X158918333Y-87858118D01*
X158918333Y-87858118D02*
X158918333Y-87915260D01*
X158918333Y-87915260D02*
X158899285Y-87953356D01*
X158899285Y-87953356D02*
X158880238Y-87972403D01*
X158880238Y-87972403D02*
X158842143Y-87991451D01*
X158842143Y-87991451D02*
X158689762Y-87991451D01*
X159261190Y-87915260D02*
X159261190Y-88181927D01*
X159165952Y-87762880D02*
X159070714Y-88048594D01*
X159070714Y-88048594D02*
X159318333Y-88048594D01*
D10*
X162964286Y-87704819D02*
X163535714Y-87704819D01*
X163250000Y-88704819D02*
X163250000Y-87704819D01*
X163869048Y-88704819D02*
X163869048Y-87704819D01*
X163869048Y-87704819D02*
X164250000Y-87704819D01*
X164250000Y-87704819D02*
X164345238Y-87752438D01*
X164345238Y-87752438D02*
X164392857Y-87800057D01*
X164392857Y-87800057D02*
X164440476Y-87895295D01*
X164440476Y-87895295D02*
X164440476Y-88038152D01*
X164440476Y-88038152D02*
X164392857Y-88133390D01*
X164392857Y-88133390D02*
X164345238Y-88181009D01*
X164345238Y-88181009D02*
X164250000Y-88228628D01*
X164250000Y-88228628D02*
X163869048Y-88228628D01*
X163083333Y-84304819D02*
X162607143Y-84304819D01*
X162607143Y-84304819D02*
X162559524Y-84781009D01*
X162559524Y-84781009D02*
X162607143Y-84733390D01*
X162607143Y-84733390D02*
X162702381Y-84685771D01*
X162702381Y-84685771D02*
X162940476Y-84685771D01*
X162940476Y-84685771D02*
X163035714Y-84733390D01*
X163035714Y-84733390D02*
X163083333Y-84781009D01*
X163083333Y-84781009D02*
X163130952Y-84876247D01*
X163130952Y-84876247D02*
X163130952Y-85114342D01*
X163130952Y-85114342D02*
X163083333Y-85209580D01*
X163083333Y-85209580D02*
X163035714Y-85257200D01*
X163035714Y-85257200D02*
X162940476Y-85304819D01*
X162940476Y-85304819D02*
X162702381Y-85304819D01*
X162702381Y-85304819D02*
X162607143Y-85257200D01*
X162607143Y-85257200D02*
X162559524Y-85209580D01*
X163416667Y-84304819D02*
X163750000Y-85304819D01*
X163750000Y-85304819D02*
X164083333Y-84304819D01*
X164940476Y-85304819D02*
X164369048Y-85304819D01*
X164654762Y-85304819D02*
X164654762Y-84304819D01*
X164654762Y-84304819D02*
X164559524Y-84447676D01*
X164559524Y-84447676D02*
X164464286Y-84542914D01*
X164464286Y-84542914D02*
X164369048Y-84590533D01*
X186907923Y-97319632D02*
X186955624Y-97176526D01*
X186955624Y-97176526D02*
X186955624Y-96938017D01*
X186955624Y-96938017D02*
X186907923Y-96842613D01*
X186907923Y-96842613D02*
X186860221Y-96794911D01*
X186860221Y-96794911D02*
X186764817Y-96747209D01*
X186764817Y-96747209D02*
X186669413Y-96747209D01*
X186669413Y-96747209D02*
X186574009Y-96794911D01*
X186574009Y-96794911D02*
X186526307Y-96842613D01*
X186526307Y-96842613D02*
X186478605Y-96938017D01*
X186478605Y-96938017D02*
X186430903Y-97128824D01*
X186430903Y-97128824D02*
X186383202Y-97224228D01*
X186383202Y-97224228D02*
X186335500Y-97271930D01*
X186335500Y-97271930D02*
X186240096Y-97319632D01*
X186240096Y-97319632D02*
X186144692Y-97319632D01*
X186144692Y-97319632D02*
X186049288Y-97271930D01*
X186049288Y-97271930D02*
X186001586Y-97224228D01*
X186001586Y-97224228D02*
X185953884Y-97128824D01*
X185953884Y-97128824D02*
X185953884Y-96890315D01*
X185953884Y-96890315D02*
X186001586Y-96747209D01*
X186955624Y-95745469D02*
X186478605Y-96079382D01*
X186955624Y-96317892D02*
X185953884Y-96317892D01*
X185953884Y-96317892D02*
X185953884Y-95936277D01*
X185953884Y-95936277D02*
X186001586Y-95840873D01*
X186001586Y-95840873D02*
X186049288Y-95793171D01*
X186049288Y-95793171D02*
X186144692Y-95745469D01*
X186144692Y-95745469D02*
X186287798Y-95745469D01*
X186287798Y-95745469D02*
X186383202Y-95793171D01*
X186383202Y-95793171D02*
X186430903Y-95840873D01*
X186430903Y-95840873D02*
X186478605Y-95936277D01*
X186478605Y-95936277D02*
X186478605Y-96317892D01*
X186955624Y-94743729D02*
X186478605Y-95077642D01*
X186955624Y-95316152D02*
X185953884Y-95316152D01*
X185953884Y-95316152D02*
X185953884Y-94934537D01*
X185953884Y-94934537D02*
X186001586Y-94839133D01*
X186001586Y-94839133D02*
X186049288Y-94791431D01*
X186049288Y-94791431D02*
X186144692Y-94743729D01*
X186144692Y-94743729D02*
X186287798Y-94743729D01*
X186287798Y-94743729D02*
X186383202Y-94791431D01*
X186383202Y-94791431D02*
X186430903Y-94839133D01*
X186430903Y-94839133D02*
X186478605Y-94934537D01*
X186478605Y-94934537D02*
X186478605Y-95316152D01*
X186955624Y-93789691D02*
X186955624Y-94362114D01*
X186955624Y-94075902D02*
X185953884Y-94075902D01*
X185953884Y-94075902D02*
X186096990Y-94171306D01*
X186096990Y-94171306D02*
X186192394Y-94266710D01*
X186192394Y-94266710D02*
X186240096Y-94362114D01*
X186049288Y-93408076D02*
X186001586Y-93360374D01*
X186001586Y-93360374D02*
X185953884Y-93264970D01*
X185953884Y-93264970D02*
X185953884Y-93026461D01*
X185953884Y-93026461D02*
X186001586Y-92931057D01*
X186001586Y-92931057D02*
X186049288Y-92883355D01*
X186049288Y-92883355D02*
X186144692Y-92835653D01*
X186144692Y-92835653D02*
X186240096Y-92835653D01*
X186240096Y-92835653D02*
X186383202Y-92883355D01*
X186383202Y-92883355D02*
X186955624Y-93455778D01*
X186955624Y-93455778D02*
X186955624Y-92835653D01*
X185953884Y-91977019D02*
X185953884Y-92167826D01*
X185953884Y-92167826D02*
X186001586Y-92263230D01*
X186001586Y-92263230D02*
X186049288Y-92310932D01*
X186049288Y-92310932D02*
X186192394Y-92406336D01*
X186192394Y-92406336D02*
X186383202Y-92454038D01*
X186383202Y-92454038D02*
X186764817Y-92454038D01*
X186764817Y-92454038D02*
X186860221Y-92406336D01*
X186860221Y-92406336D02*
X186907923Y-92358634D01*
X186907923Y-92358634D02*
X186955624Y-92263230D01*
X186955624Y-92263230D02*
X186955624Y-92072423D01*
X186955624Y-92072423D02*
X186907923Y-91977019D01*
X186907923Y-91977019D02*
X186860221Y-91929317D01*
X186860221Y-91929317D02*
X186764817Y-91881615D01*
X186764817Y-91881615D02*
X186526307Y-91881615D01*
X186526307Y-91881615D02*
X186430903Y-91929317D01*
X186430903Y-91929317D02*
X186383202Y-91977019D01*
X186383202Y-91977019D02*
X186335500Y-92072423D01*
X186335500Y-92072423D02*
X186335500Y-92263230D01*
X186335500Y-92263230D02*
X186383202Y-92358634D01*
X186383202Y-92358634D02*
X186430903Y-92406336D01*
X186430903Y-92406336D02*
X186526307Y-92454038D01*
X185953884Y-91261490D02*
X185953884Y-91166087D01*
X185953884Y-91166087D02*
X186001586Y-91070683D01*
X186001586Y-91070683D02*
X186049288Y-91022981D01*
X186049288Y-91022981D02*
X186144692Y-90975279D01*
X186144692Y-90975279D02*
X186335500Y-90927577D01*
X186335500Y-90927577D02*
X186574009Y-90927577D01*
X186574009Y-90927577D02*
X186764817Y-90975279D01*
X186764817Y-90975279D02*
X186860221Y-91022981D01*
X186860221Y-91022981D02*
X186907923Y-91070683D01*
X186907923Y-91070683D02*
X186955624Y-91166087D01*
X186955624Y-91166087D02*
X186955624Y-91261490D01*
X186955624Y-91261490D02*
X186907923Y-91356894D01*
X186907923Y-91356894D02*
X186860221Y-91404596D01*
X186860221Y-91404596D02*
X186764817Y-91452298D01*
X186764817Y-91452298D02*
X186574009Y-91500000D01*
X186574009Y-91500000D02*
X186335500Y-91500000D01*
X186335500Y-91500000D02*
X186144692Y-91452298D01*
X186144692Y-91452298D02*
X186049288Y-91404596D01*
X186049288Y-91404596D02*
X186001586Y-91356894D01*
X186001586Y-91356894D02*
X185953884Y-91261490D01*
X186574009Y-90498260D02*
X186574009Y-89735030D01*
X186049288Y-89305712D02*
X186001586Y-89258010D01*
X186001586Y-89258010D02*
X185953884Y-89162606D01*
X185953884Y-89162606D02*
X185953884Y-88924097D01*
X185953884Y-88924097D02*
X186001586Y-88828693D01*
X186001586Y-88828693D02*
X186049288Y-88780991D01*
X186049288Y-88780991D02*
X186144692Y-88733289D01*
X186144692Y-88733289D02*
X186240096Y-88733289D01*
X186240096Y-88733289D02*
X186383202Y-88780991D01*
X186383202Y-88780991D02*
X186955624Y-89353414D01*
X186955624Y-89353414D02*
X186955624Y-88733289D01*
X186049288Y-88351674D02*
X186001586Y-88303972D01*
X186001586Y-88303972D02*
X185953884Y-88208568D01*
X185953884Y-88208568D02*
X185953884Y-87970059D01*
X185953884Y-87970059D02*
X186001586Y-87874655D01*
X186001586Y-87874655D02*
X186049288Y-87826953D01*
X186049288Y-87826953D02*
X186144692Y-87779251D01*
X186144692Y-87779251D02*
X186240096Y-87779251D01*
X186240096Y-87779251D02*
X186383202Y-87826953D01*
X186383202Y-87826953D02*
X186955624Y-88399376D01*
X186955624Y-88399376D02*
X186955624Y-87779251D01*
X185953884Y-87159126D02*
X185953884Y-87063723D01*
X185953884Y-87063723D02*
X186001586Y-86968319D01*
X186001586Y-86968319D02*
X186049288Y-86920617D01*
X186049288Y-86920617D02*
X186144692Y-86872915D01*
X186144692Y-86872915D02*
X186335500Y-86825213D01*
X186335500Y-86825213D02*
X186574009Y-86825213D01*
X186574009Y-86825213D02*
X186764817Y-86872915D01*
X186764817Y-86872915D02*
X186860221Y-86920617D01*
X186860221Y-86920617D02*
X186907923Y-86968319D01*
X186907923Y-86968319D02*
X186955624Y-87063723D01*
X186955624Y-87063723D02*
X186955624Y-87159126D01*
X186955624Y-87159126D02*
X186907923Y-87254530D01*
X186907923Y-87254530D02*
X186860221Y-87302232D01*
X186860221Y-87302232D02*
X186764817Y-87349934D01*
X186764817Y-87349934D02*
X186574009Y-87397636D01*
X186574009Y-87397636D02*
X186335500Y-87397636D01*
X186335500Y-87397636D02*
X186144692Y-87349934D01*
X186144692Y-87349934D02*
X186049288Y-87302232D01*
X186049288Y-87302232D02*
X186001586Y-87254530D01*
X186001586Y-87254530D02*
X185953884Y-87159126D01*
X186955624Y-86395896D02*
X185953884Y-86395896D01*
X185953884Y-86395896D02*
X186669413Y-86061983D01*
X186669413Y-86061983D02*
X185953884Y-85728069D01*
X185953884Y-85728069D02*
X186955624Y-85728069D01*
X151342142Y-90954819D02*
X151008809Y-90478628D01*
X150770714Y-90954819D02*
X150770714Y-89954819D01*
X150770714Y-89954819D02*
X151151666Y-89954819D01*
X151151666Y-89954819D02*
X151246904Y-90002438D01*
X151246904Y-90002438D02*
X151294523Y-90050057D01*
X151294523Y-90050057D02*
X151342142Y-90145295D01*
X151342142Y-90145295D02*
X151342142Y-90288152D01*
X151342142Y-90288152D02*
X151294523Y-90383390D01*
X151294523Y-90383390D02*
X151246904Y-90431009D01*
X151246904Y-90431009D02*
X151151666Y-90478628D01*
X151151666Y-90478628D02*
X150770714Y-90478628D01*
X151770714Y-90431009D02*
X152104047Y-90431009D01*
X152246904Y-90954819D02*
X151770714Y-90954819D01*
X151770714Y-90954819D02*
X151770714Y-89954819D01*
X151770714Y-89954819D02*
X152246904Y-89954819D01*
X152675476Y-90954819D02*
X152675476Y-89954819D01*
X152675476Y-89954819D02*
X152913571Y-89954819D01*
X152913571Y-89954819D02*
X153056428Y-90002438D01*
X153056428Y-90002438D02*
X153151666Y-90097676D01*
X153151666Y-90097676D02*
X153199285Y-90192914D01*
X153199285Y-90192914D02*
X153246904Y-90383390D01*
X153246904Y-90383390D02*
X153246904Y-90526247D01*
X153246904Y-90526247D02*
X153199285Y-90716723D01*
X153199285Y-90716723D02*
X153151666Y-90811961D01*
X153151666Y-90811961D02*
X153056428Y-90907200D01*
X153056428Y-90907200D02*
X152913571Y-90954819D01*
X152913571Y-90954819D02*
X152675476Y-90954819D01*
D12*
X154315476Y-90613574D02*
X154315476Y-90363574D01*
X154315476Y-90363574D02*
X154375000Y-90363574D01*
X154375000Y-90363574D02*
X154410714Y-90375479D01*
X154410714Y-90375479D02*
X154434524Y-90399289D01*
X154434524Y-90399289D02*
X154446429Y-90423098D01*
X154446429Y-90423098D02*
X154458333Y-90470717D01*
X154458333Y-90470717D02*
X154458333Y-90506431D01*
X154458333Y-90506431D02*
X154446429Y-90554050D01*
X154446429Y-90554050D02*
X154434524Y-90577860D01*
X154434524Y-90577860D02*
X154410714Y-90601670D01*
X154410714Y-90601670D02*
X154375000Y-90613574D01*
X154375000Y-90613574D02*
X154315476Y-90613574D01*
X154541667Y-90363574D02*
X154696429Y-90363574D01*
X154696429Y-90363574D02*
X154613095Y-90458812D01*
X154613095Y-90458812D02*
X154648810Y-90458812D01*
X154648810Y-90458812D02*
X154672619Y-90470717D01*
X154672619Y-90470717D02*
X154684524Y-90482622D01*
X154684524Y-90482622D02*
X154696429Y-90506431D01*
X154696429Y-90506431D02*
X154696429Y-90565955D01*
X154696429Y-90565955D02*
X154684524Y-90589765D01*
X154684524Y-90589765D02*
X154672619Y-90601670D01*
X154672619Y-90601670D02*
X154648810Y-90613574D01*
X154648810Y-90613574D02*
X154577381Y-90613574D01*
X154577381Y-90613574D02*
X154553572Y-90601670D01*
X154553572Y-90601670D02*
X154541667Y-90589765D01*
D10*
X156999998Y-102454819D02*
X156523808Y-102454819D01*
X156523808Y-102454819D02*
X156523808Y-101454819D01*
X157095237Y-102550057D02*
X157857141Y-102550057D01*
X158428570Y-101931009D02*
X158095237Y-101931009D01*
X158095237Y-102454819D02*
X158095237Y-101454819D01*
X158095237Y-101454819D02*
X158571427Y-101454819D01*
X159333332Y-102407200D02*
X159238094Y-102454819D01*
X159238094Y-102454819D02*
X159047618Y-102454819D01*
X159047618Y-102454819D02*
X158952380Y-102407200D01*
X158952380Y-102407200D02*
X158904761Y-102311961D01*
X158904761Y-102311961D02*
X158904761Y-101931009D01*
X158904761Y-101931009D02*
X158952380Y-101835771D01*
X158952380Y-101835771D02*
X159047618Y-101788152D01*
X159047618Y-101788152D02*
X159238094Y-101788152D01*
X159238094Y-101788152D02*
X159333332Y-101835771D01*
X159333332Y-101835771D02*
X159380951Y-101931009D01*
X159380951Y-101931009D02*
X159380951Y-102026247D01*
X159380951Y-102026247D02*
X158904761Y-102121485D01*
X159809523Y-102454819D02*
X159809523Y-101788152D01*
X159809523Y-101978628D02*
X159857142Y-101883390D01*
X159857142Y-101883390D02*
X159904761Y-101835771D01*
X159904761Y-101835771D02*
X159999999Y-101788152D01*
X159999999Y-101788152D02*
X160095237Y-101788152D01*
X160428571Y-102454819D02*
X160428571Y-101788152D01*
X160428571Y-101978628D02*
X160476190Y-101883390D01*
X160476190Y-101883390D02*
X160523809Y-101835771D01*
X160523809Y-101835771D02*
X160619047Y-101788152D01*
X160619047Y-101788152D02*
X160714285Y-101788152D01*
X161047619Y-102454819D02*
X161047619Y-101788152D01*
X161047619Y-101454819D02*
X161000000Y-101502438D01*
X161000000Y-101502438D02*
X161047619Y-101550057D01*
X161047619Y-101550057D02*
X161095238Y-101502438D01*
X161095238Y-101502438D02*
X161047619Y-101454819D01*
X161047619Y-101454819D02*
X161047619Y-101550057D01*
X161380952Y-101788152D02*
X161761904Y-101788152D01*
X161523809Y-101454819D02*
X161523809Y-102311961D01*
X161523809Y-102311961D02*
X161571428Y-102407200D01*
X161571428Y-102407200D02*
X161666666Y-102454819D01*
X161666666Y-102454819D02*
X161761904Y-102454819D01*
X162476190Y-102407200D02*
X162380952Y-102454819D01*
X162380952Y-102454819D02*
X162190476Y-102454819D01*
X162190476Y-102454819D02*
X162095238Y-102407200D01*
X162095238Y-102407200D02*
X162047619Y-102311961D01*
X162047619Y-102311961D02*
X162047619Y-101931009D01*
X162047619Y-101931009D02*
X162095238Y-101835771D01*
X162095238Y-101835771D02*
X162190476Y-101788152D01*
X162190476Y-101788152D02*
X162380952Y-101788152D01*
X162380952Y-101788152D02*
X162476190Y-101835771D01*
X162476190Y-101835771D02*
X162523809Y-101931009D01*
X162523809Y-101931009D02*
X162523809Y-102026247D01*
X162523809Y-102026247D02*
X162047619Y-102121485D01*
X162714286Y-102550057D02*
X163476190Y-102550057D01*
X163666667Y-102407200D02*
X163809524Y-102454819D01*
X163809524Y-102454819D02*
X164047619Y-102454819D01*
X164047619Y-102454819D02*
X164142857Y-102407200D01*
X164142857Y-102407200D02*
X164190476Y-102359580D01*
X164190476Y-102359580D02*
X164238095Y-102264342D01*
X164238095Y-102264342D02*
X164238095Y-102169104D01*
X164238095Y-102169104D02*
X164190476Y-102073866D01*
X164190476Y-102073866D02*
X164142857Y-102026247D01*
X164142857Y-102026247D02*
X164047619Y-101978628D01*
X164047619Y-101978628D02*
X163857143Y-101931009D01*
X163857143Y-101931009D02*
X163761905Y-101883390D01*
X163761905Y-101883390D02*
X163714286Y-101835771D01*
X163714286Y-101835771D02*
X163666667Y-101740533D01*
X163666667Y-101740533D02*
X163666667Y-101645295D01*
X163666667Y-101645295D02*
X163714286Y-101550057D01*
X163714286Y-101550057D02*
X163761905Y-101502438D01*
X163761905Y-101502438D02*
X163857143Y-101454819D01*
X163857143Y-101454819D02*
X164095238Y-101454819D01*
X164095238Y-101454819D02*
X164238095Y-101502438D01*
X164666667Y-102454819D02*
X164666667Y-101788152D01*
X164666667Y-101883390D02*
X164714286Y-101835771D01*
X164714286Y-101835771D02*
X164809524Y-101788152D01*
X164809524Y-101788152D02*
X164952381Y-101788152D01*
X164952381Y-101788152D02*
X165047619Y-101835771D01*
X165047619Y-101835771D02*
X165095238Y-101931009D01*
X165095238Y-101931009D02*
X165095238Y-102454819D01*
X165095238Y-101931009D02*
X165142857Y-101835771D01*
X165142857Y-101835771D02*
X165238095Y-101788152D01*
X165238095Y-101788152D02*
X165380952Y-101788152D01*
X165380952Y-101788152D02*
X165476191Y-101835771D01*
X165476191Y-101835771D02*
X165523810Y-101931009D01*
X165523810Y-101931009D02*
X165523810Y-102454819D01*
X166428571Y-102454819D02*
X166428571Y-101931009D01*
X166428571Y-101931009D02*
X166380952Y-101835771D01*
X166380952Y-101835771D02*
X166285714Y-101788152D01*
X166285714Y-101788152D02*
X166095238Y-101788152D01*
X166095238Y-101788152D02*
X166000000Y-101835771D01*
X166428571Y-102407200D02*
X166333333Y-102454819D01*
X166333333Y-102454819D02*
X166095238Y-102454819D01*
X166095238Y-102454819D02*
X166000000Y-102407200D01*
X166000000Y-102407200D02*
X165952381Y-102311961D01*
X165952381Y-102311961D02*
X165952381Y-102216723D01*
X165952381Y-102216723D02*
X166000000Y-102121485D01*
X166000000Y-102121485D02*
X166095238Y-102073866D01*
X166095238Y-102073866D02*
X166333333Y-102073866D01*
X166333333Y-102073866D02*
X166428571Y-102026247D01*
X167047619Y-102454819D02*
X166952381Y-102407200D01*
X166952381Y-102407200D02*
X166904762Y-102311961D01*
X166904762Y-102311961D02*
X166904762Y-101454819D01*
X167571429Y-102454819D02*
X167476191Y-102407200D01*
X167476191Y-102407200D02*
X167428572Y-102311961D01*
X167428572Y-102311961D02*
X167428572Y-101454819D01*
D11*
X161145833Y-101181927D02*
X160955357Y-101181927D01*
X160955357Y-101181927D02*
X160955357Y-100781927D01*
X161260119Y-100820022D02*
X161279167Y-100800975D01*
X161279167Y-100800975D02*
X161317262Y-100781927D01*
X161317262Y-100781927D02*
X161412500Y-100781927D01*
X161412500Y-100781927D02*
X161450595Y-100800975D01*
X161450595Y-100800975D02*
X161469643Y-100820022D01*
X161469643Y-100820022D02*
X161488690Y-100858118D01*
X161488690Y-100858118D02*
X161488690Y-100896213D01*
X161488690Y-100896213D02*
X161469643Y-100953356D01*
X161469643Y-100953356D02*
X161241071Y-101181927D01*
X161241071Y-101181927D02*
X161488690Y-101181927D01*
D10*
X168150475Y-110359580D02*
X168102856Y-110407200D01*
X168102856Y-110407200D02*
X167959999Y-110454819D01*
X167959999Y-110454819D02*
X167864761Y-110454819D01*
X167864761Y-110454819D02*
X167721904Y-110407200D01*
X167721904Y-110407200D02*
X167626666Y-110311961D01*
X167626666Y-110311961D02*
X167579047Y-110216723D01*
X167579047Y-110216723D02*
X167531428Y-110026247D01*
X167531428Y-110026247D02*
X167531428Y-109883390D01*
X167531428Y-109883390D02*
X167579047Y-109692914D01*
X167579047Y-109692914D02*
X167626666Y-109597676D01*
X167626666Y-109597676D02*
X167721904Y-109502438D01*
X167721904Y-109502438D02*
X167864761Y-109454819D01*
X167864761Y-109454819D02*
X167959999Y-109454819D01*
X167959999Y-109454819D02*
X168102856Y-109502438D01*
X168102856Y-109502438D02*
X168150475Y-109550057D01*
X168721904Y-110454819D02*
X168626666Y-110407200D01*
X168626666Y-110407200D02*
X168579047Y-110359580D01*
X168579047Y-110359580D02*
X168531428Y-110264342D01*
X168531428Y-110264342D02*
X168531428Y-109978628D01*
X168531428Y-109978628D02*
X168579047Y-109883390D01*
X168579047Y-109883390D02*
X168626666Y-109835771D01*
X168626666Y-109835771D02*
X168721904Y-109788152D01*
X168721904Y-109788152D02*
X168864761Y-109788152D01*
X168864761Y-109788152D02*
X168959999Y-109835771D01*
X168959999Y-109835771D02*
X169007618Y-109883390D01*
X169007618Y-109883390D02*
X169055237Y-109978628D01*
X169055237Y-109978628D02*
X169055237Y-110264342D01*
X169055237Y-110264342D02*
X169007618Y-110359580D01*
X169007618Y-110359580D02*
X168959999Y-110407200D01*
X168959999Y-110407200D02*
X168864761Y-110454819D01*
X168864761Y-110454819D02*
X168721904Y-110454819D01*
X169483809Y-109788152D02*
X169483809Y-110454819D01*
X169483809Y-109883390D02*
X169531428Y-109835771D01*
X169531428Y-109835771D02*
X169626666Y-109788152D01*
X169626666Y-109788152D02*
X169769523Y-109788152D01*
X169769523Y-109788152D02*
X169864761Y-109835771D01*
X169864761Y-109835771D02*
X169912380Y-109931009D01*
X169912380Y-109931009D02*
X169912380Y-110454819D01*
X170388571Y-109788152D02*
X170388571Y-110454819D01*
X170388571Y-109883390D02*
X170436190Y-109835771D01*
X170436190Y-109835771D02*
X170531428Y-109788152D01*
X170531428Y-109788152D02*
X170674285Y-109788152D01*
X170674285Y-109788152D02*
X170769523Y-109835771D01*
X170769523Y-109835771D02*
X170817142Y-109931009D01*
X170817142Y-109931009D02*
X170817142Y-110454819D01*
X171055238Y-110550057D02*
X171817142Y-110550057D01*
X172245714Y-109454819D02*
X172340952Y-109454819D01*
X172340952Y-109454819D02*
X172436190Y-109502438D01*
X172436190Y-109502438D02*
X172483809Y-109550057D01*
X172483809Y-109550057D02*
X172531428Y-109645295D01*
X172531428Y-109645295D02*
X172579047Y-109835771D01*
X172579047Y-109835771D02*
X172579047Y-110073866D01*
X172579047Y-110073866D02*
X172531428Y-110264342D01*
X172531428Y-110264342D02*
X172483809Y-110359580D01*
X172483809Y-110359580D02*
X172436190Y-110407200D01*
X172436190Y-110407200D02*
X172340952Y-110454819D01*
X172340952Y-110454819D02*
X172245714Y-110454819D01*
X172245714Y-110454819D02*
X172150476Y-110407200D01*
X172150476Y-110407200D02*
X172102857Y-110359580D01*
X172102857Y-110359580D02*
X172055238Y-110264342D01*
X172055238Y-110264342D02*
X172007619Y-110073866D01*
X172007619Y-110073866D02*
X172007619Y-109835771D01*
X172007619Y-109835771D02*
X172055238Y-109645295D01*
X172055238Y-109645295D02*
X172102857Y-109550057D01*
X172102857Y-109550057D02*
X172150476Y-109502438D01*
X172150476Y-109502438D02*
X172245714Y-109454819D01*
X173531428Y-110454819D02*
X172960000Y-110454819D01*
X173245714Y-110454819D02*
X173245714Y-109454819D01*
X173245714Y-109454819D02*
X173150476Y-109597676D01*
X173150476Y-109597676D02*
X173055238Y-109692914D01*
X173055238Y-109692914D02*
X172960000Y-109740533D01*
X173864762Y-110454819D02*
X174388571Y-109788152D01*
X173864762Y-109788152D02*
X174388571Y-110454819D01*
X174960000Y-109454819D02*
X175055238Y-109454819D01*
X175055238Y-109454819D02*
X175150476Y-109502438D01*
X175150476Y-109502438D02*
X175198095Y-109550057D01*
X175198095Y-109550057D02*
X175245714Y-109645295D01*
X175245714Y-109645295D02*
X175293333Y-109835771D01*
X175293333Y-109835771D02*
X175293333Y-110073866D01*
X175293333Y-110073866D02*
X175245714Y-110264342D01*
X175245714Y-110264342D02*
X175198095Y-110359580D01*
X175198095Y-110359580D02*
X175150476Y-110407200D01*
X175150476Y-110407200D02*
X175055238Y-110454819D01*
X175055238Y-110454819D02*
X174960000Y-110454819D01*
X174960000Y-110454819D02*
X174864762Y-110407200D01*
X174864762Y-110407200D02*
X174817143Y-110359580D01*
X174817143Y-110359580D02*
X174769524Y-110264342D01*
X174769524Y-110264342D02*
X174721905Y-110073866D01*
X174721905Y-110073866D02*
X174721905Y-109835771D01*
X174721905Y-109835771D02*
X174769524Y-109645295D01*
X174769524Y-109645295D02*
X174817143Y-109550057D01*
X174817143Y-109550057D02*
X174864762Y-109502438D01*
X174864762Y-109502438D02*
X174960000Y-109454819D01*
X175626667Y-109454819D02*
X176245714Y-109454819D01*
X176245714Y-109454819D02*
X175912381Y-109835771D01*
X175912381Y-109835771D02*
X176055238Y-109835771D01*
X176055238Y-109835771D02*
X176150476Y-109883390D01*
X176150476Y-109883390D02*
X176198095Y-109931009D01*
X176198095Y-109931009D02*
X176245714Y-110026247D01*
X176245714Y-110026247D02*
X176245714Y-110264342D01*
X176245714Y-110264342D02*
X176198095Y-110359580D01*
X176198095Y-110359580D02*
X176150476Y-110407200D01*
X176150476Y-110407200D02*
X176055238Y-110454819D01*
X176055238Y-110454819D02*
X175769524Y-110454819D01*
X175769524Y-110454819D02*
X175674286Y-110407200D01*
X175674286Y-110407200D02*
X175626667Y-110359580D01*
X176436191Y-110550057D02*
X177198095Y-110550057D01*
X177436191Y-110454819D02*
X177436191Y-109454819D01*
X177436191Y-109454819D02*
X177817143Y-109454819D01*
X177817143Y-109454819D02*
X177912381Y-109502438D01*
X177912381Y-109502438D02*
X177960000Y-109550057D01*
X177960000Y-109550057D02*
X178007619Y-109645295D01*
X178007619Y-109645295D02*
X178007619Y-109788152D01*
X178007619Y-109788152D02*
X177960000Y-109883390D01*
X177960000Y-109883390D02*
X177912381Y-109931009D01*
X177912381Y-109931009D02*
X177817143Y-109978628D01*
X177817143Y-109978628D02*
X177436191Y-109978628D01*
X178436191Y-110454819D02*
X178436191Y-109788152D01*
X178436191Y-109454819D02*
X178388572Y-109502438D01*
X178388572Y-109502438D02*
X178436191Y-109550057D01*
X178436191Y-109550057D02*
X178483810Y-109502438D01*
X178483810Y-109502438D02*
X178436191Y-109454819D01*
X178436191Y-109454819D02*
X178436191Y-109550057D01*
X178912381Y-109788152D02*
X178912381Y-110454819D01*
X178912381Y-109883390D02*
X178960000Y-109835771D01*
X178960000Y-109835771D02*
X179055238Y-109788152D01*
X179055238Y-109788152D02*
X179198095Y-109788152D01*
X179198095Y-109788152D02*
X179293333Y-109835771D01*
X179293333Y-109835771D02*
X179340952Y-109931009D01*
X179340952Y-109931009D02*
X179340952Y-110454819D01*
X172626666Y-106704819D02*
X172626666Y-107419104D01*
X172626666Y-107419104D02*
X172579047Y-107561961D01*
X172579047Y-107561961D02*
X172483809Y-107657200D01*
X172483809Y-107657200D02*
X172340952Y-107704819D01*
X172340952Y-107704819D02*
X172245714Y-107704819D01*
X173007619Y-106704819D02*
X173626666Y-106704819D01*
X173626666Y-106704819D02*
X173293333Y-107085771D01*
X173293333Y-107085771D02*
X173436190Y-107085771D01*
X173436190Y-107085771D02*
X173531428Y-107133390D01*
X173531428Y-107133390D02*
X173579047Y-107181009D01*
X173579047Y-107181009D02*
X173626666Y-107276247D01*
X173626666Y-107276247D02*
X173626666Y-107514342D01*
X173626666Y-107514342D02*
X173579047Y-107609580D01*
X173579047Y-107609580D02*
X173531428Y-107657200D01*
X173531428Y-107657200D02*
X173436190Y-107704819D01*
X173436190Y-107704819D02*
X173150476Y-107704819D01*
X173150476Y-107704819D02*
X173055238Y-107657200D01*
X173055238Y-107657200D02*
X173007619Y-107609580D01*
X133808333Y-104384819D02*
X133236905Y-104384819D01*
X133522619Y-104384819D02*
X133522619Y-103384819D01*
X133522619Y-103384819D02*
X133427381Y-103527676D01*
X133427381Y-103527676D02*
X133332143Y-103622914D01*
X133332143Y-103622914D02*
X133236905Y-103670533D01*
X134236905Y-103718152D02*
X134236905Y-104384819D01*
X134236905Y-103813390D02*
X134284524Y-103765771D01*
X134284524Y-103765771D02*
X134379762Y-103718152D01*
X134379762Y-103718152D02*
X134522619Y-103718152D01*
X134522619Y-103718152D02*
X134617857Y-103765771D01*
X134617857Y-103765771D02*
X134665476Y-103861009D01*
X134665476Y-103861009D02*
X134665476Y-104384819D01*
D11*
X133908333Y-102643832D02*
X133889285Y-102662880D01*
X133889285Y-102662880D02*
X133832143Y-102681927D01*
X133832143Y-102681927D02*
X133794047Y-102681927D01*
X133794047Y-102681927D02*
X133736904Y-102662880D01*
X133736904Y-102662880D02*
X133698809Y-102624784D01*
X133698809Y-102624784D02*
X133679762Y-102586689D01*
X133679762Y-102586689D02*
X133660714Y-102510499D01*
X133660714Y-102510499D02*
X133660714Y-102453356D01*
X133660714Y-102453356D02*
X133679762Y-102377165D01*
X133679762Y-102377165D02*
X133698809Y-102339070D01*
X133698809Y-102339070D02*
X133736904Y-102300975D01*
X133736904Y-102300975D02*
X133794047Y-102281927D01*
X133794047Y-102281927D02*
X133832143Y-102281927D01*
X133832143Y-102281927D02*
X133889285Y-102300975D01*
X133889285Y-102300975D02*
X133908333Y-102320022D01*
X134041666Y-102281927D02*
X134308333Y-102281927D01*
X134308333Y-102281927D02*
X134136904Y-102681927D01*
D10*
X151144524Y-92221819D02*
X151715952Y-92221819D01*
X151430238Y-93221819D02*
X151430238Y-92221819D01*
X152049286Y-93221819D02*
X152049286Y-92221819D01*
X152049286Y-92221819D02*
X152430238Y-92221819D01*
X152430238Y-92221819D02*
X152525476Y-92269438D01*
X152525476Y-92269438D02*
X152573095Y-92317057D01*
X152573095Y-92317057D02*
X152620714Y-92412295D01*
X152620714Y-92412295D02*
X152620714Y-92555152D01*
X152620714Y-92555152D02*
X152573095Y-92650390D01*
X152573095Y-92650390D02*
X152525476Y-92698009D01*
X152525476Y-92698009D02*
X152430238Y-92745628D01*
X152430238Y-92745628D02*
X152049286Y-92745628D01*
X153477857Y-92555152D02*
X153477857Y-93221819D01*
X153239762Y-92174200D02*
X153001667Y-92888485D01*
X153001667Y-92888485D02*
X153620714Y-92888485D01*
X154192143Y-92221819D02*
X154287381Y-92221819D01*
X154287381Y-92221819D02*
X154382619Y-92269438D01*
X154382619Y-92269438D02*
X154430238Y-92317057D01*
X154430238Y-92317057D02*
X154477857Y-92412295D01*
X154477857Y-92412295D02*
X154525476Y-92602771D01*
X154525476Y-92602771D02*
X154525476Y-92840866D01*
X154525476Y-92840866D02*
X154477857Y-93031342D01*
X154477857Y-93031342D02*
X154430238Y-93126580D01*
X154430238Y-93126580D02*
X154382619Y-93174200D01*
X154382619Y-93174200D02*
X154287381Y-93221819D01*
X154287381Y-93221819D02*
X154192143Y-93221819D01*
X154192143Y-93221819D02*
X154096905Y-93174200D01*
X154096905Y-93174200D02*
X154049286Y-93126580D01*
X154049286Y-93126580D02*
X154001667Y-93031342D01*
X154001667Y-93031342D02*
X153954048Y-92840866D01*
X153954048Y-92840866D02*
X153954048Y-92602771D01*
X153954048Y-92602771D02*
X154001667Y-92412295D01*
X154001667Y-92412295D02*
X154049286Y-92317057D01*
X154049286Y-92317057D02*
X154096905Y-92269438D01*
X154096905Y-92269438D02*
X154192143Y-92221819D01*
X155430238Y-92221819D02*
X154954048Y-92221819D01*
X154954048Y-92221819D02*
X154906429Y-92698009D01*
X154906429Y-92698009D02*
X154954048Y-92650390D01*
X154954048Y-92650390D02*
X155049286Y-92602771D01*
X155049286Y-92602771D02*
X155287381Y-92602771D01*
X155287381Y-92602771D02*
X155382619Y-92650390D01*
X155382619Y-92650390D02*
X155430238Y-92698009D01*
X155430238Y-92698009D02*
X155477857Y-92793247D01*
X155477857Y-92793247D02*
X155477857Y-93031342D01*
X155477857Y-93031342D02*
X155430238Y-93126580D01*
X155430238Y-93126580D02*
X155382619Y-93174200D01*
X155382619Y-93174200D02*
X155287381Y-93221819D01*
X155287381Y-93221819D02*
X155049286Y-93221819D01*
X155049286Y-93221819D02*
X154954048Y-93174200D01*
X154954048Y-93174200D02*
X154906429Y-93126580D01*
X156335000Y-92221819D02*
X156144524Y-92221819D01*
X156144524Y-92221819D02*
X156049286Y-92269438D01*
X156049286Y-92269438D02*
X156001667Y-92317057D01*
X156001667Y-92317057D02*
X155906429Y-92459914D01*
X155906429Y-92459914D02*
X155858810Y-92650390D01*
X155858810Y-92650390D02*
X155858810Y-93031342D01*
X155858810Y-93031342D02*
X155906429Y-93126580D01*
X155906429Y-93126580D02*
X155954048Y-93174200D01*
X155954048Y-93174200D02*
X156049286Y-93221819D01*
X156049286Y-93221819D02*
X156239762Y-93221819D01*
X156239762Y-93221819D02*
X156335000Y-93174200D01*
X156335000Y-93174200D02*
X156382619Y-93126580D01*
X156382619Y-93126580D02*
X156430238Y-93031342D01*
X156430238Y-93031342D02*
X156430238Y-92793247D01*
X156430238Y-92793247D02*
X156382619Y-92698009D01*
X156382619Y-92698009D02*
X156335000Y-92650390D01*
X156335000Y-92650390D02*
X156239762Y-92602771D01*
X156239762Y-92602771D02*
X156049286Y-92602771D01*
X156049286Y-92602771D02*
X155954048Y-92650390D01*
X155954048Y-92650390D02*
X155906429Y-92698009D01*
X155906429Y-92698009D02*
X155858810Y-92793247D01*
X136884819Y-94190476D02*
X136884819Y-94761904D01*
X136884819Y-94476190D02*
X135884819Y-94476190D01*
X135884819Y-94476190D02*
X136027676Y-94571428D01*
X136027676Y-94571428D02*
X136122914Y-94666666D01*
X136122914Y-94666666D02*
X136170533Y-94761904D01*
X135884819Y-93571428D02*
X135884819Y-93476190D01*
X135884819Y-93476190D02*
X135932438Y-93380952D01*
X135932438Y-93380952D02*
X135980057Y-93333333D01*
X135980057Y-93333333D02*
X136075295Y-93285714D01*
X136075295Y-93285714D02*
X136265771Y-93238095D01*
X136265771Y-93238095D02*
X136503866Y-93238095D01*
X136503866Y-93238095D02*
X136694342Y-93285714D01*
X136694342Y-93285714D02*
X136789580Y-93333333D01*
X136789580Y-93333333D02*
X136837200Y-93380952D01*
X136837200Y-93380952D02*
X136884819Y-93476190D01*
X136884819Y-93476190D02*
X136884819Y-93571428D01*
X136884819Y-93571428D02*
X136837200Y-93666666D01*
X136837200Y-93666666D02*
X136789580Y-93714285D01*
X136789580Y-93714285D02*
X136694342Y-93761904D01*
X136694342Y-93761904D02*
X136503866Y-93809523D01*
X136503866Y-93809523D02*
X136265771Y-93809523D01*
X136265771Y-93809523D02*
X136075295Y-93761904D01*
X136075295Y-93761904D02*
X135980057Y-93714285D01*
X135980057Y-93714285D02*
X135932438Y-93666666D01*
X135932438Y-93666666D02*
X135884819Y-93571428D01*
X136884819Y-92809523D02*
X135884819Y-92809523D01*
X136884819Y-92238095D02*
X136313390Y-92666666D01*
X135884819Y-92238095D02*
X136456247Y-92809523D01*
D12*
X137718200Y-93543332D02*
X137594391Y-93629999D01*
X137718200Y-93691904D02*
X137458200Y-93691904D01*
X137458200Y-93691904D02*
X137458200Y-93592856D01*
X137458200Y-93592856D02*
X137470581Y-93568094D01*
X137470581Y-93568094D02*
X137482962Y-93555713D01*
X137482962Y-93555713D02*
X137507724Y-93543332D01*
X137507724Y-93543332D02*
X137544867Y-93543332D01*
X137544867Y-93543332D02*
X137569629Y-93555713D01*
X137569629Y-93555713D02*
X137582010Y-93568094D01*
X137582010Y-93568094D02*
X137594391Y-93592856D01*
X137594391Y-93592856D02*
X137594391Y-93691904D01*
X137569629Y-93394761D02*
X137557248Y-93419523D01*
X137557248Y-93419523D02*
X137544867Y-93431904D01*
X137544867Y-93431904D02*
X137520105Y-93444285D01*
X137520105Y-93444285D02*
X137507724Y-93444285D01*
X137507724Y-93444285D02*
X137482962Y-93431904D01*
X137482962Y-93431904D02*
X137470581Y-93419523D01*
X137470581Y-93419523D02*
X137458200Y-93394761D01*
X137458200Y-93394761D02*
X137458200Y-93345237D01*
X137458200Y-93345237D02*
X137470581Y-93320475D01*
X137470581Y-93320475D02*
X137482962Y-93308094D01*
X137482962Y-93308094D02*
X137507724Y-93295713D01*
X137507724Y-93295713D02*
X137520105Y-93295713D01*
X137520105Y-93295713D02*
X137544867Y-93308094D01*
X137544867Y-93308094D02*
X137557248Y-93320475D01*
X137557248Y-93320475D02*
X137569629Y-93345237D01*
X137569629Y-93345237D02*
X137569629Y-93394761D01*
X137569629Y-93394761D02*
X137582010Y-93419523D01*
X137582010Y-93419523D02*
X137594391Y-93431904D01*
X137594391Y-93431904D02*
X137619153Y-93444285D01*
X137619153Y-93444285D02*
X137668677Y-93444285D01*
X137668677Y-93444285D02*
X137693439Y-93431904D01*
X137693439Y-93431904D02*
X137705820Y-93419523D01*
X137705820Y-93419523D02*
X137718200Y-93394761D01*
X137718200Y-93394761D02*
X137718200Y-93345237D01*
X137718200Y-93345237D02*
X137705820Y-93320475D01*
X137705820Y-93320475D02*
X137693439Y-93308094D01*
X137693439Y-93308094D02*
X137668677Y-93295713D01*
X137668677Y-93295713D02*
X137619153Y-93295713D01*
X137619153Y-93295713D02*
X137594391Y-93308094D01*
X137594391Y-93308094D02*
X137582010Y-93320475D01*
X137582010Y-93320475D02*
X137569629Y-93345237D01*
D10*
X128190475Y-110609580D02*
X128142856Y-110657200D01*
X128142856Y-110657200D02*
X127999999Y-110704819D01*
X127999999Y-110704819D02*
X127904761Y-110704819D01*
X127904761Y-110704819D02*
X127761904Y-110657200D01*
X127761904Y-110657200D02*
X127666666Y-110561961D01*
X127666666Y-110561961D02*
X127619047Y-110466723D01*
X127619047Y-110466723D02*
X127571428Y-110276247D01*
X127571428Y-110276247D02*
X127571428Y-110133390D01*
X127571428Y-110133390D02*
X127619047Y-109942914D01*
X127619047Y-109942914D02*
X127666666Y-109847676D01*
X127666666Y-109847676D02*
X127761904Y-109752438D01*
X127761904Y-109752438D02*
X127904761Y-109704819D01*
X127904761Y-109704819D02*
X127999999Y-109704819D01*
X127999999Y-109704819D02*
X128142856Y-109752438D01*
X128142856Y-109752438D02*
X128190475Y-109800057D01*
X128761904Y-110704819D02*
X128666666Y-110657200D01*
X128666666Y-110657200D02*
X128619047Y-110609580D01*
X128619047Y-110609580D02*
X128571428Y-110514342D01*
X128571428Y-110514342D02*
X128571428Y-110228628D01*
X128571428Y-110228628D02*
X128619047Y-110133390D01*
X128619047Y-110133390D02*
X128666666Y-110085771D01*
X128666666Y-110085771D02*
X128761904Y-110038152D01*
X128761904Y-110038152D02*
X128904761Y-110038152D01*
X128904761Y-110038152D02*
X128999999Y-110085771D01*
X128999999Y-110085771D02*
X129047618Y-110133390D01*
X129047618Y-110133390D02*
X129095237Y-110228628D01*
X129095237Y-110228628D02*
X129095237Y-110514342D01*
X129095237Y-110514342D02*
X129047618Y-110609580D01*
X129047618Y-110609580D02*
X128999999Y-110657200D01*
X128999999Y-110657200D02*
X128904761Y-110704819D01*
X128904761Y-110704819D02*
X128761904Y-110704819D01*
X129523809Y-110038152D02*
X129523809Y-110704819D01*
X129523809Y-110133390D02*
X129571428Y-110085771D01*
X129571428Y-110085771D02*
X129666666Y-110038152D01*
X129666666Y-110038152D02*
X129809523Y-110038152D01*
X129809523Y-110038152D02*
X129904761Y-110085771D01*
X129904761Y-110085771D02*
X129952380Y-110181009D01*
X129952380Y-110181009D02*
X129952380Y-110704819D01*
X130428571Y-110038152D02*
X130428571Y-110704819D01*
X130428571Y-110133390D02*
X130476190Y-110085771D01*
X130476190Y-110085771D02*
X130571428Y-110038152D01*
X130571428Y-110038152D02*
X130714285Y-110038152D01*
X130714285Y-110038152D02*
X130809523Y-110085771D01*
X130809523Y-110085771D02*
X130857142Y-110181009D01*
X130857142Y-110181009D02*
X130857142Y-110704819D01*
X131095238Y-110800057D02*
X131857142Y-110800057D01*
X132285714Y-109704819D02*
X132380952Y-109704819D01*
X132380952Y-109704819D02*
X132476190Y-109752438D01*
X132476190Y-109752438D02*
X132523809Y-109800057D01*
X132523809Y-109800057D02*
X132571428Y-109895295D01*
X132571428Y-109895295D02*
X132619047Y-110085771D01*
X132619047Y-110085771D02*
X132619047Y-110323866D01*
X132619047Y-110323866D02*
X132571428Y-110514342D01*
X132571428Y-110514342D02*
X132523809Y-110609580D01*
X132523809Y-110609580D02*
X132476190Y-110657200D01*
X132476190Y-110657200D02*
X132380952Y-110704819D01*
X132380952Y-110704819D02*
X132285714Y-110704819D01*
X132285714Y-110704819D02*
X132190476Y-110657200D01*
X132190476Y-110657200D02*
X132142857Y-110609580D01*
X132142857Y-110609580D02*
X132095238Y-110514342D01*
X132095238Y-110514342D02*
X132047619Y-110323866D01*
X132047619Y-110323866D02*
X132047619Y-110085771D01*
X132047619Y-110085771D02*
X132095238Y-109895295D01*
X132095238Y-109895295D02*
X132142857Y-109800057D01*
X132142857Y-109800057D02*
X132190476Y-109752438D01*
X132190476Y-109752438D02*
X132285714Y-109704819D01*
X133571428Y-110704819D02*
X133000000Y-110704819D01*
X133285714Y-110704819D02*
X133285714Y-109704819D01*
X133285714Y-109704819D02*
X133190476Y-109847676D01*
X133190476Y-109847676D02*
X133095238Y-109942914D01*
X133095238Y-109942914D02*
X133000000Y-109990533D01*
X133904762Y-110704819D02*
X134428571Y-110038152D01*
X133904762Y-110038152D02*
X134428571Y-110704819D01*
X135000000Y-109704819D02*
X135095238Y-109704819D01*
X135095238Y-109704819D02*
X135190476Y-109752438D01*
X135190476Y-109752438D02*
X135238095Y-109800057D01*
X135238095Y-109800057D02*
X135285714Y-109895295D01*
X135285714Y-109895295D02*
X135333333Y-110085771D01*
X135333333Y-110085771D02*
X135333333Y-110323866D01*
X135333333Y-110323866D02*
X135285714Y-110514342D01*
X135285714Y-110514342D02*
X135238095Y-110609580D01*
X135238095Y-110609580D02*
X135190476Y-110657200D01*
X135190476Y-110657200D02*
X135095238Y-110704819D01*
X135095238Y-110704819D02*
X135000000Y-110704819D01*
X135000000Y-110704819D02*
X134904762Y-110657200D01*
X134904762Y-110657200D02*
X134857143Y-110609580D01*
X134857143Y-110609580D02*
X134809524Y-110514342D01*
X134809524Y-110514342D02*
X134761905Y-110323866D01*
X134761905Y-110323866D02*
X134761905Y-110085771D01*
X134761905Y-110085771D02*
X134809524Y-109895295D01*
X134809524Y-109895295D02*
X134857143Y-109800057D01*
X134857143Y-109800057D02*
X134904762Y-109752438D01*
X134904762Y-109752438D02*
X135000000Y-109704819D01*
X135666667Y-109704819D02*
X136285714Y-109704819D01*
X136285714Y-109704819D02*
X135952381Y-110085771D01*
X135952381Y-110085771D02*
X136095238Y-110085771D01*
X136095238Y-110085771D02*
X136190476Y-110133390D01*
X136190476Y-110133390D02*
X136238095Y-110181009D01*
X136238095Y-110181009D02*
X136285714Y-110276247D01*
X136285714Y-110276247D02*
X136285714Y-110514342D01*
X136285714Y-110514342D02*
X136238095Y-110609580D01*
X136238095Y-110609580D02*
X136190476Y-110657200D01*
X136190476Y-110657200D02*
X136095238Y-110704819D01*
X136095238Y-110704819D02*
X135809524Y-110704819D01*
X135809524Y-110704819D02*
X135714286Y-110657200D01*
X135714286Y-110657200D02*
X135666667Y-110609580D01*
X136476191Y-110800057D02*
X137238095Y-110800057D01*
X137476191Y-110704819D02*
X137476191Y-109704819D01*
X137476191Y-109704819D02*
X137857143Y-109704819D01*
X137857143Y-109704819D02*
X137952381Y-109752438D01*
X137952381Y-109752438D02*
X138000000Y-109800057D01*
X138000000Y-109800057D02*
X138047619Y-109895295D01*
X138047619Y-109895295D02*
X138047619Y-110038152D01*
X138047619Y-110038152D02*
X138000000Y-110133390D01*
X138000000Y-110133390D02*
X137952381Y-110181009D01*
X137952381Y-110181009D02*
X137857143Y-110228628D01*
X137857143Y-110228628D02*
X137476191Y-110228628D01*
X138476191Y-110704819D02*
X138476191Y-110038152D01*
X138476191Y-109704819D02*
X138428572Y-109752438D01*
X138428572Y-109752438D02*
X138476191Y-109800057D01*
X138476191Y-109800057D02*
X138523810Y-109752438D01*
X138523810Y-109752438D02*
X138476191Y-109704819D01*
X138476191Y-109704819D02*
X138476191Y-109800057D01*
X138952381Y-110038152D02*
X138952381Y-110704819D01*
X138952381Y-110133390D02*
X139000000Y-110085771D01*
X139000000Y-110085771D02*
X139095238Y-110038152D01*
X139095238Y-110038152D02*
X139238095Y-110038152D01*
X139238095Y-110038152D02*
X139333333Y-110085771D01*
X139333333Y-110085771D02*
X139380952Y-110181009D01*
X139380952Y-110181009D02*
X139380952Y-110704819D01*
X131931666Y-106704819D02*
X131931666Y-107419104D01*
X131931666Y-107419104D02*
X131884047Y-107561961D01*
X131884047Y-107561961D02*
X131788809Y-107657200D01*
X131788809Y-107657200D02*
X131645952Y-107704819D01*
X131645952Y-107704819D02*
X131550714Y-107704819D01*
X132836428Y-107038152D02*
X132836428Y-107704819D01*
X132598333Y-106657200D02*
X132360238Y-107371485D01*
X132360238Y-107371485D02*
X132979285Y-107371485D01*
X131346429Y-83804104D02*
X131822619Y-83804104D01*
X131251191Y-84089819D02*
X131584524Y-83089819D01*
X131584524Y-83089819D02*
X131917857Y-84089819D01*
X132822619Y-84089819D02*
X132489286Y-83613628D01*
X132251191Y-84089819D02*
X132251191Y-83089819D01*
X132251191Y-83089819D02*
X132632143Y-83089819D01*
X132632143Y-83089819D02*
X132727381Y-83137438D01*
X132727381Y-83137438D02*
X132775000Y-83185057D01*
X132775000Y-83185057D02*
X132822619Y-83280295D01*
X132822619Y-83280295D02*
X132822619Y-83423152D01*
X132822619Y-83423152D02*
X132775000Y-83518390D01*
X132775000Y-83518390D02*
X132727381Y-83566009D01*
X132727381Y-83566009D02*
X132632143Y-83613628D01*
X132632143Y-83613628D02*
X132251191Y-83613628D01*
X133251191Y-84089819D02*
X133251191Y-83089819D01*
X133251191Y-83089819D02*
X133489286Y-83089819D01*
X133489286Y-83089819D02*
X133632143Y-83137438D01*
X133632143Y-83137438D02*
X133727381Y-83232676D01*
X133727381Y-83232676D02*
X133775000Y-83327914D01*
X133775000Y-83327914D02*
X133822619Y-83518390D01*
X133822619Y-83518390D02*
X133822619Y-83661247D01*
X133822619Y-83661247D02*
X133775000Y-83851723D01*
X133775000Y-83851723D02*
X133727381Y-83946961D01*
X133727381Y-83946961D02*
X133632143Y-84042200D01*
X133632143Y-84042200D02*
X133489286Y-84089819D01*
X133489286Y-84089819D02*
X133251191Y-84089819D01*
X134251191Y-83089819D02*
X134251191Y-83899342D01*
X134251191Y-83899342D02*
X134298810Y-83994580D01*
X134298810Y-83994580D02*
X134346429Y-84042200D01*
X134346429Y-84042200D02*
X134441667Y-84089819D01*
X134441667Y-84089819D02*
X134632143Y-84089819D01*
X134632143Y-84089819D02*
X134727381Y-84042200D01*
X134727381Y-84042200D02*
X134775000Y-83994580D01*
X134775000Y-83994580D02*
X134822619Y-83899342D01*
X134822619Y-83899342D02*
X134822619Y-83089819D01*
X135298810Y-84089819D02*
X135298810Y-83089819D01*
X135775000Y-84089819D02*
X135775000Y-83089819D01*
X135775000Y-83089819D02*
X136346428Y-84089819D01*
X136346428Y-84089819D02*
X136346428Y-83089819D01*
X137013095Y-83089819D02*
X137203571Y-83089819D01*
X137203571Y-83089819D02*
X137298809Y-83137438D01*
X137298809Y-83137438D02*
X137394047Y-83232676D01*
X137394047Y-83232676D02*
X137441666Y-83423152D01*
X137441666Y-83423152D02*
X137441666Y-83756485D01*
X137441666Y-83756485D02*
X137394047Y-83946961D01*
X137394047Y-83946961D02*
X137298809Y-84042200D01*
X137298809Y-84042200D02*
X137203571Y-84089819D01*
X137203571Y-84089819D02*
X137013095Y-84089819D01*
X137013095Y-84089819D02*
X136917857Y-84042200D01*
X136917857Y-84042200D02*
X136822619Y-83946961D01*
X136822619Y-83946961D02*
X136775000Y-83756485D01*
X136775000Y-83756485D02*
X136775000Y-83423152D01*
X136775000Y-83423152D02*
X136822619Y-83232676D01*
X136822619Y-83232676D02*
X136917857Y-83137438D01*
X136917857Y-83137438D02*
X137013095Y-83089819D01*
X137632143Y-84185057D02*
X138394047Y-84185057D01*
X138632143Y-84089819D02*
X138632143Y-83089819D01*
X138632143Y-83089819D02*
X139203571Y-84089819D01*
X139203571Y-84089819D02*
X139203571Y-83089819D01*
X139632143Y-83804104D02*
X140108333Y-83804104D01*
X139536905Y-84089819D02*
X139870238Y-83089819D01*
X139870238Y-83089819D02*
X140203571Y-84089819D01*
X140536905Y-84089819D02*
X140536905Y-83089819D01*
X140536905Y-83089819D02*
X141108333Y-84089819D01*
X141108333Y-84089819D02*
X141108333Y-83089819D01*
X141775000Y-83089819D02*
X141965476Y-83089819D01*
X141965476Y-83089819D02*
X142060714Y-83137438D01*
X142060714Y-83137438D02*
X142155952Y-83232676D01*
X142155952Y-83232676D02*
X142203571Y-83423152D01*
X142203571Y-83423152D02*
X142203571Y-83756485D01*
X142203571Y-83756485D02*
X142155952Y-83946961D01*
X142155952Y-83946961D02*
X142060714Y-84042200D01*
X142060714Y-84042200D02*
X141965476Y-84089819D01*
X141965476Y-84089819D02*
X141775000Y-84089819D01*
X141775000Y-84089819D02*
X141679762Y-84042200D01*
X141679762Y-84042200D02*
X141584524Y-83946961D01*
X141584524Y-83946961D02*
X141536905Y-83756485D01*
X141536905Y-83756485D02*
X141536905Y-83423152D01*
X141536905Y-83423152D02*
X141584524Y-83232676D01*
X141584524Y-83232676D02*
X141679762Y-83137438D01*
X141679762Y-83137438D02*
X141775000Y-83089819D01*
X146916666Y-107954819D02*
X146916666Y-108669104D01*
X146916666Y-108669104D02*
X146869047Y-108811961D01*
X146869047Y-108811961D02*
X146773809Y-108907200D01*
X146773809Y-108907200D02*
X146630952Y-108954819D01*
X146630952Y-108954819D02*
X146535714Y-108954819D01*
X147345238Y-108050057D02*
X147392857Y-108002438D01*
X147392857Y-108002438D02*
X147488095Y-107954819D01*
X147488095Y-107954819D02*
X147726190Y-107954819D01*
X147726190Y-107954819D02*
X147821428Y-108002438D01*
X147821428Y-108002438D02*
X147869047Y-108050057D01*
X147869047Y-108050057D02*
X147916666Y-108145295D01*
X147916666Y-108145295D02*
X147916666Y-108240533D01*
X147916666Y-108240533D02*
X147869047Y-108383390D01*
X147869047Y-108383390D02*
X147297619Y-108954819D01*
X147297619Y-108954819D02*
X147916666Y-108954819D01*
X180785714Y-101907200D02*
X180928571Y-101954819D01*
X180928571Y-101954819D02*
X181166666Y-101954819D01*
X181166666Y-101954819D02*
X181261904Y-101907200D01*
X181261904Y-101907200D02*
X181309523Y-101859580D01*
X181309523Y-101859580D02*
X181357142Y-101764342D01*
X181357142Y-101764342D02*
X181357142Y-101669104D01*
X181357142Y-101669104D02*
X181309523Y-101573866D01*
X181309523Y-101573866D02*
X181261904Y-101526247D01*
X181261904Y-101526247D02*
X181166666Y-101478628D01*
X181166666Y-101478628D02*
X180976190Y-101431009D01*
X180976190Y-101431009D02*
X180880952Y-101383390D01*
X180880952Y-101383390D02*
X180833333Y-101335771D01*
X180833333Y-101335771D02*
X180785714Y-101240533D01*
X180785714Y-101240533D02*
X180785714Y-101145295D01*
X180785714Y-101145295D02*
X180833333Y-101050057D01*
X180833333Y-101050057D02*
X180880952Y-101002438D01*
X180880952Y-101002438D02*
X180976190Y-100954819D01*
X180976190Y-100954819D02*
X181214285Y-100954819D01*
X181214285Y-100954819D02*
X181357142Y-101002438D01*
X181738095Y-101907200D02*
X181880952Y-101954819D01*
X181880952Y-101954819D02*
X182119047Y-101954819D01*
X182119047Y-101954819D02*
X182214285Y-101907200D01*
X182214285Y-101907200D02*
X182261904Y-101859580D01*
X182261904Y-101859580D02*
X182309523Y-101764342D01*
X182309523Y-101764342D02*
X182309523Y-101669104D01*
X182309523Y-101669104D02*
X182261904Y-101573866D01*
X182261904Y-101573866D02*
X182214285Y-101526247D01*
X182214285Y-101526247D02*
X182119047Y-101478628D01*
X182119047Y-101478628D02*
X181928571Y-101431009D01*
X181928571Y-101431009D02*
X181833333Y-101383390D01*
X181833333Y-101383390D02*
X181785714Y-101335771D01*
X181785714Y-101335771D02*
X181738095Y-101240533D01*
X181738095Y-101240533D02*
X181738095Y-101145295D01*
X181738095Y-101145295D02*
X181785714Y-101050057D01*
X181785714Y-101050057D02*
X181833333Y-101002438D01*
X181833333Y-101002438D02*
X181928571Y-100954819D01*
X181928571Y-100954819D02*
X182166666Y-100954819D01*
X182166666Y-100954819D02*
X182309523Y-101002438D01*
X182642857Y-100954819D02*
X183261904Y-100954819D01*
X183261904Y-100954819D02*
X182928571Y-101335771D01*
X182928571Y-101335771D02*
X183071428Y-101335771D01*
X183071428Y-101335771D02*
X183166666Y-101383390D01*
X183166666Y-101383390D02*
X183214285Y-101431009D01*
X183214285Y-101431009D02*
X183261904Y-101526247D01*
X183261904Y-101526247D02*
X183261904Y-101764342D01*
X183261904Y-101764342D02*
X183214285Y-101859580D01*
X183214285Y-101859580D02*
X183166666Y-101907200D01*
X183166666Y-101907200D02*
X183071428Y-101954819D01*
X183071428Y-101954819D02*
X182785714Y-101954819D01*
X182785714Y-101954819D02*
X182690476Y-101907200D01*
X182690476Y-101907200D02*
X182642857Y-101859580D01*
X184166666Y-100954819D02*
X183690476Y-100954819D01*
X183690476Y-100954819D02*
X183642857Y-101431009D01*
X183642857Y-101431009D02*
X183690476Y-101383390D01*
X183690476Y-101383390D02*
X183785714Y-101335771D01*
X183785714Y-101335771D02*
X184023809Y-101335771D01*
X184023809Y-101335771D02*
X184119047Y-101383390D01*
X184119047Y-101383390D02*
X184166666Y-101431009D01*
X184166666Y-101431009D02*
X184214285Y-101526247D01*
X184214285Y-101526247D02*
X184214285Y-101764342D01*
X184214285Y-101764342D02*
X184166666Y-101859580D01*
X184166666Y-101859580D02*
X184119047Y-101907200D01*
X184119047Y-101907200D02*
X184023809Y-101954819D01*
X184023809Y-101954819D02*
X183785714Y-101954819D01*
X183785714Y-101954819D02*
X183690476Y-101907200D01*
X183690476Y-101907200D02*
X183642857Y-101859580D01*
X176261905Y-98954819D02*
X176261905Y-97954819D01*
X176261905Y-97954819D02*
X176500000Y-97954819D01*
X176500000Y-97954819D02*
X176642857Y-98002438D01*
X176642857Y-98002438D02*
X176738095Y-98097676D01*
X176738095Y-98097676D02*
X176785714Y-98192914D01*
X176785714Y-98192914D02*
X176833333Y-98383390D01*
X176833333Y-98383390D02*
X176833333Y-98526247D01*
X176833333Y-98526247D02*
X176785714Y-98716723D01*
X176785714Y-98716723D02*
X176738095Y-98811961D01*
X176738095Y-98811961D02*
X176642857Y-98907200D01*
X176642857Y-98907200D02*
X176500000Y-98954819D01*
X176500000Y-98954819D02*
X176261905Y-98954819D01*
X177785714Y-98954819D02*
X177214286Y-98954819D01*
X177500000Y-98954819D02*
X177500000Y-97954819D01*
X177500000Y-97954819D02*
X177404762Y-98097676D01*
X177404762Y-98097676D02*
X177309524Y-98192914D01*
X177309524Y-98192914D02*
X177214286Y-98240533D01*
X158136190Y-89358152D02*
X158136190Y-90024819D01*
X157898095Y-88977200D02*
X157660000Y-89691485D01*
X157660000Y-89691485D02*
X158279047Y-89691485D01*
X158660000Y-89929580D02*
X158707619Y-89977200D01*
X158707619Y-89977200D02*
X158660000Y-90024819D01*
X158660000Y-90024819D02*
X158612381Y-89977200D01*
X158612381Y-89977200D02*
X158660000Y-89929580D01*
X158660000Y-89929580D02*
X158660000Y-90024819D01*
X159040952Y-89024819D02*
X159707618Y-89024819D01*
X159707618Y-89024819D02*
X159279047Y-90024819D01*
X160088571Y-90024819D02*
X160088571Y-89024819D01*
X160659999Y-90024819D02*
X160231428Y-89453390D01*
X160659999Y-89024819D02*
X160088571Y-89596247D01*
D11*
X159093333Y-91181927D02*
X158960000Y-90991451D01*
X158864762Y-91181927D02*
X158864762Y-90781927D01*
X158864762Y-90781927D02*
X159017143Y-90781927D01*
X159017143Y-90781927D02*
X159055238Y-90800975D01*
X159055238Y-90800975D02*
X159074285Y-90820022D01*
X159074285Y-90820022D02*
X159093333Y-90858118D01*
X159093333Y-90858118D02*
X159093333Y-90915260D01*
X159093333Y-90915260D02*
X159074285Y-90953356D01*
X159074285Y-90953356D02*
X159055238Y-90972403D01*
X159055238Y-90972403D02*
X159017143Y-90991451D01*
X159017143Y-90991451D02*
X158864762Y-90991451D01*
X159226666Y-90781927D02*
X159474285Y-90781927D01*
X159474285Y-90781927D02*
X159340952Y-90934308D01*
X159340952Y-90934308D02*
X159398095Y-90934308D01*
X159398095Y-90934308D02*
X159436190Y-90953356D01*
X159436190Y-90953356D02*
X159455238Y-90972403D01*
X159455238Y-90972403D02*
X159474285Y-91010499D01*
X159474285Y-91010499D02*
X159474285Y-91105737D01*
X159474285Y-91105737D02*
X159455238Y-91143832D01*
X159455238Y-91143832D02*
X159436190Y-91162880D01*
X159436190Y-91162880D02*
X159398095Y-91181927D01*
X159398095Y-91181927D02*
X159283809Y-91181927D01*
X159283809Y-91181927D02*
X159245714Y-91162880D01*
X159245714Y-91162880D02*
X159226666Y-91143832D01*
D10*
X134357142Y-98024819D02*
X133880952Y-98024819D01*
X133880952Y-98024819D02*
X133880952Y-97024819D01*
X134690476Y-97501009D02*
X135023809Y-97501009D01*
X135166666Y-98024819D02*
X134690476Y-98024819D01*
X134690476Y-98024819D02*
X134690476Y-97024819D01*
X134690476Y-97024819D02*
X135166666Y-97024819D01*
X135595238Y-98024819D02*
X135595238Y-97024819D01*
X135595238Y-97024819D02*
X135833333Y-97024819D01*
X135833333Y-97024819D02*
X135976190Y-97072438D01*
X135976190Y-97072438D02*
X136071428Y-97167676D01*
X136071428Y-97167676D02*
X136119047Y-97262914D01*
X136119047Y-97262914D02*
X136166666Y-97453390D01*
X136166666Y-97453390D02*
X136166666Y-97596247D01*
X136166666Y-97596247D02*
X136119047Y-97786723D01*
X136119047Y-97786723D02*
X136071428Y-97881961D01*
X136071428Y-97881961D02*
X135976190Y-97977200D01*
X135976190Y-97977200D02*
X135833333Y-98024819D01*
X135833333Y-98024819D02*
X135595238Y-98024819D01*
D11*
X134704762Y-99181927D02*
X134704762Y-98781927D01*
X134704762Y-98781927D02*
X134800000Y-98781927D01*
X134800000Y-98781927D02*
X134857143Y-98800975D01*
X134857143Y-98800975D02*
X134895238Y-98839070D01*
X134895238Y-98839070D02*
X134914285Y-98877165D01*
X134914285Y-98877165D02*
X134933333Y-98953356D01*
X134933333Y-98953356D02*
X134933333Y-99010499D01*
X134933333Y-99010499D02*
X134914285Y-99086689D01*
X134914285Y-99086689D02*
X134895238Y-99124784D01*
X134895238Y-99124784D02*
X134857143Y-99162880D01*
X134857143Y-99162880D02*
X134800000Y-99181927D01*
X134800000Y-99181927D02*
X134704762Y-99181927D01*
X135276190Y-98915260D02*
X135276190Y-99181927D01*
X135180952Y-98762880D02*
X135085714Y-99048594D01*
X135085714Y-99048594D02*
X135333333Y-99048594D01*
D10*
X171384819Y-100722618D02*
X171384819Y-100055952D01*
X171384819Y-100055952D02*
X172384819Y-100484523D01*
X172289580Y-99674999D02*
X172337200Y-99627380D01*
X172337200Y-99627380D02*
X172384819Y-99674999D01*
X172384819Y-99674999D02*
X172337200Y-99722618D01*
X172337200Y-99722618D02*
X172289580Y-99674999D01*
X172289580Y-99674999D02*
X172384819Y-99674999D01*
X171813390Y-99055952D02*
X171765771Y-99151190D01*
X171765771Y-99151190D02*
X171718152Y-99198809D01*
X171718152Y-99198809D02*
X171622914Y-99246428D01*
X171622914Y-99246428D02*
X171575295Y-99246428D01*
X171575295Y-99246428D02*
X171480057Y-99198809D01*
X171480057Y-99198809D02*
X171432438Y-99151190D01*
X171432438Y-99151190D02*
X171384819Y-99055952D01*
X171384819Y-99055952D02*
X171384819Y-98865476D01*
X171384819Y-98865476D02*
X171432438Y-98770238D01*
X171432438Y-98770238D02*
X171480057Y-98722619D01*
X171480057Y-98722619D02*
X171575295Y-98675000D01*
X171575295Y-98675000D02*
X171622914Y-98675000D01*
X171622914Y-98675000D02*
X171718152Y-98722619D01*
X171718152Y-98722619D02*
X171765771Y-98770238D01*
X171765771Y-98770238D02*
X171813390Y-98865476D01*
X171813390Y-98865476D02*
X171813390Y-99055952D01*
X171813390Y-99055952D02*
X171861009Y-99151190D01*
X171861009Y-99151190D02*
X171908628Y-99198809D01*
X171908628Y-99198809D02*
X172003866Y-99246428D01*
X172003866Y-99246428D02*
X172194342Y-99246428D01*
X172194342Y-99246428D02*
X172289580Y-99198809D01*
X172289580Y-99198809D02*
X172337200Y-99151190D01*
X172337200Y-99151190D02*
X172384819Y-99055952D01*
X172384819Y-99055952D02*
X172384819Y-98865476D01*
X172384819Y-98865476D02*
X172337200Y-98770238D01*
X172337200Y-98770238D02*
X172289580Y-98722619D01*
X172289580Y-98722619D02*
X172194342Y-98675000D01*
X172194342Y-98675000D02*
X172003866Y-98675000D01*
X172003866Y-98675000D02*
X171908628Y-98722619D01*
X171908628Y-98722619D02*
X171861009Y-98770238D01*
X171861009Y-98770238D02*
X171813390Y-98865476D01*
X172384819Y-98246428D02*
X171384819Y-98246428D01*
X172384819Y-97675000D02*
X171813390Y-98103571D01*
X171384819Y-97675000D02*
X171956247Y-98246428D01*
D11*
X170681927Y-99316666D02*
X170491451Y-99449999D01*
X170681927Y-99545237D02*
X170281927Y-99545237D01*
X170281927Y-99545237D02*
X170281927Y-99392856D01*
X170281927Y-99392856D02*
X170300975Y-99354761D01*
X170300975Y-99354761D02*
X170320022Y-99335714D01*
X170320022Y-99335714D02*
X170358118Y-99316666D01*
X170358118Y-99316666D02*
X170415260Y-99316666D01*
X170415260Y-99316666D02*
X170453356Y-99335714D01*
X170453356Y-99335714D02*
X170472403Y-99354761D01*
X170472403Y-99354761D02*
X170491451Y-99392856D01*
X170491451Y-99392856D02*
X170491451Y-99545237D01*
X170681927Y-98935714D02*
X170681927Y-99164285D01*
X170681927Y-99049999D02*
X170281927Y-99049999D01*
X170281927Y-99049999D02*
X170339070Y-99088095D01*
X170339070Y-99088095D02*
X170377165Y-99126190D01*
X170377165Y-99126190D02*
X170396213Y-99164285D01*
D10*
X175464285Y-108954819D02*
X175464285Y-107954819D01*
X175464285Y-107954819D02*
X175797618Y-108669104D01*
X175797618Y-108669104D02*
X176130951Y-107954819D01*
X176130951Y-107954819D02*
X176130951Y-108954819D01*
X176749999Y-108954819D02*
X176654761Y-108907200D01*
X176654761Y-108907200D02*
X176607142Y-108859580D01*
X176607142Y-108859580D02*
X176559523Y-108764342D01*
X176559523Y-108764342D02*
X176559523Y-108478628D01*
X176559523Y-108478628D02*
X176607142Y-108383390D01*
X176607142Y-108383390D02*
X176654761Y-108335771D01*
X176654761Y-108335771D02*
X176749999Y-108288152D01*
X176749999Y-108288152D02*
X176892856Y-108288152D01*
X176892856Y-108288152D02*
X176988094Y-108335771D01*
X176988094Y-108335771D02*
X177035713Y-108383390D01*
X177035713Y-108383390D02*
X177083332Y-108478628D01*
X177083332Y-108478628D02*
X177083332Y-108764342D01*
X177083332Y-108764342D02*
X177035713Y-108859580D01*
X177035713Y-108859580D02*
X176988094Y-108907200D01*
X176988094Y-108907200D02*
X176892856Y-108954819D01*
X176892856Y-108954819D02*
X176749999Y-108954819D01*
X177940475Y-108288152D02*
X177940475Y-108954819D01*
X177511904Y-108288152D02*
X177511904Y-108811961D01*
X177511904Y-108811961D02*
X177559523Y-108907200D01*
X177559523Y-108907200D02*
X177654761Y-108954819D01*
X177654761Y-108954819D02*
X177797618Y-108954819D01*
X177797618Y-108954819D02*
X177892856Y-108907200D01*
X177892856Y-108907200D02*
X177940475Y-108859580D01*
X178416666Y-108288152D02*
X178416666Y-108954819D01*
X178416666Y-108383390D02*
X178464285Y-108335771D01*
X178464285Y-108335771D02*
X178559523Y-108288152D01*
X178559523Y-108288152D02*
X178702380Y-108288152D01*
X178702380Y-108288152D02*
X178797618Y-108335771D01*
X178797618Y-108335771D02*
X178845237Y-108431009D01*
X178845237Y-108431009D02*
X178845237Y-108954819D01*
X179178571Y-108288152D02*
X179559523Y-108288152D01*
X179321428Y-107954819D02*
X179321428Y-108811961D01*
X179321428Y-108811961D02*
X179369047Y-108907200D01*
X179369047Y-108907200D02*
X179464285Y-108954819D01*
X179464285Y-108954819D02*
X179559523Y-108954819D01*
X179892857Y-108954819D02*
X179892857Y-108288152D01*
X179892857Y-107954819D02*
X179845238Y-108002438D01*
X179845238Y-108002438D02*
X179892857Y-108050057D01*
X179892857Y-108050057D02*
X179940476Y-108002438D01*
X179940476Y-108002438D02*
X179892857Y-107954819D01*
X179892857Y-107954819D02*
X179892857Y-108050057D01*
X180369047Y-108288152D02*
X180369047Y-108954819D01*
X180369047Y-108383390D02*
X180416666Y-108335771D01*
X180416666Y-108335771D02*
X180511904Y-108288152D01*
X180511904Y-108288152D02*
X180654761Y-108288152D01*
X180654761Y-108288152D02*
X180749999Y-108335771D01*
X180749999Y-108335771D02*
X180797618Y-108431009D01*
X180797618Y-108431009D02*
X180797618Y-108954819D01*
X181702380Y-108288152D02*
X181702380Y-109097676D01*
X181702380Y-109097676D02*
X181654761Y-109192914D01*
X181654761Y-109192914D02*
X181607142Y-109240533D01*
X181607142Y-109240533D02*
X181511904Y-109288152D01*
X181511904Y-109288152D02*
X181369047Y-109288152D01*
X181369047Y-109288152D02*
X181273809Y-109240533D01*
X181702380Y-108907200D02*
X181607142Y-108954819D01*
X181607142Y-108954819D02*
X181416666Y-108954819D01*
X181416666Y-108954819D02*
X181321428Y-108907200D01*
X181321428Y-108907200D02*
X181273809Y-108859580D01*
X181273809Y-108859580D02*
X181226190Y-108764342D01*
X181226190Y-108764342D02*
X181226190Y-108478628D01*
X181226190Y-108478628D02*
X181273809Y-108383390D01*
X181273809Y-108383390D02*
X181321428Y-108335771D01*
X181321428Y-108335771D02*
X181416666Y-108288152D01*
X181416666Y-108288152D02*
X181607142Y-108288152D01*
X181607142Y-108288152D02*
X181702380Y-108335771D01*
X182178571Y-108954819D02*
X182178571Y-107954819D01*
X182178571Y-108431009D02*
X182749999Y-108431009D01*
X182749999Y-108954819D02*
X182749999Y-107954819D01*
X183369047Y-108954819D02*
X183273809Y-108907200D01*
X183273809Y-108907200D02*
X183226190Y-108859580D01*
X183226190Y-108859580D02*
X183178571Y-108764342D01*
X183178571Y-108764342D02*
X183178571Y-108478628D01*
X183178571Y-108478628D02*
X183226190Y-108383390D01*
X183226190Y-108383390D02*
X183273809Y-108335771D01*
X183273809Y-108335771D02*
X183369047Y-108288152D01*
X183369047Y-108288152D02*
X183511904Y-108288152D01*
X183511904Y-108288152D02*
X183607142Y-108335771D01*
X183607142Y-108335771D02*
X183654761Y-108383390D01*
X183654761Y-108383390D02*
X183702380Y-108478628D01*
X183702380Y-108478628D02*
X183702380Y-108764342D01*
X183702380Y-108764342D02*
X183654761Y-108859580D01*
X183654761Y-108859580D02*
X183607142Y-108907200D01*
X183607142Y-108907200D02*
X183511904Y-108954819D01*
X183511904Y-108954819D02*
X183369047Y-108954819D01*
X184273809Y-108954819D02*
X184178571Y-108907200D01*
X184178571Y-108907200D02*
X184130952Y-108811961D01*
X184130952Y-108811961D02*
X184130952Y-107954819D01*
X185035714Y-108907200D02*
X184940476Y-108954819D01*
X184940476Y-108954819D02*
X184750000Y-108954819D01*
X184750000Y-108954819D02*
X184654762Y-108907200D01*
X184654762Y-108907200D02*
X184607143Y-108811961D01*
X184607143Y-108811961D02*
X184607143Y-108431009D01*
X184607143Y-108431009D02*
X184654762Y-108335771D01*
X184654762Y-108335771D02*
X184750000Y-108288152D01*
X184750000Y-108288152D02*
X184940476Y-108288152D01*
X184940476Y-108288152D02*
X185035714Y-108335771D01*
X185035714Y-108335771D02*
X185083333Y-108431009D01*
X185083333Y-108431009D02*
X185083333Y-108526247D01*
X185083333Y-108526247D02*
X184607143Y-108621485D01*
X180488095Y-106354819D02*
X180488095Y-105354819D01*
X180488095Y-105831009D02*
X181059523Y-105831009D01*
X181059523Y-106354819D02*
X181059523Y-105354819D01*
X181440476Y-105354819D02*
X182059523Y-105354819D01*
X182059523Y-105354819D02*
X181726190Y-105735771D01*
X181726190Y-105735771D02*
X181869047Y-105735771D01*
X181869047Y-105735771D02*
X181964285Y-105783390D01*
X181964285Y-105783390D02*
X182011904Y-105831009D01*
X182011904Y-105831009D02*
X182059523Y-105926247D01*
X182059523Y-105926247D02*
X182059523Y-106164342D01*
X182059523Y-106164342D02*
X182011904Y-106259580D01*
X182011904Y-106259580D02*
X181964285Y-106307200D01*
X181964285Y-106307200D02*
X181869047Y-106354819D01*
X181869047Y-106354819D02*
X181583333Y-106354819D01*
X181583333Y-106354819D02*
X181488095Y-106307200D01*
X181488095Y-106307200D02*
X181440476Y-106259580D01*
X154284819Y-102557618D02*
X154284819Y-102462380D01*
X154284819Y-102462380D02*
X154332438Y-102367142D01*
X154332438Y-102367142D02*
X154380057Y-102319523D01*
X154380057Y-102319523D02*
X154475295Y-102271904D01*
X154475295Y-102271904D02*
X154665771Y-102224285D01*
X154665771Y-102224285D02*
X154903866Y-102224285D01*
X154903866Y-102224285D02*
X155094342Y-102271904D01*
X155094342Y-102271904D02*
X155189580Y-102319523D01*
X155189580Y-102319523D02*
X155237200Y-102367142D01*
X155237200Y-102367142D02*
X155284819Y-102462380D01*
X155284819Y-102462380D02*
X155284819Y-102557618D01*
X155284819Y-102557618D02*
X155237200Y-102652856D01*
X155237200Y-102652856D02*
X155189580Y-102700475D01*
X155189580Y-102700475D02*
X155094342Y-102748094D01*
X155094342Y-102748094D02*
X154903866Y-102795713D01*
X154903866Y-102795713D02*
X154665771Y-102795713D01*
X154665771Y-102795713D02*
X154475295Y-102748094D01*
X154475295Y-102748094D02*
X154380057Y-102700475D01*
X154380057Y-102700475D02*
X154332438Y-102652856D01*
X154332438Y-102652856D02*
X154284819Y-102557618D01*
D12*
X156118200Y-102553332D02*
X155994391Y-102639999D01*
X156118200Y-102701904D02*
X155858200Y-102701904D01*
X155858200Y-102701904D02*
X155858200Y-102602856D01*
X155858200Y-102602856D02*
X155870581Y-102578094D01*
X155870581Y-102578094D02*
X155882962Y-102565713D01*
X155882962Y-102565713D02*
X155907724Y-102553332D01*
X155907724Y-102553332D02*
X155944867Y-102553332D01*
X155944867Y-102553332D02*
X155969629Y-102565713D01*
X155969629Y-102565713D02*
X155982010Y-102578094D01*
X155982010Y-102578094D02*
X155994391Y-102602856D01*
X155994391Y-102602856D02*
X155994391Y-102701904D01*
X156118200Y-102429523D02*
X156118200Y-102379999D01*
X156118200Y-102379999D02*
X156105820Y-102355237D01*
X156105820Y-102355237D02*
X156093439Y-102342856D01*
X156093439Y-102342856D02*
X156056296Y-102318094D01*
X156056296Y-102318094D02*
X156006772Y-102305713D01*
X156006772Y-102305713D02*
X155907724Y-102305713D01*
X155907724Y-102305713D02*
X155882962Y-102318094D01*
X155882962Y-102318094D02*
X155870581Y-102330475D01*
X155870581Y-102330475D02*
X155858200Y-102355237D01*
X155858200Y-102355237D02*
X155858200Y-102404761D01*
X155858200Y-102404761D02*
X155870581Y-102429523D01*
X155870581Y-102429523D02*
X155882962Y-102441904D01*
X155882962Y-102441904D02*
X155907724Y-102454285D01*
X155907724Y-102454285D02*
X155969629Y-102454285D01*
X155969629Y-102454285D02*
X155994391Y-102441904D01*
X155994391Y-102441904D02*
X156006772Y-102429523D01*
X156006772Y-102429523D02*
X156019153Y-102404761D01*
X156019153Y-102404761D02*
X156019153Y-102355237D01*
X156019153Y-102355237D02*
X156006772Y-102330475D01*
X156006772Y-102330475D02*
X155994391Y-102318094D01*
X155994391Y-102318094D02*
X155969629Y-102305713D01*
D10*
X142147619Y-102204819D02*
X142147619Y-101204819D01*
X142147619Y-101204819D02*
X142528571Y-101204819D01*
X142528571Y-101204819D02*
X142623809Y-101252438D01*
X142623809Y-101252438D02*
X142671428Y-101300057D01*
X142671428Y-101300057D02*
X142719047Y-101395295D01*
X142719047Y-101395295D02*
X142719047Y-101538152D01*
X142719047Y-101538152D02*
X142671428Y-101633390D01*
X142671428Y-101633390D02*
X142623809Y-101681009D01*
X142623809Y-101681009D02*
X142528571Y-101728628D01*
X142528571Y-101728628D02*
X142147619Y-101728628D01*
X143052381Y-101204819D02*
X143719047Y-101204819D01*
X143719047Y-101204819D02*
X143052381Y-102204819D01*
X143052381Y-102204819D02*
X143719047Y-102204819D01*
X143957143Y-101204819D02*
X144528571Y-101204819D01*
X144242857Y-102204819D02*
X144242857Y-101204819D01*
X144814286Y-101300057D02*
X144861905Y-101252438D01*
X144861905Y-101252438D02*
X144957143Y-101204819D01*
X144957143Y-101204819D02*
X145195238Y-101204819D01*
X145195238Y-101204819D02*
X145290476Y-101252438D01*
X145290476Y-101252438D02*
X145338095Y-101300057D01*
X145338095Y-101300057D02*
X145385714Y-101395295D01*
X145385714Y-101395295D02*
X145385714Y-101490533D01*
X145385714Y-101490533D02*
X145338095Y-101633390D01*
X145338095Y-101633390D02*
X144766667Y-102204819D01*
X144766667Y-102204819D02*
X145385714Y-102204819D01*
X145766667Y-101300057D02*
X145814286Y-101252438D01*
X145814286Y-101252438D02*
X145909524Y-101204819D01*
X145909524Y-101204819D02*
X146147619Y-101204819D01*
X146147619Y-101204819D02*
X146242857Y-101252438D01*
X146242857Y-101252438D02*
X146290476Y-101300057D01*
X146290476Y-101300057D02*
X146338095Y-101395295D01*
X146338095Y-101395295D02*
X146338095Y-101490533D01*
X146338095Y-101490533D02*
X146290476Y-101633390D01*
X146290476Y-101633390D02*
X145719048Y-102204819D01*
X145719048Y-102204819D02*
X146338095Y-102204819D01*
X146719048Y-101300057D02*
X146766667Y-101252438D01*
X146766667Y-101252438D02*
X146861905Y-101204819D01*
X146861905Y-101204819D02*
X147100000Y-101204819D01*
X147100000Y-101204819D02*
X147195238Y-101252438D01*
X147195238Y-101252438D02*
X147242857Y-101300057D01*
X147242857Y-101300057D02*
X147290476Y-101395295D01*
X147290476Y-101395295D02*
X147290476Y-101490533D01*
X147290476Y-101490533D02*
X147242857Y-101633390D01*
X147242857Y-101633390D02*
X146671429Y-102204819D01*
X146671429Y-102204819D02*
X147290476Y-102204819D01*
X147671429Y-101300057D02*
X147719048Y-101252438D01*
X147719048Y-101252438D02*
X147814286Y-101204819D01*
X147814286Y-101204819D02*
X148052381Y-101204819D01*
X148052381Y-101204819D02*
X148147619Y-101252438D01*
X148147619Y-101252438D02*
X148195238Y-101300057D01*
X148195238Y-101300057D02*
X148242857Y-101395295D01*
X148242857Y-101395295D02*
X148242857Y-101490533D01*
X148242857Y-101490533D02*
X148195238Y-101633390D01*
X148195238Y-101633390D02*
X147623810Y-102204819D01*
X147623810Y-102204819D02*
X148242857Y-102204819D01*
X148623810Y-101919104D02*
X149100000Y-101919104D01*
X148528572Y-102204819D02*
X148861905Y-101204819D01*
X148861905Y-101204819D02*
X149195238Y-102204819D01*
D13*
X146040045Y-97326190D02*
X146001950Y-97402380D01*
X146001950Y-97402380D02*
X145925760Y-97478571D01*
X145925760Y-97478571D02*
X145811474Y-97592857D01*
X145811474Y-97592857D02*
X145773379Y-97669047D01*
X145773379Y-97669047D02*
X145773379Y-97745238D01*
X145963855Y-97707142D02*
X145925760Y-97783333D01*
X145925760Y-97783333D02*
X145849569Y-97859523D01*
X145849569Y-97859523D02*
X145697188Y-97897619D01*
X145697188Y-97897619D02*
X145430521Y-97897619D01*
X145430521Y-97897619D02*
X145278140Y-97859523D01*
X145278140Y-97859523D02*
X145201950Y-97783333D01*
X145201950Y-97783333D02*
X145163855Y-97707142D01*
X145163855Y-97707142D02*
X145163855Y-97554761D01*
X145163855Y-97554761D02*
X145201950Y-97478571D01*
X145201950Y-97478571D02*
X145278140Y-97402380D01*
X145278140Y-97402380D02*
X145430521Y-97364285D01*
X145430521Y-97364285D02*
X145697188Y-97364285D01*
X145697188Y-97364285D02*
X145849569Y-97402380D01*
X145849569Y-97402380D02*
X145925760Y-97478571D01*
X145925760Y-97478571D02*
X145963855Y-97554761D01*
X145963855Y-97554761D02*
X145963855Y-97707142D01*
X145963855Y-96602381D02*
X145963855Y-97059524D01*
X145963855Y-96830952D02*
X145163855Y-96830952D01*
X145163855Y-96830952D02*
X145278140Y-96907143D01*
X145278140Y-96907143D02*
X145354331Y-96983333D01*
X145354331Y-96983333D02*
X145392426Y-97059524D01*
D10*
X138525714Y-98284819D02*
X137954286Y-98284819D01*
X138240000Y-98284819D02*
X138240000Y-97284819D01*
X138240000Y-97284819D02*
X138144762Y-97427676D01*
X138144762Y-97427676D02*
X138049524Y-97522914D01*
X138049524Y-97522914D02*
X137954286Y-97570533D01*
X138954286Y-98284819D02*
X138954286Y-97284819D01*
X139525714Y-98284819D02*
X139097143Y-97713390D01*
X139525714Y-97284819D02*
X138954286Y-97856247D01*
D12*
X138696667Y-99118200D02*
X138610000Y-98994391D01*
X138548095Y-99118200D02*
X138548095Y-98858200D01*
X138548095Y-98858200D02*
X138647143Y-98858200D01*
X138647143Y-98858200D02*
X138671905Y-98870581D01*
X138671905Y-98870581D02*
X138684286Y-98882962D01*
X138684286Y-98882962D02*
X138696667Y-98907724D01*
X138696667Y-98907724D02*
X138696667Y-98944867D01*
X138696667Y-98944867D02*
X138684286Y-98969629D01*
X138684286Y-98969629D02*
X138671905Y-98982010D01*
X138671905Y-98982010D02*
X138647143Y-98994391D01*
X138647143Y-98994391D02*
X138548095Y-98994391D01*
X138783333Y-98858200D02*
X138956667Y-98858200D01*
X138956667Y-98858200D02*
X138845238Y-99118200D01*
D14*
%TO.C,C11*%
X138925000Y-61850000D02*
X140525000Y-61850000D01*
X138925000Y-62650000D02*
X138925000Y-61850000D01*
X140525000Y-61850000D02*
X140525000Y-62650000D01*
X140525000Y-62650000D02*
X138925000Y-62650000D01*
%TO.C,C10*%
X136025000Y-62400000D02*
X134425000Y-62400000D01*
X136025000Y-61600000D02*
X136025000Y-62400000D01*
X134425000Y-62400000D02*
X134425000Y-61600000D01*
X134425000Y-61600000D02*
X136025000Y-61600000D01*
%TO.C,R10*%
X139515000Y-96520000D02*
X138465000Y-96520000D01*
X139515000Y-95980000D02*
X139515000Y-96520000D01*
X138465000Y-96520000D02*
X138465000Y-95980000D01*
X138465000Y-95980000D02*
X139515000Y-95980000D01*
%TO.C,J6*%
X131520000Y-97410000D02*
X130885000Y-98045000D01*
X131520000Y-92965000D02*
X131520000Y-97410000D01*
X130885000Y-98045000D02*
X128980000Y-98045000D01*
X128980000Y-98045000D02*
X128980000Y-92965000D01*
X128980000Y-92965000D02*
X131520000Y-92965000D01*
%TO.C,C9*%
X173700000Y-103600000D02*
X175300000Y-103600000D01*
X173700000Y-104400000D02*
X173700000Y-103600000D01*
X175300000Y-103600000D02*
X175300000Y-104400000D01*
X175300000Y-104400000D02*
X173700000Y-104400000D01*
%TO.C,C8*%
X160200000Y-103850000D02*
X161800000Y-103850000D01*
X160200000Y-104650000D02*
X160200000Y-103850000D01*
X161800000Y-103850000D02*
X161800000Y-104650000D01*
X161800000Y-104650000D02*
X160200000Y-104650000D01*
%TO.C,C6*%
X156150000Y-98950000D02*
X156150000Y-100550000D01*
X155350000Y-98950000D02*
X156150000Y-98950000D01*
X156150000Y-100550000D02*
X155350000Y-100550000D01*
X155350000Y-100550000D02*
X155350000Y-98950000D01*
%TO.C,C5*%
X158650000Y-98950000D02*
X158650000Y-100550000D01*
X157850000Y-98950000D02*
X158650000Y-98950000D01*
X158650000Y-100550000D02*
X157850000Y-100550000D01*
X157850000Y-100550000D02*
X157850000Y-98950000D01*
%TO.C,C4*%
X164400000Y-98450000D02*
X164400000Y-100050000D01*
X163600000Y-98450000D02*
X164400000Y-98450000D01*
X164400000Y-100050000D02*
X163600000Y-100050000D01*
X163600000Y-100050000D02*
X163600000Y-98450000D01*
%TO.C,C3*%
X166650000Y-98450000D02*
X166650000Y-100050000D01*
X165850000Y-98450000D02*
X166650000Y-98450000D01*
X166650000Y-100050000D02*
X165850000Y-100050000D01*
X165850000Y-100050000D02*
X165850000Y-98450000D01*
%TO.C,C2*%
X164600000Y-95800000D02*
X164600000Y-94200000D01*
X165400000Y-95800000D02*
X164600000Y-95800000D01*
X164600000Y-94200000D02*
X165400000Y-94200000D01*
X165400000Y-94200000D02*
X165400000Y-95800000D01*
%TO.C,C1*%
X163400000Y-94200000D02*
X163400000Y-95800000D01*
X162600000Y-94200000D02*
X163400000Y-94200000D01*
X163400000Y-95800000D02*
X162600000Y-95800000D01*
X162600000Y-95800000D02*
X162600000Y-94200000D01*
%TO.C,R6*%
X129450000Y-102087500D02*
X131050000Y-102087500D01*
X129450000Y-102912500D02*
X129450000Y-102087500D01*
X131050000Y-102087500D02*
X131050000Y-102912500D01*
X131050000Y-102912500D02*
X129450000Y-102912500D01*
%TO.C,R5*%
X140087500Y-88200000D02*
X140912500Y-88200000D01*
X140087500Y-89800000D02*
X140087500Y-88200000D01*
X140912500Y-88200000D02*
X140912500Y-89800000D01*
X140912500Y-89800000D02*
X140087500Y-89800000D01*
%TO.C,J5*%
X155440000Y-94480000D02*
X159885000Y-94480000D01*
X155440000Y-97020000D02*
X155440000Y-94480000D01*
X159885000Y-94480000D02*
X160520000Y-95115000D01*
X160520000Y-95115000D02*
X160520000Y-97020000D01*
X160520000Y-97020000D02*
X155440000Y-97020000D01*
%TO.C,D2*%
X153970000Y-88750000D02*
X154970000Y-88750000D01*
X153970000Y-89250000D02*
X153970000Y-88750000D01*
X154070000Y-89250000D02*
X154070000Y-88750000D01*
X154170000Y-89250000D02*
X154170000Y-88750000D01*
X154970000Y-88750000D02*
X154970000Y-89250000D01*
X154970000Y-89250000D02*
X153970000Y-89250000D01*
%TO.C,J1*%
X157150000Y-105980000D02*
X164770000Y-105980000D01*
X157150000Y-107885000D02*
X157150000Y-105980000D01*
X157785000Y-108520000D02*
X157150000Y-107885000D01*
X164770000Y-105980000D02*
X164770000Y-108520000D01*
X164770000Y-108520000D02*
X157785000Y-108520000D01*
%TO.C,R2*%
X168662500Y-97550000D02*
X167837500Y-97550000D01*
X168662500Y-95950000D02*
X168662500Y-97550000D01*
X167837500Y-97550000D02*
X167837500Y-95950000D01*
X167837500Y-95950000D02*
X168662500Y-95950000D01*
%TO.C,U2*%
X169800000Y-94050000D02*
X169400000Y-94450000D01*
X169800000Y-91550000D02*
X169800000Y-94050000D01*
X169400000Y-94450000D02*
X168200000Y-94450000D01*
X168200000Y-94450000D02*
X168200000Y-91550000D01*
X168200000Y-91550000D02*
X169800000Y-91550000D01*
%TO.C,R4*%
X158185000Y-87587500D02*
X159785000Y-87587500D01*
X158185000Y-88412500D02*
X158185000Y-87587500D01*
X159785000Y-87587500D02*
X159785000Y-88412500D01*
X159785000Y-88412500D02*
X158185000Y-88412500D01*
%TO.C,D3*%
X154000000Y-90250000D02*
X155000000Y-90250000D01*
X154000000Y-90750000D02*
X154000000Y-90250000D01*
X154100000Y-90750000D02*
X154100000Y-90250000D01*
X154200000Y-90750000D02*
X154200000Y-90250000D01*
X155000000Y-90250000D02*
X155000000Y-90750000D01*
X155000000Y-90750000D02*
X154000000Y-90750000D01*
%TO.C,L2*%
X162012500Y-101400000D02*
X160412500Y-101400000D01*
X162012500Y-100600000D02*
X162012500Y-101400000D01*
X160412500Y-101400000D02*
X160412500Y-100600000D01*
X160412500Y-100600000D02*
X162012500Y-100600000D01*
%TO.C,J3*%
X169150000Y-105980000D02*
X176770000Y-105980000D01*
X169150000Y-107885000D02*
X169150000Y-105980000D01*
X169785000Y-108520000D02*
X169150000Y-107885000D01*
X176770000Y-105980000D02*
X176770000Y-108520000D01*
X176770000Y-108520000D02*
X169785000Y-108520000D01*
%TO.C,C7*%
X133175000Y-102100000D02*
X134775000Y-102100000D01*
X133175000Y-102900000D02*
X133175000Y-102100000D01*
X134775000Y-102100000D02*
X134775000Y-102900000D01*
X134775000Y-102900000D02*
X133175000Y-102900000D01*
D15*
%TO.C,U3*%
X145010000Y-86855000D02*
X145010000Y-91955000D01*
X145010000Y-86855000D02*
X149010000Y-86855000D01*
X145010000Y-91955000D02*
X149010000Y-91955000D01*
X149010000Y-86855000D02*
X149010000Y-91955000D01*
D16*
X142665000Y-86900000D02*
G75*
G02*
X142465000Y-86900000I-100000J0D01*
G01*
X142465000Y-86900000D02*
G75*
G02*
X142665000Y-86900000I100000J0D01*
G01*
D14*
%TO.C,R8*%
X137330000Y-92975000D02*
X137870000Y-92975000D01*
X137330000Y-94025000D02*
X137330000Y-92975000D01*
X137870000Y-92975000D02*
X137870000Y-94025000D01*
X137870000Y-94025000D02*
X137330000Y-94025000D01*
%TO.C,J4*%
X128455000Y-105980000D02*
X136075000Y-105980000D01*
X128455000Y-107885000D02*
X128455000Y-105980000D01*
X129090000Y-108520000D02*
X128455000Y-107885000D01*
X136075000Y-105980000D02*
X136075000Y-108520000D01*
X136075000Y-108520000D02*
X129090000Y-108520000D01*
D15*
%TO.C,TB1*%
X127160000Y-64110000D02*
X127160000Y-81890000D01*
X127160000Y-81890000D02*
X170340000Y-81890000D01*
X170340000Y-64110000D02*
X127160000Y-64110000D01*
X170340000Y-81890000D02*
X170340000Y-64110000D01*
D16*
X131070000Y-82500000D02*
G75*
G02*
X130870000Y-82500000I-100000J0D01*
G01*
X130870000Y-82500000D02*
G75*
G02*
X131070000Y-82500000I100000J0D01*
G01*
D14*
%TO.C,J2*%
X143090000Y-107110000D02*
X143090000Y-109610000D01*
X143090000Y-109610000D02*
X145590000Y-109610000D01*
X143500000Y-105400000D02*
X143500000Y-109200000D01*
X143500000Y-109200000D02*
X151000000Y-109200000D01*
X151000000Y-105400000D02*
X143500000Y-105400000D01*
X151000000Y-109200000D02*
X151000000Y-105400000D01*
%TO.C,D1*%
X179300000Y-102500000D02*
X174700000Y-102500000D01*
X179300000Y-99500000D02*
X179300000Y-102500000D01*
X179300000Y-99500000D02*
X174700000Y-99500000D01*
X177501180Y-101750320D02*
X177501180Y-100200920D01*
X177501180Y-101001020D02*
X178499400Y-101001020D01*
X176350560Y-101001020D02*
X177501180Y-101750320D01*
X176350560Y-101001020D02*
X177501180Y-100200920D01*
X176350560Y-101001020D02*
X175448860Y-101001020D01*
X176350560Y-100200920D02*
X176350560Y-101801120D01*
X174700000Y-102500000D02*
X174700000Y-99500000D01*
%TO.C,R3*%
X158360000Y-90587500D02*
X159960000Y-90587500D01*
X158360000Y-91412500D02*
X158360000Y-90587500D01*
X159960000Y-90587500D02*
X159960000Y-91412500D01*
X159960000Y-91412500D02*
X158360000Y-91412500D01*
%TO.C,D4*%
X134200000Y-98600000D02*
X134200000Y-99400000D01*
X134200000Y-99400000D02*
X135500000Y-99400000D01*
X135500000Y-99400000D02*
X135800000Y-99100000D01*
X135800000Y-98600000D02*
X134200000Y-98600000D01*
X135800000Y-99100000D02*
X135800000Y-98600000D01*
%TO.C,R1*%
X170912500Y-100050000D02*
X170087500Y-100050000D01*
X170912500Y-98450000D02*
X170912500Y-100050000D01*
X170087500Y-100050000D02*
X170087500Y-98450000D01*
X170087500Y-98450000D02*
X170912500Y-98450000D01*
%TO.C,R9*%
X155730000Y-101985000D02*
X156270000Y-101985000D01*
X155730000Y-103035000D02*
X155730000Y-101985000D01*
X156270000Y-101985000D02*
X156270000Y-103035000D01*
X156270000Y-103035000D02*
X155730000Y-103035000D01*
%TO.C,Q1*%
X143750000Y-94900000D02*
X143750000Y-100600000D01*
X143750000Y-94900000D02*
X144750000Y-93900000D01*
X143750000Y-100600000D02*
X147450000Y-100600000D01*
X144750000Y-93900000D02*
X147450000Y-93900000D01*
X147450000Y-93900000D02*
X147450000Y-100600000D01*
%TO.C,R7*%
X139265000Y-98730000D02*
X139265000Y-99270000D01*
X138215000Y-98730000D02*
X139265000Y-98730000D01*
X139265000Y-99270000D02*
X138215000Y-99270000D01*
X138215000Y-99270000D02*
X138215000Y-98730000D01*
%TD*%
M02*
