%TF.GenerationSoftware,KiCad,Pcbnew,8.0.7*%
%TF.CreationDate,2024-12-28T13:43:39+03:00*%
%TF.ProjectId,SingleSwitch,53696e67-6c65-4537-9769-7463682e6b69,rev?*%
%TF.SameCoordinates,Original*%
%TF.FileFunction,Legend,Top*%
%TF.FilePolarity,Positive*%
%FSLAX46Y46*%
G04 Gerber Fmt 4.6, Leading zero omitted, Abs format (unit mm)*
G04 Created by KiCad (PCBNEW 8.0.7) date 2024-12-28 13:43:39*
%MOMM*%
%LPD*%
G01*
G04 APERTURE LIST*
%ADD10C,0.250000*%
%ADD11C,0.150000*%
%ADD12C,0.120000*%
%ADD13C,0.100000*%
%ADD14C,0.127000*%
%ADD15C,0.200000*%
G04 APERTURE END LIST*
D10*
X158652568Y-104983666D02*
X159414473Y-104983666D01*
X159033520Y-105364619D02*
X159033520Y-104602714D01*
D11*
X169170112Y-109846009D02*
X168836779Y-109846009D01*
X168836779Y-110369819D02*
X168836779Y-109369819D01*
X168836779Y-109369819D02*
X169312969Y-109369819D01*
X169836779Y-110369819D02*
X169741541Y-110322200D01*
X169741541Y-110322200D02*
X169693922Y-110274580D01*
X169693922Y-110274580D02*
X169646303Y-110179342D01*
X169646303Y-110179342D02*
X169646303Y-109893628D01*
X169646303Y-109893628D02*
X169693922Y-109798390D01*
X169693922Y-109798390D02*
X169741541Y-109750771D01*
X169741541Y-109750771D02*
X169836779Y-109703152D01*
X169836779Y-109703152D02*
X169979636Y-109703152D01*
X169979636Y-109703152D02*
X170074874Y-109750771D01*
X170074874Y-109750771D02*
X170122493Y-109798390D01*
X170122493Y-109798390D02*
X170170112Y-109893628D01*
X170170112Y-109893628D02*
X170170112Y-110179342D01*
X170170112Y-110179342D02*
X170122493Y-110274580D01*
X170122493Y-110274580D02*
X170074874Y-110322200D01*
X170074874Y-110322200D02*
X169979636Y-110369819D01*
X169979636Y-110369819D02*
X169836779Y-110369819D01*
X170741541Y-110369819D02*
X170646303Y-110322200D01*
X170646303Y-110322200D02*
X170598684Y-110274580D01*
X170598684Y-110274580D02*
X170551065Y-110179342D01*
X170551065Y-110179342D02*
X170551065Y-109893628D01*
X170551065Y-109893628D02*
X170598684Y-109798390D01*
X170598684Y-109798390D02*
X170646303Y-109750771D01*
X170646303Y-109750771D02*
X170741541Y-109703152D01*
X170741541Y-109703152D02*
X170884398Y-109703152D01*
X170884398Y-109703152D02*
X170979636Y-109750771D01*
X170979636Y-109750771D02*
X171027255Y-109798390D01*
X171027255Y-109798390D02*
X171074874Y-109893628D01*
X171074874Y-109893628D02*
X171074874Y-110179342D01*
X171074874Y-110179342D02*
X171027255Y-110274580D01*
X171027255Y-110274580D02*
X170979636Y-110322200D01*
X170979636Y-110322200D02*
X170884398Y-110369819D01*
X170884398Y-110369819D02*
X170741541Y-110369819D01*
X171360589Y-109703152D02*
X171741541Y-109703152D01*
X171503446Y-109369819D02*
X171503446Y-110226961D01*
X171503446Y-110226961D02*
X171551065Y-110322200D01*
X171551065Y-110322200D02*
X171646303Y-110369819D01*
X171646303Y-110369819D02*
X171741541Y-110369819D01*
X172789161Y-110322200D02*
X172932018Y-110369819D01*
X172932018Y-110369819D02*
X173170113Y-110369819D01*
X173170113Y-110369819D02*
X173265351Y-110322200D01*
X173265351Y-110322200D02*
X173312970Y-110274580D01*
X173312970Y-110274580D02*
X173360589Y-110179342D01*
X173360589Y-110179342D02*
X173360589Y-110084104D01*
X173360589Y-110084104D02*
X173312970Y-109988866D01*
X173312970Y-109988866D02*
X173265351Y-109941247D01*
X173265351Y-109941247D02*
X173170113Y-109893628D01*
X173170113Y-109893628D02*
X172979637Y-109846009D01*
X172979637Y-109846009D02*
X172884399Y-109798390D01*
X172884399Y-109798390D02*
X172836780Y-109750771D01*
X172836780Y-109750771D02*
X172789161Y-109655533D01*
X172789161Y-109655533D02*
X172789161Y-109560295D01*
X172789161Y-109560295D02*
X172836780Y-109465057D01*
X172836780Y-109465057D02*
X172884399Y-109417438D01*
X172884399Y-109417438D02*
X172979637Y-109369819D01*
X172979637Y-109369819D02*
X173217732Y-109369819D01*
X173217732Y-109369819D02*
X173360589Y-109417438D01*
X174170113Y-110322200D02*
X174074875Y-110369819D01*
X174074875Y-110369819D02*
X173884399Y-110369819D01*
X173884399Y-110369819D02*
X173789161Y-110322200D01*
X173789161Y-110322200D02*
X173741542Y-110226961D01*
X173741542Y-110226961D02*
X173741542Y-109846009D01*
X173741542Y-109846009D02*
X173789161Y-109750771D01*
X173789161Y-109750771D02*
X173884399Y-109703152D01*
X173884399Y-109703152D02*
X174074875Y-109703152D01*
X174074875Y-109703152D02*
X174170113Y-109750771D01*
X174170113Y-109750771D02*
X174217732Y-109846009D01*
X174217732Y-109846009D02*
X174217732Y-109941247D01*
X174217732Y-109941247D02*
X173741542Y-110036485D01*
X174646304Y-110369819D02*
X174646304Y-109703152D01*
X174646304Y-109893628D02*
X174693923Y-109798390D01*
X174693923Y-109798390D02*
X174741542Y-109750771D01*
X174741542Y-109750771D02*
X174836780Y-109703152D01*
X174836780Y-109703152D02*
X174932018Y-109703152D01*
X175170114Y-109703152D02*
X175408209Y-110369819D01*
X175408209Y-110369819D02*
X175646304Y-109703152D01*
X176170114Y-110369819D02*
X176074876Y-110322200D01*
X176074876Y-110322200D02*
X176027257Y-110274580D01*
X176027257Y-110274580D02*
X175979638Y-110179342D01*
X175979638Y-110179342D02*
X175979638Y-109893628D01*
X175979638Y-109893628D02*
X176027257Y-109798390D01*
X176027257Y-109798390D02*
X176074876Y-109750771D01*
X176074876Y-109750771D02*
X176170114Y-109703152D01*
X176170114Y-109703152D02*
X176312971Y-109703152D01*
X176312971Y-109703152D02*
X176408209Y-109750771D01*
X176408209Y-109750771D02*
X176455828Y-109798390D01*
X176455828Y-109798390D02*
X176503447Y-109893628D01*
X176503447Y-109893628D02*
X176503447Y-110179342D01*
X176503447Y-110179342D02*
X176455828Y-110274580D01*
X176455828Y-110274580D02*
X176408209Y-110322200D01*
X176408209Y-110322200D02*
X176312971Y-110369819D01*
X176312971Y-110369819D02*
X176170114Y-110369819D01*
D10*
X171902568Y-104733666D02*
X172664473Y-104733666D01*
X172283520Y-105114619D02*
X172283520Y-104352714D01*
X144902568Y-103983666D02*
X145664473Y-103983666D01*
X145283520Y-104364619D02*
X145283520Y-103602714D01*
X148902568Y-104233666D02*
X149664473Y-104233666D01*
D11*
X129039160Y-110572200D02*
X129182017Y-110619819D01*
X129182017Y-110619819D02*
X129420112Y-110619819D01*
X129420112Y-110619819D02*
X129515350Y-110572200D01*
X129515350Y-110572200D02*
X129562969Y-110524580D01*
X129562969Y-110524580D02*
X129610588Y-110429342D01*
X129610588Y-110429342D02*
X129610588Y-110334104D01*
X129610588Y-110334104D02*
X129562969Y-110238866D01*
X129562969Y-110238866D02*
X129515350Y-110191247D01*
X129515350Y-110191247D02*
X129420112Y-110143628D01*
X129420112Y-110143628D02*
X129229636Y-110096009D01*
X129229636Y-110096009D02*
X129134398Y-110048390D01*
X129134398Y-110048390D02*
X129086779Y-110000771D01*
X129086779Y-110000771D02*
X129039160Y-109905533D01*
X129039160Y-109905533D02*
X129039160Y-109810295D01*
X129039160Y-109810295D02*
X129086779Y-109715057D01*
X129086779Y-109715057D02*
X129134398Y-109667438D01*
X129134398Y-109667438D02*
X129229636Y-109619819D01*
X129229636Y-109619819D02*
X129467731Y-109619819D01*
X129467731Y-109619819D02*
X129610588Y-109667438D01*
X129943922Y-109619819D02*
X130182017Y-110619819D01*
X130182017Y-110619819D02*
X130372493Y-109905533D01*
X130372493Y-109905533D02*
X130562969Y-110619819D01*
X130562969Y-110619819D02*
X130801065Y-109619819D01*
X131182017Y-110619819D02*
X131182017Y-109619819D01*
X131515350Y-109619819D02*
X132086778Y-109619819D01*
X131801064Y-110619819D02*
X131801064Y-109619819D01*
X132991540Y-110524580D02*
X132943921Y-110572200D01*
X132943921Y-110572200D02*
X132801064Y-110619819D01*
X132801064Y-110619819D02*
X132705826Y-110619819D01*
X132705826Y-110619819D02*
X132562969Y-110572200D01*
X132562969Y-110572200D02*
X132467731Y-110476961D01*
X132467731Y-110476961D02*
X132420112Y-110381723D01*
X132420112Y-110381723D02*
X132372493Y-110191247D01*
X132372493Y-110191247D02*
X132372493Y-110048390D01*
X132372493Y-110048390D02*
X132420112Y-109857914D01*
X132420112Y-109857914D02*
X132467731Y-109762676D01*
X132467731Y-109762676D02*
X132562969Y-109667438D01*
X132562969Y-109667438D02*
X132705826Y-109619819D01*
X132705826Y-109619819D02*
X132801064Y-109619819D01*
X132801064Y-109619819D02*
X132943921Y-109667438D01*
X132943921Y-109667438D02*
X132991540Y-109715057D01*
X133420112Y-110619819D02*
X133420112Y-109619819D01*
X133420112Y-110096009D02*
X133991540Y-110096009D01*
X133991540Y-110619819D02*
X133991540Y-109619819D01*
X155712969Y-92819819D02*
X155236779Y-92819819D01*
X155236779Y-92819819D02*
X155189160Y-93296009D01*
X155189160Y-93296009D02*
X155236779Y-93248390D01*
X155236779Y-93248390D02*
X155332017Y-93200771D01*
X155332017Y-93200771D02*
X155570112Y-93200771D01*
X155570112Y-93200771D02*
X155665350Y-93248390D01*
X155665350Y-93248390D02*
X155712969Y-93296009D01*
X155712969Y-93296009D02*
X155760588Y-93391247D01*
X155760588Y-93391247D02*
X155760588Y-93629342D01*
X155760588Y-93629342D02*
X155712969Y-93724580D01*
X155712969Y-93724580D02*
X155665350Y-93772200D01*
X155665350Y-93772200D02*
X155570112Y-93819819D01*
X155570112Y-93819819D02*
X155332017Y-93819819D01*
X155332017Y-93819819D02*
X155236779Y-93772200D01*
X155236779Y-93772200D02*
X155189160Y-93724580D01*
X156046303Y-92819819D02*
X156379636Y-93819819D01*
X156379636Y-93819819D02*
X156712969Y-92819819D01*
X157760589Y-93772200D02*
X157903446Y-93819819D01*
X157903446Y-93819819D02*
X158141541Y-93819819D01*
X158141541Y-93819819D02*
X158236779Y-93772200D01*
X158236779Y-93772200D02*
X158284398Y-93724580D01*
X158284398Y-93724580D02*
X158332017Y-93629342D01*
X158332017Y-93629342D02*
X158332017Y-93534104D01*
X158332017Y-93534104D02*
X158284398Y-93438866D01*
X158284398Y-93438866D02*
X158236779Y-93391247D01*
X158236779Y-93391247D02*
X158141541Y-93343628D01*
X158141541Y-93343628D02*
X157951065Y-93296009D01*
X157951065Y-93296009D02*
X157855827Y-93248390D01*
X157855827Y-93248390D02*
X157808208Y-93200771D01*
X157808208Y-93200771D02*
X157760589Y-93105533D01*
X157760589Y-93105533D02*
X157760589Y-93010295D01*
X157760589Y-93010295D02*
X157808208Y-92915057D01*
X157808208Y-92915057D02*
X157855827Y-92867438D01*
X157855827Y-92867438D02*
X157951065Y-92819819D01*
X157951065Y-92819819D02*
X158189160Y-92819819D01*
X158189160Y-92819819D02*
X158332017Y-92867438D01*
X158665351Y-93153152D02*
X158855827Y-93819819D01*
X158855827Y-93819819D02*
X159046303Y-93343628D01*
X159046303Y-93343628D02*
X159236779Y-93819819D01*
X159236779Y-93819819D02*
X159427255Y-93153152D01*
X159808208Y-93819819D02*
X159808208Y-93153152D01*
X159808208Y-92819819D02*
X159760589Y-92867438D01*
X159760589Y-92867438D02*
X159808208Y-92915057D01*
X159808208Y-92915057D02*
X159855827Y-92867438D01*
X159855827Y-92867438D02*
X159808208Y-92819819D01*
X159808208Y-92819819D02*
X159808208Y-92915057D01*
X160141541Y-93153152D02*
X160522493Y-93153152D01*
X160284398Y-92819819D02*
X160284398Y-93676961D01*
X160284398Y-93676961D02*
X160332017Y-93772200D01*
X160332017Y-93772200D02*
X160427255Y-93819819D01*
X160427255Y-93819819D02*
X160522493Y-93819819D01*
X161284398Y-93772200D02*
X161189160Y-93819819D01*
X161189160Y-93819819D02*
X160998684Y-93819819D01*
X160998684Y-93819819D02*
X160903446Y-93772200D01*
X160903446Y-93772200D02*
X160855827Y-93724580D01*
X160855827Y-93724580D02*
X160808208Y-93629342D01*
X160808208Y-93629342D02*
X160808208Y-93343628D01*
X160808208Y-93343628D02*
X160855827Y-93248390D01*
X160855827Y-93248390D02*
X160903446Y-93200771D01*
X160903446Y-93200771D02*
X160998684Y-93153152D01*
X160998684Y-93153152D02*
X161189160Y-93153152D01*
X161189160Y-93153152D02*
X161284398Y-93200771D01*
X161712970Y-93819819D02*
X161712970Y-92819819D01*
X162141541Y-93819819D02*
X162141541Y-93296009D01*
X162141541Y-93296009D02*
X162093922Y-93200771D01*
X162093922Y-93200771D02*
X161998684Y-93153152D01*
X161998684Y-93153152D02*
X161855827Y-93153152D01*
X161855827Y-93153152D02*
X161760589Y-93200771D01*
X161760589Y-93200771D02*
X161712970Y-93248390D01*
D10*
X165402568Y-106483666D02*
X166164473Y-106483666D01*
D11*
X157812969Y-110369819D02*
X157336779Y-110369819D01*
X157336779Y-110369819D02*
X157336779Y-109369819D01*
X158146303Y-110369819D02*
X158146303Y-109703152D01*
X158146303Y-109369819D02*
X158098684Y-109417438D01*
X158098684Y-109417438D02*
X158146303Y-109465057D01*
X158146303Y-109465057D02*
X158193922Y-109417438D01*
X158193922Y-109417438D02*
X158146303Y-109369819D01*
X158146303Y-109369819D02*
X158146303Y-109465057D01*
X158622493Y-110369819D02*
X158622493Y-109369819D01*
X158622493Y-109369819D02*
X158860588Y-109369819D01*
X158860588Y-109369819D02*
X159003445Y-109417438D01*
X159003445Y-109417438D02*
X159098683Y-109512676D01*
X159098683Y-109512676D02*
X159146302Y-109607914D01*
X159146302Y-109607914D02*
X159193921Y-109798390D01*
X159193921Y-109798390D02*
X159193921Y-109941247D01*
X159193921Y-109941247D02*
X159146302Y-110131723D01*
X159146302Y-110131723D02*
X159098683Y-110226961D01*
X159098683Y-110226961D02*
X159003445Y-110322200D01*
X159003445Y-110322200D02*
X158860588Y-110369819D01*
X158860588Y-110369819D02*
X158622493Y-110369819D01*
X160336779Y-110322200D02*
X160479636Y-110369819D01*
X160479636Y-110369819D02*
X160717731Y-110369819D01*
X160717731Y-110369819D02*
X160812969Y-110322200D01*
X160812969Y-110322200D02*
X160860588Y-110274580D01*
X160860588Y-110274580D02*
X160908207Y-110179342D01*
X160908207Y-110179342D02*
X160908207Y-110084104D01*
X160908207Y-110084104D02*
X160860588Y-109988866D01*
X160860588Y-109988866D02*
X160812969Y-109941247D01*
X160812969Y-109941247D02*
X160717731Y-109893628D01*
X160717731Y-109893628D02*
X160527255Y-109846009D01*
X160527255Y-109846009D02*
X160432017Y-109798390D01*
X160432017Y-109798390D02*
X160384398Y-109750771D01*
X160384398Y-109750771D02*
X160336779Y-109655533D01*
X160336779Y-109655533D02*
X160336779Y-109560295D01*
X160336779Y-109560295D02*
X160384398Y-109465057D01*
X160384398Y-109465057D02*
X160432017Y-109417438D01*
X160432017Y-109417438D02*
X160527255Y-109369819D01*
X160527255Y-109369819D02*
X160765350Y-109369819D01*
X160765350Y-109369819D02*
X160908207Y-109417438D01*
X161717731Y-110322200D02*
X161622493Y-110369819D01*
X161622493Y-110369819D02*
X161432017Y-110369819D01*
X161432017Y-110369819D02*
X161336779Y-110322200D01*
X161336779Y-110322200D02*
X161289160Y-110226961D01*
X161289160Y-110226961D02*
X161289160Y-109846009D01*
X161289160Y-109846009D02*
X161336779Y-109750771D01*
X161336779Y-109750771D02*
X161432017Y-109703152D01*
X161432017Y-109703152D02*
X161622493Y-109703152D01*
X161622493Y-109703152D02*
X161717731Y-109750771D01*
X161717731Y-109750771D02*
X161765350Y-109846009D01*
X161765350Y-109846009D02*
X161765350Y-109941247D01*
X161765350Y-109941247D02*
X161289160Y-110036485D01*
X162193922Y-110369819D02*
X162193922Y-109703152D01*
X162193922Y-109893628D02*
X162241541Y-109798390D01*
X162241541Y-109798390D02*
X162289160Y-109750771D01*
X162289160Y-109750771D02*
X162384398Y-109703152D01*
X162384398Y-109703152D02*
X162479636Y-109703152D01*
X162717732Y-109703152D02*
X162955827Y-110369819D01*
X162955827Y-110369819D02*
X163193922Y-109703152D01*
X163717732Y-110369819D02*
X163622494Y-110322200D01*
X163622494Y-110322200D02*
X163574875Y-110274580D01*
X163574875Y-110274580D02*
X163527256Y-110179342D01*
X163527256Y-110179342D02*
X163527256Y-109893628D01*
X163527256Y-109893628D02*
X163574875Y-109798390D01*
X163574875Y-109798390D02*
X163622494Y-109750771D01*
X163622494Y-109750771D02*
X163717732Y-109703152D01*
X163717732Y-109703152D02*
X163860589Y-109703152D01*
X163860589Y-109703152D02*
X163955827Y-109750771D01*
X163955827Y-109750771D02*
X164003446Y-109798390D01*
X164003446Y-109798390D02*
X164051065Y-109893628D01*
X164051065Y-109893628D02*
X164051065Y-110179342D01*
X164051065Y-110179342D02*
X164003446Y-110274580D01*
X164003446Y-110274580D02*
X163955827Y-110322200D01*
X163955827Y-110322200D02*
X163860589Y-110369819D01*
X163860589Y-110369819D02*
X163717732Y-110369819D01*
D10*
X176402568Y-104983666D02*
X177164473Y-104983666D01*
D11*
X142357142Y-62609580D02*
X142309523Y-62657200D01*
X142309523Y-62657200D02*
X142166666Y-62704819D01*
X142166666Y-62704819D02*
X142071428Y-62704819D01*
X142071428Y-62704819D02*
X141928571Y-62657200D01*
X141928571Y-62657200D02*
X141833333Y-62561961D01*
X141833333Y-62561961D02*
X141785714Y-62466723D01*
X141785714Y-62466723D02*
X141738095Y-62276247D01*
X141738095Y-62276247D02*
X141738095Y-62133390D01*
X141738095Y-62133390D02*
X141785714Y-61942914D01*
X141785714Y-61942914D02*
X141833333Y-61847676D01*
X141833333Y-61847676D02*
X141928571Y-61752438D01*
X141928571Y-61752438D02*
X142071428Y-61704819D01*
X142071428Y-61704819D02*
X142166666Y-61704819D01*
X142166666Y-61704819D02*
X142309523Y-61752438D01*
X142309523Y-61752438D02*
X142357142Y-61800057D01*
X143309523Y-62704819D02*
X142738095Y-62704819D01*
X143023809Y-62704819D02*
X143023809Y-61704819D01*
X143023809Y-61704819D02*
X142928571Y-61847676D01*
X142928571Y-61847676D02*
X142833333Y-61942914D01*
X142833333Y-61942914D02*
X142738095Y-61990533D01*
X144261904Y-62704819D02*
X143690476Y-62704819D01*
X143976190Y-62704819D02*
X143976190Y-61704819D01*
X143976190Y-61704819D02*
X143880952Y-61847676D01*
X143880952Y-61847676D02*
X143785714Y-61942914D01*
X143785714Y-61942914D02*
X143690476Y-61990533D01*
X131857142Y-62609580D02*
X131809523Y-62657200D01*
X131809523Y-62657200D02*
X131666666Y-62704819D01*
X131666666Y-62704819D02*
X131571428Y-62704819D01*
X131571428Y-62704819D02*
X131428571Y-62657200D01*
X131428571Y-62657200D02*
X131333333Y-62561961D01*
X131333333Y-62561961D02*
X131285714Y-62466723D01*
X131285714Y-62466723D02*
X131238095Y-62276247D01*
X131238095Y-62276247D02*
X131238095Y-62133390D01*
X131238095Y-62133390D02*
X131285714Y-61942914D01*
X131285714Y-61942914D02*
X131333333Y-61847676D01*
X131333333Y-61847676D02*
X131428571Y-61752438D01*
X131428571Y-61752438D02*
X131571428Y-61704819D01*
X131571428Y-61704819D02*
X131666666Y-61704819D01*
X131666666Y-61704819D02*
X131809523Y-61752438D01*
X131809523Y-61752438D02*
X131857142Y-61800057D01*
X132809523Y-62704819D02*
X132238095Y-62704819D01*
X132523809Y-62704819D02*
X132523809Y-61704819D01*
X132523809Y-61704819D02*
X132428571Y-61847676D01*
X132428571Y-61847676D02*
X132333333Y-61942914D01*
X132333333Y-61942914D02*
X132238095Y-61990533D01*
X133428571Y-61704819D02*
X133523809Y-61704819D01*
X133523809Y-61704819D02*
X133619047Y-61752438D01*
X133619047Y-61752438D02*
X133666666Y-61800057D01*
X133666666Y-61800057D02*
X133714285Y-61895295D01*
X133714285Y-61895295D02*
X133761904Y-62085771D01*
X133761904Y-62085771D02*
X133761904Y-62323866D01*
X133761904Y-62323866D02*
X133714285Y-62514342D01*
X133714285Y-62514342D02*
X133666666Y-62609580D01*
X133666666Y-62609580D02*
X133619047Y-62657200D01*
X133619047Y-62657200D02*
X133523809Y-62704819D01*
X133523809Y-62704819D02*
X133428571Y-62704819D01*
X133428571Y-62704819D02*
X133333333Y-62657200D01*
X133333333Y-62657200D02*
X133285714Y-62609580D01*
X133285714Y-62609580D02*
X133238095Y-62514342D01*
X133238095Y-62514342D02*
X133190476Y-62323866D01*
X133190476Y-62323866D02*
X133190476Y-62085771D01*
X133190476Y-62085771D02*
X133238095Y-61895295D01*
X133238095Y-61895295D02*
X133285714Y-61800057D01*
X133285714Y-61800057D02*
X133333333Y-61752438D01*
X133333333Y-61752438D02*
X133428571Y-61704819D01*
X135597142Y-96704819D02*
X135263809Y-96228628D01*
X135025714Y-96704819D02*
X135025714Y-95704819D01*
X135025714Y-95704819D02*
X135406666Y-95704819D01*
X135406666Y-95704819D02*
X135501904Y-95752438D01*
X135501904Y-95752438D02*
X135549523Y-95800057D01*
X135549523Y-95800057D02*
X135597142Y-95895295D01*
X135597142Y-95895295D02*
X135597142Y-96038152D01*
X135597142Y-96038152D02*
X135549523Y-96133390D01*
X135549523Y-96133390D02*
X135501904Y-96181009D01*
X135501904Y-96181009D02*
X135406666Y-96228628D01*
X135406666Y-96228628D02*
X135025714Y-96228628D01*
X136549523Y-96704819D02*
X135978095Y-96704819D01*
X136263809Y-96704819D02*
X136263809Y-95704819D01*
X136263809Y-95704819D02*
X136168571Y-95847676D01*
X136168571Y-95847676D02*
X136073333Y-95942914D01*
X136073333Y-95942914D02*
X135978095Y-95990533D01*
X137168571Y-95704819D02*
X137263809Y-95704819D01*
X137263809Y-95704819D02*
X137359047Y-95752438D01*
X137359047Y-95752438D02*
X137406666Y-95800057D01*
X137406666Y-95800057D02*
X137454285Y-95895295D01*
X137454285Y-95895295D02*
X137501904Y-96085771D01*
X137501904Y-96085771D02*
X137501904Y-96323866D01*
X137501904Y-96323866D02*
X137454285Y-96514342D01*
X137454285Y-96514342D02*
X137406666Y-96609580D01*
X137406666Y-96609580D02*
X137359047Y-96657200D01*
X137359047Y-96657200D02*
X137263809Y-96704819D01*
X137263809Y-96704819D02*
X137168571Y-96704819D01*
X137168571Y-96704819D02*
X137073333Y-96657200D01*
X137073333Y-96657200D02*
X137025714Y-96609580D01*
X137025714Y-96609580D02*
X136978095Y-96514342D01*
X136978095Y-96514342D02*
X136930476Y-96323866D01*
X136930476Y-96323866D02*
X136930476Y-96085771D01*
X136930476Y-96085771D02*
X136978095Y-95895295D01*
X136978095Y-95895295D02*
X137025714Y-95800057D01*
X137025714Y-95800057D02*
X137073333Y-95752438D01*
X137073333Y-95752438D02*
X137168571Y-95704819D01*
X129916666Y-98559819D02*
X129916666Y-99274104D01*
X129916666Y-99274104D02*
X129869047Y-99416961D01*
X129869047Y-99416961D02*
X129773809Y-99512200D01*
X129773809Y-99512200D02*
X129630952Y-99559819D01*
X129630952Y-99559819D02*
X129535714Y-99559819D01*
X130821428Y-98559819D02*
X130630952Y-98559819D01*
X130630952Y-98559819D02*
X130535714Y-98607438D01*
X130535714Y-98607438D02*
X130488095Y-98655057D01*
X130488095Y-98655057D02*
X130392857Y-98797914D01*
X130392857Y-98797914D02*
X130345238Y-98988390D01*
X130345238Y-98988390D02*
X130345238Y-99369342D01*
X130345238Y-99369342D02*
X130392857Y-99464580D01*
X130392857Y-99464580D02*
X130440476Y-99512200D01*
X130440476Y-99512200D02*
X130535714Y-99559819D01*
X130535714Y-99559819D02*
X130726190Y-99559819D01*
X130726190Y-99559819D02*
X130821428Y-99512200D01*
X130821428Y-99512200D02*
X130869047Y-99464580D01*
X130869047Y-99464580D02*
X130916666Y-99369342D01*
X130916666Y-99369342D02*
X130916666Y-99131247D01*
X130916666Y-99131247D02*
X130869047Y-99036009D01*
X130869047Y-99036009D02*
X130821428Y-98988390D01*
X130821428Y-98988390D02*
X130726190Y-98940771D01*
X130726190Y-98940771D02*
X130535714Y-98940771D01*
X130535714Y-98940771D02*
X130440476Y-98988390D01*
X130440476Y-98988390D02*
X130392857Y-99036009D01*
X130392857Y-99036009D02*
X130345238Y-99131247D01*
X177083333Y-104609580D02*
X177035714Y-104657200D01*
X177035714Y-104657200D02*
X176892857Y-104704819D01*
X176892857Y-104704819D02*
X176797619Y-104704819D01*
X176797619Y-104704819D02*
X176654762Y-104657200D01*
X176654762Y-104657200D02*
X176559524Y-104561961D01*
X176559524Y-104561961D02*
X176511905Y-104466723D01*
X176511905Y-104466723D02*
X176464286Y-104276247D01*
X176464286Y-104276247D02*
X176464286Y-104133390D01*
X176464286Y-104133390D02*
X176511905Y-103942914D01*
X176511905Y-103942914D02*
X176559524Y-103847676D01*
X176559524Y-103847676D02*
X176654762Y-103752438D01*
X176654762Y-103752438D02*
X176797619Y-103704819D01*
X176797619Y-103704819D02*
X176892857Y-103704819D01*
X176892857Y-103704819D02*
X177035714Y-103752438D01*
X177035714Y-103752438D02*
X177083333Y-103800057D01*
X177559524Y-104704819D02*
X177750000Y-104704819D01*
X177750000Y-104704819D02*
X177845238Y-104657200D01*
X177845238Y-104657200D02*
X177892857Y-104609580D01*
X177892857Y-104609580D02*
X177988095Y-104466723D01*
X177988095Y-104466723D02*
X178035714Y-104276247D01*
X178035714Y-104276247D02*
X178035714Y-103895295D01*
X178035714Y-103895295D02*
X177988095Y-103800057D01*
X177988095Y-103800057D02*
X177940476Y-103752438D01*
X177940476Y-103752438D02*
X177845238Y-103704819D01*
X177845238Y-103704819D02*
X177654762Y-103704819D01*
X177654762Y-103704819D02*
X177559524Y-103752438D01*
X177559524Y-103752438D02*
X177511905Y-103800057D01*
X177511905Y-103800057D02*
X177464286Y-103895295D01*
X177464286Y-103895295D02*
X177464286Y-104133390D01*
X177464286Y-104133390D02*
X177511905Y-104228628D01*
X177511905Y-104228628D02*
X177559524Y-104276247D01*
X177559524Y-104276247D02*
X177654762Y-104323866D01*
X177654762Y-104323866D02*
X177845238Y-104323866D01*
X177845238Y-104323866D02*
X177940476Y-104276247D01*
X177940476Y-104276247D02*
X177988095Y-104228628D01*
X177988095Y-104228628D02*
X178035714Y-104133390D01*
X160833333Y-103179580D02*
X160785714Y-103227200D01*
X160785714Y-103227200D02*
X160642857Y-103274819D01*
X160642857Y-103274819D02*
X160547619Y-103274819D01*
X160547619Y-103274819D02*
X160404762Y-103227200D01*
X160404762Y-103227200D02*
X160309524Y-103131961D01*
X160309524Y-103131961D02*
X160261905Y-103036723D01*
X160261905Y-103036723D02*
X160214286Y-102846247D01*
X160214286Y-102846247D02*
X160214286Y-102703390D01*
X160214286Y-102703390D02*
X160261905Y-102512914D01*
X160261905Y-102512914D02*
X160309524Y-102417676D01*
X160309524Y-102417676D02*
X160404762Y-102322438D01*
X160404762Y-102322438D02*
X160547619Y-102274819D01*
X160547619Y-102274819D02*
X160642857Y-102274819D01*
X160642857Y-102274819D02*
X160785714Y-102322438D01*
X160785714Y-102322438D02*
X160833333Y-102370057D01*
X161404762Y-102703390D02*
X161309524Y-102655771D01*
X161309524Y-102655771D02*
X161261905Y-102608152D01*
X161261905Y-102608152D02*
X161214286Y-102512914D01*
X161214286Y-102512914D02*
X161214286Y-102465295D01*
X161214286Y-102465295D02*
X161261905Y-102370057D01*
X161261905Y-102370057D02*
X161309524Y-102322438D01*
X161309524Y-102322438D02*
X161404762Y-102274819D01*
X161404762Y-102274819D02*
X161595238Y-102274819D01*
X161595238Y-102274819D02*
X161690476Y-102322438D01*
X161690476Y-102322438D02*
X161738095Y-102370057D01*
X161738095Y-102370057D02*
X161785714Y-102465295D01*
X161785714Y-102465295D02*
X161785714Y-102512914D01*
X161785714Y-102512914D02*
X161738095Y-102608152D01*
X161738095Y-102608152D02*
X161690476Y-102655771D01*
X161690476Y-102655771D02*
X161595238Y-102703390D01*
X161595238Y-102703390D02*
X161404762Y-102703390D01*
X161404762Y-102703390D02*
X161309524Y-102751009D01*
X161309524Y-102751009D02*
X161261905Y-102798628D01*
X161261905Y-102798628D02*
X161214286Y-102893866D01*
X161214286Y-102893866D02*
X161214286Y-103084342D01*
X161214286Y-103084342D02*
X161261905Y-103179580D01*
X161261905Y-103179580D02*
X161309524Y-103227200D01*
X161309524Y-103227200D02*
X161404762Y-103274819D01*
X161404762Y-103274819D02*
X161595238Y-103274819D01*
X161595238Y-103274819D02*
X161690476Y-103227200D01*
X161690476Y-103227200D02*
X161738095Y-103179580D01*
X161738095Y-103179580D02*
X161785714Y-103084342D01*
X161785714Y-103084342D02*
X161785714Y-102893866D01*
X161785714Y-102893866D02*
X161738095Y-102798628D01*
X161738095Y-102798628D02*
X161690476Y-102751009D01*
X161690476Y-102751009D02*
X161595238Y-102703390D01*
X154679580Y-99916666D02*
X154727200Y-99964285D01*
X154727200Y-99964285D02*
X154774819Y-100107142D01*
X154774819Y-100107142D02*
X154774819Y-100202380D01*
X154774819Y-100202380D02*
X154727200Y-100345237D01*
X154727200Y-100345237D02*
X154631961Y-100440475D01*
X154631961Y-100440475D02*
X154536723Y-100488094D01*
X154536723Y-100488094D02*
X154346247Y-100535713D01*
X154346247Y-100535713D02*
X154203390Y-100535713D01*
X154203390Y-100535713D02*
X154012914Y-100488094D01*
X154012914Y-100488094D02*
X153917676Y-100440475D01*
X153917676Y-100440475D02*
X153822438Y-100345237D01*
X153822438Y-100345237D02*
X153774819Y-100202380D01*
X153774819Y-100202380D02*
X153774819Y-100107142D01*
X153774819Y-100107142D02*
X153822438Y-99964285D01*
X153822438Y-99964285D02*
X153870057Y-99916666D01*
X153774819Y-99059523D02*
X153774819Y-99249999D01*
X153774819Y-99249999D02*
X153822438Y-99345237D01*
X153822438Y-99345237D02*
X153870057Y-99392856D01*
X153870057Y-99392856D02*
X154012914Y-99488094D01*
X154012914Y-99488094D02*
X154203390Y-99535713D01*
X154203390Y-99535713D02*
X154584342Y-99535713D01*
X154584342Y-99535713D02*
X154679580Y-99488094D01*
X154679580Y-99488094D02*
X154727200Y-99440475D01*
X154727200Y-99440475D02*
X154774819Y-99345237D01*
X154774819Y-99345237D02*
X154774819Y-99154761D01*
X154774819Y-99154761D02*
X154727200Y-99059523D01*
X154727200Y-99059523D02*
X154679580Y-99011904D01*
X154679580Y-99011904D02*
X154584342Y-98964285D01*
X154584342Y-98964285D02*
X154346247Y-98964285D01*
X154346247Y-98964285D02*
X154251009Y-99011904D01*
X154251009Y-99011904D02*
X154203390Y-99059523D01*
X154203390Y-99059523D02*
X154155771Y-99154761D01*
X154155771Y-99154761D02*
X154155771Y-99345237D01*
X154155771Y-99345237D02*
X154203390Y-99440475D01*
X154203390Y-99440475D02*
X154251009Y-99488094D01*
X154251009Y-99488094D02*
X154346247Y-99535713D01*
X160109580Y-99666666D02*
X160157200Y-99714285D01*
X160157200Y-99714285D02*
X160204819Y-99857142D01*
X160204819Y-99857142D02*
X160204819Y-99952380D01*
X160204819Y-99952380D02*
X160157200Y-100095237D01*
X160157200Y-100095237D02*
X160061961Y-100190475D01*
X160061961Y-100190475D02*
X159966723Y-100238094D01*
X159966723Y-100238094D02*
X159776247Y-100285713D01*
X159776247Y-100285713D02*
X159633390Y-100285713D01*
X159633390Y-100285713D02*
X159442914Y-100238094D01*
X159442914Y-100238094D02*
X159347676Y-100190475D01*
X159347676Y-100190475D02*
X159252438Y-100095237D01*
X159252438Y-100095237D02*
X159204819Y-99952380D01*
X159204819Y-99952380D02*
X159204819Y-99857142D01*
X159204819Y-99857142D02*
X159252438Y-99714285D01*
X159252438Y-99714285D02*
X159300057Y-99666666D01*
X159204819Y-98761904D02*
X159204819Y-99238094D01*
X159204819Y-99238094D02*
X159681009Y-99285713D01*
X159681009Y-99285713D02*
X159633390Y-99238094D01*
X159633390Y-99238094D02*
X159585771Y-99142856D01*
X159585771Y-99142856D02*
X159585771Y-98904761D01*
X159585771Y-98904761D02*
X159633390Y-98809523D01*
X159633390Y-98809523D02*
X159681009Y-98761904D01*
X159681009Y-98761904D02*
X159776247Y-98714285D01*
X159776247Y-98714285D02*
X160014342Y-98714285D01*
X160014342Y-98714285D02*
X160109580Y-98761904D01*
X160109580Y-98761904D02*
X160157200Y-98809523D01*
X160157200Y-98809523D02*
X160204819Y-98904761D01*
X160204819Y-98904761D02*
X160204819Y-99142856D01*
X160204819Y-99142856D02*
X160157200Y-99238094D01*
X160157200Y-99238094D02*
X160109580Y-99285713D01*
X163109580Y-99416666D02*
X163157200Y-99464285D01*
X163157200Y-99464285D02*
X163204819Y-99607142D01*
X163204819Y-99607142D02*
X163204819Y-99702380D01*
X163204819Y-99702380D02*
X163157200Y-99845237D01*
X163157200Y-99845237D02*
X163061961Y-99940475D01*
X163061961Y-99940475D02*
X162966723Y-99988094D01*
X162966723Y-99988094D02*
X162776247Y-100035713D01*
X162776247Y-100035713D02*
X162633390Y-100035713D01*
X162633390Y-100035713D02*
X162442914Y-99988094D01*
X162442914Y-99988094D02*
X162347676Y-99940475D01*
X162347676Y-99940475D02*
X162252438Y-99845237D01*
X162252438Y-99845237D02*
X162204819Y-99702380D01*
X162204819Y-99702380D02*
X162204819Y-99607142D01*
X162204819Y-99607142D02*
X162252438Y-99464285D01*
X162252438Y-99464285D02*
X162300057Y-99416666D01*
X162538152Y-98559523D02*
X163204819Y-98559523D01*
X162157200Y-98797618D02*
X162871485Y-99035713D01*
X162871485Y-99035713D02*
X162871485Y-98416666D01*
X168109580Y-99666666D02*
X168157200Y-99714285D01*
X168157200Y-99714285D02*
X168204819Y-99857142D01*
X168204819Y-99857142D02*
X168204819Y-99952380D01*
X168204819Y-99952380D02*
X168157200Y-100095237D01*
X168157200Y-100095237D02*
X168061961Y-100190475D01*
X168061961Y-100190475D02*
X167966723Y-100238094D01*
X167966723Y-100238094D02*
X167776247Y-100285713D01*
X167776247Y-100285713D02*
X167633390Y-100285713D01*
X167633390Y-100285713D02*
X167442914Y-100238094D01*
X167442914Y-100238094D02*
X167347676Y-100190475D01*
X167347676Y-100190475D02*
X167252438Y-100095237D01*
X167252438Y-100095237D02*
X167204819Y-99952380D01*
X167204819Y-99952380D02*
X167204819Y-99857142D01*
X167204819Y-99857142D02*
X167252438Y-99714285D01*
X167252438Y-99714285D02*
X167300057Y-99666666D01*
X167204819Y-99333332D02*
X167204819Y-98714285D01*
X167204819Y-98714285D02*
X167585771Y-99047618D01*
X167585771Y-99047618D02*
X167585771Y-98904761D01*
X167585771Y-98904761D02*
X167633390Y-98809523D01*
X167633390Y-98809523D02*
X167681009Y-98761904D01*
X167681009Y-98761904D02*
X167776247Y-98714285D01*
X167776247Y-98714285D02*
X168014342Y-98714285D01*
X168014342Y-98714285D02*
X168109580Y-98761904D01*
X168109580Y-98761904D02*
X168157200Y-98809523D01*
X168157200Y-98809523D02*
X168204819Y-98904761D01*
X168204819Y-98904761D02*
X168204819Y-99190475D01*
X168204819Y-99190475D02*
X168157200Y-99285713D01*
X168157200Y-99285713D02*
X168109580Y-99333332D01*
X165109580Y-92166666D02*
X165157200Y-92214285D01*
X165157200Y-92214285D02*
X165204819Y-92357142D01*
X165204819Y-92357142D02*
X165204819Y-92452380D01*
X165204819Y-92452380D02*
X165157200Y-92595237D01*
X165157200Y-92595237D02*
X165061961Y-92690475D01*
X165061961Y-92690475D02*
X164966723Y-92738094D01*
X164966723Y-92738094D02*
X164776247Y-92785713D01*
X164776247Y-92785713D02*
X164633390Y-92785713D01*
X164633390Y-92785713D02*
X164442914Y-92738094D01*
X164442914Y-92738094D02*
X164347676Y-92690475D01*
X164347676Y-92690475D02*
X164252438Y-92595237D01*
X164252438Y-92595237D02*
X164204819Y-92452380D01*
X164204819Y-92452380D02*
X164204819Y-92357142D01*
X164204819Y-92357142D02*
X164252438Y-92214285D01*
X164252438Y-92214285D02*
X164300057Y-92166666D01*
X164300057Y-91785713D02*
X164252438Y-91738094D01*
X164252438Y-91738094D02*
X164204819Y-91642856D01*
X164204819Y-91642856D02*
X164204819Y-91404761D01*
X164204819Y-91404761D02*
X164252438Y-91309523D01*
X164252438Y-91309523D02*
X164300057Y-91261904D01*
X164300057Y-91261904D02*
X164395295Y-91214285D01*
X164395295Y-91214285D02*
X164490533Y-91214285D01*
X164490533Y-91214285D02*
X164633390Y-91261904D01*
X164633390Y-91261904D02*
X165204819Y-91833332D01*
X165204819Y-91833332D02*
X165204819Y-91214285D01*
X130083333Y-101524819D02*
X129750000Y-101048628D01*
X129511905Y-101524819D02*
X129511905Y-100524819D01*
X129511905Y-100524819D02*
X129892857Y-100524819D01*
X129892857Y-100524819D02*
X129988095Y-100572438D01*
X129988095Y-100572438D02*
X130035714Y-100620057D01*
X130035714Y-100620057D02*
X130083333Y-100715295D01*
X130083333Y-100715295D02*
X130083333Y-100858152D01*
X130083333Y-100858152D02*
X130035714Y-100953390D01*
X130035714Y-100953390D02*
X129988095Y-101001009D01*
X129988095Y-101001009D02*
X129892857Y-101048628D01*
X129892857Y-101048628D02*
X129511905Y-101048628D01*
X130940476Y-100524819D02*
X130750000Y-100524819D01*
X130750000Y-100524819D02*
X130654762Y-100572438D01*
X130654762Y-100572438D02*
X130607143Y-100620057D01*
X130607143Y-100620057D02*
X130511905Y-100762914D01*
X130511905Y-100762914D02*
X130464286Y-100953390D01*
X130464286Y-100953390D02*
X130464286Y-101334342D01*
X130464286Y-101334342D02*
X130511905Y-101429580D01*
X130511905Y-101429580D02*
X130559524Y-101477200D01*
X130559524Y-101477200D02*
X130654762Y-101524819D01*
X130654762Y-101524819D02*
X130845238Y-101524819D01*
X130845238Y-101524819D02*
X130940476Y-101477200D01*
X130940476Y-101477200D02*
X130988095Y-101429580D01*
X130988095Y-101429580D02*
X131035714Y-101334342D01*
X131035714Y-101334342D02*
X131035714Y-101096247D01*
X131035714Y-101096247D02*
X130988095Y-101001009D01*
X130988095Y-101001009D02*
X130940476Y-100953390D01*
X130940476Y-100953390D02*
X130845238Y-100905771D01*
X130845238Y-100905771D02*
X130654762Y-100905771D01*
X130654762Y-100905771D02*
X130559524Y-100953390D01*
X130559524Y-100953390D02*
X130511905Y-101001009D01*
X130511905Y-101001009D02*
X130464286Y-101096247D01*
X139524819Y-89166666D02*
X139048628Y-89499999D01*
X139524819Y-89738094D02*
X138524819Y-89738094D01*
X138524819Y-89738094D02*
X138524819Y-89357142D01*
X138524819Y-89357142D02*
X138572438Y-89261904D01*
X138572438Y-89261904D02*
X138620057Y-89214285D01*
X138620057Y-89214285D02*
X138715295Y-89166666D01*
X138715295Y-89166666D02*
X138858152Y-89166666D01*
X138858152Y-89166666D02*
X138953390Y-89214285D01*
X138953390Y-89214285D02*
X139001009Y-89261904D01*
X139001009Y-89261904D02*
X139048628Y-89357142D01*
X139048628Y-89357142D02*
X139048628Y-89738094D01*
X138524819Y-88261904D02*
X138524819Y-88738094D01*
X138524819Y-88738094D02*
X139001009Y-88785713D01*
X139001009Y-88785713D02*
X138953390Y-88738094D01*
X138953390Y-88738094D02*
X138905771Y-88642856D01*
X138905771Y-88642856D02*
X138905771Y-88404761D01*
X138905771Y-88404761D02*
X138953390Y-88309523D01*
X138953390Y-88309523D02*
X139001009Y-88261904D01*
X139001009Y-88261904D02*
X139096247Y-88214285D01*
X139096247Y-88214285D02*
X139334342Y-88214285D01*
X139334342Y-88214285D02*
X139429580Y-88261904D01*
X139429580Y-88261904D02*
X139477200Y-88309523D01*
X139477200Y-88309523D02*
X139524819Y-88404761D01*
X139524819Y-88404761D02*
X139524819Y-88642856D01*
X139524819Y-88642856D02*
X139477200Y-88738094D01*
X139477200Y-88738094D02*
X139429580Y-88785713D01*
X161034819Y-96083333D02*
X161749104Y-96083333D01*
X161749104Y-96083333D02*
X161891961Y-96130952D01*
X161891961Y-96130952D02*
X161987200Y-96226190D01*
X161987200Y-96226190D02*
X162034819Y-96369047D01*
X162034819Y-96369047D02*
X162034819Y-96464285D01*
X161034819Y-95130952D02*
X161034819Y-95607142D01*
X161034819Y-95607142D02*
X161511009Y-95654761D01*
X161511009Y-95654761D02*
X161463390Y-95607142D01*
X161463390Y-95607142D02*
X161415771Y-95511904D01*
X161415771Y-95511904D02*
X161415771Y-95273809D01*
X161415771Y-95273809D02*
X161463390Y-95178571D01*
X161463390Y-95178571D02*
X161511009Y-95130952D01*
X161511009Y-95130952D02*
X161606247Y-95083333D01*
X161606247Y-95083333D02*
X161844342Y-95083333D01*
X161844342Y-95083333D02*
X161939580Y-95130952D01*
X161939580Y-95130952D02*
X161987200Y-95178571D01*
X161987200Y-95178571D02*
X162034819Y-95273809D01*
X162034819Y-95273809D02*
X162034819Y-95511904D01*
X162034819Y-95511904D02*
X161987200Y-95607142D01*
X161987200Y-95607142D02*
X161939580Y-95654761D01*
X153746905Y-88454819D02*
X153746905Y-87454819D01*
X153746905Y-87454819D02*
X153985000Y-87454819D01*
X153985000Y-87454819D02*
X154127857Y-87502438D01*
X154127857Y-87502438D02*
X154223095Y-87597676D01*
X154223095Y-87597676D02*
X154270714Y-87692914D01*
X154270714Y-87692914D02*
X154318333Y-87883390D01*
X154318333Y-87883390D02*
X154318333Y-88026247D01*
X154318333Y-88026247D02*
X154270714Y-88216723D01*
X154270714Y-88216723D02*
X154223095Y-88311961D01*
X154223095Y-88311961D02*
X154127857Y-88407200D01*
X154127857Y-88407200D02*
X153985000Y-88454819D01*
X153985000Y-88454819D02*
X153746905Y-88454819D01*
X154699286Y-87550057D02*
X154746905Y-87502438D01*
X154746905Y-87502438D02*
X154842143Y-87454819D01*
X154842143Y-87454819D02*
X155080238Y-87454819D01*
X155080238Y-87454819D02*
X155175476Y-87502438D01*
X155175476Y-87502438D02*
X155223095Y-87550057D01*
X155223095Y-87550057D02*
X155270714Y-87645295D01*
X155270714Y-87645295D02*
X155270714Y-87740533D01*
X155270714Y-87740533D02*
X155223095Y-87883390D01*
X155223095Y-87883390D02*
X154651667Y-88454819D01*
X154651667Y-88454819D02*
X155270714Y-88454819D01*
X180738095Y-63204819D02*
X180738095Y-62204819D01*
X180738095Y-62681009D02*
X181309523Y-62681009D01*
X181309523Y-63204819D02*
X181309523Y-62204819D01*
X182309523Y-63204819D02*
X181738095Y-63204819D01*
X182023809Y-63204819D02*
X182023809Y-62204819D01*
X182023809Y-62204819D02*
X181928571Y-62347676D01*
X181928571Y-62347676D02*
X181833333Y-62442914D01*
X181833333Y-62442914D02*
X181738095Y-62490533D01*
X155544819Y-107583333D02*
X156259104Y-107583333D01*
X156259104Y-107583333D02*
X156401961Y-107630952D01*
X156401961Y-107630952D02*
X156497200Y-107726190D01*
X156497200Y-107726190D02*
X156544819Y-107869047D01*
X156544819Y-107869047D02*
X156544819Y-107964285D01*
X156544819Y-106583333D02*
X156544819Y-107154761D01*
X156544819Y-106869047D02*
X155544819Y-106869047D01*
X155544819Y-106869047D02*
X155687676Y-106964285D01*
X155687676Y-106964285D02*
X155782914Y-107059523D01*
X155782914Y-107059523D02*
X155830533Y-107154761D01*
X167454819Y-97166666D02*
X166978628Y-97499999D01*
X167454819Y-97738094D02*
X166454819Y-97738094D01*
X166454819Y-97738094D02*
X166454819Y-97357142D01*
X166454819Y-97357142D02*
X166502438Y-97261904D01*
X166502438Y-97261904D02*
X166550057Y-97214285D01*
X166550057Y-97214285D02*
X166645295Y-97166666D01*
X166645295Y-97166666D02*
X166788152Y-97166666D01*
X166788152Y-97166666D02*
X166883390Y-97214285D01*
X166883390Y-97214285D02*
X166931009Y-97261904D01*
X166931009Y-97261904D02*
X166978628Y-97357142D01*
X166978628Y-97357142D02*
X166978628Y-97738094D01*
X166550057Y-96785713D02*
X166502438Y-96738094D01*
X166502438Y-96738094D02*
X166454819Y-96642856D01*
X166454819Y-96642856D02*
X166454819Y-96404761D01*
X166454819Y-96404761D02*
X166502438Y-96309523D01*
X166502438Y-96309523D02*
X166550057Y-96261904D01*
X166550057Y-96261904D02*
X166645295Y-96214285D01*
X166645295Y-96214285D02*
X166740533Y-96214285D01*
X166740533Y-96214285D02*
X166883390Y-96261904D01*
X166883390Y-96261904D02*
X167454819Y-96833332D01*
X167454819Y-96833332D02*
X167454819Y-96214285D01*
X168238095Y-90204819D02*
X168238095Y-91014342D01*
X168238095Y-91014342D02*
X168285714Y-91109580D01*
X168285714Y-91109580D02*
X168333333Y-91157200D01*
X168333333Y-91157200D02*
X168428571Y-91204819D01*
X168428571Y-91204819D02*
X168619047Y-91204819D01*
X168619047Y-91204819D02*
X168714285Y-91157200D01*
X168714285Y-91157200D02*
X168761904Y-91109580D01*
X168761904Y-91109580D02*
X168809523Y-91014342D01*
X168809523Y-91014342D02*
X168809523Y-90204819D01*
X169238095Y-90300057D02*
X169285714Y-90252438D01*
X169285714Y-90252438D02*
X169380952Y-90204819D01*
X169380952Y-90204819D02*
X169619047Y-90204819D01*
X169619047Y-90204819D02*
X169714285Y-90252438D01*
X169714285Y-90252438D02*
X169761904Y-90300057D01*
X169761904Y-90300057D02*
X169809523Y-90395295D01*
X169809523Y-90395295D02*
X169809523Y-90490533D01*
X169809523Y-90490533D02*
X169761904Y-90633390D01*
X169761904Y-90633390D02*
X169190476Y-91204819D01*
X169190476Y-91204819D02*
X169809523Y-91204819D01*
X167952380Y-84283009D02*
X168095237Y-84330628D01*
X168095237Y-84330628D02*
X168142856Y-84378247D01*
X168142856Y-84378247D02*
X168190475Y-84473485D01*
X168190475Y-84473485D02*
X168190475Y-84616342D01*
X168190475Y-84616342D02*
X168142856Y-84711580D01*
X168142856Y-84711580D02*
X168095237Y-84759200D01*
X168095237Y-84759200D02*
X167999999Y-84806819D01*
X167999999Y-84806819D02*
X167619047Y-84806819D01*
X167619047Y-84806819D02*
X167619047Y-83806819D01*
X167619047Y-83806819D02*
X167952380Y-83806819D01*
X167952380Y-83806819D02*
X168047618Y-83854438D01*
X168047618Y-83854438D02*
X168095237Y-83902057D01*
X168095237Y-83902057D02*
X168142856Y-83997295D01*
X168142856Y-83997295D02*
X168142856Y-84092533D01*
X168142856Y-84092533D02*
X168095237Y-84187771D01*
X168095237Y-84187771D02*
X168047618Y-84235390D01*
X168047618Y-84235390D02*
X167952380Y-84283009D01*
X167952380Y-84283009D02*
X167619047Y-84283009D01*
X169047618Y-84806819D02*
X169047618Y-84283009D01*
X169047618Y-84283009D02*
X168999999Y-84187771D01*
X168999999Y-84187771D02*
X168904761Y-84140152D01*
X168904761Y-84140152D02*
X168714285Y-84140152D01*
X168714285Y-84140152D02*
X168619047Y-84187771D01*
X169047618Y-84759200D02*
X168952380Y-84806819D01*
X168952380Y-84806819D02*
X168714285Y-84806819D01*
X168714285Y-84806819D02*
X168619047Y-84759200D01*
X168619047Y-84759200D02*
X168571428Y-84663961D01*
X168571428Y-84663961D02*
X168571428Y-84568723D01*
X168571428Y-84568723D02*
X168619047Y-84473485D01*
X168619047Y-84473485D02*
X168714285Y-84425866D01*
X168714285Y-84425866D02*
X168952380Y-84425866D01*
X168952380Y-84425866D02*
X169047618Y-84378247D01*
X169380952Y-84140152D02*
X169761904Y-84140152D01*
X169523809Y-83806819D02*
X169523809Y-84663961D01*
X169523809Y-84663961D02*
X169571428Y-84759200D01*
X169571428Y-84759200D02*
X169666666Y-84806819D01*
X169666666Y-84806819D02*
X169761904Y-84806819D01*
X169952381Y-84140152D02*
X170333333Y-84140152D01*
X170095238Y-83806819D02*
X170095238Y-84663961D01*
X170095238Y-84663961D02*
X170142857Y-84759200D01*
X170142857Y-84759200D02*
X170238095Y-84806819D01*
X170238095Y-84806819D02*
X170333333Y-84806819D01*
X170666667Y-84425866D02*
X171428572Y-84425866D01*
X171047619Y-84806819D02*
X171047619Y-84044914D01*
X172428571Y-84806819D02*
X171857143Y-84806819D01*
X172142857Y-84806819D02*
X172142857Y-83806819D01*
X172142857Y-83806819D02*
X172047619Y-83949676D01*
X172047619Y-83949676D02*
X171952381Y-84044914D01*
X171952381Y-84044914D02*
X171857143Y-84092533D01*
X161143333Y-88454819D02*
X160810000Y-87978628D01*
X160571905Y-88454819D02*
X160571905Y-87454819D01*
X160571905Y-87454819D02*
X160952857Y-87454819D01*
X160952857Y-87454819D02*
X161048095Y-87502438D01*
X161048095Y-87502438D02*
X161095714Y-87550057D01*
X161095714Y-87550057D02*
X161143333Y-87645295D01*
X161143333Y-87645295D02*
X161143333Y-87788152D01*
X161143333Y-87788152D02*
X161095714Y-87883390D01*
X161095714Y-87883390D02*
X161048095Y-87931009D01*
X161048095Y-87931009D02*
X160952857Y-87978628D01*
X160952857Y-87978628D02*
X160571905Y-87978628D01*
X162000476Y-87788152D02*
X162000476Y-88454819D01*
X161762381Y-87407200D02*
X161524286Y-88121485D01*
X161524286Y-88121485D02*
X162143333Y-88121485D01*
X163083333Y-84306819D02*
X162607143Y-84306819D01*
X162607143Y-84306819D02*
X162559524Y-84783009D01*
X162559524Y-84783009D02*
X162607143Y-84735390D01*
X162607143Y-84735390D02*
X162702381Y-84687771D01*
X162702381Y-84687771D02*
X162940476Y-84687771D01*
X162940476Y-84687771D02*
X163035714Y-84735390D01*
X163035714Y-84735390D02*
X163083333Y-84783009D01*
X163083333Y-84783009D02*
X163130952Y-84878247D01*
X163130952Y-84878247D02*
X163130952Y-85116342D01*
X163130952Y-85116342D02*
X163083333Y-85211580D01*
X163083333Y-85211580D02*
X163035714Y-85259200D01*
X163035714Y-85259200D02*
X162940476Y-85306819D01*
X162940476Y-85306819D02*
X162702381Y-85306819D01*
X162702381Y-85306819D02*
X162607143Y-85259200D01*
X162607143Y-85259200D02*
X162559524Y-85211580D01*
X163416667Y-84306819D02*
X163750000Y-85306819D01*
X163750000Y-85306819D02*
X164083333Y-84306819D01*
X164940476Y-85306819D02*
X164369048Y-85306819D01*
X164654762Y-85306819D02*
X164654762Y-84306819D01*
X164654762Y-84306819D02*
X164559524Y-84449676D01*
X164559524Y-84449676D02*
X164464286Y-84544914D01*
X164464286Y-84544914D02*
X164369048Y-84592533D01*
X170954830Y-97166670D02*
X170954830Y-97642872D01*
X170954830Y-97642872D02*
X169954806Y-97642872D01*
X170954830Y-96309506D02*
X170954830Y-96880949D01*
X170954830Y-96595228D02*
X169954806Y-96595228D01*
X169954806Y-96595228D02*
X170097666Y-96690468D01*
X170097666Y-96690468D02*
X170192907Y-96785708D01*
X170192907Y-96785708D02*
X170240527Y-96880949D01*
X153746905Y-91954819D02*
X153746905Y-90954819D01*
X153746905Y-90954819D02*
X153985000Y-90954819D01*
X153985000Y-90954819D02*
X154127857Y-91002438D01*
X154127857Y-91002438D02*
X154223095Y-91097676D01*
X154223095Y-91097676D02*
X154270714Y-91192914D01*
X154270714Y-91192914D02*
X154318333Y-91383390D01*
X154318333Y-91383390D02*
X154318333Y-91526247D01*
X154318333Y-91526247D02*
X154270714Y-91716723D01*
X154270714Y-91716723D02*
X154223095Y-91811961D01*
X154223095Y-91811961D02*
X154127857Y-91907200D01*
X154127857Y-91907200D02*
X153985000Y-91954819D01*
X153985000Y-91954819D02*
X153746905Y-91954819D01*
X154651667Y-90954819D02*
X155270714Y-90954819D01*
X155270714Y-90954819D02*
X154937381Y-91335771D01*
X154937381Y-91335771D02*
X155080238Y-91335771D01*
X155080238Y-91335771D02*
X155175476Y-91383390D01*
X155175476Y-91383390D02*
X155223095Y-91431009D01*
X155223095Y-91431009D02*
X155270714Y-91526247D01*
X155270714Y-91526247D02*
X155270714Y-91764342D01*
X155270714Y-91764342D02*
X155223095Y-91859580D01*
X155223095Y-91859580D02*
X155175476Y-91907200D01*
X155175476Y-91907200D02*
X155080238Y-91954819D01*
X155080238Y-91954819D02*
X154794524Y-91954819D01*
X154794524Y-91954819D02*
X154699286Y-91907200D01*
X154699286Y-91907200D02*
X154651667Y-91859580D01*
X161045833Y-99954819D02*
X160569643Y-99954819D01*
X160569643Y-99954819D02*
X160569643Y-98954819D01*
X161331548Y-99050057D02*
X161379167Y-99002438D01*
X161379167Y-99002438D02*
X161474405Y-98954819D01*
X161474405Y-98954819D02*
X161712500Y-98954819D01*
X161712500Y-98954819D02*
X161807738Y-99002438D01*
X161807738Y-99002438D02*
X161855357Y-99050057D01*
X161855357Y-99050057D02*
X161902976Y-99145295D01*
X161902976Y-99145295D02*
X161902976Y-99240533D01*
X161902976Y-99240533D02*
X161855357Y-99383390D01*
X161855357Y-99383390D02*
X161283929Y-99954819D01*
X161283929Y-99954819D02*
X161902976Y-99954819D01*
X167454819Y-107583333D02*
X168169104Y-107583333D01*
X168169104Y-107583333D02*
X168311961Y-107630952D01*
X168311961Y-107630952D02*
X168407200Y-107726190D01*
X168407200Y-107726190D02*
X168454819Y-107869047D01*
X168454819Y-107869047D02*
X168454819Y-107964285D01*
X167454819Y-107202380D02*
X167454819Y-106583333D01*
X167454819Y-106583333D02*
X167835771Y-106916666D01*
X167835771Y-106916666D02*
X167835771Y-106773809D01*
X167835771Y-106773809D02*
X167883390Y-106678571D01*
X167883390Y-106678571D02*
X167931009Y-106630952D01*
X167931009Y-106630952D02*
X168026247Y-106583333D01*
X168026247Y-106583333D02*
X168264342Y-106583333D01*
X168264342Y-106583333D02*
X168359580Y-106630952D01*
X168359580Y-106630952D02*
X168407200Y-106678571D01*
X168407200Y-106678571D02*
X168454819Y-106773809D01*
X168454819Y-106773809D02*
X168454819Y-107059523D01*
X168454819Y-107059523D02*
X168407200Y-107154761D01*
X168407200Y-107154761D02*
X168359580Y-107202380D01*
X133808333Y-101429580D02*
X133760714Y-101477200D01*
X133760714Y-101477200D02*
X133617857Y-101524819D01*
X133617857Y-101524819D02*
X133522619Y-101524819D01*
X133522619Y-101524819D02*
X133379762Y-101477200D01*
X133379762Y-101477200D02*
X133284524Y-101381961D01*
X133284524Y-101381961D02*
X133236905Y-101286723D01*
X133236905Y-101286723D02*
X133189286Y-101096247D01*
X133189286Y-101096247D02*
X133189286Y-100953390D01*
X133189286Y-100953390D02*
X133236905Y-100762914D01*
X133236905Y-100762914D02*
X133284524Y-100667676D01*
X133284524Y-100667676D02*
X133379762Y-100572438D01*
X133379762Y-100572438D02*
X133522619Y-100524819D01*
X133522619Y-100524819D02*
X133617857Y-100524819D01*
X133617857Y-100524819D02*
X133760714Y-100572438D01*
X133760714Y-100572438D02*
X133808333Y-100620057D01*
X134141667Y-100524819D02*
X134808333Y-100524819D01*
X134808333Y-100524819D02*
X134379762Y-101524819D01*
X145453095Y-85497819D02*
X145453095Y-86307342D01*
X145453095Y-86307342D02*
X145500714Y-86402580D01*
X145500714Y-86402580D02*
X145548333Y-86450200D01*
X145548333Y-86450200D02*
X145643571Y-86497819D01*
X145643571Y-86497819D02*
X145834047Y-86497819D01*
X145834047Y-86497819D02*
X145929285Y-86450200D01*
X145929285Y-86450200D02*
X145976904Y-86402580D01*
X145976904Y-86402580D02*
X146024523Y-86307342D01*
X146024523Y-86307342D02*
X146024523Y-85497819D01*
X146405476Y-85497819D02*
X147024523Y-85497819D01*
X147024523Y-85497819D02*
X146691190Y-85878771D01*
X146691190Y-85878771D02*
X146834047Y-85878771D01*
X146834047Y-85878771D02*
X146929285Y-85926390D01*
X146929285Y-85926390D02*
X146976904Y-85974009D01*
X146976904Y-85974009D02*
X147024523Y-86069247D01*
X147024523Y-86069247D02*
X147024523Y-86307342D01*
X147024523Y-86307342D02*
X146976904Y-86402580D01*
X146976904Y-86402580D02*
X146929285Y-86450200D01*
X146929285Y-86450200D02*
X146834047Y-86497819D01*
X146834047Y-86497819D02*
X146548333Y-86497819D01*
X146548333Y-86497819D02*
X146453095Y-86450200D01*
X146453095Y-86450200D02*
X146405476Y-86402580D01*
X139554819Y-93666666D02*
X139078628Y-93999999D01*
X139554819Y-94238094D02*
X138554819Y-94238094D01*
X138554819Y-94238094D02*
X138554819Y-93857142D01*
X138554819Y-93857142D02*
X138602438Y-93761904D01*
X138602438Y-93761904D02*
X138650057Y-93714285D01*
X138650057Y-93714285D02*
X138745295Y-93666666D01*
X138745295Y-93666666D02*
X138888152Y-93666666D01*
X138888152Y-93666666D02*
X138983390Y-93714285D01*
X138983390Y-93714285D02*
X139031009Y-93761904D01*
X139031009Y-93761904D02*
X139078628Y-93857142D01*
X139078628Y-93857142D02*
X139078628Y-94238094D01*
X138983390Y-93095237D02*
X138935771Y-93190475D01*
X138935771Y-93190475D02*
X138888152Y-93238094D01*
X138888152Y-93238094D02*
X138792914Y-93285713D01*
X138792914Y-93285713D02*
X138745295Y-93285713D01*
X138745295Y-93285713D02*
X138650057Y-93238094D01*
X138650057Y-93238094D02*
X138602438Y-93190475D01*
X138602438Y-93190475D02*
X138554819Y-93095237D01*
X138554819Y-93095237D02*
X138554819Y-92904761D01*
X138554819Y-92904761D02*
X138602438Y-92809523D01*
X138602438Y-92809523D02*
X138650057Y-92761904D01*
X138650057Y-92761904D02*
X138745295Y-92714285D01*
X138745295Y-92714285D02*
X138792914Y-92714285D01*
X138792914Y-92714285D02*
X138888152Y-92761904D01*
X138888152Y-92761904D02*
X138935771Y-92809523D01*
X138935771Y-92809523D02*
X138983390Y-92904761D01*
X138983390Y-92904761D02*
X138983390Y-93095237D01*
X138983390Y-93095237D02*
X139031009Y-93190475D01*
X139031009Y-93190475D02*
X139078628Y-93238094D01*
X139078628Y-93238094D02*
X139173866Y-93285713D01*
X139173866Y-93285713D02*
X139364342Y-93285713D01*
X139364342Y-93285713D02*
X139459580Y-93238094D01*
X139459580Y-93238094D02*
X139507200Y-93190475D01*
X139507200Y-93190475D02*
X139554819Y-93095237D01*
X139554819Y-93095237D02*
X139554819Y-92904761D01*
X139554819Y-92904761D02*
X139507200Y-92809523D01*
X139507200Y-92809523D02*
X139459580Y-92761904D01*
X139459580Y-92761904D02*
X139364342Y-92714285D01*
X139364342Y-92714285D02*
X139173866Y-92714285D01*
X139173866Y-92714285D02*
X139078628Y-92761904D01*
X139078628Y-92761904D02*
X139031009Y-92809523D01*
X139031009Y-92809523D02*
X138983390Y-92904761D01*
X126849819Y-107583333D02*
X127564104Y-107583333D01*
X127564104Y-107583333D02*
X127706961Y-107630952D01*
X127706961Y-107630952D02*
X127802200Y-107726190D01*
X127802200Y-107726190D02*
X127849819Y-107869047D01*
X127849819Y-107869047D02*
X127849819Y-107964285D01*
X127183152Y-106678571D02*
X127849819Y-106678571D01*
X126802200Y-106916666D02*
X127516485Y-107154761D01*
X127516485Y-107154761D02*
X127516485Y-106535714D01*
X127738095Y-62454819D02*
X128309523Y-62454819D01*
X128023809Y-63454819D02*
X128023809Y-62454819D01*
X128976190Y-62931009D02*
X129119047Y-62978628D01*
X129119047Y-62978628D02*
X129166666Y-63026247D01*
X129166666Y-63026247D02*
X129214285Y-63121485D01*
X129214285Y-63121485D02*
X129214285Y-63264342D01*
X129214285Y-63264342D02*
X129166666Y-63359580D01*
X129166666Y-63359580D02*
X129119047Y-63407200D01*
X129119047Y-63407200D02*
X129023809Y-63454819D01*
X129023809Y-63454819D02*
X128642857Y-63454819D01*
X128642857Y-63454819D02*
X128642857Y-62454819D01*
X128642857Y-62454819D02*
X128976190Y-62454819D01*
X128976190Y-62454819D02*
X129071428Y-62502438D01*
X129071428Y-62502438D02*
X129119047Y-62550057D01*
X129119047Y-62550057D02*
X129166666Y-62645295D01*
X129166666Y-62645295D02*
X129166666Y-62740533D01*
X129166666Y-62740533D02*
X129119047Y-62835771D01*
X129119047Y-62835771D02*
X129071428Y-62883390D01*
X129071428Y-62883390D02*
X128976190Y-62931009D01*
X128976190Y-62931009D02*
X128642857Y-62931009D01*
X130166666Y-63454819D02*
X129595238Y-63454819D01*
X129880952Y-63454819D02*
X129880952Y-62454819D01*
X129880952Y-62454819D02*
X129785714Y-62597676D01*
X129785714Y-62597676D02*
X129690476Y-62692914D01*
X129690476Y-62692914D02*
X129595238Y-62740533D01*
X146916666Y-103654819D02*
X146916666Y-104369104D01*
X146916666Y-104369104D02*
X146869047Y-104511961D01*
X146869047Y-104511961D02*
X146773809Y-104607200D01*
X146773809Y-104607200D02*
X146630952Y-104654819D01*
X146630952Y-104654819D02*
X146535714Y-104654819D01*
X147345238Y-103750057D02*
X147392857Y-103702438D01*
X147392857Y-103702438D02*
X147488095Y-103654819D01*
X147488095Y-103654819D02*
X147726190Y-103654819D01*
X147726190Y-103654819D02*
X147821428Y-103702438D01*
X147821428Y-103702438D02*
X147869047Y-103750057D01*
X147869047Y-103750057D02*
X147916666Y-103845295D01*
X147916666Y-103845295D02*
X147916666Y-103940533D01*
X147916666Y-103940533D02*
X147869047Y-104083390D01*
X147869047Y-104083390D02*
X147297619Y-104654819D01*
X147297619Y-104654819D02*
X147916666Y-104654819D01*
X145178570Y-110431009D02*
X145321427Y-110478628D01*
X145321427Y-110478628D02*
X145369046Y-110526247D01*
X145369046Y-110526247D02*
X145416665Y-110621485D01*
X145416665Y-110621485D02*
X145416665Y-110764342D01*
X145416665Y-110764342D02*
X145369046Y-110859580D01*
X145369046Y-110859580D02*
X145321427Y-110907200D01*
X145321427Y-110907200D02*
X145226189Y-110954819D01*
X145226189Y-110954819D02*
X144845237Y-110954819D01*
X144845237Y-110954819D02*
X144845237Y-109954819D01*
X144845237Y-109954819D02*
X145178570Y-109954819D01*
X145178570Y-109954819D02*
X145273808Y-110002438D01*
X145273808Y-110002438D02*
X145321427Y-110050057D01*
X145321427Y-110050057D02*
X145369046Y-110145295D01*
X145369046Y-110145295D02*
X145369046Y-110240533D01*
X145369046Y-110240533D02*
X145321427Y-110335771D01*
X145321427Y-110335771D02*
X145273808Y-110383390D01*
X145273808Y-110383390D02*
X145178570Y-110431009D01*
X145178570Y-110431009D02*
X144845237Y-110431009D01*
X146273808Y-110954819D02*
X146273808Y-110431009D01*
X146273808Y-110431009D02*
X146226189Y-110335771D01*
X146226189Y-110335771D02*
X146130951Y-110288152D01*
X146130951Y-110288152D02*
X145940475Y-110288152D01*
X145940475Y-110288152D02*
X145845237Y-110335771D01*
X146273808Y-110907200D02*
X146178570Y-110954819D01*
X146178570Y-110954819D02*
X145940475Y-110954819D01*
X145940475Y-110954819D02*
X145845237Y-110907200D01*
X145845237Y-110907200D02*
X145797618Y-110811961D01*
X145797618Y-110811961D02*
X145797618Y-110716723D01*
X145797618Y-110716723D02*
X145845237Y-110621485D01*
X145845237Y-110621485D02*
X145940475Y-110573866D01*
X145940475Y-110573866D02*
X146178570Y-110573866D01*
X146178570Y-110573866D02*
X146273808Y-110526247D01*
X146607142Y-110288152D02*
X146988094Y-110288152D01*
X146749999Y-109954819D02*
X146749999Y-110811961D01*
X146749999Y-110811961D02*
X146797618Y-110907200D01*
X146797618Y-110907200D02*
X146892856Y-110954819D01*
X146892856Y-110954819D02*
X146988094Y-110954819D01*
X147178571Y-110288152D02*
X147559523Y-110288152D01*
X147321428Y-109954819D02*
X147321428Y-110811961D01*
X147321428Y-110811961D02*
X147369047Y-110907200D01*
X147369047Y-110907200D02*
X147464285Y-110954819D01*
X147464285Y-110954819D02*
X147559523Y-110954819D01*
X148273809Y-110907200D02*
X148178571Y-110954819D01*
X148178571Y-110954819D02*
X147988095Y-110954819D01*
X147988095Y-110954819D02*
X147892857Y-110907200D01*
X147892857Y-110907200D02*
X147845238Y-110811961D01*
X147845238Y-110811961D02*
X147845238Y-110431009D01*
X147845238Y-110431009D02*
X147892857Y-110335771D01*
X147892857Y-110335771D02*
X147988095Y-110288152D01*
X147988095Y-110288152D02*
X148178571Y-110288152D01*
X148178571Y-110288152D02*
X148273809Y-110335771D01*
X148273809Y-110335771D02*
X148321428Y-110431009D01*
X148321428Y-110431009D02*
X148321428Y-110526247D01*
X148321428Y-110526247D02*
X147845238Y-110621485D01*
X148750000Y-110954819D02*
X148750000Y-110288152D01*
X148750000Y-110478628D02*
X148797619Y-110383390D01*
X148797619Y-110383390D02*
X148845238Y-110335771D01*
X148845238Y-110335771D02*
X148940476Y-110288152D01*
X148940476Y-110288152D02*
X149035714Y-110288152D01*
X149273810Y-110288152D02*
X149511905Y-110954819D01*
X149750000Y-110288152D02*
X149511905Y-110954819D01*
X149511905Y-110954819D02*
X149416667Y-111192914D01*
X149416667Y-111192914D02*
X149369048Y-111240533D01*
X149369048Y-111240533D02*
X149273810Y-111288152D01*
X181011905Y-100454819D02*
X181011905Y-99454819D01*
X181011905Y-99454819D02*
X181250000Y-99454819D01*
X181250000Y-99454819D02*
X181392857Y-99502438D01*
X181392857Y-99502438D02*
X181488095Y-99597676D01*
X181488095Y-99597676D02*
X181535714Y-99692914D01*
X181535714Y-99692914D02*
X181583333Y-99883390D01*
X181583333Y-99883390D02*
X181583333Y-100026247D01*
X181583333Y-100026247D02*
X181535714Y-100216723D01*
X181535714Y-100216723D02*
X181488095Y-100311961D01*
X181488095Y-100311961D02*
X181392857Y-100407200D01*
X181392857Y-100407200D02*
X181250000Y-100454819D01*
X181250000Y-100454819D02*
X181011905Y-100454819D01*
X182535714Y-100454819D02*
X181964286Y-100454819D01*
X182250000Y-100454819D02*
X182250000Y-99454819D01*
X182250000Y-99454819D02*
X182154762Y-99597676D01*
X182154762Y-99597676D02*
X182059524Y-99692914D01*
X182059524Y-99692914D02*
X181964286Y-99740533D01*
X161993333Y-91454819D02*
X161660000Y-90978628D01*
X161421905Y-91454819D02*
X161421905Y-90454819D01*
X161421905Y-90454819D02*
X161802857Y-90454819D01*
X161802857Y-90454819D02*
X161898095Y-90502438D01*
X161898095Y-90502438D02*
X161945714Y-90550057D01*
X161945714Y-90550057D02*
X161993333Y-90645295D01*
X161993333Y-90645295D02*
X161993333Y-90788152D01*
X161993333Y-90788152D02*
X161945714Y-90883390D01*
X161945714Y-90883390D02*
X161898095Y-90931009D01*
X161898095Y-90931009D02*
X161802857Y-90978628D01*
X161802857Y-90978628D02*
X161421905Y-90978628D01*
X162326667Y-90454819D02*
X162945714Y-90454819D01*
X162945714Y-90454819D02*
X162612381Y-90835771D01*
X162612381Y-90835771D02*
X162755238Y-90835771D01*
X162755238Y-90835771D02*
X162850476Y-90883390D01*
X162850476Y-90883390D02*
X162898095Y-90931009D01*
X162898095Y-90931009D02*
X162945714Y-91026247D01*
X162945714Y-91026247D02*
X162945714Y-91264342D01*
X162945714Y-91264342D02*
X162898095Y-91359580D01*
X162898095Y-91359580D02*
X162850476Y-91407200D01*
X162850476Y-91407200D02*
X162755238Y-91454819D01*
X162755238Y-91454819D02*
X162469524Y-91454819D01*
X162469524Y-91454819D02*
X162374286Y-91407200D01*
X162374286Y-91407200D02*
X162326667Y-91359580D01*
X131799405Y-97954819D02*
X131799405Y-96954819D01*
X131799405Y-96954819D02*
X132037500Y-96954819D01*
X132037500Y-96954819D02*
X132180357Y-97002438D01*
X132180357Y-97002438D02*
X132275595Y-97097676D01*
X132275595Y-97097676D02*
X132323214Y-97192914D01*
X132323214Y-97192914D02*
X132370833Y-97383390D01*
X132370833Y-97383390D02*
X132370833Y-97526247D01*
X132370833Y-97526247D02*
X132323214Y-97716723D01*
X132323214Y-97716723D02*
X132275595Y-97811961D01*
X132275595Y-97811961D02*
X132180357Y-97907200D01*
X132180357Y-97907200D02*
X132037500Y-97954819D01*
X132037500Y-97954819D02*
X131799405Y-97954819D01*
X133227976Y-97288152D02*
X133227976Y-97954819D01*
X132989881Y-96907200D02*
X132751786Y-97621485D01*
X132751786Y-97621485D02*
X133370833Y-97621485D01*
X169524819Y-99416666D02*
X169048628Y-99749999D01*
X169524819Y-99988094D02*
X168524819Y-99988094D01*
X168524819Y-99988094D02*
X168524819Y-99607142D01*
X168524819Y-99607142D02*
X168572438Y-99511904D01*
X168572438Y-99511904D02*
X168620057Y-99464285D01*
X168620057Y-99464285D02*
X168715295Y-99416666D01*
X168715295Y-99416666D02*
X168858152Y-99416666D01*
X168858152Y-99416666D02*
X168953390Y-99464285D01*
X168953390Y-99464285D02*
X169001009Y-99511904D01*
X169001009Y-99511904D02*
X169048628Y-99607142D01*
X169048628Y-99607142D02*
X169048628Y-99988094D01*
X169524819Y-98464285D02*
X169524819Y-99035713D01*
X169524819Y-98749999D02*
X168524819Y-98749999D01*
X168524819Y-98749999D02*
X168667676Y-98845237D01*
X168667676Y-98845237D02*
X168762914Y-98940475D01*
X168762914Y-98940475D02*
X168810533Y-99035713D01*
X181488095Y-103454819D02*
X181488095Y-102454819D01*
X181488095Y-102931009D02*
X182059523Y-102931009D01*
X182059523Y-103454819D02*
X182059523Y-102454819D01*
X182440476Y-102454819D02*
X183059523Y-102454819D01*
X183059523Y-102454819D02*
X182726190Y-102835771D01*
X182726190Y-102835771D02*
X182869047Y-102835771D01*
X182869047Y-102835771D02*
X182964285Y-102883390D01*
X182964285Y-102883390D02*
X183011904Y-102931009D01*
X183011904Y-102931009D02*
X183059523Y-103026247D01*
X183059523Y-103026247D02*
X183059523Y-103264342D01*
X183059523Y-103264342D02*
X183011904Y-103359580D01*
X183011904Y-103359580D02*
X182964285Y-103407200D01*
X182964285Y-103407200D02*
X182869047Y-103454819D01*
X182869047Y-103454819D02*
X182583333Y-103454819D01*
X182583333Y-103454819D02*
X182488095Y-103407200D01*
X182488095Y-103407200D02*
X182440476Y-103359580D01*
X157954819Y-102426666D02*
X157478628Y-102759999D01*
X157954819Y-102998094D02*
X156954819Y-102998094D01*
X156954819Y-102998094D02*
X156954819Y-102617142D01*
X156954819Y-102617142D02*
X157002438Y-102521904D01*
X157002438Y-102521904D02*
X157050057Y-102474285D01*
X157050057Y-102474285D02*
X157145295Y-102426666D01*
X157145295Y-102426666D02*
X157288152Y-102426666D01*
X157288152Y-102426666D02*
X157383390Y-102474285D01*
X157383390Y-102474285D02*
X157431009Y-102521904D01*
X157431009Y-102521904D02*
X157478628Y-102617142D01*
X157478628Y-102617142D02*
X157478628Y-102998094D01*
X157954819Y-101950475D02*
X157954819Y-101759999D01*
X157954819Y-101759999D02*
X157907200Y-101664761D01*
X157907200Y-101664761D02*
X157859580Y-101617142D01*
X157859580Y-101617142D02*
X157716723Y-101521904D01*
X157716723Y-101521904D02*
X157526247Y-101474285D01*
X157526247Y-101474285D02*
X157145295Y-101474285D01*
X157145295Y-101474285D02*
X157050057Y-101521904D01*
X157050057Y-101521904D02*
X157002438Y-101569523D01*
X157002438Y-101569523D02*
X156954819Y-101664761D01*
X156954819Y-101664761D02*
X156954819Y-101855237D01*
X156954819Y-101855237D02*
X157002438Y-101950475D01*
X157002438Y-101950475D02*
X157050057Y-101998094D01*
X157050057Y-101998094D02*
X157145295Y-102045713D01*
X157145295Y-102045713D02*
X157383390Y-102045713D01*
X157383390Y-102045713D02*
X157478628Y-101998094D01*
X157478628Y-101998094D02*
X157526247Y-101950475D01*
X157526247Y-101950475D02*
X157573866Y-101855237D01*
X157573866Y-101855237D02*
X157573866Y-101664761D01*
X157573866Y-101664761D02*
X157526247Y-101569523D01*
X157526247Y-101569523D02*
X157478628Y-101521904D01*
X157478628Y-101521904D02*
X157383390Y-101474285D01*
X151504761Y-95800057D02*
X151409523Y-95752438D01*
X151409523Y-95752438D02*
X151314285Y-95657200D01*
X151314285Y-95657200D02*
X151171428Y-95514342D01*
X151171428Y-95514342D02*
X151076190Y-95466723D01*
X151076190Y-95466723D02*
X150980952Y-95466723D01*
X151028571Y-95704819D02*
X150933333Y-95657200D01*
X150933333Y-95657200D02*
X150838095Y-95561961D01*
X150838095Y-95561961D02*
X150790476Y-95371485D01*
X150790476Y-95371485D02*
X150790476Y-95038152D01*
X150790476Y-95038152D02*
X150838095Y-94847676D01*
X150838095Y-94847676D02*
X150933333Y-94752438D01*
X150933333Y-94752438D02*
X151028571Y-94704819D01*
X151028571Y-94704819D02*
X151219047Y-94704819D01*
X151219047Y-94704819D02*
X151314285Y-94752438D01*
X151314285Y-94752438D02*
X151409523Y-94847676D01*
X151409523Y-94847676D02*
X151457142Y-95038152D01*
X151457142Y-95038152D02*
X151457142Y-95371485D01*
X151457142Y-95371485D02*
X151409523Y-95561961D01*
X151409523Y-95561961D02*
X151314285Y-95657200D01*
X151314285Y-95657200D02*
X151219047Y-95704819D01*
X151219047Y-95704819D02*
X151028571Y-95704819D01*
X152409523Y-95704819D02*
X151838095Y-95704819D01*
X152123809Y-95704819D02*
X152123809Y-94704819D01*
X152123809Y-94704819D02*
X152028571Y-94847676D01*
X152028571Y-94847676D02*
X151933333Y-94942914D01*
X151933333Y-94942914D02*
X151838095Y-94990533D01*
X138573333Y-100704819D02*
X138240000Y-100228628D01*
X138001905Y-100704819D02*
X138001905Y-99704819D01*
X138001905Y-99704819D02*
X138382857Y-99704819D01*
X138382857Y-99704819D02*
X138478095Y-99752438D01*
X138478095Y-99752438D02*
X138525714Y-99800057D01*
X138525714Y-99800057D02*
X138573333Y-99895295D01*
X138573333Y-99895295D02*
X138573333Y-100038152D01*
X138573333Y-100038152D02*
X138525714Y-100133390D01*
X138525714Y-100133390D02*
X138478095Y-100181009D01*
X138478095Y-100181009D02*
X138382857Y-100228628D01*
X138382857Y-100228628D02*
X138001905Y-100228628D01*
X138906667Y-99704819D02*
X139573333Y-99704819D01*
X139573333Y-99704819D02*
X139144762Y-100704819D01*
D12*
%TO.C,C11*%
X139584420Y-61740000D02*
X139865580Y-61740000D01*
X139584420Y-62760000D02*
X139865580Y-62760000D01*
%TO.C,C10*%
X135365580Y-62510000D02*
X135084420Y-62510000D01*
X135365580Y-61490000D02*
X135084420Y-61490000D01*
%TO.C,R10*%
X139143641Y-96630000D02*
X138836359Y-96630000D01*
X139143641Y-95870000D02*
X138836359Y-95870000D01*
%TO.C,J6*%
X131580000Y-98105000D02*
X130250000Y-98105000D01*
X131580000Y-96775000D02*
X131580000Y-98105000D01*
X131580000Y-95505000D02*
X131580000Y-92905000D01*
X131580000Y-95505000D02*
X128920000Y-95505000D01*
X131580000Y-92905000D02*
X128920000Y-92905000D01*
X128920000Y-95505000D02*
X128920000Y-92905000D01*
%TO.C,C9*%
X174359420Y-103490000D02*
X174640580Y-103490000D01*
X174359420Y-104510000D02*
X174640580Y-104510000D01*
%TO.C,C8*%
X160859420Y-103740000D02*
X161140580Y-103740000D01*
X160859420Y-104760000D02*
X161140580Y-104760000D01*
%TO.C,C6*%
X156260000Y-99890580D02*
X156260000Y-99609420D01*
X155240000Y-99890580D02*
X155240000Y-99609420D01*
%TO.C,C5*%
X158760000Y-99890580D02*
X158760000Y-99609420D01*
X157740000Y-99890580D02*
X157740000Y-99609420D01*
%TO.C,C4*%
X164510000Y-99390580D02*
X164510000Y-99109420D01*
X163490000Y-99390580D02*
X163490000Y-99109420D01*
%TO.C,C3*%
X166760000Y-99390580D02*
X166760000Y-99109420D01*
X165740000Y-99390580D02*
X165740000Y-99109420D01*
%TO.C,C2*%
X164490000Y-94859420D02*
X164490000Y-95140580D01*
X165510000Y-94859420D02*
X165510000Y-95140580D01*
%TO.C,C1*%
X163510000Y-94859420D02*
X163510000Y-95140580D01*
X162490000Y-94859420D02*
X162490000Y-95140580D01*
%TO.C,R6*%
X130012742Y-101977500D02*
X130487258Y-101977500D01*
X130012742Y-103022500D02*
X130487258Y-103022500D01*
%TO.C,R5*%
X139977500Y-89237258D02*
X139977500Y-88762742D01*
X141022500Y-89237258D02*
X141022500Y-88762742D01*
%TO.C,J5*%
X155380000Y-94420000D02*
X155380000Y-97080000D01*
X157980000Y-94420000D02*
X155380000Y-94420000D01*
X157980000Y-94420000D02*
X157980000Y-97080000D01*
X157980000Y-97080000D02*
X155380000Y-97080000D01*
X159250000Y-94420000D02*
X160580000Y-94420000D01*
X160580000Y-94420000D02*
X160580000Y-95750000D01*
D13*
%TO.C,D2*%
X153430000Y-89000000D02*
G75*
G02*
X153330000Y-89000000I-50000J0D01*
G01*
X153330000Y-89000000D02*
G75*
G02*
X153430000Y-89000000I50000J0D01*
G01*
D12*
%TO.C,J1*%
X157090000Y-108580000D02*
X157090000Y-107250000D01*
X158420000Y-108580000D02*
X157090000Y-108580000D01*
X159690000Y-105920000D02*
X164830000Y-105920000D01*
X159690000Y-108580000D02*
X159690000Y-105920000D01*
X159690000Y-108580000D02*
X164830000Y-108580000D01*
X164830000Y-108580000D02*
X164830000Y-105920000D01*
%TO.C,R2*%
X168772500Y-96987258D02*
X168772500Y-96512742D01*
X167727500Y-96987258D02*
X167727500Y-96512742D01*
%TO.C,U2*%
X170540000Y-94840000D02*
X170060000Y-94840000D01*
X170300000Y-94510000D01*
X170540000Y-94840000D01*
G36*
X170540000Y-94840000D02*
G01*
X170060000Y-94840000D01*
X170300000Y-94510000D01*
X170540000Y-94840000D01*
G37*
X169000000Y-94560000D02*
X169800000Y-94560000D01*
X169000000Y-94560000D02*
X168200000Y-94560000D01*
X169000000Y-91440000D02*
X169800000Y-91440000D01*
X169000000Y-91440000D02*
X168200000Y-91440000D01*
%TO.C,Batt+1*%
X170950000Y-86000000D02*
G75*
G02*
X169050000Y-86000000I-950000J0D01*
G01*
X169050000Y-86000000D02*
G75*
G02*
X170950000Y-86000000I950000J0D01*
G01*
%TO.C,R4*%
X159222258Y-87477500D02*
X158747742Y-87477500D01*
X159222258Y-88522500D02*
X158747742Y-88522500D01*
%TO.C,5V1*%
X164700000Y-86500000D02*
G75*
G02*
X162800000Y-86500000I-950000J0D01*
G01*
X162800000Y-86500000D02*
G75*
G02*
X164700000Y-86500000I950000J0D01*
G01*
D14*
%TO.C,L1*%
X185250000Y-98250000D02*
X185250000Y-85750000D01*
X182050000Y-98250000D02*
X185250000Y-98250000D01*
X182050000Y-85750000D02*
X185250000Y-85750000D01*
X172750000Y-98250000D02*
X175950000Y-98250000D01*
X172750000Y-98250000D02*
X172750000Y-85750000D01*
X172750000Y-85750000D02*
X175950000Y-85750000D01*
D13*
%TO.C,D3*%
X153460000Y-90500000D02*
G75*
G02*
X153360000Y-90500000I-50000J0D01*
G01*
X153360000Y-90500000D02*
G75*
G02*
X153460000Y-90500000I50000J0D01*
G01*
D12*
%TO.C,L2*%
X161375279Y-101510000D02*
X161049721Y-101510000D01*
X161375279Y-100490000D02*
X161049721Y-100490000D01*
%TO.C,J3*%
X169090000Y-108580000D02*
X169090000Y-107250000D01*
X170420000Y-108580000D02*
X169090000Y-108580000D01*
X171690000Y-105920000D02*
X176830000Y-105920000D01*
X171690000Y-108580000D02*
X171690000Y-105920000D01*
X171690000Y-108580000D02*
X176830000Y-108580000D01*
X176830000Y-108580000D02*
X176830000Y-105920000D01*
%TO.C,C7*%
X133834420Y-101990000D02*
X134115580Y-101990000D01*
X133834420Y-103010000D02*
X134115580Y-103010000D01*
D14*
%TO.C,U3*%
X145010000Y-86855000D02*
X149010000Y-86855000D01*
X145010000Y-91955000D02*
X149010000Y-91955000D01*
D15*
X142665000Y-86900000D02*
G75*
G02*
X142465000Y-86900000I-100000J0D01*
G01*
X142465000Y-86900000D02*
G75*
G02*
X142665000Y-86900000I100000J0D01*
G01*
D12*
%TO.C,R8*%
X137220000Y-93346359D02*
X137220000Y-93653641D01*
X137980000Y-93346359D02*
X137980000Y-93653641D01*
%TO.C,J4*%
X128395000Y-108580000D02*
X128395000Y-107250000D01*
X129725000Y-108580000D02*
X128395000Y-108580000D01*
X130995000Y-105920000D02*
X136135000Y-105920000D01*
X130995000Y-108580000D02*
X130995000Y-105920000D01*
X130995000Y-108580000D02*
X136135000Y-108580000D01*
X136135000Y-108580000D02*
X136135000Y-105920000D01*
D14*
%TO.C,TB1*%
X127160000Y-64110000D02*
X127160000Y-81890000D01*
X127160000Y-81890000D02*
X170340000Y-81890000D01*
D13*
X128750000Y-69500000D02*
X127250000Y-69500000D01*
X128750000Y-70000000D02*
X128750000Y-74000000D01*
X128750000Y-73000000D02*
X128750000Y-69500000D01*
X128750000Y-73000000D02*
X128750000Y-76500000D01*
X128750000Y-76500000D02*
X127250000Y-76500000D01*
D14*
X170340000Y-64110000D02*
X127160000Y-64110000D01*
X170340000Y-81890000D02*
X170340000Y-64110000D01*
D15*
X131070000Y-82500000D02*
G75*
G02*
X130870000Y-82500000I-100000J0D01*
G01*
X130870000Y-82500000D02*
G75*
G02*
X131070000Y-82500000I100000J0D01*
G01*
D12*
%TO.C,J2*%
X143090000Y-107110000D02*
X143090000Y-109610000D01*
X143090000Y-109610000D02*
X145590000Y-109610000D01*
X143390000Y-105290000D02*
X143390000Y-109310000D01*
X143390000Y-107000000D02*
X143890000Y-107000000D01*
X143390000Y-107810000D02*
X144390000Y-107810000D01*
X143390000Y-109310000D02*
X151110000Y-109310000D01*
X143890000Y-105790000D02*
X150610000Y-105790000D01*
X143890000Y-107000000D02*
X143890000Y-105790000D01*
X144390000Y-107810000D02*
X144390000Y-109310000D01*
X150110000Y-107810000D02*
X150110000Y-109310000D01*
X150610000Y-105790000D02*
X150610000Y-107000000D01*
X150610000Y-107000000D02*
X151110000Y-107000000D01*
X151110000Y-105290000D02*
X143390000Y-105290000D01*
X151110000Y-107810000D02*
X150110000Y-107810000D01*
X151110000Y-109310000D02*
X151110000Y-105290000D01*
%TO.C,D1*%
X173490000Y-102650000D02*
X179000000Y-102650000D01*
X173490000Y-99350000D02*
X179000000Y-99350000D01*
X173490000Y-99350000D02*
X173490000Y-102650000D01*
%TO.C,R3*%
X159397258Y-90477500D02*
X158922742Y-90477500D01*
X159397258Y-91522500D02*
X158922742Y-91522500D01*
%TO.C,D4*%
X134200000Y-99735000D02*
X136485000Y-99735000D01*
X136485000Y-98265000D02*
X134200000Y-98265000D01*
X136485000Y-99735000D02*
X136485000Y-98265000D01*
%TO.C,R1*%
X171022500Y-99487258D02*
X171022500Y-99012742D01*
X169977500Y-99487258D02*
X169977500Y-99012742D01*
%TO.C,R9*%
X155620000Y-102356359D02*
X155620000Y-102663641D01*
X156380000Y-102356359D02*
X156380000Y-102663641D01*
%TO.C,Q1*%
X143750000Y-93840000D02*
X147510000Y-93840000D01*
X143750000Y-100660000D02*
X147510000Y-100660000D01*
X147510000Y-93840000D02*
X147510000Y-95100000D01*
X147510000Y-100660000D02*
X147510000Y-99400000D01*
X142470000Y-93940000D02*
X142230000Y-93610000D01*
X142710000Y-93610000D01*
X142470000Y-93940000D01*
G36*
X142470000Y-93940000D02*
G01*
X142230000Y-93610000D01*
X142710000Y-93610000D01*
X142470000Y-93940000D01*
G37*
%TO.C,R7*%
X138893641Y-98620000D02*
X138586359Y-98620000D01*
X138893641Y-99380000D02*
X138586359Y-99380000D01*
%TD*%
M02*
