%TF.GenerationSoftware,KiCad,Pcbnew,8.0.7*%
%TF.CreationDate,2024-12-28T13:43:39+03:00*%
%TF.ProjectId,SingleSwitch,53696e67-6c65-4537-9769-7463682e6b69,rev?*%
%TF.SameCoordinates,Original*%
%TF.FileFunction,Paste,Top*%
%TF.FilePolarity,Positive*%
%FSLAX46Y46*%
G04 Gerber Fmt 4.6, Leading zero omitted, Abs format (unit mm)*
G04 Created by KiCad (PCBNEW 8.0.7) date 2024-12-28 13:43:39*
%MOMM*%
%LPD*%
G01*
G04 APERTURE LIST*
G04 Aperture macros list*
%AMRoundRect*
0 Rectangle with rounded corners*
0 $1 Rounding radius*
0 $2 $3 $4 $5 $6 $7 $8 $9 X,Y pos of 4 corners*
0 Add a 4 corners polygon primitive as box body*
4,1,4,$2,$3,$4,$5,$6,$7,$8,$9,$2,$3,0*
0 Add four circle primitives for the rounded corners*
1,1,$1+$1,$2,$3*
1,1,$1+$1,$4,$5*
1,1,$1+$1,$6,$7*
1,1,$1+$1,$8,$9*
0 Add four rect primitives between the rounded corners*
20,1,$1+$1,$2,$3,$4,$5,0*
20,1,$1+$1,$4,$5,$6,$7,0*
20,1,$1+$1,$6,$7,$8,$9,0*
20,1,$1+$1,$8,$9,$2,$3,0*%
G04 Aperture macros list end*
%ADD10C,0.010000*%
%ADD11RoundRect,0.225000X-0.225000X-0.250000X0.225000X-0.250000X0.225000X0.250000X-0.225000X0.250000X0*%
%ADD12RoundRect,0.225000X0.225000X0.250000X-0.225000X0.250000X-0.225000X-0.250000X0.225000X-0.250000X0*%
%ADD13RoundRect,0.135000X0.135000X0.185000X-0.135000X0.185000X-0.135000X-0.185000X0.135000X-0.185000X0*%
%ADD14RoundRect,0.225000X0.250000X-0.225000X0.250000X0.225000X-0.250000X0.225000X-0.250000X-0.225000X0*%
%ADD15RoundRect,0.225000X-0.250000X0.225000X-0.250000X-0.225000X0.250000X-0.225000X0.250000X0.225000X0*%
%ADD16RoundRect,0.200000X-0.200000X-0.275000X0.200000X-0.275000X0.200000X0.275000X-0.200000X0.275000X0*%
%ADD17RoundRect,0.200000X0.275000X-0.200000X0.275000X0.200000X-0.275000X0.200000X-0.275000X-0.200000X0*%
%ADD18RoundRect,0.147500X-0.147500X-0.172500X0.147500X-0.172500X0.147500X0.172500X-0.147500X0.172500X0*%
%ADD19RoundRect,0.150000X0.512500X0.150000X-0.512500X0.150000X-0.512500X-0.150000X0.512500X-0.150000X0*%
%ADD20RoundRect,0.200000X0.200000X0.275000X-0.200000X0.275000X-0.200000X-0.275000X0.200000X-0.275000X0*%
%ADD21R,5.400000X2.900000*%
%ADD22RoundRect,0.218750X0.218750X0.256250X-0.218750X0.256250X-0.218750X-0.256250X0.218750X-0.256250X0*%
%ADD23RoundRect,0.075000X-0.910000X-0.225000X0.910000X-0.225000X0.910000X0.225000X-0.910000X0.225000X0*%
%ADD24RoundRect,0.135000X-0.185000X0.135000X-0.185000X-0.135000X0.185000X-0.135000X0.185000X0.135000X0*%
%ADD25RoundRect,0.250000X-1.000000X-0.650000X1.000000X-0.650000X1.000000X0.650000X-1.000000X0.650000X0*%
%ADD26RoundRect,0.375000X-0.625000X-0.375000X0.625000X-0.375000X0.625000X0.375000X-0.625000X0.375000X0*%
%ADD27RoundRect,0.500000X-0.500000X-1.400000X0.500000X-1.400000X0.500000X1.400000X-0.500000X1.400000X0*%
G04 APERTURE END LIST*
D10*
%TO.C,U3*%
X147655000Y-90225000D02*
X146365000Y-90225000D01*
X146365000Y-88585000D01*
X147655000Y-88585000D01*
X147655000Y-90225000D01*
G36*
X147655000Y-90225000D02*
G01*
X146365000Y-90225000D01*
X146365000Y-88585000D01*
X147655000Y-88585000D01*
X147655000Y-90225000D01*
G37*
%TD*%
D11*
%TO.C,C11*%
X138950000Y-62250000D03*
X140500000Y-62250000D03*
%TD*%
D12*
%TO.C,C10*%
X136000000Y-62000000D03*
X134450000Y-62000000D03*
%TD*%
D13*
%TO.C,R10*%
X139500000Y-96250000D03*
X138480000Y-96250000D03*
%TD*%
D11*
%TO.C,C9*%
X173725000Y-104000000D03*
X175275000Y-104000000D03*
%TD*%
%TO.C,C8*%
X160225000Y-104250000D03*
X161775000Y-104250000D03*
%TD*%
D14*
%TO.C,C6*%
X155750000Y-98975000D03*
X155750000Y-100525000D03*
%TD*%
%TO.C,C5*%
X158250000Y-98975000D03*
X158250000Y-100525000D03*
%TD*%
%TO.C,C4*%
X164000000Y-98475000D03*
X164000000Y-100025000D03*
%TD*%
%TO.C,C3*%
X166250000Y-98475000D03*
X166250000Y-100025000D03*
%TD*%
D15*
%TO.C,C2*%
X165000000Y-95775000D03*
X165000000Y-94225000D03*
%TD*%
%TO.C,C1*%
X163000000Y-94225000D03*
X163000000Y-95775000D03*
%TD*%
D16*
%TO.C,R6*%
X129425000Y-102500000D03*
X131075000Y-102500000D03*
%TD*%
D17*
%TO.C,R5*%
X140500000Y-89825000D03*
X140500000Y-88175000D03*
%TD*%
D18*
%TO.C,D2*%
X153985000Y-89000000D03*
X154955000Y-89000000D03*
%TD*%
D17*
%TO.C,R2*%
X168250000Y-95925000D03*
X168250000Y-97575000D03*
%TD*%
D19*
%TO.C,U2*%
X167862500Y-93950000D03*
X167862500Y-93000000D03*
X167862500Y-92050000D03*
X170137500Y-92050000D03*
X170137500Y-93000000D03*
X170137500Y-93950000D03*
%TD*%
D20*
%TO.C,R4*%
X159810000Y-88000000D03*
X158160000Y-88000000D03*
%TD*%
D21*
%TO.C,L1*%
X179000000Y-87150000D03*
X179000000Y-96850000D03*
%TD*%
D18*
%TO.C,D3*%
X154015000Y-90500000D03*
X154985000Y-90500000D03*
%TD*%
D22*
%TO.C,L2*%
X160425000Y-101000000D03*
X162000000Y-101000000D03*
%TD*%
D11*
%TO.C,C7*%
X133200000Y-102500000D03*
X134750000Y-102500000D03*
%TD*%
D23*
%TO.C,U3*%
X144535000Y-87500000D03*
X144535000Y-88770000D03*
X144535000Y-90040000D03*
X144535000Y-91310000D03*
X149485000Y-91310000D03*
X149485000Y-90040000D03*
X149485000Y-88770000D03*
X149485000Y-87500000D03*
%TD*%
D24*
%TO.C,R8*%
X137600000Y-92990000D03*
X137600000Y-94010000D03*
%TD*%
D25*
%TO.C,D1*%
X179000000Y-101000000D03*
X175000000Y-101000000D03*
%TD*%
D20*
%TO.C,R3*%
X159985000Y-91000000D03*
X158335000Y-91000000D03*
%TD*%
D22*
%TO.C,D4*%
X135787500Y-99000000D03*
X134212500Y-99000000D03*
%TD*%
D17*
%TO.C,R1*%
X170500000Y-98425000D03*
X170500000Y-100075000D03*
%TD*%
D24*
%TO.C,R9*%
X156000000Y-102000000D03*
X156000000Y-103020000D03*
%TD*%
D26*
%TO.C,Q1*%
X142450000Y-94950000D03*
X142450000Y-97250000D03*
D27*
X148750000Y-97250000D03*
D26*
X142450000Y-99550000D03*
%TD*%
D13*
%TO.C,R7*%
X139250000Y-99000000D03*
X138230000Y-99000000D03*
%TD*%
M02*
