%TF.GenerationSoftware,KiCad,Pcbnew,8.0.7*%
%TF.CreationDate,2024-12-28T13:43:39+03:00*%
%TF.ProjectId,SingleSwitch,53696e67-6c65-4537-9769-7463682e6b69,rev?*%
%TF.SameCoordinates,Original*%
%TF.FileFunction,Copper,L2,Bot*%
%TF.FilePolarity,Positive*%
%FSLAX46Y46*%
G04 Gerber Fmt 4.6, Leading zero omitted, Abs format (unit mm)*
G04 Created by KiCad (PCBNEW 8.0.7) date 2024-12-28 13:43:39*
%MOMM*%
%LPD*%
G01*
G04 APERTURE LIST*
G04 Aperture macros list*
%AMRoundRect*
0 Rectangle with rounded corners*
0 $1 Rounding radius*
0 $2 $3 $4 $5 $6 $7 $8 $9 X,Y pos of 4 corners*
0 Add a 4 corners polygon primitive as box body*
4,1,4,$2,$3,$4,$5,$6,$7,$8,$9,$2,$3,0*
0 Add four circle primitives for the rounded corners*
1,1,$1+$1,$2,$3*
1,1,$1+$1,$4,$5*
1,1,$1+$1,$6,$7*
1,1,$1+$1,$8,$9*
0 Add four rect primitives between the rounded corners*
20,1,$1+$1,$2,$3,$4,$5,0*
20,1,$1+$1,$4,$5,$6,$7,0*
20,1,$1+$1,$6,$7,$8,$9,0*
20,1,$1+$1,$8,$9,$2,$3,0*%
G04 Aperture macros list end*
%TA.AperFunction,ComponentPad*%
%ADD10R,1.700000X1.700000*%
%TD*%
%TA.AperFunction,ComponentPad*%
%ADD11O,1.700000X1.700000*%
%TD*%
%TA.AperFunction,ComponentPad*%
%ADD12C,3.500000*%
%TD*%
%TA.AperFunction,ComponentPad*%
%ADD13R,1.524000X1.524000*%
%TD*%
%TA.AperFunction,ComponentPad*%
%ADD14C,1.524000*%
%TD*%
%TA.AperFunction,ComponentPad*%
%ADD15RoundRect,0.250000X-0.600000X-0.750000X0.600000X-0.750000X0.600000X0.750000X-0.600000X0.750000X0*%
%TD*%
%TA.AperFunction,ComponentPad*%
%ADD16O,1.700000X2.000000*%
%TD*%
%TA.AperFunction,ViaPad*%
%ADD17C,0.600000*%
%TD*%
%TA.AperFunction,Conductor*%
%ADD18C,0.450000*%
%TD*%
%TA.AperFunction,Conductor*%
%ADD19C,0.250000*%
%TD*%
G04 APERTURE END LIST*
D10*
%TO.P,J6,1,Pin_1*%
%TO.N,+5V*%
X130250000Y-96775000D03*
D11*
%TO.P,J6,2,Pin_2*%
%TO.N,Net-(J6-Pin_2)*%
X130250000Y-94235000D03*
%TD*%
D10*
%TO.P,J5,1,Pin_1*%
%TO.N,Net-(J5-Pin_1)*%
X159250000Y-95750000D03*
D11*
%TO.P,J5,2,Pin_2*%
%TO.N,+5V*%
X156710000Y-95750000D03*
%TD*%
D12*
%TO.P,H1,1*%
%TO.N,N/C*%
X181500000Y-65500000D03*
%TD*%
D10*
%TO.P,J1,1,Pin_1*%
%TO.N,PWM Lid*%
X158420000Y-107250000D03*
D11*
%TO.P,J1,2,Pin_2*%
%TO.N,+5V*%
X160960000Y-107250000D03*
%TO.P,J1,3,Pin_3*%
%TO.N,GND*%
X163500000Y-107250000D03*
%TD*%
D10*
%TO.P,J3,1,Pin_1*%
%TO.N,PWM Foot*%
X170420000Y-107250000D03*
D11*
%TO.P,J3,2,Pin_2*%
%TO.N,+5V*%
X172960000Y-107250000D03*
%TO.P,J3,3,Pin_3*%
%TO.N,GND*%
X175500000Y-107250000D03*
%TD*%
D10*
%TO.P,J4,1,Pin_1*%
%TO.N,+5V*%
X129725000Y-107250000D03*
D11*
%TO.P,J4,2,Pin_2*%
%TO.N,Toggle Switch*%
X132265000Y-107250000D03*
%TO.P,J4,3,Pin_3*%
%TO.N,GND*%
X134805000Y-107250000D03*
%TD*%
D13*
%TO.P,TB1,1,D1/TX*%
%TO.N,unconnected-(TB1-D1{slash}TX-Pad1)*%
X130970000Y-80620000D03*
D14*
%TO.P,TB1,2,D0/RX*%
%TO.N,unconnected-(TB1-D0{slash}RX-Pad2)*%
X133510000Y-80620000D03*
%TO.P,TB1,3,RESET*%
%TO.N,unconnected-(TB1-RESET-Pad28)_1*%
X136050000Y-80620000D03*
%TO.P,TB1,4,COM/GND*%
%TO.N,GND*%
X138590000Y-80620000D03*
%TO.P,TB1,5,D2*%
%TO.N,unconnected-(TB1-D2-Pad5)*%
X141130000Y-80620000D03*
%TO.P,TB1,6,D3*%
%TO.N,PWM Lid*%
X143670000Y-80620000D03*
%TO.P,TB1,7,D4*%
%TO.N,Status LED*%
X146210000Y-80620000D03*
%TO.P,TB1,8,D5*%
%TO.N,PWM Foot*%
X148750000Y-80620000D03*
%TO.P,TB1,9,D6*%
%TO.N,Toggle Switch*%
X151290000Y-80620000D03*
%TO.P,TB1,10,D7*%
%TO.N,unconnected-(TB1-D7-Pad10)*%
X153830000Y-80620000D03*
%TO.P,TB1,11,D8*%
%TO.N,unconnected-(TB1-D8-Pad11)*%
X156370000Y-80620000D03*
%TO.P,TB1,12,D9*%
%TO.N,unconnected-(TB1-D9-Pad12)*%
X158910000Y-80620000D03*
%TO.P,TB1,13,D10*%
%TO.N,unconnected-(TB1-D10-Pad13)*%
X161450000Y-80620000D03*
%TO.P,TB1,14,D11/MOSI*%
%TO.N,unconnected-(TB1-D11{slash}MOSI-Pad14)*%
X163990000Y-80620000D03*
%TO.P,TB1,15,D12/MISO*%
%TO.N,unconnected-(TB1-D12{slash}MISO-Pad15)*%
X166530000Y-80620000D03*
%TO.P,TB1,16,D13/SCK*%
%TO.N,unconnected-(TB1-D13{slash}SCK-Pad16)*%
X166530000Y-65380000D03*
%TO.P,TB1,17,3V3*%
%TO.N,unconnected-(TB1-3V3-Pad17)*%
X163990000Y-65380000D03*
%TO.P,TB1,18,AREF*%
%TO.N,unconnected-(TB1-AREF-Pad18)*%
X161450000Y-65380000D03*
%TO.P,TB1,19,A0*%
%TO.N,unconnected-(TB1-A0-Pad19)*%
X158910000Y-65380000D03*
%TO.P,TB1,20,A1*%
%TO.N,unconnected-(TB1-A1-Pad20)*%
X156370000Y-65380000D03*
%TO.P,TB1,21,A2*%
%TO.N,unconnected-(TB1-A2-Pad21)*%
X153830000Y-65380000D03*
%TO.P,TB1,22,A3*%
%TO.N,unconnected-(TB1-A3-Pad22)*%
X151290000Y-65380000D03*
%TO.P,TB1,23,A4*%
%TO.N,unconnected-(TB1-A4-Pad23)*%
X148750000Y-65380000D03*
%TO.P,TB1,24,A5*%
%TO.N,unconnected-(TB1-A5-Pad24)*%
X146210000Y-65380000D03*
%TO.P,TB1,25,A6*%
%TO.N,unconnected-(TB1-A6-Pad25)*%
X143670000Y-65380000D03*
%TO.P,TB1,26,A7*%
%TO.N,unconnected-(TB1-A7-Pad26)*%
X141130000Y-65380000D03*
%TO.P,TB1,27,+5V*%
%TO.N,+5V*%
X138590000Y-65380000D03*
%TO.P,TB1,28,RESET*%
%TO.N,unconnected-(TB1-RESET-Pad28)*%
X136050000Y-65380000D03*
%TO.P,TB1,29,COM/GND*%
%TO.N,GND*%
X133510000Y-65380000D03*
%TO.P,TB1,30,VIN*%
%TO.N,unconnected-(TB1-VIN-Pad30)*%
X130970000Y-65380000D03*
%TD*%
D15*
%TO.P,J2,1,Pin_1*%
%TO.N,/Batt+*%
X146000000Y-107000000D03*
D16*
%TO.P,J2,2,Pin_2*%
%TO.N,GND*%
X148500000Y-107000000D03*
%TD*%
D12*
%TO.P,H3,1*%
%TO.N,N/C*%
X182250000Y-105750000D03*
%TD*%
D17*
%TO.N,+5V*%
X154250000Y-94250000D03*
X160250000Y-92250000D03*
%TO.N,GND*%
X185250000Y-99250000D03*
X173500000Y-95000000D03*
X184750000Y-87250000D03*
X174500000Y-92250000D03*
X142750000Y-62500000D03*
X184000000Y-95250000D03*
X184500000Y-84500000D03*
X155750000Y-98500000D03*
X175750000Y-90750000D03*
X158250000Y-98500000D03*
X183000000Y-86750000D03*
X183000000Y-84500000D03*
X170000000Y-95500000D03*
X182016523Y-92116738D03*
X183750000Y-89500000D03*
X175000000Y-89500000D03*
X175250000Y-84500000D03*
X183750000Y-93250000D03*
X175949941Y-93014161D03*
X162750000Y-97250000D03*
X172125000Y-92687500D03*
X173750000Y-91250000D03*
X180750000Y-94000000D03*
X183750000Y-87750000D03*
X175750000Y-92000000D03*
X184250000Y-97500000D03*
X182750000Y-97500000D03*
X185750000Y-84500000D03*
X177250000Y-84500000D03*
X175000000Y-95250000D03*
X181262687Y-90250097D03*
X142250000Y-90250000D03*
X180250000Y-84500000D03*
X175500000Y-88250000D03*
X182500000Y-93750000D03*
X177250000Y-92000000D03*
X181500000Y-84500000D03*
X173500000Y-97500000D03*
X173500000Y-93000000D03*
X183750000Y-90750000D03*
X183000000Y-99250000D03*
X184500000Y-91500000D03*
X183750000Y-94250000D03*
X184500000Y-88750000D03*
X173500000Y-88250000D03*
X164250000Y-97000000D03*
X182750000Y-95000000D03*
X173250000Y-84500000D03*
X171965381Y-97429484D03*
X181975609Y-99226068D03*
X142250000Y-87000000D03*
X183750000Y-100000000D03*
X184750000Y-94250000D03*
X183883163Y-86409125D03*
X139000000Y-90250000D03*
X173508949Y-89747540D03*
X137850000Y-92000000D03*
X184750000Y-90250000D03*
X184500000Y-92500000D03*
X174750000Y-96750000D03*
X178000000Y-93500000D03*
X184000000Y-96500000D03*
X178570417Y-91039830D03*
X183000000Y-96000000D03*
X179250000Y-94500000D03*
X172750000Y-99000000D03*
X179250000Y-92750000D03*
X178750000Y-84500000D03*
X178750000Y-89750000D03*
X177000000Y-90250000D03*
X165750000Y-97250000D03*
X179750000Y-91000000D03*
X184750000Y-100000000D03*
X182500000Y-100250000D03*
X183000000Y-88750000D03*
X183500000Y-92000000D03*
X184250000Y-99250000D03*
%TO.N,Toggle Switch*%
X138500000Y-85500000D03*
%TO.N,Net-(U2-FB)*%
X171500000Y-95750000D03*
X171750000Y-90500000D03*
%TO.N,Status LED*%
X145250000Y-84750000D03*
%TD*%
D18*
%TO.N,+5V*%
X160750000Y-92250000D02*
X160250000Y-92250000D01*
X173750000Y-77000000D02*
X173750000Y-79250000D01*
X154250000Y-94250000D02*
X156250000Y-92250000D01*
X138590000Y-65380000D02*
X148210000Y-75000000D01*
X171750000Y-75000000D02*
X173750000Y-77000000D01*
X148210000Y-75000000D02*
X171750000Y-75000000D01*
X173750000Y-79250000D02*
X160750000Y-92250000D01*
X156250000Y-92250000D02*
X160250000Y-92250000D01*
D19*
%TO.N,Toggle Switch*%
X132265000Y-107250000D02*
X132265000Y-91735000D01*
X132265000Y-91735000D02*
X138500000Y-85500000D01*
%TO.N,Net-(U2-FB)*%
X171500000Y-95750000D02*
X171500000Y-90750000D01*
X171500000Y-90750000D02*
X171750000Y-90500000D01*
D18*
%TO.N,PWM Lid*%
X143670000Y-93527818D02*
X157392182Y-107250000D01*
X143670000Y-80620000D02*
X143670000Y-93527818D01*
X157392182Y-107250000D02*
X158420000Y-107250000D01*
%TO.N,PWM Foot*%
X160763123Y-105250000D02*
X168420000Y-105250000D01*
X148750000Y-93236877D02*
X160763123Y-105250000D01*
X148750000Y-80620000D02*
X148750000Y-93236877D01*
X168420000Y-105250000D02*
X170420000Y-107250000D01*
D19*
%TO.N,Status LED*%
X146210000Y-83790000D02*
X145250000Y-84750000D01*
X146210000Y-80620000D02*
X146210000Y-83790000D01*
%TD*%
%TA.AperFunction,Conductor*%
%TO.N,GND*%
G36*
X177751886Y-60750557D02*
G01*
X178334932Y-60768174D01*
X178342364Y-60768623D01*
X178921442Y-60821246D01*
X178928876Y-60822148D01*
X179503694Y-60909634D01*
X179511055Y-60910983D01*
X180079544Y-61033016D01*
X180086797Y-61034803D01*
X180646918Y-61190949D01*
X180654045Y-61193170D01*
X181203684Y-61382838D01*
X181210668Y-61385487D01*
X181747870Y-61608003D01*
X181754678Y-61611067D01*
X182277463Y-61865612D01*
X182284062Y-61869075D01*
X182628910Y-62063570D01*
X182790521Y-62154719D01*
X182796929Y-62158593D01*
X183285224Y-62474300D01*
X183291348Y-62478527D01*
X183759680Y-62823132D01*
X183765576Y-62827751D01*
X184212232Y-63199992D01*
X184217839Y-63204959D01*
X184641209Y-63603493D01*
X184646505Y-63608789D01*
X185035612Y-64022145D01*
X185045040Y-64032160D01*
X185050007Y-64037767D01*
X185422248Y-64484423D01*
X185426867Y-64490319D01*
X185771467Y-64958644D01*
X185775704Y-64964782D01*
X185901931Y-65160013D01*
X186091405Y-65453068D01*
X186095280Y-65459478D01*
X186174527Y-65599986D01*
X186374597Y-65954719D01*
X186380915Y-65965920D01*
X186384396Y-65972553D01*
X186638927Y-66495310D01*
X186642001Y-66502140D01*
X186864508Y-67039321D01*
X186867164Y-67046325D01*
X187056825Y-67595942D01*
X187059054Y-67603093D01*
X187215193Y-68163192D01*
X187216985Y-68170465D01*
X187339015Y-68738941D01*
X187340365Y-68746308D01*
X187427850Y-69321121D01*
X187428753Y-69328557D01*
X187481374Y-69907612D01*
X187481826Y-69915089D01*
X187499443Y-70498113D01*
X187499500Y-70501858D01*
X187499500Y-101248141D01*
X187499443Y-101251886D01*
X187481826Y-101834910D01*
X187481374Y-101842387D01*
X187428753Y-102421442D01*
X187427850Y-102428878D01*
X187340365Y-103003691D01*
X187339015Y-103011058D01*
X187216985Y-103579534D01*
X187215193Y-103586807D01*
X187059054Y-104146906D01*
X187056825Y-104154057D01*
X186867164Y-104703674D01*
X186864508Y-104710678D01*
X186642001Y-105247859D01*
X186638927Y-105254689D01*
X186384396Y-105777446D01*
X186380915Y-105784079D01*
X186095280Y-106290521D01*
X186091405Y-106296931D01*
X185775713Y-106785204D01*
X185771458Y-106791368D01*
X185426867Y-107259680D01*
X185422248Y-107265576D01*
X185050007Y-107712232D01*
X185045040Y-107717839D01*
X184646506Y-108141209D01*
X184641209Y-108146506D01*
X184217839Y-108545040D01*
X184212232Y-108550007D01*
X183765576Y-108922248D01*
X183759680Y-108926867D01*
X183291368Y-109271458D01*
X183285204Y-109275713D01*
X182796931Y-109591405D01*
X182790521Y-109595280D01*
X182284079Y-109880915D01*
X182277446Y-109884396D01*
X181754689Y-110138927D01*
X181747859Y-110142001D01*
X181210678Y-110364508D01*
X181203674Y-110367164D01*
X180654057Y-110556825D01*
X180646906Y-110559054D01*
X180086807Y-110715193D01*
X180079534Y-110716985D01*
X179511058Y-110839015D01*
X179503691Y-110840365D01*
X178928878Y-110927850D01*
X178921442Y-110928753D01*
X178342387Y-110981374D01*
X178334910Y-110981826D01*
X177751886Y-110999443D01*
X177748141Y-110999500D01*
X126374500Y-110999500D01*
X126307461Y-110979815D01*
X126261706Y-110927011D01*
X126250500Y-110875500D01*
X126250500Y-106380247D01*
X128674500Y-106380247D01*
X128674500Y-108119752D01*
X128686131Y-108178229D01*
X128686132Y-108178230D01*
X128730447Y-108244552D01*
X128796769Y-108288867D01*
X128796770Y-108288868D01*
X128855247Y-108300499D01*
X128855250Y-108300500D01*
X128855252Y-108300500D01*
X130594750Y-108300500D01*
X130594751Y-108300499D01*
X130609568Y-108297552D01*
X130653229Y-108288868D01*
X130653229Y-108288867D01*
X130653231Y-108288867D01*
X130719552Y-108244552D01*
X130763867Y-108178231D01*
X130763867Y-108178229D01*
X130763868Y-108178229D01*
X130773922Y-108127682D01*
X130775500Y-108119748D01*
X130775500Y-107250000D01*
X131209417Y-107250000D01*
X131229699Y-107455932D01*
X131251793Y-107528766D01*
X131289768Y-107653954D01*
X131387315Y-107836450D01*
X131387317Y-107836452D01*
X131518589Y-107996410D01*
X131610879Y-108072149D01*
X131678550Y-108127685D01*
X131861046Y-108225232D01*
X132059066Y-108285300D01*
X132059065Y-108285300D01*
X132077529Y-108287118D01*
X132265000Y-108305583D01*
X132470934Y-108285300D01*
X132668954Y-108225232D01*
X132851450Y-108127685D01*
X133011410Y-107996410D01*
X133142685Y-107836450D01*
X133240232Y-107653954D01*
X133260406Y-107587446D01*
X133298702Y-107529010D01*
X133362514Y-107500553D01*
X133431581Y-107511112D01*
X133483975Y-107557336D01*
X133498841Y-107591349D01*
X133531567Y-107713486D01*
X133531570Y-107713492D01*
X133631399Y-107927578D01*
X133766894Y-108121082D01*
X133933917Y-108288105D01*
X134127421Y-108423600D01*
X134341507Y-108523429D01*
X134341516Y-108523433D01*
X134555000Y-108580634D01*
X134555000Y-107683012D01*
X134612007Y-107715925D01*
X134739174Y-107750000D01*
X134870826Y-107750000D01*
X134997993Y-107715925D01*
X135055000Y-107683012D01*
X135055000Y-108580633D01*
X135268483Y-108523433D01*
X135268492Y-108523429D01*
X135482578Y-108423600D01*
X135676082Y-108288105D01*
X135843105Y-108121082D01*
X135978600Y-107927578D01*
X136078429Y-107713492D01*
X136078432Y-107713486D01*
X136135636Y-107500000D01*
X135238012Y-107500000D01*
X135270925Y-107442993D01*
X135305000Y-107315826D01*
X135305000Y-107184174D01*
X135270925Y-107057007D01*
X135238012Y-107000000D01*
X136135636Y-107000000D01*
X136135635Y-106999999D01*
X136078432Y-106786513D01*
X136078429Y-106786507D01*
X135978600Y-106572422D01*
X135978599Y-106572420D01*
X135843113Y-106378926D01*
X135843108Y-106378920D01*
X135676082Y-106211894D01*
X135652998Y-106195730D01*
X144949500Y-106195730D01*
X144949500Y-107804269D01*
X144952353Y-107834699D01*
X144952353Y-107834701D01*
X144997206Y-107962880D01*
X144997207Y-107962882D01*
X145077850Y-108072150D01*
X145187118Y-108152793D01*
X145229845Y-108167744D01*
X145315299Y-108197646D01*
X145345730Y-108200500D01*
X145345734Y-108200500D01*
X146654270Y-108200500D01*
X146684699Y-108197646D01*
X146684701Y-108197646D01*
X146748790Y-108175219D01*
X146812882Y-108152793D01*
X146922150Y-108072150D01*
X147002793Y-107962882D01*
X147047033Y-107836452D01*
X147047646Y-107834701D01*
X147047646Y-107834699D01*
X147050500Y-107804269D01*
X147050500Y-107795323D01*
X147070185Y-107728284D01*
X147122989Y-107682529D01*
X147192147Y-107672585D01*
X147255703Y-107701610D01*
X147284985Y-107739028D01*
X147345379Y-107857557D01*
X147470272Y-108029459D01*
X147470276Y-108029464D01*
X147620535Y-108179723D01*
X147620540Y-108179727D01*
X147792442Y-108304620D01*
X147981782Y-108401095D01*
X148183871Y-108466757D01*
X148250000Y-108477231D01*
X148250000Y-107433012D01*
X148307007Y-107465925D01*
X148434174Y-107500000D01*
X148565826Y-107500000D01*
X148692993Y-107465925D01*
X148750000Y-107433012D01*
X148750000Y-108477230D01*
X148816126Y-108466757D01*
X148816129Y-108466757D01*
X149018217Y-108401095D01*
X149207557Y-108304620D01*
X149379459Y-108179727D01*
X149379464Y-108179723D01*
X149529723Y-108029464D01*
X149529727Y-108029459D01*
X149654620Y-107857557D01*
X149751095Y-107668217D01*
X149816757Y-107466130D01*
X149816757Y-107466127D01*
X149850000Y-107256246D01*
X149850000Y-107250000D01*
X148933012Y-107250000D01*
X148965925Y-107192993D01*
X149000000Y-107065826D01*
X149000000Y-106934174D01*
X148965925Y-106807007D01*
X148933012Y-106750000D01*
X149850000Y-106750000D01*
X149850000Y-106743753D01*
X149816757Y-106533872D01*
X149816757Y-106533869D01*
X149751095Y-106331782D01*
X149654620Y-106142442D01*
X149529727Y-105970540D01*
X149529723Y-105970535D01*
X149379464Y-105820276D01*
X149379459Y-105820272D01*
X149207557Y-105695379D01*
X149018215Y-105598903D01*
X148816124Y-105533241D01*
X148750000Y-105522768D01*
X148750000Y-106566988D01*
X148692993Y-106534075D01*
X148565826Y-106500000D01*
X148434174Y-106500000D01*
X148307007Y-106534075D01*
X148250000Y-106566988D01*
X148250000Y-105522768D01*
X148249999Y-105522768D01*
X148183875Y-105533241D01*
X147981784Y-105598903D01*
X147792442Y-105695379D01*
X147620540Y-105820272D01*
X147620535Y-105820276D01*
X147470276Y-105970535D01*
X147470272Y-105970540D01*
X147345379Y-106142442D01*
X147284985Y-106260971D01*
X147237010Y-106311767D01*
X147169189Y-106328562D01*
X147103054Y-106306024D01*
X147059603Y-106251309D01*
X147050500Y-106204676D01*
X147050500Y-106195730D01*
X147047646Y-106165300D01*
X147047646Y-106165298D01*
X147002793Y-106037119D01*
X147002792Y-106037117D01*
X146996284Y-106028299D01*
X146922150Y-105927850D01*
X146812882Y-105847207D01*
X146812880Y-105847206D01*
X146684700Y-105802353D01*
X146654270Y-105799500D01*
X146654266Y-105799500D01*
X145345734Y-105799500D01*
X145345730Y-105799500D01*
X145315300Y-105802353D01*
X145315298Y-105802353D01*
X145187119Y-105847206D01*
X145187117Y-105847207D01*
X145077850Y-105927850D01*
X144997207Y-106037117D01*
X144997206Y-106037119D01*
X144952353Y-106165298D01*
X144952353Y-106165300D01*
X144949500Y-106195730D01*
X135652998Y-106195730D01*
X135482578Y-106076399D01*
X135268492Y-105976570D01*
X135268486Y-105976567D01*
X135055000Y-105919364D01*
X135055000Y-106816988D01*
X134997993Y-106784075D01*
X134870826Y-106750000D01*
X134739174Y-106750000D01*
X134612007Y-106784075D01*
X134555000Y-106816988D01*
X134555000Y-105919364D01*
X134554999Y-105919364D01*
X134341513Y-105976567D01*
X134341507Y-105976570D01*
X134127422Y-106076399D01*
X134127420Y-106076400D01*
X133933926Y-106211886D01*
X133933920Y-106211891D01*
X133766891Y-106378920D01*
X133766886Y-106378926D01*
X133631400Y-106572420D01*
X133631399Y-106572422D01*
X133531570Y-106786507D01*
X133531567Y-106786514D01*
X133498841Y-106908650D01*
X133462476Y-106968310D01*
X133399629Y-106998839D01*
X133330253Y-106990544D01*
X133276375Y-106946059D01*
X133260406Y-106912553D01*
X133240232Y-106846046D01*
X133142685Y-106663550D01*
X133067897Y-106572420D01*
X133011410Y-106503589D01*
X132861121Y-106380252D01*
X132851450Y-106372315D01*
X132668954Y-106274768D01*
X132667049Y-106273979D01*
X132666203Y-106273298D01*
X132663581Y-106271896D01*
X132663846Y-106271398D01*
X132612645Y-106230138D01*
X132590579Y-106163844D01*
X132590500Y-106159417D01*
X132590500Y-91921188D01*
X132610185Y-91854149D01*
X132626819Y-91833507D01*
X138423507Y-86036819D01*
X138484830Y-86003334D01*
X138511188Y-86000500D01*
X138571962Y-86000500D01*
X138571962Y-86000499D01*
X138710053Y-85959953D01*
X138831128Y-85882143D01*
X138925377Y-85773373D01*
X138985165Y-85642457D01*
X139005647Y-85500000D01*
X138985165Y-85357543D01*
X138925377Y-85226627D01*
X138831128Y-85117857D01*
X138710053Y-85040047D01*
X138710051Y-85040046D01*
X138710049Y-85040045D01*
X138710050Y-85040045D01*
X138571963Y-84999500D01*
X138571961Y-84999500D01*
X138428039Y-84999500D01*
X138428036Y-84999500D01*
X138289949Y-85040045D01*
X138168873Y-85117856D01*
X138074623Y-85226626D01*
X138074622Y-85226628D01*
X138014834Y-85357543D01*
X137993091Y-85508779D01*
X137990126Y-85508352D01*
X137974668Y-85560997D01*
X137958034Y-85581639D01*
X132004537Y-91535135D01*
X132004533Y-91535141D01*
X131961681Y-91609361D01*
X131961682Y-91609362D01*
X131939500Y-91692147D01*
X131939500Y-106159417D01*
X131919815Y-106226456D01*
X131867011Y-106272211D01*
X131862951Y-106273979D01*
X131861045Y-106274768D01*
X131791826Y-106311767D01*
X131678550Y-106372315D01*
X131678548Y-106372316D01*
X131678547Y-106372317D01*
X131518589Y-106503589D01*
X131387317Y-106663547D01*
X131289769Y-106846043D01*
X131229699Y-107044067D01*
X131209417Y-107250000D01*
X130775500Y-107250000D01*
X130775500Y-106380252D01*
X130775500Y-106380249D01*
X130775499Y-106380247D01*
X130763868Y-106321770D01*
X130763867Y-106321769D01*
X130719552Y-106255447D01*
X130653230Y-106211132D01*
X130653229Y-106211131D01*
X130594752Y-106199500D01*
X130594748Y-106199500D01*
X128855252Y-106199500D01*
X128855247Y-106199500D01*
X128796770Y-106211131D01*
X128796769Y-106211132D01*
X128730447Y-106255447D01*
X128686132Y-106321769D01*
X128686131Y-106321770D01*
X128674500Y-106380247D01*
X126250500Y-106380247D01*
X126250500Y-95905247D01*
X129199500Y-95905247D01*
X129199500Y-97644752D01*
X129211131Y-97703229D01*
X129211132Y-97703230D01*
X129255447Y-97769552D01*
X129321769Y-97813867D01*
X129321770Y-97813868D01*
X129380247Y-97825499D01*
X129380250Y-97825500D01*
X129380252Y-97825500D01*
X131119750Y-97825500D01*
X131119751Y-97825499D01*
X131134568Y-97822552D01*
X131178229Y-97813868D01*
X131178229Y-97813867D01*
X131178231Y-97813867D01*
X131244552Y-97769552D01*
X131288867Y-97703231D01*
X131288867Y-97703229D01*
X131288868Y-97703229D01*
X131300499Y-97644752D01*
X131300500Y-97644750D01*
X131300500Y-95905249D01*
X131300499Y-95905247D01*
X131288868Y-95846770D01*
X131288867Y-95846769D01*
X131244552Y-95780447D01*
X131178230Y-95736132D01*
X131178229Y-95736131D01*
X131119752Y-95724500D01*
X131119748Y-95724500D01*
X129380252Y-95724500D01*
X129380247Y-95724500D01*
X129321770Y-95736131D01*
X129321769Y-95736132D01*
X129255447Y-95780447D01*
X129211132Y-95846769D01*
X129211131Y-95846770D01*
X129199500Y-95905247D01*
X126250500Y-95905247D01*
X126250500Y-94235000D01*
X129194417Y-94235000D01*
X129214699Y-94440932D01*
X129214700Y-94440934D01*
X129274768Y-94638954D01*
X129372315Y-94821450D01*
X129372317Y-94821452D01*
X129503589Y-94981410D01*
X129600209Y-95060702D01*
X129663550Y-95112685D01*
X129846046Y-95210232D01*
X130044066Y-95270300D01*
X130044065Y-95270300D01*
X130062529Y-95272118D01*
X130250000Y-95290583D01*
X130455934Y-95270300D01*
X130653954Y-95210232D01*
X130836450Y-95112685D01*
X130996410Y-94981410D01*
X131127685Y-94821450D01*
X131225232Y-94638954D01*
X131285300Y-94440934D01*
X131305583Y-94235000D01*
X131285300Y-94029066D01*
X131225232Y-93831046D01*
X131127685Y-93648550D01*
X131074575Y-93583835D01*
X130996410Y-93488589D01*
X130836452Y-93357317D01*
X130836453Y-93357317D01*
X130836450Y-93357315D01*
X130653954Y-93259768D01*
X130455934Y-93199700D01*
X130455932Y-93199699D01*
X130455934Y-93199699D01*
X130250000Y-93179417D01*
X130044067Y-93199699D01*
X129846043Y-93259769D01*
X129735898Y-93318643D01*
X129663550Y-93357315D01*
X129663548Y-93357316D01*
X129663547Y-93357317D01*
X129503589Y-93488589D01*
X129372317Y-93648547D01*
X129372315Y-93648550D01*
X129349061Y-93692055D01*
X129274769Y-93831043D01*
X129214699Y-94029067D01*
X129194417Y-94235000D01*
X126250500Y-94235000D01*
X126250500Y-79838247D01*
X130007500Y-79838247D01*
X130007500Y-81401752D01*
X130019131Y-81460229D01*
X130019132Y-81460230D01*
X130063447Y-81526552D01*
X130129769Y-81570867D01*
X130129770Y-81570868D01*
X130188247Y-81582499D01*
X130188250Y-81582500D01*
X130188252Y-81582500D01*
X131751750Y-81582500D01*
X131751751Y-81582499D01*
X131766568Y-81579552D01*
X131810229Y-81570868D01*
X131810229Y-81570867D01*
X131810231Y-81570867D01*
X131876552Y-81526552D01*
X131920867Y-81460231D01*
X131920867Y-81460229D01*
X131920868Y-81460229D01*
X131932499Y-81401752D01*
X131932500Y-81401750D01*
X131932500Y-80620000D01*
X132542843Y-80620000D01*
X132561426Y-80808681D01*
X132579772Y-80869160D01*
X132616463Y-80990115D01*
X132616464Y-80990118D01*
X132616465Y-80990119D01*
X132616466Y-80990122D01*
X132705834Y-81157318D01*
X132705838Y-81157325D01*
X132826116Y-81303883D01*
X132972674Y-81424161D01*
X132972681Y-81424165D01*
X133139877Y-81513533D01*
X133139878Y-81513533D01*
X133139885Y-81513537D01*
X133321317Y-81568573D01*
X133321316Y-81568573D01*
X133338233Y-81570239D01*
X133510000Y-81587157D01*
X133698683Y-81568573D01*
X133880115Y-81513537D01*
X134047324Y-81424162D01*
X134193883Y-81303883D01*
X134314162Y-81157324D01*
X134403537Y-80990115D01*
X134458573Y-80808683D01*
X134477157Y-80620000D01*
X135082843Y-80620000D01*
X135101426Y-80808681D01*
X135119772Y-80869160D01*
X135156463Y-80990115D01*
X135156464Y-80990118D01*
X135156465Y-80990119D01*
X135156466Y-80990122D01*
X135245834Y-81157318D01*
X135245838Y-81157325D01*
X135366116Y-81303883D01*
X135512674Y-81424161D01*
X135512681Y-81424165D01*
X135679877Y-81513533D01*
X135679878Y-81513533D01*
X135679885Y-81513537D01*
X135861317Y-81568573D01*
X135861316Y-81568573D01*
X135878233Y-81570239D01*
X136050000Y-81587157D01*
X136238683Y-81568573D01*
X136420115Y-81513537D01*
X136587324Y-81424162D01*
X136733883Y-81303883D01*
X136854162Y-81157324D01*
X136943537Y-80990115D01*
X136998573Y-80808683D01*
X137017157Y-80620000D01*
X137017157Y-80619999D01*
X137323179Y-80619999D01*
X137323179Y-80620000D01*
X137342424Y-80839976D01*
X137342426Y-80839986D01*
X137399575Y-81053270D01*
X137399580Y-81053284D01*
X137492898Y-81253405D01*
X137492901Y-81253411D01*
X137538258Y-81318187D01*
X137538258Y-81318188D01*
X138100504Y-80755941D01*
X138116619Y-80816081D01*
X138183498Y-80931920D01*
X138278080Y-81026502D01*
X138393919Y-81093381D01*
X138454057Y-81109494D01*
X137891810Y-81671740D01*
X137956590Y-81717099D01*
X137956592Y-81717100D01*
X138156715Y-81810419D01*
X138156729Y-81810424D01*
X138370013Y-81867573D01*
X138370023Y-81867575D01*
X138589999Y-81886821D01*
X138590001Y-81886821D01*
X138809976Y-81867575D01*
X138809986Y-81867573D01*
X139023270Y-81810424D01*
X139023284Y-81810419D01*
X139223407Y-81717100D01*
X139223417Y-81717094D01*
X139288188Y-81671741D01*
X138725942Y-81109494D01*
X138786081Y-81093381D01*
X138901920Y-81026502D01*
X138996502Y-80931920D01*
X139063381Y-80816081D01*
X139079495Y-80755942D01*
X139641741Y-81318188D01*
X139687094Y-81253417D01*
X139687100Y-81253407D01*
X139780419Y-81053284D01*
X139780424Y-81053270D01*
X139837573Y-80839986D01*
X139837575Y-80839976D01*
X139856821Y-80620000D01*
X140162843Y-80620000D01*
X140181426Y-80808681D01*
X140199772Y-80869160D01*
X140236463Y-80990115D01*
X140236464Y-80990118D01*
X140236465Y-80990119D01*
X140236466Y-80990122D01*
X140325834Y-81157318D01*
X140325838Y-81157325D01*
X140446116Y-81303883D01*
X140592674Y-81424161D01*
X140592681Y-81424165D01*
X140759877Y-81513533D01*
X140759878Y-81513533D01*
X140759885Y-81513537D01*
X140941317Y-81568573D01*
X140941316Y-81568573D01*
X140958233Y-81570239D01*
X141130000Y-81587157D01*
X141318683Y-81568573D01*
X141500115Y-81513537D01*
X141667324Y-81424162D01*
X141813883Y-81303883D01*
X141934162Y-81157324D01*
X142023537Y-80990115D01*
X142078573Y-80808683D01*
X142097157Y-80620000D01*
X142702843Y-80620000D01*
X142721426Y-80808681D01*
X142739772Y-80869160D01*
X142776463Y-80990115D01*
X142776464Y-80990118D01*
X142776465Y-80990119D01*
X142776466Y-80990122D01*
X142865834Y-81157318D01*
X142865838Y-81157325D01*
X142986116Y-81303883D01*
X143132674Y-81424161D01*
X143132677Y-81424163D01*
X143178952Y-81448897D01*
X143228797Y-81497859D01*
X143244500Y-81558256D01*
X143244500Y-93471800D01*
X143244500Y-93583836D01*
X143273497Y-93692055D01*
X143329515Y-93789081D01*
X157051697Y-107511263D01*
X157130919Y-107590485D01*
X157227945Y-107646503D01*
X157277594Y-107659806D01*
X157337253Y-107696169D01*
X157367783Y-107759015D01*
X157369500Y-107779580D01*
X157369500Y-108119752D01*
X157381131Y-108178229D01*
X157381132Y-108178230D01*
X157425447Y-108244552D01*
X157491769Y-108288867D01*
X157491770Y-108288868D01*
X157550247Y-108300499D01*
X157550250Y-108300500D01*
X157550252Y-108300500D01*
X159289750Y-108300500D01*
X159289751Y-108300499D01*
X159304568Y-108297552D01*
X159348229Y-108288868D01*
X159348229Y-108288867D01*
X159348231Y-108288867D01*
X159414552Y-108244552D01*
X159458867Y-108178231D01*
X159458867Y-108178229D01*
X159458868Y-108178229D01*
X159468922Y-108127682D01*
X159470500Y-108119748D01*
X159470500Y-106380252D01*
X159470500Y-106380249D01*
X159470499Y-106380247D01*
X159458868Y-106321770D01*
X159458867Y-106321769D01*
X159414552Y-106255447D01*
X159348230Y-106211132D01*
X159348229Y-106211131D01*
X159289752Y-106199500D01*
X159289748Y-106199500D01*
X157550252Y-106199500D01*
X157550247Y-106199500D01*
X157491770Y-106211131D01*
X157491769Y-106211132D01*
X157425447Y-106255447D01*
X157381132Y-106321769D01*
X157374056Y-106357341D01*
X157341669Y-106419251D01*
X157280953Y-106453824D01*
X157211183Y-106450083D01*
X157164758Y-106420828D01*
X144131819Y-93387889D01*
X144098334Y-93326566D01*
X144095500Y-93300208D01*
X144095500Y-84750000D01*
X144744353Y-84750000D01*
X144764834Y-84892456D01*
X144813720Y-84999500D01*
X144824623Y-85023373D01*
X144918872Y-85132143D01*
X145039947Y-85209953D01*
X145039950Y-85209954D01*
X145039949Y-85209954D01*
X145178036Y-85250499D01*
X145178038Y-85250500D01*
X145178039Y-85250500D01*
X145321962Y-85250500D01*
X145321962Y-85250499D01*
X145460053Y-85209953D01*
X145581128Y-85132143D01*
X145675377Y-85023373D01*
X145735165Y-84892457D01*
X145755647Y-84750000D01*
X145755646Y-84749999D01*
X145756909Y-84741222D01*
X145759873Y-84741648D01*
X145775332Y-84689002D01*
X145791966Y-84668360D01*
X146092470Y-84367856D01*
X146470465Y-83989862D01*
X146513318Y-83915639D01*
X146535500Y-83832853D01*
X146535500Y-83747147D01*
X146535500Y-81611706D01*
X146555185Y-81544667D01*
X146601045Y-81502349D01*
X146747324Y-81424162D01*
X146893883Y-81303883D01*
X147014162Y-81157324D01*
X147103537Y-80990115D01*
X147158573Y-80808683D01*
X147177157Y-80620000D01*
X147782843Y-80620000D01*
X147801426Y-80808681D01*
X147819772Y-80869160D01*
X147856463Y-80990115D01*
X147856464Y-80990118D01*
X147856465Y-80990119D01*
X147856466Y-80990122D01*
X147945834Y-81157318D01*
X147945838Y-81157325D01*
X148066116Y-81303883D01*
X148212674Y-81424161D01*
X148212677Y-81424163D01*
X148258952Y-81448897D01*
X148308797Y-81497859D01*
X148324500Y-81558256D01*
X148324500Y-93180859D01*
X148324500Y-93292895D01*
X148353497Y-93401114D01*
X148409515Y-93498140D01*
X160422638Y-105511263D01*
X160501860Y-105590485D01*
X160594054Y-105643713D01*
X160598886Y-105646503D01*
X160707104Y-105675500D01*
X160707105Y-105675500D01*
X163218240Y-105675500D01*
X163285279Y-105695185D01*
X163331034Y-105747989D01*
X163340978Y-105817147D01*
X163311953Y-105880703D01*
X163253175Y-105918477D01*
X163250333Y-105919275D01*
X163036516Y-105976566D01*
X163036507Y-105976570D01*
X162822422Y-106076399D01*
X162822420Y-106076400D01*
X162628926Y-106211886D01*
X162628920Y-106211891D01*
X162461891Y-106378920D01*
X162461886Y-106378926D01*
X162326400Y-106572420D01*
X162326399Y-106572422D01*
X162226570Y-106786507D01*
X162226567Y-106786514D01*
X162193841Y-106908650D01*
X162157476Y-106968310D01*
X162094629Y-106998839D01*
X162025253Y-106990544D01*
X161971375Y-106946059D01*
X161955406Y-106912553D01*
X161935232Y-106846046D01*
X161837685Y-106663550D01*
X161762897Y-106572420D01*
X161706410Y-106503589D01*
X161556121Y-106380252D01*
X161546450Y-106372315D01*
X161363954Y-106274768D01*
X161165934Y-106214700D01*
X161165932Y-106214699D01*
X161165934Y-106214699D01*
X160960000Y-106194417D01*
X160754067Y-106214699D01*
X160619736Y-106255448D01*
X160564476Y-106272211D01*
X160556043Y-106274769D01*
X160486826Y-106311767D01*
X160373550Y-106372315D01*
X160373548Y-106372316D01*
X160373547Y-106372317D01*
X160213589Y-106503589D01*
X160082317Y-106663547D01*
X159984769Y-106846043D01*
X159924699Y-107044067D01*
X159904417Y-107250000D01*
X159924699Y-107455932D01*
X159946793Y-107528766D01*
X159984768Y-107653954D01*
X160082315Y-107836450D01*
X160082317Y-107836452D01*
X160213589Y-107996410D01*
X160305879Y-108072149D01*
X160373550Y-108127685D01*
X160556046Y-108225232D01*
X160754066Y-108285300D01*
X160754065Y-108285300D01*
X160772529Y-108287118D01*
X160960000Y-108305583D01*
X161165934Y-108285300D01*
X161363954Y-108225232D01*
X161546450Y-108127685D01*
X161706410Y-107996410D01*
X161837685Y-107836450D01*
X161935232Y-107653954D01*
X161955406Y-107587446D01*
X161993702Y-107529010D01*
X162057514Y-107500553D01*
X162126581Y-107511112D01*
X162178975Y-107557336D01*
X162193841Y-107591349D01*
X162226567Y-107713486D01*
X162226570Y-107713492D01*
X162326399Y-107927578D01*
X162461894Y-108121082D01*
X162628917Y-108288105D01*
X162822421Y-108423600D01*
X163036507Y-108523429D01*
X163036516Y-108523433D01*
X163250000Y-108580634D01*
X163250000Y-107683012D01*
X163307007Y-107715925D01*
X163434174Y-107750000D01*
X163565826Y-107750000D01*
X163692993Y-107715925D01*
X163750000Y-107683012D01*
X163750000Y-108580633D01*
X163963483Y-108523433D01*
X163963492Y-108523429D01*
X164177578Y-108423600D01*
X164371082Y-108288105D01*
X164538105Y-108121082D01*
X164673600Y-107927578D01*
X164773429Y-107713492D01*
X164773432Y-107713486D01*
X164830636Y-107500000D01*
X163933012Y-107500000D01*
X163965925Y-107442993D01*
X164000000Y-107315826D01*
X164000000Y-107184174D01*
X163965925Y-107057007D01*
X163933012Y-107000000D01*
X164830636Y-107000000D01*
X164830635Y-106999999D01*
X164773432Y-106786513D01*
X164773429Y-106786507D01*
X164673600Y-106572422D01*
X164673599Y-106572420D01*
X164538113Y-106378926D01*
X164538108Y-106378920D01*
X164371082Y-106211894D01*
X164177578Y-106076399D01*
X163963492Y-105976570D01*
X163963483Y-105976566D01*
X163749667Y-105919275D01*
X163690006Y-105882910D01*
X163659477Y-105820063D01*
X163667772Y-105750688D01*
X163712257Y-105696810D01*
X163778809Y-105675535D01*
X163781760Y-105675500D01*
X168192390Y-105675500D01*
X168259429Y-105695185D01*
X168280071Y-105711819D01*
X169333181Y-106764929D01*
X169366666Y-106826252D01*
X169369500Y-106852610D01*
X169369500Y-108119752D01*
X169381131Y-108178229D01*
X169381132Y-108178230D01*
X169425447Y-108244552D01*
X169491769Y-108288867D01*
X169491770Y-108288868D01*
X169550247Y-108300499D01*
X169550250Y-108300500D01*
X169550252Y-108300500D01*
X171289750Y-108300500D01*
X171289751Y-108300499D01*
X171304568Y-108297552D01*
X171348229Y-108288868D01*
X171348229Y-108288867D01*
X171348231Y-108288867D01*
X171414552Y-108244552D01*
X171458867Y-108178231D01*
X171458867Y-108178229D01*
X171458868Y-108178229D01*
X171468922Y-108127682D01*
X171470500Y-108119748D01*
X171470500Y-107250000D01*
X171904417Y-107250000D01*
X171924699Y-107455932D01*
X171946793Y-107528766D01*
X171984768Y-107653954D01*
X172082315Y-107836450D01*
X172082317Y-107836452D01*
X172213589Y-107996410D01*
X172305879Y-108072149D01*
X172373550Y-108127685D01*
X172556046Y-108225232D01*
X172754066Y-108285300D01*
X172754065Y-108285300D01*
X172772529Y-108287118D01*
X172960000Y-108305583D01*
X173165934Y-108285300D01*
X173363954Y-108225232D01*
X173546450Y-108127685D01*
X173706410Y-107996410D01*
X173837685Y-107836450D01*
X173935232Y-107653954D01*
X173955406Y-107587446D01*
X173993702Y-107529010D01*
X174057514Y-107500553D01*
X174126581Y-107511112D01*
X174178975Y-107557336D01*
X174193841Y-107591349D01*
X174226567Y-107713486D01*
X174226570Y-107713492D01*
X174326399Y-107927578D01*
X174461894Y-108121082D01*
X174628917Y-108288105D01*
X174822421Y-108423600D01*
X175036507Y-108523429D01*
X175036516Y-108523433D01*
X175250000Y-108580634D01*
X175250000Y-107683012D01*
X175307007Y-107715925D01*
X175434174Y-107750000D01*
X175565826Y-107750000D01*
X175692993Y-107715925D01*
X175750000Y-107683012D01*
X175750000Y-108580633D01*
X175963483Y-108523433D01*
X175963492Y-108523429D01*
X176177578Y-108423600D01*
X176371082Y-108288105D01*
X176538105Y-108121082D01*
X176673600Y-107927578D01*
X176773429Y-107713492D01*
X176773432Y-107713486D01*
X176830636Y-107500000D01*
X175933012Y-107500000D01*
X175965925Y-107442993D01*
X176000000Y-107315826D01*
X176000000Y-107184174D01*
X175965925Y-107057007D01*
X175933012Y-107000000D01*
X176830636Y-107000000D01*
X176830635Y-106999999D01*
X176773432Y-106786513D01*
X176773429Y-106786507D01*
X176673600Y-106572422D01*
X176673599Y-106572420D01*
X176538113Y-106378926D01*
X176538108Y-106378920D01*
X176371082Y-106211894D01*
X176177578Y-106076399D01*
X175963492Y-105976570D01*
X175963486Y-105976567D01*
X175750000Y-105919364D01*
X175750000Y-106816988D01*
X175692993Y-106784075D01*
X175565826Y-106750000D01*
X175434174Y-106750000D01*
X175307007Y-106784075D01*
X175250000Y-106816988D01*
X175250000Y-105919364D01*
X175249999Y-105919364D01*
X175036513Y-105976567D01*
X175036507Y-105976570D01*
X174822422Y-106076399D01*
X174822420Y-106076400D01*
X174628926Y-106211886D01*
X174628920Y-106211891D01*
X174461891Y-106378920D01*
X174461886Y-106378926D01*
X174326400Y-106572420D01*
X174326399Y-106572422D01*
X174226570Y-106786507D01*
X174226567Y-106786514D01*
X174193841Y-106908650D01*
X174157476Y-106968310D01*
X174094629Y-106998839D01*
X174025253Y-106990544D01*
X173971375Y-106946059D01*
X173955406Y-106912553D01*
X173935232Y-106846046D01*
X173837685Y-106663550D01*
X173762897Y-106572420D01*
X173706410Y-106503589D01*
X173556121Y-106380252D01*
X173546450Y-106372315D01*
X173363954Y-106274768D01*
X173165934Y-106214700D01*
X173165932Y-106214699D01*
X173165934Y-106214699D01*
X172960000Y-106194417D01*
X172754067Y-106214699D01*
X172619736Y-106255448D01*
X172564476Y-106272211D01*
X172556043Y-106274769D01*
X172486826Y-106311767D01*
X172373550Y-106372315D01*
X172373548Y-106372316D01*
X172373547Y-106372317D01*
X172213589Y-106503589D01*
X172082317Y-106663547D01*
X171984769Y-106846043D01*
X171924699Y-107044067D01*
X171904417Y-107250000D01*
X171470500Y-107250000D01*
X171470500Y-106380252D01*
X171470500Y-106380249D01*
X171470499Y-106380247D01*
X171458868Y-106321770D01*
X171458867Y-106321769D01*
X171414552Y-106255447D01*
X171348230Y-106211132D01*
X171348229Y-106211131D01*
X171289752Y-106199500D01*
X171289748Y-106199500D01*
X170022610Y-106199500D01*
X169955571Y-106179815D01*
X169934929Y-106163181D01*
X169521746Y-105749998D01*
X180294518Y-105749998D01*
X180294518Y-105750001D01*
X180314422Y-106028299D01*
X180373727Y-106300916D01*
X180373729Y-106300923D01*
X180403316Y-106380249D01*
X180471231Y-106562338D01*
X180471233Y-106562342D01*
X180604940Y-106807207D01*
X180604945Y-106807215D01*
X180772138Y-107030560D01*
X180772154Y-107030578D01*
X180969421Y-107227845D01*
X180969439Y-107227861D01*
X181192784Y-107395054D01*
X181192792Y-107395059D01*
X181437657Y-107528766D01*
X181437661Y-107528768D01*
X181437663Y-107528769D01*
X181699077Y-107626271D01*
X181835391Y-107655924D01*
X181971700Y-107685577D01*
X181971702Y-107685577D01*
X181971706Y-107685578D01*
X182219014Y-107703265D01*
X182249999Y-107705482D01*
X182250000Y-107705482D01*
X182250001Y-107705482D01*
X182277881Y-107703487D01*
X182528294Y-107685578D01*
X182800923Y-107626271D01*
X183062337Y-107528769D01*
X183307213Y-107395056D01*
X183530568Y-107227855D01*
X183727855Y-107030568D01*
X183895056Y-106807213D01*
X184028769Y-106562337D01*
X184126271Y-106300923D01*
X184183658Y-106037119D01*
X184185577Y-106028299D01*
X184185577Y-106028298D01*
X184185578Y-106028294D01*
X184205482Y-105750000D01*
X184185578Y-105471706D01*
X184126271Y-105199077D01*
X184028769Y-104937663D01*
X183982811Y-104853498D01*
X183895059Y-104692792D01*
X183895054Y-104692784D01*
X183727861Y-104469439D01*
X183727845Y-104469421D01*
X183530578Y-104272154D01*
X183530560Y-104272138D01*
X183307215Y-104104945D01*
X183307207Y-104104940D01*
X183062342Y-103971233D01*
X183062338Y-103971231D01*
X182963230Y-103934266D01*
X182800923Y-103873729D01*
X182800919Y-103873728D01*
X182800916Y-103873727D01*
X182528299Y-103814422D01*
X182250001Y-103794518D01*
X182249999Y-103794518D01*
X181971700Y-103814422D01*
X181699083Y-103873727D01*
X181699078Y-103873728D01*
X181699077Y-103873729D01*
X181635875Y-103897301D01*
X181437661Y-103971231D01*
X181437657Y-103971233D01*
X181192792Y-104104940D01*
X181192784Y-104104945D01*
X180969439Y-104272138D01*
X180969421Y-104272154D01*
X180772154Y-104469421D01*
X180772138Y-104469439D01*
X180604945Y-104692784D01*
X180604940Y-104692792D01*
X180471233Y-104937657D01*
X180471231Y-104937661D01*
X180373727Y-105199083D01*
X180314422Y-105471700D01*
X180294518Y-105749998D01*
X169521746Y-105749998D01*
X168681265Y-104909517D01*
X168681263Y-104909515D01*
X168584237Y-104853497D01*
X168476018Y-104824500D01*
X168476017Y-104824500D01*
X160990733Y-104824500D01*
X160923694Y-104804815D01*
X160903052Y-104788181D01*
X151864871Y-95750000D01*
X155654417Y-95750000D01*
X155674699Y-95955932D01*
X155695157Y-96023373D01*
X155734768Y-96153954D01*
X155832315Y-96336450D01*
X155832317Y-96336452D01*
X155963589Y-96496410D01*
X156060209Y-96575702D01*
X156123550Y-96627685D01*
X156306046Y-96725232D01*
X156504066Y-96785300D01*
X156504065Y-96785300D01*
X156522529Y-96787118D01*
X156710000Y-96805583D01*
X156915934Y-96785300D01*
X157113954Y-96725232D01*
X157296450Y-96627685D01*
X157456410Y-96496410D01*
X157587685Y-96336450D01*
X157685232Y-96153954D01*
X157745300Y-95955934D01*
X157765583Y-95750000D01*
X157745300Y-95544066D01*
X157685232Y-95346046D01*
X157587685Y-95163550D01*
X157535702Y-95100209D01*
X157456410Y-95003589D01*
X157306121Y-94880252D01*
X157306115Y-94880247D01*
X158199500Y-94880247D01*
X158199500Y-96619752D01*
X158211131Y-96678229D01*
X158211132Y-96678230D01*
X158255447Y-96744552D01*
X158321769Y-96788867D01*
X158321770Y-96788868D01*
X158380247Y-96800499D01*
X158380250Y-96800500D01*
X158380252Y-96800500D01*
X160119750Y-96800500D01*
X160119751Y-96800499D01*
X160134568Y-96797552D01*
X160178229Y-96788868D01*
X160178229Y-96788867D01*
X160178231Y-96788867D01*
X160244552Y-96744552D01*
X160288867Y-96678231D01*
X160288867Y-96678229D01*
X160288868Y-96678229D01*
X160300499Y-96619752D01*
X160300500Y-96619750D01*
X160300500Y-95750000D01*
X170994353Y-95750000D01*
X171014834Y-95892456D01*
X171020678Y-95905252D01*
X171074623Y-96023373D01*
X171168872Y-96132143D01*
X171289947Y-96209953D01*
X171289950Y-96209954D01*
X171289949Y-96209954D01*
X171428036Y-96250499D01*
X171428038Y-96250500D01*
X171428039Y-96250500D01*
X171571962Y-96250500D01*
X171571962Y-96250499D01*
X171710053Y-96209953D01*
X171831128Y-96132143D01*
X171925377Y-96023373D01*
X171985165Y-95892457D01*
X172005647Y-95750000D01*
X171985165Y-95607543D01*
X171925377Y-95476627D01*
X171925375Y-95476625D01*
X171925374Y-95476622D01*
X171855787Y-95396314D01*
X171826762Y-95332758D01*
X171825500Y-95315112D01*
X171825500Y-91092285D01*
X171845185Y-91025246D01*
X171897989Y-90979491D01*
X171914558Y-90973311D01*
X171960053Y-90959953D01*
X172081128Y-90882143D01*
X172175377Y-90773373D01*
X172235165Y-90642457D01*
X172255647Y-90500000D01*
X172235165Y-90357543D01*
X172175377Y-90226627D01*
X172081128Y-90117857D01*
X171960053Y-90040047D01*
X171960051Y-90040046D01*
X171960049Y-90040045D01*
X171960050Y-90040045D01*
X171821963Y-89999500D01*
X171821961Y-89999500D01*
X171678039Y-89999500D01*
X171678036Y-89999500D01*
X171539949Y-90040045D01*
X171418873Y-90117856D01*
X171324623Y-90226626D01*
X171324622Y-90226628D01*
X171264834Y-90357543D01*
X171244353Y-90500000D01*
X171244353Y-90508567D01*
X171227740Y-90570568D01*
X171196683Y-90624358D01*
X171196678Y-90624369D01*
X171196347Y-90625610D01*
X171196340Y-90625638D01*
X171174500Y-90707147D01*
X171174500Y-95315112D01*
X171154815Y-95382151D01*
X171144213Y-95396314D01*
X171074625Y-95476622D01*
X171074622Y-95476628D01*
X171014834Y-95607543D01*
X170994353Y-95750000D01*
X160300500Y-95750000D01*
X160300500Y-94880249D01*
X160300499Y-94880247D01*
X160288868Y-94821770D01*
X160288867Y-94821769D01*
X160244552Y-94755447D01*
X160178230Y-94711132D01*
X160178229Y-94711131D01*
X160119752Y-94699500D01*
X160119748Y-94699500D01*
X158380252Y-94699500D01*
X158380247Y-94699500D01*
X158321770Y-94711131D01*
X158321769Y-94711132D01*
X158255447Y-94755447D01*
X158211132Y-94821769D01*
X158211131Y-94821770D01*
X158199500Y-94880247D01*
X157306115Y-94880247D01*
X157296450Y-94872315D01*
X157113954Y-94774768D01*
X156915934Y-94714700D01*
X156915932Y-94714699D01*
X156915934Y-94714699D01*
X156710000Y-94694417D01*
X156504067Y-94714699D01*
X156306043Y-94774769D01*
X156218711Y-94821450D01*
X156123550Y-94872315D01*
X156123548Y-94872316D01*
X156123547Y-94872317D01*
X155963589Y-95003589D01*
X155832317Y-95163547D01*
X155734769Y-95346043D01*
X155674699Y-95544067D01*
X155654417Y-95750000D01*
X151864871Y-95750000D01*
X149211819Y-93096948D01*
X149178334Y-93035625D01*
X149175500Y-93009267D01*
X149175500Y-81558256D01*
X149195185Y-81491217D01*
X149241048Y-81448897D01*
X149287322Y-81424163D01*
X149287325Y-81424161D01*
X149433883Y-81303883D01*
X149554161Y-81157325D01*
X149554165Y-81157318D01*
X149643533Y-80990122D01*
X149643537Y-80990115D01*
X149698573Y-80808683D01*
X149717157Y-80620000D01*
X150322843Y-80620000D01*
X150341426Y-80808681D01*
X150359772Y-80869160D01*
X150396463Y-80990115D01*
X150396464Y-80990118D01*
X150396465Y-80990119D01*
X150396466Y-80990122D01*
X150485834Y-81157318D01*
X150485838Y-81157325D01*
X150606116Y-81303883D01*
X150752674Y-81424161D01*
X150752681Y-81424165D01*
X150919877Y-81513533D01*
X150919878Y-81513533D01*
X150919885Y-81513537D01*
X151101317Y-81568573D01*
X151101316Y-81568573D01*
X151118233Y-81570239D01*
X151290000Y-81587157D01*
X151478683Y-81568573D01*
X151660115Y-81513537D01*
X151827324Y-81424162D01*
X151973883Y-81303883D01*
X152094162Y-81157324D01*
X152183537Y-80990115D01*
X152238573Y-80808683D01*
X152257157Y-80620000D01*
X152862843Y-80620000D01*
X152881426Y-80808681D01*
X152899772Y-80869160D01*
X152936463Y-80990115D01*
X152936464Y-80990118D01*
X152936465Y-80990119D01*
X152936466Y-80990122D01*
X153025834Y-81157318D01*
X153025838Y-81157325D01*
X153146116Y-81303883D01*
X153292674Y-81424161D01*
X153292681Y-81424165D01*
X153459877Y-81513533D01*
X153459878Y-81513533D01*
X153459885Y-81513537D01*
X153641317Y-81568573D01*
X153641316Y-81568573D01*
X153658233Y-81570239D01*
X153830000Y-81587157D01*
X154018683Y-81568573D01*
X154200115Y-81513537D01*
X154367324Y-81424162D01*
X154513883Y-81303883D01*
X154634162Y-81157324D01*
X154723537Y-80990115D01*
X154778573Y-80808683D01*
X154797157Y-80620000D01*
X155402843Y-80620000D01*
X155421426Y-80808681D01*
X155439772Y-80869160D01*
X155476463Y-80990115D01*
X155476464Y-80990118D01*
X155476465Y-80990119D01*
X155476466Y-80990122D01*
X155565834Y-81157318D01*
X155565838Y-81157325D01*
X155686116Y-81303883D01*
X155832674Y-81424161D01*
X155832681Y-81424165D01*
X155999877Y-81513533D01*
X155999878Y-81513533D01*
X155999885Y-81513537D01*
X156181317Y-81568573D01*
X156181316Y-81568573D01*
X156198233Y-81570239D01*
X156370000Y-81587157D01*
X156558683Y-81568573D01*
X156740115Y-81513537D01*
X156907324Y-81424162D01*
X157053883Y-81303883D01*
X157174162Y-81157324D01*
X157263537Y-80990115D01*
X157318573Y-80808683D01*
X157337157Y-80620000D01*
X157942843Y-80620000D01*
X157961426Y-80808681D01*
X157979772Y-80869160D01*
X158016463Y-80990115D01*
X158016464Y-80990118D01*
X158016465Y-80990119D01*
X158016466Y-80990122D01*
X158105834Y-81157318D01*
X158105838Y-81157325D01*
X158226116Y-81303883D01*
X158372674Y-81424161D01*
X158372681Y-81424165D01*
X158539877Y-81513533D01*
X158539878Y-81513533D01*
X158539885Y-81513537D01*
X158721317Y-81568573D01*
X158721316Y-81568573D01*
X158738233Y-81570239D01*
X158910000Y-81587157D01*
X159098683Y-81568573D01*
X159280115Y-81513537D01*
X159447324Y-81424162D01*
X159593883Y-81303883D01*
X159714162Y-81157324D01*
X159803537Y-80990115D01*
X159858573Y-80808683D01*
X159877157Y-80620000D01*
X160482843Y-80620000D01*
X160501426Y-80808681D01*
X160519772Y-80869160D01*
X160556463Y-80990115D01*
X160556464Y-80990118D01*
X160556465Y-80990119D01*
X160556466Y-80990122D01*
X160645834Y-81157318D01*
X160645838Y-81157325D01*
X160766116Y-81303883D01*
X160912674Y-81424161D01*
X160912681Y-81424165D01*
X161079877Y-81513533D01*
X161079878Y-81513533D01*
X161079885Y-81513537D01*
X161261317Y-81568573D01*
X161261316Y-81568573D01*
X161278233Y-81570239D01*
X161450000Y-81587157D01*
X161638683Y-81568573D01*
X161820115Y-81513537D01*
X161987324Y-81424162D01*
X162133883Y-81303883D01*
X162254162Y-81157324D01*
X162343537Y-80990115D01*
X162398573Y-80808683D01*
X162417157Y-80620000D01*
X163022843Y-80620000D01*
X163041426Y-80808681D01*
X163059772Y-80869160D01*
X163096463Y-80990115D01*
X163096464Y-80990118D01*
X163096465Y-80990119D01*
X163096466Y-80990122D01*
X163185834Y-81157318D01*
X163185838Y-81157325D01*
X163306116Y-81303883D01*
X163452674Y-81424161D01*
X163452681Y-81424165D01*
X163619877Y-81513533D01*
X163619878Y-81513533D01*
X163619885Y-81513537D01*
X163801317Y-81568573D01*
X163801316Y-81568573D01*
X163818233Y-81570239D01*
X163990000Y-81587157D01*
X164178683Y-81568573D01*
X164360115Y-81513537D01*
X164527324Y-81424162D01*
X164673883Y-81303883D01*
X164794162Y-81157324D01*
X164883537Y-80990115D01*
X164938573Y-80808683D01*
X164957157Y-80620000D01*
X165562843Y-80620000D01*
X165581426Y-80808681D01*
X165599772Y-80869160D01*
X165636463Y-80990115D01*
X165636464Y-80990118D01*
X165636465Y-80990119D01*
X165636466Y-80990122D01*
X165725834Y-81157318D01*
X165725838Y-81157325D01*
X165846116Y-81303883D01*
X165992674Y-81424161D01*
X165992681Y-81424165D01*
X166159877Y-81513533D01*
X166159878Y-81513533D01*
X166159885Y-81513537D01*
X166341317Y-81568573D01*
X166341316Y-81568573D01*
X166358233Y-81570239D01*
X166530000Y-81587157D01*
X166718683Y-81568573D01*
X166900115Y-81513537D01*
X167067324Y-81424162D01*
X167213883Y-81303883D01*
X167334162Y-81157324D01*
X167423537Y-80990115D01*
X167478573Y-80808683D01*
X167497157Y-80620000D01*
X167478573Y-80431317D01*
X167423537Y-80249885D01*
X167404088Y-80213498D01*
X167334165Y-80082681D01*
X167334161Y-80082674D01*
X167213883Y-79936116D01*
X167067325Y-79815838D01*
X167067318Y-79815834D01*
X166900122Y-79726466D01*
X166900119Y-79726465D01*
X166900118Y-79726464D01*
X166900115Y-79726463D01*
X166718683Y-79671427D01*
X166718681Y-79671426D01*
X166718683Y-79671426D01*
X166530000Y-79652843D01*
X166341318Y-79671426D01*
X166234194Y-79703921D01*
X166159885Y-79726463D01*
X166159882Y-79726464D01*
X166159880Y-79726465D01*
X166159877Y-79726466D01*
X165992681Y-79815834D01*
X165992674Y-79815838D01*
X165846116Y-79936116D01*
X165725838Y-80082674D01*
X165725834Y-80082681D01*
X165636466Y-80249877D01*
X165636465Y-80249880D01*
X165636464Y-80249882D01*
X165636463Y-80249885D01*
X165618810Y-80308080D01*
X165581426Y-80431318D01*
X165562843Y-80620000D01*
X164957157Y-80620000D01*
X164938573Y-80431317D01*
X164883537Y-80249885D01*
X164864088Y-80213498D01*
X164794165Y-80082681D01*
X164794161Y-80082674D01*
X164673883Y-79936116D01*
X164527325Y-79815838D01*
X164527318Y-79815834D01*
X164360122Y-79726466D01*
X164360119Y-79726465D01*
X164360118Y-79726464D01*
X164360115Y-79726463D01*
X164178683Y-79671427D01*
X164178681Y-79671426D01*
X164178683Y-79671426D01*
X163990000Y-79652843D01*
X163801318Y-79671426D01*
X163694194Y-79703921D01*
X163619885Y-79726463D01*
X163619882Y-79726464D01*
X163619880Y-79726465D01*
X163619877Y-79726466D01*
X163452681Y-79815834D01*
X163452674Y-79815838D01*
X163306116Y-79936116D01*
X163185838Y-80082674D01*
X163185834Y-80082681D01*
X163096466Y-80249877D01*
X163096465Y-80249880D01*
X163096464Y-80249882D01*
X163096463Y-80249885D01*
X163078810Y-80308080D01*
X163041426Y-80431318D01*
X163022843Y-80620000D01*
X162417157Y-80620000D01*
X162398573Y-80431317D01*
X162343537Y-80249885D01*
X162324088Y-80213498D01*
X162254165Y-80082681D01*
X162254161Y-80082674D01*
X162133883Y-79936116D01*
X161987325Y-79815838D01*
X161987318Y-79815834D01*
X161820122Y-79726466D01*
X161820119Y-79726465D01*
X161820118Y-79726464D01*
X161820115Y-79726463D01*
X161638683Y-79671427D01*
X161638681Y-79671426D01*
X161638683Y-79671426D01*
X161450000Y-79652843D01*
X161261318Y-79671426D01*
X161154194Y-79703921D01*
X161079885Y-79726463D01*
X161079882Y-79726464D01*
X161079880Y-79726465D01*
X161079877Y-79726466D01*
X160912681Y-79815834D01*
X160912674Y-79815838D01*
X160766116Y-79936116D01*
X160645838Y-80082674D01*
X160645834Y-80082681D01*
X160556466Y-80249877D01*
X160556465Y-80249880D01*
X160556464Y-80249882D01*
X160556463Y-80249885D01*
X160538810Y-80308080D01*
X160501426Y-80431318D01*
X160482843Y-80620000D01*
X159877157Y-80620000D01*
X159858573Y-80431317D01*
X159803537Y-80249885D01*
X159784088Y-80213498D01*
X159714165Y-80082681D01*
X159714161Y-80082674D01*
X159593883Y-79936116D01*
X159447325Y-79815838D01*
X159447318Y-79815834D01*
X159280122Y-79726466D01*
X159280119Y-79726465D01*
X159280118Y-79726464D01*
X159280115Y-79726463D01*
X159098683Y-79671427D01*
X159098681Y-79671426D01*
X159098683Y-79671426D01*
X158910000Y-79652843D01*
X158721318Y-79671426D01*
X158614194Y-79703921D01*
X158539885Y-79726463D01*
X158539882Y-79726464D01*
X158539880Y-79726465D01*
X158539877Y-79726466D01*
X158372681Y-79815834D01*
X158372674Y-79815838D01*
X158226116Y-79936116D01*
X158105838Y-80082674D01*
X158105834Y-80082681D01*
X158016466Y-80249877D01*
X158016465Y-80249880D01*
X158016464Y-80249882D01*
X158016463Y-80249885D01*
X157998810Y-80308080D01*
X157961426Y-80431318D01*
X157942843Y-80620000D01*
X157337157Y-80620000D01*
X157318573Y-80431317D01*
X157263537Y-80249885D01*
X157244088Y-80213498D01*
X157174165Y-80082681D01*
X157174161Y-80082674D01*
X157053883Y-79936116D01*
X156907325Y-79815838D01*
X156907318Y-79815834D01*
X156740122Y-79726466D01*
X156740119Y-79726465D01*
X156740118Y-79726464D01*
X156740115Y-79726463D01*
X156558683Y-79671427D01*
X156558681Y-79671426D01*
X156558683Y-79671426D01*
X156370000Y-79652843D01*
X156181318Y-79671426D01*
X156074194Y-79703921D01*
X155999885Y-79726463D01*
X155999882Y-79726464D01*
X155999880Y-79726465D01*
X155999877Y-79726466D01*
X155832681Y-79815834D01*
X155832674Y-79815838D01*
X155686116Y-79936116D01*
X155565838Y-80082674D01*
X155565834Y-80082681D01*
X155476466Y-80249877D01*
X155476465Y-80249880D01*
X155476464Y-80249882D01*
X155476463Y-80249885D01*
X155458810Y-80308080D01*
X155421426Y-80431318D01*
X155402843Y-80620000D01*
X154797157Y-80620000D01*
X154778573Y-80431317D01*
X154723537Y-80249885D01*
X154704088Y-80213498D01*
X154634165Y-80082681D01*
X154634161Y-80082674D01*
X154513883Y-79936116D01*
X154367325Y-79815838D01*
X154367318Y-79815834D01*
X154200122Y-79726466D01*
X154200119Y-79726465D01*
X154200118Y-79726464D01*
X154200115Y-79726463D01*
X154018683Y-79671427D01*
X154018681Y-79671426D01*
X154018683Y-79671426D01*
X153830000Y-79652843D01*
X153641318Y-79671426D01*
X153534194Y-79703921D01*
X153459885Y-79726463D01*
X153459882Y-79726464D01*
X153459880Y-79726465D01*
X153459877Y-79726466D01*
X153292681Y-79815834D01*
X153292674Y-79815838D01*
X153146116Y-79936116D01*
X153025838Y-80082674D01*
X153025834Y-80082681D01*
X152936466Y-80249877D01*
X152936465Y-80249880D01*
X152936464Y-80249882D01*
X152936463Y-80249885D01*
X152918810Y-80308080D01*
X152881426Y-80431318D01*
X152862843Y-80620000D01*
X152257157Y-80620000D01*
X152238573Y-80431317D01*
X152183537Y-80249885D01*
X152164088Y-80213498D01*
X152094165Y-80082681D01*
X152094161Y-80082674D01*
X151973883Y-79936116D01*
X151827325Y-79815838D01*
X151827318Y-79815834D01*
X151660122Y-79726466D01*
X151660119Y-79726465D01*
X151660118Y-79726464D01*
X151660115Y-79726463D01*
X151478683Y-79671427D01*
X151478681Y-79671426D01*
X151478683Y-79671426D01*
X151290000Y-79652843D01*
X151101318Y-79671426D01*
X150994194Y-79703921D01*
X150919885Y-79726463D01*
X150919882Y-79726464D01*
X150919880Y-79726465D01*
X150919877Y-79726466D01*
X150752681Y-79815834D01*
X150752674Y-79815838D01*
X150606116Y-79936116D01*
X150485838Y-80082674D01*
X150485834Y-80082681D01*
X150396466Y-80249877D01*
X150396465Y-80249880D01*
X150396464Y-80249882D01*
X150396463Y-80249885D01*
X150378810Y-80308080D01*
X150341426Y-80431318D01*
X150322843Y-80620000D01*
X149717157Y-80620000D01*
X149698573Y-80431317D01*
X149643537Y-80249885D01*
X149624088Y-80213498D01*
X149554165Y-80082681D01*
X149554161Y-80082674D01*
X149433883Y-79936116D01*
X149287325Y-79815838D01*
X149287318Y-79815834D01*
X149120122Y-79726466D01*
X149120119Y-79726465D01*
X149120118Y-79726464D01*
X149120115Y-79726463D01*
X148938683Y-79671427D01*
X148938681Y-79671426D01*
X148938683Y-79671426D01*
X148750000Y-79652843D01*
X148561318Y-79671426D01*
X148454194Y-79703921D01*
X148379885Y-79726463D01*
X148379882Y-79726464D01*
X148379880Y-79726465D01*
X148379877Y-79726466D01*
X148212681Y-79815834D01*
X148212674Y-79815838D01*
X148066116Y-79936116D01*
X147945838Y-80082674D01*
X147945834Y-80082681D01*
X147856466Y-80249877D01*
X147856465Y-80249880D01*
X147856464Y-80249882D01*
X147856463Y-80249885D01*
X147838810Y-80308080D01*
X147801426Y-80431318D01*
X147782843Y-80620000D01*
X147177157Y-80620000D01*
X147158573Y-80431317D01*
X147103537Y-80249885D01*
X147084088Y-80213498D01*
X147014165Y-80082681D01*
X147014161Y-80082674D01*
X146893883Y-79936116D01*
X146747325Y-79815838D01*
X146747318Y-79815834D01*
X146580122Y-79726466D01*
X146580119Y-79726465D01*
X146580118Y-79726464D01*
X146580115Y-79726463D01*
X146398683Y-79671427D01*
X146398681Y-79671426D01*
X146398683Y-79671426D01*
X146210000Y-79652843D01*
X146021318Y-79671426D01*
X145914194Y-79703921D01*
X145839885Y-79726463D01*
X145839882Y-79726464D01*
X145839880Y-79726465D01*
X145839877Y-79726466D01*
X145672681Y-79815834D01*
X145672674Y-79815838D01*
X145526116Y-79936116D01*
X145405838Y-80082674D01*
X145405834Y-80082681D01*
X145316466Y-80249877D01*
X145316465Y-80249880D01*
X145316464Y-80249882D01*
X145316463Y-80249885D01*
X145298810Y-80308080D01*
X145261426Y-80431318D01*
X145242843Y-80620000D01*
X145261426Y-80808681D01*
X145279772Y-80869160D01*
X145316463Y-80990115D01*
X145316464Y-80990118D01*
X145316465Y-80990119D01*
X145316466Y-80990122D01*
X145405834Y-81157318D01*
X145405838Y-81157325D01*
X145526116Y-81303883D01*
X145672674Y-81424161D01*
X145672677Y-81424163D01*
X145716521Y-81447598D01*
X145818954Y-81502349D01*
X145868797Y-81551309D01*
X145884500Y-81611706D01*
X145884500Y-83603811D01*
X145864815Y-83670850D01*
X145848181Y-83691492D01*
X145326492Y-84213181D01*
X145265169Y-84246666D01*
X145238811Y-84249500D01*
X145178036Y-84249500D01*
X145039949Y-84290045D01*
X144918873Y-84367856D01*
X144824623Y-84476626D01*
X144824622Y-84476628D01*
X144764834Y-84607543D01*
X144744353Y-84750000D01*
X144095500Y-84750000D01*
X144095500Y-81558256D01*
X144115185Y-81491217D01*
X144161048Y-81448897D01*
X144207322Y-81424163D01*
X144207325Y-81424161D01*
X144353883Y-81303883D01*
X144474161Y-81157325D01*
X144474165Y-81157318D01*
X144563533Y-80990122D01*
X144563537Y-80990115D01*
X144618573Y-80808683D01*
X144637157Y-80620000D01*
X144618573Y-80431317D01*
X144563537Y-80249885D01*
X144544088Y-80213498D01*
X144474165Y-80082681D01*
X144474161Y-80082674D01*
X144353883Y-79936116D01*
X144207325Y-79815838D01*
X144207318Y-79815834D01*
X144040122Y-79726466D01*
X144040119Y-79726465D01*
X144040118Y-79726464D01*
X144040115Y-79726463D01*
X143858683Y-79671427D01*
X143858681Y-79671426D01*
X143858683Y-79671426D01*
X143670000Y-79652843D01*
X143481318Y-79671426D01*
X143374194Y-79703921D01*
X143299885Y-79726463D01*
X143299882Y-79726464D01*
X143299880Y-79726465D01*
X143299877Y-79726466D01*
X143132681Y-79815834D01*
X143132674Y-79815838D01*
X142986116Y-79936116D01*
X142865838Y-80082674D01*
X142865834Y-80082681D01*
X142776466Y-80249877D01*
X142776465Y-80249880D01*
X142776464Y-80249882D01*
X142776463Y-80249885D01*
X142758810Y-80308080D01*
X142721426Y-80431318D01*
X142702843Y-80620000D01*
X142097157Y-80620000D01*
X142078573Y-80431317D01*
X142023537Y-80249885D01*
X142004088Y-80213498D01*
X141934165Y-80082681D01*
X141934161Y-80082674D01*
X141813883Y-79936116D01*
X141667325Y-79815838D01*
X141667318Y-79815834D01*
X141500122Y-79726466D01*
X141500119Y-79726465D01*
X141500118Y-79726464D01*
X141500115Y-79726463D01*
X141318683Y-79671427D01*
X141318681Y-79671426D01*
X141318683Y-79671426D01*
X141130000Y-79652843D01*
X140941318Y-79671426D01*
X140834194Y-79703921D01*
X140759885Y-79726463D01*
X140759882Y-79726464D01*
X140759880Y-79726465D01*
X140759877Y-79726466D01*
X140592681Y-79815834D01*
X140592674Y-79815838D01*
X140446116Y-79936116D01*
X140325838Y-80082674D01*
X140325834Y-80082681D01*
X140236466Y-80249877D01*
X140236465Y-80249880D01*
X140236464Y-80249882D01*
X140236463Y-80249885D01*
X140218810Y-80308080D01*
X140181426Y-80431318D01*
X140162843Y-80620000D01*
X139856821Y-80620000D01*
X139856821Y-80619999D01*
X139837575Y-80400023D01*
X139837573Y-80400013D01*
X139780424Y-80186729D01*
X139780420Y-80186720D01*
X139687096Y-79986586D01*
X139641741Y-79921811D01*
X139641740Y-79921810D01*
X139079494Y-80484056D01*
X139063381Y-80423919D01*
X138996502Y-80308080D01*
X138901920Y-80213498D01*
X138786081Y-80146619D01*
X138725941Y-80130504D01*
X139288188Y-79568258D01*
X139223411Y-79522901D01*
X139223405Y-79522898D01*
X139023284Y-79429580D01*
X139023270Y-79429575D01*
X138809986Y-79372426D01*
X138809976Y-79372424D01*
X138590001Y-79353179D01*
X138589999Y-79353179D01*
X138370023Y-79372424D01*
X138370013Y-79372426D01*
X138156729Y-79429575D01*
X138156720Y-79429579D01*
X137956590Y-79522901D01*
X137891811Y-79568258D01*
X138454058Y-80130504D01*
X138393919Y-80146619D01*
X138278080Y-80213498D01*
X138183498Y-80308080D01*
X138116619Y-80423919D01*
X138100504Y-80484057D01*
X137538258Y-79921811D01*
X137492901Y-79986590D01*
X137399579Y-80186720D01*
X137399575Y-80186729D01*
X137342426Y-80400013D01*
X137342424Y-80400023D01*
X137323179Y-80619999D01*
X137017157Y-80619999D01*
X136998573Y-80431317D01*
X136943537Y-80249885D01*
X136924088Y-80213498D01*
X136854165Y-80082681D01*
X136854161Y-80082674D01*
X136733883Y-79936116D01*
X136587325Y-79815838D01*
X136587318Y-79815834D01*
X136420122Y-79726466D01*
X136420119Y-79726465D01*
X136420118Y-79726464D01*
X136420115Y-79726463D01*
X136238683Y-79671427D01*
X136238681Y-79671426D01*
X136238683Y-79671426D01*
X136050000Y-79652843D01*
X135861318Y-79671426D01*
X135754194Y-79703921D01*
X135679885Y-79726463D01*
X135679882Y-79726464D01*
X135679880Y-79726465D01*
X135679877Y-79726466D01*
X135512681Y-79815834D01*
X135512674Y-79815838D01*
X135366116Y-79936116D01*
X135245838Y-80082674D01*
X135245834Y-80082681D01*
X135156466Y-80249877D01*
X135156465Y-80249880D01*
X135156464Y-80249882D01*
X135156463Y-80249885D01*
X135138810Y-80308080D01*
X135101426Y-80431318D01*
X135082843Y-80620000D01*
X134477157Y-80620000D01*
X134458573Y-80431317D01*
X134403537Y-80249885D01*
X134384088Y-80213498D01*
X134314165Y-80082681D01*
X134314161Y-80082674D01*
X134193883Y-79936116D01*
X134047325Y-79815838D01*
X134047318Y-79815834D01*
X133880122Y-79726466D01*
X133880119Y-79726465D01*
X133880118Y-79726464D01*
X133880115Y-79726463D01*
X133698683Y-79671427D01*
X133698681Y-79671426D01*
X133698683Y-79671426D01*
X133510000Y-79652843D01*
X133321318Y-79671426D01*
X133214194Y-79703921D01*
X133139885Y-79726463D01*
X133139882Y-79726464D01*
X133139880Y-79726465D01*
X133139877Y-79726466D01*
X132972681Y-79815834D01*
X132972674Y-79815838D01*
X132826116Y-79936116D01*
X132705838Y-80082674D01*
X132705834Y-80082681D01*
X132616466Y-80249877D01*
X132616465Y-80249880D01*
X132616464Y-80249882D01*
X132616463Y-80249885D01*
X132598810Y-80308080D01*
X132561426Y-80431318D01*
X132542843Y-80620000D01*
X131932500Y-80620000D01*
X131932500Y-79838249D01*
X131932499Y-79838247D01*
X131920868Y-79779770D01*
X131920867Y-79779769D01*
X131876552Y-79713447D01*
X131810230Y-79669132D01*
X131810229Y-79669131D01*
X131751752Y-79657500D01*
X131751748Y-79657500D01*
X130188252Y-79657500D01*
X130188247Y-79657500D01*
X130129770Y-79669131D01*
X130129769Y-79669132D01*
X130063447Y-79713447D01*
X130019132Y-79779769D01*
X130019131Y-79779770D01*
X130007500Y-79838247D01*
X126250500Y-79838247D01*
X126250500Y-65380000D01*
X130002843Y-65380000D01*
X130021426Y-65568681D01*
X130036658Y-65618894D01*
X130076463Y-65750115D01*
X130076464Y-65750118D01*
X130076465Y-65750119D01*
X130076466Y-65750122D01*
X130165834Y-65917318D01*
X130165838Y-65917325D01*
X130286116Y-66063883D01*
X130432674Y-66184161D01*
X130432681Y-66184165D01*
X130599877Y-66273533D01*
X130599878Y-66273533D01*
X130599885Y-66273537D01*
X130781317Y-66328573D01*
X130781316Y-66328573D01*
X130798233Y-66330239D01*
X130970000Y-66347157D01*
X131158683Y-66328573D01*
X131340115Y-66273537D01*
X131507324Y-66184162D01*
X131653883Y-66063883D01*
X131774162Y-65917324D01*
X131863537Y-65750115D01*
X131918573Y-65568683D01*
X131937157Y-65380000D01*
X131937157Y-65379999D01*
X132243179Y-65379999D01*
X132243179Y-65380000D01*
X132262424Y-65599976D01*
X132262426Y-65599986D01*
X132319575Y-65813270D01*
X132319580Y-65813284D01*
X132412898Y-66013405D01*
X132412901Y-66013411D01*
X132458258Y-66078187D01*
X132458258Y-66078188D01*
X133020504Y-65515941D01*
X133036619Y-65576081D01*
X133103498Y-65691920D01*
X133198080Y-65786502D01*
X133313919Y-65853381D01*
X133374057Y-65869494D01*
X132811810Y-66431740D01*
X132876590Y-66477099D01*
X132876592Y-66477100D01*
X133076715Y-66570419D01*
X133076729Y-66570424D01*
X133290013Y-66627573D01*
X133290023Y-66627575D01*
X133509999Y-66646821D01*
X133510001Y-66646821D01*
X133729976Y-66627575D01*
X133729986Y-66627573D01*
X133943270Y-66570424D01*
X133943284Y-66570419D01*
X134143407Y-66477100D01*
X134143417Y-66477094D01*
X134208188Y-66431741D01*
X133645942Y-65869494D01*
X133706081Y-65853381D01*
X133821920Y-65786502D01*
X133916502Y-65691920D01*
X133983381Y-65576081D01*
X133999495Y-65515942D01*
X134561741Y-66078188D01*
X134607094Y-66013417D01*
X134607100Y-66013407D01*
X134700419Y-65813284D01*
X134700424Y-65813270D01*
X134757573Y-65599986D01*
X134757575Y-65599976D01*
X134776821Y-65380000D01*
X135082843Y-65380000D01*
X135101426Y-65568681D01*
X135116658Y-65618894D01*
X135156463Y-65750115D01*
X135156464Y-65750118D01*
X135156465Y-65750119D01*
X135156466Y-65750122D01*
X135245834Y-65917318D01*
X135245838Y-65917325D01*
X135366116Y-66063883D01*
X135512674Y-66184161D01*
X135512681Y-66184165D01*
X135679877Y-66273533D01*
X135679878Y-66273533D01*
X135679885Y-66273537D01*
X135861317Y-66328573D01*
X135861316Y-66328573D01*
X135878233Y-66330239D01*
X136050000Y-66347157D01*
X136238683Y-66328573D01*
X136420115Y-66273537D01*
X136587324Y-66184162D01*
X136733883Y-66063883D01*
X136854162Y-65917324D01*
X136943537Y-65750115D01*
X136998573Y-65568683D01*
X137017157Y-65380000D01*
X137622843Y-65380000D01*
X137641426Y-65568681D01*
X137656658Y-65618894D01*
X137696463Y-65750115D01*
X137696464Y-65750118D01*
X137696465Y-65750119D01*
X137696466Y-65750122D01*
X137785834Y-65917318D01*
X137785838Y-65917325D01*
X137906116Y-66063883D01*
X138052674Y-66184161D01*
X138052681Y-66184165D01*
X138219877Y-66273533D01*
X138219878Y-66273533D01*
X138219885Y-66273537D01*
X138401317Y-66328573D01*
X138401316Y-66328573D01*
X138418233Y-66330239D01*
X138590000Y-66347157D01*
X138778683Y-66328573D01*
X138828895Y-66313340D01*
X138898761Y-66312716D01*
X138952572Y-66344320D01*
X147869515Y-75261263D01*
X147948737Y-75340485D01*
X148045763Y-75396503D01*
X148153981Y-75425500D01*
X148153982Y-75425500D01*
X171522390Y-75425500D01*
X171589429Y-75445185D01*
X171610071Y-75461819D01*
X173288181Y-77139929D01*
X173321666Y-77201252D01*
X173324500Y-77227610D01*
X173324500Y-79022390D01*
X173304815Y-79089429D01*
X173288181Y-79110071D01*
X160620901Y-91777350D01*
X160559578Y-91810835D01*
X160489886Y-91805851D01*
X160466183Y-91793986D01*
X160460052Y-91790046D01*
X160460050Y-91790045D01*
X160321963Y-91749500D01*
X160321961Y-91749500D01*
X160178039Y-91749500D01*
X160178036Y-91749500D01*
X160039949Y-91790045D01*
X160039948Y-91790045D01*
X160016968Y-91804815D01*
X159949929Y-91824500D01*
X156306018Y-91824500D01*
X156193981Y-91824500D01*
X156085763Y-91853497D01*
X156085761Y-91853498D01*
X156085760Y-91853498D01*
X155988740Y-91909513D01*
X155988734Y-91909517D01*
X154158957Y-93739293D01*
X154106213Y-93770589D01*
X154039946Y-93790047D01*
X154039945Y-93790048D01*
X153918873Y-93867856D01*
X153824623Y-93976626D01*
X153824622Y-93976628D01*
X153764834Y-94107543D01*
X153744353Y-94250000D01*
X153764834Y-94392456D01*
X153764835Y-94392458D01*
X153824623Y-94523373D01*
X153918872Y-94632143D01*
X154039947Y-94709953D01*
X154039950Y-94709954D01*
X154039949Y-94709954D01*
X154178036Y-94750499D01*
X154178038Y-94750500D01*
X154178039Y-94750500D01*
X154321962Y-94750500D01*
X154321962Y-94750499D01*
X154443886Y-94714700D01*
X154460050Y-94709954D01*
X154460050Y-94709953D01*
X154460053Y-94709953D01*
X154581128Y-94632143D01*
X154675377Y-94523373D01*
X154735165Y-94392457D01*
X154735165Y-94392452D01*
X154737002Y-94386200D01*
X154768298Y-94333448D01*
X156389929Y-92711819D01*
X156451252Y-92678334D01*
X156477610Y-92675500D01*
X159949928Y-92675500D01*
X160016967Y-92695185D01*
X160016968Y-92695185D01*
X160039949Y-92709954D01*
X160178036Y-92750499D01*
X160178038Y-92750500D01*
X160178039Y-92750500D01*
X160321962Y-92750500D01*
X160321962Y-92750499D01*
X160460050Y-92709954D01*
X160460051Y-92709954D01*
X160483032Y-92695185D01*
X160550071Y-92675500D01*
X160806016Y-92675500D01*
X160806018Y-92675500D01*
X160914237Y-92646503D01*
X161011263Y-92590485D01*
X174001053Y-79600692D01*
X174001058Y-79600689D01*
X174011261Y-79590485D01*
X174011263Y-79590485D01*
X174090485Y-79511263D01*
X174146503Y-79414237D01*
X174175500Y-79306018D01*
X174175500Y-76943982D01*
X174146503Y-76835763D01*
X174090485Y-76738737D01*
X174011263Y-76659515D01*
X172011263Y-74659515D01*
X171914237Y-74603497D01*
X171806018Y-74574500D01*
X171806017Y-74574500D01*
X148437610Y-74574500D01*
X148370571Y-74554815D01*
X148349929Y-74538181D01*
X139554320Y-65742572D01*
X139520835Y-65681249D01*
X139523341Y-65618894D01*
X139536329Y-65576081D01*
X139538573Y-65568683D01*
X139557157Y-65380000D01*
X140162843Y-65380000D01*
X140181426Y-65568681D01*
X140196658Y-65618894D01*
X140236463Y-65750115D01*
X140236464Y-65750118D01*
X140236465Y-65750119D01*
X140236466Y-65750122D01*
X140325834Y-65917318D01*
X140325838Y-65917325D01*
X140446116Y-66063883D01*
X140592674Y-66184161D01*
X140592681Y-66184165D01*
X140759877Y-66273533D01*
X140759878Y-66273533D01*
X140759885Y-66273537D01*
X140941317Y-66328573D01*
X140941316Y-66328573D01*
X140958233Y-66330239D01*
X141130000Y-66347157D01*
X141318683Y-66328573D01*
X141500115Y-66273537D01*
X141667324Y-66184162D01*
X141813883Y-66063883D01*
X141934162Y-65917324D01*
X142023537Y-65750115D01*
X142078573Y-65568683D01*
X142097157Y-65380000D01*
X142702843Y-65380000D01*
X142721426Y-65568681D01*
X142736658Y-65618894D01*
X142776463Y-65750115D01*
X142776464Y-65750118D01*
X142776465Y-65750119D01*
X142776466Y-65750122D01*
X142865834Y-65917318D01*
X142865838Y-65917325D01*
X142986116Y-66063883D01*
X143132674Y-66184161D01*
X143132681Y-66184165D01*
X143299877Y-66273533D01*
X143299878Y-66273533D01*
X143299885Y-66273537D01*
X143481317Y-66328573D01*
X143481316Y-66328573D01*
X143498233Y-66330239D01*
X143670000Y-66347157D01*
X143858683Y-66328573D01*
X144040115Y-66273537D01*
X144207324Y-66184162D01*
X144353883Y-66063883D01*
X144474162Y-65917324D01*
X144563537Y-65750115D01*
X144618573Y-65568683D01*
X144637157Y-65380000D01*
X145242843Y-65380000D01*
X145261426Y-65568681D01*
X145276658Y-65618894D01*
X145316463Y-65750115D01*
X145316464Y-65750118D01*
X145316465Y-65750119D01*
X145316466Y-65750122D01*
X145405834Y-65917318D01*
X145405838Y-65917325D01*
X145526116Y-66063883D01*
X145672674Y-66184161D01*
X145672681Y-66184165D01*
X145839877Y-66273533D01*
X145839878Y-66273533D01*
X145839885Y-66273537D01*
X146021317Y-66328573D01*
X146021316Y-66328573D01*
X146038233Y-66330239D01*
X146210000Y-66347157D01*
X146398683Y-66328573D01*
X146580115Y-66273537D01*
X146747324Y-66184162D01*
X146893883Y-66063883D01*
X147014162Y-65917324D01*
X147103537Y-65750115D01*
X147158573Y-65568683D01*
X147177157Y-65380000D01*
X147782843Y-65380000D01*
X147801426Y-65568681D01*
X147816658Y-65618894D01*
X147856463Y-65750115D01*
X147856464Y-65750118D01*
X147856465Y-65750119D01*
X147856466Y-65750122D01*
X147945834Y-65917318D01*
X147945838Y-65917325D01*
X148066116Y-66063883D01*
X148212674Y-66184161D01*
X148212681Y-66184165D01*
X148379877Y-66273533D01*
X148379878Y-66273533D01*
X148379885Y-66273537D01*
X148561317Y-66328573D01*
X148561316Y-66328573D01*
X148578233Y-66330239D01*
X148750000Y-66347157D01*
X148938683Y-66328573D01*
X149120115Y-66273537D01*
X149287324Y-66184162D01*
X149433883Y-66063883D01*
X149554162Y-65917324D01*
X149643537Y-65750115D01*
X149698573Y-65568683D01*
X149717157Y-65380000D01*
X150322843Y-65380000D01*
X150341426Y-65568681D01*
X150356658Y-65618894D01*
X150396463Y-65750115D01*
X150396464Y-65750118D01*
X150396465Y-65750119D01*
X150396466Y-65750122D01*
X150485834Y-65917318D01*
X150485838Y-65917325D01*
X150606116Y-66063883D01*
X150752674Y-66184161D01*
X150752681Y-66184165D01*
X150919877Y-66273533D01*
X150919878Y-66273533D01*
X150919885Y-66273537D01*
X151101317Y-66328573D01*
X151101316Y-66328573D01*
X151118233Y-66330239D01*
X151290000Y-66347157D01*
X151478683Y-66328573D01*
X151660115Y-66273537D01*
X151827324Y-66184162D01*
X151973883Y-66063883D01*
X152094162Y-65917324D01*
X152183537Y-65750115D01*
X152238573Y-65568683D01*
X152257157Y-65380000D01*
X152862843Y-65380000D01*
X152881426Y-65568681D01*
X152896658Y-65618894D01*
X152936463Y-65750115D01*
X152936464Y-65750118D01*
X152936465Y-65750119D01*
X152936466Y-65750122D01*
X153025834Y-65917318D01*
X153025838Y-65917325D01*
X153146116Y-66063883D01*
X153292674Y-66184161D01*
X153292681Y-66184165D01*
X153459877Y-66273533D01*
X153459878Y-66273533D01*
X153459885Y-66273537D01*
X153641317Y-66328573D01*
X153641316Y-66328573D01*
X153658233Y-66330239D01*
X153830000Y-66347157D01*
X154018683Y-66328573D01*
X154200115Y-66273537D01*
X154367324Y-66184162D01*
X154513883Y-66063883D01*
X154634162Y-65917324D01*
X154723537Y-65750115D01*
X154778573Y-65568683D01*
X154797157Y-65380000D01*
X155402843Y-65380000D01*
X155421426Y-65568681D01*
X155436658Y-65618894D01*
X155476463Y-65750115D01*
X155476464Y-65750118D01*
X155476465Y-65750119D01*
X155476466Y-65750122D01*
X155565834Y-65917318D01*
X155565838Y-65917325D01*
X155686116Y-66063883D01*
X155832674Y-66184161D01*
X155832681Y-66184165D01*
X155999877Y-66273533D01*
X155999878Y-66273533D01*
X155999885Y-66273537D01*
X156181317Y-66328573D01*
X156181316Y-66328573D01*
X156198233Y-66330239D01*
X156370000Y-66347157D01*
X156558683Y-66328573D01*
X156740115Y-66273537D01*
X156907324Y-66184162D01*
X157053883Y-66063883D01*
X157174162Y-65917324D01*
X157263537Y-65750115D01*
X157318573Y-65568683D01*
X157337157Y-65380000D01*
X157942843Y-65380000D01*
X157961426Y-65568681D01*
X157976658Y-65618894D01*
X158016463Y-65750115D01*
X158016464Y-65750118D01*
X158016465Y-65750119D01*
X158016466Y-65750122D01*
X158105834Y-65917318D01*
X158105838Y-65917325D01*
X158226116Y-66063883D01*
X158372674Y-66184161D01*
X158372681Y-66184165D01*
X158539877Y-66273533D01*
X158539878Y-66273533D01*
X158539885Y-66273537D01*
X158721317Y-66328573D01*
X158721316Y-66328573D01*
X158738233Y-66330239D01*
X158910000Y-66347157D01*
X159098683Y-66328573D01*
X159280115Y-66273537D01*
X159447324Y-66184162D01*
X159593883Y-66063883D01*
X159714162Y-65917324D01*
X159803537Y-65750115D01*
X159858573Y-65568683D01*
X159877157Y-65380000D01*
X160482843Y-65380000D01*
X160501426Y-65568681D01*
X160516658Y-65618894D01*
X160556463Y-65750115D01*
X160556464Y-65750118D01*
X160556465Y-65750119D01*
X160556466Y-65750122D01*
X160645834Y-65917318D01*
X160645838Y-65917325D01*
X160766116Y-66063883D01*
X160912674Y-66184161D01*
X160912681Y-66184165D01*
X161079877Y-66273533D01*
X161079878Y-66273533D01*
X161079885Y-66273537D01*
X161261317Y-66328573D01*
X161261316Y-66328573D01*
X161278233Y-66330239D01*
X161450000Y-66347157D01*
X161638683Y-66328573D01*
X161820115Y-66273537D01*
X161987324Y-66184162D01*
X162133883Y-66063883D01*
X162254162Y-65917324D01*
X162343537Y-65750115D01*
X162398573Y-65568683D01*
X162417157Y-65380000D01*
X163022843Y-65380000D01*
X163041426Y-65568681D01*
X163056658Y-65618894D01*
X163096463Y-65750115D01*
X163096464Y-65750118D01*
X163096465Y-65750119D01*
X163096466Y-65750122D01*
X163185834Y-65917318D01*
X163185838Y-65917325D01*
X163306116Y-66063883D01*
X163452674Y-66184161D01*
X163452681Y-66184165D01*
X163619877Y-66273533D01*
X163619878Y-66273533D01*
X163619885Y-66273537D01*
X163801317Y-66328573D01*
X163801316Y-66328573D01*
X163818233Y-66330239D01*
X163990000Y-66347157D01*
X164178683Y-66328573D01*
X164360115Y-66273537D01*
X164527324Y-66184162D01*
X164673883Y-66063883D01*
X164794162Y-65917324D01*
X164883537Y-65750115D01*
X164938573Y-65568683D01*
X164957157Y-65380000D01*
X165562843Y-65380000D01*
X165581426Y-65568681D01*
X165596658Y-65618894D01*
X165636463Y-65750115D01*
X165636464Y-65750118D01*
X165636465Y-65750119D01*
X165636466Y-65750122D01*
X165725834Y-65917318D01*
X165725838Y-65917325D01*
X165846116Y-66063883D01*
X165992674Y-66184161D01*
X165992681Y-66184165D01*
X166159877Y-66273533D01*
X166159878Y-66273533D01*
X166159885Y-66273537D01*
X166341317Y-66328573D01*
X166341316Y-66328573D01*
X166358233Y-66330239D01*
X166530000Y-66347157D01*
X166718683Y-66328573D01*
X166900115Y-66273537D01*
X167067324Y-66184162D01*
X167213883Y-66063883D01*
X167334162Y-65917324D01*
X167423537Y-65750115D01*
X167478573Y-65568683D01*
X167485338Y-65499998D01*
X179544518Y-65499998D01*
X179544518Y-65500001D01*
X179564422Y-65778299D01*
X179623727Y-66050916D01*
X179623729Y-66050923D01*
X179673424Y-66184161D01*
X179721231Y-66312338D01*
X179721233Y-66312342D01*
X179854940Y-66557207D01*
X179854945Y-66557215D01*
X180022138Y-66780560D01*
X180022154Y-66780578D01*
X180219421Y-66977845D01*
X180219439Y-66977861D01*
X180442784Y-67145054D01*
X180442792Y-67145059D01*
X180687657Y-67278766D01*
X180687661Y-67278768D01*
X180687663Y-67278769D01*
X180949077Y-67376271D01*
X181085391Y-67405924D01*
X181221700Y-67435577D01*
X181221702Y-67435577D01*
X181221706Y-67435578D01*
X181469014Y-67453265D01*
X181499999Y-67455482D01*
X181500000Y-67455482D01*
X181500001Y-67455482D01*
X181527881Y-67453487D01*
X181778294Y-67435578D01*
X182050923Y-67376271D01*
X182312337Y-67278769D01*
X182557213Y-67145056D01*
X182780568Y-66977855D01*
X182977855Y-66780568D01*
X183145056Y-66557213D01*
X183278769Y-66312337D01*
X183376271Y-66050923D01*
X183427969Y-65813270D01*
X183435577Y-65778299D01*
X183435577Y-65778298D01*
X183435578Y-65778294D01*
X183455482Y-65500000D01*
X183435578Y-65221706D01*
X183428967Y-65191318D01*
X183379690Y-64964795D01*
X183376271Y-64949077D01*
X183278769Y-64687663D01*
X183217705Y-64575834D01*
X183145059Y-64442792D01*
X183145054Y-64442784D01*
X182977861Y-64219439D01*
X182977845Y-64219421D01*
X182780578Y-64022154D01*
X182780560Y-64022138D01*
X182557215Y-63854945D01*
X182557207Y-63854940D01*
X182312342Y-63721233D01*
X182312338Y-63721231D01*
X182213230Y-63684266D01*
X182050923Y-63623729D01*
X182050919Y-63623728D01*
X182050916Y-63623727D01*
X181778299Y-63564422D01*
X181500001Y-63544518D01*
X181499999Y-63544518D01*
X181221700Y-63564422D01*
X180949083Y-63623727D01*
X180949078Y-63623728D01*
X180949077Y-63623729D01*
X180885875Y-63647301D01*
X180687661Y-63721231D01*
X180687657Y-63721233D01*
X180442792Y-63854940D01*
X180442784Y-63854945D01*
X180219439Y-64022138D01*
X180219421Y-64022154D01*
X180022154Y-64219421D01*
X180022138Y-64219439D01*
X179854945Y-64442784D01*
X179854940Y-64442792D01*
X179721233Y-64687657D01*
X179721231Y-64687661D01*
X179623727Y-64949083D01*
X179564422Y-65221700D01*
X179544518Y-65499998D01*
X167485338Y-65499998D01*
X167497157Y-65380000D01*
X167478573Y-65191317D01*
X167423537Y-65009885D01*
X167399436Y-64964795D01*
X167334165Y-64842681D01*
X167334161Y-64842674D01*
X167213883Y-64696116D01*
X167067325Y-64575838D01*
X167067318Y-64575834D01*
X166900122Y-64486466D01*
X166900119Y-64486465D01*
X166900118Y-64486464D01*
X166900115Y-64486463D01*
X166718683Y-64431427D01*
X166718681Y-64431426D01*
X166718683Y-64431426D01*
X166530000Y-64412843D01*
X166341318Y-64431426D01*
X166234194Y-64463921D01*
X166159885Y-64486463D01*
X166159882Y-64486464D01*
X166159880Y-64486465D01*
X166159877Y-64486466D01*
X165992681Y-64575834D01*
X165992674Y-64575838D01*
X165846116Y-64696116D01*
X165725838Y-64842674D01*
X165725834Y-64842681D01*
X165636466Y-65009877D01*
X165636465Y-65009880D01*
X165636464Y-65009882D01*
X165636463Y-65009885D01*
X165618810Y-65068080D01*
X165581426Y-65191318D01*
X165562843Y-65380000D01*
X164957157Y-65380000D01*
X164938573Y-65191317D01*
X164883537Y-65009885D01*
X164859436Y-64964795D01*
X164794165Y-64842681D01*
X164794161Y-64842674D01*
X164673883Y-64696116D01*
X164527325Y-64575838D01*
X164527318Y-64575834D01*
X164360122Y-64486466D01*
X164360119Y-64486465D01*
X164360118Y-64486464D01*
X164360115Y-64486463D01*
X164178683Y-64431427D01*
X164178681Y-64431426D01*
X164178683Y-64431426D01*
X163990000Y-64412843D01*
X163801318Y-64431426D01*
X163694194Y-64463921D01*
X163619885Y-64486463D01*
X163619882Y-64486464D01*
X163619880Y-64486465D01*
X163619877Y-64486466D01*
X163452681Y-64575834D01*
X163452674Y-64575838D01*
X163306116Y-64696116D01*
X163185838Y-64842674D01*
X163185834Y-64842681D01*
X163096466Y-65009877D01*
X163096465Y-65009880D01*
X163096464Y-65009882D01*
X163096463Y-65009885D01*
X163078810Y-65068080D01*
X163041426Y-65191318D01*
X163022843Y-65380000D01*
X162417157Y-65380000D01*
X162398573Y-65191317D01*
X162343537Y-65009885D01*
X162319436Y-64964795D01*
X162254165Y-64842681D01*
X162254161Y-64842674D01*
X162133883Y-64696116D01*
X161987325Y-64575838D01*
X161987318Y-64575834D01*
X161820122Y-64486466D01*
X161820119Y-64486465D01*
X161820118Y-64486464D01*
X161820115Y-64486463D01*
X161638683Y-64431427D01*
X161638681Y-64431426D01*
X161638683Y-64431426D01*
X161450000Y-64412843D01*
X161261318Y-64431426D01*
X161154194Y-64463921D01*
X161079885Y-64486463D01*
X161079882Y-64486464D01*
X161079880Y-64486465D01*
X161079877Y-64486466D01*
X160912681Y-64575834D01*
X160912674Y-64575838D01*
X160766116Y-64696116D01*
X160645838Y-64842674D01*
X160645834Y-64842681D01*
X160556466Y-65009877D01*
X160556465Y-65009880D01*
X160556464Y-65009882D01*
X160556463Y-65009885D01*
X160538810Y-65068080D01*
X160501426Y-65191318D01*
X160482843Y-65380000D01*
X159877157Y-65380000D01*
X159858573Y-65191317D01*
X159803537Y-65009885D01*
X159779436Y-64964795D01*
X159714165Y-64842681D01*
X159714161Y-64842674D01*
X159593883Y-64696116D01*
X159447325Y-64575838D01*
X159447318Y-64575834D01*
X159280122Y-64486466D01*
X159280119Y-64486465D01*
X159280118Y-64486464D01*
X159280115Y-64486463D01*
X159098683Y-64431427D01*
X159098681Y-64431426D01*
X159098683Y-64431426D01*
X158910000Y-64412843D01*
X158721318Y-64431426D01*
X158614194Y-64463921D01*
X158539885Y-64486463D01*
X158539882Y-64486464D01*
X158539880Y-64486465D01*
X158539877Y-64486466D01*
X158372681Y-64575834D01*
X158372674Y-64575838D01*
X158226116Y-64696116D01*
X158105838Y-64842674D01*
X158105834Y-64842681D01*
X158016466Y-65009877D01*
X158016465Y-65009880D01*
X158016464Y-65009882D01*
X158016463Y-65009885D01*
X157998810Y-65068080D01*
X157961426Y-65191318D01*
X157942843Y-65380000D01*
X157337157Y-65380000D01*
X157318573Y-65191317D01*
X157263537Y-65009885D01*
X157239436Y-64964795D01*
X157174165Y-64842681D01*
X157174161Y-64842674D01*
X157053883Y-64696116D01*
X156907325Y-64575838D01*
X156907318Y-64575834D01*
X156740122Y-64486466D01*
X156740119Y-64486465D01*
X156740118Y-64486464D01*
X156740115Y-64486463D01*
X156558683Y-64431427D01*
X156558681Y-64431426D01*
X156558683Y-64431426D01*
X156370000Y-64412843D01*
X156181318Y-64431426D01*
X156074194Y-64463921D01*
X155999885Y-64486463D01*
X155999882Y-64486464D01*
X155999880Y-64486465D01*
X155999877Y-64486466D01*
X155832681Y-64575834D01*
X155832674Y-64575838D01*
X155686116Y-64696116D01*
X155565838Y-64842674D01*
X155565834Y-64842681D01*
X155476466Y-65009877D01*
X155476465Y-65009880D01*
X155476464Y-65009882D01*
X155476463Y-65009885D01*
X155458810Y-65068080D01*
X155421426Y-65191318D01*
X155402843Y-65380000D01*
X154797157Y-65380000D01*
X154778573Y-65191317D01*
X154723537Y-65009885D01*
X154699436Y-64964795D01*
X154634165Y-64842681D01*
X154634161Y-64842674D01*
X154513883Y-64696116D01*
X154367325Y-64575838D01*
X154367318Y-64575834D01*
X154200122Y-64486466D01*
X154200119Y-64486465D01*
X154200118Y-64486464D01*
X154200115Y-64486463D01*
X154018683Y-64431427D01*
X154018681Y-64431426D01*
X154018683Y-64431426D01*
X153830000Y-64412843D01*
X153641318Y-64431426D01*
X153534194Y-64463921D01*
X153459885Y-64486463D01*
X153459882Y-64486464D01*
X153459880Y-64486465D01*
X153459877Y-64486466D01*
X153292681Y-64575834D01*
X153292674Y-64575838D01*
X153146116Y-64696116D01*
X153025838Y-64842674D01*
X153025834Y-64842681D01*
X152936466Y-65009877D01*
X152936465Y-65009880D01*
X152936464Y-65009882D01*
X152936463Y-65009885D01*
X152918810Y-65068080D01*
X152881426Y-65191318D01*
X152862843Y-65380000D01*
X152257157Y-65380000D01*
X152238573Y-65191317D01*
X152183537Y-65009885D01*
X152159436Y-64964795D01*
X152094165Y-64842681D01*
X152094161Y-64842674D01*
X151973883Y-64696116D01*
X151827325Y-64575838D01*
X151827318Y-64575834D01*
X151660122Y-64486466D01*
X151660119Y-64486465D01*
X151660118Y-64486464D01*
X151660115Y-64486463D01*
X151478683Y-64431427D01*
X151478681Y-64431426D01*
X151478683Y-64431426D01*
X151290000Y-64412843D01*
X151101318Y-64431426D01*
X150994194Y-64463921D01*
X150919885Y-64486463D01*
X150919882Y-64486464D01*
X150919880Y-64486465D01*
X150919877Y-64486466D01*
X150752681Y-64575834D01*
X150752674Y-64575838D01*
X150606116Y-64696116D01*
X150485838Y-64842674D01*
X150485834Y-64842681D01*
X150396466Y-65009877D01*
X150396465Y-65009880D01*
X150396464Y-65009882D01*
X150396463Y-65009885D01*
X150378810Y-65068080D01*
X150341426Y-65191318D01*
X150322843Y-65380000D01*
X149717157Y-65380000D01*
X149698573Y-65191317D01*
X149643537Y-65009885D01*
X149619436Y-64964795D01*
X149554165Y-64842681D01*
X149554161Y-64842674D01*
X149433883Y-64696116D01*
X149287325Y-64575838D01*
X149287318Y-64575834D01*
X149120122Y-64486466D01*
X149120119Y-64486465D01*
X149120118Y-64486464D01*
X149120115Y-64486463D01*
X148938683Y-64431427D01*
X148938681Y-64431426D01*
X148938683Y-64431426D01*
X148750000Y-64412843D01*
X148561318Y-64431426D01*
X148454194Y-64463921D01*
X148379885Y-64486463D01*
X148379882Y-64486464D01*
X148379880Y-64486465D01*
X148379877Y-64486466D01*
X148212681Y-64575834D01*
X148212674Y-64575838D01*
X148066116Y-64696116D01*
X147945838Y-64842674D01*
X147945834Y-64842681D01*
X147856466Y-65009877D01*
X147856465Y-65009880D01*
X147856464Y-65009882D01*
X147856463Y-65009885D01*
X147838810Y-65068080D01*
X147801426Y-65191318D01*
X147782843Y-65380000D01*
X147177157Y-65380000D01*
X147158573Y-65191317D01*
X147103537Y-65009885D01*
X147079436Y-64964795D01*
X147014165Y-64842681D01*
X147014161Y-64842674D01*
X146893883Y-64696116D01*
X146747325Y-64575838D01*
X146747318Y-64575834D01*
X146580122Y-64486466D01*
X146580119Y-64486465D01*
X146580118Y-64486464D01*
X146580115Y-64486463D01*
X146398683Y-64431427D01*
X146398681Y-64431426D01*
X146398683Y-64431426D01*
X146210000Y-64412843D01*
X146021318Y-64431426D01*
X145914194Y-64463921D01*
X145839885Y-64486463D01*
X145839882Y-64486464D01*
X145839880Y-64486465D01*
X145839877Y-64486466D01*
X145672681Y-64575834D01*
X145672674Y-64575838D01*
X145526116Y-64696116D01*
X145405838Y-64842674D01*
X145405834Y-64842681D01*
X145316466Y-65009877D01*
X145316465Y-65009880D01*
X145316464Y-65009882D01*
X145316463Y-65009885D01*
X145298810Y-65068080D01*
X145261426Y-65191318D01*
X145242843Y-65380000D01*
X144637157Y-65380000D01*
X144618573Y-65191317D01*
X144563537Y-65009885D01*
X144539436Y-64964795D01*
X144474165Y-64842681D01*
X144474161Y-64842674D01*
X144353883Y-64696116D01*
X144207325Y-64575838D01*
X144207318Y-64575834D01*
X144040122Y-64486466D01*
X144040119Y-64486465D01*
X144040118Y-64486464D01*
X144040115Y-64486463D01*
X143858683Y-64431427D01*
X143858681Y-64431426D01*
X143858683Y-64431426D01*
X143670000Y-64412843D01*
X143481318Y-64431426D01*
X143374194Y-64463921D01*
X143299885Y-64486463D01*
X143299882Y-64486464D01*
X143299880Y-64486465D01*
X143299877Y-64486466D01*
X143132681Y-64575834D01*
X143132674Y-64575838D01*
X142986116Y-64696116D01*
X142865838Y-64842674D01*
X142865834Y-64842681D01*
X142776466Y-65009877D01*
X142776465Y-65009880D01*
X142776464Y-65009882D01*
X142776463Y-65009885D01*
X142758810Y-65068080D01*
X142721426Y-65191318D01*
X142702843Y-65380000D01*
X142097157Y-65380000D01*
X142078573Y-65191317D01*
X142023537Y-65009885D01*
X141999436Y-64964795D01*
X141934165Y-64842681D01*
X141934161Y-64842674D01*
X141813883Y-64696116D01*
X141667325Y-64575838D01*
X141667318Y-64575834D01*
X141500122Y-64486466D01*
X141500119Y-64486465D01*
X141500118Y-64486464D01*
X141500115Y-64486463D01*
X141318683Y-64431427D01*
X141318681Y-64431426D01*
X141318683Y-64431426D01*
X141130000Y-64412843D01*
X140941318Y-64431426D01*
X140834194Y-64463921D01*
X140759885Y-64486463D01*
X140759882Y-64486464D01*
X140759880Y-64486465D01*
X140759877Y-64486466D01*
X140592681Y-64575834D01*
X140592674Y-64575838D01*
X140446116Y-64696116D01*
X140325838Y-64842674D01*
X140325834Y-64842681D01*
X140236466Y-65009877D01*
X140236465Y-65009880D01*
X140236464Y-65009882D01*
X140236463Y-65009885D01*
X140218810Y-65068080D01*
X140181426Y-65191318D01*
X140162843Y-65380000D01*
X139557157Y-65380000D01*
X139538573Y-65191317D01*
X139483537Y-65009885D01*
X139459436Y-64964795D01*
X139394165Y-64842681D01*
X139394161Y-64842674D01*
X139273883Y-64696116D01*
X139127325Y-64575838D01*
X139127318Y-64575834D01*
X138960122Y-64486466D01*
X138960119Y-64486465D01*
X138960118Y-64486464D01*
X138960115Y-64486463D01*
X138778683Y-64431427D01*
X138778681Y-64431426D01*
X138778683Y-64431426D01*
X138590000Y-64412843D01*
X138401318Y-64431426D01*
X138294194Y-64463921D01*
X138219885Y-64486463D01*
X138219882Y-64486464D01*
X138219880Y-64486465D01*
X138219877Y-64486466D01*
X138052681Y-64575834D01*
X138052674Y-64575838D01*
X137906116Y-64696116D01*
X137785838Y-64842674D01*
X137785834Y-64842681D01*
X137696466Y-65009877D01*
X137696465Y-65009880D01*
X137696464Y-65009882D01*
X137696463Y-65009885D01*
X137678810Y-65068080D01*
X137641426Y-65191318D01*
X137622843Y-65380000D01*
X137017157Y-65380000D01*
X136998573Y-65191317D01*
X136943537Y-65009885D01*
X136919436Y-64964795D01*
X136854165Y-64842681D01*
X136854161Y-64842674D01*
X136733883Y-64696116D01*
X136587325Y-64575838D01*
X136587318Y-64575834D01*
X136420122Y-64486466D01*
X136420119Y-64486465D01*
X136420118Y-64486464D01*
X136420115Y-64486463D01*
X136238683Y-64431427D01*
X136238681Y-64431426D01*
X136238683Y-64431426D01*
X136050000Y-64412843D01*
X135861318Y-64431426D01*
X135754194Y-64463921D01*
X135679885Y-64486463D01*
X135679882Y-64486464D01*
X135679880Y-64486465D01*
X135679877Y-64486466D01*
X135512681Y-64575834D01*
X135512674Y-64575838D01*
X135366116Y-64696116D01*
X135245838Y-64842674D01*
X135245834Y-64842681D01*
X135156466Y-65009877D01*
X135156465Y-65009880D01*
X135156464Y-65009882D01*
X135156463Y-65009885D01*
X135138810Y-65068080D01*
X135101426Y-65191318D01*
X135082843Y-65380000D01*
X134776821Y-65380000D01*
X134776821Y-65379999D01*
X134757575Y-65160023D01*
X134757573Y-65160013D01*
X134700424Y-64946729D01*
X134700420Y-64946720D01*
X134607096Y-64746586D01*
X134561741Y-64681811D01*
X134561740Y-64681810D01*
X133999494Y-65244056D01*
X133983381Y-65183919D01*
X133916502Y-65068080D01*
X133821920Y-64973498D01*
X133706081Y-64906619D01*
X133645941Y-64890504D01*
X134208188Y-64328258D01*
X134143411Y-64282901D01*
X134143405Y-64282898D01*
X133943284Y-64189580D01*
X133943270Y-64189575D01*
X133729986Y-64132426D01*
X133729976Y-64132424D01*
X133510001Y-64113179D01*
X133509999Y-64113179D01*
X133290023Y-64132424D01*
X133290013Y-64132426D01*
X133076729Y-64189575D01*
X133076720Y-64189579D01*
X132876590Y-64282901D01*
X132811811Y-64328258D01*
X133374058Y-64890504D01*
X133313919Y-64906619D01*
X133198080Y-64973498D01*
X133103498Y-65068080D01*
X133036619Y-65183919D01*
X133020504Y-65244057D01*
X132458258Y-64681811D01*
X132412901Y-64746590D01*
X132319579Y-64946720D01*
X132319575Y-64946729D01*
X132262426Y-65160013D01*
X132262424Y-65160023D01*
X132243179Y-65379999D01*
X131937157Y-65379999D01*
X131918573Y-65191317D01*
X131863537Y-65009885D01*
X131839436Y-64964795D01*
X131774165Y-64842681D01*
X131774161Y-64842674D01*
X131653883Y-64696116D01*
X131507325Y-64575838D01*
X131507318Y-64575834D01*
X131340122Y-64486466D01*
X131340119Y-64486465D01*
X131340118Y-64486464D01*
X131340115Y-64486463D01*
X131158683Y-64431427D01*
X131158681Y-64431426D01*
X131158683Y-64431426D01*
X130970000Y-64412843D01*
X130781318Y-64431426D01*
X130674194Y-64463921D01*
X130599885Y-64486463D01*
X130599882Y-64486464D01*
X130599880Y-64486465D01*
X130599877Y-64486466D01*
X130432681Y-64575834D01*
X130432674Y-64575838D01*
X130286116Y-64696116D01*
X130165838Y-64842674D01*
X130165834Y-64842681D01*
X130076466Y-65009877D01*
X130076465Y-65009880D01*
X130076464Y-65009882D01*
X130076463Y-65009885D01*
X130058810Y-65068080D01*
X130021426Y-65191318D01*
X130002843Y-65380000D01*
X126250500Y-65380000D01*
X126250500Y-60874500D01*
X126270185Y-60807461D01*
X126322989Y-60761706D01*
X126374500Y-60750500D01*
X177684108Y-60750500D01*
X177748141Y-60750500D01*
X177751886Y-60750557D01*
G37*
%TD.AperFunction*%
%TD*%
M02*
