%TF.GenerationSoftware,KiCad,Pcbnew,8.0.7*%
%TF.CreationDate,2024-12-28T13:43:39+03:00*%
%TF.ProjectId,SingleSwitch,53696e67-6c65-4537-9769-7463682e6b69,rev?*%
%TF.SameCoordinates,Original*%
%TF.FileFunction,Soldermask,Bot*%
%TF.FilePolarity,Negative*%
%FSLAX46Y46*%
G04 Gerber Fmt 4.6, Leading zero omitted, Abs format (unit mm)*
G04 Created by KiCad (PCBNEW 8.0.7) date 2024-12-28 13:43:39*
%MOMM*%
%LPD*%
G01*
G04 APERTURE LIST*
G04 Aperture macros list*
%AMRoundRect*
0 Rectangle with rounded corners*
0 $1 Rounding radius*
0 $2 $3 $4 $5 $6 $7 $8 $9 X,Y pos of 4 corners*
0 Add a 4 corners polygon primitive as box body*
4,1,4,$2,$3,$4,$5,$6,$7,$8,$9,$2,$3,0*
0 Add four circle primitives for the rounded corners*
1,1,$1+$1,$2,$3*
1,1,$1+$1,$4,$5*
1,1,$1+$1,$6,$7*
1,1,$1+$1,$8,$9*
0 Add four rect primitives between the rounded corners*
20,1,$1+$1,$2,$3,$4,$5,0*
20,1,$1+$1,$4,$5,$6,$7,0*
20,1,$1+$1,$6,$7,$8,$9,0*
20,1,$1+$1,$8,$9,$2,$3,0*%
G04 Aperture macros list end*
%ADD10R,1.700000X1.700000*%
%ADD11O,1.700000X1.700000*%
%ADD12C,3.500000*%
%ADD13RoundRect,0.102000X-0.762000X-0.762000X0.762000X-0.762000X0.762000X0.762000X-0.762000X0.762000X0*%
%ADD14C,1.728000*%
%ADD15RoundRect,0.250000X-0.600000X-0.750000X0.600000X-0.750000X0.600000X0.750000X-0.600000X0.750000X0*%
%ADD16O,1.700000X2.000000*%
G04 APERTURE END LIST*
D10*
%TO.C,J6*%
X130250000Y-96775000D03*
D11*
X130250000Y-94235000D03*
%TD*%
D10*
%TO.C,J5*%
X159250000Y-95750000D03*
D11*
X156710000Y-95750000D03*
%TD*%
D12*
%TO.C,H1*%
X181500000Y-65500000D03*
%TD*%
D10*
%TO.C,J1*%
X158420000Y-107250000D03*
D11*
X160960000Y-107250000D03*
X163500000Y-107250000D03*
%TD*%
D10*
%TO.C,J3*%
X170420000Y-107250000D03*
D11*
X172960000Y-107250000D03*
X175500000Y-107250000D03*
%TD*%
D10*
%TO.C,J4*%
X129725000Y-107250000D03*
D11*
X132265000Y-107250000D03*
X134805000Y-107250000D03*
%TD*%
D13*
%TO.C,TB1*%
X130970000Y-80620000D03*
D14*
X133510000Y-80620000D03*
X136050000Y-80620000D03*
X138590000Y-80620000D03*
X141130000Y-80620000D03*
X143670000Y-80620000D03*
X146210000Y-80620000D03*
X148750000Y-80620000D03*
X151290000Y-80620000D03*
X153830000Y-80620000D03*
X156370000Y-80620000D03*
X158910000Y-80620000D03*
X161450000Y-80620000D03*
X163990000Y-80620000D03*
X166530000Y-80620000D03*
X166530000Y-65380000D03*
X163990000Y-65380000D03*
X161450000Y-65380000D03*
X158910000Y-65380000D03*
X156370000Y-65380000D03*
X153830000Y-65380000D03*
X151290000Y-65380000D03*
X148750000Y-65380000D03*
X146210000Y-65380000D03*
X143670000Y-65380000D03*
X141130000Y-65380000D03*
X138590000Y-65380000D03*
X136050000Y-65380000D03*
X133510000Y-65380000D03*
X130970000Y-65380000D03*
%TD*%
D15*
%TO.C,J2*%
X146000000Y-107000000D03*
D16*
X148500000Y-107000000D03*
%TD*%
D12*
%TO.C,H3*%
X182250000Y-105750000D03*
%TD*%
M02*
