%TF.GenerationSoftware,KiCad,Pcbnew,8.0.7*%
%TF.CreationDate,2024-12-28T13:40:39+03:00*%
%TF.ProjectId,FiveSwitch,46697665-5377-4697-9463-682e6b696361,rev?*%
%TF.SameCoordinates,Original*%
%TF.FileFunction,Soldermask,Top*%
%TF.FilePolarity,Negative*%
%FSLAX46Y46*%
G04 Gerber Fmt 4.6, Leading zero omitted, Abs format (unit mm)*
G04 Created by KiCad (PCBNEW 8.0.7) date 2024-12-28 13:40:39*
%MOMM*%
%LPD*%
G01*
G04 APERTURE LIST*
G04 Aperture macros list*
%AMRoundRect*
0 Rectangle with rounded corners*
0 $1 Rounding radius*
0 $2 $3 $4 $5 $6 $7 $8 $9 X,Y pos of 4 corners*
0 Add a 4 corners polygon primitive as box body*
4,1,4,$2,$3,$4,$5,$6,$7,$8,$9,$2,$3,0*
0 Add four circle primitives for the rounded corners*
1,1,$1+$1,$2,$3*
1,1,$1+$1,$4,$5*
1,1,$1+$1,$6,$7*
1,1,$1+$1,$8,$9*
0 Add four rect primitives between the rounded corners*
20,1,$1+$1,$2,$3,$4,$5,0*
20,1,$1+$1,$4,$5,$6,$7,0*
20,1,$1+$1,$6,$7,$8,$9,0*
20,1,$1+$1,$8,$9,$2,$3,0*%
G04 Aperture macros list end*
%ADD10R,1.700000X1.700000*%
%ADD11O,1.700000X1.700000*%
%ADD12RoundRect,0.200000X0.275000X-0.200000X0.275000X0.200000X-0.275000X0.200000X-0.275000X-0.200000X0*%
%ADD13RoundRect,0.225000X-0.250000X0.225000X-0.250000X-0.225000X0.250000X-0.225000X0.250000X0.225000X0*%
%ADD14RoundRect,0.225000X-0.225000X-0.250000X0.225000X-0.250000X0.225000X0.250000X-0.225000X0.250000X0*%
%ADD15RoundRect,0.200000X-0.275000X0.200000X-0.275000X-0.200000X0.275000X-0.200000X0.275000X0.200000X0*%
%ADD16RoundRect,0.250000X0.600000X0.750000X-0.600000X0.750000X-0.600000X-0.750000X0.600000X-0.750000X0*%
%ADD17O,1.700000X2.000000*%
%ADD18RoundRect,0.200000X-0.200000X-0.275000X0.200000X-0.275000X0.200000X0.275000X-0.200000X0.275000X0*%
%ADD19RoundRect,0.200000X0.200000X0.275000X-0.200000X0.275000X-0.200000X-0.275000X0.200000X-0.275000X0*%
%ADD20RoundRect,0.102000X0.762000X-0.762000X0.762000X0.762000X-0.762000X0.762000X-0.762000X-0.762000X0*%
%ADD21C,1.728000*%
%ADD22RoundRect,0.147500X0.172500X-0.147500X0.172500X0.147500X-0.172500X0.147500X-0.172500X-0.147500X0*%
%ADD23RoundRect,0.225000X0.225000X0.250000X-0.225000X0.250000X-0.225000X-0.250000X0.225000X-0.250000X0*%
%ADD24RoundRect,0.135000X-0.135000X-0.185000X0.135000X-0.185000X0.135000X0.185000X-0.135000X0.185000X0*%
%ADD25RoundRect,0.102000X-2.700000X1.450000X-2.700000X-1.450000X2.700000X-1.450000X2.700000X1.450000X0*%
%ADD26RoundRect,0.225000X0.250000X-0.225000X0.250000X0.225000X-0.250000X0.225000X-0.250000X-0.225000X0*%
%ADD27C,1.500000*%
%ADD28RoundRect,0.375000X0.375000X-0.625000X0.375000X0.625000X-0.375000X0.625000X-0.375000X-0.625000X0*%
%ADD29RoundRect,0.500000X1.400000X-0.500000X1.400000X0.500000X-1.400000X0.500000X-1.400000X-0.500000X0*%
%ADD30RoundRect,0.218750X-0.218750X-0.256250X0.218750X-0.256250X0.218750X0.256250X-0.218750X0.256250X0*%
%ADD31RoundRect,0.140000X-0.170000X0.140000X-0.170000X-0.140000X0.170000X-0.140000X0.170000X0.140000X0*%
%ADD32RoundRect,0.250000X-1.000000X-0.650000X1.000000X-0.650000X1.000000X0.650000X-1.000000X0.650000X0*%
%ADD33RoundRect,0.218750X0.256250X-0.218750X0.256250X0.218750X-0.256250X0.218750X-0.256250X-0.218750X0*%
%ADD34RoundRect,0.150000X-0.512500X-0.150000X0.512500X-0.150000X0.512500X0.150000X-0.512500X0.150000X0*%
%ADD35RoundRect,0.100500X0.301500X-0.986500X0.301500X0.986500X-0.301500X0.986500X-0.301500X-0.986500X0*%
%ADD36RoundRect,0.102000X1.651000X-1.206500X1.651000X1.206500X-1.651000X1.206500X-1.651000X-1.206500X0*%
G04 APERTURE END LIST*
D10*
%TO.C,J11*%
X152210000Y-55725000D03*
D11*
X154750000Y-55725000D03*
X157290000Y-55725000D03*
%TD*%
D12*
%TO.C,R8*%
X168612500Y-70200000D03*
X168612500Y-68550000D03*
%TD*%
D13*
%TO.C,C1*%
X100500000Y-85750000D03*
X100500000Y-87300000D03*
%TD*%
D10*
%TO.C,J7*%
X164560702Y-91935837D03*
D11*
X167100702Y-91935837D03*
X169640702Y-91935837D03*
%TD*%
D10*
%TO.C,J2*%
X139560702Y-91685837D03*
D11*
X142100702Y-91685837D03*
X144640702Y-91685837D03*
%TD*%
D10*
%TO.C,J10*%
X139120000Y-55725000D03*
D11*
X141660000Y-55725000D03*
X144200000Y-55725000D03*
%TD*%
D14*
%TO.C,C17*%
X156200000Y-59975000D03*
X157750000Y-59975000D03*
%TD*%
D10*
%TO.C,J5*%
X186210000Y-64750000D03*
D11*
X188750000Y-64750000D03*
%TD*%
D15*
%TO.C,R3*%
X156750000Y-65705000D03*
X156750000Y-67355000D03*
%TD*%
D16*
%TO.C,J4*%
X193887123Y-56883099D03*
D17*
X191387123Y-56883099D03*
%TD*%
D14*
%TO.C,C3*%
X128950000Y-87435837D03*
X130500000Y-87435837D03*
%TD*%
D18*
%TO.C,R5*%
X126750000Y-59975000D03*
X128400000Y-59975000D03*
%TD*%
D13*
%TO.C,C6*%
X181250000Y-76950000D03*
X181250000Y-78500000D03*
%TD*%
D10*
%TO.C,J8*%
X176810702Y-91935837D03*
D11*
X179350702Y-91935837D03*
X181890702Y-91935837D03*
%TD*%
D19*
%TO.C,R6*%
X156650000Y-84955000D03*
X155000000Y-84955000D03*
%TD*%
D15*
%TO.C,R4*%
X155000000Y-65705000D03*
X155000000Y-67355000D03*
%TD*%
D18*
%TO.C,R12*%
X165600000Y-59975000D03*
X167250000Y-59975000D03*
%TD*%
D20*
%TO.C,TB1*%
X118490000Y-91530000D03*
D21*
X118490000Y-88990000D03*
X118490000Y-86450000D03*
X118490000Y-83910000D03*
X118490000Y-81370000D03*
X118490000Y-78830000D03*
X118490000Y-76290000D03*
X118490000Y-73750000D03*
X118490000Y-71210000D03*
X118490000Y-68670000D03*
X118490000Y-66130000D03*
X118490000Y-63590000D03*
X118490000Y-61050000D03*
X118490000Y-58510000D03*
X118490000Y-55970000D03*
X103250000Y-55970000D03*
X103250000Y-58510000D03*
X103250000Y-61050000D03*
X103250000Y-63590000D03*
X103250000Y-66130000D03*
X103250000Y-68670000D03*
X103250000Y-71210000D03*
X103250000Y-73750000D03*
X103250000Y-76290000D03*
X103250000Y-78830000D03*
X103250000Y-81370000D03*
X103250000Y-83910000D03*
X103250000Y-86450000D03*
X103250000Y-88990000D03*
X103250000Y-91530000D03*
%TD*%
D22*
%TO.C,D2*%
X156500000Y-72250000D03*
X156500000Y-71280000D03*
%TD*%
D18*
%TO.C,R10*%
X139125000Y-59975000D03*
X140775000Y-59975000D03*
%TD*%
D23*
%TO.C,C9*%
X172525000Y-63250000D03*
X170975000Y-63250000D03*
%TD*%
D10*
%TO.C,J9*%
X189350702Y-91685837D03*
D11*
X191890702Y-91685837D03*
X194430702Y-91685837D03*
%TD*%
D13*
%TO.C,C5*%
X183500000Y-77000000D03*
X183500000Y-78550000D03*
%TD*%
D24*
%TO.C,R1*%
X135480000Y-76100000D03*
X136500000Y-76100000D03*
%TD*%
D25*
%TO.C,L1*%
X170612500Y-73250000D03*
X170612500Y-82950000D03*
%TD*%
D26*
%TO.C,C2*%
X100500000Y-83300000D03*
X100500000Y-81750000D03*
%TD*%
D27*
%TO.C,5V1*%
X162000000Y-66000000D03*
%TD*%
D14*
%TO.C,C18*%
X169450000Y-59975000D03*
X171000000Y-59975000D03*
%TD*%
D10*
%TO.C,J6*%
X152640702Y-91935837D03*
D11*
X155180702Y-91935837D03*
X157720702Y-91935837D03*
%TD*%
D28*
%TO.C,Q1*%
X136450000Y-71900000D03*
X138750000Y-71900000D03*
D29*
X138750000Y-65600000D03*
D28*
X141050000Y-71900000D03*
%TD*%
D10*
%TO.C,J3*%
X126210000Y-55725000D03*
D11*
X128750000Y-55725000D03*
X131290000Y-55725000D03*
%TD*%
D30*
%TO.C,D1*%
X142712500Y-75850000D03*
X144287500Y-75850000D03*
%TD*%
D10*
%TO.C,J13*%
X179120000Y-55975000D03*
D11*
X181660000Y-55975000D03*
X184200000Y-55975000D03*
%TD*%
D31*
%TO.C,C10*%
X178000000Y-64520000D03*
X178000000Y-65480000D03*
%TD*%
D14*
%TO.C,C15*%
X192950000Y-87500000D03*
X194500000Y-87500000D03*
%TD*%
D23*
%TO.C,C8*%
X172500000Y-66250000D03*
X170950000Y-66250000D03*
%TD*%
D32*
%TO.C,D4*%
X177862500Y-68950000D03*
X181862500Y-68950000D03*
%TD*%
D15*
%TO.C,R7*%
X173112500Y-68625000D03*
X173112500Y-70275000D03*
%TD*%
D33*
%TO.C,L2*%
X175112500Y-65987500D03*
X175112500Y-64412500D03*
%TD*%
D14*
%TO.C,C19*%
X182950000Y-60225000D03*
X184500000Y-60225000D03*
%TD*%
%TO.C,C16*%
X142950000Y-59975000D03*
X144500000Y-59975000D03*
%TD*%
D22*
%TO.C,D3*%
X155250000Y-72235000D03*
X155250000Y-71265000D03*
%TD*%
D18*
%TO.C,R13*%
X179125000Y-60225000D03*
X180775000Y-60225000D03*
%TD*%
D24*
%TO.C,R14*%
X138740000Y-79850000D03*
X139760000Y-79850000D03*
%TD*%
%TO.C,R9*%
X186975000Y-67500000D03*
X187995000Y-67500000D03*
%TD*%
D10*
%TO.C,J14*%
X147275000Y-79850000D03*
D11*
X144735000Y-79850000D03*
%TD*%
D18*
%TO.C,R11*%
X152350000Y-59975000D03*
X154000000Y-59975000D03*
%TD*%
D14*
%TO.C,C7*%
X130200000Y-59975000D03*
X131750000Y-59975000D03*
%TD*%
%TO.C,C14*%
X179865702Y-88185837D03*
X181415702Y-88185837D03*
%TD*%
%TO.C,C13*%
X167880000Y-88185837D03*
X169430000Y-88185837D03*
%TD*%
D31*
%TO.C,C11*%
X182250000Y-64615000D03*
X182250000Y-65575000D03*
%TD*%
D34*
%TO.C,U1*%
X181975000Y-73250000D03*
X181975000Y-74200000D03*
X181975000Y-75150000D03*
X184250000Y-75150000D03*
X184250000Y-74200000D03*
X184250000Y-73250000D03*
%TD*%
D10*
%TO.C,J1*%
X126350702Y-91435837D03*
D11*
X128890702Y-91435837D03*
X131430702Y-91435837D03*
%TD*%
D14*
%TO.C,C4*%
X143200000Y-87750000D03*
X144750000Y-87750000D03*
%TD*%
D35*
%TO.C,U2*%
X153940000Y-81155000D03*
X155210000Y-81155000D03*
X156480000Y-81155000D03*
X157750000Y-81155000D03*
X157750000Y-76205000D03*
X156480000Y-76205000D03*
X155210000Y-76205000D03*
X153940000Y-76205000D03*
D36*
X155845000Y-78680000D03*
%TD*%
D24*
%TO.C,R2*%
X138740000Y-75850000D03*
X139760000Y-75850000D03*
%TD*%
D10*
%TO.C,J12*%
X165725000Y-55725000D03*
D11*
X168265000Y-55725000D03*
X170805000Y-55725000D03*
%TD*%
D27*
%TO.C,Batt+*%
X193500000Y-76000000D03*
%TD*%
D14*
%TO.C,C12*%
X156020702Y-88185837D03*
X157570702Y-88185837D03*
%TD*%
M02*
