M48
; DRILL file {KiCad 8.0.7} date 2024-12-28T15:12:00+0300
; FORMAT={-:-/ absolute / metric / decimal}
; #@! TF.CreationDate,2024-12-28T15:12:00+03:00
; #@! TF.GenerationSoftware,Kicad,Pcbnew,8.0.7
; #@! TF.FileFunction,Plated,1,2,PTH
FMAT,2
METRIC
; #@! TA.AperFunction,Plated,PTH,ViaDrill
T1C0.300
; #@! TA.AperFunction,Plated,PTH,ComponentDrill
T2C1.000
; #@! TA.AperFunction,Plated,PTH,ComponentDrill
T3C1.016
%
G90
G05
T1
X100.5Y-78.25
X100.5Y-90.5
X121.75Y-52.25
X136.0Y-78.0
X142.25Y-74.25
X153.0Y-83.25
X159.75Y-87.75
X162.25Y-70.5
X162.75Y-73.5
X163.323Y-74.808
X163.901Y-70.993
X164.768Y-80.646
X164.884Y-82.93
X165.0Y-76.0
X165.5Y-72.5
X165.5Y-73.75
X165.5Y-82.0
X165.5Y-83.5
X165.895Y-70.993
X166.0Y-77.25
X166.25Y-82.75
X166.5Y-75.0
X166.75Y-73.0
X167.5Y-78.5
X168.0Y-76.25
X168.25Y-67.0
X168.75Y-79.75
X169.25Y-66.25
X169.25Y-77.5
X169.5Y-65.0
X169.913Y-75.935
X170.75Y-71.0
X170.75Y-79.0
X171.5Y-77.0
X172.5Y-76.0
X172.5Y-79.25
X172.75Y-77.75
X174.0Y-75.75
X174.0Y-77.0
X174.0Y-80.0
X174.25Y-78.5
X174.75Y-71.0
X174.75Y-72.25
X175.0Y-74.75
X175.0Y-76.25
X175.0Y-77.5
X175.0Y-79.0
X175.0Y-80.75
X176.25Y-74.0
X176.25Y-75.5
X176.25Y-77.0
X176.25Y-78.25
X176.25Y-79.75
X176.25Y-81.5
X177.5Y-74.5
X177.746Y-81.774
X177.75Y-76.75
X177.75Y-78.25
X177.75Y-80.5
X179.5Y-66.5
X180.5Y-74.0
X181.25Y-80.0
X182.0Y-66.25
X182.75Y-80.0
T2
X126.21Y-55.725
X126.351Y-91.436
X128.75Y-55.725
X128.891Y-91.436
X131.29Y-55.725
X131.431Y-91.436
X139.12Y-55.725
X139.561Y-91.686
X141.66Y-55.725
X142.101Y-91.686
X144.2Y-55.725
X144.641Y-91.686
X144.735Y-79.85
X147.275Y-79.85
X152.21Y-55.725
X152.641Y-91.936
X154.75Y-55.725
X155.181Y-91.936
X157.29Y-55.725
X157.721Y-91.936
X164.561Y-91.936
X165.725Y-55.725
X167.101Y-91.936
X168.265Y-55.725
X169.641Y-91.936
X170.805Y-55.725
X176.811Y-91.936
X179.12Y-55.975
X179.351Y-91.936
X181.66Y-55.975
X181.891Y-91.936
X184.2Y-55.975
X186.21Y-64.75
X188.75Y-64.75
X189.351Y-91.686
X191.387Y-56.883
X191.891Y-91.686
X193.887Y-56.883
X194.431Y-91.686
T3
X103.25Y-55.97
X103.25Y-58.51
X103.25Y-61.05
X103.25Y-63.59
X103.25Y-66.13
X103.25Y-68.67
X103.25Y-71.21
X103.25Y-73.75
X103.25Y-76.29
X103.25Y-78.83
X103.25Y-81.37
X103.25Y-83.91
X103.25Y-86.45
X103.25Y-88.99
X103.25Y-91.53
X118.49Y-55.97
X118.49Y-58.51
X118.49Y-61.05
X118.49Y-63.59
X118.49Y-66.13
X118.49Y-68.67
X118.49Y-71.21
X118.49Y-73.75
X118.49Y-76.29
X118.49Y-78.83
X118.49Y-81.37
X118.49Y-83.91
X118.49Y-86.45
X118.49Y-88.99
X118.49Y-91.53
M30
