%TF.GenerationSoftware,KiCad,Pcbnew,8.0.7*%
%TF.CreationDate,2024-12-28T13:40:39+03:00*%
%TF.ProjectId,FiveSwitch,46697665-5377-4697-9463-682e6b696361,rev?*%
%TF.SameCoordinates,Original*%
%TF.FileFunction,Legend,Top*%
%TF.FilePolarity,Positive*%
%FSLAX46Y46*%
G04 Gerber Fmt 4.6, Leading zero omitted, Abs format (unit mm)*
G04 Created by KiCad (PCBNEW 8.0.7) date 2024-12-28 13:40:39*
%MOMM*%
%LPD*%
G01*
G04 APERTURE LIST*
%ADD10C,0.250000*%
%ADD11C,0.200000*%
%ADD12C,0.300000*%
%ADD13C,0.150000*%
%ADD14C,0.120000*%
%ADD15C,0.127000*%
%ADD16C,0.100000*%
G04 APERTURE END LIST*
D10*
X145152568Y-57983666D02*
X145914473Y-57983666D01*
X158152568Y-88983666D02*
X158914473Y-88983666D01*
X132402568Y-57983666D02*
X133164473Y-57983666D01*
X190152568Y-59983666D02*
X190914473Y-59983666D01*
D11*
X179322054Y-53319600D02*
X179464911Y-53367219D01*
X179464911Y-53367219D02*
X179703006Y-53367219D01*
X179703006Y-53367219D02*
X179798244Y-53319600D01*
X179798244Y-53319600D02*
X179845863Y-53271980D01*
X179845863Y-53271980D02*
X179893482Y-53176742D01*
X179893482Y-53176742D02*
X179893482Y-53081504D01*
X179893482Y-53081504D02*
X179845863Y-52986266D01*
X179845863Y-52986266D02*
X179798244Y-52938647D01*
X179798244Y-52938647D02*
X179703006Y-52891028D01*
X179703006Y-52891028D02*
X179512530Y-52843409D01*
X179512530Y-52843409D02*
X179417292Y-52795790D01*
X179417292Y-52795790D02*
X179369673Y-52748171D01*
X179369673Y-52748171D02*
X179322054Y-52652933D01*
X179322054Y-52652933D02*
X179322054Y-52557695D01*
X179322054Y-52557695D02*
X179369673Y-52462457D01*
X179369673Y-52462457D02*
X179417292Y-52414838D01*
X179417292Y-52414838D02*
X179512530Y-52367219D01*
X179512530Y-52367219D02*
X179750625Y-52367219D01*
X179750625Y-52367219D02*
X179893482Y-52414838D01*
X180226816Y-52367219D02*
X180464911Y-53367219D01*
X180464911Y-53367219D02*
X180655387Y-52652933D01*
X180655387Y-52652933D02*
X180845863Y-53367219D01*
X180845863Y-53367219D02*
X181083959Y-52367219D01*
X181464911Y-53367219D02*
X181464911Y-52367219D01*
X181798244Y-52367219D02*
X182369672Y-52367219D01*
X182083958Y-53367219D02*
X182083958Y-52367219D01*
X183274434Y-53271980D02*
X183226815Y-53319600D01*
X183226815Y-53319600D02*
X183083958Y-53367219D01*
X183083958Y-53367219D02*
X182988720Y-53367219D01*
X182988720Y-53367219D02*
X182845863Y-53319600D01*
X182845863Y-53319600D02*
X182750625Y-53224361D01*
X182750625Y-53224361D02*
X182703006Y-53129123D01*
X182703006Y-53129123D02*
X182655387Y-52938647D01*
X182655387Y-52938647D02*
X182655387Y-52795790D01*
X182655387Y-52795790D02*
X182703006Y-52605314D01*
X182703006Y-52605314D02*
X182750625Y-52510076D01*
X182750625Y-52510076D02*
X182845863Y-52414838D01*
X182845863Y-52414838D02*
X182988720Y-52367219D01*
X182988720Y-52367219D02*
X183083958Y-52367219D01*
X183083958Y-52367219D02*
X183226815Y-52414838D01*
X183226815Y-52414838D02*
X183274434Y-52462457D01*
X183703006Y-53367219D02*
X183703006Y-52367219D01*
X183703006Y-52843409D02*
X184274434Y-52843409D01*
X184274434Y-53367219D02*
X184274434Y-52367219D01*
X185988720Y-52367219D02*
X185512530Y-52367219D01*
X185512530Y-52367219D02*
X185464911Y-52843409D01*
X185464911Y-52843409D02*
X185512530Y-52795790D01*
X185512530Y-52795790D02*
X185607768Y-52748171D01*
X185607768Y-52748171D02*
X185845863Y-52748171D01*
X185845863Y-52748171D02*
X185941101Y-52795790D01*
X185941101Y-52795790D02*
X185988720Y-52843409D01*
X185988720Y-52843409D02*
X186036339Y-52938647D01*
X186036339Y-52938647D02*
X186036339Y-53176742D01*
X186036339Y-53176742D02*
X185988720Y-53271980D01*
X185988720Y-53271980D02*
X185941101Y-53319600D01*
X185941101Y-53319600D02*
X185845863Y-53367219D01*
X185845863Y-53367219D02*
X185607768Y-53367219D01*
X185607768Y-53367219D02*
X185512530Y-53319600D01*
X185512530Y-53319600D02*
X185464911Y-53271980D01*
D10*
X166402568Y-88733666D02*
X167164473Y-88733666D01*
X166783520Y-89114619D02*
X166783520Y-88352714D01*
X158402568Y-57983666D02*
X159164473Y-57983666D01*
X193902568Y-59983666D02*
X194664473Y-59983666D01*
X194283520Y-60364619D02*
X194283520Y-59602714D01*
D12*
X144304510Y-82765114D02*
X144518796Y-82836542D01*
X144518796Y-82836542D02*
X144590225Y-82907971D01*
X144590225Y-82907971D02*
X144661653Y-83050828D01*
X144661653Y-83050828D02*
X144661653Y-83265114D01*
X144661653Y-83265114D02*
X144590225Y-83407971D01*
X144590225Y-83407971D02*
X144518796Y-83479400D01*
X144518796Y-83479400D02*
X144375939Y-83550828D01*
X144375939Y-83550828D02*
X143804510Y-83550828D01*
X143804510Y-83550828D02*
X143804510Y-82050828D01*
X143804510Y-82050828D02*
X144304510Y-82050828D01*
X144304510Y-82050828D02*
X144447368Y-82122257D01*
X144447368Y-82122257D02*
X144518796Y-82193685D01*
X144518796Y-82193685D02*
X144590225Y-82336542D01*
X144590225Y-82336542D02*
X144590225Y-82479400D01*
X144590225Y-82479400D02*
X144518796Y-82622257D01*
X144518796Y-82622257D02*
X144447368Y-82693685D01*
X144447368Y-82693685D02*
X144304510Y-82765114D01*
X144304510Y-82765114D02*
X143804510Y-82765114D01*
X145304510Y-82050828D02*
X145304510Y-83265114D01*
X145304510Y-83265114D02*
X145375939Y-83407971D01*
X145375939Y-83407971D02*
X145447368Y-83479400D01*
X145447368Y-83479400D02*
X145590225Y-83550828D01*
X145590225Y-83550828D02*
X145875939Y-83550828D01*
X145875939Y-83550828D02*
X146018796Y-83479400D01*
X146018796Y-83479400D02*
X146090225Y-83407971D01*
X146090225Y-83407971D02*
X146161653Y-83265114D01*
X146161653Y-83265114D02*
X146161653Y-82050828D01*
X147590225Y-83550828D02*
X146875939Y-83550828D01*
X146875939Y-83550828D02*
X146875939Y-82050828D01*
X148590225Y-82765114D02*
X148804511Y-82836542D01*
X148804511Y-82836542D02*
X148875940Y-82907971D01*
X148875940Y-82907971D02*
X148947368Y-83050828D01*
X148947368Y-83050828D02*
X148947368Y-83265114D01*
X148947368Y-83265114D02*
X148875940Y-83407971D01*
X148875940Y-83407971D02*
X148804511Y-83479400D01*
X148804511Y-83479400D02*
X148661654Y-83550828D01*
X148661654Y-83550828D02*
X148090225Y-83550828D01*
X148090225Y-83550828D02*
X148090225Y-82050828D01*
X148090225Y-82050828D02*
X148590225Y-82050828D01*
X148590225Y-82050828D02*
X148733083Y-82122257D01*
X148733083Y-82122257D02*
X148804511Y-82193685D01*
X148804511Y-82193685D02*
X148875940Y-82336542D01*
X148875940Y-82336542D02*
X148875940Y-82479400D01*
X148875940Y-82479400D02*
X148804511Y-82622257D01*
X148804511Y-82622257D02*
X148733083Y-82693685D01*
X148733083Y-82693685D02*
X148590225Y-82765114D01*
X148590225Y-82765114D02*
X148090225Y-82765114D01*
D10*
X194902568Y-88483666D02*
X195664473Y-88483666D01*
D11*
X184560149Y-61617219D02*
X184750625Y-61617219D01*
X184750625Y-61617219D02*
X184845863Y-61664838D01*
X184845863Y-61664838D02*
X184941101Y-61760076D01*
X184941101Y-61760076D02*
X184988720Y-61950552D01*
X184988720Y-61950552D02*
X184988720Y-62283885D01*
X184988720Y-62283885D02*
X184941101Y-62474361D01*
X184941101Y-62474361D02*
X184845863Y-62569600D01*
X184845863Y-62569600D02*
X184750625Y-62617219D01*
X184750625Y-62617219D02*
X184560149Y-62617219D01*
X184560149Y-62617219D02*
X184464911Y-62569600D01*
X184464911Y-62569600D02*
X184369673Y-62474361D01*
X184369673Y-62474361D02*
X184322054Y-62283885D01*
X184322054Y-62283885D02*
X184322054Y-61950552D01*
X184322054Y-61950552D02*
X184369673Y-61760076D01*
X184369673Y-61760076D02*
X184464911Y-61664838D01*
X184464911Y-61664838D02*
X184560149Y-61617219D01*
X185417292Y-61950552D02*
X185417292Y-62617219D01*
X185417292Y-62045790D02*
X185464911Y-61998171D01*
X185464911Y-61998171D02*
X185560149Y-61950552D01*
X185560149Y-61950552D02*
X185703006Y-61950552D01*
X185703006Y-61950552D02*
X185798244Y-61998171D01*
X185798244Y-61998171D02*
X185845863Y-62093409D01*
X185845863Y-62093409D02*
X185845863Y-62617219D01*
X187036340Y-62569600D02*
X187179197Y-62617219D01*
X187179197Y-62617219D02*
X187417292Y-62617219D01*
X187417292Y-62617219D02*
X187512530Y-62569600D01*
X187512530Y-62569600D02*
X187560149Y-62521980D01*
X187560149Y-62521980D02*
X187607768Y-62426742D01*
X187607768Y-62426742D02*
X187607768Y-62331504D01*
X187607768Y-62331504D02*
X187560149Y-62236266D01*
X187560149Y-62236266D02*
X187512530Y-62188647D01*
X187512530Y-62188647D02*
X187417292Y-62141028D01*
X187417292Y-62141028D02*
X187226816Y-62093409D01*
X187226816Y-62093409D02*
X187131578Y-62045790D01*
X187131578Y-62045790D02*
X187083959Y-61998171D01*
X187083959Y-61998171D02*
X187036340Y-61902933D01*
X187036340Y-61902933D02*
X187036340Y-61807695D01*
X187036340Y-61807695D02*
X187083959Y-61712457D01*
X187083959Y-61712457D02*
X187131578Y-61664838D01*
X187131578Y-61664838D02*
X187226816Y-61617219D01*
X187226816Y-61617219D02*
X187464911Y-61617219D01*
X187464911Y-61617219D02*
X187607768Y-61664838D01*
X187941102Y-61950552D02*
X188131578Y-62617219D01*
X188131578Y-62617219D02*
X188322054Y-62141028D01*
X188322054Y-62141028D02*
X188512530Y-62617219D01*
X188512530Y-62617219D02*
X188703006Y-61950552D01*
X189083959Y-62617219D02*
X189083959Y-61950552D01*
X189083959Y-61617219D02*
X189036340Y-61664838D01*
X189036340Y-61664838D02*
X189083959Y-61712457D01*
X189083959Y-61712457D02*
X189131578Y-61664838D01*
X189131578Y-61664838D02*
X189083959Y-61617219D01*
X189083959Y-61617219D02*
X189083959Y-61712457D01*
X189417292Y-61950552D02*
X189798244Y-61950552D01*
X189560149Y-61617219D02*
X189560149Y-62474361D01*
X189560149Y-62474361D02*
X189607768Y-62569600D01*
X189607768Y-62569600D02*
X189703006Y-62617219D01*
X189703006Y-62617219D02*
X189798244Y-62617219D01*
X190560149Y-62569600D02*
X190464911Y-62617219D01*
X190464911Y-62617219D02*
X190274435Y-62617219D01*
X190274435Y-62617219D02*
X190179197Y-62569600D01*
X190179197Y-62569600D02*
X190131578Y-62521980D01*
X190131578Y-62521980D02*
X190083959Y-62426742D01*
X190083959Y-62426742D02*
X190083959Y-62141028D01*
X190083959Y-62141028D02*
X190131578Y-62045790D01*
X190131578Y-62045790D02*
X190179197Y-61998171D01*
X190179197Y-61998171D02*
X190274435Y-61950552D01*
X190274435Y-61950552D02*
X190464911Y-61950552D01*
X190464911Y-61950552D02*
X190560149Y-61998171D01*
X190988721Y-62617219D02*
X190988721Y-61617219D01*
X191417292Y-62617219D02*
X191417292Y-62093409D01*
X191417292Y-62093409D02*
X191369673Y-61998171D01*
X191369673Y-61998171D02*
X191274435Y-61950552D01*
X191274435Y-61950552D02*
X191131578Y-61950552D01*
X191131578Y-61950552D02*
X191036340Y-61998171D01*
X191036340Y-61998171D02*
X190988721Y-62045790D01*
D10*
X131902568Y-88483666D02*
X132664473Y-88483666D01*
X162652568Y-57733666D02*
X163414473Y-57733666D01*
X163033520Y-58114619D02*
X163033520Y-57352714D01*
X128402568Y-88733666D02*
X129164473Y-88733666D01*
X128783520Y-89114619D02*
X128783520Y-88352714D01*
D11*
X138322054Y-53569600D02*
X138464911Y-53617219D01*
X138464911Y-53617219D02*
X138703006Y-53617219D01*
X138703006Y-53617219D02*
X138798244Y-53569600D01*
X138798244Y-53569600D02*
X138845863Y-53521980D01*
X138845863Y-53521980D02*
X138893482Y-53426742D01*
X138893482Y-53426742D02*
X138893482Y-53331504D01*
X138893482Y-53331504D02*
X138845863Y-53236266D01*
X138845863Y-53236266D02*
X138798244Y-53188647D01*
X138798244Y-53188647D02*
X138703006Y-53141028D01*
X138703006Y-53141028D02*
X138512530Y-53093409D01*
X138512530Y-53093409D02*
X138417292Y-53045790D01*
X138417292Y-53045790D02*
X138369673Y-52998171D01*
X138369673Y-52998171D02*
X138322054Y-52902933D01*
X138322054Y-52902933D02*
X138322054Y-52807695D01*
X138322054Y-52807695D02*
X138369673Y-52712457D01*
X138369673Y-52712457D02*
X138417292Y-52664838D01*
X138417292Y-52664838D02*
X138512530Y-52617219D01*
X138512530Y-52617219D02*
X138750625Y-52617219D01*
X138750625Y-52617219D02*
X138893482Y-52664838D01*
X139226816Y-52617219D02*
X139464911Y-53617219D01*
X139464911Y-53617219D02*
X139655387Y-52902933D01*
X139655387Y-52902933D02*
X139845863Y-53617219D01*
X139845863Y-53617219D02*
X140083959Y-52617219D01*
X140464911Y-53617219D02*
X140464911Y-52617219D01*
X140798244Y-52617219D02*
X141369672Y-52617219D01*
X141083958Y-53617219D02*
X141083958Y-52617219D01*
X142274434Y-53521980D02*
X142226815Y-53569600D01*
X142226815Y-53569600D02*
X142083958Y-53617219D01*
X142083958Y-53617219D02*
X141988720Y-53617219D01*
X141988720Y-53617219D02*
X141845863Y-53569600D01*
X141845863Y-53569600D02*
X141750625Y-53474361D01*
X141750625Y-53474361D02*
X141703006Y-53379123D01*
X141703006Y-53379123D02*
X141655387Y-53188647D01*
X141655387Y-53188647D02*
X141655387Y-53045790D01*
X141655387Y-53045790D02*
X141703006Y-52855314D01*
X141703006Y-52855314D02*
X141750625Y-52760076D01*
X141750625Y-52760076D02*
X141845863Y-52664838D01*
X141845863Y-52664838D02*
X141988720Y-52617219D01*
X141988720Y-52617219D02*
X142083958Y-52617219D01*
X142083958Y-52617219D02*
X142226815Y-52664838D01*
X142226815Y-52664838D02*
X142274434Y-52712457D01*
X142703006Y-53617219D02*
X142703006Y-52617219D01*
X142703006Y-53093409D02*
X143274434Y-53093409D01*
X143274434Y-53617219D02*
X143274434Y-52617219D01*
X144464911Y-52712457D02*
X144512530Y-52664838D01*
X144512530Y-52664838D02*
X144607768Y-52617219D01*
X144607768Y-52617219D02*
X144845863Y-52617219D01*
X144845863Y-52617219D02*
X144941101Y-52664838D01*
X144941101Y-52664838D02*
X144988720Y-52712457D01*
X144988720Y-52712457D02*
X145036339Y-52807695D01*
X145036339Y-52807695D02*
X145036339Y-52902933D01*
X145036339Y-52902933D02*
X144988720Y-53045790D01*
X144988720Y-53045790D02*
X144417292Y-53617219D01*
X144417292Y-53617219D02*
X145036339Y-53617219D01*
X125322054Y-53569600D02*
X125464911Y-53617219D01*
X125464911Y-53617219D02*
X125703006Y-53617219D01*
X125703006Y-53617219D02*
X125798244Y-53569600D01*
X125798244Y-53569600D02*
X125845863Y-53521980D01*
X125845863Y-53521980D02*
X125893482Y-53426742D01*
X125893482Y-53426742D02*
X125893482Y-53331504D01*
X125893482Y-53331504D02*
X125845863Y-53236266D01*
X125845863Y-53236266D02*
X125798244Y-53188647D01*
X125798244Y-53188647D02*
X125703006Y-53141028D01*
X125703006Y-53141028D02*
X125512530Y-53093409D01*
X125512530Y-53093409D02*
X125417292Y-53045790D01*
X125417292Y-53045790D02*
X125369673Y-52998171D01*
X125369673Y-52998171D02*
X125322054Y-52902933D01*
X125322054Y-52902933D02*
X125322054Y-52807695D01*
X125322054Y-52807695D02*
X125369673Y-52712457D01*
X125369673Y-52712457D02*
X125417292Y-52664838D01*
X125417292Y-52664838D02*
X125512530Y-52617219D01*
X125512530Y-52617219D02*
X125750625Y-52617219D01*
X125750625Y-52617219D02*
X125893482Y-52664838D01*
X126226816Y-52617219D02*
X126464911Y-53617219D01*
X126464911Y-53617219D02*
X126655387Y-52902933D01*
X126655387Y-52902933D02*
X126845863Y-53617219D01*
X126845863Y-53617219D02*
X127083959Y-52617219D01*
X127464911Y-53617219D02*
X127464911Y-52617219D01*
X127798244Y-52617219D02*
X128369672Y-52617219D01*
X128083958Y-53617219D02*
X128083958Y-52617219D01*
X129274434Y-53521980D02*
X129226815Y-53569600D01*
X129226815Y-53569600D02*
X129083958Y-53617219D01*
X129083958Y-53617219D02*
X128988720Y-53617219D01*
X128988720Y-53617219D02*
X128845863Y-53569600D01*
X128845863Y-53569600D02*
X128750625Y-53474361D01*
X128750625Y-53474361D02*
X128703006Y-53379123D01*
X128703006Y-53379123D02*
X128655387Y-53188647D01*
X128655387Y-53188647D02*
X128655387Y-53045790D01*
X128655387Y-53045790D02*
X128703006Y-52855314D01*
X128703006Y-52855314D02*
X128750625Y-52760076D01*
X128750625Y-52760076D02*
X128845863Y-52664838D01*
X128845863Y-52664838D02*
X128988720Y-52617219D01*
X128988720Y-52617219D02*
X129083958Y-52617219D01*
X129083958Y-52617219D02*
X129226815Y-52664838D01*
X129226815Y-52664838D02*
X129274434Y-52712457D01*
X129703006Y-53617219D02*
X129703006Y-52617219D01*
X129703006Y-53093409D02*
X130274434Y-53093409D01*
X130274434Y-53617219D02*
X130274434Y-52617219D01*
X132036339Y-53617219D02*
X131464911Y-53617219D01*
X131750625Y-53617219D02*
X131750625Y-52617219D01*
X131750625Y-52617219D02*
X131655387Y-52760076D01*
X131655387Y-52760076D02*
X131560149Y-52855314D01*
X131560149Y-52855314D02*
X131464911Y-52902933D01*
X151572054Y-53319600D02*
X151714911Y-53367219D01*
X151714911Y-53367219D02*
X151953006Y-53367219D01*
X151953006Y-53367219D02*
X152048244Y-53319600D01*
X152048244Y-53319600D02*
X152095863Y-53271980D01*
X152095863Y-53271980D02*
X152143482Y-53176742D01*
X152143482Y-53176742D02*
X152143482Y-53081504D01*
X152143482Y-53081504D02*
X152095863Y-52986266D01*
X152095863Y-52986266D02*
X152048244Y-52938647D01*
X152048244Y-52938647D02*
X151953006Y-52891028D01*
X151953006Y-52891028D02*
X151762530Y-52843409D01*
X151762530Y-52843409D02*
X151667292Y-52795790D01*
X151667292Y-52795790D02*
X151619673Y-52748171D01*
X151619673Y-52748171D02*
X151572054Y-52652933D01*
X151572054Y-52652933D02*
X151572054Y-52557695D01*
X151572054Y-52557695D02*
X151619673Y-52462457D01*
X151619673Y-52462457D02*
X151667292Y-52414838D01*
X151667292Y-52414838D02*
X151762530Y-52367219D01*
X151762530Y-52367219D02*
X152000625Y-52367219D01*
X152000625Y-52367219D02*
X152143482Y-52414838D01*
X152476816Y-52367219D02*
X152714911Y-53367219D01*
X152714911Y-53367219D02*
X152905387Y-52652933D01*
X152905387Y-52652933D02*
X153095863Y-53367219D01*
X153095863Y-53367219D02*
X153333959Y-52367219D01*
X153714911Y-53367219D02*
X153714911Y-52367219D01*
X154048244Y-52367219D02*
X154619672Y-52367219D01*
X154333958Y-53367219D02*
X154333958Y-52367219D01*
X155524434Y-53271980D02*
X155476815Y-53319600D01*
X155476815Y-53319600D02*
X155333958Y-53367219D01*
X155333958Y-53367219D02*
X155238720Y-53367219D01*
X155238720Y-53367219D02*
X155095863Y-53319600D01*
X155095863Y-53319600D02*
X155000625Y-53224361D01*
X155000625Y-53224361D02*
X154953006Y-53129123D01*
X154953006Y-53129123D02*
X154905387Y-52938647D01*
X154905387Y-52938647D02*
X154905387Y-52795790D01*
X154905387Y-52795790D02*
X154953006Y-52605314D01*
X154953006Y-52605314D02*
X155000625Y-52510076D01*
X155000625Y-52510076D02*
X155095863Y-52414838D01*
X155095863Y-52414838D02*
X155238720Y-52367219D01*
X155238720Y-52367219D02*
X155333958Y-52367219D01*
X155333958Y-52367219D02*
X155476815Y-52414838D01*
X155476815Y-52414838D02*
X155524434Y-52462457D01*
X155953006Y-53367219D02*
X155953006Y-52367219D01*
X155953006Y-52843409D02*
X156524434Y-52843409D01*
X156524434Y-53367219D02*
X156524434Y-52367219D01*
X157667292Y-52367219D02*
X158286339Y-52367219D01*
X158286339Y-52367219D02*
X157953006Y-52748171D01*
X157953006Y-52748171D02*
X158095863Y-52748171D01*
X158095863Y-52748171D02*
X158191101Y-52795790D01*
X158191101Y-52795790D02*
X158238720Y-52843409D01*
X158238720Y-52843409D02*
X158286339Y-52938647D01*
X158286339Y-52938647D02*
X158286339Y-53176742D01*
X158286339Y-53176742D02*
X158238720Y-53271980D01*
X158238720Y-53271980D02*
X158191101Y-53319600D01*
X158191101Y-53319600D02*
X158095863Y-53367219D01*
X158095863Y-53367219D02*
X157810149Y-53367219D01*
X157810149Y-53367219D02*
X157714911Y-53319600D01*
X157714911Y-53319600D02*
X157667292Y-53271980D01*
D10*
X191402568Y-88483666D02*
X192164473Y-88483666D01*
X191783520Y-88864619D02*
X191783520Y-88102714D01*
X123402568Y-57983666D02*
X124164473Y-57983666D01*
X123783520Y-58364619D02*
X123783520Y-57602714D01*
X171902568Y-57983666D02*
X172664473Y-57983666D01*
X154652568Y-88983666D02*
X155414473Y-88983666D01*
X155033520Y-89364619D02*
X155033520Y-88602714D01*
X147902568Y-77233666D02*
X148664473Y-77233666D01*
X148283520Y-77614619D02*
X148283520Y-76852714D01*
X178652568Y-88983666D02*
X179414473Y-88983666D01*
X179033520Y-89364619D02*
X179033520Y-88602714D01*
X149152568Y-57483666D02*
X149914473Y-57483666D01*
X149533520Y-57864619D02*
X149533520Y-57102714D01*
X145152568Y-88733666D02*
X145914473Y-88733666D01*
X170152568Y-88733666D02*
X170914473Y-88733666D01*
X185402568Y-58233666D02*
X186164473Y-58233666D01*
D11*
X164822054Y-53319600D02*
X164964911Y-53367219D01*
X164964911Y-53367219D02*
X165203006Y-53367219D01*
X165203006Y-53367219D02*
X165298244Y-53319600D01*
X165298244Y-53319600D02*
X165345863Y-53271980D01*
X165345863Y-53271980D02*
X165393482Y-53176742D01*
X165393482Y-53176742D02*
X165393482Y-53081504D01*
X165393482Y-53081504D02*
X165345863Y-52986266D01*
X165345863Y-52986266D02*
X165298244Y-52938647D01*
X165298244Y-52938647D02*
X165203006Y-52891028D01*
X165203006Y-52891028D02*
X165012530Y-52843409D01*
X165012530Y-52843409D02*
X164917292Y-52795790D01*
X164917292Y-52795790D02*
X164869673Y-52748171D01*
X164869673Y-52748171D02*
X164822054Y-52652933D01*
X164822054Y-52652933D02*
X164822054Y-52557695D01*
X164822054Y-52557695D02*
X164869673Y-52462457D01*
X164869673Y-52462457D02*
X164917292Y-52414838D01*
X164917292Y-52414838D02*
X165012530Y-52367219D01*
X165012530Y-52367219D02*
X165250625Y-52367219D01*
X165250625Y-52367219D02*
X165393482Y-52414838D01*
X165726816Y-52367219D02*
X165964911Y-53367219D01*
X165964911Y-53367219D02*
X166155387Y-52652933D01*
X166155387Y-52652933D02*
X166345863Y-53367219D01*
X166345863Y-53367219D02*
X166583959Y-52367219D01*
X166964911Y-53367219D02*
X166964911Y-52367219D01*
X167298244Y-52367219D02*
X167869672Y-52367219D01*
X167583958Y-53367219D02*
X167583958Y-52367219D01*
X168774434Y-53271980D02*
X168726815Y-53319600D01*
X168726815Y-53319600D02*
X168583958Y-53367219D01*
X168583958Y-53367219D02*
X168488720Y-53367219D01*
X168488720Y-53367219D02*
X168345863Y-53319600D01*
X168345863Y-53319600D02*
X168250625Y-53224361D01*
X168250625Y-53224361D02*
X168203006Y-53129123D01*
X168203006Y-53129123D02*
X168155387Y-52938647D01*
X168155387Y-52938647D02*
X168155387Y-52795790D01*
X168155387Y-52795790D02*
X168203006Y-52605314D01*
X168203006Y-52605314D02*
X168250625Y-52510076D01*
X168250625Y-52510076D02*
X168345863Y-52414838D01*
X168345863Y-52414838D02*
X168488720Y-52367219D01*
X168488720Y-52367219D02*
X168583958Y-52367219D01*
X168583958Y-52367219D02*
X168726815Y-52414838D01*
X168726815Y-52414838D02*
X168774434Y-52462457D01*
X169203006Y-53367219D02*
X169203006Y-52367219D01*
X169203006Y-52843409D02*
X169774434Y-52843409D01*
X169774434Y-53367219D02*
X169774434Y-52367219D01*
X171441101Y-52700552D02*
X171441101Y-53367219D01*
X171203006Y-52319600D02*
X170964911Y-53033885D01*
X170964911Y-53033885D02*
X171583958Y-53033885D01*
D10*
X141402568Y-88733666D02*
X142164473Y-88733666D01*
X141783520Y-89114619D02*
X141783520Y-88352714D01*
X182402568Y-88983666D02*
X183164473Y-88983666D01*
X176152568Y-57983666D02*
X176914473Y-57983666D01*
X176533520Y-58364619D02*
X176533520Y-57602714D01*
X135902568Y-57733666D02*
X136664473Y-57733666D01*
X136283520Y-58114619D02*
X136283520Y-57352714D01*
D13*
X149334819Y-56534523D02*
X150049104Y-56534523D01*
X150049104Y-56534523D02*
X150191961Y-56582142D01*
X150191961Y-56582142D02*
X150287200Y-56677380D01*
X150287200Y-56677380D02*
X150334819Y-56820237D01*
X150334819Y-56820237D02*
X150334819Y-56915475D01*
X150334819Y-55534523D02*
X150334819Y-56105951D01*
X150334819Y-55820237D02*
X149334819Y-55820237D01*
X149334819Y-55820237D02*
X149477676Y-55915475D01*
X149477676Y-55915475D02*
X149572914Y-56010713D01*
X149572914Y-56010713D02*
X149620533Y-56105951D01*
X150334819Y-54582142D02*
X150334819Y-55153570D01*
X150334819Y-54867856D02*
X149334819Y-54867856D01*
X149334819Y-54867856D02*
X149477676Y-54963094D01*
X149477676Y-54963094D02*
X149572914Y-55058332D01*
X149572914Y-55058332D02*
X149620533Y-55153570D01*
X167637319Y-69541666D02*
X167161128Y-69874999D01*
X167637319Y-70113094D02*
X166637319Y-70113094D01*
X166637319Y-70113094D02*
X166637319Y-69732142D01*
X166637319Y-69732142D02*
X166684938Y-69636904D01*
X166684938Y-69636904D02*
X166732557Y-69589285D01*
X166732557Y-69589285D02*
X166827795Y-69541666D01*
X166827795Y-69541666D02*
X166970652Y-69541666D01*
X166970652Y-69541666D02*
X167065890Y-69589285D01*
X167065890Y-69589285D02*
X167113509Y-69636904D01*
X167113509Y-69636904D02*
X167161128Y-69732142D01*
X167161128Y-69732142D02*
X167161128Y-70113094D01*
X167065890Y-68970237D02*
X167018271Y-69065475D01*
X167018271Y-69065475D02*
X166970652Y-69113094D01*
X166970652Y-69113094D02*
X166875414Y-69160713D01*
X166875414Y-69160713D02*
X166827795Y-69160713D01*
X166827795Y-69160713D02*
X166732557Y-69113094D01*
X166732557Y-69113094D02*
X166684938Y-69065475D01*
X166684938Y-69065475D02*
X166637319Y-68970237D01*
X166637319Y-68970237D02*
X166637319Y-68779761D01*
X166637319Y-68779761D02*
X166684938Y-68684523D01*
X166684938Y-68684523D02*
X166732557Y-68636904D01*
X166732557Y-68636904D02*
X166827795Y-68589285D01*
X166827795Y-68589285D02*
X166875414Y-68589285D01*
X166875414Y-68589285D02*
X166970652Y-68636904D01*
X166970652Y-68636904D02*
X167018271Y-68684523D01*
X167018271Y-68684523D02*
X167065890Y-68779761D01*
X167065890Y-68779761D02*
X167065890Y-68970237D01*
X167065890Y-68970237D02*
X167113509Y-69065475D01*
X167113509Y-69065475D02*
X167161128Y-69113094D01*
X167161128Y-69113094D02*
X167256366Y-69160713D01*
X167256366Y-69160713D02*
X167446842Y-69160713D01*
X167446842Y-69160713D02*
X167542080Y-69113094D01*
X167542080Y-69113094D02*
X167589700Y-69065475D01*
X167589700Y-69065475D02*
X167637319Y-68970237D01*
X167637319Y-68970237D02*
X167637319Y-68779761D01*
X167637319Y-68779761D02*
X167589700Y-68684523D01*
X167589700Y-68684523D02*
X167542080Y-68636904D01*
X167542080Y-68636904D02*
X167446842Y-68589285D01*
X167446842Y-68589285D02*
X167256366Y-68589285D01*
X167256366Y-68589285D02*
X167161128Y-68636904D01*
X167161128Y-68636904D02*
X167113509Y-68684523D01*
X167113509Y-68684523D02*
X167065890Y-68779761D01*
X100859580Y-89346666D02*
X100907200Y-89394285D01*
X100907200Y-89394285D02*
X100954819Y-89537142D01*
X100954819Y-89537142D02*
X100954819Y-89632380D01*
X100954819Y-89632380D02*
X100907200Y-89775237D01*
X100907200Y-89775237D02*
X100811961Y-89870475D01*
X100811961Y-89870475D02*
X100716723Y-89918094D01*
X100716723Y-89918094D02*
X100526247Y-89965713D01*
X100526247Y-89965713D02*
X100383390Y-89965713D01*
X100383390Y-89965713D02*
X100192914Y-89918094D01*
X100192914Y-89918094D02*
X100097676Y-89870475D01*
X100097676Y-89870475D02*
X100002438Y-89775237D01*
X100002438Y-89775237D02*
X99954819Y-89632380D01*
X99954819Y-89632380D02*
X99954819Y-89537142D01*
X99954819Y-89537142D02*
X100002438Y-89394285D01*
X100002438Y-89394285D02*
X100050057Y-89346666D01*
X100954819Y-88394285D02*
X100954819Y-88965713D01*
X100954819Y-88679999D02*
X99954819Y-88679999D01*
X99954819Y-88679999D02*
X100097676Y-88775237D01*
X100097676Y-88775237D02*
X100192914Y-88870475D01*
X100192914Y-88870475D02*
X100240533Y-88965713D01*
X161685521Y-92269170D02*
X162399806Y-92269170D01*
X162399806Y-92269170D02*
X162542663Y-92316789D01*
X162542663Y-92316789D02*
X162637902Y-92412027D01*
X162637902Y-92412027D02*
X162685521Y-92554884D01*
X162685521Y-92554884D02*
X162685521Y-92650122D01*
X161685521Y-91888217D02*
X161685521Y-91221551D01*
X161685521Y-91221551D02*
X162685521Y-91650122D01*
D11*
X165345237Y-94428409D02*
X165011904Y-94428409D01*
X165011904Y-94952219D02*
X165011904Y-93952219D01*
X165011904Y-93952219D02*
X165488094Y-93952219D01*
X166011904Y-94952219D02*
X165916666Y-94904600D01*
X165916666Y-94904600D02*
X165869047Y-94856980D01*
X165869047Y-94856980D02*
X165821428Y-94761742D01*
X165821428Y-94761742D02*
X165821428Y-94476028D01*
X165821428Y-94476028D02*
X165869047Y-94380790D01*
X165869047Y-94380790D02*
X165916666Y-94333171D01*
X165916666Y-94333171D02*
X166011904Y-94285552D01*
X166011904Y-94285552D02*
X166154761Y-94285552D01*
X166154761Y-94285552D02*
X166249999Y-94333171D01*
X166249999Y-94333171D02*
X166297618Y-94380790D01*
X166297618Y-94380790D02*
X166345237Y-94476028D01*
X166345237Y-94476028D02*
X166345237Y-94761742D01*
X166345237Y-94761742D02*
X166297618Y-94856980D01*
X166297618Y-94856980D02*
X166249999Y-94904600D01*
X166249999Y-94904600D02*
X166154761Y-94952219D01*
X166154761Y-94952219D02*
X166011904Y-94952219D01*
X166916666Y-94952219D02*
X166821428Y-94904600D01*
X166821428Y-94904600D02*
X166773809Y-94856980D01*
X166773809Y-94856980D02*
X166726190Y-94761742D01*
X166726190Y-94761742D02*
X166726190Y-94476028D01*
X166726190Y-94476028D02*
X166773809Y-94380790D01*
X166773809Y-94380790D02*
X166821428Y-94333171D01*
X166821428Y-94333171D02*
X166916666Y-94285552D01*
X166916666Y-94285552D02*
X167059523Y-94285552D01*
X167059523Y-94285552D02*
X167154761Y-94333171D01*
X167154761Y-94333171D02*
X167202380Y-94380790D01*
X167202380Y-94380790D02*
X167249999Y-94476028D01*
X167249999Y-94476028D02*
X167249999Y-94761742D01*
X167249999Y-94761742D02*
X167202380Y-94856980D01*
X167202380Y-94856980D02*
X167154761Y-94904600D01*
X167154761Y-94904600D02*
X167059523Y-94952219D01*
X167059523Y-94952219D02*
X166916666Y-94952219D01*
X167535714Y-94285552D02*
X167916666Y-94285552D01*
X167678571Y-93952219D02*
X167678571Y-94809361D01*
X167678571Y-94809361D02*
X167726190Y-94904600D01*
X167726190Y-94904600D02*
X167821428Y-94952219D01*
X167821428Y-94952219D02*
X167916666Y-94952219D01*
X168916667Y-93952219D02*
X169535714Y-93952219D01*
X169535714Y-93952219D02*
X169202381Y-94333171D01*
X169202381Y-94333171D02*
X169345238Y-94333171D01*
X169345238Y-94333171D02*
X169440476Y-94380790D01*
X169440476Y-94380790D02*
X169488095Y-94428409D01*
X169488095Y-94428409D02*
X169535714Y-94523647D01*
X169535714Y-94523647D02*
X169535714Y-94761742D01*
X169535714Y-94761742D02*
X169488095Y-94856980D01*
X169488095Y-94856980D02*
X169440476Y-94904600D01*
X169440476Y-94904600D02*
X169345238Y-94952219D01*
X169345238Y-94952219D02*
X169059524Y-94952219D01*
X169059524Y-94952219D02*
X168964286Y-94904600D01*
X168964286Y-94904600D02*
X168916667Y-94856980D01*
D13*
X136685521Y-92019170D02*
X137399806Y-92019170D01*
X137399806Y-92019170D02*
X137542663Y-92066789D01*
X137542663Y-92066789D02*
X137637902Y-92162027D01*
X137637902Y-92162027D02*
X137685521Y-92304884D01*
X137685521Y-92304884D02*
X137685521Y-92400122D01*
X136780759Y-91590598D02*
X136733140Y-91542979D01*
X136733140Y-91542979D02*
X136685521Y-91447741D01*
X136685521Y-91447741D02*
X136685521Y-91209646D01*
X136685521Y-91209646D02*
X136733140Y-91114408D01*
X136733140Y-91114408D02*
X136780759Y-91066789D01*
X136780759Y-91066789D02*
X136875997Y-91019170D01*
X136875997Y-91019170D02*
X136971235Y-91019170D01*
X136971235Y-91019170D02*
X137114092Y-91066789D01*
X137114092Y-91066789D02*
X137685521Y-91638217D01*
X137685521Y-91638217D02*
X137685521Y-91019170D01*
D11*
X140106199Y-94614545D02*
X139772866Y-94614545D01*
X139772866Y-95138355D02*
X139772866Y-94138355D01*
X139772866Y-94138355D02*
X140249056Y-94138355D01*
X140772866Y-95138355D02*
X140677628Y-95090736D01*
X140677628Y-95090736D02*
X140630009Y-95043116D01*
X140630009Y-95043116D02*
X140582390Y-94947878D01*
X140582390Y-94947878D02*
X140582390Y-94662164D01*
X140582390Y-94662164D02*
X140630009Y-94566926D01*
X140630009Y-94566926D02*
X140677628Y-94519307D01*
X140677628Y-94519307D02*
X140772866Y-94471688D01*
X140772866Y-94471688D02*
X140915723Y-94471688D01*
X140915723Y-94471688D02*
X141010961Y-94519307D01*
X141010961Y-94519307D02*
X141058580Y-94566926D01*
X141058580Y-94566926D02*
X141106199Y-94662164D01*
X141106199Y-94662164D02*
X141106199Y-94947878D01*
X141106199Y-94947878D02*
X141058580Y-95043116D01*
X141058580Y-95043116D02*
X141010961Y-95090736D01*
X141010961Y-95090736D02*
X140915723Y-95138355D01*
X140915723Y-95138355D02*
X140772866Y-95138355D01*
X141677628Y-95138355D02*
X141582390Y-95090736D01*
X141582390Y-95090736D02*
X141534771Y-95043116D01*
X141534771Y-95043116D02*
X141487152Y-94947878D01*
X141487152Y-94947878D02*
X141487152Y-94662164D01*
X141487152Y-94662164D02*
X141534771Y-94566926D01*
X141534771Y-94566926D02*
X141582390Y-94519307D01*
X141582390Y-94519307D02*
X141677628Y-94471688D01*
X141677628Y-94471688D02*
X141820485Y-94471688D01*
X141820485Y-94471688D02*
X141915723Y-94519307D01*
X141915723Y-94519307D02*
X141963342Y-94566926D01*
X141963342Y-94566926D02*
X142010961Y-94662164D01*
X142010961Y-94662164D02*
X142010961Y-94947878D01*
X142010961Y-94947878D02*
X141963342Y-95043116D01*
X141963342Y-95043116D02*
X141915723Y-95090736D01*
X141915723Y-95090736D02*
X141820485Y-95138355D01*
X141820485Y-95138355D02*
X141677628Y-95138355D01*
X142296676Y-94471688D02*
X142677628Y-94471688D01*
X142439533Y-94138355D02*
X142439533Y-94995497D01*
X142439533Y-94995497D02*
X142487152Y-95090736D01*
X142487152Y-95090736D02*
X142582390Y-95138355D01*
X142582390Y-95138355D02*
X142677628Y-95138355D01*
X144296676Y-95138355D02*
X143725248Y-95138355D01*
X144010962Y-95138355D02*
X144010962Y-94138355D01*
X144010962Y-94138355D02*
X143915724Y-94281212D01*
X143915724Y-94281212D02*
X143820486Y-94376450D01*
X143820486Y-94376450D02*
X143725248Y-94424069D01*
D13*
X136204819Y-56559523D02*
X136919104Y-56559523D01*
X136919104Y-56559523D02*
X137061961Y-56607142D01*
X137061961Y-56607142D02*
X137157200Y-56702380D01*
X137157200Y-56702380D02*
X137204819Y-56845237D01*
X137204819Y-56845237D02*
X137204819Y-56940475D01*
X137204819Y-55559523D02*
X137204819Y-56130951D01*
X137204819Y-55845237D02*
X136204819Y-55845237D01*
X136204819Y-55845237D02*
X136347676Y-55940475D01*
X136347676Y-55940475D02*
X136442914Y-56035713D01*
X136442914Y-56035713D02*
X136490533Y-56130951D01*
X136204819Y-54940475D02*
X136204819Y-54845237D01*
X136204819Y-54845237D02*
X136252438Y-54749999D01*
X136252438Y-54749999D02*
X136300057Y-54702380D01*
X136300057Y-54702380D02*
X136395295Y-54654761D01*
X136395295Y-54654761D02*
X136585771Y-54607142D01*
X136585771Y-54607142D02*
X136823866Y-54607142D01*
X136823866Y-54607142D02*
X137014342Y-54654761D01*
X137014342Y-54654761D02*
X137109580Y-54702380D01*
X137109580Y-54702380D02*
X137157200Y-54749999D01*
X137157200Y-54749999D02*
X137204819Y-54845237D01*
X137204819Y-54845237D02*
X137204819Y-54940475D01*
X137204819Y-54940475D02*
X137157200Y-55035713D01*
X137157200Y-55035713D02*
X137109580Y-55083332D01*
X137109580Y-55083332D02*
X137014342Y-55130951D01*
X137014342Y-55130951D02*
X136823866Y-55178570D01*
X136823866Y-55178570D02*
X136585771Y-55178570D01*
X136585771Y-55178570D02*
X136395295Y-55130951D01*
X136395295Y-55130951D02*
X136300057Y-55083332D01*
X136300057Y-55083332D02*
X136252438Y-55035713D01*
X136252438Y-55035713D02*
X136204819Y-54940475D01*
X155857142Y-58859580D02*
X155809523Y-58907200D01*
X155809523Y-58907200D02*
X155666666Y-58954819D01*
X155666666Y-58954819D02*
X155571428Y-58954819D01*
X155571428Y-58954819D02*
X155428571Y-58907200D01*
X155428571Y-58907200D02*
X155333333Y-58811961D01*
X155333333Y-58811961D02*
X155285714Y-58716723D01*
X155285714Y-58716723D02*
X155238095Y-58526247D01*
X155238095Y-58526247D02*
X155238095Y-58383390D01*
X155238095Y-58383390D02*
X155285714Y-58192914D01*
X155285714Y-58192914D02*
X155333333Y-58097676D01*
X155333333Y-58097676D02*
X155428571Y-58002438D01*
X155428571Y-58002438D02*
X155571428Y-57954819D01*
X155571428Y-57954819D02*
X155666666Y-57954819D01*
X155666666Y-57954819D02*
X155809523Y-58002438D01*
X155809523Y-58002438D02*
X155857142Y-58050057D01*
X156809523Y-58954819D02*
X156238095Y-58954819D01*
X156523809Y-58954819D02*
X156523809Y-57954819D01*
X156523809Y-57954819D02*
X156428571Y-58097676D01*
X156428571Y-58097676D02*
X156333333Y-58192914D01*
X156333333Y-58192914D02*
X156238095Y-58240533D01*
X157142857Y-57954819D02*
X157809523Y-57954819D01*
X157809523Y-57954819D02*
X157380952Y-58954819D01*
X185166666Y-66954819D02*
X185166666Y-67669104D01*
X185166666Y-67669104D02*
X185119047Y-67811961D01*
X185119047Y-67811961D02*
X185023809Y-67907200D01*
X185023809Y-67907200D02*
X184880952Y-67954819D01*
X184880952Y-67954819D02*
X184785714Y-67954819D01*
X186119047Y-66954819D02*
X185642857Y-66954819D01*
X185642857Y-66954819D02*
X185595238Y-67431009D01*
X185595238Y-67431009D02*
X185642857Y-67383390D01*
X185642857Y-67383390D02*
X185738095Y-67335771D01*
X185738095Y-67335771D02*
X185976190Y-67335771D01*
X185976190Y-67335771D02*
X186071428Y-67383390D01*
X186071428Y-67383390D02*
X186119047Y-67431009D01*
X186119047Y-67431009D02*
X186166666Y-67526247D01*
X186166666Y-67526247D02*
X186166666Y-67764342D01*
X186166666Y-67764342D02*
X186119047Y-67859580D01*
X186119047Y-67859580D02*
X186071428Y-67907200D01*
X186071428Y-67907200D02*
X185976190Y-67954819D01*
X185976190Y-67954819D02*
X185738095Y-67954819D01*
X185738095Y-67954819D02*
X185642857Y-67907200D01*
X185642857Y-67907200D02*
X185595238Y-67859580D01*
X157454819Y-64371666D02*
X156978628Y-64704999D01*
X157454819Y-64943094D02*
X156454819Y-64943094D01*
X156454819Y-64943094D02*
X156454819Y-64562142D01*
X156454819Y-64562142D02*
X156502438Y-64466904D01*
X156502438Y-64466904D02*
X156550057Y-64419285D01*
X156550057Y-64419285D02*
X156645295Y-64371666D01*
X156645295Y-64371666D02*
X156788152Y-64371666D01*
X156788152Y-64371666D02*
X156883390Y-64419285D01*
X156883390Y-64419285D02*
X156931009Y-64466904D01*
X156931009Y-64466904D02*
X156978628Y-64562142D01*
X156978628Y-64562142D02*
X156978628Y-64943094D01*
X156454819Y-64038332D02*
X156454819Y-63419285D01*
X156454819Y-63419285D02*
X156835771Y-63752618D01*
X156835771Y-63752618D02*
X156835771Y-63609761D01*
X156835771Y-63609761D02*
X156883390Y-63514523D01*
X156883390Y-63514523D02*
X156931009Y-63466904D01*
X156931009Y-63466904D02*
X157026247Y-63419285D01*
X157026247Y-63419285D02*
X157264342Y-63419285D01*
X157264342Y-63419285D02*
X157359580Y-63466904D01*
X157359580Y-63466904D02*
X157407200Y-63514523D01*
X157407200Y-63514523D02*
X157454819Y-63609761D01*
X157454819Y-63609761D02*
X157454819Y-63895475D01*
X157454819Y-63895475D02*
X157407200Y-63990713D01*
X157407200Y-63990713D02*
X157359580Y-64038332D01*
X191993789Y-65547918D02*
X191993789Y-66262203D01*
X191993789Y-66262203D02*
X191946170Y-66405060D01*
X191946170Y-66405060D02*
X191850932Y-66500299D01*
X191850932Y-66500299D02*
X191708075Y-66547918D01*
X191708075Y-66547918D02*
X191612837Y-66547918D01*
X192898551Y-65881251D02*
X192898551Y-66547918D01*
X192660456Y-65500299D02*
X192422361Y-66214584D01*
X192422361Y-66214584D02*
X193041408Y-66214584D01*
D11*
X190565693Y-52928409D02*
X190708550Y-52976028D01*
X190708550Y-52976028D02*
X190756169Y-53023647D01*
X190756169Y-53023647D02*
X190803788Y-53118885D01*
X190803788Y-53118885D02*
X190803788Y-53261742D01*
X190803788Y-53261742D02*
X190756169Y-53356980D01*
X190756169Y-53356980D02*
X190708550Y-53404600D01*
X190708550Y-53404600D02*
X190613312Y-53452219D01*
X190613312Y-53452219D02*
X190232360Y-53452219D01*
X190232360Y-53452219D02*
X190232360Y-52452219D01*
X190232360Y-52452219D02*
X190565693Y-52452219D01*
X190565693Y-52452219D02*
X190660931Y-52499838D01*
X190660931Y-52499838D02*
X190708550Y-52547457D01*
X190708550Y-52547457D02*
X190756169Y-52642695D01*
X190756169Y-52642695D02*
X190756169Y-52737933D01*
X190756169Y-52737933D02*
X190708550Y-52833171D01*
X190708550Y-52833171D02*
X190660931Y-52880790D01*
X190660931Y-52880790D02*
X190565693Y-52928409D01*
X190565693Y-52928409D02*
X190232360Y-52928409D01*
X191660931Y-53452219D02*
X191660931Y-52928409D01*
X191660931Y-52928409D02*
X191613312Y-52833171D01*
X191613312Y-52833171D02*
X191518074Y-52785552D01*
X191518074Y-52785552D02*
X191327598Y-52785552D01*
X191327598Y-52785552D02*
X191232360Y-52833171D01*
X191660931Y-53404600D02*
X191565693Y-53452219D01*
X191565693Y-53452219D02*
X191327598Y-53452219D01*
X191327598Y-53452219D02*
X191232360Y-53404600D01*
X191232360Y-53404600D02*
X191184741Y-53309361D01*
X191184741Y-53309361D02*
X191184741Y-53214123D01*
X191184741Y-53214123D02*
X191232360Y-53118885D01*
X191232360Y-53118885D02*
X191327598Y-53071266D01*
X191327598Y-53071266D02*
X191565693Y-53071266D01*
X191565693Y-53071266D02*
X191660931Y-53023647D01*
X191994265Y-52785552D02*
X192375217Y-52785552D01*
X192137122Y-52452219D02*
X192137122Y-53309361D01*
X192137122Y-53309361D02*
X192184741Y-53404600D01*
X192184741Y-53404600D02*
X192279979Y-53452219D01*
X192279979Y-53452219D02*
X192375217Y-53452219D01*
X192565694Y-52785552D02*
X192946646Y-52785552D01*
X192708551Y-52452219D02*
X192708551Y-53309361D01*
X192708551Y-53309361D02*
X192756170Y-53404600D01*
X192756170Y-53404600D02*
X192851408Y-53452219D01*
X192851408Y-53452219D02*
X192946646Y-53452219D01*
X193660932Y-53404600D02*
X193565694Y-53452219D01*
X193565694Y-53452219D02*
X193375218Y-53452219D01*
X193375218Y-53452219D02*
X193279980Y-53404600D01*
X193279980Y-53404600D02*
X193232361Y-53309361D01*
X193232361Y-53309361D02*
X193232361Y-52928409D01*
X193232361Y-52928409D02*
X193279980Y-52833171D01*
X193279980Y-52833171D02*
X193375218Y-52785552D01*
X193375218Y-52785552D02*
X193565694Y-52785552D01*
X193565694Y-52785552D02*
X193660932Y-52833171D01*
X193660932Y-52833171D02*
X193708551Y-52928409D01*
X193708551Y-52928409D02*
X193708551Y-53023647D01*
X193708551Y-53023647D02*
X193232361Y-53118885D01*
X194137123Y-53452219D02*
X194137123Y-52785552D01*
X194137123Y-52976028D02*
X194184742Y-52880790D01*
X194184742Y-52880790D02*
X194232361Y-52833171D01*
X194232361Y-52833171D02*
X194327599Y-52785552D01*
X194327599Y-52785552D02*
X194422837Y-52785552D01*
X194660933Y-52785552D02*
X194899028Y-53452219D01*
X195137123Y-52785552D02*
X194899028Y-53452219D01*
X194899028Y-53452219D02*
X194803790Y-53690314D01*
X194803790Y-53690314D02*
X194756171Y-53737933D01*
X194756171Y-53737933D02*
X194660933Y-53785552D01*
D13*
X129558333Y-86365417D02*
X129510714Y-86413037D01*
X129510714Y-86413037D02*
X129367857Y-86460656D01*
X129367857Y-86460656D02*
X129272619Y-86460656D01*
X129272619Y-86460656D02*
X129129762Y-86413037D01*
X129129762Y-86413037D02*
X129034524Y-86317798D01*
X129034524Y-86317798D02*
X128986905Y-86222560D01*
X128986905Y-86222560D02*
X128939286Y-86032084D01*
X128939286Y-86032084D02*
X128939286Y-85889227D01*
X128939286Y-85889227D02*
X128986905Y-85698751D01*
X128986905Y-85698751D02*
X129034524Y-85603513D01*
X129034524Y-85603513D02*
X129129762Y-85508275D01*
X129129762Y-85508275D02*
X129272619Y-85460656D01*
X129272619Y-85460656D02*
X129367857Y-85460656D01*
X129367857Y-85460656D02*
X129510714Y-85508275D01*
X129510714Y-85508275D02*
X129558333Y-85555894D01*
X129891667Y-85460656D02*
X130510714Y-85460656D01*
X130510714Y-85460656D02*
X130177381Y-85841608D01*
X130177381Y-85841608D02*
X130320238Y-85841608D01*
X130320238Y-85841608D02*
X130415476Y-85889227D01*
X130415476Y-85889227D02*
X130463095Y-85936846D01*
X130463095Y-85936846D02*
X130510714Y-86032084D01*
X130510714Y-86032084D02*
X130510714Y-86270179D01*
X130510714Y-86270179D02*
X130463095Y-86365417D01*
X130463095Y-86365417D02*
X130415476Y-86413037D01*
X130415476Y-86413037D02*
X130320238Y-86460656D01*
X130320238Y-86460656D02*
X130034524Y-86460656D01*
X130034524Y-86460656D02*
X129939286Y-86413037D01*
X129939286Y-86413037D02*
X129891667Y-86365417D01*
X127408333Y-58999819D02*
X127075000Y-58523628D01*
X126836905Y-58999819D02*
X126836905Y-57999819D01*
X126836905Y-57999819D02*
X127217857Y-57999819D01*
X127217857Y-57999819D02*
X127313095Y-58047438D01*
X127313095Y-58047438D02*
X127360714Y-58095057D01*
X127360714Y-58095057D02*
X127408333Y-58190295D01*
X127408333Y-58190295D02*
X127408333Y-58333152D01*
X127408333Y-58333152D02*
X127360714Y-58428390D01*
X127360714Y-58428390D02*
X127313095Y-58476009D01*
X127313095Y-58476009D02*
X127217857Y-58523628D01*
X127217857Y-58523628D02*
X126836905Y-58523628D01*
X128313095Y-57999819D02*
X127836905Y-57999819D01*
X127836905Y-57999819D02*
X127789286Y-58476009D01*
X127789286Y-58476009D02*
X127836905Y-58428390D01*
X127836905Y-58428390D02*
X127932143Y-58380771D01*
X127932143Y-58380771D02*
X128170238Y-58380771D01*
X128170238Y-58380771D02*
X128265476Y-58428390D01*
X128265476Y-58428390D02*
X128313095Y-58476009D01*
X128313095Y-58476009D02*
X128360714Y-58571247D01*
X128360714Y-58571247D02*
X128360714Y-58809342D01*
X128360714Y-58809342D02*
X128313095Y-58904580D01*
X128313095Y-58904580D02*
X128265476Y-58952200D01*
X128265476Y-58952200D02*
X128170238Y-58999819D01*
X128170238Y-58999819D02*
X127932143Y-58999819D01*
X127932143Y-58999819D02*
X127836905Y-58952200D01*
X127836905Y-58952200D02*
X127789286Y-58904580D01*
X180109580Y-77891666D02*
X180157200Y-77939285D01*
X180157200Y-77939285D02*
X180204819Y-78082142D01*
X180204819Y-78082142D02*
X180204819Y-78177380D01*
X180204819Y-78177380D02*
X180157200Y-78320237D01*
X180157200Y-78320237D02*
X180061961Y-78415475D01*
X180061961Y-78415475D02*
X179966723Y-78463094D01*
X179966723Y-78463094D02*
X179776247Y-78510713D01*
X179776247Y-78510713D02*
X179633390Y-78510713D01*
X179633390Y-78510713D02*
X179442914Y-78463094D01*
X179442914Y-78463094D02*
X179347676Y-78415475D01*
X179347676Y-78415475D02*
X179252438Y-78320237D01*
X179252438Y-78320237D02*
X179204819Y-78177380D01*
X179204819Y-78177380D02*
X179204819Y-78082142D01*
X179204819Y-78082142D02*
X179252438Y-77939285D01*
X179252438Y-77939285D02*
X179300057Y-77891666D01*
X179204819Y-77034523D02*
X179204819Y-77224999D01*
X179204819Y-77224999D02*
X179252438Y-77320237D01*
X179252438Y-77320237D02*
X179300057Y-77367856D01*
X179300057Y-77367856D02*
X179442914Y-77463094D01*
X179442914Y-77463094D02*
X179633390Y-77510713D01*
X179633390Y-77510713D02*
X180014342Y-77510713D01*
X180014342Y-77510713D02*
X180109580Y-77463094D01*
X180109580Y-77463094D02*
X180157200Y-77415475D01*
X180157200Y-77415475D02*
X180204819Y-77320237D01*
X180204819Y-77320237D02*
X180204819Y-77129761D01*
X180204819Y-77129761D02*
X180157200Y-77034523D01*
X180157200Y-77034523D02*
X180109580Y-76986904D01*
X180109580Y-76986904D02*
X180014342Y-76939285D01*
X180014342Y-76939285D02*
X179776247Y-76939285D01*
X179776247Y-76939285D02*
X179681009Y-76986904D01*
X179681009Y-76986904D02*
X179633390Y-77034523D01*
X179633390Y-77034523D02*
X179585771Y-77129761D01*
X179585771Y-77129761D02*
X179585771Y-77320237D01*
X179585771Y-77320237D02*
X179633390Y-77415475D01*
X179633390Y-77415475D02*
X179681009Y-77463094D01*
X179681009Y-77463094D02*
X179776247Y-77510713D01*
X173935521Y-92269170D02*
X174649806Y-92269170D01*
X174649806Y-92269170D02*
X174792663Y-92316789D01*
X174792663Y-92316789D02*
X174887902Y-92412027D01*
X174887902Y-92412027D02*
X174935521Y-92554884D01*
X174935521Y-92554884D02*
X174935521Y-92650122D01*
X174364092Y-91650122D02*
X174316473Y-91745360D01*
X174316473Y-91745360D02*
X174268854Y-91792979D01*
X174268854Y-91792979D02*
X174173616Y-91840598D01*
X174173616Y-91840598D02*
X174125997Y-91840598D01*
X174125997Y-91840598D02*
X174030759Y-91792979D01*
X174030759Y-91792979D02*
X173983140Y-91745360D01*
X173983140Y-91745360D02*
X173935521Y-91650122D01*
X173935521Y-91650122D02*
X173935521Y-91459646D01*
X173935521Y-91459646D02*
X173983140Y-91364408D01*
X173983140Y-91364408D02*
X174030759Y-91316789D01*
X174030759Y-91316789D02*
X174125997Y-91269170D01*
X174125997Y-91269170D02*
X174173616Y-91269170D01*
X174173616Y-91269170D02*
X174268854Y-91316789D01*
X174268854Y-91316789D02*
X174316473Y-91364408D01*
X174316473Y-91364408D02*
X174364092Y-91459646D01*
X174364092Y-91459646D02*
X174364092Y-91650122D01*
X174364092Y-91650122D02*
X174411711Y-91745360D01*
X174411711Y-91745360D02*
X174459330Y-91792979D01*
X174459330Y-91792979D02*
X174554568Y-91840598D01*
X174554568Y-91840598D02*
X174745044Y-91840598D01*
X174745044Y-91840598D02*
X174840282Y-91792979D01*
X174840282Y-91792979D02*
X174887902Y-91745360D01*
X174887902Y-91745360D02*
X174935521Y-91650122D01*
X174935521Y-91650122D02*
X174935521Y-91459646D01*
X174935521Y-91459646D02*
X174887902Y-91364408D01*
X174887902Y-91364408D02*
X174840282Y-91316789D01*
X174840282Y-91316789D02*
X174745044Y-91269170D01*
X174745044Y-91269170D02*
X174554568Y-91269170D01*
X174554568Y-91269170D02*
X174459330Y-91316789D01*
X174459330Y-91316789D02*
X174411711Y-91364408D01*
X174411711Y-91364408D02*
X174364092Y-91459646D01*
D11*
X177345237Y-94428409D02*
X177011904Y-94428409D01*
X177011904Y-94952219D02*
X177011904Y-93952219D01*
X177011904Y-93952219D02*
X177488094Y-93952219D01*
X178011904Y-94952219D02*
X177916666Y-94904600D01*
X177916666Y-94904600D02*
X177869047Y-94856980D01*
X177869047Y-94856980D02*
X177821428Y-94761742D01*
X177821428Y-94761742D02*
X177821428Y-94476028D01*
X177821428Y-94476028D02*
X177869047Y-94380790D01*
X177869047Y-94380790D02*
X177916666Y-94333171D01*
X177916666Y-94333171D02*
X178011904Y-94285552D01*
X178011904Y-94285552D02*
X178154761Y-94285552D01*
X178154761Y-94285552D02*
X178249999Y-94333171D01*
X178249999Y-94333171D02*
X178297618Y-94380790D01*
X178297618Y-94380790D02*
X178345237Y-94476028D01*
X178345237Y-94476028D02*
X178345237Y-94761742D01*
X178345237Y-94761742D02*
X178297618Y-94856980D01*
X178297618Y-94856980D02*
X178249999Y-94904600D01*
X178249999Y-94904600D02*
X178154761Y-94952219D01*
X178154761Y-94952219D02*
X178011904Y-94952219D01*
X178916666Y-94952219D02*
X178821428Y-94904600D01*
X178821428Y-94904600D02*
X178773809Y-94856980D01*
X178773809Y-94856980D02*
X178726190Y-94761742D01*
X178726190Y-94761742D02*
X178726190Y-94476028D01*
X178726190Y-94476028D02*
X178773809Y-94380790D01*
X178773809Y-94380790D02*
X178821428Y-94333171D01*
X178821428Y-94333171D02*
X178916666Y-94285552D01*
X178916666Y-94285552D02*
X179059523Y-94285552D01*
X179059523Y-94285552D02*
X179154761Y-94333171D01*
X179154761Y-94333171D02*
X179202380Y-94380790D01*
X179202380Y-94380790D02*
X179249999Y-94476028D01*
X179249999Y-94476028D02*
X179249999Y-94761742D01*
X179249999Y-94761742D02*
X179202380Y-94856980D01*
X179202380Y-94856980D02*
X179154761Y-94904600D01*
X179154761Y-94904600D02*
X179059523Y-94952219D01*
X179059523Y-94952219D02*
X178916666Y-94952219D01*
X179535714Y-94285552D02*
X179916666Y-94285552D01*
X179678571Y-93952219D02*
X179678571Y-94809361D01*
X179678571Y-94809361D02*
X179726190Y-94904600D01*
X179726190Y-94904600D02*
X179821428Y-94952219D01*
X179821428Y-94952219D02*
X179916666Y-94952219D01*
X181440476Y-94285552D02*
X181440476Y-94952219D01*
X181202381Y-93904600D02*
X180964286Y-94618885D01*
X180964286Y-94618885D02*
X181583333Y-94618885D01*
D13*
X155658333Y-86839819D02*
X155325000Y-86363628D01*
X155086905Y-86839819D02*
X155086905Y-85839819D01*
X155086905Y-85839819D02*
X155467857Y-85839819D01*
X155467857Y-85839819D02*
X155563095Y-85887438D01*
X155563095Y-85887438D02*
X155610714Y-85935057D01*
X155610714Y-85935057D02*
X155658333Y-86030295D01*
X155658333Y-86030295D02*
X155658333Y-86173152D01*
X155658333Y-86173152D02*
X155610714Y-86268390D01*
X155610714Y-86268390D02*
X155563095Y-86316009D01*
X155563095Y-86316009D02*
X155467857Y-86363628D01*
X155467857Y-86363628D02*
X155086905Y-86363628D01*
X156515476Y-85839819D02*
X156325000Y-85839819D01*
X156325000Y-85839819D02*
X156229762Y-85887438D01*
X156229762Y-85887438D02*
X156182143Y-85935057D01*
X156182143Y-85935057D02*
X156086905Y-86077914D01*
X156086905Y-86077914D02*
X156039286Y-86268390D01*
X156039286Y-86268390D02*
X156039286Y-86649342D01*
X156039286Y-86649342D02*
X156086905Y-86744580D01*
X156086905Y-86744580D02*
X156134524Y-86792200D01*
X156134524Y-86792200D02*
X156229762Y-86839819D01*
X156229762Y-86839819D02*
X156420238Y-86839819D01*
X156420238Y-86839819D02*
X156515476Y-86792200D01*
X156515476Y-86792200D02*
X156563095Y-86744580D01*
X156563095Y-86744580D02*
X156610714Y-86649342D01*
X156610714Y-86649342D02*
X156610714Y-86411247D01*
X156610714Y-86411247D02*
X156563095Y-86316009D01*
X156563095Y-86316009D02*
X156515476Y-86268390D01*
X156515476Y-86268390D02*
X156420238Y-86220771D01*
X156420238Y-86220771D02*
X156229762Y-86220771D01*
X156229762Y-86220771D02*
X156134524Y-86268390D01*
X156134524Y-86268390D02*
X156086905Y-86316009D01*
X156086905Y-86316009D02*
X156039286Y-86411247D01*
X155704819Y-64021666D02*
X155228628Y-64354999D01*
X155704819Y-64593094D02*
X154704819Y-64593094D01*
X154704819Y-64593094D02*
X154704819Y-64212142D01*
X154704819Y-64212142D02*
X154752438Y-64116904D01*
X154752438Y-64116904D02*
X154800057Y-64069285D01*
X154800057Y-64069285D02*
X154895295Y-64021666D01*
X154895295Y-64021666D02*
X155038152Y-64021666D01*
X155038152Y-64021666D02*
X155133390Y-64069285D01*
X155133390Y-64069285D02*
X155181009Y-64116904D01*
X155181009Y-64116904D02*
X155228628Y-64212142D01*
X155228628Y-64212142D02*
X155228628Y-64593094D01*
X155038152Y-63164523D02*
X155704819Y-63164523D01*
X154657200Y-63402618D02*
X155371485Y-63640713D01*
X155371485Y-63640713D02*
X155371485Y-63021666D01*
X165782142Y-58999819D02*
X165448809Y-58523628D01*
X165210714Y-58999819D02*
X165210714Y-57999819D01*
X165210714Y-57999819D02*
X165591666Y-57999819D01*
X165591666Y-57999819D02*
X165686904Y-58047438D01*
X165686904Y-58047438D02*
X165734523Y-58095057D01*
X165734523Y-58095057D02*
X165782142Y-58190295D01*
X165782142Y-58190295D02*
X165782142Y-58333152D01*
X165782142Y-58333152D02*
X165734523Y-58428390D01*
X165734523Y-58428390D02*
X165686904Y-58476009D01*
X165686904Y-58476009D02*
X165591666Y-58523628D01*
X165591666Y-58523628D02*
X165210714Y-58523628D01*
X166734523Y-58999819D02*
X166163095Y-58999819D01*
X166448809Y-58999819D02*
X166448809Y-57999819D01*
X166448809Y-57999819D02*
X166353571Y-58142676D01*
X166353571Y-58142676D02*
X166258333Y-58237914D01*
X166258333Y-58237914D02*
X166163095Y-58285533D01*
X167115476Y-58095057D02*
X167163095Y-58047438D01*
X167163095Y-58047438D02*
X167258333Y-57999819D01*
X167258333Y-57999819D02*
X167496428Y-57999819D01*
X167496428Y-57999819D02*
X167591666Y-58047438D01*
X167591666Y-58047438D02*
X167639285Y-58095057D01*
X167639285Y-58095057D02*
X167686904Y-58190295D01*
X167686904Y-58190295D02*
X167686904Y-58285533D01*
X167686904Y-58285533D02*
X167639285Y-58428390D01*
X167639285Y-58428390D02*
X167067857Y-58999819D01*
X167067857Y-58999819D02*
X167686904Y-58999819D01*
X100454819Y-93761904D02*
X100454819Y-93190476D01*
X101454819Y-93476190D02*
X100454819Y-93476190D01*
X100931009Y-92523809D02*
X100978628Y-92380952D01*
X100978628Y-92380952D02*
X101026247Y-92333333D01*
X101026247Y-92333333D02*
X101121485Y-92285714D01*
X101121485Y-92285714D02*
X101264342Y-92285714D01*
X101264342Y-92285714D02*
X101359580Y-92333333D01*
X101359580Y-92333333D02*
X101407200Y-92380952D01*
X101407200Y-92380952D02*
X101454819Y-92476190D01*
X101454819Y-92476190D02*
X101454819Y-92857142D01*
X101454819Y-92857142D02*
X100454819Y-92857142D01*
X100454819Y-92857142D02*
X100454819Y-92523809D01*
X100454819Y-92523809D02*
X100502438Y-92428571D01*
X100502438Y-92428571D02*
X100550057Y-92380952D01*
X100550057Y-92380952D02*
X100645295Y-92333333D01*
X100645295Y-92333333D02*
X100740533Y-92333333D01*
X100740533Y-92333333D02*
X100835771Y-92380952D01*
X100835771Y-92380952D02*
X100883390Y-92428571D01*
X100883390Y-92428571D02*
X100931009Y-92523809D01*
X100931009Y-92523809D02*
X100931009Y-92857142D01*
X101454819Y-91333333D02*
X101454819Y-91904761D01*
X101454819Y-91619047D02*
X100454819Y-91619047D01*
X100454819Y-91619047D02*
X100597676Y-91714285D01*
X100597676Y-91714285D02*
X100692914Y-91809523D01*
X100692914Y-91809523D02*
X100740533Y-91904761D01*
X156954819Y-70503094D02*
X155954819Y-70503094D01*
X155954819Y-70503094D02*
X155954819Y-70264999D01*
X155954819Y-70264999D02*
X156002438Y-70122142D01*
X156002438Y-70122142D02*
X156097676Y-70026904D01*
X156097676Y-70026904D02*
X156192914Y-69979285D01*
X156192914Y-69979285D02*
X156383390Y-69931666D01*
X156383390Y-69931666D02*
X156526247Y-69931666D01*
X156526247Y-69931666D02*
X156716723Y-69979285D01*
X156716723Y-69979285D02*
X156811961Y-70026904D01*
X156811961Y-70026904D02*
X156907200Y-70122142D01*
X156907200Y-70122142D02*
X156954819Y-70264999D01*
X156954819Y-70264999D02*
X156954819Y-70503094D01*
X156050057Y-69550713D02*
X156002438Y-69503094D01*
X156002438Y-69503094D02*
X155954819Y-69407856D01*
X155954819Y-69407856D02*
X155954819Y-69169761D01*
X155954819Y-69169761D02*
X156002438Y-69074523D01*
X156002438Y-69074523D02*
X156050057Y-69026904D01*
X156050057Y-69026904D02*
X156145295Y-68979285D01*
X156145295Y-68979285D02*
X156240533Y-68979285D01*
X156240533Y-68979285D02*
X156383390Y-69026904D01*
X156383390Y-69026904D02*
X156954819Y-69598332D01*
X156954819Y-69598332D02*
X156954819Y-68979285D01*
X139307142Y-58999819D02*
X138973809Y-58523628D01*
X138735714Y-58999819D02*
X138735714Y-57999819D01*
X138735714Y-57999819D02*
X139116666Y-57999819D01*
X139116666Y-57999819D02*
X139211904Y-58047438D01*
X139211904Y-58047438D02*
X139259523Y-58095057D01*
X139259523Y-58095057D02*
X139307142Y-58190295D01*
X139307142Y-58190295D02*
X139307142Y-58333152D01*
X139307142Y-58333152D02*
X139259523Y-58428390D01*
X139259523Y-58428390D02*
X139211904Y-58476009D01*
X139211904Y-58476009D02*
X139116666Y-58523628D01*
X139116666Y-58523628D02*
X138735714Y-58523628D01*
X140259523Y-58999819D02*
X139688095Y-58999819D01*
X139973809Y-58999819D02*
X139973809Y-57999819D01*
X139973809Y-57999819D02*
X139878571Y-58142676D01*
X139878571Y-58142676D02*
X139783333Y-58237914D01*
X139783333Y-58237914D02*
X139688095Y-58285533D01*
X140878571Y-57999819D02*
X140973809Y-57999819D01*
X140973809Y-57999819D02*
X141069047Y-58047438D01*
X141069047Y-58047438D02*
X141116666Y-58095057D01*
X141116666Y-58095057D02*
X141164285Y-58190295D01*
X141164285Y-58190295D02*
X141211904Y-58380771D01*
X141211904Y-58380771D02*
X141211904Y-58618866D01*
X141211904Y-58618866D02*
X141164285Y-58809342D01*
X141164285Y-58809342D02*
X141116666Y-58904580D01*
X141116666Y-58904580D02*
X141069047Y-58952200D01*
X141069047Y-58952200D02*
X140973809Y-58999819D01*
X140973809Y-58999819D02*
X140878571Y-58999819D01*
X140878571Y-58999819D02*
X140783333Y-58952200D01*
X140783333Y-58952200D02*
X140735714Y-58904580D01*
X140735714Y-58904580D02*
X140688095Y-58809342D01*
X140688095Y-58809342D02*
X140640476Y-58618866D01*
X140640476Y-58618866D02*
X140640476Y-58380771D01*
X140640476Y-58380771D02*
X140688095Y-58190295D01*
X140688095Y-58190295D02*
X140735714Y-58095057D01*
X140735714Y-58095057D02*
X140783333Y-58047438D01*
X140783333Y-58047438D02*
X140878571Y-57999819D01*
X171470833Y-62159580D02*
X171423214Y-62207200D01*
X171423214Y-62207200D02*
X171280357Y-62254819D01*
X171280357Y-62254819D02*
X171185119Y-62254819D01*
X171185119Y-62254819D02*
X171042262Y-62207200D01*
X171042262Y-62207200D02*
X170947024Y-62111961D01*
X170947024Y-62111961D02*
X170899405Y-62016723D01*
X170899405Y-62016723D02*
X170851786Y-61826247D01*
X170851786Y-61826247D02*
X170851786Y-61683390D01*
X170851786Y-61683390D02*
X170899405Y-61492914D01*
X170899405Y-61492914D02*
X170947024Y-61397676D01*
X170947024Y-61397676D02*
X171042262Y-61302438D01*
X171042262Y-61302438D02*
X171185119Y-61254819D01*
X171185119Y-61254819D02*
X171280357Y-61254819D01*
X171280357Y-61254819D02*
X171423214Y-61302438D01*
X171423214Y-61302438D02*
X171470833Y-61350057D01*
X171947024Y-62254819D02*
X172137500Y-62254819D01*
X172137500Y-62254819D02*
X172232738Y-62207200D01*
X172232738Y-62207200D02*
X172280357Y-62159580D01*
X172280357Y-62159580D02*
X172375595Y-62016723D01*
X172375595Y-62016723D02*
X172423214Y-61826247D01*
X172423214Y-61826247D02*
X172423214Y-61445295D01*
X172423214Y-61445295D02*
X172375595Y-61350057D01*
X172375595Y-61350057D02*
X172327976Y-61302438D01*
X172327976Y-61302438D02*
X172232738Y-61254819D01*
X172232738Y-61254819D02*
X172042262Y-61254819D01*
X172042262Y-61254819D02*
X171947024Y-61302438D01*
X171947024Y-61302438D02*
X171899405Y-61350057D01*
X171899405Y-61350057D02*
X171851786Y-61445295D01*
X171851786Y-61445295D02*
X171851786Y-61683390D01*
X171851786Y-61683390D02*
X171899405Y-61778628D01*
X171899405Y-61778628D02*
X171947024Y-61826247D01*
X171947024Y-61826247D02*
X172042262Y-61873866D01*
X172042262Y-61873866D02*
X172232738Y-61873866D01*
X172232738Y-61873866D02*
X172327976Y-61826247D01*
X172327976Y-61826247D02*
X172375595Y-61778628D01*
X172375595Y-61778628D02*
X172423214Y-61683390D01*
X186475521Y-92019170D02*
X187189806Y-92019170D01*
X187189806Y-92019170D02*
X187332663Y-92066789D01*
X187332663Y-92066789D02*
X187427902Y-92162027D01*
X187427902Y-92162027D02*
X187475521Y-92304884D01*
X187475521Y-92304884D02*
X187475521Y-92400122D01*
X187475521Y-91495360D02*
X187475521Y-91304884D01*
X187475521Y-91304884D02*
X187427902Y-91209646D01*
X187427902Y-91209646D02*
X187380282Y-91162027D01*
X187380282Y-91162027D02*
X187237425Y-91066789D01*
X187237425Y-91066789D02*
X187046949Y-91019170D01*
X187046949Y-91019170D02*
X186665997Y-91019170D01*
X186665997Y-91019170D02*
X186570759Y-91066789D01*
X186570759Y-91066789D02*
X186523140Y-91114408D01*
X186523140Y-91114408D02*
X186475521Y-91209646D01*
X186475521Y-91209646D02*
X186475521Y-91400122D01*
X186475521Y-91400122D02*
X186523140Y-91495360D01*
X186523140Y-91495360D02*
X186570759Y-91542979D01*
X186570759Y-91542979D02*
X186665997Y-91590598D01*
X186665997Y-91590598D02*
X186904092Y-91590598D01*
X186904092Y-91590598D02*
X186999330Y-91542979D01*
X186999330Y-91542979D02*
X187046949Y-91495360D01*
X187046949Y-91495360D02*
X187094568Y-91400122D01*
X187094568Y-91400122D02*
X187094568Y-91209646D01*
X187094568Y-91209646D02*
X187046949Y-91114408D01*
X187046949Y-91114408D02*
X186999330Y-91066789D01*
X186999330Y-91066789D02*
X186904092Y-91019170D01*
D11*
X190062682Y-94208299D02*
X189729349Y-94208299D01*
X189729349Y-94732109D02*
X189729349Y-93732109D01*
X189729349Y-93732109D02*
X190205539Y-93732109D01*
X190729349Y-94732109D02*
X190634111Y-94684490D01*
X190634111Y-94684490D02*
X190586492Y-94636870D01*
X190586492Y-94636870D02*
X190538873Y-94541632D01*
X190538873Y-94541632D02*
X190538873Y-94255918D01*
X190538873Y-94255918D02*
X190586492Y-94160680D01*
X190586492Y-94160680D02*
X190634111Y-94113061D01*
X190634111Y-94113061D02*
X190729349Y-94065442D01*
X190729349Y-94065442D02*
X190872206Y-94065442D01*
X190872206Y-94065442D02*
X190967444Y-94113061D01*
X190967444Y-94113061D02*
X191015063Y-94160680D01*
X191015063Y-94160680D02*
X191062682Y-94255918D01*
X191062682Y-94255918D02*
X191062682Y-94541632D01*
X191062682Y-94541632D02*
X191015063Y-94636870D01*
X191015063Y-94636870D02*
X190967444Y-94684490D01*
X190967444Y-94684490D02*
X190872206Y-94732109D01*
X190872206Y-94732109D02*
X190729349Y-94732109D01*
X191634111Y-94732109D02*
X191538873Y-94684490D01*
X191538873Y-94684490D02*
X191491254Y-94636870D01*
X191491254Y-94636870D02*
X191443635Y-94541632D01*
X191443635Y-94541632D02*
X191443635Y-94255918D01*
X191443635Y-94255918D02*
X191491254Y-94160680D01*
X191491254Y-94160680D02*
X191538873Y-94113061D01*
X191538873Y-94113061D02*
X191634111Y-94065442D01*
X191634111Y-94065442D02*
X191776968Y-94065442D01*
X191776968Y-94065442D02*
X191872206Y-94113061D01*
X191872206Y-94113061D02*
X191919825Y-94160680D01*
X191919825Y-94160680D02*
X191967444Y-94255918D01*
X191967444Y-94255918D02*
X191967444Y-94541632D01*
X191967444Y-94541632D02*
X191919825Y-94636870D01*
X191919825Y-94636870D02*
X191872206Y-94684490D01*
X191872206Y-94684490D02*
X191776968Y-94732109D01*
X191776968Y-94732109D02*
X191634111Y-94732109D01*
X192253159Y-94065442D02*
X192634111Y-94065442D01*
X192396016Y-93732109D02*
X192396016Y-94589251D01*
X192396016Y-94589251D02*
X192443635Y-94684490D01*
X192443635Y-94684490D02*
X192538873Y-94732109D01*
X192538873Y-94732109D02*
X192634111Y-94732109D01*
X194205540Y-93732109D02*
X193729350Y-93732109D01*
X193729350Y-93732109D02*
X193681731Y-94208299D01*
X193681731Y-94208299D02*
X193729350Y-94160680D01*
X193729350Y-94160680D02*
X193824588Y-94113061D01*
X193824588Y-94113061D02*
X194062683Y-94113061D01*
X194062683Y-94113061D02*
X194157921Y-94160680D01*
X194157921Y-94160680D02*
X194205540Y-94208299D01*
X194205540Y-94208299D02*
X194253159Y-94303537D01*
X194253159Y-94303537D02*
X194253159Y-94541632D01*
X194253159Y-94541632D02*
X194205540Y-94636870D01*
X194205540Y-94636870D02*
X194157921Y-94684490D01*
X194157921Y-94684490D02*
X194062683Y-94732109D01*
X194062683Y-94732109D02*
X193824588Y-94732109D01*
X193824588Y-94732109D02*
X193729350Y-94684490D01*
X193729350Y-94684490D02*
X193681731Y-94636870D01*
D13*
X185289580Y-77941666D02*
X185337200Y-77989285D01*
X185337200Y-77989285D02*
X185384819Y-78132142D01*
X185384819Y-78132142D02*
X185384819Y-78227380D01*
X185384819Y-78227380D02*
X185337200Y-78370237D01*
X185337200Y-78370237D02*
X185241961Y-78465475D01*
X185241961Y-78465475D02*
X185146723Y-78513094D01*
X185146723Y-78513094D02*
X184956247Y-78560713D01*
X184956247Y-78560713D02*
X184813390Y-78560713D01*
X184813390Y-78560713D02*
X184622914Y-78513094D01*
X184622914Y-78513094D02*
X184527676Y-78465475D01*
X184527676Y-78465475D02*
X184432438Y-78370237D01*
X184432438Y-78370237D02*
X184384819Y-78227380D01*
X184384819Y-78227380D02*
X184384819Y-78132142D01*
X184384819Y-78132142D02*
X184432438Y-77989285D01*
X184432438Y-77989285D02*
X184480057Y-77941666D01*
X184384819Y-77036904D02*
X184384819Y-77513094D01*
X184384819Y-77513094D02*
X184861009Y-77560713D01*
X184861009Y-77560713D02*
X184813390Y-77513094D01*
X184813390Y-77513094D02*
X184765771Y-77417856D01*
X184765771Y-77417856D02*
X184765771Y-77179761D01*
X184765771Y-77179761D02*
X184813390Y-77084523D01*
X184813390Y-77084523D02*
X184861009Y-77036904D01*
X184861009Y-77036904D02*
X184956247Y-76989285D01*
X184956247Y-76989285D02*
X185194342Y-76989285D01*
X185194342Y-76989285D02*
X185289580Y-77036904D01*
X185289580Y-77036904D02*
X185337200Y-77084523D01*
X185337200Y-77084523D02*
X185384819Y-77179761D01*
X185384819Y-77179761D02*
X185384819Y-77417856D01*
X185384819Y-77417856D02*
X185337200Y-77513094D01*
X185337200Y-77513094D02*
X185289580Y-77560713D01*
X135823333Y-75384819D02*
X135490000Y-74908628D01*
X135251905Y-75384819D02*
X135251905Y-74384819D01*
X135251905Y-74384819D02*
X135632857Y-74384819D01*
X135632857Y-74384819D02*
X135728095Y-74432438D01*
X135728095Y-74432438D02*
X135775714Y-74480057D01*
X135775714Y-74480057D02*
X135823333Y-74575295D01*
X135823333Y-74575295D02*
X135823333Y-74718152D01*
X135823333Y-74718152D02*
X135775714Y-74813390D01*
X135775714Y-74813390D02*
X135728095Y-74861009D01*
X135728095Y-74861009D02*
X135632857Y-74908628D01*
X135632857Y-74908628D02*
X135251905Y-74908628D01*
X136775714Y-75384819D02*
X136204286Y-75384819D01*
X136490000Y-75384819D02*
X136490000Y-74384819D01*
X136490000Y-74384819D02*
X136394762Y-74527676D01*
X136394762Y-74527676D02*
X136299524Y-74622914D01*
X136299524Y-74622914D02*
X136204286Y-74670533D01*
X178567330Y-79366670D02*
X178567330Y-79842872D01*
X178567330Y-79842872D02*
X177567306Y-79842872D01*
X178567330Y-78509506D02*
X178567330Y-79080949D01*
X178567330Y-78795228D02*
X177567306Y-78795228D01*
X177567306Y-78795228D02*
X177710166Y-78890468D01*
X177710166Y-78890468D02*
X177805407Y-78985708D01*
X177805407Y-78985708D02*
X177853027Y-79080949D01*
X100609580Y-79916666D02*
X100657200Y-79964285D01*
X100657200Y-79964285D02*
X100704819Y-80107142D01*
X100704819Y-80107142D02*
X100704819Y-80202380D01*
X100704819Y-80202380D02*
X100657200Y-80345237D01*
X100657200Y-80345237D02*
X100561961Y-80440475D01*
X100561961Y-80440475D02*
X100466723Y-80488094D01*
X100466723Y-80488094D02*
X100276247Y-80535713D01*
X100276247Y-80535713D02*
X100133390Y-80535713D01*
X100133390Y-80535713D02*
X99942914Y-80488094D01*
X99942914Y-80488094D02*
X99847676Y-80440475D01*
X99847676Y-80440475D02*
X99752438Y-80345237D01*
X99752438Y-80345237D02*
X99704819Y-80202380D01*
X99704819Y-80202380D02*
X99704819Y-80107142D01*
X99704819Y-80107142D02*
X99752438Y-79964285D01*
X99752438Y-79964285D02*
X99800057Y-79916666D01*
X99800057Y-79535713D02*
X99752438Y-79488094D01*
X99752438Y-79488094D02*
X99704819Y-79392856D01*
X99704819Y-79392856D02*
X99704819Y-79154761D01*
X99704819Y-79154761D02*
X99752438Y-79059523D01*
X99752438Y-79059523D02*
X99800057Y-79011904D01*
X99800057Y-79011904D02*
X99895295Y-78964285D01*
X99895295Y-78964285D02*
X99990533Y-78964285D01*
X99990533Y-78964285D02*
X100133390Y-79011904D01*
X100133390Y-79011904D02*
X100704819Y-79583332D01*
X100704819Y-79583332D02*
X100704819Y-78964285D01*
X161333333Y-63806819D02*
X160857143Y-63806819D01*
X160857143Y-63806819D02*
X160809524Y-64283009D01*
X160809524Y-64283009D02*
X160857143Y-64235390D01*
X160857143Y-64235390D02*
X160952381Y-64187771D01*
X160952381Y-64187771D02*
X161190476Y-64187771D01*
X161190476Y-64187771D02*
X161285714Y-64235390D01*
X161285714Y-64235390D02*
X161333333Y-64283009D01*
X161333333Y-64283009D02*
X161380952Y-64378247D01*
X161380952Y-64378247D02*
X161380952Y-64616342D01*
X161380952Y-64616342D02*
X161333333Y-64711580D01*
X161333333Y-64711580D02*
X161285714Y-64759200D01*
X161285714Y-64759200D02*
X161190476Y-64806819D01*
X161190476Y-64806819D02*
X160952381Y-64806819D01*
X160952381Y-64806819D02*
X160857143Y-64759200D01*
X160857143Y-64759200D02*
X160809524Y-64711580D01*
X161666667Y-63806819D02*
X162000000Y-64806819D01*
X162000000Y-64806819D02*
X162333333Y-63806819D01*
X163190476Y-64806819D02*
X162619048Y-64806819D01*
X162904762Y-64806819D02*
X162904762Y-63806819D01*
X162904762Y-63806819D02*
X162809524Y-63949676D01*
X162809524Y-63949676D02*
X162714286Y-64044914D01*
X162714286Y-64044914D02*
X162619048Y-64092533D01*
X169357142Y-58904580D02*
X169309523Y-58952200D01*
X169309523Y-58952200D02*
X169166666Y-58999819D01*
X169166666Y-58999819D02*
X169071428Y-58999819D01*
X169071428Y-58999819D02*
X168928571Y-58952200D01*
X168928571Y-58952200D02*
X168833333Y-58856961D01*
X168833333Y-58856961D02*
X168785714Y-58761723D01*
X168785714Y-58761723D02*
X168738095Y-58571247D01*
X168738095Y-58571247D02*
X168738095Y-58428390D01*
X168738095Y-58428390D02*
X168785714Y-58237914D01*
X168785714Y-58237914D02*
X168833333Y-58142676D01*
X168833333Y-58142676D02*
X168928571Y-58047438D01*
X168928571Y-58047438D02*
X169071428Y-57999819D01*
X169071428Y-57999819D02*
X169166666Y-57999819D01*
X169166666Y-57999819D02*
X169309523Y-58047438D01*
X169309523Y-58047438D02*
X169357142Y-58095057D01*
X170309523Y-58999819D02*
X169738095Y-58999819D01*
X170023809Y-58999819D02*
X170023809Y-57999819D01*
X170023809Y-57999819D02*
X169928571Y-58142676D01*
X169928571Y-58142676D02*
X169833333Y-58237914D01*
X169833333Y-58237914D02*
X169738095Y-58285533D01*
X170880952Y-58428390D02*
X170785714Y-58380771D01*
X170785714Y-58380771D02*
X170738095Y-58333152D01*
X170738095Y-58333152D02*
X170690476Y-58237914D01*
X170690476Y-58237914D02*
X170690476Y-58190295D01*
X170690476Y-58190295D02*
X170738095Y-58095057D01*
X170738095Y-58095057D02*
X170785714Y-58047438D01*
X170785714Y-58047438D02*
X170880952Y-57999819D01*
X170880952Y-57999819D02*
X171071428Y-57999819D01*
X171071428Y-57999819D02*
X171166666Y-58047438D01*
X171166666Y-58047438D02*
X171214285Y-58095057D01*
X171214285Y-58095057D02*
X171261904Y-58190295D01*
X171261904Y-58190295D02*
X171261904Y-58237914D01*
X171261904Y-58237914D02*
X171214285Y-58333152D01*
X171214285Y-58333152D02*
X171166666Y-58380771D01*
X171166666Y-58380771D02*
X171071428Y-58428390D01*
X171071428Y-58428390D02*
X170880952Y-58428390D01*
X170880952Y-58428390D02*
X170785714Y-58476009D01*
X170785714Y-58476009D02*
X170738095Y-58523628D01*
X170738095Y-58523628D02*
X170690476Y-58618866D01*
X170690476Y-58618866D02*
X170690476Y-58809342D01*
X170690476Y-58809342D02*
X170738095Y-58904580D01*
X170738095Y-58904580D02*
X170785714Y-58952200D01*
X170785714Y-58952200D02*
X170880952Y-58999819D01*
X170880952Y-58999819D02*
X171071428Y-58999819D01*
X171071428Y-58999819D02*
X171166666Y-58952200D01*
X171166666Y-58952200D02*
X171214285Y-58904580D01*
X171214285Y-58904580D02*
X171261904Y-58809342D01*
X171261904Y-58809342D02*
X171261904Y-58618866D01*
X171261904Y-58618866D02*
X171214285Y-58523628D01*
X171214285Y-58523628D02*
X171166666Y-58476009D01*
X171166666Y-58476009D02*
X171071428Y-58428390D01*
X149765521Y-92269170D02*
X150479806Y-92269170D01*
X150479806Y-92269170D02*
X150622663Y-92316789D01*
X150622663Y-92316789D02*
X150717902Y-92412027D01*
X150717902Y-92412027D02*
X150765521Y-92554884D01*
X150765521Y-92554884D02*
X150765521Y-92650122D01*
X149765521Y-91364408D02*
X149765521Y-91554884D01*
X149765521Y-91554884D02*
X149813140Y-91650122D01*
X149813140Y-91650122D02*
X149860759Y-91697741D01*
X149860759Y-91697741D02*
X150003616Y-91792979D01*
X150003616Y-91792979D02*
X150194092Y-91840598D01*
X150194092Y-91840598D02*
X150575044Y-91840598D01*
X150575044Y-91840598D02*
X150670282Y-91792979D01*
X150670282Y-91792979D02*
X150717902Y-91745360D01*
X150717902Y-91745360D02*
X150765521Y-91650122D01*
X150765521Y-91650122D02*
X150765521Y-91459646D01*
X150765521Y-91459646D02*
X150717902Y-91364408D01*
X150717902Y-91364408D02*
X150670282Y-91316789D01*
X150670282Y-91316789D02*
X150575044Y-91269170D01*
X150575044Y-91269170D02*
X150336949Y-91269170D01*
X150336949Y-91269170D02*
X150241711Y-91316789D01*
X150241711Y-91316789D02*
X150194092Y-91364408D01*
X150194092Y-91364408D02*
X150146473Y-91459646D01*
X150146473Y-91459646D02*
X150146473Y-91650122D01*
X150146473Y-91650122D02*
X150194092Y-91745360D01*
X150194092Y-91745360D02*
X150241711Y-91792979D01*
X150241711Y-91792979D02*
X150336949Y-91840598D01*
D11*
X153345237Y-94428409D02*
X153011904Y-94428409D01*
X153011904Y-94952219D02*
X153011904Y-93952219D01*
X153011904Y-93952219D02*
X153488094Y-93952219D01*
X154011904Y-94952219D02*
X153916666Y-94904600D01*
X153916666Y-94904600D02*
X153869047Y-94856980D01*
X153869047Y-94856980D02*
X153821428Y-94761742D01*
X153821428Y-94761742D02*
X153821428Y-94476028D01*
X153821428Y-94476028D02*
X153869047Y-94380790D01*
X153869047Y-94380790D02*
X153916666Y-94333171D01*
X153916666Y-94333171D02*
X154011904Y-94285552D01*
X154011904Y-94285552D02*
X154154761Y-94285552D01*
X154154761Y-94285552D02*
X154249999Y-94333171D01*
X154249999Y-94333171D02*
X154297618Y-94380790D01*
X154297618Y-94380790D02*
X154345237Y-94476028D01*
X154345237Y-94476028D02*
X154345237Y-94761742D01*
X154345237Y-94761742D02*
X154297618Y-94856980D01*
X154297618Y-94856980D02*
X154249999Y-94904600D01*
X154249999Y-94904600D02*
X154154761Y-94952219D01*
X154154761Y-94952219D02*
X154011904Y-94952219D01*
X154916666Y-94952219D02*
X154821428Y-94904600D01*
X154821428Y-94904600D02*
X154773809Y-94856980D01*
X154773809Y-94856980D02*
X154726190Y-94761742D01*
X154726190Y-94761742D02*
X154726190Y-94476028D01*
X154726190Y-94476028D02*
X154773809Y-94380790D01*
X154773809Y-94380790D02*
X154821428Y-94333171D01*
X154821428Y-94333171D02*
X154916666Y-94285552D01*
X154916666Y-94285552D02*
X155059523Y-94285552D01*
X155059523Y-94285552D02*
X155154761Y-94333171D01*
X155154761Y-94333171D02*
X155202380Y-94380790D01*
X155202380Y-94380790D02*
X155249999Y-94476028D01*
X155249999Y-94476028D02*
X155249999Y-94761742D01*
X155249999Y-94761742D02*
X155202380Y-94856980D01*
X155202380Y-94856980D02*
X155154761Y-94904600D01*
X155154761Y-94904600D02*
X155059523Y-94952219D01*
X155059523Y-94952219D02*
X154916666Y-94952219D01*
X155535714Y-94285552D02*
X155916666Y-94285552D01*
X155678571Y-93952219D02*
X155678571Y-94809361D01*
X155678571Y-94809361D02*
X155726190Y-94904600D01*
X155726190Y-94904600D02*
X155821428Y-94952219D01*
X155821428Y-94952219D02*
X155916666Y-94952219D01*
X156964286Y-94047457D02*
X157011905Y-93999838D01*
X157011905Y-93999838D02*
X157107143Y-93952219D01*
X157107143Y-93952219D02*
X157345238Y-93952219D01*
X157345238Y-93952219D02*
X157440476Y-93999838D01*
X157440476Y-93999838D02*
X157488095Y-94047457D01*
X157488095Y-94047457D02*
X157535714Y-94142695D01*
X157535714Y-94142695D02*
X157535714Y-94237933D01*
X157535714Y-94237933D02*
X157488095Y-94380790D01*
X157488095Y-94380790D02*
X156916667Y-94952219D01*
X156916667Y-94952219D02*
X157535714Y-94952219D01*
D13*
X134800057Y-68845238D02*
X134752438Y-68940476D01*
X134752438Y-68940476D02*
X134657200Y-69035714D01*
X134657200Y-69035714D02*
X134514342Y-69178571D01*
X134514342Y-69178571D02*
X134466723Y-69273809D01*
X134466723Y-69273809D02*
X134466723Y-69369047D01*
X134704819Y-69321428D02*
X134657200Y-69416666D01*
X134657200Y-69416666D02*
X134561961Y-69511904D01*
X134561961Y-69511904D02*
X134371485Y-69559523D01*
X134371485Y-69559523D02*
X134038152Y-69559523D01*
X134038152Y-69559523D02*
X133847676Y-69511904D01*
X133847676Y-69511904D02*
X133752438Y-69416666D01*
X133752438Y-69416666D02*
X133704819Y-69321428D01*
X133704819Y-69321428D02*
X133704819Y-69130952D01*
X133704819Y-69130952D02*
X133752438Y-69035714D01*
X133752438Y-69035714D02*
X133847676Y-68940476D01*
X133847676Y-68940476D02*
X134038152Y-68892857D01*
X134038152Y-68892857D02*
X134371485Y-68892857D01*
X134371485Y-68892857D02*
X134561961Y-68940476D01*
X134561961Y-68940476D02*
X134657200Y-69035714D01*
X134657200Y-69035714D02*
X134704819Y-69130952D01*
X134704819Y-69130952D02*
X134704819Y-69321428D01*
X134704819Y-67940476D02*
X134704819Y-68511904D01*
X134704819Y-68226190D02*
X133704819Y-68226190D01*
X133704819Y-68226190D02*
X133847676Y-68321428D01*
X133847676Y-68321428D02*
X133942914Y-68416666D01*
X133942914Y-68416666D02*
X133990533Y-68511904D01*
X123334819Y-56058333D02*
X124049104Y-56058333D01*
X124049104Y-56058333D02*
X124191961Y-56105952D01*
X124191961Y-56105952D02*
X124287200Y-56201190D01*
X124287200Y-56201190D02*
X124334819Y-56344047D01*
X124334819Y-56344047D02*
X124334819Y-56439285D01*
X123334819Y-55677380D02*
X123334819Y-55058333D01*
X123334819Y-55058333D02*
X123715771Y-55391666D01*
X123715771Y-55391666D02*
X123715771Y-55248809D01*
X123715771Y-55248809D02*
X123763390Y-55153571D01*
X123763390Y-55153571D02*
X123811009Y-55105952D01*
X123811009Y-55105952D02*
X123906247Y-55058333D01*
X123906247Y-55058333D02*
X124144342Y-55058333D01*
X124144342Y-55058333D02*
X124239580Y-55105952D01*
X124239580Y-55105952D02*
X124287200Y-55153571D01*
X124287200Y-55153571D02*
X124334819Y-55248809D01*
X124334819Y-55248809D02*
X124334819Y-55534523D01*
X124334819Y-55534523D02*
X124287200Y-55629761D01*
X124287200Y-55629761D02*
X124239580Y-55677380D01*
X142761905Y-74874819D02*
X142761905Y-73874819D01*
X142761905Y-73874819D02*
X143000000Y-73874819D01*
X143000000Y-73874819D02*
X143142857Y-73922438D01*
X143142857Y-73922438D02*
X143238095Y-74017676D01*
X143238095Y-74017676D02*
X143285714Y-74112914D01*
X143285714Y-74112914D02*
X143333333Y-74303390D01*
X143333333Y-74303390D02*
X143333333Y-74446247D01*
X143333333Y-74446247D02*
X143285714Y-74636723D01*
X143285714Y-74636723D02*
X143238095Y-74731961D01*
X143238095Y-74731961D02*
X143142857Y-74827200D01*
X143142857Y-74827200D02*
X143000000Y-74874819D01*
X143000000Y-74874819D02*
X142761905Y-74874819D01*
X144285714Y-74874819D02*
X143714286Y-74874819D01*
X144000000Y-74874819D02*
X144000000Y-73874819D01*
X144000000Y-73874819D02*
X143904762Y-74017676D01*
X143904762Y-74017676D02*
X143809524Y-74112914D01*
X143809524Y-74112914D02*
X143714286Y-74160533D01*
X175204819Y-56559523D02*
X175919104Y-56559523D01*
X175919104Y-56559523D02*
X176061961Y-56607142D01*
X176061961Y-56607142D02*
X176157200Y-56702380D01*
X176157200Y-56702380D02*
X176204819Y-56845237D01*
X176204819Y-56845237D02*
X176204819Y-56940475D01*
X176204819Y-55559523D02*
X176204819Y-56130951D01*
X176204819Y-55845237D02*
X175204819Y-55845237D01*
X175204819Y-55845237D02*
X175347676Y-55940475D01*
X175347676Y-55940475D02*
X175442914Y-56035713D01*
X175442914Y-56035713D02*
X175490533Y-56130951D01*
X175204819Y-55226189D02*
X175204819Y-54607142D01*
X175204819Y-54607142D02*
X175585771Y-54940475D01*
X175585771Y-54940475D02*
X175585771Y-54797618D01*
X175585771Y-54797618D02*
X175633390Y-54702380D01*
X175633390Y-54702380D02*
X175681009Y-54654761D01*
X175681009Y-54654761D02*
X175776247Y-54607142D01*
X175776247Y-54607142D02*
X176014342Y-54607142D01*
X176014342Y-54607142D02*
X176109580Y-54654761D01*
X176109580Y-54654761D02*
X176157200Y-54702380D01*
X176157200Y-54702380D02*
X176204819Y-54797618D01*
X176204819Y-54797618D02*
X176204819Y-55083332D01*
X176204819Y-55083332D02*
X176157200Y-55178570D01*
X176157200Y-55178570D02*
X176109580Y-55226189D01*
X179519580Y-65642857D02*
X179567200Y-65690476D01*
X179567200Y-65690476D02*
X179614819Y-65833333D01*
X179614819Y-65833333D02*
X179614819Y-65928571D01*
X179614819Y-65928571D02*
X179567200Y-66071428D01*
X179567200Y-66071428D02*
X179471961Y-66166666D01*
X179471961Y-66166666D02*
X179376723Y-66214285D01*
X179376723Y-66214285D02*
X179186247Y-66261904D01*
X179186247Y-66261904D02*
X179043390Y-66261904D01*
X179043390Y-66261904D02*
X178852914Y-66214285D01*
X178852914Y-66214285D02*
X178757676Y-66166666D01*
X178757676Y-66166666D02*
X178662438Y-66071428D01*
X178662438Y-66071428D02*
X178614819Y-65928571D01*
X178614819Y-65928571D02*
X178614819Y-65833333D01*
X178614819Y-65833333D02*
X178662438Y-65690476D01*
X178662438Y-65690476D02*
X178710057Y-65642857D01*
X179614819Y-64690476D02*
X179614819Y-65261904D01*
X179614819Y-64976190D02*
X178614819Y-64976190D01*
X178614819Y-64976190D02*
X178757676Y-65071428D01*
X178757676Y-65071428D02*
X178852914Y-65166666D01*
X178852914Y-65166666D02*
X178900533Y-65261904D01*
X178614819Y-64071428D02*
X178614819Y-63976190D01*
X178614819Y-63976190D02*
X178662438Y-63880952D01*
X178662438Y-63880952D02*
X178710057Y-63833333D01*
X178710057Y-63833333D02*
X178805295Y-63785714D01*
X178805295Y-63785714D02*
X178995771Y-63738095D01*
X178995771Y-63738095D02*
X179233866Y-63738095D01*
X179233866Y-63738095D02*
X179424342Y-63785714D01*
X179424342Y-63785714D02*
X179519580Y-63833333D01*
X179519580Y-63833333D02*
X179567200Y-63880952D01*
X179567200Y-63880952D02*
X179614819Y-63976190D01*
X179614819Y-63976190D02*
X179614819Y-64071428D01*
X179614819Y-64071428D02*
X179567200Y-64166666D01*
X179567200Y-64166666D02*
X179519580Y-64214285D01*
X179519580Y-64214285D02*
X179424342Y-64261904D01*
X179424342Y-64261904D02*
X179233866Y-64309523D01*
X179233866Y-64309523D02*
X178995771Y-64309523D01*
X178995771Y-64309523D02*
X178805295Y-64261904D01*
X178805295Y-64261904D02*
X178710057Y-64214285D01*
X178710057Y-64214285D02*
X178662438Y-64166666D01*
X178662438Y-64166666D02*
X178614819Y-64071428D01*
X193082142Y-86429580D02*
X193034523Y-86477200D01*
X193034523Y-86477200D02*
X192891666Y-86524819D01*
X192891666Y-86524819D02*
X192796428Y-86524819D01*
X192796428Y-86524819D02*
X192653571Y-86477200D01*
X192653571Y-86477200D02*
X192558333Y-86381961D01*
X192558333Y-86381961D02*
X192510714Y-86286723D01*
X192510714Y-86286723D02*
X192463095Y-86096247D01*
X192463095Y-86096247D02*
X192463095Y-85953390D01*
X192463095Y-85953390D02*
X192510714Y-85762914D01*
X192510714Y-85762914D02*
X192558333Y-85667676D01*
X192558333Y-85667676D02*
X192653571Y-85572438D01*
X192653571Y-85572438D02*
X192796428Y-85524819D01*
X192796428Y-85524819D02*
X192891666Y-85524819D01*
X192891666Y-85524819D02*
X193034523Y-85572438D01*
X193034523Y-85572438D02*
X193082142Y-85620057D01*
X194034523Y-86524819D02*
X193463095Y-86524819D01*
X193748809Y-86524819D02*
X193748809Y-85524819D01*
X193748809Y-85524819D02*
X193653571Y-85667676D01*
X193653571Y-85667676D02*
X193558333Y-85762914D01*
X193558333Y-85762914D02*
X193463095Y-85810533D01*
X194939285Y-85524819D02*
X194463095Y-85524819D01*
X194463095Y-85524819D02*
X194415476Y-86001009D01*
X194415476Y-86001009D02*
X194463095Y-85953390D01*
X194463095Y-85953390D02*
X194558333Y-85905771D01*
X194558333Y-85905771D02*
X194796428Y-85905771D01*
X194796428Y-85905771D02*
X194891666Y-85953390D01*
X194891666Y-85953390D02*
X194939285Y-86001009D01*
X194939285Y-86001009D02*
X194986904Y-86096247D01*
X194986904Y-86096247D02*
X194986904Y-86334342D01*
X194986904Y-86334342D02*
X194939285Y-86429580D01*
X194939285Y-86429580D02*
X194891666Y-86477200D01*
X194891666Y-86477200D02*
X194796428Y-86524819D01*
X194796428Y-86524819D02*
X194558333Y-86524819D01*
X194558333Y-86524819D02*
X194463095Y-86477200D01*
X194463095Y-86477200D02*
X194415476Y-86429580D01*
X171083333Y-68109580D02*
X171035714Y-68157200D01*
X171035714Y-68157200D02*
X170892857Y-68204819D01*
X170892857Y-68204819D02*
X170797619Y-68204819D01*
X170797619Y-68204819D02*
X170654762Y-68157200D01*
X170654762Y-68157200D02*
X170559524Y-68061961D01*
X170559524Y-68061961D02*
X170511905Y-67966723D01*
X170511905Y-67966723D02*
X170464286Y-67776247D01*
X170464286Y-67776247D02*
X170464286Y-67633390D01*
X170464286Y-67633390D02*
X170511905Y-67442914D01*
X170511905Y-67442914D02*
X170559524Y-67347676D01*
X170559524Y-67347676D02*
X170654762Y-67252438D01*
X170654762Y-67252438D02*
X170797619Y-67204819D01*
X170797619Y-67204819D02*
X170892857Y-67204819D01*
X170892857Y-67204819D02*
X171035714Y-67252438D01*
X171035714Y-67252438D02*
X171083333Y-67300057D01*
X171654762Y-67633390D02*
X171559524Y-67585771D01*
X171559524Y-67585771D02*
X171511905Y-67538152D01*
X171511905Y-67538152D02*
X171464286Y-67442914D01*
X171464286Y-67442914D02*
X171464286Y-67395295D01*
X171464286Y-67395295D02*
X171511905Y-67300057D01*
X171511905Y-67300057D02*
X171559524Y-67252438D01*
X171559524Y-67252438D02*
X171654762Y-67204819D01*
X171654762Y-67204819D02*
X171845238Y-67204819D01*
X171845238Y-67204819D02*
X171940476Y-67252438D01*
X171940476Y-67252438D02*
X171988095Y-67300057D01*
X171988095Y-67300057D02*
X172035714Y-67395295D01*
X172035714Y-67395295D02*
X172035714Y-67442914D01*
X172035714Y-67442914D02*
X171988095Y-67538152D01*
X171988095Y-67538152D02*
X171940476Y-67585771D01*
X171940476Y-67585771D02*
X171845238Y-67633390D01*
X171845238Y-67633390D02*
X171654762Y-67633390D01*
X171654762Y-67633390D02*
X171559524Y-67681009D01*
X171559524Y-67681009D02*
X171511905Y-67728628D01*
X171511905Y-67728628D02*
X171464286Y-67823866D01*
X171464286Y-67823866D02*
X171464286Y-68014342D01*
X171464286Y-68014342D02*
X171511905Y-68109580D01*
X171511905Y-68109580D02*
X171559524Y-68157200D01*
X171559524Y-68157200D02*
X171654762Y-68204819D01*
X171654762Y-68204819D02*
X171845238Y-68204819D01*
X171845238Y-68204819D02*
X171940476Y-68157200D01*
X171940476Y-68157200D02*
X171988095Y-68109580D01*
X171988095Y-68109580D02*
X172035714Y-68014342D01*
X172035714Y-68014342D02*
X172035714Y-67823866D01*
X172035714Y-67823866D02*
X171988095Y-67728628D01*
X171988095Y-67728628D02*
X171940476Y-67681009D01*
X171940476Y-67681009D02*
X171845238Y-67633390D01*
X180011905Y-66954819D02*
X180011905Y-65954819D01*
X180011905Y-65954819D02*
X180250000Y-65954819D01*
X180250000Y-65954819D02*
X180392857Y-66002438D01*
X180392857Y-66002438D02*
X180488095Y-66097676D01*
X180488095Y-66097676D02*
X180535714Y-66192914D01*
X180535714Y-66192914D02*
X180583333Y-66383390D01*
X180583333Y-66383390D02*
X180583333Y-66526247D01*
X180583333Y-66526247D02*
X180535714Y-66716723D01*
X180535714Y-66716723D02*
X180488095Y-66811961D01*
X180488095Y-66811961D02*
X180392857Y-66907200D01*
X180392857Y-66907200D02*
X180250000Y-66954819D01*
X180250000Y-66954819D02*
X180011905Y-66954819D01*
X181440476Y-66288152D02*
X181440476Y-66954819D01*
X181202381Y-65907200D02*
X180964286Y-66621485D01*
X180964286Y-66621485D02*
X181583333Y-66621485D01*
X174997319Y-69616666D02*
X174521128Y-69949999D01*
X174997319Y-70188094D02*
X173997319Y-70188094D01*
X173997319Y-70188094D02*
X173997319Y-69807142D01*
X173997319Y-69807142D02*
X174044938Y-69711904D01*
X174044938Y-69711904D02*
X174092557Y-69664285D01*
X174092557Y-69664285D02*
X174187795Y-69616666D01*
X174187795Y-69616666D02*
X174330652Y-69616666D01*
X174330652Y-69616666D02*
X174425890Y-69664285D01*
X174425890Y-69664285D02*
X174473509Y-69711904D01*
X174473509Y-69711904D02*
X174521128Y-69807142D01*
X174521128Y-69807142D02*
X174521128Y-70188094D01*
X173997319Y-69283332D02*
X173997319Y-68616666D01*
X173997319Y-68616666D02*
X174997319Y-69045237D01*
X175567319Y-63079166D02*
X175567319Y-63555356D01*
X175567319Y-63555356D02*
X174567319Y-63555356D01*
X174662557Y-62793451D02*
X174614938Y-62745832D01*
X174614938Y-62745832D02*
X174567319Y-62650594D01*
X174567319Y-62650594D02*
X174567319Y-62412499D01*
X174567319Y-62412499D02*
X174614938Y-62317261D01*
X174614938Y-62317261D02*
X174662557Y-62269642D01*
X174662557Y-62269642D02*
X174757795Y-62222023D01*
X174757795Y-62222023D02*
X174853033Y-62222023D01*
X174853033Y-62222023D02*
X174995890Y-62269642D01*
X174995890Y-62269642D02*
X175567319Y-62841070D01*
X175567319Y-62841070D02*
X175567319Y-62222023D01*
X182857142Y-59154580D02*
X182809523Y-59202200D01*
X182809523Y-59202200D02*
X182666666Y-59249819D01*
X182666666Y-59249819D02*
X182571428Y-59249819D01*
X182571428Y-59249819D02*
X182428571Y-59202200D01*
X182428571Y-59202200D02*
X182333333Y-59106961D01*
X182333333Y-59106961D02*
X182285714Y-59011723D01*
X182285714Y-59011723D02*
X182238095Y-58821247D01*
X182238095Y-58821247D02*
X182238095Y-58678390D01*
X182238095Y-58678390D02*
X182285714Y-58487914D01*
X182285714Y-58487914D02*
X182333333Y-58392676D01*
X182333333Y-58392676D02*
X182428571Y-58297438D01*
X182428571Y-58297438D02*
X182571428Y-58249819D01*
X182571428Y-58249819D02*
X182666666Y-58249819D01*
X182666666Y-58249819D02*
X182809523Y-58297438D01*
X182809523Y-58297438D02*
X182857142Y-58345057D01*
X183809523Y-59249819D02*
X183238095Y-59249819D01*
X183523809Y-59249819D02*
X183523809Y-58249819D01*
X183523809Y-58249819D02*
X183428571Y-58392676D01*
X183428571Y-58392676D02*
X183333333Y-58487914D01*
X183333333Y-58487914D02*
X183238095Y-58535533D01*
X184285714Y-59249819D02*
X184476190Y-59249819D01*
X184476190Y-59249819D02*
X184571428Y-59202200D01*
X184571428Y-59202200D02*
X184619047Y-59154580D01*
X184619047Y-59154580D02*
X184714285Y-59011723D01*
X184714285Y-59011723D02*
X184761904Y-58821247D01*
X184761904Y-58821247D02*
X184761904Y-58440295D01*
X184761904Y-58440295D02*
X184714285Y-58345057D01*
X184714285Y-58345057D02*
X184666666Y-58297438D01*
X184666666Y-58297438D02*
X184571428Y-58249819D01*
X184571428Y-58249819D02*
X184380952Y-58249819D01*
X184380952Y-58249819D02*
X184285714Y-58297438D01*
X184285714Y-58297438D02*
X184238095Y-58345057D01*
X184238095Y-58345057D02*
X184190476Y-58440295D01*
X184190476Y-58440295D02*
X184190476Y-58678390D01*
X184190476Y-58678390D02*
X184238095Y-58773628D01*
X184238095Y-58773628D02*
X184285714Y-58821247D01*
X184285714Y-58821247D02*
X184380952Y-58868866D01*
X184380952Y-58868866D02*
X184571428Y-58868866D01*
X184571428Y-58868866D02*
X184666666Y-58821247D01*
X184666666Y-58821247D02*
X184714285Y-58773628D01*
X184714285Y-58773628D02*
X184761904Y-58678390D01*
X142607142Y-58859580D02*
X142559523Y-58907200D01*
X142559523Y-58907200D02*
X142416666Y-58954819D01*
X142416666Y-58954819D02*
X142321428Y-58954819D01*
X142321428Y-58954819D02*
X142178571Y-58907200D01*
X142178571Y-58907200D02*
X142083333Y-58811961D01*
X142083333Y-58811961D02*
X142035714Y-58716723D01*
X142035714Y-58716723D02*
X141988095Y-58526247D01*
X141988095Y-58526247D02*
X141988095Y-58383390D01*
X141988095Y-58383390D02*
X142035714Y-58192914D01*
X142035714Y-58192914D02*
X142083333Y-58097676D01*
X142083333Y-58097676D02*
X142178571Y-58002438D01*
X142178571Y-58002438D02*
X142321428Y-57954819D01*
X142321428Y-57954819D02*
X142416666Y-57954819D01*
X142416666Y-57954819D02*
X142559523Y-58002438D01*
X142559523Y-58002438D02*
X142607142Y-58050057D01*
X143559523Y-58954819D02*
X142988095Y-58954819D01*
X143273809Y-58954819D02*
X143273809Y-57954819D01*
X143273809Y-57954819D02*
X143178571Y-58097676D01*
X143178571Y-58097676D02*
X143083333Y-58192914D01*
X143083333Y-58192914D02*
X142988095Y-58240533D01*
X144416666Y-57954819D02*
X144226190Y-57954819D01*
X144226190Y-57954819D02*
X144130952Y-58002438D01*
X144130952Y-58002438D02*
X144083333Y-58050057D01*
X144083333Y-58050057D02*
X143988095Y-58192914D01*
X143988095Y-58192914D02*
X143940476Y-58383390D01*
X143940476Y-58383390D02*
X143940476Y-58764342D01*
X143940476Y-58764342D02*
X143988095Y-58859580D01*
X143988095Y-58859580D02*
X144035714Y-58907200D01*
X144035714Y-58907200D02*
X144130952Y-58954819D01*
X144130952Y-58954819D02*
X144321428Y-58954819D01*
X144321428Y-58954819D02*
X144416666Y-58907200D01*
X144416666Y-58907200D02*
X144464285Y-58859580D01*
X144464285Y-58859580D02*
X144511904Y-58764342D01*
X144511904Y-58764342D02*
X144511904Y-58526247D01*
X144511904Y-58526247D02*
X144464285Y-58431009D01*
X144464285Y-58431009D02*
X144416666Y-58383390D01*
X144416666Y-58383390D02*
X144321428Y-58335771D01*
X144321428Y-58335771D02*
X144130952Y-58335771D01*
X144130952Y-58335771D02*
X144035714Y-58383390D01*
X144035714Y-58383390D02*
X143988095Y-58431009D01*
X143988095Y-58431009D02*
X143940476Y-58526247D01*
X155704819Y-70518094D02*
X154704819Y-70518094D01*
X154704819Y-70518094D02*
X154704819Y-70279999D01*
X154704819Y-70279999D02*
X154752438Y-70137142D01*
X154752438Y-70137142D02*
X154847676Y-70041904D01*
X154847676Y-70041904D02*
X154942914Y-69994285D01*
X154942914Y-69994285D02*
X155133390Y-69946666D01*
X155133390Y-69946666D02*
X155276247Y-69946666D01*
X155276247Y-69946666D02*
X155466723Y-69994285D01*
X155466723Y-69994285D02*
X155561961Y-70041904D01*
X155561961Y-70041904D02*
X155657200Y-70137142D01*
X155657200Y-70137142D02*
X155704819Y-70279999D01*
X155704819Y-70279999D02*
X155704819Y-70518094D01*
X154704819Y-69613332D02*
X154704819Y-68994285D01*
X154704819Y-68994285D02*
X155085771Y-69327618D01*
X155085771Y-69327618D02*
X155085771Y-69184761D01*
X155085771Y-69184761D02*
X155133390Y-69089523D01*
X155133390Y-69089523D02*
X155181009Y-69041904D01*
X155181009Y-69041904D02*
X155276247Y-68994285D01*
X155276247Y-68994285D02*
X155514342Y-68994285D01*
X155514342Y-68994285D02*
X155609580Y-69041904D01*
X155609580Y-69041904D02*
X155657200Y-69089523D01*
X155657200Y-69089523D02*
X155704819Y-69184761D01*
X155704819Y-69184761D02*
X155704819Y-69470475D01*
X155704819Y-69470475D02*
X155657200Y-69565713D01*
X155657200Y-69565713D02*
X155609580Y-69613332D01*
X179307142Y-59249819D02*
X178973809Y-58773628D01*
X178735714Y-59249819D02*
X178735714Y-58249819D01*
X178735714Y-58249819D02*
X179116666Y-58249819D01*
X179116666Y-58249819D02*
X179211904Y-58297438D01*
X179211904Y-58297438D02*
X179259523Y-58345057D01*
X179259523Y-58345057D02*
X179307142Y-58440295D01*
X179307142Y-58440295D02*
X179307142Y-58583152D01*
X179307142Y-58583152D02*
X179259523Y-58678390D01*
X179259523Y-58678390D02*
X179211904Y-58726009D01*
X179211904Y-58726009D02*
X179116666Y-58773628D01*
X179116666Y-58773628D02*
X178735714Y-58773628D01*
X180259523Y-59249819D02*
X179688095Y-59249819D01*
X179973809Y-59249819D02*
X179973809Y-58249819D01*
X179973809Y-58249819D02*
X179878571Y-58392676D01*
X179878571Y-58392676D02*
X179783333Y-58487914D01*
X179783333Y-58487914D02*
X179688095Y-58535533D01*
X180592857Y-58249819D02*
X181211904Y-58249819D01*
X181211904Y-58249819D02*
X180878571Y-58630771D01*
X180878571Y-58630771D02*
X181021428Y-58630771D01*
X181021428Y-58630771D02*
X181116666Y-58678390D01*
X181116666Y-58678390D02*
X181164285Y-58726009D01*
X181164285Y-58726009D02*
X181211904Y-58821247D01*
X181211904Y-58821247D02*
X181211904Y-59059342D01*
X181211904Y-59059342D02*
X181164285Y-59154580D01*
X181164285Y-59154580D02*
X181116666Y-59202200D01*
X181116666Y-59202200D02*
X181021428Y-59249819D01*
X181021428Y-59249819D02*
X180735714Y-59249819D01*
X180735714Y-59249819D02*
X180640476Y-59202200D01*
X180640476Y-59202200D02*
X180592857Y-59154580D01*
X138607142Y-79134819D02*
X138273809Y-78658628D01*
X138035714Y-79134819D02*
X138035714Y-78134819D01*
X138035714Y-78134819D02*
X138416666Y-78134819D01*
X138416666Y-78134819D02*
X138511904Y-78182438D01*
X138511904Y-78182438D02*
X138559523Y-78230057D01*
X138559523Y-78230057D02*
X138607142Y-78325295D01*
X138607142Y-78325295D02*
X138607142Y-78468152D01*
X138607142Y-78468152D02*
X138559523Y-78563390D01*
X138559523Y-78563390D02*
X138511904Y-78611009D01*
X138511904Y-78611009D02*
X138416666Y-78658628D01*
X138416666Y-78658628D02*
X138035714Y-78658628D01*
X139559523Y-79134819D02*
X138988095Y-79134819D01*
X139273809Y-79134819D02*
X139273809Y-78134819D01*
X139273809Y-78134819D02*
X139178571Y-78277676D01*
X139178571Y-78277676D02*
X139083333Y-78372914D01*
X139083333Y-78372914D02*
X138988095Y-78420533D01*
X140416666Y-78468152D02*
X140416666Y-79134819D01*
X140178571Y-78087200D02*
X139940476Y-78801485D01*
X139940476Y-78801485D02*
X140559523Y-78801485D01*
X189333333Y-68204819D02*
X189000000Y-67728628D01*
X188761905Y-68204819D02*
X188761905Y-67204819D01*
X188761905Y-67204819D02*
X189142857Y-67204819D01*
X189142857Y-67204819D02*
X189238095Y-67252438D01*
X189238095Y-67252438D02*
X189285714Y-67300057D01*
X189285714Y-67300057D02*
X189333333Y-67395295D01*
X189333333Y-67395295D02*
X189333333Y-67538152D01*
X189333333Y-67538152D02*
X189285714Y-67633390D01*
X189285714Y-67633390D02*
X189238095Y-67681009D01*
X189238095Y-67681009D02*
X189142857Y-67728628D01*
X189142857Y-67728628D02*
X188761905Y-67728628D01*
X189809524Y-68204819D02*
X190000000Y-68204819D01*
X190000000Y-68204819D02*
X190095238Y-68157200D01*
X190095238Y-68157200D02*
X190142857Y-68109580D01*
X190142857Y-68109580D02*
X190238095Y-67966723D01*
X190238095Y-67966723D02*
X190285714Y-67776247D01*
X190285714Y-67776247D02*
X190285714Y-67395295D01*
X190285714Y-67395295D02*
X190238095Y-67300057D01*
X190238095Y-67300057D02*
X190190476Y-67252438D01*
X190190476Y-67252438D02*
X190095238Y-67204819D01*
X190095238Y-67204819D02*
X189904762Y-67204819D01*
X189904762Y-67204819D02*
X189809524Y-67252438D01*
X189809524Y-67252438D02*
X189761905Y-67300057D01*
X189761905Y-67300057D02*
X189714286Y-67395295D01*
X189714286Y-67395295D02*
X189714286Y-67633390D01*
X189714286Y-67633390D02*
X189761905Y-67728628D01*
X189761905Y-67728628D02*
X189809524Y-67776247D01*
X189809524Y-67776247D02*
X189904762Y-67823866D01*
X189904762Y-67823866D02*
X190095238Y-67823866D01*
X190095238Y-67823866D02*
X190190476Y-67776247D01*
X190190476Y-67776247D02*
X190238095Y-67728628D01*
X190238095Y-67728628D02*
X190285714Y-67633390D01*
X149059819Y-80659523D02*
X149774104Y-80659523D01*
X149774104Y-80659523D02*
X149916961Y-80707142D01*
X149916961Y-80707142D02*
X150012200Y-80802380D01*
X150012200Y-80802380D02*
X150059819Y-80945237D01*
X150059819Y-80945237D02*
X150059819Y-81040475D01*
X150059819Y-79659523D02*
X150059819Y-80230951D01*
X150059819Y-79945237D02*
X149059819Y-79945237D01*
X149059819Y-79945237D02*
X149202676Y-80040475D01*
X149202676Y-80040475D02*
X149297914Y-80135713D01*
X149297914Y-80135713D02*
X149345533Y-80230951D01*
X149393152Y-78802380D02*
X150059819Y-78802380D01*
X149012200Y-79040475D02*
X149726485Y-79278570D01*
X149726485Y-79278570D02*
X149726485Y-78659523D01*
X152532142Y-58999819D02*
X152198809Y-58523628D01*
X151960714Y-58999819D02*
X151960714Y-57999819D01*
X151960714Y-57999819D02*
X152341666Y-57999819D01*
X152341666Y-57999819D02*
X152436904Y-58047438D01*
X152436904Y-58047438D02*
X152484523Y-58095057D01*
X152484523Y-58095057D02*
X152532142Y-58190295D01*
X152532142Y-58190295D02*
X152532142Y-58333152D01*
X152532142Y-58333152D02*
X152484523Y-58428390D01*
X152484523Y-58428390D02*
X152436904Y-58476009D01*
X152436904Y-58476009D02*
X152341666Y-58523628D01*
X152341666Y-58523628D02*
X151960714Y-58523628D01*
X153484523Y-58999819D02*
X152913095Y-58999819D01*
X153198809Y-58999819D02*
X153198809Y-57999819D01*
X153198809Y-57999819D02*
X153103571Y-58142676D01*
X153103571Y-58142676D02*
X153008333Y-58237914D01*
X153008333Y-58237914D02*
X152913095Y-58285533D01*
X154436904Y-58999819D02*
X153865476Y-58999819D01*
X154151190Y-58999819D02*
X154151190Y-57999819D01*
X154151190Y-57999819D02*
X154055952Y-58142676D01*
X154055952Y-58142676D02*
X153960714Y-58237914D01*
X153960714Y-58237914D02*
X153865476Y-58285533D01*
X130808333Y-58904580D02*
X130760714Y-58952200D01*
X130760714Y-58952200D02*
X130617857Y-58999819D01*
X130617857Y-58999819D02*
X130522619Y-58999819D01*
X130522619Y-58999819D02*
X130379762Y-58952200D01*
X130379762Y-58952200D02*
X130284524Y-58856961D01*
X130284524Y-58856961D02*
X130236905Y-58761723D01*
X130236905Y-58761723D02*
X130189286Y-58571247D01*
X130189286Y-58571247D02*
X130189286Y-58428390D01*
X130189286Y-58428390D02*
X130236905Y-58237914D01*
X130236905Y-58237914D02*
X130284524Y-58142676D01*
X130284524Y-58142676D02*
X130379762Y-58047438D01*
X130379762Y-58047438D02*
X130522619Y-57999819D01*
X130522619Y-57999819D02*
X130617857Y-57999819D01*
X130617857Y-57999819D02*
X130760714Y-58047438D01*
X130760714Y-58047438D02*
X130808333Y-58095057D01*
X131141667Y-57999819D02*
X131808333Y-57999819D01*
X131808333Y-57999819D02*
X131379762Y-58999819D01*
X179997844Y-87115417D02*
X179950225Y-87163037D01*
X179950225Y-87163037D02*
X179807368Y-87210656D01*
X179807368Y-87210656D02*
X179712130Y-87210656D01*
X179712130Y-87210656D02*
X179569273Y-87163037D01*
X179569273Y-87163037D02*
X179474035Y-87067798D01*
X179474035Y-87067798D02*
X179426416Y-86972560D01*
X179426416Y-86972560D02*
X179378797Y-86782084D01*
X179378797Y-86782084D02*
X179378797Y-86639227D01*
X179378797Y-86639227D02*
X179426416Y-86448751D01*
X179426416Y-86448751D02*
X179474035Y-86353513D01*
X179474035Y-86353513D02*
X179569273Y-86258275D01*
X179569273Y-86258275D02*
X179712130Y-86210656D01*
X179712130Y-86210656D02*
X179807368Y-86210656D01*
X179807368Y-86210656D02*
X179950225Y-86258275D01*
X179950225Y-86258275D02*
X179997844Y-86305894D01*
X180950225Y-87210656D02*
X180378797Y-87210656D01*
X180664511Y-87210656D02*
X180664511Y-86210656D01*
X180664511Y-86210656D02*
X180569273Y-86353513D01*
X180569273Y-86353513D02*
X180474035Y-86448751D01*
X180474035Y-86448751D02*
X180378797Y-86496370D01*
X181807368Y-86543989D02*
X181807368Y-87210656D01*
X181569273Y-86163037D02*
X181331178Y-86877322D01*
X181331178Y-86877322D02*
X181950225Y-86877322D01*
X168012142Y-87115417D02*
X167964523Y-87163037D01*
X167964523Y-87163037D02*
X167821666Y-87210656D01*
X167821666Y-87210656D02*
X167726428Y-87210656D01*
X167726428Y-87210656D02*
X167583571Y-87163037D01*
X167583571Y-87163037D02*
X167488333Y-87067798D01*
X167488333Y-87067798D02*
X167440714Y-86972560D01*
X167440714Y-86972560D02*
X167393095Y-86782084D01*
X167393095Y-86782084D02*
X167393095Y-86639227D01*
X167393095Y-86639227D02*
X167440714Y-86448751D01*
X167440714Y-86448751D02*
X167488333Y-86353513D01*
X167488333Y-86353513D02*
X167583571Y-86258275D01*
X167583571Y-86258275D02*
X167726428Y-86210656D01*
X167726428Y-86210656D02*
X167821666Y-86210656D01*
X167821666Y-86210656D02*
X167964523Y-86258275D01*
X167964523Y-86258275D02*
X168012142Y-86305894D01*
X168964523Y-87210656D02*
X168393095Y-87210656D01*
X168678809Y-87210656D02*
X168678809Y-86210656D01*
X168678809Y-86210656D02*
X168583571Y-86353513D01*
X168583571Y-86353513D02*
X168488333Y-86448751D01*
X168488333Y-86448751D02*
X168393095Y-86496370D01*
X169297857Y-86210656D02*
X169916904Y-86210656D01*
X169916904Y-86210656D02*
X169583571Y-86591608D01*
X169583571Y-86591608D02*
X169726428Y-86591608D01*
X169726428Y-86591608D02*
X169821666Y-86639227D01*
X169821666Y-86639227D02*
X169869285Y-86686846D01*
X169869285Y-86686846D02*
X169916904Y-86782084D01*
X169916904Y-86782084D02*
X169916904Y-87020179D01*
X169916904Y-87020179D02*
X169869285Y-87115417D01*
X169869285Y-87115417D02*
X169821666Y-87163037D01*
X169821666Y-87163037D02*
X169726428Y-87210656D01*
X169726428Y-87210656D02*
X169440714Y-87210656D01*
X169440714Y-87210656D02*
X169345476Y-87163037D01*
X169345476Y-87163037D02*
X169297857Y-87115417D01*
X183769580Y-65737857D02*
X183817200Y-65785476D01*
X183817200Y-65785476D02*
X183864819Y-65928333D01*
X183864819Y-65928333D02*
X183864819Y-66023571D01*
X183864819Y-66023571D02*
X183817200Y-66166428D01*
X183817200Y-66166428D02*
X183721961Y-66261666D01*
X183721961Y-66261666D02*
X183626723Y-66309285D01*
X183626723Y-66309285D02*
X183436247Y-66356904D01*
X183436247Y-66356904D02*
X183293390Y-66356904D01*
X183293390Y-66356904D02*
X183102914Y-66309285D01*
X183102914Y-66309285D02*
X183007676Y-66261666D01*
X183007676Y-66261666D02*
X182912438Y-66166428D01*
X182912438Y-66166428D02*
X182864819Y-66023571D01*
X182864819Y-66023571D02*
X182864819Y-65928333D01*
X182864819Y-65928333D02*
X182912438Y-65785476D01*
X182912438Y-65785476D02*
X182960057Y-65737857D01*
X183864819Y-64785476D02*
X183864819Y-65356904D01*
X183864819Y-65071190D02*
X182864819Y-65071190D01*
X182864819Y-65071190D02*
X183007676Y-65166428D01*
X183007676Y-65166428D02*
X183102914Y-65261666D01*
X183102914Y-65261666D02*
X183150533Y-65356904D01*
X183864819Y-63833095D02*
X183864819Y-64404523D01*
X183864819Y-64118809D02*
X182864819Y-64118809D01*
X182864819Y-64118809D02*
X183007676Y-64214047D01*
X183007676Y-64214047D02*
X183102914Y-64309285D01*
X183102914Y-64309285D02*
X183150533Y-64404523D01*
X182600595Y-71404819D02*
X182600595Y-72214342D01*
X182600595Y-72214342D02*
X182648214Y-72309580D01*
X182648214Y-72309580D02*
X182695833Y-72357200D01*
X182695833Y-72357200D02*
X182791071Y-72404819D01*
X182791071Y-72404819D02*
X182981547Y-72404819D01*
X182981547Y-72404819D02*
X183076785Y-72357200D01*
X183076785Y-72357200D02*
X183124404Y-72309580D01*
X183124404Y-72309580D02*
X183172023Y-72214342D01*
X183172023Y-72214342D02*
X183172023Y-71404819D01*
X184172023Y-72404819D02*
X183600595Y-72404819D01*
X183886309Y-72404819D02*
X183886309Y-71404819D01*
X183886309Y-71404819D02*
X183791071Y-71547676D01*
X183791071Y-71547676D02*
X183695833Y-71642914D01*
X183695833Y-71642914D02*
X183600595Y-71690533D01*
X123475521Y-91769170D02*
X124189806Y-91769170D01*
X124189806Y-91769170D02*
X124332663Y-91816789D01*
X124332663Y-91816789D02*
X124427902Y-91912027D01*
X124427902Y-91912027D02*
X124475521Y-92054884D01*
X124475521Y-92054884D02*
X124475521Y-92150122D01*
X124475521Y-90769170D02*
X124475521Y-91340598D01*
X124475521Y-91054884D02*
X123475521Y-91054884D01*
X123475521Y-91054884D02*
X123618378Y-91150122D01*
X123618378Y-91150122D02*
X123713616Y-91245360D01*
X123713616Y-91245360D02*
X123761235Y-91340598D01*
D11*
X128093267Y-95028300D02*
X127617077Y-95028300D01*
X127617077Y-95028300D02*
X127617077Y-94028300D01*
X128426601Y-95028300D02*
X128426601Y-94361633D01*
X128426601Y-94028300D02*
X128378982Y-94075919D01*
X128378982Y-94075919D02*
X128426601Y-94123538D01*
X128426601Y-94123538D02*
X128474220Y-94075919D01*
X128474220Y-94075919D02*
X128426601Y-94028300D01*
X128426601Y-94028300D02*
X128426601Y-94123538D01*
X129331362Y-95028300D02*
X129331362Y-94028300D01*
X129331362Y-94980681D02*
X129236124Y-95028300D01*
X129236124Y-95028300D02*
X129045648Y-95028300D01*
X129045648Y-95028300D02*
X128950410Y-94980681D01*
X128950410Y-94980681D02*
X128902791Y-94933061D01*
X128902791Y-94933061D02*
X128855172Y-94837823D01*
X128855172Y-94837823D02*
X128855172Y-94552109D01*
X128855172Y-94552109D02*
X128902791Y-94456871D01*
X128902791Y-94456871D02*
X128950410Y-94409252D01*
X128950410Y-94409252D02*
X129045648Y-94361633D01*
X129045648Y-94361633D02*
X129236124Y-94361633D01*
X129236124Y-94361633D02*
X129331362Y-94409252D01*
D13*
X143808333Y-86679580D02*
X143760714Y-86727200D01*
X143760714Y-86727200D02*
X143617857Y-86774819D01*
X143617857Y-86774819D02*
X143522619Y-86774819D01*
X143522619Y-86774819D02*
X143379762Y-86727200D01*
X143379762Y-86727200D02*
X143284524Y-86631961D01*
X143284524Y-86631961D02*
X143236905Y-86536723D01*
X143236905Y-86536723D02*
X143189286Y-86346247D01*
X143189286Y-86346247D02*
X143189286Y-86203390D01*
X143189286Y-86203390D02*
X143236905Y-86012914D01*
X143236905Y-86012914D02*
X143284524Y-85917676D01*
X143284524Y-85917676D02*
X143379762Y-85822438D01*
X143379762Y-85822438D02*
X143522619Y-85774819D01*
X143522619Y-85774819D02*
X143617857Y-85774819D01*
X143617857Y-85774819D02*
X143760714Y-85822438D01*
X143760714Y-85822438D02*
X143808333Y-85870057D01*
X144665476Y-86108152D02*
X144665476Y-86774819D01*
X144427381Y-85727200D02*
X144189286Y-86441485D01*
X144189286Y-86441485D02*
X144808333Y-86441485D01*
X151937819Y-80236904D02*
X152747342Y-80236904D01*
X152747342Y-80236904D02*
X152842580Y-80189285D01*
X152842580Y-80189285D02*
X152890200Y-80141666D01*
X152890200Y-80141666D02*
X152937819Y-80046428D01*
X152937819Y-80046428D02*
X152937819Y-79855952D01*
X152937819Y-79855952D02*
X152890200Y-79760714D01*
X152890200Y-79760714D02*
X152842580Y-79713095D01*
X152842580Y-79713095D02*
X152747342Y-79665476D01*
X152747342Y-79665476D02*
X151937819Y-79665476D01*
X152033057Y-79236904D02*
X151985438Y-79189285D01*
X151985438Y-79189285D02*
X151937819Y-79094047D01*
X151937819Y-79094047D02*
X151937819Y-78855952D01*
X151937819Y-78855952D02*
X151985438Y-78760714D01*
X151985438Y-78760714D02*
X152033057Y-78713095D01*
X152033057Y-78713095D02*
X152128295Y-78665476D01*
X152128295Y-78665476D02*
X152223533Y-78665476D01*
X152223533Y-78665476D02*
X152366390Y-78713095D01*
X152366390Y-78713095D02*
X152937819Y-79284523D01*
X152937819Y-79284523D02*
X152937819Y-78665476D01*
X139083333Y-75134819D02*
X138750000Y-74658628D01*
X138511905Y-75134819D02*
X138511905Y-74134819D01*
X138511905Y-74134819D02*
X138892857Y-74134819D01*
X138892857Y-74134819D02*
X138988095Y-74182438D01*
X138988095Y-74182438D02*
X139035714Y-74230057D01*
X139035714Y-74230057D02*
X139083333Y-74325295D01*
X139083333Y-74325295D02*
X139083333Y-74468152D01*
X139083333Y-74468152D02*
X139035714Y-74563390D01*
X139035714Y-74563390D02*
X138988095Y-74611009D01*
X138988095Y-74611009D02*
X138892857Y-74658628D01*
X138892857Y-74658628D02*
X138511905Y-74658628D01*
X139464286Y-74230057D02*
X139511905Y-74182438D01*
X139511905Y-74182438D02*
X139607143Y-74134819D01*
X139607143Y-74134819D02*
X139845238Y-74134819D01*
X139845238Y-74134819D02*
X139940476Y-74182438D01*
X139940476Y-74182438D02*
X139988095Y-74230057D01*
X139988095Y-74230057D02*
X140035714Y-74325295D01*
X140035714Y-74325295D02*
X140035714Y-74420533D01*
X140035714Y-74420533D02*
X139988095Y-74563390D01*
X139988095Y-74563390D02*
X139416667Y-75134819D01*
X139416667Y-75134819D02*
X140035714Y-75134819D01*
X162849819Y-56534523D02*
X163564104Y-56534523D01*
X163564104Y-56534523D02*
X163706961Y-56582142D01*
X163706961Y-56582142D02*
X163802200Y-56677380D01*
X163802200Y-56677380D02*
X163849819Y-56820237D01*
X163849819Y-56820237D02*
X163849819Y-56915475D01*
X163849819Y-55534523D02*
X163849819Y-56105951D01*
X163849819Y-55820237D02*
X162849819Y-55820237D01*
X162849819Y-55820237D02*
X162992676Y-55915475D01*
X162992676Y-55915475D02*
X163087914Y-56010713D01*
X163087914Y-56010713D02*
X163135533Y-56105951D01*
X162945057Y-55153570D02*
X162897438Y-55105951D01*
X162897438Y-55105951D02*
X162849819Y-55010713D01*
X162849819Y-55010713D02*
X162849819Y-54772618D01*
X162849819Y-54772618D02*
X162897438Y-54677380D01*
X162897438Y-54677380D02*
X162945057Y-54629761D01*
X162945057Y-54629761D02*
X163040295Y-54582142D01*
X163040295Y-54582142D02*
X163135533Y-54582142D01*
X163135533Y-54582142D02*
X163278390Y-54629761D01*
X163278390Y-54629761D02*
X163849819Y-55201189D01*
X163849819Y-55201189D02*
X163849819Y-54582142D01*
X191928571Y-74283009D02*
X192071428Y-74330628D01*
X192071428Y-74330628D02*
X192119047Y-74378247D01*
X192119047Y-74378247D02*
X192166666Y-74473485D01*
X192166666Y-74473485D02*
X192166666Y-74616342D01*
X192166666Y-74616342D02*
X192119047Y-74711580D01*
X192119047Y-74711580D02*
X192071428Y-74759200D01*
X192071428Y-74759200D02*
X191976190Y-74806819D01*
X191976190Y-74806819D02*
X191595238Y-74806819D01*
X191595238Y-74806819D02*
X191595238Y-73806819D01*
X191595238Y-73806819D02*
X191928571Y-73806819D01*
X191928571Y-73806819D02*
X192023809Y-73854438D01*
X192023809Y-73854438D02*
X192071428Y-73902057D01*
X192071428Y-73902057D02*
X192119047Y-73997295D01*
X192119047Y-73997295D02*
X192119047Y-74092533D01*
X192119047Y-74092533D02*
X192071428Y-74187771D01*
X192071428Y-74187771D02*
X192023809Y-74235390D01*
X192023809Y-74235390D02*
X191928571Y-74283009D01*
X191928571Y-74283009D02*
X191595238Y-74283009D01*
X193023809Y-74806819D02*
X193023809Y-74283009D01*
X193023809Y-74283009D02*
X192976190Y-74187771D01*
X192976190Y-74187771D02*
X192880952Y-74140152D01*
X192880952Y-74140152D02*
X192690476Y-74140152D01*
X192690476Y-74140152D02*
X192595238Y-74187771D01*
X193023809Y-74759200D02*
X192928571Y-74806819D01*
X192928571Y-74806819D02*
X192690476Y-74806819D01*
X192690476Y-74806819D02*
X192595238Y-74759200D01*
X192595238Y-74759200D02*
X192547619Y-74663961D01*
X192547619Y-74663961D02*
X192547619Y-74568723D01*
X192547619Y-74568723D02*
X192595238Y-74473485D01*
X192595238Y-74473485D02*
X192690476Y-74425866D01*
X192690476Y-74425866D02*
X192928571Y-74425866D01*
X192928571Y-74425866D02*
X193023809Y-74378247D01*
X193357143Y-74140152D02*
X193738095Y-74140152D01*
X193500000Y-73806819D02*
X193500000Y-74663961D01*
X193500000Y-74663961D02*
X193547619Y-74759200D01*
X193547619Y-74759200D02*
X193642857Y-74806819D01*
X193642857Y-74806819D02*
X193738095Y-74806819D01*
X193928572Y-74140152D02*
X194309524Y-74140152D01*
X194071429Y-73806819D02*
X194071429Y-74663961D01*
X194071429Y-74663961D02*
X194119048Y-74759200D01*
X194119048Y-74759200D02*
X194214286Y-74806819D01*
X194214286Y-74806819D02*
X194309524Y-74806819D01*
X194642858Y-74425866D02*
X195404763Y-74425866D01*
X195023810Y-74806819D02*
X195023810Y-74044914D01*
X159107142Y-88609580D02*
X159059523Y-88657200D01*
X159059523Y-88657200D02*
X158916666Y-88704819D01*
X158916666Y-88704819D02*
X158821428Y-88704819D01*
X158821428Y-88704819D02*
X158678571Y-88657200D01*
X158678571Y-88657200D02*
X158583333Y-88561961D01*
X158583333Y-88561961D02*
X158535714Y-88466723D01*
X158535714Y-88466723D02*
X158488095Y-88276247D01*
X158488095Y-88276247D02*
X158488095Y-88133390D01*
X158488095Y-88133390D02*
X158535714Y-87942914D01*
X158535714Y-87942914D02*
X158583333Y-87847676D01*
X158583333Y-87847676D02*
X158678571Y-87752438D01*
X158678571Y-87752438D02*
X158821428Y-87704819D01*
X158821428Y-87704819D02*
X158916666Y-87704819D01*
X158916666Y-87704819D02*
X159059523Y-87752438D01*
X159059523Y-87752438D02*
X159107142Y-87800057D01*
X160059523Y-88704819D02*
X159488095Y-88704819D01*
X159773809Y-88704819D02*
X159773809Y-87704819D01*
X159773809Y-87704819D02*
X159678571Y-87847676D01*
X159678571Y-87847676D02*
X159583333Y-87942914D01*
X159583333Y-87942914D02*
X159488095Y-87990533D01*
X160440476Y-87800057D02*
X160488095Y-87752438D01*
X160488095Y-87752438D02*
X160583333Y-87704819D01*
X160583333Y-87704819D02*
X160821428Y-87704819D01*
X160821428Y-87704819D02*
X160916666Y-87752438D01*
X160916666Y-87752438D02*
X160964285Y-87800057D01*
X160964285Y-87800057D02*
X161011904Y-87895295D01*
X161011904Y-87895295D02*
X161011904Y-87990533D01*
X161011904Y-87990533D02*
X160964285Y-88133390D01*
X160964285Y-88133390D02*
X160392857Y-88704819D01*
X160392857Y-88704819D02*
X161011904Y-88704819D01*
D14*
%TO.C,J11*%
X150880000Y-57055000D02*
X150880000Y-55725000D01*
X152210000Y-57055000D02*
X150880000Y-57055000D01*
X153480000Y-54395000D02*
X158620000Y-54395000D01*
X153480000Y-57055000D02*
X153480000Y-54395000D01*
X153480000Y-57055000D02*
X158620000Y-57055000D01*
X158620000Y-57055000D02*
X158620000Y-54395000D01*
%TO.C,R8*%
X168090000Y-69612258D02*
X168090000Y-69137742D01*
X169135000Y-69612258D02*
X169135000Y-69137742D01*
%TO.C,C1*%
X99990000Y-86384420D02*
X99990000Y-86665580D01*
X101010000Y-86384420D02*
X101010000Y-86665580D01*
%TO.C,J7*%
X163230702Y-93265837D02*
X163230702Y-91935837D01*
X164560702Y-93265837D02*
X163230702Y-93265837D01*
X165830702Y-90605837D02*
X170970702Y-90605837D01*
X165830702Y-93265837D02*
X165830702Y-90605837D01*
X165830702Y-93265837D02*
X170970702Y-93265837D01*
X170970702Y-93265837D02*
X170970702Y-90605837D01*
%TO.C,J2*%
X138230702Y-93015837D02*
X138230702Y-91685837D01*
X139560702Y-93015837D02*
X138230702Y-93015837D01*
X140830702Y-90355837D02*
X145970702Y-90355837D01*
X140830702Y-93015837D02*
X140830702Y-90355837D01*
X140830702Y-93015837D02*
X145970702Y-93015837D01*
X145970702Y-93015837D02*
X145970702Y-90355837D01*
%TO.C,J10*%
X137790000Y-57055000D02*
X137790000Y-55725000D01*
X139120000Y-57055000D02*
X137790000Y-57055000D01*
X140390000Y-54395000D02*
X145530000Y-54395000D01*
X140390000Y-57055000D02*
X140390000Y-54395000D01*
X140390000Y-57055000D02*
X145530000Y-57055000D01*
X145530000Y-57055000D02*
X145530000Y-54395000D01*
%TO.C,C17*%
X156834420Y-59465000D02*
X157115580Y-59465000D01*
X156834420Y-60485000D02*
X157115580Y-60485000D01*
%TO.C,J5*%
X184880000Y-66080000D02*
X184880000Y-64750000D01*
X186210000Y-66080000D02*
X184880000Y-66080000D01*
X187480000Y-63420000D02*
X190080000Y-63420000D01*
X187480000Y-66080000D02*
X187480000Y-63420000D01*
X187480000Y-66080000D02*
X190080000Y-66080000D01*
X190080000Y-66080000D02*
X190080000Y-63420000D01*
%TO.C,R3*%
X156227500Y-66292742D02*
X156227500Y-66767258D01*
X157272500Y-66292742D02*
X157272500Y-66767258D01*
%TO.C,J4*%
X188777123Y-54573099D02*
X188777123Y-58593099D01*
X188777123Y-56073099D02*
X189777123Y-56073099D01*
X188777123Y-58593099D02*
X196497123Y-58593099D01*
X189277123Y-56883099D02*
X188777123Y-56883099D01*
X189277123Y-58093099D02*
X189277123Y-56883099D01*
X189777123Y-56073099D02*
X189777123Y-54573099D01*
X195497123Y-56073099D02*
X195497123Y-54573099D01*
X195997123Y-56883099D02*
X195997123Y-58093099D01*
X195997123Y-58093099D02*
X189277123Y-58093099D01*
X196497123Y-54573099D02*
X188777123Y-54573099D01*
X196497123Y-56073099D02*
X195497123Y-56073099D01*
X196497123Y-56883099D02*
X195997123Y-56883099D01*
X196497123Y-58593099D02*
X196497123Y-54573099D01*
X196797123Y-54273099D02*
X194297123Y-54273099D01*
X196797123Y-56773099D02*
X196797123Y-54273099D01*
%TO.C,C3*%
X129584420Y-86925837D02*
X129865580Y-86925837D01*
X129584420Y-87945837D02*
X129865580Y-87945837D01*
%TO.C,R5*%
X127337742Y-59452500D02*
X127812258Y-59452500D01*
X127337742Y-60497500D02*
X127812258Y-60497500D01*
%TO.C,C6*%
X180740000Y-77584420D02*
X180740000Y-77865580D01*
X181760000Y-77584420D02*
X181760000Y-77865580D01*
%TO.C,J8*%
X175480702Y-93265837D02*
X175480702Y-91935837D01*
X176810702Y-93265837D02*
X175480702Y-93265837D01*
X178080702Y-90605837D02*
X183220702Y-90605837D01*
X178080702Y-93265837D02*
X178080702Y-90605837D01*
X178080702Y-93265837D02*
X183220702Y-93265837D01*
X183220702Y-93265837D02*
X183220702Y-90605837D01*
%TO.C,R6*%
X156062258Y-84432500D02*
X155587742Y-84432500D01*
X156062258Y-85477500D02*
X155587742Y-85477500D01*
%TO.C,R4*%
X154477500Y-66292742D02*
X154477500Y-66767258D01*
X155522500Y-66292742D02*
X155522500Y-66767258D01*
%TO.C,R12*%
X166187742Y-59452500D02*
X166662258Y-59452500D01*
X166187742Y-60497500D02*
X166662258Y-60497500D01*
D15*
%TO.C,TB1*%
X101980000Y-52160000D02*
X101980000Y-95340000D01*
X101980000Y-95340000D02*
X119760000Y-95340000D01*
D16*
X107370000Y-93750000D02*
X107370000Y-95250000D01*
X107870000Y-93750000D02*
X111870000Y-93750000D01*
X110870000Y-93750000D02*
X107370000Y-93750000D01*
X110870000Y-93750000D02*
X114370000Y-93750000D01*
X114370000Y-93750000D02*
X114370000Y-95250000D01*
D15*
X119760000Y-52160000D02*
X101980000Y-52160000D01*
X119760000Y-95340000D02*
X119760000Y-52160000D01*
D11*
X120470000Y-91530000D02*
G75*
G02*
X120270000Y-91530000I-100000J0D01*
G01*
X120270000Y-91530000D02*
G75*
G02*
X120470000Y-91530000I100000J0D01*
G01*
D16*
%TO.C,D2*%
X156550000Y-72855000D02*
G75*
G02*
X156450000Y-72855000I-50000J0D01*
G01*
X156450000Y-72855000D02*
G75*
G02*
X156550000Y-72855000I50000J0D01*
G01*
D14*
%TO.C,R10*%
X139712742Y-59452500D02*
X140187258Y-59452500D01*
X139712742Y-60497500D02*
X140187258Y-60497500D01*
%TO.C,C9*%
X171890580Y-62740000D02*
X171609420Y-62740000D01*
X171890580Y-63760000D02*
X171609420Y-63760000D01*
%TO.C,J9*%
X188020702Y-93015837D02*
X188020702Y-91685837D01*
X189350702Y-93015837D02*
X188020702Y-93015837D01*
X190620702Y-90355837D02*
X195760702Y-90355837D01*
X190620702Y-93015837D02*
X190620702Y-90355837D01*
X190620702Y-93015837D02*
X195760702Y-93015837D01*
X195760702Y-93015837D02*
X195760702Y-90355837D01*
%TO.C,C5*%
X182990000Y-77634420D02*
X182990000Y-77915580D01*
X184010000Y-77634420D02*
X184010000Y-77915580D01*
%TO.C,R1*%
X135836359Y-75720000D02*
X136143641Y-75720000D01*
X135836359Y-76480000D02*
X136143641Y-76480000D01*
D15*
%TO.C,L1*%
X164362500Y-71850000D02*
X164362500Y-84350000D01*
X167562500Y-71850000D02*
X164362500Y-71850000D01*
X167562500Y-84350000D02*
X164362500Y-84350000D01*
X176862500Y-71850000D02*
X173662500Y-71850000D01*
X176862500Y-71850000D02*
X176862500Y-84350000D01*
X176862500Y-84350000D02*
X173662500Y-84350000D01*
D14*
%TO.C,C2*%
X99990000Y-82665580D02*
X99990000Y-82384420D01*
X101010000Y-82665580D02*
X101010000Y-82384420D01*
%TO.C,5V1*%
X162950000Y-66000000D02*
G75*
G02*
X161050000Y-66000000I-950000J0D01*
G01*
X161050000Y-66000000D02*
G75*
G02*
X162950000Y-66000000I950000J0D01*
G01*
%TO.C,C18*%
X170084420Y-59465000D02*
X170365580Y-59465000D01*
X170084420Y-60485000D02*
X170365580Y-60485000D01*
%TO.C,J6*%
X151310702Y-93265837D02*
X151310702Y-91935837D01*
X152640702Y-93265837D02*
X151310702Y-93265837D01*
X153910702Y-90605837D02*
X159050702Y-90605837D01*
X153910702Y-93265837D02*
X153910702Y-90605837D01*
X153910702Y-93265837D02*
X159050702Y-93265837D01*
X159050702Y-93265837D02*
X159050702Y-90605837D01*
%TO.C,Q1*%
X135340000Y-66840000D02*
X136600000Y-66840000D01*
X135340000Y-70600000D02*
X135340000Y-66840000D01*
X142160000Y-66840000D02*
X140900000Y-66840000D01*
X142160000Y-70600000D02*
X142160000Y-66840000D01*
X135440000Y-71880000D02*
X135110000Y-72120000D01*
X135110000Y-71640000D01*
X135440000Y-71880000D01*
G36*
X135440000Y-71880000D02*
G01*
X135110000Y-72120000D01*
X135110000Y-71640000D01*
X135440000Y-71880000D01*
G37*
%TO.C,J3*%
X124880000Y-57055000D02*
X124880000Y-55725000D01*
X126210000Y-57055000D02*
X124880000Y-57055000D01*
X127480000Y-54395000D02*
X132620000Y-54395000D01*
X127480000Y-57055000D02*
X127480000Y-54395000D01*
X127480000Y-57055000D02*
X132620000Y-57055000D01*
X132620000Y-57055000D02*
X132620000Y-54395000D01*
%TO.C,D1*%
X142015000Y-75115000D02*
X142015000Y-76585000D01*
X142015000Y-76585000D02*
X144300000Y-76585000D01*
X144300000Y-75115000D02*
X142015000Y-75115000D01*
%TO.C,J13*%
X177790000Y-57305000D02*
X177790000Y-55975000D01*
X179120000Y-57305000D02*
X177790000Y-57305000D01*
X180390000Y-54645000D02*
X185530000Y-54645000D01*
X180390000Y-57305000D02*
X180390000Y-54645000D01*
X180390000Y-57305000D02*
X185530000Y-57305000D01*
X185530000Y-57305000D02*
X185530000Y-54645000D01*
%TO.C,C10*%
X177640000Y-64892164D02*
X177640000Y-65107836D01*
X178360000Y-64892164D02*
X178360000Y-65107836D01*
%TO.C,C15*%
X193584420Y-86990000D02*
X193865580Y-86990000D01*
X193584420Y-88010000D02*
X193865580Y-88010000D01*
%TO.C,C8*%
X171865580Y-65740000D02*
X171584420Y-65740000D01*
X171865580Y-66760000D02*
X171584420Y-66760000D01*
%TO.C,D4*%
X176352500Y-67300000D02*
X176352500Y-70600000D01*
X176352500Y-67300000D02*
X181862500Y-67300000D01*
X176352500Y-70600000D02*
X181862500Y-70600000D01*
%TO.C,R7*%
X172590000Y-69212742D02*
X172590000Y-69687258D01*
X173635000Y-69212742D02*
X173635000Y-69687258D01*
%TO.C,L2*%
X174602500Y-65362779D02*
X174602500Y-65037221D01*
X175622500Y-65362779D02*
X175622500Y-65037221D01*
%TO.C,C19*%
X183584420Y-59715000D02*
X183865580Y-59715000D01*
X183584420Y-60735000D02*
X183865580Y-60735000D01*
%TO.C,C16*%
X143584420Y-59465000D02*
X143865580Y-59465000D01*
X143584420Y-60485000D02*
X143865580Y-60485000D01*
D16*
%TO.C,D3*%
X155300000Y-72840000D02*
G75*
G02*
X155200000Y-72840000I-50000J0D01*
G01*
X155200000Y-72840000D02*
G75*
G02*
X155300000Y-72840000I50000J0D01*
G01*
D14*
%TO.C,R13*%
X179712742Y-59702500D02*
X180187258Y-59702500D01*
X179712742Y-60747500D02*
X180187258Y-60747500D01*
%TO.C,R14*%
X139096359Y-79470000D02*
X139403641Y-79470000D01*
X139096359Y-80230000D02*
X139403641Y-80230000D01*
%TO.C,R9*%
X187331359Y-67120000D02*
X187638641Y-67120000D01*
X187331359Y-67880000D02*
X187638641Y-67880000D01*
%TO.C,J14*%
X143405000Y-78520000D02*
X143405000Y-81180000D01*
X146005000Y-78520000D02*
X143405000Y-78520000D01*
X146005000Y-78520000D02*
X146005000Y-81180000D01*
X146005000Y-81180000D02*
X143405000Y-81180000D01*
X147275000Y-78520000D02*
X148605000Y-78520000D01*
X148605000Y-78520000D02*
X148605000Y-79850000D01*
%TO.C,R11*%
X152937742Y-59452500D02*
X153412258Y-59452500D01*
X152937742Y-60497500D02*
X153412258Y-60497500D01*
%TO.C,C7*%
X130834420Y-59465000D02*
X131115580Y-59465000D01*
X130834420Y-60485000D02*
X131115580Y-60485000D01*
%TO.C,C14*%
X180500122Y-87675837D02*
X180781282Y-87675837D01*
X180500122Y-88695837D02*
X180781282Y-88695837D01*
%TO.C,C13*%
X168514420Y-87675837D02*
X168795580Y-87675837D01*
X168514420Y-88695837D02*
X168795580Y-88695837D01*
%TO.C,C11*%
X181890000Y-64987164D02*
X181890000Y-65202836D01*
X182610000Y-64987164D02*
X182610000Y-65202836D01*
%TO.C,U1*%
X183112500Y-72640000D02*
X182312500Y-72640000D01*
X183112500Y-72640000D02*
X183912500Y-72640000D01*
X183112500Y-75760000D02*
X182312500Y-75760000D01*
X183112500Y-75760000D02*
X183912500Y-75760000D01*
X181812500Y-72690000D02*
X181572500Y-72360000D01*
X182052500Y-72360000D01*
X181812500Y-72690000D01*
G36*
X181812500Y-72690000D02*
G01*
X181572500Y-72360000D01*
X182052500Y-72360000D01*
X181812500Y-72690000D01*
G37*
%TO.C,J1*%
X125020702Y-92765837D02*
X125020702Y-91435837D01*
X126350702Y-92765837D02*
X125020702Y-92765837D01*
X127620702Y-90105837D02*
X132760702Y-90105837D01*
X127620702Y-92765837D02*
X127620702Y-90105837D01*
X127620702Y-92765837D02*
X132760702Y-92765837D01*
X132760702Y-92765837D02*
X132760702Y-90105837D01*
%TO.C,C4*%
X143834420Y-87240000D02*
X144115580Y-87240000D01*
X143834420Y-88260000D02*
X144115580Y-88260000D01*
D15*
%TO.C,U2*%
X153295000Y-80680000D02*
X153295000Y-76680000D01*
X158395000Y-80680000D02*
X158395000Y-76680000D01*
D11*
X153440000Y-83125000D02*
G75*
G02*
X153240000Y-83125000I-100000J0D01*
G01*
X153240000Y-83125000D02*
G75*
G02*
X153440000Y-83125000I100000J0D01*
G01*
D14*
%TO.C,R2*%
X139096359Y-75470000D02*
X139403641Y-75470000D01*
X139096359Y-76230000D02*
X139403641Y-76230000D01*
%TO.C,J12*%
X164395000Y-57055000D02*
X164395000Y-55725000D01*
X165725000Y-57055000D02*
X164395000Y-57055000D01*
X166995000Y-54395000D02*
X172135000Y-54395000D01*
X166995000Y-57055000D02*
X166995000Y-54395000D01*
X166995000Y-57055000D02*
X172135000Y-57055000D01*
X172135000Y-57055000D02*
X172135000Y-54395000D01*
%TO.C,Batt+*%
X194450000Y-76000000D02*
G75*
G02*
X192550000Y-76000000I-950000J0D01*
G01*
X192550000Y-76000000D02*
G75*
G02*
X194450000Y-76000000I950000J0D01*
G01*
%TO.C,C12*%
X156655122Y-87675837D02*
X156936282Y-87675837D01*
X156655122Y-88695837D02*
X156936282Y-88695837D01*
%TD*%
M02*
