%TF.GenerationSoftware,KiCad,Pcbnew,8.0.7*%
%TF.CreationDate,2024-12-28T13:40:39+03:00*%
%TF.ProjectId,FiveSwitch,46697665-5377-4697-9463-682e6b696361,rev?*%
%TF.SameCoordinates,Original*%
%TF.FileFunction,AssemblyDrawing,Top*%
%FSLAX46Y46*%
G04 Gerber Fmt 4.6, Leading zero omitted, Abs format (unit mm)*
G04 Created by KiCad (PCBNEW 8.0.7) date 2024-12-28 13:40:39*
%MOMM*%
%LPD*%
G01*
G04 APERTURE LIST*
%ADD10C,0.150000*%
%ADD11C,0.060000*%
%ADD12C,0.040000*%
%ADD13C,0.120000*%
%ADD14C,0.100000*%
%ADD15C,0.127000*%
%ADD16C,0.200000*%
G04 APERTURE END LIST*
D10*
X160027200Y-56486904D02*
X160074819Y-56344047D01*
X160074819Y-56344047D02*
X160074819Y-56105952D01*
X160074819Y-56105952D02*
X160027200Y-56010714D01*
X160027200Y-56010714D02*
X159979580Y-55963095D01*
X159979580Y-55963095D02*
X159884342Y-55915476D01*
X159884342Y-55915476D02*
X159789104Y-55915476D01*
X159789104Y-55915476D02*
X159693866Y-55963095D01*
X159693866Y-55963095D02*
X159646247Y-56010714D01*
X159646247Y-56010714D02*
X159598628Y-56105952D01*
X159598628Y-56105952D02*
X159551009Y-56296428D01*
X159551009Y-56296428D02*
X159503390Y-56391666D01*
X159503390Y-56391666D02*
X159455771Y-56439285D01*
X159455771Y-56439285D02*
X159360533Y-56486904D01*
X159360533Y-56486904D02*
X159265295Y-56486904D01*
X159265295Y-56486904D02*
X159170057Y-56439285D01*
X159170057Y-56439285D02*
X159122438Y-56391666D01*
X159122438Y-56391666D02*
X159074819Y-56296428D01*
X159074819Y-56296428D02*
X159074819Y-56058333D01*
X159074819Y-56058333D02*
X159122438Y-55915476D01*
X159074819Y-55582142D02*
X159074819Y-54963095D01*
X159074819Y-54963095D02*
X159455771Y-55296428D01*
X159455771Y-55296428D02*
X159455771Y-55153571D01*
X159455771Y-55153571D02*
X159503390Y-55058333D01*
X159503390Y-55058333D02*
X159551009Y-55010714D01*
X159551009Y-55010714D02*
X159646247Y-54963095D01*
X159646247Y-54963095D02*
X159884342Y-54963095D01*
X159884342Y-54963095D02*
X159979580Y-55010714D01*
X159979580Y-55010714D02*
X160027200Y-55058333D01*
X160027200Y-55058333D02*
X160074819Y-55153571D01*
X160074819Y-55153571D02*
X160074819Y-55439285D01*
X160074819Y-55439285D02*
X160027200Y-55534523D01*
X160027200Y-55534523D02*
X159979580Y-55582142D01*
X153940476Y-55179819D02*
X153940476Y-55894104D01*
X153940476Y-55894104D02*
X153892857Y-56036961D01*
X153892857Y-56036961D02*
X153797619Y-56132200D01*
X153797619Y-56132200D02*
X153654762Y-56179819D01*
X153654762Y-56179819D02*
X153559524Y-56179819D01*
X154940476Y-56179819D02*
X154369048Y-56179819D01*
X154654762Y-56179819D02*
X154654762Y-55179819D01*
X154654762Y-55179819D02*
X154559524Y-55322676D01*
X154559524Y-55322676D02*
X154464286Y-55417914D01*
X154464286Y-55417914D02*
X154369048Y-55465533D01*
X155892857Y-56179819D02*
X155321429Y-56179819D01*
X155607143Y-56179819D02*
X155607143Y-55179819D01*
X155607143Y-55179819D02*
X155511905Y-55322676D01*
X155511905Y-55322676D02*
X155416667Y-55417914D01*
X155416667Y-55417914D02*
X155321429Y-55465533D01*
X170497319Y-69589285D02*
X170497319Y-70160713D01*
X170497319Y-69874999D02*
X169497319Y-69874999D01*
X169497319Y-69874999D02*
X169640176Y-69970237D01*
X169640176Y-69970237D02*
X169735414Y-70065475D01*
X169735414Y-70065475D02*
X169783033Y-70160713D01*
X170497319Y-69160713D02*
X169497319Y-69160713D01*
X170497319Y-68589285D02*
X169925890Y-69017856D01*
X169497319Y-68589285D02*
X170068747Y-69160713D01*
D11*
X168794427Y-69441666D02*
X168603951Y-69574999D01*
X168794427Y-69670237D02*
X168394427Y-69670237D01*
X168394427Y-69670237D02*
X168394427Y-69517856D01*
X168394427Y-69517856D02*
X168413475Y-69479761D01*
X168413475Y-69479761D02*
X168432522Y-69460714D01*
X168432522Y-69460714D02*
X168470618Y-69441666D01*
X168470618Y-69441666D02*
X168527760Y-69441666D01*
X168527760Y-69441666D02*
X168565856Y-69460714D01*
X168565856Y-69460714D02*
X168584903Y-69479761D01*
X168584903Y-69479761D02*
X168603951Y-69517856D01*
X168603951Y-69517856D02*
X168603951Y-69670237D01*
X168565856Y-69213095D02*
X168546808Y-69251190D01*
X168546808Y-69251190D02*
X168527760Y-69270237D01*
X168527760Y-69270237D02*
X168489665Y-69289285D01*
X168489665Y-69289285D02*
X168470618Y-69289285D01*
X168470618Y-69289285D02*
X168432522Y-69270237D01*
X168432522Y-69270237D02*
X168413475Y-69251190D01*
X168413475Y-69251190D02*
X168394427Y-69213095D01*
X168394427Y-69213095D02*
X168394427Y-69136904D01*
X168394427Y-69136904D02*
X168413475Y-69098809D01*
X168413475Y-69098809D02*
X168432522Y-69079761D01*
X168432522Y-69079761D02*
X168470618Y-69060714D01*
X168470618Y-69060714D02*
X168489665Y-69060714D01*
X168489665Y-69060714D02*
X168527760Y-69079761D01*
X168527760Y-69079761D02*
X168546808Y-69098809D01*
X168546808Y-69098809D02*
X168565856Y-69136904D01*
X168565856Y-69136904D02*
X168565856Y-69213095D01*
X168565856Y-69213095D02*
X168584903Y-69251190D01*
X168584903Y-69251190D02*
X168603951Y-69270237D01*
X168603951Y-69270237D02*
X168642046Y-69289285D01*
X168642046Y-69289285D02*
X168718237Y-69289285D01*
X168718237Y-69289285D02*
X168756332Y-69270237D01*
X168756332Y-69270237D02*
X168775380Y-69251190D01*
X168775380Y-69251190D02*
X168794427Y-69213095D01*
X168794427Y-69213095D02*
X168794427Y-69136904D01*
X168794427Y-69136904D02*
X168775380Y-69098809D01*
X168775380Y-69098809D02*
X168756332Y-69079761D01*
X168756332Y-69079761D02*
X168718237Y-69060714D01*
X168718237Y-69060714D02*
X168642046Y-69060714D01*
X168642046Y-69060714D02*
X168603951Y-69079761D01*
X168603951Y-69079761D02*
X168584903Y-69098809D01*
X168584903Y-69098809D02*
X168565856Y-69136904D01*
D10*
X101204819Y-90144285D02*
X101204819Y-90715713D01*
X101204819Y-90429999D02*
X100204819Y-90429999D01*
X100204819Y-90429999D02*
X100347676Y-90525237D01*
X100347676Y-90525237D02*
X100442914Y-90620475D01*
X100442914Y-90620475D02*
X100490533Y-90715713D01*
X100204819Y-89525237D02*
X100204819Y-89429999D01*
X100204819Y-89429999D02*
X100252438Y-89334761D01*
X100252438Y-89334761D02*
X100300057Y-89287142D01*
X100300057Y-89287142D02*
X100395295Y-89239523D01*
X100395295Y-89239523D02*
X100585771Y-89191904D01*
X100585771Y-89191904D02*
X100823866Y-89191904D01*
X100823866Y-89191904D02*
X101014342Y-89239523D01*
X101014342Y-89239523D02*
X101109580Y-89287142D01*
X101109580Y-89287142D02*
X101157200Y-89334761D01*
X101157200Y-89334761D02*
X101204819Y-89429999D01*
X101204819Y-89429999D02*
X101204819Y-89525237D01*
X101204819Y-89525237D02*
X101157200Y-89620475D01*
X101157200Y-89620475D02*
X101109580Y-89668094D01*
X101109580Y-89668094D02*
X101014342Y-89715713D01*
X101014342Y-89715713D02*
X100823866Y-89763332D01*
X100823866Y-89763332D02*
X100585771Y-89763332D01*
X100585771Y-89763332D02*
X100395295Y-89715713D01*
X100395295Y-89715713D02*
X100300057Y-89668094D01*
X100300057Y-89668094D02*
X100252438Y-89620475D01*
X100252438Y-89620475D02*
X100204819Y-89525237D01*
X100204819Y-88763332D02*
X101014342Y-88763332D01*
X101014342Y-88763332D02*
X101109580Y-88715713D01*
X101109580Y-88715713D02*
X101157200Y-88668094D01*
X101157200Y-88668094D02*
X101204819Y-88572856D01*
X101204819Y-88572856D02*
X101204819Y-88382380D01*
X101204819Y-88382380D02*
X101157200Y-88287142D01*
X101157200Y-88287142D02*
X101109580Y-88239523D01*
X101109580Y-88239523D02*
X101014342Y-88191904D01*
X101014342Y-88191904D02*
X100204819Y-88191904D01*
D11*
X100643832Y-86591666D02*
X100662880Y-86610714D01*
X100662880Y-86610714D02*
X100681927Y-86667856D01*
X100681927Y-86667856D02*
X100681927Y-86705952D01*
X100681927Y-86705952D02*
X100662880Y-86763095D01*
X100662880Y-86763095D02*
X100624784Y-86801190D01*
X100624784Y-86801190D02*
X100586689Y-86820237D01*
X100586689Y-86820237D02*
X100510499Y-86839285D01*
X100510499Y-86839285D02*
X100453356Y-86839285D01*
X100453356Y-86839285D02*
X100377165Y-86820237D01*
X100377165Y-86820237D02*
X100339070Y-86801190D01*
X100339070Y-86801190D02*
X100300975Y-86763095D01*
X100300975Y-86763095D02*
X100281927Y-86705952D01*
X100281927Y-86705952D02*
X100281927Y-86667856D01*
X100281927Y-86667856D02*
X100300975Y-86610714D01*
X100300975Y-86610714D02*
X100320022Y-86591666D01*
X100681927Y-86210714D02*
X100681927Y-86439285D01*
X100681927Y-86324999D02*
X100281927Y-86324999D01*
X100281927Y-86324999D02*
X100339070Y-86363095D01*
X100339070Y-86363095D02*
X100377165Y-86401190D01*
X100377165Y-86401190D02*
X100396213Y-86439285D01*
D10*
X166767368Y-91390656D02*
X166767368Y-92104941D01*
X166767368Y-92104941D02*
X166719749Y-92247798D01*
X166719749Y-92247798D02*
X166624511Y-92343037D01*
X166624511Y-92343037D02*
X166481654Y-92390656D01*
X166481654Y-92390656D02*
X166386416Y-92390656D01*
X167148321Y-91390656D02*
X167814987Y-91390656D01*
X167814987Y-91390656D02*
X167386416Y-92390656D01*
X141767368Y-91140656D02*
X141767368Y-91854941D01*
X141767368Y-91854941D02*
X141719749Y-91997798D01*
X141719749Y-91997798D02*
X141624511Y-92093037D01*
X141624511Y-92093037D02*
X141481654Y-92140656D01*
X141481654Y-92140656D02*
X141386416Y-92140656D01*
X142195940Y-91235894D02*
X142243559Y-91188275D01*
X142243559Y-91188275D02*
X142338797Y-91140656D01*
X142338797Y-91140656D02*
X142576892Y-91140656D01*
X142576892Y-91140656D02*
X142672130Y-91188275D01*
X142672130Y-91188275D02*
X142719749Y-91235894D01*
X142719749Y-91235894D02*
X142767368Y-91331132D01*
X142767368Y-91331132D02*
X142767368Y-91426370D01*
X142767368Y-91426370D02*
X142719749Y-91569227D01*
X142719749Y-91569227D02*
X142148321Y-92140656D01*
X142148321Y-92140656D02*
X142767368Y-92140656D01*
X146937200Y-56486904D02*
X146984819Y-56344047D01*
X146984819Y-56344047D02*
X146984819Y-56105952D01*
X146984819Y-56105952D02*
X146937200Y-56010714D01*
X146937200Y-56010714D02*
X146889580Y-55963095D01*
X146889580Y-55963095D02*
X146794342Y-55915476D01*
X146794342Y-55915476D02*
X146699104Y-55915476D01*
X146699104Y-55915476D02*
X146603866Y-55963095D01*
X146603866Y-55963095D02*
X146556247Y-56010714D01*
X146556247Y-56010714D02*
X146508628Y-56105952D01*
X146508628Y-56105952D02*
X146461009Y-56296428D01*
X146461009Y-56296428D02*
X146413390Y-56391666D01*
X146413390Y-56391666D02*
X146365771Y-56439285D01*
X146365771Y-56439285D02*
X146270533Y-56486904D01*
X146270533Y-56486904D02*
X146175295Y-56486904D01*
X146175295Y-56486904D02*
X146080057Y-56439285D01*
X146080057Y-56439285D02*
X146032438Y-56391666D01*
X146032438Y-56391666D02*
X145984819Y-56296428D01*
X145984819Y-56296428D02*
X145984819Y-56058333D01*
X145984819Y-56058333D02*
X146032438Y-55915476D01*
X146080057Y-55534523D02*
X146032438Y-55486904D01*
X146032438Y-55486904D02*
X145984819Y-55391666D01*
X145984819Y-55391666D02*
X145984819Y-55153571D01*
X145984819Y-55153571D02*
X146032438Y-55058333D01*
X146032438Y-55058333D02*
X146080057Y-55010714D01*
X146080057Y-55010714D02*
X146175295Y-54963095D01*
X146175295Y-54963095D02*
X146270533Y-54963095D01*
X146270533Y-54963095D02*
X146413390Y-55010714D01*
X146413390Y-55010714D02*
X146984819Y-55582142D01*
X146984819Y-55582142D02*
X146984819Y-54963095D01*
X140850476Y-55179819D02*
X140850476Y-55894104D01*
X140850476Y-55894104D02*
X140802857Y-56036961D01*
X140802857Y-56036961D02*
X140707619Y-56132200D01*
X140707619Y-56132200D02*
X140564762Y-56179819D01*
X140564762Y-56179819D02*
X140469524Y-56179819D01*
X141850476Y-56179819D02*
X141279048Y-56179819D01*
X141564762Y-56179819D02*
X141564762Y-55179819D01*
X141564762Y-55179819D02*
X141469524Y-55322676D01*
X141469524Y-55322676D02*
X141374286Y-55417914D01*
X141374286Y-55417914D02*
X141279048Y-55465533D01*
X142469524Y-55179819D02*
X142564762Y-55179819D01*
X142564762Y-55179819D02*
X142660000Y-55227438D01*
X142660000Y-55227438D02*
X142707619Y-55275057D01*
X142707619Y-55275057D02*
X142755238Y-55370295D01*
X142755238Y-55370295D02*
X142802857Y-55560771D01*
X142802857Y-55560771D02*
X142802857Y-55798866D01*
X142802857Y-55798866D02*
X142755238Y-55989342D01*
X142755238Y-55989342D02*
X142707619Y-56084580D01*
X142707619Y-56084580D02*
X142660000Y-56132200D01*
X142660000Y-56132200D02*
X142564762Y-56179819D01*
X142564762Y-56179819D02*
X142469524Y-56179819D01*
X142469524Y-56179819D02*
X142374286Y-56132200D01*
X142374286Y-56132200D02*
X142326667Y-56084580D01*
X142326667Y-56084580D02*
X142279048Y-55989342D01*
X142279048Y-55989342D02*
X142231429Y-55798866D01*
X142231429Y-55798866D02*
X142231429Y-55560771D01*
X142231429Y-55560771D02*
X142279048Y-55370295D01*
X142279048Y-55370295D02*
X142326667Y-55275057D01*
X142326667Y-55275057D02*
X142374286Y-55227438D01*
X142374286Y-55227438D02*
X142469524Y-55179819D01*
X156808333Y-61859819D02*
X156236905Y-61859819D01*
X156522619Y-61859819D02*
X156522619Y-60859819D01*
X156522619Y-60859819D02*
X156427381Y-61002676D01*
X156427381Y-61002676D02*
X156332143Y-61097914D01*
X156332143Y-61097914D02*
X156236905Y-61145533D01*
X157236905Y-61193152D02*
X157236905Y-61859819D01*
X157236905Y-61288390D02*
X157284524Y-61240771D01*
X157284524Y-61240771D02*
X157379762Y-61193152D01*
X157379762Y-61193152D02*
X157522619Y-61193152D01*
X157522619Y-61193152D02*
X157617857Y-61240771D01*
X157617857Y-61240771D02*
X157665476Y-61336009D01*
X157665476Y-61336009D02*
X157665476Y-61859819D01*
D11*
X156717857Y-60118832D02*
X156698809Y-60137880D01*
X156698809Y-60137880D02*
X156641667Y-60156927D01*
X156641667Y-60156927D02*
X156603571Y-60156927D01*
X156603571Y-60156927D02*
X156546428Y-60137880D01*
X156546428Y-60137880D02*
X156508333Y-60099784D01*
X156508333Y-60099784D02*
X156489286Y-60061689D01*
X156489286Y-60061689D02*
X156470238Y-59985499D01*
X156470238Y-59985499D02*
X156470238Y-59928356D01*
X156470238Y-59928356D02*
X156489286Y-59852165D01*
X156489286Y-59852165D02*
X156508333Y-59814070D01*
X156508333Y-59814070D02*
X156546428Y-59775975D01*
X156546428Y-59775975D02*
X156603571Y-59756927D01*
X156603571Y-59756927D02*
X156641667Y-59756927D01*
X156641667Y-59756927D02*
X156698809Y-59775975D01*
X156698809Y-59775975D02*
X156717857Y-59795022D01*
X157098809Y-60156927D02*
X156870238Y-60156927D01*
X156984524Y-60156927D02*
X156984524Y-59756927D01*
X156984524Y-59756927D02*
X156946428Y-59814070D01*
X156946428Y-59814070D02*
X156908333Y-59852165D01*
X156908333Y-59852165D02*
X156870238Y-59871213D01*
X157232142Y-59756927D02*
X157498809Y-59756927D01*
X157498809Y-59756927D02*
X157327380Y-60156927D01*
D10*
X190534819Y-67726190D02*
X190534819Y-68202380D01*
X190534819Y-68202380D02*
X191011009Y-68249999D01*
X191011009Y-68249999D02*
X190963390Y-68202380D01*
X190963390Y-68202380D02*
X190915771Y-68107142D01*
X190915771Y-68107142D02*
X190915771Y-67869047D01*
X190915771Y-67869047D02*
X190963390Y-67773809D01*
X190963390Y-67773809D02*
X191011009Y-67726190D01*
X191011009Y-67726190D02*
X191106247Y-67678571D01*
X191106247Y-67678571D02*
X191344342Y-67678571D01*
X191344342Y-67678571D02*
X191439580Y-67726190D01*
X191439580Y-67726190D02*
X191487200Y-67773809D01*
X191487200Y-67773809D02*
X191534819Y-67869047D01*
X191534819Y-67869047D02*
X191534819Y-68107142D01*
X191534819Y-68107142D02*
X191487200Y-68202380D01*
X191487200Y-68202380D02*
X191439580Y-68249999D01*
X190534819Y-67392856D02*
X191534819Y-67059523D01*
X191534819Y-67059523D02*
X190534819Y-66726190D01*
X191487200Y-65678570D02*
X191534819Y-65535713D01*
X191534819Y-65535713D02*
X191534819Y-65297618D01*
X191534819Y-65297618D02*
X191487200Y-65202380D01*
X191487200Y-65202380D02*
X191439580Y-65154761D01*
X191439580Y-65154761D02*
X191344342Y-65107142D01*
X191344342Y-65107142D02*
X191249104Y-65107142D01*
X191249104Y-65107142D02*
X191153866Y-65154761D01*
X191153866Y-65154761D02*
X191106247Y-65202380D01*
X191106247Y-65202380D02*
X191058628Y-65297618D01*
X191058628Y-65297618D02*
X191011009Y-65488094D01*
X191011009Y-65488094D02*
X190963390Y-65583332D01*
X190963390Y-65583332D02*
X190915771Y-65630951D01*
X190915771Y-65630951D02*
X190820533Y-65678570D01*
X190820533Y-65678570D02*
X190725295Y-65678570D01*
X190725295Y-65678570D02*
X190630057Y-65630951D01*
X190630057Y-65630951D02*
X190582438Y-65583332D01*
X190582438Y-65583332D02*
X190534819Y-65488094D01*
X190534819Y-65488094D02*
X190534819Y-65249999D01*
X190534819Y-65249999D02*
X190582438Y-65107142D01*
X190868152Y-64773808D02*
X191534819Y-64583332D01*
X191534819Y-64583332D02*
X191058628Y-64392856D01*
X191058628Y-64392856D02*
X191534819Y-64202380D01*
X191534819Y-64202380D02*
X190868152Y-64011904D01*
X191534819Y-63630951D02*
X190868152Y-63630951D01*
X190534819Y-63630951D02*
X190582438Y-63678570D01*
X190582438Y-63678570D02*
X190630057Y-63630951D01*
X190630057Y-63630951D02*
X190582438Y-63583332D01*
X190582438Y-63583332D02*
X190534819Y-63630951D01*
X190534819Y-63630951D02*
X190630057Y-63630951D01*
X190868152Y-63297618D02*
X190868152Y-62916666D01*
X190534819Y-63154761D02*
X191391961Y-63154761D01*
X191391961Y-63154761D02*
X191487200Y-63107142D01*
X191487200Y-63107142D02*
X191534819Y-63011904D01*
X191534819Y-63011904D02*
X191534819Y-62916666D01*
X191487200Y-62154761D02*
X191534819Y-62249999D01*
X191534819Y-62249999D02*
X191534819Y-62440475D01*
X191534819Y-62440475D02*
X191487200Y-62535713D01*
X191487200Y-62535713D02*
X191439580Y-62583332D01*
X191439580Y-62583332D02*
X191344342Y-62630951D01*
X191344342Y-62630951D02*
X191058628Y-62630951D01*
X191058628Y-62630951D02*
X190963390Y-62583332D01*
X190963390Y-62583332D02*
X190915771Y-62535713D01*
X190915771Y-62535713D02*
X190868152Y-62440475D01*
X190868152Y-62440475D02*
X190868152Y-62249999D01*
X190868152Y-62249999D02*
X190915771Y-62154761D01*
X191534819Y-61726189D02*
X190534819Y-61726189D01*
X191534819Y-61297618D02*
X191011009Y-61297618D01*
X191011009Y-61297618D02*
X190915771Y-61345237D01*
X190915771Y-61345237D02*
X190868152Y-61440475D01*
X190868152Y-61440475D02*
X190868152Y-61583332D01*
X190868152Y-61583332D02*
X190915771Y-61678570D01*
X190915771Y-61678570D02*
X190963390Y-61726189D01*
X187146666Y-64204819D02*
X187146666Y-64919104D01*
X187146666Y-64919104D02*
X187099047Y-65061961D01*
X187099047Y-65061961D02*
X187003809Y-65157200D01*
X187003809Y-65157200D02*
X186860952Y-65204819D01*
X186860952Y-65204819D02*
X186765714Y-65204819D01*
X188099047Y-64204819D02*
X187622857Y-64204819D01*
X187622857Y-64204819D02*
X187575238Y-64681009D01*
X187575238Y-64681009D02*
X187622857Y-64633390D01*
X187622857Y-64633390D02*
X187718095Y-64585771D01*
X187718095Y-64585771D02*
X187956190Y-64585771D01*
X187956190Y-64585771D02*
X188051428Y-64633390D01*
X188051428Y-64633390D02*
X188099047Y-64681009D01*
X188099047Y-64681009D02*
X188146666Y-64776247D01*
X188146666Y-64776247D02*
X188146666Y-65014342D01*
X188146666Y-65014342D02*
X188099047Y-65109580D01*
X188099047Y-65109580D02*
X188051428Y-65157200D01*
X188051428Y-65157200D02*
X187956190Y-65204819D01*
X187956190Y-65204819D02*
X187718095Y-65204819D01*
X187718095Y-65204819D02*
X187622857Y-65157200D01*
X187622857Y-65157200D02*
X187575238Y-65109580D01*
X155108152Y-67553809D02*
X155774819Y-67553809D01*
X154727200Y-67791904D02*
X155441485Y-68029999D01*
X155441485Y-68029999D02*
X155441485Y-67410952D01*
X155679580Y-67029999D02*
X155727200Y-66982380D01*
X155727200Y-66982380D02*
X155774819Y-67029999D01*
X155774819Y-67029999D02*
X155727200Y-67077618D01*
X155727200Y-67077618D02*
X155679580Y-67029999D01*
X155679580Y-67029999D02*
X155774819Y-67029999D01*
X154774819Y-66649047D02*
X154774819Y-65982381D01*
X154774819Y-65982381D02*
X155774819Y-66410952D01*
X155774819Y-65601428D02*
X154774819Y-65601428D01*
X155774819Y-65030000D02*
X155203390Y-65458571D01*
X154774819Y-65030000D02*
X155346247Y-65601428D01*
D11*
X156931927Y-66596666D02*
X156741451Y-66729999D01*
X156931927Y-66825237D02*
X156531927Y-66825237D01*
X156531927Y-66825237D02*
X156531927Y-66672856D01*
X156531927Y-66672856D02*
X156550975Y-66634761D01*
X156550975Y-66634761D02*
X156570022Y-66615714D01*
X156570022Y-66615714D02*
X156608118Y-66596666D01*
X156608118Y-66596666D02*
X156665260Y-66596666D01*
X156665260Y-66596666D02*
X156703356Y-66615714D01*
X156703356Y-66615714D02*
X156722403Y-66634761D01*
X156722403Y-66634761D02*
X156741451Y-66672856D01*
X156741451Y-66672856D02*
X156741451Y-66825237D01*
X156531927Y-66463333D02*
X156531927Y-66215714D01*
X156531927Y-66215714D02*
X156684308Y-66349047D01*
X156684308Y-66349047D02*
X156684308Y-66291904D01*
X156684308Y-66291904D02*
X156703356Y-66253809D01*
X156703356Y-66253809D02*
X156722403Y-66234761D01*
X156722403Y-66234761D02*
X156760499Y-66215714D01*
X156760499Y-66215714D02*
X156855737Y-66215714D01*
X156855737Y-66215714D02*
X156893832Y-66234761D01*
X156893832Y-66234761D02*
X156912880Y-66253809D01*
X156912880Y-66253809D02*
X156931927Y-66291904D01*
X156931927Y-66291904D02*
X156931927Y-66406190D01*
X156931927Y-66406190D02*
X156912880Y-66444285D01*
X156912880Y-66444285D02*
X156893832Y-66463333D01*
D10*
X192303789Y-54837918D02*
X192303789Y-55552203D01*
X192303789Y-55552203D02*
X192256170Y-55695060D01*
X192256170Y-55695060D02*
X192160932Y-55790299D01*
X192160932Y-55790299D02*
X192018075Y-55837918D01*
X192018075Y-55837918D02*
X191922837Y-55837918D01*
X193208551Y-55171251D02*
X193208551Y-55837918D01*
X192970456Y-54790299D02*
X192732361Y-55504584D01*
X192732361Y-55504584D02*
X193351408Y-55504584D01*
X129082142Y-89320656D02*
X128510714Y-89320656D01*
X128796428Y-89320656D02*
X128796428Y-88320656D01*
X128796428Y-88320656D02*
X128701190Y-88463513D01*
X128701190Y-88463513D02*
X128605952Y-88558751D01*
X128605952Y-88558751D02*
X128510714Y-88606370D01*
X129701190Y-88320656D02*
X129796428Y-88320656D01*
X129796428Y-88320656D02*
X129891666Y-88368275D01*
X129891666Y-88368275D02*
X129939285Y-88415894D01*
X129939285Y-88415894D02*
X129986904Y-88511132D01*
X129986904Y-88511132D02*
X130034523Y-88701608D01*
X130034523Y-88701608D02*
X130034523Y-88939703D01*
X130034523Y-88939703D02*
X129986904Y-89130179D01*
X129986904Y-89130179D02*
X129939285Y-89225417D01*
X129939285Y-89225417D02*
X129891666Y-89273037D01*
X129891666Y-89273037D02*
X129796428Y-89320656D01*
X129796428Y-89320656D02*
X129701190Y-89320656D01*
X129701190Y-89320656D02*
X129605952Y-89273037D01*
X129605952Y-89273037D02*
X129558333Y-89225417D01*
X129558333Y-89225417D02*
X129510714Y-89130179D01*
X129510714Y-89130179D02*
X129463095Y-88939703D01*
X129463095Y-88939703D02*
X129463095Y-88701608D01*
X129463095Y-88701608D02*
X129510714Y-88511132D01*
X129510714Y-88511132D02*
X129558333Y-88415894D01*
X129558333Y-88415894D02*
X129605952Y-88368275D01*
X129605952Y-88368275D02*
X129701190Y-88320656D01*
X130891666Y-88653989D02*
X130891666Y-89320656D01*
X130463095Y-88653989D02*
X130463095Y-89177798D01*
X130463095Y-89177798D02*
X130510714Y-89273037D01*
X130510714Y-89273037D02*
X130605952Y-89320656D01*
X130605952Y-89320656D02*
X130748809Y-89320656D01*
X130748809Y-89320656D02*
X130844047Y-89273037D01*
X130844047Y-89273037D02*
X130891666Y-89225417D01*
D11*
X129658333Y-87579669D02*
X129639285Y-87598717D01*
X129639285Y-87598717D02*
X129582143Y-87617764D01*
X129582143Y-87617764D02*
X129544047Y-87617764D01*
X129544047Y-87617764D02*
X129486904Y-87598717D01*
X129486904Y-87598717D02*
X129448809Y-87560621D01*
X129448809Y-87560621D02*
X129429762Y-87522526D01*
X129429762Y-87522526D02*
X129410714Y-87446336D01*
X129410714Y-87446336D02*
X129410714Y-87389193D01*
X129410714Y-87389193D02*
X129429762Y-87313002D01*
X129429762Y-87313002D02*
X129448809Y-87274907D01*
X129448809Y-87274907D02*
X129486904Y-87236812D01*
X129486904Y-87236812D02*
X129544047Y-87217764D01*
X129544047Y-87217764D02*
X129582143Y-87217764D01*
X129582143Y-87217764D02*
X129639285Y-87236812D01*
X129639285Y-87236812D02*
X129658333Y-87255859D01*
X129791666Y-87217764D02*
X130039285Y-87217764D01*
X130039285Y-87217764D02*
X129905952Y-87370145D01*
X129905952Y-87370145D02*
X129963095Y-87370145D01*
X129963095Y-87370145D02*
X130001190Y-87389193D01*
X130001190Y-87389193D02*
X130020238Y-87408240D01*
X130020238Y-87408240D02*
X130039285Y-87446336D01*
X130039285Y-87446336D02*
X130039285Y-87541574D01*
X130039285Y-87541574D02*
X130020238Y-87579669D01*
X130020238Y-87579669D02*
X130001190Y-87598717D01*
X130001190Y-87598717D02*
X129963095Y-87617764D01*
X129963095Y-87617764D02*
X129848809Y-87617764D01*
X129848809Y-87617764D02*
X129810714Y-87598717D01*
X129810714Y-87598717D02*
X129791666Y-87579669D01*
D10*
X126884523Y-61859819D02*
X126313095Y-61859819D01*
X126598809Y-61859819D02*
X126598809Y-60859819D01*
X126598809Y-60859819D02*
X126503571Y-61002676D01*
X126503571Y-61002676D02*
X126408333Y-61097914D01*
X126408333Y-61097914D02*
X126313095Y-61145533D01*
X127503571Y-60859819D02*
X127598809Y-60859819D01*
X127598809Y-60859819D02*
X127694047Y-60907438D01*
X127694047Y-60907438D02*
X127741666Y-60955057D01*
X127741666Y-60955057D02*
X127789285Y-61050295D01*
X127789285Y-61050295D02*
X127836904Y-61240771D01*
X127836904Y-61240771D02*
X127836904Y-61478866D01*
X127836904Y-61478866D02*
X127789285Y-61669342D01*
X127789285Y-61669342D02*
X127741666Y-61764580D01*
X127741666Y-61764580D02*
X127694047Y-61812200D01*
X127694047Y-61812200D02*
X127598809Y-61859819D01*
X127598809Y-61859819D02*
X127503571Y-61859819D01*
X127503571Y-61859819D02*
X127408333Y-61812200D01*
X127408333Y-61812200D02*
X127360714Y-61764580D01*
X127360714Y-61764580D02*
X127313095Y-61669342D01*
X127313095Y-61669342D02*
X127265476Y-61478866D01*
X127265476Y-61478866D02*
X127265476Y-61240771D01*
X127265476Y-61240771D02*
X127313095Y-61050295D01*
X127313095Y-61050295D02*
X127360714Y-60955057D01*
X127360714Y-60955057D02*
X127408333Y-60907438D01*
X127408333Y-60907438D02*
X127503571Y-60859819D01*
X128265476Y-61859819D02*
X128265476Y-60859819D01*
X128836904Y-61859819D02*
X128408333Y-61288390D01*
X128836904Y-60859819D02*
X128265476Y-61431247D01*
D11*
X127508333Y-60156927D02*
X127375000Y-59966451D01*
X127279762Y-60156927D02*
X127279762Y-59756927D01*
X127279762Y-59756927D02*
X127432143Y-59756927D01*
X127432143Y-59756927D02*
X127470238Y-59775975D01*
X127470238Y-59775975D02*
X127489285Y-59795022D01*
X127489285Y-59795022D02*
X127508333Y-59833118D01*
X127508333Y-59833118D02*
X127508333Y-59890260D01*
X127508333Y-59890260D02*
X127489285Y-59928356D01*
X127489285Y-59928356D02*
X127470238Y-59947403D01*
X127470238Y-59947403D02*
X127432143Y-59966451D01*
X127432143Y-59966451D02*
X127279762Y-59966451D01*
X127870238Y-59756927D02*
X127679762Y-59756927D01*
X127679762Y-59756927D02*
X127660714Y-59947403D01*
X127660714Y-59947403D02*
X127679762Y-59928356D01*
X127679762Y-59928356D02*
X127717857Y-59909308D01*
X127717857Y-59909308D02*
X127813095Y-59909308D01*
X127813095Y-59909308D02*
X127851190Y-59928356D01*
X127851190Y-59928356D02*
X127870238Y-59947403D01*
X127870238Y-59947403D02*
X127889285Y-59985499D01*
X127889285Y-59985499D02*
X127889285Y-60080737D01*
X127889285Y-60080737D02*
X127870238Y-60118832D01*
X127870238Y-60118832D02*
X127851190Y-60137880D01*
X127851190Y-60137880D02*
X127813095Y-60156927D01*
X127813095Y-60156927D02*
X127717857Y-60156927D01*
X127717857Y-60156927D02*
X127679762Y-60137880D01*
X127679762Y-60137880D02*
X127660714Y-60118832D01*
D10*
X179370057Y-79010713D02*
X179322438Y-78963094D01*
X179322438Y-78963094D02*
X179274819Y-78867856D01*
X179274819Y-78867856D02*
X179274819Y-78629761D01*
X179274819Y-78629761D02*
X179322438Y-78534523D01*
X179322438Y-78534523D02*
X179370057Y-78486904D01*
X179370057Y-78486904D02*
X179465295Y-78439285D01*
X179465295Y-78439285D02*
X179560533Y-78439285D01*
X179560533Y-78439285D02*
X179703390Y-78486904D01*
X179703390Y-78486904D02*
X180274819Y-79058332D01*
X180274819Y-79058332D02*
X180274819Y-78439285D01*
X179370057Y-78058332D02*
X179322438Y-78010713D01*
X179322438Y-78010713D02*
X179274819Y-77915475D01*
X179274819Y-77915475D02*
X179274819Y-77677380D01*
X179274819Y-77677380D02*
X179322438Y-77582142D01*
X179322438Y-77582142D02*
X179370057Y-77534523D01*
X179370057Y-77534523D02*
X179465295Y-77486904D01*
X179465295Y-77486904D02*
X179560533Y-77486904D01*
X179560533Y-77486904D02*
X179703390Y-77534523D01*
X179703390Y-77534523D02*
X180274819Y-78105951D01*
X180274819Y-78105951D02*
X180274819Y-77486904D01*
X179274819Y-77058332D02*
X180084342Y-77058332D01*
X180084342Y-77058332D02*
X180179580Y-77010713D01*
X180179580Y-77010713D02*
X180227200Y-76963094D01*
X180227200Y-76963094D02*
X180274819Y-76867856D01*
X180274819Y-76867856D02*
X180274819Y-76677380D01*
X180274819Y-76677380D02*
X180227200Y-76582142D01*
X180227200Y-76582142D02*
X180179580Y-76534523D01*
X180179580Y-76534523D02*
X180084342Y-76486904D01*
X180084342Y-76486904D02*
X179274819Y-76486904D01*
D11*
X181393832Y-77791666D02*
X181412880Y-77810714D01*
X181412880Y-77810714D02*
X181431927Y-77867856D01*
X181431927Y-77867856D02*
X181431927Y-77905952D01*
X181431927Y-77905952D02*
X181412880Y-77963095D01*
X181412880Y-77963095D02*
X181374784Y-78001190D01*
X181374784Y-78001190D02*
X181336689Y-78020237D01*
X181336689Y-78020237D02*
X181260499Y-78039285D01*
X181260499Y-78039285D02*
X181203356Y-78039285D01*
X181203356Y-78039285D02*
X181127165Y-78020237D01*
X181127165Y-78020237D02*
X181089070Y-78001190D01*
X181089070Y-78001190D02*
X181050975Y-77963095D01*
X181050975Y-77963095D02*
X181031927Y-77905952D01*
X181031927Y-77905952D02*
X181031927Y-77867856D01*
X181031927Y-77867856D02*
X181050975Y-77810714D01*
X181050975Y-77810714D02*
X181070022Y-77791666D01*
X181031927Y-77448809D02*
X181031927Y-77524999D01*
X181031927Y-77524999D02*
X181050975Y-77563095D01*
X181050975Y-77563095D02*
X181070022Y-77582142D01*
X181070022Y-77582142D02*
X181127165Y-77620237D01*
X181127165Y-77620237D02*
X181203356Y-77639285D01*
X181203356Y-77639285D02*
X181355737Y-77639285D01*
X181355737Y-77639285D02*
X181393832Y-77620237D01*
X181393832Y-77620237D02*
X181412880Y-77601190D01*
X181412880Y-77601190D02*
X181431927Y-77563095D01*
X181431927Y-77563095D02*
X181431927Y-77486904D01*
X181431927Y-77486904D02*
X181412880Y-77448809D01*
X181412880Y-77448809D02*
X181393832Y-77429761D01*
X181393832Y-77429761D02*
X181355737Y-77410714D01*
X181355737Y-77410714D02*
X181260499Y-77410714D01*
X181260499Y-77410714D02*
X181222403Y-77429761D01*
X181222403Y-77429761D02*
X181203356Y-77448809D01*
X181203356Y-77448809D02*
X181184308Y-77486904D01*
X181184308Y-77486904D02*
X181184308Y-77563095D01*
X181184308Y-77563095D02*
X181203356Y-77601190D01*
X181203356Y-77601190D02*
X181222403Y-77620237D01*
X181222403Y-77620237D02*
X181260499Y-77639285D01*
D10*
X179017368Y-91390656D02*
X179017368Y-92104941D01*
X179017368Y-92104941D02*
X178969749Y-92247798D01*
X178969749Y-92247798D02*
X178874511Y-92343037D01*
X178874511Y-92343037D02*
X178731654Y-92390656D01*
X178731654Y-92390656D02*
X178636416Y-92390656D01*
X179636416Y-91819227D02*
X179541178Y-91771608D01*
X179541178Y-91771608D02*
X179493559Y-91723989D01*
X179493559Y-91723989D02*
X179445940Y-91628751D01*
X179445940Y-91628751D02*
X179445940Y-91581132D01*
X179445940Y-91581132D02*
X179493559Y-91485894D01*
X179493559Y-91485894D02*
X179541178Y-91438275D01*
X179541178Y-91438275D02*
X179636416Y-91390656D01*
X179636416Y-91390656D02*
X179826892Y-91390656D01*
X179826892Y-91390656D02*
X179922130Y-91438275D01*
X179922130Y-91438275D02*
X179969749Y-91485894D01*
X179969749Y-91485894D02*
X180017368Y-91581132D01*
X180017368Y-91581132D02*
X180017368Y-91628751D01*
X180017368Y-91628751D02*
X179969749Y-91723989D01*
X179969749Y-91723989D02*
X179922130Y-91771608D01*
X179922130Y-91771608D02*
X179826892Y-91819227D01*
X179826892Y-91819227D02*
X179636416Y-91819227D01*
X179636416Y-91819227D02*
X179541178Y-91866846D01*
X179541178Y-91866846D02*
X179493559Y-91914465D01*
X179493559Y-91914465D02*
X179445940Y-92009703D01*
X179445940Y-92009703D02*
X179445940Y-92200179D01*
X179445940Y-92200179D02*
X179493559Y-92295417D01*
X179493559Y-92295417D02*
X179541178Y-92343037D01*
X179541178Y-92343037D02*
X179636416Y-92390656D01*
X179636416Y-92390656D02*
X179826892Y-92390656D01*
X179826892Y-92390656D02*
X179922130Y-92343037D01*
X179922130Y-92343037D02*
X179969749Y-92295417D01*
X179969749Y-92295417D02*
X180017368Y-92200179D01*
X180017368Y-92200179D02*
X180017368Y-92009703D01*
X180017368Y-92009703D02*
X179969749Y-91914465D01*
X179969749Y-91914465D02*
X179922130Y-91866846D01*
X179922130Y-91866846D02*
X179826892Y-91819227D01*
X154896428Y-83979819D02*
X154325000Y-83979819D01*
X154610714Y-83979819D02*
X154610714Y-82979819D01*
X154610714Y-82979819D02*
X154515476Y-83122676D01*
X154515476Y-83122676D02*
X154420238Y-83217914D01*
X154420238Y-83217914D02*
X154325000Y-83265533D01*
X155325000Y-83884580D02*
X155372619Y-83932200D01*
X155372619Y-83932200D02*
X155325000Y-83979819D01*
X155325000Y-83979819D02*
X155277381Y-83932200D01*
X155277381Y-83932200D02*
X155325000Y-83884580D01*
X155325000Y-83884580D02*
X155325000Y-83979819D01*
X155753571Y-83075057D02*
X155801190Y-83027438D01*
X155801190Y-83027438D02*
X155896428Y-82979819D01*
X155896428Y-82979819D02*
X156134523Y-82979819D01*
X156134523Y-82979819D02*
X156229761Y-83027438D01*
X156229761Y-83027438D02*
X156277380Y-83075057D01*
X156277380Y-83075057D02*
X156324999Y-83170295D01*
X156324999Y-83170295D02*
X156324999Y-83265533D01*
X156324999Y-83265533D02*
X156277380Y-83408390D01*
X156277380Y-83408390D02*
X155705952Y-83979819D01*
X155705952Y-83979819D02*
X156324999Y-83979819D01*
X156753571Y-83979819D02*
X156753571Y-82979819D01*
X157324999Y-83979819D02*
X156896428Y-83408390D01*
X157324999Y-82979819D02*
X156753571Y-83551247D01*
D11*
X155758333Y-85136927D02*
X155625000Y-84946451D01*
X155529762Y-85136927D02*
X155529762Y-84736927D01*
X155529762Y-84736927D02*
X155682143Y-84736927D01*
X155682143Y-84736927D02*
X155720238Y-84755975D01*
X155720238Y-84755975D02*
X155739285Y-84775022D01*
X155739285Y-84775022D02*
X155758333Y-84813118D01*
X155758333Y-84813118D02*
X155758333Y-84870260D01*
X155758333Y-84870260D02*
X155739285Y-84908356D01*
X155739285Y-84908356D02*
X155720238Y-84927403D01*
X155720238Y-84927403D02*
X155682143Y-84946451D01*
X155682143Y-84946451D02*
X155529762Y-84946451D01*
X156101190Y-84736927D02*
X156025000Y-84736927D01*
X156025000Y-84736927D02*
X155986904Y-84755975D01*
X155986904Y-84755975D02*
X155967857Y-84775022D01*
X155967857Y-84775022D02*
X155929762Y-84832165D01*
X155929762Y-84832165D02*
X155910714Y-84908356D01*
X155910714Y-84908356D02*
X155910714Y-85060737D01*
X155910714Y-85060737D02*
X155929762Y-85098832D01*
X155929762Y-85098832D02*
X155948809Y-85117880D01*
X155948809Y-85117880D02*
X155986904Y-85136927D01*
X155986904Y-85136927D02*
X156063095Y-85136927D01*
X156063095Y-85136927D02*
X156101190Y-85117880D01*
X156101190Y-85117880D02*
X156120238Y-85098832D01*
X156120238Y-85098832D02*
X156139285Y-85060737D01*
X156139285Y-85060737D02*
X156139285Y-84965499D01*
X156139285Y-84965499D02*
X156120238Y-84927403D01*
X156120238Y-84927403D02*
X156101190Y-84908356D01*
X156101190Y-84908356D02*
X156063095Y-84889308D01*
X156063095Y-84889308D02*
X155986904Y-84889308D01*
X155986904Y-84889308D02*
X155948809Y-84908356D01*
X155948809Y-84908356D02*
X155929762Y-84927403D01*
X155929762Y-84927403D02*
X155910714Y-84965499D01*
D10*
X153358152Y-67553809D02*
X154024819Y-67553809D01*
X152977200Y-67791904D02*
X153691485Y-68029999D01*
X153691485Y-68029999D02*
X153691485Y-67410952D01*
X153929580Y-67029999D02*
X153977200Y-66982380D01*
X153977200Y-66982380D02*
X154024819Y-67029999D01*
X154024819Y-67029999D02*
X153977200Y-67077618D01*
X153977200Y-67077618D02*
X153929580Y-67029999D01*
X153929580Y-67029999D02*
X154024819Y-67029999D01*
X153024819Y-66649047D02*
X153024819Y-65982381D01*
X153024819Y-65982381D02*
X154024819Y-66410952D01*
X154024819Y-65601428D02*
X153024819Y-65601428D01*
X154024819Y-65030000D02*
X153453390Y-65458571D01*
X153024819Y-65030000D02*
X153596247Y-65601428D01*
D11*
X155181927Y-66596666D02*
X154991451Y-66729999D01*
X155181927Y-66825237D02*
X154781927Y-66825237D01*
X154781927Y-66825237D02*
X154781927Y-66672856D01*
X154781927Y-66672856D02*
X154800975Y-66634761D01*
X154800975Y-66634761D02*
X154820022Y-66615714D01*
X154820022Y-66615714D02*
X154858118Y-66596666D01*
X154858118Y-66596666D02*
X154915260Y-66596666D01*
X154915260Y-66596666D02*
X154953356Y-66615714D01*
X154953356Y-66615714D02*
X154972403Y-66634761D01*
X154972403Y-66634761D02*
X154991451Y-66672856D01*
X154991451Y-66672856D02*
X154991451Y-66825237D01*
X154915260Y-66253809D02*
X155181927Y-66253809D01*
X154762880Y-66349047D02*
X155048594Y-66444285D01*
X155048594Y-66444285D02*
X155048594Y-66196666D01*
D10*
X165734523Y-61859819D02*
X165163095Y-61859819D01*
X165448809Y-61859819D02*
X165448809Y-60859819D01*
X165448809Y-60859819D02*
X165353571Y-61002676D01*
X165353571Y-61002676D02*
X165258333Y-61097914D01*
X165258333Y-61097914D02*
X165163095Y-61145533D01*
X166353571Y-60859819D02*
X166448809Y-60859819D01*
X166448809Y-60859819D02*
X166544047Y-60907438D01*
X166544047Y-60907438D02*
X166591666Y-60955057D01*
X166591666Y-60955057D02*
X166639285Y-61050295D01*
X166639285Y-61050295D02*
X166686904Y-61240771D01*
X166686904Y-61240771D02*
X166686904Y-61478866D01*
X166686904Y-61478866D02*
X166639285Y-61669342D01*
X166639285Y-61669342D02*
X166591666Y-61764580D01*
X166591666Y-61764580D02*
X166544047Y-61812200D01*
X166544047Y-61812200D02*
X166448809Y-61859819D01*
X166448809Y-61859819D02*
X166353571Y-61859819D01*
X166353571Y-61859819D02*
X166258333Y-61812200D01*
X166258333Y-61812200D02*
X166210714Y-61764580D01*
X166210714Y-61764580D02*
X166163095Y-61669342D01*
X166163095Y-61669342D02*
X166115476Y-61478866D01*
X166115476Y-61478866D02*
X166115476Y-61240771D01*
X166115476Y-61240771D02*
X166163095Y-61050295D01*
X166163095Y-61050295D02*
X166210714Y-60955057D01*
X166210714Y-60955057D02*
X166258333Y-60907438D01*
X166258333Y-60907438D02*
X166353571Y-60859819D01*
X167115476Y-61859819D02*
X167115476Y-60859819D01*
X167686904Y-61859819D02*
X167258333Y-61288390D01*
X167686904Y-60859819D02*
X167115476Y-61431247D01*
D11*
X166167857Y-60156927D02*
X166034524Y-59966451D01*
X165939286Y-60156927D02*
X165939286Y-59756927D01*
X165939286Y-59756927D02*
X166091667Y-59756927D01*
X166091667Y-59756927D02*
X166129762Y-59775975D01*
X166129762Y-59775975D02*
X166148809Y-59795022D01*
X166148809Y-59795022D02*
X166167857Y-59833118D01*
X166167857Y-59833118D02*
X166167857Y-59890260D01*
X166167857Y-59890260D02*
X166148809Y-59928356D01*
X166148809Y-59928356D02*
X166129762Y-59947403D01*
X166129762Y-59947403D02*
X166091667Y-59966451D01*
X166091667Y-59966451D02*
X165939286Y-59966451D01*
X166548809Y-60156927D02*
X166320238Y-60156927D01*
X166434524Y-60156927D02*
X166434524Y-59756927D01*
X166434524Y-59756927D02*
X166396428Y-59814070D01*
X166396428Y-59814070D02*
X166358333Y-59852165D01*
X166358333Y-59852165D02*
X166320238Y-59871213D01*
X166701190Y-59795022D02*
X166720238Y-59775975D01*
X166720238Y-59775975D02*
X166758333Y-59756927D01*
X166758333Y-59756927D02*
X166853571Y-59756927D01*
X166853571Y-59756927D02*
X166891666Y-59775975D01*
X166891666Y-59775975D02*
X166910714Y-59795022D01*
X166910714Y-59795022D02*
X166929761Y-59833118D01*
X166929761Y-59833118D02*
X166929761Y-59871213D01*
X166929761Y-59871213D02*
X166910714Y-59928356D01*
X166910714Y-59928356D02*
X166682142Y-60156927D01*
X166682142Y-60156927D02*
X166929761Y-60156927D01*
D10*
X121674104Y-91153570D02*
X121674104Y-90677380D01*
X121959819Y-91248808D02*
X120959819Y-90915475D01*
X120959819Y-90915475D02*
X121959819Y-90582142D01*
X121959819Y-89677380D02*
X121483628Y-90010713D01*
X121959819Y-90248808D02*
X120959819Y-90248808D01*
X120959819Y-90248808D02*
X120959819Y-89867856D01*
X120959819Y-89867856D02*
X121007438Y-89772618D01*
X121007438Y-89772618D02*
X121055057Y-89724999D01*
X121055057Y-89724999D02*
X121150295Y-89677380D01*
X121150295Y-89677380D02*
X121293152Y-89677380D01*
X121293152Y-89677380D02*
X121388390Y-89724999D01*
X121388390Y-89724999D02*
X121436009Y-89772618D01*
X121436009Y-89772618D02*
X121483628Y-89867856D01*
X121483628Y-89867856D02*
X121483628Y-90248808D01*
X121959819Y-89248808D02*
X120959819Y-89248808D01*
X120959819Y-89248808D02*
X120959819Y-89010713D01*
X120959819Y-89010713D02*
X121007438Y-88867856D01*
X121007438Y-88867856D02*
X121102676Y-88772618D01*
X121102676Y-88772618D02*
X121197914Y-88724999D01*
X121197914Y-88724999D02*
X121388390Y-88677380D01*
X121388390Y-88677380D02*
X121531247Y-88677380D01*
X121531247Y-88677380D02*
X121721723Y-88724999D01*
X121721723Y-88724999D02*
X121816961Y-88772618D01*
X121816961Y-88772618D02*
X121912200Y-88867856D01*
X121912200Y-88867856D02*
X121959819Y-89010713D01*
X121959819Y-89010713D02*
X121959819Y-89248808D01*
X120959819Y-88248808D02*
X121769342Y-88248808D01*
X121769342Y-88248808D02*
X121864580Y-88201189D01*
X121864580Y-88201189D02*
X121912200Y-88153570D01*
X121912200Y-88153570D02*
X121959819Y-88058332D01*
X121959819Y-88058332D02*
X121959819Y-87867856D01*
X121959819Y-87867856D02*
X121912200Y-87772618D01*
X121912200Y-87772618D02*
X121864580Y-87724999D01*
X121864580Y-87724999D02*
X121769342Y-87677380D01*
X121769342Y-87677380D02*
X120959819Y-87677380D01*
X121959819Y-87201189D02*
X120959819Y-87201189D01*
X121959819Y-86724999D02*
X120959819Y-86724999D01*
X120959819Y-86724999D02*
X121959819Y-86153571D01*
X121959819Y-86153571D02*
X120959819Y-86153571D01*
X120959819Y-85486904D02*
X120959819Y-85296428D01*
X120959819Y-85296428D02*
X121007438Y-85201190D01*
X121007438Y-85201190D02*
X121102676Y-85105952D01*
X121102676Y-85105952D02*
X121293152Y-85058333D01*
X121293152Y-85058333D02*
X121626485Y-85058333D01*
X121626485Y-85058333D02*
X121816961Y-85105952D01*
X121816961Y-85105952D02*
X121912200Y-85201190D01*
X121912200Y-85201190D02*
X121959819Y-85296428D01*
X121959819Y-85296428D02*
X121959819Y-85486904D01*
X121959819Y-85486904D02*
X121912200Y-85582142D01*
X121912200Y-85582142D02*
X121816961Y-85677380D01*
X121816961Y-85677380D02*
X121626485Y-85724999D01*
X121626485Y-85724999D02*
X121293152Y-85724999D01*
X121293152Y-85724999D02*
X121102676Y-85677380D01*
X121102676Y-85677380D02*
X121007438Y-85582142D01*
X121007438Y-85582142D02*
X120959819Y-85486904D01*
X122055057Y-84867857D02*
X122055057Y-84105952D01*
X121959819Y-83867856D02*
X120959819Y-83867856D01*
X120959819Y-83867856D02*
X121959819Y-83296428D01*
X121959819Y-83296428D02*
X120959819Y-83296428D01*
X121674104Y-82867856D02*
X121674104Y-82391666D01*
X121959819Y-82963094D02*
X120959819Y-82629761D01*
X120959819Y-82629761D02*
X121959819Y-82296428D01*
X121959819Y-81963094D02*
X120959819Y-81963094D01*
X120959819Y-81963094D02*
X121959819Y-81391666D01*
X121959819Y-81391666D02*
X120959819Y-81391666D01*
X120959819Y-80724999D02*
X120959819Y-80534523D01*
X120959819Y-80534523D02*
X121007438Y-80439285D01*
X121007438Y-80439285D02*
X121102676Y-80344047D01*
X121102676Y-80344047D02*
X121293152Y-80296428D01*
X121293152Y-80296428D02*
X121626485Y-80296428D01*
X121626485Y-80296428D02*
X121816961Y-80344047D01*
X121816961Y-80344047D02*
X121912200Y-80439285D01*
X121912200Y-80439285D02*
X121959819Y-80534523D01*
X121959819Y-80534523D02*
X121959819Y-80724999D01*
X121959819Y-80724999D02*
X121912200Y-80820237D01*
X121912200Y-80820237D02*
X121816961Y-80915475D01*
X121816961Y-80915475D02*
X121626485Y-80963094D01*
X121626485Y-80963094D02*
X121293152Y-80963094D01*
X121293152Y-80963094D02*
X121102676Y-80915475D01*
X121102676Y-80915475D02*
X121007438Y-80820237D01*
X121007438Y-80820237D02*
X120959819Y-80724999D01*
X158124819Y-72407857D02*
X157648628Y-72741190D01*
X158124819Y-72979285D02*
X157124819Y-72979285D01*
X157124819Y-72979285D02*
X157124819Y-72598333D01*
X157124819Y-72598333D02*
X157172438Y-72503095D01*
X157172438Y-72503095D02*
X157220057Y-72455476D01*
X157220057Y-72455476D02*
X157315295Y-72407857D01*
X157315295Y-72407857D02*
X157458152Y-72407857D01*
X157458152Y-72407857D02*
X157553390Y-72455476D01*
X157553390Y-72455476D02*
X157601009Y-72503095D01*
X157601009Y-72503095D02*
X157648628Y-72598333D01*
X157648628Y-72598333D02*
X157648628Y-72979285D01*
X157601009Y-71979285D02*
X157601009Y-71645952D01*
X158124819Y-71503095D02*
X158124819Y-71979285D01*
X158124819Y-71979285D02*
X157124819Y-71979285D01*
X157124819Y-71979285D02*
X157124819Y-71503095D01*
X158124819Y-71074523D02*
X157124819Y-71074523D01*
X157124819Y-71074523D02*
X157124819Y-70836428D01*
X157124819Y-70836428D02*
X157172438Y-70693571D01*
X157172438Y-70693571D02*
X157267676Y-70598333D01*
X157267676Y-70598333D02*
X157362914Y-70550714D01*
X157362914Y-70550714D02*
X157553390Y-70503095D01*
X157553390Y-70503095D02*
X157696247Y-70503095D01*
X157696247Y-70503095D02*
X157886723Y-70550714D01*
X157886723Y-70550714D02*
X157981961Y-70598333D01*
X157981961Y-70598333D02*
X158077200Y-70693571D01*
X158077200Y-70693571D02*
X158124819Y-70836428D01*
X158124819Y-70836428D02*
X158124819Y-71074523D01*
D12*
X156613574Y-71949523D02*
X156363574Y-71949523D01*
X156363574Y-71949523D02*
X156363574Y-71889999D01*
X156363574Y-71889999D02*
X156375479Y-71854285D01*
X156375479Y-71854285D02*
X156399289Y-71830475D01*
X156399289Y-71830475D02*
X156423098Y-71818570D01*
X156423098Y-71818570D02*
X156470717Y-71806666D01*
X156470717Y-71806666D02*
X156506431Y-71806666D01*
X156506431Y-71806666D02*
X156554050Y-71818570D01*
X156554050Y-71818570D02*
X156577860Y-71830475D01*
X156577860Y-71830475D02*
X156601670Y-71854285D01*
X156601670Y-71854285D02*
X156613574Y-71889999D01*
X156613574Y-71889999D02*
X156613574Y-71949523D01*
X156387384Y-71711427D02*
X156375479Y-71699523D01*
X156375479Y-71699523D02*
X156363574Y-71675713D01*
X156363574Y-71675713D02*
X156363574Y-71616189D01*
X156363574Y-71616189D02*
X156375479Y-71592380D01*
X156375479Y-71592380D02*
X156387384Y-71580475D01*
X156387384Y-71580475D02*
X156411193Y-71568570D01*
X156411193Y-71568570D02*
X156435003Y-71568570D01*
X156435003Y-71568570D02*
X156470717Y-71580475D01*
X156470717Y-71580475D02*
X156613574Y-71723332D01*
X156613574Y-71723332D02*
X156613574Y-71568570D01*
D10*
X139259523Y-61859819D02*
X138688095Y-61859819D01*
X138973809Y-61859819D02*
X138973809Y-60859819D01*
X138973809Y-60859819D02*
X138878571Y-61002676D01*
X138878571Y-61002676D02*
X138783333Y-61097914D01*
X138783333Y-61097914D02*
X138688095Y-61145533D01*
X139878571Y-60859819D02*
X139973809Y-60859819D01*
X139973809Y-60859819D02*
X140069047Y-60907438D01*
X140069047Y-60907438D02*
X140116666Y-60955057D01*
X140116666Y-60955057D02*
X140164285Y-61050295D01*
X140164285Y-61050295D02*
X140211904Y-61240771D01*
X140211904Y-61240771D02*
X140211904Y-61478866D01*
X140211904Y-61478866D02*
X140164285Y-61669342D01*
X140164285Y-61669342D02*
X140116666Y-61764580D01*
X140116666Y-61764580D02*
X140069047Y-61812200D01*
X140069047Y-61812200D02*
X139973809Y-61859819D01*
X139973809Y-61859819D02*
X139878571Y-61859819D01*
X139878571Y-61859819D02*
X139783333Y-61812200D01*
X139783333Y-61812200D02*
X139735714Y-61764580D01*
X139735714Y-61764580D02*
X139688095Y-61669342D01*
X139688095Y-61669342D02*
X139640476Y-61478866D01*
X139640476Y-61478866D02*
X139640476Y-61240771D01*
X139640476Y-61240771D02*
X139688095Y-61050295D01*
X139688095Y-61050295D02*
X139735714Y-60955057D01*
X139735714Y-60955057D02*
X139783333Y-60907438D01*
X139783333Y-60907438D02*
X139878571Y-60859819D01*
X140640476Y-61859819D02*
X140640476Y-60859819D01*
X141211904Y-61859819D02*
X140783333Y-61288390D01*
X141211904Y-60859819D02*
X140640476Y-61431247D01*
D11*
X139692857Y-60156927D02*
X139559524Y-59966451D01*
X139464286Y-60156927D02*
X139464286Y-59756927D01*
X139464286Y-59756927D02*
X139616667Y-59756927D01*
X139616667Y-59756927D02*
X139654762Y-59775975D01*
X139654762Y-59775975D02*
X139673809Y-59795022D01*
X139673809Y-59795022D02*
X139692857Y-59833118D01*
X139692857Y-59833118D02*
X139692857Y-59890260D01*
X139692857Y-59890260D02*
X139673809Y-59928356D01*
X139673809Y-59928356D02*
X139654762Y-59947403D01*
X139654762Y-59947403D02*
X139616667Y-59966451D01*
X139616667Y-59966451D02*
X139464286Y-59966451D01*
X140073809Y-60156927D02*
X139845238Y-60156927D01*
X139959524Y-60156927D02*
X139959524Y-59756927D01*
X139959524Y-59756927D02*
X139921428Y-59814070D01*
X139921428Y-59814070D02*
X139883333Y-59852165D01*
X139883333Y-59852165D02*
X139845238Y-59871213D01*
X140321428Y-59756927D02*
X140359523Y-59756927D01*
X140359523Y-59756927D02*
X140397619Y-59775975D01*
X140397619Y-59775975D02*
X140416666Y-59795022D01*
X140416666Y-59795022D02*
X140435714Y-59833118D01*
X140435714Y-59833118D02*
X140454761Y-59909308D01*
X140454761Y-59909308D02*
X140454761Y-60004546D01*
X140454761Y-60004546D02*
X140435714Y-60080737D01*
X140435714Y-60080737D02*
X140416666Y-60118832D01*
X140416666Y-60118832D02*
X140397619Y-60137880D01*
X140397619Y-60137880D02*
X140359523Y-60156927D01*
X140359523Y-60156927D02*
X140321428Y-60156927D01*
X140321428Y-60156927D02*
X140283333Y-60137880D01*
X140283333Y-60137880D02*
X140264285Y-60118832D01*
X140264285Y-60118832D02*
X140245238Y-60080737D01*
X140245238Y-60080737D02*
X140226190Y-60004546D01*
X140226190Y-60004546D02*
X140226190Y-59909308D01*
X140226190Y-59909308D02*
X140245238Y-59833118D01*
X140245238Y-59833118D02*
X140264285Y-59795022D01*
X140264285Y-59795022D02*
X140283333Y-59775975D01*
X140283333Y-59775975D02*
X140321428Y-59756927D01*
D10*
X171357142Y-62274819D02*
X170785714Y-62274819D01*
X171071428Y-62274819D02*
X171071428Y-61274819D01*
X171071428Y-61274819D02*
X170976190Y-61417676D01*
X170976190Y-61417676D02*
X170880952Y-61512914D01*
X170880952Y-61512914D02*
X170785714Y-61560533D01*
X171976190Y-61274819D02*
X172071428Y-61274819D01*
X172071428Y-61274819D02*
X172166666Y-61322438D01*
X172166666Y-61322438D02*
X172214285Y-61370057D01*
X172214285Y-61370057D02*
X172261904Y-61465295D01*
X172261904Y-61465295D02*
X172309523Y-61655771D01*
X172309523Y-61655771D02*
X172309523Y-61893866D01*
X172309523Y-61893866D02*
X172261904Y-62084342D01*
X172261904Y-62084342D02*
X172214285Y-62179580D01*
X172214285Y-62179580D02*
X172166666Y-62227200D01*
X172166666Y-62227200D02*
X172071428Y-62274819D01*
X172071428Y-62274819D02*
X171976190Y-62274819D01*
X171976190Y-62274819D02*
X171880952Y-62227200D01*
X171880952Y-62227200D02*
X171833333Y-62179580D01*
X171833333Y-62179580D02*
X171785714Y-62084342D01*
X171785714Y-62084342D02*
X171738095Y-61893866D01*
X171738095Y-61893866D02*
X171738095Y-61655771D01*
X171738095Y-61655771D02*
X171785714Y-61465295D01*
X171785714Y-61465295D02*
X171833333Y-61370057D01*
X171833333Y-61370057D02*
X171880952Y-61322438D01*
X171880952Y-61322438D02*
X171976190Y-61274819D01*
X172738095Y-61608152D02*
X172738095Y-62274819D01*
X172738095Y-61703390D02*
X172785714Y-61655771D01*
X172785714Y-61655771D02*
X172880952Y-61608152D01*
X172880952Y-61608152D02*
X173023809Y-61608152D01*
X173023809Y-61608152D02*
X173119047Y-61655771D01*
X173119047Y-61655771D02*
X173166666Y-61751009D01*
X173166666Y-61751009D02*
X173166666Y-62274819D01*
D11*
X171683333Y-63393832D02*
X171664285Y-63412880D01*
X171664285Y-63412880D02*
X171607143Y-63431927D01*
X171607143Y-63431927D02*
X171569047Y-63431927D01*
X171569047Y-63431927D02*
X171511904Y-63412880D01*
X171511904Y-63412880D02*
X171473809Y-63374784D01*
X171473809Y-63374784D02*
X171454762Y-63336689D01*
X171454762Y-63336689D02*
X171435714Y-63260499D01*
X171435714Y-63260499D02*
X171435714Y-63203356D01*
X171435714Y-63203356D02*
X171454762Y-63127165D01*
X171454762Y-63127165D02*
X171473809Y-63089070D01*
X171473809Y-63089070D02*
X171511904Y-63050975D01*
X171511904Y-63050975D02*
X171569047Y-63031927D01*
X171569047Y-63031927D02*
X171607143Y-63031927D01*
X171607143Y-63031927D02*
X171664285Y-63050975D01*
X171664285Y-63050975D02*
X171683333Y-63070022D01*
X171873809Y-63431927D02*
X171950000Y-63431927D01*
X171950000Y-63431927D02*
X171988095Y-63412880D01*
X171988095Y-63412880D02*
X172007143Y-63393832D01*
X172007143Y-63393832D02*
X172045238Y-63336689D01*
X172045238Y-63336689D02*
X172064285Y-63260499D01*
X172064285Y-63260499D02*
X172064285Y-63108118D01*
X172064285Y-63108118D02*
X172045238Y-63070022D01*
X172045238Y-63070022D02*
X172026190Y-63050975D01*
X172026190Y-63050975D02*
X171988095Y-63031927D01*
X171988095Y-63031927D02*
X171911904Y-63031927D01*
X171911904Y-63031927D02*
X171873809Y-63050975D01*
X171873809Y-63050975D02*
X171854762Y-63070022D01*
X171854762Y-63070022D02*
X171835714Y-63108118D01*
X171835714Y-63108118D02*
X171835714Y-63203356D01*
X171835714Y-63203356D02*
X171854762Y-63241451D01*
X171854762Y-63241451D02*
X171873809Y-63260499D01*
X171873809Y-63260499D02*
X171911904Y-63279546D01*
X171911904Y-63279546D02*
X171988095Y-63279546D01*
X171988095Y-63279546D02*
X172026190Y-63260499D01*
X172026190Y-63260499D02*
X172045238Y-63241451D01*
X172045238Y-63241451D02*
X172064285Y-63203356D01*
D10*
X191557368Y-91140656D02*
X191557368Y-91854941D01*
X191557368Y-91854941D02*
X191509749Y-91997798D01*
X191509749Y-91997798D02*
X191414511Y-92093037D01*
X191414511Y-92093037D02*
X191271654Y-92140656D01*
X191271654Y-92140656D02*
X191176416Y-92140656D01*
X192081178Y-92140656D02*
X192271654Y-92140656D01*
X192271654Y-92140656D02*
X192366892Y-92093037D01*
X192366892Y-92093037D02*
X192414511Y-92045417D01*
X192414511Y-92045417D02*
X192509749Y-91902560D01*
X192509749Y-91902560D02*
X192557368Y-91712084D01*
X192557368Y-91712084D02*
X192557368Y-91331132D01*
X192557368Y-91331132D02*
X192509749Y-91235894D01*
X192509749Y-91235894D02*
X192462130Y-91188275D01*
X192462130Y-91188275D02*
X192366892Y-91140656D01*
X192366892Y-91140656D02*
X192176416Y-91140656D01*
X192176416Y-91140656D02*
X192081178Y-91188275D01*
X192081178Y-91188275D02*
X192033559Y-91235894D01*
X192033559Y-91235894D02*
X191985940Y-91331132D01*
X191985940Y-91331132D02*
X191985940Y-91569227D01*
X191985940Y-91569227D02*
X192033559Y-91664465D01*
X192033559Y-91664465D02*
X192081178Y-91712084D01*
X192081178Y-91712084D02*
X192176416Y-91759703D01*
X192176416Y-91759703D02*
X192366892Y-91759703D01*
X192366892Y-91759703D02*
X192462130Y-91712084D01*
X192462130Y-91712084D02*
X192509749Y-91664465D01*
X192509749Y-91664465D02*
X192557368Y-91569227D01*
X182524819Y-79144047D02*
X182524819Y-79715475D01*
X182524819Y-79429761D02*
X181524819Y-79429761D01*
X181524819Y-79429761D02*
X181667676Y-79524999D01*
X181667676Y-79524999D02*
X181762914Y-79620237D01*
X181762914Y-79620237D02*
X181810533Y-79715475D01*
X181524819Y-78524999D02*
X181524819Y-78429761D01*
X181524819Y-78429761D02*
X181572438Y-78334523D01*
X181572438Y-78334523D02*
X181620057Y-78286904D01*
X181620057Y-78286904D02*
X181715295Y-78239285D01*
X181715295Y-78239285D02*
X181905771Y-78191666D01*
X181905771Y-78191666D02*
X182143866Y-78191666D01*
X182143866Y-78191666D02*
X182334342Y-78239285D01*
X182334342Y-78239285D02*
X182429580Y-78286904D01*
X182429580Y-78286904D02*
X182477200Y-78334523D01*
X182477200Y-78334523D02*
X182524819Y-78429761D01*
X182524819Y-78429761D02*
X182524819Y-78524999D01*
X182524819Y-78524999D02*
X182477200Y-78620237D01*
X182477200Y-78620237D02*
X182429580Y-78667856D01*
X182429580Y-78667856D02*
X182334342Y-78715475D01*
X182334342Y-78715475D02*
X182143866Y-78763094D01*
X182143866Y-78763094D02*
X181905771Y-78763094D01*
X181905771Y-78763094D02*
X181715295Y-78715475D01*
X181715295Y-78715475D02*
X181620057Y-78667856D01*
X181620057Y-78667856D02*
X181572438Y-78620237D01*
X181572438Y-78620237D02*
X181524819Y-78524999D01*
X181524819Y-77572618D02*
X181524819Y-77477380D01*
X181524819Y-77477380D02*
X181572438Y-77382142D01*
X181572438Y-77382142D02*
X181620057Y-77334523D01*
X181620057Y-77334523D02*
X181715295Y-77286904D01*
X181715295Y-77286904D02*
X181905771Y-77239285D01*
X181905771Y-77239285D02*
X182143866Y-77239285D01*
X182143866Y-77239285D02*
X182334342Y-77286904D01*
X182334342Y-77286904D02*
X182429580Y-77334523D01*
X182429580Y-77334523D02*
X182477200Y-77382142D01*
X182477200Y-77382142D02*
X182524819Y-77477380D01*
X182524819Y-77477380D02*
X182524819Y-77572618D01*
X182524819Y-77572618D02*
X182477200Y-77667856D01*
X182477200Y-77667856D02*
X182429580Y-77715475D01*
X182429580Y-77715475D02*
X182334342Y-77763094D01*
X182334342Y-77763094D02*
X182143866Y-77810713D01*
X182143866Y-77810713D02*
X181905771Y-77810713D01*
X181905771Y-77810713D02*
X181715295Y-77763094D01*
X181715295Y-77763094D02*
X181620057Y-77715475D01*
X181620057Y-77715475D02*
X181572438Y-77667856D01*
X181572438Y-77667856D02*
X181524819Y-77572618D01*
X181858152Y-76810713D02*
X182524819Y-76810713D01*
X181953390Y-76810713D02*
X181905771Y-76763094D01*
X181905771Y-76763094D02*
X181858152Y-76667856D01*
X181858152Y-76667856D02*
X181858152Y-76524999D01*
X181858152Y-76524999D02*
X181905771Y-76429761D01*
X181905771Y-76429761D02*
X182001009Y-76382142D01*
X182001009Y-76382142D02*
X182524819Y-76382142D01*
D11*
X183643832Y-77841666D02*
X183662880Y-77860714D01*
X183662880Y-77860714D02*
X183681927Y-77917856D01*
X183681927Y-77917856D02*
X183681927Y-77955952D01*
X183681927Y-77955952D02*
X183662880Y-78013095D01*
X183662880Y-78013095D02*
X183624784Y-78051190D01*
X183624784Y-78051190D02*
X183586689Y-78070237D01*
X183586689Y-78070237D02*
X183510499Y-78089285D01*
X183510499Y-78089285D02*
X183453356Y-78089285D01*
X183453356Y-78089285D02*
X183377165Y-78070237D01*
X183377165Y-78070237D02*
X183339070Y-78051190D01*
X183339070Y-78051190D02*
X183300975Y-78013095D01*
X183300975Y-78013095D02*
X183281927Y-77955952D01*
X183281927Y-77955952D02*
X183281927Y-77917856D01*
X183281927Y-77917856D02*
X183300975Y-77860714D01*
X183300975Y-77860714D02*
X183320022Y-77841666D01*
X183281927Y-77479761D02*
X183281927Y-77670237D01*
X183281927Y-77670237D02*
X183472403Y-77689285D01*
X183472403Y-77689285D02*
X183453356Y-77670237D01*
X183453356Y-77670237D02*
X183434308Y-77632142D01*
X183434308Y-77632142D02*
X183434308Y-77536904D01*
X183434308Y-77536904D02*
X183453356Y-77498809D01*
X183453356Y-77498809D02*
X183472403Y-77479761D01*
X183472403Y-77479761D02*
X183510499Y-77460714D01*
X183510499Y-77460714D02*
X183605737Y-77460714D01*
X183605737Y-77460714D02*
X183643832Y-77479761D01*
X183643832Y-77479761D02*
X183662880Y-77498809D01*
X183662880Y-77498809D02*
X183681927Y-77536904D01*
X183681927Y-77536904D02*
X183681927Y-77632142D01*
X183681927Y-77632142D02*
X183662880Y-77670237D01*
X183662880Y-77670237D02*
X183643832Y-77689285D01*
D10*
X135299523Y-77724819D02*
X134728095Y-77724819D01*
X135013809Y-77724819D02*
X135013809Y-76724819D01*
X135013809Y-76724819D02*
X134918571Y-76867676D01*
X134918571Y-76867676D02*
X134823333Y-76962914D01*
X134823333Y-76962914D02*
X134728095Y-77010533D01*
X135918571Y-76724819D02*
X136013809Y-76724819D01*
X136013809Y-76724819D02*
X136109047Y-76772438D01*
X136109047Y-76772438D02*
X136156666Y-76820057D01*
X136156666Y-76820057D02*
X136204285Y-76915295D01*
X136204285Y-76915295D02*
X136251904Y-77105771D01*
X136251904Y-77105771D02*
X136251904Y-77343866D01*
X136251904Y-77343866D02*
X136204285Y-77534342D01*
X136204285Y-77534342D02*
X136156666Y-77629580D01*
X136156666Y-77629580D02*
X136109047Y-77677200D01*
X136109047Y-77677200D02*
X136013809Y-77724819D01*
X136013809Y-77724819D02*
X135918571Y-77724819D01*
X135918571Y-77724819D02*
X135823333Y-77677200D01*
X135823333Y-77677200D02*
X135775714Y-77629580D01*
X135775714Y-77629580D02*
X135728095Y-77534342D01*
X135728095Y-77534342D02*
X135680476Y-77343866D01*
X135680476Y-77343866D02*
X135680476Y-77105771D01*
X135680476Y-77105771D02*
X135728095Y-76915295D01*
X135728095Y-76915295D02*
X135775714Y-76820057D01*
X135775714Y-76820057D02*
X135823333Y-76772438D01*
X135823333Y-76772438D02*
X135918571Y-76724819D01*
X136680476Y-77724819D02*
X136680476Y-76724819D01*
X137251904Y-77724819D02*
X136823333Y-77153390D01*
X137251904Y-76724819D02*
X136680476Y-77296247D01*
D12*
X135946667Y-76218200D02*
X135860000Y-76094391D01*
X135798095Y-76218200D02*
X135798095Y-75958200D01*
X135798095Y-75958200D02*
X135897143Y-75958200D01*
X135897143Y-75958200D02*
X135921905Y-75970581D01*
X135921905Y-75970581D02*
X135934286Y-75982962D01*
X135934286Y-75982962D02*
X135946667Y-76007724D01*
X135946667Y-76007724D02*
X135946667Y-76044867D01*
X135946667Y-76044867D02*
X135934286Y-76069629D01*
X135934286Y-76069629D02*
X135921905Y-76082010D01*
X135921905Y-76082010D02*
X135897143Y-76094391D01*
X135897143Y-76094391D02*
X135798095Y-76094391D01*
X136194286Y-76218200D02*
X136045714Y-76218200D01*
X136120000Y-76218200D02*
X136120000Y-75958200D01*
X136120000Y-75958200D02*
X136095238Y-75995343D01*
X136095238Y-75995343D02*
X136070476Y-76020105D01*
X136070476Y-76020105D02*
X136045714Y-76032486D01*
D10*
X163270423Y-85519632D02*
X163318124Y-85376526D01*
X163318124Y-85376526D02*
X163318124Y-85138017D01*
X163318124Y-85138017D02*
X163270423Y-85042613D01*
X163270423Y-85042613D02*
X163222721Y-84994911D01*
X163222721Y-84994911D02*
X163127317Y-84947209D01*
X163127317Y-84947209D02*
X163031913Y-84947209D01*
X163031913Y-84947209D02*
X162936509Y-84994911D01*
X162936509Y-84994911D02*
X162888807Y-85042613D01*
X162888807Y-85042613D02*
X162841105Y-85138017D01*
X162841105Y-85138017D02*
X162793403Y-85328824D01*
X162793403Y-85328824D02*
X162745702Y-85424228D01*
X162745702Y-85424228D02*
X162698000Y-85471930D01*
X162698000Y-85471930D02*
X162602596Y-85519632D01*
X162602596Y-85519632D02*
X162507192Y-85519632D01*
X162507192Y-85519632D02*
X162411788Y-85471930D01*
X162411788Y-85471930D02*
X162364086Y-85424228D01*
X162364086Y-85424228D02*
X162316384Y-85328824D01*
X162316384Y-85328824D02*
X162316384Y-85090315D01*
X162316384Y-85090315D02*
X162364086Y-84947209D01*
X163318124Y-83945469D02*
X162841105Y-84279382D01*
X163318124Y-84517892D02*
X162316384Y-84517892D01*
X162316384Y-84517892D02*
X162316384Y-84136277D01*
X162316384Y-84136277D02*
X162364086Y-84040873D01*
X162364086Y-84040873D02*
X162411788Y-83993171D01*
X162411788Y-83993171D02*
X162507192Y-83945469D01*
X162507192Y-83945469D02*
X162650298Y-83945469D01*
X162650298Y-83945469D02*
X162745702Y-83993171D01*
X162745702Y-83993171D02*
X162793403Y-84040873D01*
X162793403Y-84040873D02*
X162841105Y-84136277D01*
X162841105Y-84136277D02*
X162841105Y-84517892D01*
X163318124Y-82943729D02*
X162841105Y-83277642D01*
X163318124Y-83516152D02*
X162316384Y-83516152D01*
X162316384Y-83516152D02*
X162316384Y-83134537D01*
X162316384Y-83134537D02*
X162364086Y-83039133D01*
X162364086Y-83039133D02*
X162411788Y-82991431D01*
X162411788Y-82991431D02*
X162507192Y-82943729D01*
X162507192Y-82943729D02*
X162650298Y-82943729D01*
X162650298Y-82943729D02*
X162745702Y-82991431D01*
X162745702Y-82991431D02*
X162793403Y-83039133D01*
X162793403Y-83039133D02*
X162841105Y-83134537D01*
X162841105Y-83134537D02*
X162841105Y-83516152D01*
X163318124Y-81989691D02*
X163318124Y-82562114D01*
X163318124Y-82275902D02*
X162316384Y-82275902D01*
X162316384Y-82275902D02*
X162459490Y-82371306D01*
X162459490Y-82371306D02*
X162554894Y-82466710D01*
X162554894Y-82466710D02*
X162602596Y-82562114D01*
X162411788Y-81608076D02*
X162364086Y-81560374D01*
X162364086Y-81560374D02*
X162316384Y-81464970D01*
X162316384Y-81464970D02*
X162316384Y-81226461D01*
X162316384Y-81226461D02*
X162364086Y-81131057D01*
X162364086Y-81131057D02*
X162411788Y-81083355D01*
X162411788Y-81083355D02*
X162507192Y-81035653D01*
X162507192Y-81035653D02*
X162602596Y-81035653D01*
X162602596Y-81035653D02*
X162745702Y-81083355D01*
X162745702Y-81083355D02*
X163318124Y-81655778D01*
X163318124Y-81655778D02*
X163318124Y-81035653D01*
X162316384Y-80177019D02*
X162316384Y-80367826D01*
X162316384Y-80367826D02*
X162364086Y-80463230D01*
X162364086Y-80463230D02*
X162411788Y-80510932D01*
X162411788Y-80510932D02*
X162554894Y-80606336D01*
X162554894Y-80606336D02*
X162745702Y-80654038D01*
X162745702Y-80654038D02*
X163127317Y-80654038D01*
X163127317Y-80654038D02*
X163222721Y-80606336D01*
X163222721Y-80606336D02*
X163270423Y-80558634D01*
X163270423Y-80558634D02*
X163318124Y-80463230D01*
X163318124Y-80463230D02*
X163318124Y-80272423D01*
X163318124Y-80272423D02*
X163270423Y-80177019D01*
X163270423Y-80177019D02*
X163222721Y-80129317D01*
X163222721Y-80129317D02*
X163127317Y-80081615D01*
X163127317Y-80081615D02*
X162888807Y-80081615D01*
X162888807Y-80081615D02*
X162793403Y-80129317D01*
X162793403Y-80129317D02*
X162745702Y-80177019D01*
X162745702Y-80177019D02*
X162698000Y-80272423D01*
X162698000Y-80272423D02*
X162698000Y-80463230D01*
X162698000Y-80463230D02*
X162745702Y-80558634D01*
X162745702Y-80558634D02*
X162793403Y-80606336D01*
X162793403Y-80606336D02*
X162888807Y-80654038D01*
X162316384Y-79461490D02*
X162316384Y-79366087D01*
X162316384Y-79366087D02*
X162364086Y-79270683D01*
X162364086Y-79270683D02*
X162411788Y-79222981D01*
X162411788Y-79222981D02*
X162507192Y-79175279D01*
X162507192Y-79175279D02*
X162698000Y-79127577D01*
X162698000Y-79127577D02*
X162936509Y-79127577D01*
X162936509Y-79127577D02*
X163127317Y-79175279D01*
X163127317Y-79175279D02*
X163222721Y-79222981D01*
X163222721Y-79222981D02*
X163270423Y-79270683D01*
X163270423Y-79270683D02*
X163318124Y-79366087D01*
X163318124Y-79366087D02*
X163318124Y-79461490D01*
X163318124Y-79461490D02*
X163270423Y-79556894D01*
X163270423Y-79556894D02*
X163222721Y-79604596D01*
X163222721Y-79604596D02*
X163127317Y-79652298D01*
X163127317Y-79652298D02*
X162936509Y-79700000D01*
X162936509Y-79700000D02*
X162698000Y-79700000D01*
X162698000Y-79700000D02*
X162507192Y-79652298D01*
X162507192Y-79652298D02*
X162411788Y-79604596D01*
X162411788Y-79604596D02*
X162364086Y-79556894D01*
X162364086Y-79556894D02*
X162316384Y-79461490D01*
X162936509Y-78698260D02*
X162936509Y-77935030D01*
X162411788Y-77505712D02*
X162364086Y-77458010D01*
X162364086Y-77458010D02*
X162316384Y-77362606D01*
X162316384Y-77362606D02*
X162316384Y-77124097D01*
X162316384Y-77124097D02*
X162364086Y-77028693D01*
X162364086Y-77028693D02*
X162411788Y-76980991D01*
X162411788Y-76980991D02*
X162507192Y-76933289D01*
X162507192Y-76933289D02*
X162602596Y-76933289D01*
X162602596Y-76933289D02*
X162745702Y-76980991D01*
X162745702Y-76980991D02*
X163318124Y-77553414D01*
X163318124Y-77553414D02*
X163318124Y-76933289D01*
X162411788Y-76551674D02*
X162364086Y-76503972D01*
X162364086Y-76503972D02*
X162316384Y-76408568D01*
X162316384Y-76408568D02*
X162316384Y-76170059D01*
X162316384Y-76170059D02*
X162364086Y-76074655D01*
X162364086Y-76074655D02*
X162411788Y-76026953D01*
X162411788Y-76026953D02*
X162507192Y-75979251D01*
X162507192Y-75979251D02*
X162602596Y-75979251D01*
X162602596Y-75979251D02*
X162745702Y-76026953D01*
X162745702Y-76026953D02*
X163318124Y-76599376D01*
X163318124Y-76599376D02*
X163318124Y-75979251D01*
X162316384Y-75359126D02*
X162316384Y-75263723D01*
X162316384Y-75263723D02*
X162364086Y-75168319D01*
X162364086Y-75168319D02*
X162411788Y-75120617D01*
X162411788Y-75120617D02*
X162507192Y-75072915D01*
X162507192Y-75072915D02*
X162698000Y-75025213D01*
X162698000Y-75025213D02*
X162936509Y-75025213D01*
X162936509Y-75025213D02*
X163127317Y-75072915D01*
X163127317Y-75072915D02*
X163222721Y-75120617D01*
X163222721Y-75120617D02*
X163270423Y-75168319D01*
X163270423Y-75168319D02*
X163318124Y-75263723D01*
X163318124Y-75263723D02*
X163318124Y-75359126D01*
X163318124Y-75359126D02*
X163270423Y-75454530D01*
X163270423Y-75454530D02*
X163222721Y-75502232D01*
X163222721Y-75502232D02*
X163127317Y-75549934D01*
X163127317Y-75549934D02*
X162936509Y-75597636D01*
X162936509Y-75597636D02*
X162698000Y-75597636D01*
X162698000Y-75597636D02*
X162507192Y-75549934D01*
X162507192Y-75549934D02*
X162411788Y-75502232D01*
X162411788Y-75502232D02*
X162364086Y-75454530D01*
X162364086Y-75454530D02*
X162316384Y-75359126D01*
X163318124Y-74595896D02*
X162316384Y-74595896D01*
X162316384Y-74595896D02*
X163031913Y-74261983D01*
X163031913Y-74261983D02*
X162316384Y-73928069D01*
X162316384Y-73928069D02*
X163318124Y-73928069D01*
X102384819Y-82763095D02*
X102384819Y-83334523D01*
X102384819Y-83048809D02*
X101384819Y-83048809D01*
X101384819Y-83048809D02*
X101527676Y-83144047D01*
X101527676Y-83144047D02*
X101622914Y-83239285D01*
X101622914Y-83239285D02*
X101670533Y-83334523D01*
X101384819Y-82334523D02*
X102194342Y-82334523D01*
X102194342Y-82334523D02*
X102289580Y-82286904D01*
X102289580Y-82286904D02*
X102337200Y-82239285D01*
X102337200Y-82239285D02*
X102384819Y-82144047D01*
X102384819Y-82144047D02*
X102384819Y-81953571D01*
X102384819Y-81953571D02*
X102337200Y-81858333D01*
X102337200Y-81858333D02*
X102289580Y-81810714D01*
X102289580Y-81810714D02*
X102194342Y-81763095D01*
X102194342Y-81763095D02*
X101384819Y-81763095D01*
D11*
X100643832Y-82591666D02*
X100662880Y-82610714D01*
X100662880Y-82610714D02*
X100681927Y-82667856D01*
X100681927Y-82667856D02*
X100681927Y-82705952D01*
X100681927Y-82705952D02*
X100662880Y-82763095D01*
X100662880Y-82763095D02*
X100624784Y-82801190D01*
X100624784Y-82801190D02*
X100586689Y-82820237D01*
X100586689Y-82820237D02*
X100510499Y-82839285D01*
X100510499Y-82839285D02*
X100453356Y-82839285D01*
X100453356Y-82839285D02*
X100377165Y-82820237D01*
X100377165Y-82820237D02*
X100339070Y-82801190D01*
X100339070Y-82801190D02*
X100300975Y-82763095D01*
X100300975Y-82763095D02*
X100281927Y-82705952D01*
X100281927Y-82705952D02*
X100281927Y-82667856D01*
X100281927Y-82667856D02*
X100300975Y-82610714D01*
X100300975Y-82610714D02*
X100320022Y-82591666D01*
X100320022Y-82439285D02*
X100300975Y-82420237D01*
X100300975Y-82420237D02*
X100281927Y-82382142D01*
X100281927Y-82382142D02*
X100281927Y-82286904D01*
X100281927Y-82286904D02*
X100300975Y-82248809D01*
X100300975Y-82248809D02*
X100320022Y-82229761D01*
X100320022Y-82229761D02*
X100358118Y-82210714D01*
X100358118Y-82210714D02*
X100396213Y-82210714D01*
X100396213Y-82210714D02*
X100453356Y-82229761D01*
X100453356Y-82229761D02*
X100681927Y-82458333D01*
X100681927Y-82458333D02*
X100681927Y-82210714D01*
D10*
X161214286Y-67204819D02*
X161785714Y-67204819D01*
X161500000Y-68204819D02*
X161500000Y-67204819D01*
X162119048Y-68204819D02*
X162119048Y-67204819D01*
X162119048Y-67204819D02*
X162500000Y-67204819D01*
X162500000Y-67204819D02*
X162595238Y-67252438D01*
X162595238Y-67252438D02*
X162642857Y-67300057D01*
X162642857Y-67300057D02*
X162690476Y-67395295D01*
X162690476Y-67395295D02*
X162690476Y-67538152D01*
X162690476Y-67538152D02*
X162642857Y-67633390D01*
X162642857Y-67633390D02*
X162595238Y-67681009D01*
X162595238Y-67681009D02*
X162500000Y-67728628D01*
X162500000Y-67728628D02*
X162119048Y-67728628D01*
X161333333Y-63804819D02*
X160857143Y-63804819D01*
X160857143Y-63804819D02*
X160809524Y-64281009D01*
X160809524Y-64281009D02*
X160857143Y-64233390D01*
X160857143Y-64233390D02*
X160952381Y-64185771D01*
X160952381Y-64185771D02*
X161190476Y-64185771D01*
X161190476Y-64185771D02*
X161285714Y-64233390D01*
X161285714Y-64233390D02*
X161333333Y-64281009D01*
X161333333Y-64281009D02*
X161380952Y-64376247D01*
X161380952Y-64376247D02*
X161380952Y-64614342D01*
X161380952Y-64614342D02*
X161333333Y-64709580D01*
X161333333Y-64709580D02*
X161285714Y-64757200D01*
X161285714Y-64757200D02*
X161190476Y-64804819D01*
X161190476Y-64804819D02*
X160952381Y-64804819D01*
X160952381Y-64804819D02*
X160857143Y-64757200D01*
X160857143Y-64757200D02*
X160809524Y-64709580D01*
X161666667Y-63804819D02*
X162000000Y-64804819D01*
X162000000Y-64804819D02*
X162333333Y-63804819D01*
X163190476Y-64804819D02*
X162619048Y-64804819D01*
X162904762Y-64804819D02*
X162904762Y-63804819D01*
X162904762Y-63804819D02*
X162809524Y-63947676D01*
X162809524Y-63947676D02*
X162714286Y-64042914D01*
X162714286Y-64042914D02*
X162619048Y-64090533D01*
X170058333Y-61859819D02*
X169486905Y-61859819D01*
X169772619Y-61859819D02*
X169772619Y-60859819D01*
X169772619Y-60859819D02*
X169677381Y-61002676D01*
X169677381Y-61002676D02*
X169582143Y-61097914D01*
X169582143Y-61097914D02*
X169486905Y-61145533D01*
X170486905Y-61193152D02*
X170486905Y-61859819D01*
X170486905Y-61288390D02*
X170534524Y-61240771D01*
X170534524Y-61240771D02*
X170629762Y-61193152D01*
X170629762Y-61193152D02*
X170772619Y-61193152D01*
X170772619Y-61193152D02*
X170867857Y-61240771D01*
X170867857Y-61240771D02*
X170915476Y-61336009D01*
X170915476Y-61336009D02*
X170915476Y-61859819D01*
D11*
X169967857Y-60118832D02*
X169948809Y-60137880D01*
X169948809Y-60137880D02*
X169891667Y-60156927D01*
X169891667Y-60156927D02*
X169853571Y-60156927D01*
X169853571Y-60156927D02*
X169796428Y-60137880D01*
X169796428Y-60137880D02*
X169758333Y-60099784D01*
X169758333Y-60099784D02*
X169739286Y-60061689D01*
X169739286Y-60061689D02*
X169720238Y-59985499D01*
X169720238Y-59985499D02*
X169720238Y-59928356D01*
X169720238Y-59928356D02*
X169739286Y-59852165D01*
X169739286Y-59852165D02*
X169758333Y-59814070D01*
X169758333Y-59814070D02*
X169796428Y-59775975D01*
X169796428Y-59775975D02*
X169853571Y-59756927D01*
X169853571Y-59756927D02*
X169891667Y-59756927D01*
X169891667Y-59756927D02*
X169948809Y-59775975D01*
X169948809Y-59775975D02*
X169967857Y-59795022D01*
X170348809Y-60156927D02*
X170120238Y-60156927D01*
X170234524Y-60156927D02*
X170234524Y-59756927D01*
X170234524Y-59756927D02*
X170196428Y-59814070D01*
X170196428Y-59814070D02*
X170158333Y-59852165D01*
X170158333Y-59852165D02*
X170120238Y-59871213D01*
X170577380Y-59928356D02*
X170539285Y-59909308D01*
X170539285Y-59909308D02*
X170520238Y-59890260D01*
X170520238Y-59890260D02*
X170501190Y-59852165D01*
X170501190Y-59852165D02*
X170501190Y-59833118D01*
X170501190Y-59833118D02*
X170520238Y-59795022D01*
X170520238Y-59795022D02*
X170539285Y-59775975D01*
X170539285Y-59775975D02*
X170577380Y-59756927D01*
X170577380Y-59756927D02*
X170653571Y-59756927D01*
X170653571Y-59756927D02*
X170691666Y-59775975D01*
X170691666Y-59775975D02*
X170710714Y-59795022D01*
X170710714Y-59795022D02*
X170729761Y-59833118D01*
X170729761Y-59833118D02*
X170729761Y-59852165D01*
X170729761Y-59852165D02*
X170710714Y-59890260D01*
X170710714Y-59890260D02*
X170691666Y-59909308D01*
X170691666Y-59909308D02*
X170653571Y-59928356D01*
X170653571Y-59928356D02*
X170577380Y-59928356D01*
X170577380Y-59928356D02*
X170539285Y-59947403D01*
X170539285Y-59947403D02*
X170520238Y-59966451D01*
X170520238Y-59966451D02*
X170501190Y-60004546D01*
X170501190Y-60004546D02*
X170501190Y-60080737D01*
X170501190Y-60080737D02*
X170520238Y-60118832D01*
X170520238Y-60118832D02*
X170539285Y-60137880D01*
X170539285Y-60137880D02*
X170577380Y-60156927D01*
X170577380Y-60156927D02*
X170653571Y-60156927D01*
X170653571Y-60156927D02*
X170691666Y-60137880D01*
X170691666Y-60137880D02*
X170710714Y-60118832D01*
X170710714Y-60118832D02*
X170729761Y-60080737D01*
X170729761Y-60080737D02*
X170729761Y-60004546D01*
X170729761Y-60004546D02*
X170710714Y-59966451D01*
X170710714Y-59966451D02*
X170691666Y-59947403D01*
X170691666Y-59947403D02*
X170653571Y-59928356D01*
D10*
X154847368Y-91390656D02*
X154847368Y-92104941D01*
X154847368Y-92104941D02*
X154799749Y-92247798D01*
X154799749Y-92247798D02*
X154704511Y-92343037D01*
X154704511Y-92343037D02*
X154561654Y-92390656D01*
X154561654Y-92390656D02*
X154466416Y-92390656D01*
X155752130Y-91390656D02*
X155561654Y-91390656D01*
X155561654Y-91390656D02*
X155466416Y-91438275D01*
X155466416Y-91438275D02*
X155418797Y-91485894D01*
X155418797Y-91485894D02*
X155323559Y-91628751D01*
X155323559Y-91628751D02*
X155275940Y-91819227D01*
X155275940Y-91819227D02*
X155275940Y-92200179D01*
X155275940Y-92200179D02*
X155323559Y-92295417D01*
X155323559Y-92295417D02*
X155371178Y-92343037D01*
X155371178Y-92343037D02*
X155466416Y-92390656D01*
X155466416Y-92390656D02*
X155656892Y-92390656D01*
X155656892Y-92390656D02*
X155752130Y-92343037D01*
X155752130Y-92343037D02*
X155799749Y-92295417D01*
X155799749Y-92295417D02*
X155847368Y-92200179D01*
X155847368Y-92200179D02*
X155847368Y-91962084D01*
X155847368Y-91962084D02*
X155799749Y-91866846D01*
X155799749Y-91866846D02*
X155752130Y-91819227D01*
X155752130Y-91819227D02*
X155656892Y-91771608D01*
X155656892Y-91771608D02*
X155466416Y-91771608D01*
X155466416Y-91771608D02*
X155371178Y-91819227D01*
X155371178Y-91819227D02*
X155323559Y-91866846D01*
X155323559Y-91866846D02*
X155275940Y-91962084D01*
X143704819Y-72202380D02*
X142704819Y-72202380D01*
X142704819Y-72202380D02*
X142704819Y-71821428D01*
X142704819Y-71821428D02*
X142752438Y-71726190D01*
X142752438Y-71726190D02*
X142800057Y-71678571D01*
X142800057Y-71678571D02*
X142895295Y-71630952D01*
X142895295Y-71630952D02*
X143038152Y-71630952D01*
X143038152Y-71630952D02*
X143133390Y-71678571D01*
X143133390Y-71678571D02*
X143181009Y-71726190D01*
X143181009Y-71726190D02*
X143228628Y-71821428D01*
X143228628Y-71821428D02*
X143228628Y-72202380D01*
X142704819Y-71297618D02*
X142704819Y-70630952D01*
X142704819Y-70630952D02*
X143704819Y-71297618D01*
X143704819Y-71297618D02*
X143704819Y-70630952D01*
X142704819Y-70392856D02*
X142704819Y-69821428D01*
X143704819Y-70107142D02*
X142704819Y-70107142D01*
X142800057Y-69535713D02*
X142752438Y-69488094D01*
X142752438Y-69488094D02*
X142704819Y-69392856D01*
X142704819Y-69392856D02*
X142704819Y-69154761D01*
X142704819Y-69154761D02*
X142752438Y-69059523D01*
X142752438Y-69059523D02*
X142800057Y-69011904D01*
X142800057Y-69011904D02*
X142895295Y-68964285D01*
X142895295Y-68964285D02*
X142990533Y-68964285D01*
X142990533Y-68964285D02*
X143133390Y-69011904D01*
X143133390Y-69011904D02*
X143704819Y-69583332D01*
X143704819Y-69583332D02*
X143704819Y-68964285D01*
X142800057Y-68583332D02*
X142752438Y-68535713D01*
X142752438Y-68535713D02*
X142704819Y-68440475D01*
X142704819Y-68440475D02*
X142704819Y-68202380D01*
X142704819Y-68202380D02*
X142752438Y-68107142D01*
X142752438Y-68107142D02*
X142800057Y-68059523D01*
X142800057Y-68059523D02*
X142895295Y-68011904D01*
X142895295Y-68011904D02*
X142990533Y-68011904D01*
X142990533Y-68011904D02*
X143133390Y-68059523D01*
X143133390Y-68059523D02*
X143704819Y-68630951D01*
X143704819Y-68630951D02*
X143704819Y-68011904D01*
X142800057Y-67630951D02*
X142752438Y-67583332D01*
X142752438Y-67583332D02*
X142704819Y-67488094D01*
X142704819Y-67488094D02*
X142704819Y-67249999D01*
X142704819Y-67249999D02*
X142752438Y-67154761D01*
X142752438Y-67154761D02*
X142800057Y-67107142D01*
X142800057Y-67107142D02*
X142895295Y-67059523D01*
X142895295Y-67059523D02*
X142990533Y-67059523D01*
X142990533Y-67059523D02*
X143133390Y-67107142D01*
X143133390Y-67107142D02*
X143704819Y-67678570D01*
X143704819Y-67678570D02*
X143704819Y-67059523D01*
X142800057Y-66678570D02*
X142752438Y-66630951D01*
X142752438Y-66630951D02*
X142704819Y-66535713D01*
X142704819Y-66535713D02*
X142704819Y-66297618D01*
X142704819Y-66297618D02*
X142752438Y-66202380D01*
X142752438Y-66202380D02*
X142800057Y-66154761D01*
X142800057Y-66154761D02*
X142895295Y-66107142D01*
X142895295Y-66107142D02*
X142990533Y-66107142D01*
X142990533Y-66107142D02*
X143133390Y-66154761D01*
X143133390Y-66154761D02*
X143704819Y-66726189D01*
X143704819Y-66726189D02*
X143704819Y-66107142D01*
X143419104Y-65726189D02*
X143419104Y-65249999D01*
X143704819Y-65821427D02*
X142704819Y-65488094D01*
X142704819Y-65488094D02*
X143704819Y-65154761D01*
D13*
X138673809Y-69190045D02*
X138597619Y-69151950D01*
X138597619Y-69151950D02*
X138521428Y-69075760D01*
X138521428Y-69075760D02*
X138407142Y-68961474D01*
X138407142Y-68961474D02*
X138330952Y-68923379D01*
X138330952Y-68923379D02*
X138254761Y-68923379D01*
X138292857Y-69113855D02*
X138216666Y-69075760D01*
X138216666Y-69075760D02*
X138140476Y-68999569D01*
X138140476Y-68999569D02*
X138102380Y-68847188D01*
X138102380Y-68847188D02*
X138102380Y-68580521D01*
X138102380Y-68580521D02*
X138140476Y-68428140D01*
X138140476Y-68428140D02*
X138216666Y-68351950D01*
X138216666Y-68351950D02*
X138292857Y-68313855D01*
X138292857Y-68313855D02*
X138445238Y-68313855D01*
X138445238Y-68313855D02*
X138521428Y-68351950D01*
X138521428Y-68351950D02*
X138597619Y-68428140D01*
X138597619Y-68428140D02*
X138635714Y-68580521D01*
X138635714Y-68580521D02*
X138635714Y-68847188D01*
X138635714Y-68847188D02*
X138597619Y-68999569D01*
X138597619Y-68999569D02*
X138521428Y-69075760D01*
X138521428Y-69075760D02*
X138445238Y-69113855D01*
X138445238Y-69113855D02*
X138292857Y-69113855D01*
X139397618Y-69113855D02*
X138940475Y-69113855D01*
X139169047Y-69113855D02*
X139169047Y-68313855D01*
X139169047Y-68313855D02*
X139092856Y-68428140D01*
X139092856Y-68428140D02*
X139016666Y-68504331D01*
X139016666Y-68504331D02*
X138940475Y-68542426D01*
D10*
X134027200Y-56486904D02*
X134074819Y-56344047D01*
X134074819Y-56344047D02*
X134074819Y-56105952D01*
X134074819Y-56105952D02*
X134027200Y-56010714D01*
X134027200Y-56010714D02*
X133979580Y-55963095D01*
X133979580Y-55963095D02*
X133884342Y-55915476D01*
X133884342Y-55915476D02*
X133789104Y-55915476D01*
X133789104Y-55915476D02*
X133693866Y-55963095D01*
X133693866Y-55963095D02*
X133646247Y-56010714D01*
X133646247Y-56010714D02*
X133598628Y-56105952D01*
X133598628Y-56105952D02*
X133551009Y-56296428D01*
X133551009Y-56296428D02*
X133503390Y-56391666D01*
X133503390Y-56391666D02*
X133455771Y-56439285D01*
X133455771Y-56439285D02*
X133360533Y-56486904D01*
X133360533Y-56486904D02*
X133265295Y-56486904D01*
X133265295Y-56486904D02*
X133170057Y-56439285D01*
X133170057Y-56439285D02*
X133122438Y-56391666D01*
X133122438Y-56391666D02*
X133074819Y-56296428D01*
X133074819Y-56296428D02*
X133074819Y-56058333D01*
X133074819Y-56058333D02*
X133122438Y-55915476D01*
X134074819Y-54963095D02*
X134074819Y-55534523D01*
X134074819Y-55248809D02*
X133074819Y-55248809D01*
X133074819Y-55248809D02*
X133217676Y-55344047D01*
X133217676Y-55344047D02*
X133312914Y-55439285D01*
X133312914Y-55439285D02*
X133360533Y-55534523D01*
X128416666Y-55179819D02*
X128416666Y-55894104D01*
X128416666Y-55894104D02*
X128369047Y-56036961D01*
X128369047Y-56036961D02*
X128273809Y-56132200D01*
X128273809Y-56132200D02*
X128130952Y-56179819D01*
X128130952Y-56179819D02*
X128035714Y-56179819D01*
X128797619Y-55179819D02*
X129416666Y-55179819D01*
X129416666Y-55179819D02*
X129083333Y-55560771D01*
X129083333Y-55560771D02*
X129226190Y-55560771D01*
X129226190Y-55560771D02*
X129321428Y-55608390D01*
X129321428Y-55608390D02*
X129369047Y-55656009D01*
X129369047Y-55656009D02*
X129416666Y-55751247D01*
X129416666Y-55751247D02*
X129416666Y-55989342D01*
X129416666Y-55989342D02*
X129369047Y-56084580D01*
X129369047Y-56084580D02*
X129321428Y-56132200D01*
X129321428Y-56132200D02*
X129226190Y-56179819D01*
X129226190Y-56179819D02*
X128940476Y-56179819D01*
X128940476Y-56179819D02*
X128845238Y-56132200D01*
X128845238Y-56132200D02*
X128797619Y-56084580D01*
X142857142Y-77734819D02*
X142380952Y-77734819D01*
X142380952Y-77734819D02*
X142380952Y-76734819D01*
X143190476Y-77211009D02*
X143523809Y-77211009D01*
X143666666Y-77734819D02*
X143190476Y-77734819D01*
X143190476Y-77734819D02*
X143190476Y-76734819D01*
X143190476Y-76734819D02*
X143666666Y-76734819D01*
X144095238Y-77734819D02*
X144095238Y-76734819D01*
X144095238Y-76734819D02*
X144333333Y-76734819D01*
X144333333Y-76734819D02*
X144476190Y-76782438D01*
X144476190Y-76782438D02*
X144571428Y-76877676D01*
X144571428Y-76877676D02*
X144619047Y-76972914D01*
X144619047Y-76972914D02*
X144666666Y-77163390D01*
X144666666Y-77163390D02*
X144666666Y-77306247D01*
X144666666Y-77306247D02*
X144619047Y-77496723D01*
X144619047Y-77496723D02*
X144571428Y-77591961D01*
X144571428Y-77591961D02*
X144476190Y-77687200D01*
X144476190Y-77687200D02*
X144333333Y-77734819D01*
X144333333Y-77734819D02*
X144095238Y-77734819D01*
D11*
X143204762Y-76031927D02*
X143204762Y-75631927D01*
X143204762Y-75631927D02*
X143300000Y-75631927D01*
X143300000Y-75631927D02*
X143357143Y-75650975D01*
X143357143Y-75650975D02*
X143395238Y-75689070D01*
X143395238Y-75689070D02*
X143414285Y-75727165D01*
X143414285Y-75727165D02*
X143433333Y-75803356D01*
X143433333Y-75803356D02*
X143433333Y-75860499D01*
X143433333Y-75860499D02*
X143414285Y-75936689D01*
X143414285Y-75936689D02*
X143395238Y-75974784D01*
X143395238Y-75974784D02*
X143357143Y-76012880D01*
X143357143Y-76012880D02*
X143300000Y-76031927D01*
X143300000Y-76031927D02*
X143204762Y-76031927D01*
X143814285Y-76031927D02*
X143585714Y-76031927D01*
X143700000Y-76031927D02*
X143700000Y-75631927D01*
X143700000Y-75631927D02*
X143661904Y-75689070D01*
X143661904Y-75689070D02*
X143623809Y-75727165D01*
X143623809Y-75727165D02*
X143585714Y-75746213D01*
D10*
X186937200Y-56736904D02*
X186984819Y-56594047D01*
X186984819Y-56594047D02*
X186984819Y-56355952D01*
X186984819Y-56355952D02*
X186937200Y-56260714D01*
X186937200Y-56260714D02*
X186889580Y-56213095D01*
X186889580Y-56213095D02*
X186794342Y-56165476D01*
X186794342Y-56165476D02*
X186699104Y-56165476D01*
X186699104Y-56165476D02*
X186603866Y-56213095D01*
X186603866Y-56213095D02*
X186556247Y-56260714D01*
X186556247Y-56260714D02*
X186508628Y-56355952D01*
X186508628Y-56355952D02*
X186461009Y-56546428D01*
X186461009Y-56546428D02*
X186413390Y-56641666D01*
X186413390Y-56641666D02*
X186365771Y-56689285D01*
X186365771Y-56689285D02*
X186270533Y-56736904D01*
X186270533Y-56736904D02*
X186175295Y-56736904D01*
X186175295Y-56736904D02*
X186080057Y-56689285D01*
X186080057Y-56689285D02*
X186032438Y-56641666D01*
X186032438Y-56641666D02*
X185984819Y-56546428D01*
X185984819Y-56546428D02*
X185984819Y-56308333D01*
X185984819Y-56308333D02*
X186032438Y-56165476D01*
X185984819Y-55260714D02*
X185984819Y-55736904D01*
X185984819Y-55736904D02*
X186461009Y-55784523D01*
X186461009Y-55784523D02*
X186413390Y-55736904D01*
X186413390Y-55736904D02*
X186365771Y-55641666D01*
X186365771Y-55641666D02*
X186365771Y-55403571D01*
X186365771Y-55403571D02*
X186413390Y-55308333D01*
X186413390Y-55308333D02*
X186461009Y-55260714D01*
X186461009Y-55260714D02*
X186556247Y-55213095D01*
X186556247Y-55213095D02*
X186794342Y-55213095D01*
X186794342Y-55213095D02*
X186889580Y-55260714D01*
X186889580Y-55260714D02*
X186937200Y-55308333D01*
X186937200Y-55308333D02*
X186984819Y-55403571D01*
X186984819Y-55403571D02*
X186984819Y-55641666D01*
X186984819Y-55641666D02*
X186937200Y-55736904D01*
X186937200Y-55736904D02*
X186889580Y-55784523D01*
X180850476Y-55429819D02*
X180850476Y-56144104D01*
X180850476Y-56144104D02*
X180802857Y-56286961D01*
X180802857Y-56286961D02*
X180707619Y-56382200D01*
X180707619Y-56382200D02*
X180564762Y-56429819D01*
X180564762Y-56429819D02*
X180469524Y-56429819D01*
X181850476Y-56429819D02*
X181279048Y-56429819D01*
X181564762Y-56429819D02*
X181564762Y-55429819D01*
X181564762Y-55429819D02*
X181469524Y-55572676D01*
X181469524Y-55572676D02*
X181374286Y-55667914D01*
X181374286Y-55667914D02*
X181279048Y-55715533D01*
X182183810Y-55429819D02*
X182802857Y-55429819D01*
X182802857Y-55429819D02*
X182469524Y-55810771D01*
X182469524Y-55810771D02*
X182612381Y-55810771D01*
X182612381Y-55810771D02*
X182707619Y-55858390D01*
X182707619Y-55858390D02*
X182755238Y-55906009D01*
X182755238Y-55906009D02*
X182802857Y-56001247D01*
X182802857Y-56001247D02*
X182802857Y-56239342D01*
X182802857Y-56239342D02*
X182755238Y-56334580D01*
X182755238Y-56334580D02*
X182707619Y-56382200D01*
X182707619Y-56382200D02*
X182612381Y-56429819D01*
X182612381Y-56429819D02*
X182326667Y-56429819D01*
X182326667Y-56429819D02*
X182231429Y-56382200D01*
X182231429Y-56382200D02*
X182183810Y-56334580D01*
X177294819Y-65642857D02*
X177294819Y-66214285D01*
X177294819Y-65928571D02*
X176294819Y-65928571D01*
X176294819Y-65928571D02*
X176437676Y-66023809D01*
X176437676Y-66023809D02*
X176532914Y-66119047D01*
X176532914Y-66119047D02*
X176580533Y-66214285D01*
X176294819Y-65023809D02*
X176294819Y-64928571D01*
X176294819Y-64928571D02*
X176342438Y-64833333D01*
X176342438Y-64833333D02*
X176390057Y-64785714D01*
X176390057Y-64785714D02*
X176485295Y-64738095D01*
X176485295Y-64738095D02*
X176675771Y-64690476D01*
X176675771Y-64690476D02*
X176913866Y-64690476D01*
X176913866Y-64690476D02*
X177104342Y-64738095D01*
X177104342Y-64738095D02*
X177199580Y-64785714D01*
X177199580Y-64785714D02*
X177247200Y-64833333D01*
X177247200Y-64833333D02*
X177294819Y-64928571D01*
X177294819Y-64928571D02*
X177294819Y-65023809D01*
X177294819Y-65023809D02*
X177247200Y-65119047D01*
X177247200Y-65119047D02*
X177199580Y-65166666D01*
X177199580Y-65166666D02*
X177104342Y-65214285D01*
X177104342Y-65214285D02*
X176913866Y-65261904D01*
X176913866Y-65261904D02*
X176675771Y-65261904D01*
X176675771Y-65261904D02*
X176485295Y-65214285D01*
X176485295Y-65214285D02*
X176390057Y-65166666D01*
X176390057Y-65166666D02*
X176342438Y-65119047D01*
X176342438Y-65119047D02*
X176294819Y-65023809D01*
X176628152Y-64261904D02*
X177294819Y-64261904D01*
X176723390Y-64261904D02*
X176675771Y-64214285D01*
X176675771Y-64214285D02*
X176628152Y-64119047D01*
X176628152Y-64119047D02*
X176628152Y-63976190D01*
X176628152Y-63976190D02*
X176675771Y-63880952D01*
X176675771Y-63880952D02*
X176771009Y-63833333D01*
X176771009Y-63833333D02*
X177294819Y-63833333D01*
D12*
X178089765Y-65160714D02*
X178101670Y-65172618D01*
X178101670Y-65172618D02*
X178113574Y-65208333D01*
X178113574Y-65208333D02*
X178113574Y-65232142D01*
X178113574Y-65232142D02*
X178101670Y-65267856D01*
X178101670Y-65267856D02*
X178077860Y-65291666D01*
X178077860Y-65291666D02*
X178054050Y-65303571D01*
X178054050Y-65303571D02*
X178006431Y-65315475D01*
X178006431Y-65315475D02*
X177970717Y-65315475D01*
X177970717Y-65315475D02*
X177923098Y-65303571D01*
X177923098Y-65303571D02*
X177899289Y-65291666D01*
X177899289Y-65291666D02*
X177875479Y-65267856D01*
X177875479Y-65267856D02*
X177863574Y-65232142D01*
X177863574Y-65232142D02*
X177863574Y-65208333D01*
X177863574Y-65208333D02*
X177875479Y-65172618D01*
X177875479Y-65172618D02*
X177887384Y-65160714D01*
X178113574Y-64922618D02*
X178113574Y-65065475D01*
X178113574Y-64994047D02*
X177863574Y-64994047D01*
X177863574Y-64994047D02*
X177899289Y-65017856D01*
X177899289Y-65017856D02*
X177923098Y-65041666D01*
X177923098Y-65041666D02*
X177935003Y-65065475D01*
X177863574Y-64767857D02*
X177863574Y-64744047D01*
X177863574Y-64744047D02*
X177875479Y-64720238D01*
X177875479Y-64720238D02*
X177887384Y-64708333D01*
X177887384Y-64708333D02*
X177911193Y-64696428D01*
X177911193Y-64696428D02*
X177958812Y-64684523D01*
X177958812Y-64684523D02*
X178018336Y-64684523D01*
X178018336Y-64684523D02*
X178065955Y-64696428D01*
X178065955Y-64696428D02*
X178089765Y-64708333D01*
X178089765Y-64708333D02*
X178101670Y-64720238D01*
X178101670Y-64720238D02*
X178113574Y-64744047D01*
X178113574Y-64744047D02*
X178113574Y-64767857D01*
X178113574Y-64767857D02*
X178101670Y-64791666D01*
X178101670Y-64791666D02*
X178089765Y-64803571D01*
X178089765Y-64803571D02*
X178065955Y-64815476D01*
X178065955Y-64815476D02*
X178018336Y-64827380D01*
X178018336Y-64827380D02*
X177958812Y-64827380D01*
X177958812Y-64827380D02*
X177911193Y-64815476D01*
X177911193Y-64815476D02*
X177887384Y-64803571D01*
X177887384Y-64803571D02*
X177875479Y-64791666D01*
X177875479Y-64791666D02*
X177863574Y-64767857D01*
D10*
X193082142Y-89384819D02*
X192510714Y-89384819D01*
X192796428Y-89384819D02*
X192796428Y-88384819D01*
X192796428Y-88384819D02*
X192701190Y-88527676D01*
X192701190Y-88527676D02*
X192605952Y-88622914D01*
X192605952Y-88622914D02*
X192510714Y-88670533D01*
X193701190Y-88384819D02*
X193796428Y-88384819D01*
X193796428Y-88384819D02*
X193891666Y-88432438D01*
X193891666Y-88432438D02*
X193939285Y-88480057D01*
X193939285Y-88480057D02*
X193986904Y-88575295D01*
X193986904Y-88575295D02*
X194034523Y-88765771D01*
X194034523Y-88765771D02*
X194034523Y-89003866D01*
X194034523Y-89003866D02*
X193986904Y-89194342D01*
X193986904Y-89194342D02*
X193939285Y-89289580D01*
X193939285Y-89289580D02*
X193891666Y-89337200D01*
X193891666Y-89337200D02*
X193796428Y-89384819D01*
X193796428Y-89384819D02*
X193701190Y-89384819D01*
X193701190Y-89384819D02*
X193605952Y-89337200D01*
X193605952Y-89337200D02*
X193558333Y-89289580D01*
X193558333Y-89289580D02*
X193510714Y-89194342D01*
X193510714Y-89194342D02*
X193463095Y-89003866D01*
X193463095Y-89003866D02*
X193463095Y-88765771D01*
X193463095Y-88765771D02*
X193510714Y-88575295D01*
X193510714Y-88575295D02*
X193558333Y-88480057D01*
X193558333Y-88480057D02*
X193605952Y-88432438D01*
X193605952Y-88432438D02*
X193701190Y-88384819D01*
X194891666Y-88718152D02*
X194891666Y-89384819D01*
X194463095Y-88718152D02*
X194463095Y-89241961D01*
X194463095Y-89241961D02*
X194510714Y-89337200D01*
X194510714Y-89337200D02*
X194605952Y-89384819D01*
X194605952Y-89384819D02*
X194748809Y-89384819D01*
X194748809Y-89384819D02*
X194844047Y-89337200D01*
X194844047Y-89337200D02*
X194891666Y-89289580D01*
D11*
X193467857Y-87643832D02*
X193448809Y-87662880D01*
X193448809Y-87662880D02*
X193391667Y-87681927D01*
X193391667Y-87681927D02*
X193353571Y-87681927D01*
X193353571Y-87681927D02*
X193296428Y-87662880D01*
X193296428Y-87662880D02*
X193258333Y-87624784D01*
X193258333Y-87624784D02*
X193239286Y-87586689D01*
X193239286Y-87586689D02*
X193220238Y-87510499D01*
X193220238Y-87510499D02*
X193220238Y-87453356D01*
X193220238Y-87453356D02*
X193239286Y-87377165D01*
X193239286Y-87377165D02*
X193258333Y-87339070D01*
X193258333Y-87339070D02*
X193296428Y-87300975D01*
X193296428Y-87300975D02*
X193353571Y-87281927D01*
X193353571Y-87281927D02*
X193391667Y-87281927D01*
X193391667Y-87281927D02*
X193448809Y-87300975D01*
X193448809Y-87300975D02*
X193467857Y-87320022D01*
X193848809Y-87681927D02*
X193620238Y-87681927D01*
X193734524Y-87681927D02*
X193734524Y-87281927D01*
X193734524Y-87281927D02*
X193696428Y-87339070D01*
X193696428Y-87339070D02*
X193658333Y-87377165D01*
X193658333Y-87377165D02*
X193620238Y-87396213D01*
X194210714Y-87281927D02*
X194020238Y-87281927D01*
X194020238Y-87281927D02*
X194001190Y-87472403D01*
X194001190Y-87472403D02*
X194020238Y-87453356D01*
X194020238Y-87453356D02*
X194058333Y-87434308D01*
X194058333Y-87434308D02*
X194153571Y-87434308D01*
X194153571Y-87434308D02*
X194191666Y-87453356D01*
X194191666Y-87453356D02*
X194210714Y-87472403D01*
X194210714Y-87472403D02*
X194229761Y-87510499D01*
X194229761Y-87510499D02*
X194229761Y-87605737D01*
X194229761Y-87605737D02*
X194210714Y-87643832D01*
X194210714Y-87643832D02*
X194191666Y-87662880D01*
X194191666Y-87662880D02*
X194153571Y-87681927D01*
X194153571Y-87681927D02*
X194058333Y-87681927D01*
X194058333Y-87681927D02*
X194020238Y-87662880D01*
X194020238Y-87662880D02*
X194001190Y-87643832D01*
D10*
X170731786Y-64350057D02*
X170779405Y-64302438D01*
X170779405Y-64302438D02*
X170874643Y-64254819D01*
X170874643Y-64254819D02*
X171112738Y-64254819D01*
X171112738Y-64254819D02*
X171207976Y-64302438D01*
X171207976Y-64302438D02*
X171255595Y-64350057D01*
X171255595Y-64350057D02*
X171303214Y-64445295D01*
X171303214Y-64445295D02*
X171303214Y-64540533D01*
X171303214Y-64540533D02*
X171255595Y-64683390D01*
X171255595Y-64683390D02*
X170684167Y-65254819D01*
X170684167Y-65254819D02*
X171303214Y-65254819D01*
X171684167Y-64350057D02*
X171731786Y-64302438D01*
X171731786Y-64302438D02*
X171827024Y-64254819D01*
X171827024Y-64254819D02*
X172065119Y-64254819D01*
X172065119Y-64254819D02*
X172160357Y-64302438D01*
X172160357Y-64302438D02*
X172207976Y-64350057D01*
X172207976Y-64350057D02*
X172255595Y-64445295D01*
X172255595Y-64445295D02*
X172255595Y-64540533D01*
X172255595Y-64540533D02*
X172207976Y-64683390D01*
X172207976Y-64683390D02*
X171636548Y-65254819D01*
X171636548Y-65254819D02*
X172255595Y-65254819D01*
X172684167Y-64254819D02*
X172684167Y-65064342D01*
X172684167Y-65064342D02*
X172731786Y-65159580D01*
X172731786Y-65159580D02*
X172779405Y-65207200D01*
X172779405Y-65207200D02*
X172874643Y-65254819D01*
X172874643Y-65254819D02*
X173065119Y-65254819D01*
X173065119Y-65254819D02*
X173160357Y-65207200D01*
X173160357Y-65207200D02*
X173207976Y-65159580D01*
X173207976Y-65159580D02*
X173255595Y-65064342D01*
X173255595Y-65064342D02*
X173255595Y-64254819D01*
D11*
X171950833Y-66393832D02*
X171931785Y-66412880D01*
X171931785Y-66412880D02*
X171874643Y-66431927D01*
X171874643Y-66431927D02*
X171836547Y-66431927D01*
X171836547Y-66431927D02*
X171779404Y-66412880D01*
X171779404Y-66412880D02*
X171741309Y-66374784D01*
X171741309Y-66374784D02*
X171722262Y-66336689D01*
X171722262Y-66336689D02*
X171703214Y-66260499D01*
X171703214Y-66260499D02*
X171703214Y-66203356D01*
X171703214Y-66203356D02*
X171722262Y-66127165D01*
X171722262Y-66127165D02*
X171741309Y-66089070D01*
X171741309Y-66089070D02*
X171779404Y-66050975D01*
X171779404Y-66050975D02*
X171836547Y-66031927D01*
X171836547Y-66031927D02*
X171874643Y-66031927D01*
X171874643Y-66031927D02*
X171931785Y-66050975D01*
X171931785Y-66050975D02*
X171950833Y-66070022D01*
X172179404Y-66203356D02*
X172141309Y-66184308D01*
X172141309Y-66184308D02*
X172122262Y-66165260D01*
X172122262Y-66165260D02*
X172103214Y-66127165D01*
X172103214Y-66127165D02*
X172103214Y-66108118D01*
X172103214Y-66108118D02*
X172122262Y-66070022D01*
X172122262Y-66070022D02*
X172141309Y-66050975D01*
X172141309Y-66050975D02*
X172179404Y-66031927D01*
X172179404Y-66031927D02*
X172255595Y-66031927D01*
X172255595Y-66031927D02*
X172293690Y-66050975D01*
X172293690Y-66050975D02*
X172312738Y-66070022D01*
X172312738Y-66070022D02*
X172331785Y-66108118D01*
X172331785Y-66108118D02*
X172331785Y-66127165D01*
X172331785Y-66127165D02*
X172312738Y-66165260D01*
X172312738Y-66165260D02*
X172293690Y-66184308D01*
X172293690Y-66184308D02*
X172255595Y-66203356D01*
X172255595Y-66203356D02*
X172179404Y-66203356D01*
X172179404Y-66203356D02*
X172141309Y-66222403D01*
X172141309Y-66222403D02*
X172122262Y-66241451D01*
X172122262Y-66241451D02*
X172103214Y-66279546D01*
X172103214Y-66279546D02*
X172103214Y-66355737D01*
X172103214Y-66355737D02*
X172122262Y-66393832D01*
X172122262Y-66393832D02*
X172141309Y-66412880D01*
X172141309Y-66412880D02*
X172179404Y-66431927D01*
X172179404Y-66431927D02*
X172255595Y-66431927D01*
X172255595Y-66431927D02*
X172293690Y-66412880D01*
X172293690Y-66412880D02*
X172312738Y-66393832D01*
X172312738Y-66393832D02*
X172331785Y-66355737D01*
X172331785Y-66355737D02*
X172331785Y-66279546D01*
X172331785Y-66279546D02*
X172312738Y-66241451D01*
X172312738Y-66241451D02*
X172293690Y-66222403D01*
X172293690Y-66222403D02*
X172255595Y-66203356D01*
D10*
X178148214Y-72107200D02*
X178291071Y-72154819D01*
X178291071Y-72154819D02*
X178529166Y-72154819D01*
X178529166Y-72154819D02*
X178624404Y-72107200D01*
X178624404Y-72107200D02*
X178672023Y-72059580D01*
X178672023Y-72059580D02*
X178719642Y-71964342D01*
X178719642Y-71964342D02*
X178719642Y-71869104D01*
X178719642Y-71869104D02*
X178672023Y-71773866D01*
X178672023Y-71773866D02*
X178624404Y-71726247D01*
X178624404Y-71726247D02*
X178529166Y-71678628D01*
X178529166Y-71678628D02*
X178338690Y-71631009D01*
X178338690Y-71631009D02*
X178243452Y-71583390D01*
X178243452Y-71583390D02*
X178195833Y-71535771D01*
X178195833Y-71535771D02*
X178148214Y-71440533D01*
X178148214Y-71440533D02*
X178148214Y-71345295D01*
X178148214Y-71345295D02*
X178195833Y-71250057D01*
X178195833Y-71250057D02*
X178243452Y-71202438D01*
X178243452Y-71202438D02*
X178338690Y-71154819D01*
X178338690Y-71154819D02*
X178576785Y-71154819D01*
X178576785Y-71154819D02*
X178719642Y-71202438D01*
X179100595Y-72107200D02*
X179243452Y-72154819D01*
X179243452Y-72154819D02*
X179481547Y-72154819D01*
X179481547Y-72154819D02*
X179576785Y-72107200D01*
X179576785Y-72107200D02*
X179624404Y-72059580D01*
X179624404Y-72059580D02*
X179672023Y-71964342D01*
X179672023Y-71964342D02*
X179672023Y-71869104D01*
X179672023Y-71869104D02*
X179624404Y-71773866D01*
X179624404Y-71773866D02*
X179576785Y-71726247D01*
X179576785Y-71726247D02*
X179481547Y-71678628D01*
X179481547Y-71678628D02*
X179291071Y-71631009D01*
X179291071Y-71631009D02*
X179195833Y-71583390D01*
X179195833Y-71583390D02*
X179148214Y-71535771D01*
X179148214Y-71535771D02*
X179100595Y-71440533D01*
X179100595Y-71440533D02*
X179100595Y-71345295D01*
X179100595Y-71345295D02*
X179148214Y-71250057D01*
X179148214Y-71250057D02*
X179195833Y-71202438D01*
X179195833Y-71202438D02*
X179291071Y-71154819D01*
X179291071Y-71154819D02*
X179529166Y-71154819D01*
X179529166Y-71154819D02*
X179672023Y-71202438D01*
X180005357Y-71154819D02*
X180624404Y-71154819D01*
X180624404Y-71154819D02*
X180291071Y-71535771D01*
X180291071Y-71535771D02*
X180433928Y-71535771D01*
X180433928Y-71535771D02*
X180529166Y-71583390D01*
X180529166Y-71583390D02*
X180576785Y-71631009D01*
X180576785Y-71631009D02*
X180624404Y-71726247D01*
X180624404Y-71726247D02*
X180624404Y-71964342D01*
X180624404Y-71964342D02*
X180576785Y-72059580D01*
X180576785Y-72059580D02*
X180529166Y-72107200D01*
X180529166Y-72107200D02*
X180433928Y-72154819D01*
X180433928Y-72154819D02*
X180148214Y-72154819D01*
X180148214Y-72154819D02*
X180052976Y-72107200D01*
X180052976Y-72107200D02*
X180005357Y-72059580D01*
X181529166Y-71154819D02*
X181052976Y-71154819D01*
X181052976Y-71154819D02*
X181005357Y-71631009D01*
X181005357Y-71631009D02*
X181052976Y-71583390D01*
X181052976Y-71583390D02*
X181148214Y-71535771D01*
X181148214Y-71535771D02*
X181386309Y-71535771D01*
X181386309Y-71535771D02*
X181481547Y-71583390D01*
X181481547Y-71583390D02*
X181529166Y-71631009D01*
X181529166Y-71631009D02*
X181576785Y-71726247D01*
X181576785Y-71726247D02*
X181576785Y-71964342D01*
X181576785Y-71964342D02*
X181529166Y-72059580D01*
X181529166Y-72059580D02*
X181481547Y-72107200D01*
X181481547Y-72107200D02*
X181386309Y-72154819D01*
X181386309Y-72154819D02*
X181148214Y-72154819D01*
X181148214Y-72154819D02*
X181052976Y-72107200D01*
X181052976Y-72107200D02*
X181005357Y-72059580D01*
X179124405Y-69404819D02*
X179124405Y-68404819D01*
X179124405Y-68404819D02*
X179362500Y-68404819D01*
X179362500Y-68404819D02*
X179505357Y-68452438D01*
X179505357Y-68452438D02*
X179600595Y-68547676D01*
X179600595Y-68547676D02*
X179648214Y-68642914D01*
X179648214Y-68642914D02*
X179695833Y-68833390D01*
X179695833Y-68833390D02*
X179695833Y-68976247D01*
X179695833Y-68976247D02*
X179648214Y-69166723D01*
X179648214Y-69166723D02*
X179600595Y-69261961D01*
X179600595Y-69261961D02*
X179505357Y-69357200D01*
X179505357Y-69357200D02*
X179362500Y-69404819D01*
X179362500Y-69404819D02*
X179124405Y-69404819D01*
X180552976Y-68738152D02*
X180552976Y-69404819D01*
X180314881Y-68357200D02*
X180076786Y-69071485D01*
X180076786Y-69071485D02*
X180695833Y-69071485D01*
X171137319Y-70997618D02*
X171137319Y-70330952D01*
X171137319Y-70330952D02*
X172137319Y-70759523D01*
X172042080Y-69949999D02*
X172089700Y-69902380D01*
X172089700Y-69902380D02*
X172137319Y-69949999D01*
X172137319Y-69949999D02*
X172089700Y-69997618D01*
X172089700Y-69997618D02*
X172042080Y-69949999D01*
X172042080Y-69949999D02*
X172137319Y-69949999D01*
X171565890Y-69330952D02*
X171518271Y-69426190D01*
X171518271Y-69426190D02*
X171470652Y-69473809D01*
X171470652Y-69473809D02*
X171375414Y-69521428D01*
X171375414Y-69521428D02*
X171327795Y-69521428D01*
X171327795Y-69521428D02*
X171232557Y-69473809D01*
X171232557Y-69473809D02*
X171184938Y-69426190D01*
X171184938Y-69426190D02*
X171137319Y-69330952D01*
X171137319Y-69330952D02*
X171137319Y-69140476D01*
X171137319Y-69140476D02*
X171184938Y-69045238D01*
X171184938Y-69045238D02*
X171232557Y-68997619D01*
X171232557Y-68997619D02*
X171327795Y-68950000D01*
X171327795Y-68950000D02*
X171375414Y-68950000D01*
X171375414Y-68950000D02*
X171470652Y-68997619D01*
X171470652Y-68997619D02*
X171518271Y-69045238D01*
X171518271Y-69045238D02*
X171565890Y-69140476D01*
X171565890Y-69140476D02*
X171565890Y-69330952D01*
X171565890Y-69330952D02*
X171613509Y-69426190D01*
X171613509Y-69426190D02*
X171661128Y-69473809D01*
X171661128Y-69473809D02*
X171756366Y-69521428D01*
X171756366Y-69521428D02*
X171946842Y-69521428D01*
X171946842Y-69521428D02*
X172042080Y-69473809D01*
X172042080Y-69473809D02*
X172089700Y-69426190D01*
X172089700Y-69426190D02*
X172137319Y-69330952D01*
X172137319Y-69330952D02*
X172137319Y-69140476D01*
X172137319Y-69140476D02*
X172089700Y-69045238D01*
X172089700Y-69045238D02*
X172042080Y-68997619D01*
X172042080Y-68997619D02*
X171946842Y-68950000D01*
X171946842Y-68950000D02*
X171756366Y-68950000D01*
X171756366Y-68950000D02*
X171661128Y-68997619D01*
X171661128Y-68997619D02*
X171613509Y-69045238D01*
X171613509Y-69045238D02*
X171565890Y-69140476D01*
X172137319Y-68521428D02*
X171137319Y-68521428D01*
X172137319Y-67950000D02*
X171565890Y-68378571D01*
X171137319Y-67950000D02*
X171708747Y-68521428D01*
D11*
X173294427Y-69516666D02*
X173103951Y-69649999D01*
X173294427Y-69745237D02*
X172894427Y-69745237D01*
X172894427Y-69745237D02*
X172894427Y-69592856D01*
X172894427Y-69592856D02*
X172913475Y-69554761D01*
X172913475Y-69554761D02*
X172932522Y-69535714D01*
X172932522Y-69535714D02*
X172970618Y-69516666D01*
X172970618Y-69516666D02*
X173027760Y-69516666D01*
X173027760Y-69516666D02*
X173065856Y-69535714D01*
X173065856Y-69535714D02*
X173084903Y-69554761D01*
X173084903Y-69554761D02*
X173103951Y-69592856D01*
X173103951Y-69592856D02*
X173103951Y-69745237D01*
X172894427Y-69383333D02*
X172894427Y-69116666D01*
X172894427Y-69116666D02*
X173294427Y-69288095D01*
D10*
X176997319Y-70200001D02*
X176997319Y-70676191D01*
X176997319Y-70676191D02*
X175997319Y-70676191D01*
X177092557Y-70104763D02*
X177092557Y-69342858D01*
X176473509Y-68771429D02*
X176473509Y-69104762D01*
X176997319Y-69104762D02*
X175997319Y-69104762D01*
X175997319Y-69104762D02*
X175997319Y-68628572D01*
X176949700Y-67866667D02*
X176997319Y-67961905D01*
X176997319Y-67961905D02*
X176997319Y-68152381D01*
X176997319Y-68152381D02*
X176949700Y-68247619D01*
X176949700Y-68247619D02*
X176854461Y-68295238D01*
X176854461Y-68295238D02*
X176473509Y-68295238D01*
X176473509Y-68295238D02*
X176378271Y-68247619D01*
X176378271Y-68247619D02*
X176330652Y-68152381D01*
X176330652Y-68152381D02*
X176330652Y-67961905D01*
X176330652Y-67961905D02*
X176378271Y-67866667D01*
X176378271Y-67866667D02*
X176473509Y-67819048D01*
X176473509Y-67819048D02*
X176568747Y-67819048D01*
X176568747Y-67819048D02*
X176663985Y-68295238D01*
X176997319Y-67390476D02*
X176330652Y-67390476D01*
X176521128Y-67390476D02*
X176425890Y-67342857D01*
X176425890Y-67342857D02*
X176378271Y-67295238D01*
X176378271Y-67295238D02*
X176330652Y-67200000D01*
X176330652Y-67200000D02*
X176330652Y-67104762D01*
X176997319Y-66771428D02*
X176330652Y-66771428D01*
X176521128Y-66771428D02*
X176425890Y-66723809D01*
X176425890Y-66723809D02*
X176378271Y-66676190D01*
X176378271Y-66676190D02*
X176330652Y-66580952D01*
X176330652Y-66580952D02*
X176330652Y-66485714D01*
X176997319Y-66152380D02*
X176330652Y-66152380D01*
X175997319Y-66152380D02*
X176044938Y-66199999D01*
X176044938Y-66199999D02*
X176092557Y-66152380D01*
X176092557Y-66152380D02*
X176044938Y-66104761D01*
X176044938Y-66104761D02*
X175997319Y-66152380D01*
X175997319Y-66152380D02*
X176092557Y-66152380D01*
X176330652Y-65819047D02*
X176330652Y-65438095D01*
X175997319Y-65676190D02*
X176854461Y-65676190D01*
X176854461Y-65676190D02*
X176949700Y-65628571D01*
X176949700Y-65628571D02*
X176997319Y-65533333D01*
X176997319Y-65533333D02*
X176997319Y-65438095D01*
X176949700Y-64723809D02*
X176997319Y-64819047D01*
X176997319Y-64819047D02*
X176997319Y-65009523D01*
X176997319Y-65009523D02*
X176949700Y-65104761D01*
X176949700Y-65104761D02*
X176854461Y-65152380D01*
X176854461Y-65152380D02*
X176473509Y-65152380D01*
X176473509Y-65152380D02*
X176378271Y-65104761D01*
X176378271Y-65104761D02*
X176330652Y-65009523D01*
X176330652Y-65009523D02*
X176330652Y-64819047D01*
X176330652Y-64819047D02*
X176378271Y-64723809D01*
X176378271Y-64723809D02*
X176473509Y-64676190D01*
X176473509Y-64676190D02*
X176568747Y-64676190D01*
X176568747Y-64676190D02*
X176663985Y-65152380D01*
X177092557Y-64485714D02*
X177092557Y-63723809D01*
X176949700Y-63533332D02*
X176997319Y-63390475D01*
X176997319Y-63390475D02*
X176997319Y-63152380D01*
X176997319Y-63152380D02*
X176949700Y-63057142D01*
X176949700Y-63057142D02*
X176902080Y-63009523D01*
X176902080Y-63009523D02*
X176806842Y-62961904D01*
X176806842Y-62961904D02*
X176711604Y-62961904D01*
X176711604Y-62961904D02*
X176616366Y-63009523D01*
X176616366Y-63009523D02*
X176568747Y-63057142D01*
X176568747Y-63057142D02*
X176521128Y-63152380D01*
X176521128Y-63152380D02*
X176473509Y-63342856D01*
X176473509Y-63342856D02*
X176425890Y-63438094D01*
X176425890Y-63438094D02*
X176378271Y-63485713D01*
X176378271Y-63485713D02*
X176283033Y-63533332D01*
X176283033Y-63533332D02*
X176187795Y-63533332D01*
X176187795Y-63533332D02*
X176092557Y-63485713D01*
X176092557Y-63485713D02*
X176044938Y-63438094D01*
X176044938Y-63438094D02*
X175997319Y-63342856D01*
X175997319Y-63342856D02*
X175997319Y-63104761D01*
X175997319Y-63104761D02*
X176044938Y-62961904D01*
X176997319Y-62533332D02*
X176330652Y-62533332D01*
X176425890Y-62533332D02*
X176378271Y-62485713D01*
X176378271Y-62485713D02*
X176330652Y-62390475D01*
X176330652Y-62390475D02*
X176330652Y-62247618D01*
X176330652Y-62247618D02*
X176378271Y-62152380D01*
X176378271Y-62152380D02*
X176473509Y-62104761D01*
X176473509Y-62104761D02*
X176997319Y-62104761D01*
X176473509Y-62104761D02*
X176378271Y-62057142D01*
X176378271Y-62057142D02*
X176330652Y-61961904D01*
X176330652Y-61961904D02*
X176330652Y-61819047D01*
X176330652Y-61819047D02*
X176378271Y-61723808D01*
X176378271Y-61723808D02*
X176473509Y-61676189D01*
X176473509Y-61676189D02*
X176997319Y-61676189D01*
X176997319Y-60771428D02*
X176473509Y-60771428D01*
X176473509Y-60771428D02*
X176378271Y-60819047D01*
X176378271Y-60819047D02*
X176330652Y-60914285D01*
X176330652Y-60914285D02*
X176330652Y-61104761D01*
X176330652Y-61104761D02*
X176378271Y-61199999D01*
X176949700Y-60771428D02*
X176997319Y-60866666D01*
X176997319Y-60866666D02*
X176997319Y-61104761D01*
X176997319Y-61104761D02*
X176949700Y-61199999D01*
X176949700Y-61199999D02*
X176854461Y-61247618D01*
X176854461Y-61247618D02*
X176759223Y-61247618D01*
X176759223Y-61247618D02*
X176663985Y-61199999D01*
X176663985Y-61199999D02*
X176616366Y-61104761D01*
X176616366Y-61104761D02*
X176616366Y-60866666D01*
X176616366Y-60866666D02*
X176568747Y-60771428D01*
X176997319Y-60152380D02*
X176949700Y-60247618D01*
X176949700Y-60247618D02*
X176854461Y-60295237D01*
X176854461Y-60295237D02*
X175997319Y-60295237D01*
X176997319Y-59628570D02*
X176949700Y-59723808D01*
X176949700Y-59723808D02*
X176854461Y-59771427D01*
X176854461Y-59771427D02*
X175997319Y-59771427D01*
D11*
X175294427Y-65266666D02*
X175294427Y-65457142D01*
X175294427Y-65457142D02*
X174894427Y-65457142D01*
X174932522Y-65152380D02*
X174913475Y-65133332D01*
X174913475Y-65133332D02*
X174894427Y-65095237D01*
X174894427Y-65095237D02*
X174894427Y-64999999D01*
X174894427Y-64999999D02*
X174913475Y-64961904D01*
X174913475Y-64961904D02*
X174932522Y-64942856D01*
X174932522Y-64942856D02*
X174970618Y-64923809D01*
X174970618Y-64923809D02*
X175008713Y-64923809D01*
X175008713Y-64923809D02*
X175065856Y-64942856D01*
X175065856Y-64942856D02*
X175294427Y-65171428D01*
X175294427Y-65171428D02*
X175294427Y-64923809D01*
D10*
X183558333Y-62109819D02*
X182986905Y-62109819D01*
X183272619Y-62109819D02*
X183272619Y-61109819D01*
X183272619Y-61109819D02*
X183177381Y-61252676D01*
X183177381Y-61252676D02*
X183082143Y-61347914D01*
X183082143Y-61347914D02*
X182986905Y-61395533D01*
X183986905Y-61443152D02*
X183986905Y-62109819D01*
X183986905Y-61538390D02*
X184034524Y-61490771D01*
X184034524Y-61490771D02*
X184129762Y-61443152D01*
X184129762Y-61443152D02*
X184272619Y-61443152D01*
X184272619Y-61443152D02*
X184367857Y-61490771D01*
X184367857Y-61490771D02*
X184415476Y-61586009D01*
X184415476Y-61586009D02*
X184415476Y-62109819D01*
D11*
X183467857Y-60368832D02*
X183448809Y-60387880D01*
X183448809Y-60387880D02*
X183391667Y-60406927D01*
X183391667Y-60406927D02*
X183353571Y-60406927D01*
X183353571Y-60406927D02*
X183296428Y-60387880D01*
X183296428Y-60387880D02*
X183258333Y-60349784D01*
X183258333Y-60349784D02*
X183239286Y-60311689D01*
X183239286Y-60311689D02*
X183220238Y-60235499D01*
X183220238Y-60235499D02*
X183220238Y-60178356D01*
X183220238Y-60178356D02*
X183239286Y-60102165D01*
X183239286Y-60102165D02*
X183258333Y-60064070D01*
X183258333Y-60064070D02*
X183296428Y-60025975D01*
X183296428Y-60025975D02*
X183353571Y-60006927D01*
X183353571Y-60006927D02*
X183391667Y-60006927D01*
X183391667Y-60006927D02*
X183448809Y-60025975D01*
X183448809Y-60025975D02*
X183467857Y-60045022D01*
X183848809Y-60406927D02*
X183620238Y-60406927D01*
X183734524Y-60406927D02*
X183734524Y-60006927D01*
X183734524Y-60006927D02*
X183696428Y-60064070D01*
X183696428Y-60064070D02*
X183658333Y-60102165D01*
X183658333Y-60102165D02*
X183620238Y-60121213D01*
X184039285Y-60406927D02*
X184115476Y-60406927D01*
X184115476Y-60406927D02*
X184153571Y-60387880D01*
X184153571Y-60387880D02*
X184172619Y-60368832D01*
X184172619Y-60368832D02*
X184210714Y-60311689D01*
X184210714Y-60311689D02*
X184229761Y-60235499D01*
X184229761Y-60235499D02*
X184229761Y-60083118D01*
X184229761Y-60083118D02*
X184210714Y-60045022D01*
X184210714Y-60045022D02*
X184191666Y-60025975D01*
X184191666Y-60025975D02*
X184153571Y-60006927D01*
X184153571Y-60006927D02*
X184077380Y-60006927D01*
X184077380Y-60006927D02*
X184039285Y-60025975D01*
X184039285Y-60025975D02*
X184020238Y-60045022D01*
X184020238Y-60045022D02*
X184001190Y-60083118D01*
X184001190Y-60083118D02*
X184001190Y-60178356D01*
X184001190Y-60178356D02*
X184020238Y-60216451D01*
X184020238Y-60216451D02*
X184039285Y-60235499D01*
X184039285Y-60235499D02*
X184077380Y-60254546D01*
X184077380Y-60254546D02*
X184153571Y-60254546D01*
X184153571Y-60254546D02*
X184191666Y-60235499D01*
X184191666Y-60235499D02*
X184210714Y-60216451D01*
X184210714Y-60216451D02*
X184229761Y-60178356D01*
D10*
X143558333Y-61859819D02*
X142986905Y-61859819D01*
X143272619Y-61859819D02*
X143272619Y-60859819D01*
X143272619Y-60859819D02*
X143177381Y-61002676D01*
X143177381Y-61002676D02*
X143082143Y-61097914D01*
X143082143Y-61097914D02*
X142986905Y-61145533D01*
X143986905Y-61193152D02*
X143986905Y-61859819D01*
X143986905Y-61288390D02*
X144034524Y-61240771D01*
X144034524Y-61240771D02*
X144129762Y-61193152D01*
X144129762Y-61193152D02*
X144272619Y-61193152D01*
X144272619Y-61193152D02*
X144367857Y-61240771D01*
X144367857Y-61240771D02*
X144415476Y-61336009D01*
X144415476Y-61336009D02*
X144415476Y-61859819D01*
D11*
X143467857Y-60118832D02*
X143448809Y-60137880D01*
X143448809Y-60137880D02*
X143391667Y-60156927D01*
X143391667Y-60156927D02*
X143353571Y-60156927D01*
X143353571Y-60156927D02*
X143296428Y-60137880D01*
X143296428Y-60137880D02*
X143258333Y-60099784D01*
X143258333Y-60099784D02*
X143239286Y-60061689D01*
X143239286Y-60061689D02*
X143220238Y-59985499D01*
X143220238Y-59985499D02*
X143220238Y-59928356D01*
X143220238Y-59928356D02*
X143239286Y-59852165D01*
X143239286Y-59852165D02*
X143258333Y-59814070D01*
X143258333Y-59814070D02*
X143296428Y-59775975D01*
X143296428Y-59775975D02*
X143353571Y-59756927D01*
X143353571Y-59756927D02*
X143391667Y-59756927D01*
X143391667Y-59756927D02*
X143448809Y-59775975D01*
X143448809Y-59775975D02*
X143467857Y-59795022D01*
X143848809Y-60156927D02*
X143620238Y-60156927D01*
X143734524Y-60156927D02*
X143734524Y-59756927D01*
X143734524Y-59756927D02*
X143696428Y-59814070D01*
X143696428Y-59814070D02*
X143658333Y-59852165D01*
X143658333Y-59852165D02*
X143620238Y-59871213D01*
X144191666Y-59756927D02*
X144115476Y-59756927D01*
X144115476Y-59756927D02*
X144077380Y-59775975D01*
X144077380Y-59775975D02*
X144058333Y-59795022D01*
X144058333Y-59795022D02*
X144020238Y-59852165D01*
X144020238Y-59852165D02*
X144001190Y-59928356D01*
X144001190Y-59928356D02*
X144001190Y-60080737D01*
X144001190Y-60080737D02*
X144020238Y-60118832D01*
X144020238Y-60118832D02*
X144039285Y-60137880D01*
X144039285Y-60137880D02*
X144077380Y-60156927D01*
X144077380Y-60156927D02*
X144153571Y-60156927D01*
X144153571Y-60156927D02*
X144191666Y-60137880D01*
X144191666Y-60137880D02*
X144210714Y-60118832D01*
X144210714Y-60118832D02*
X144229761Y-60080737D01*
X144229761Y-60080737D02*
X144229761Y-59985499D01*
X144229761Y-59985499D02*
X144210714Y-59947403D01*
X144210714Y-59947403D02*
X144191666Y-59928356D01*
X144191666Y-59928356D02*
X144153571Y-59909308D01*
X144153571Y-59909308D02*
X144077380Y-59909308D01*
X144077380Y-59909308D02*
X144039285Y-59928356D01*
X144039285Y-59928356D02*
X144020238Y-59947403D01*
X144020238Y-59947403D02*
X144001190Y-59985499D01*
D10*
X153431009Y-73014523D02*
X153478628Y-72871666D01*
X153478628Y-72871666D02*
X153526247Y-72824047D01*
X153526247Y-72824047D02*
X153621485Y-72776428D01*
X153621485Y-72776428D02*
X153764342Y-72776428D01*
X153764342Y-72776428D02*
X153859580Y-72824047D01*
X153859580Y-72824047D02*
X153907200Y-72871666D01*
X153907200Y-72871666D02*
X153954819Y-72966904D01*
X153954819Y-72966904D02*
X153954819Y-73347856D01*
X153954819Y-73347856D02*
X152954819Y-73347856D01*
X152954819Y-73347856D02*
X152954819Y-73014523D01*
X152954819Y-73014523D02*
X153002438Y-72919285D01*
X153002438Y-72919285D02*
X153050057Y-72871666D01*
X153050057Y-72871666D02*
X153145295Y-72824047D01*
X153145295Y-72824047D02*
X153240533Y-72824047D01*
X153240533Y-72824047D02*
X153335771Y-72871666D01*
X153335771Y-72871666D02*
X153383390Y-72919285D01*
X153383390Y-72919285D02*
X153431009Y-73014523D01*
X153431009Y-73014523D02*
X153431009Y-73347856D01*
X153954819Y-71871666D02*
X153954819Y-72347856D01*
X153954819Y-72347856D02*
X152954819Y-72347856D01*
X152954819Y-71538332D02*
X153764342Y-71538332D01*
X153764342Y-71538332D02*
X153859580Y-71490713D01*
X153859580Y-71490713D02*
X153907200Y-71443094D01*
X153907200Y-71443094D02*
X153954819Y-71347856D01*
X153954819Y-71347856D02*
X153954819Y-71157380D01*
X153954819Y-71157380D02*
X153907200Y-71062142D01*
X153907200Y-71062142D02*
X153859580Y-71014523D01*
X153859580Y-71014523D02*
X153764342Y-70966904D01*
X153764342Y-70966904D02*
X152954819Y-70966904D01*
X153431009Y-70490713D02*
X153431009Y-70157380D01*
X153954819Y-70014523D02*
X153954819Y-70490713D01*
X153954819Y-70490713D02*
X152954819Y-70490713D01*
X152954819Y-70490713D02*
X152954819Y-70014523D01*
D12*
X155363574Y-71934523D02*
X155113574Y-71934523D01*
X155113574Y-71934523D02*
X155113574Y-71874999D01*
X155113574Y-71874999D02*
X155125479Y-71839285D01*
X155125479Y-71839285D02*
X155149289Y-71815475D01*
X155149289Y-71815475D02*
X155173098Y-71803570D01*
X155173098Y-71803570D02*
X155220717Y-71791666D01*
X155220717Y-71791666D02*
X155256431Y-71791666D01*
X155256431Y-71791666D02*
X155304050Y-71803570D01*
X155304050Y-71803570D02*
X155327860Y-71815475D01*
X155327860Y-71815475D02*
X155351670Y-71839285D01*
X155351670Y-71839285D02*
X155363574Y-71874999D01*
X155363574Y-71874999D02*
X155363574Y-71934523D01*
X155113574Y-71708332D02*
X155113574Y-71553570D01*
X155113574Y-71553570D02*
X155208812Y-71636904D01*
X155208812Y-71636904D02*
X155208812Y-71601189D01*
X155208812Y-71601189D02*
X155220717Y-71577380D01*
X155220717Y-71577380D02*
X155232622Y-71565475D01*
X155232622Y-71565475D02*
X155256431Y-71553570D01*
X155256431Y-71553570D02*
X155315955Y-71553570D01*
X155315955Y-71553570D02*
X155339765Y-71565475D01*
X155339765Y-71565475D02*
X155351670Y-71577380D01*
X155351670Y-71577380D02*
X155363574Y-71601189D01*
X155363574Y-71601189D02*
X155363574Y-71672618D01*
X155363574Y-71672618D02*
X155351670Y-71696427D01*
X155351670Y-71696427D02*
X155339765Y-71708332D01*
D10*
X179259523Y-62109819D02*
X178688095Y-62109819D01*
X178973809Y-62109819D02*
X178973809Y-61109819D01*
X178973809Y-61109819D02*
X178878571Y-61252676D01*
X178878571Y-61252676D02*
X178783333Y-61347914D01*
X178783333Y-61347914D02*
X178688095Y-61395533D01*
X179878571Y-61109819D02*
X179973809Y-61109819D01*
X179973809Y-61109819D02*
X180069047Y-61157438D01*
X180069047Y-61157438D02*
X180116666Y-61205057D01*
X180116666Y-61205057D02*
X180164285Y-61300295D01*
X180164285Y-61300295D02*
X180211904Y-61490771D01*
X180211904Y-61490771D02*
X180211904Y-61728866D01*
X180211904Y-61728866D02*
X180164285Y-61919342D01*
X180164285Y-61919342D02*
X180116666Y-62014580D01*
X180116666Y-62014580D02*
X180069047Y-62062200D01*
X180069047Y-62062200D02*
X179973809Y-62109819D01*
X179973809Y-62109819D02*
X179878571Y-62109819D01*
X179878571Y-62109819D02*
X179783333Y-62062200D01*
X179783333Y-62062200D02*
X179735714Y-62014580D01*
X179735714Y-62014580D02*
X179688095Y-61919342D01*
X179688095Y-61919342D02*
X179640476Y-61728866D01*
X179640476Y-61728866D02*
X179640476Y-61490771D01*
X179640476Y-61490771D02*
X179688095Y-61300295D01*
X179688095Y-61300295D02*
X179735714Y-61205057D01*
X179735714Y-61205057D02*
X179783333Y-61157438D01*
X179783333Y-61157438D02*
X179878571Y-61109819D01*
X180640476Y-62109819D02*
X180640476Y-61109819D01*
X181211904Y-62109819D02*
X180783333Y-61538390D01*
X181211904Y-61109819D02*
X180640476Y-61681247D01*
D11*
X179692857Y-60406927D02*
X179559524Y-60216451D01*
X179464286Y-60406927D02*
X179464286Y-60006927D01*
X179464286Y-60006927D02*
X179616667Y-60006927D01*
X179616667Y-60006927D02*
X179654762Y-60025975D01*
X179654762Y-60025975D02*
X179673809Y-60045022D01*
X179673809Y-60045022D02*
X179692857Y-60083118D01*
X179692857Y-60083118D02*
X179692857Y-60140260D01*
X179692857Y-60140260D02*
X179673809Y-60178356D01*
X179673809Y-60178356D02*
X179654762Y-60197403D01*
X179654762Y-60197403D02*
X179616667Y-60216451D01*
X179616667Y-60216451D02*
X179464286Y-60216451D01*
X180073809Y-60406927D02*
X179845238Y-60406927D01*
X179959524Y-60406927D02*
X179959524Y-60006927D01*
X179959524Y-60006927D02*
X179921428Y-60064070D01*
X179921428Y-60064070D02*
X179883333Y-60102165D01*
X179883333Y-60102165D02*
X179845238Y-60121213D01*
X180207142Y-60006927D02*
X180454761Y-60006927D01*
X180454761Y-60006927D02*
X180321428Y-60159308D01*
X180321428Y-60159308D02*
X180378571Y-60159308D01*
X180378571Y-60159308D02*
X180416666Y-60178356D01*
X180416666Y-60178356D02*
X180435714Y-60197403D01*
X180435714Y-60197403D02*
X180454761Y-60235499D01*
X180454761Y-60235499D02*
X180454761Y-60330737D01*
X180454761Y-60330737D02*
X180435714Y-60368832D01*
X180435714Y-60368832D02*
X180416666Y-60387880D01*
X180416666Y-60387880D02*
X180378571Y-60406927D01*
X180378571Y-60406927D02*
X180264285Y-60406927D01*
X180264285Y-60406927D02*
X180226190Y-60387880D01*
X180226190Y-60387880D02*
X180207142Y-60368832D01*
D10*
X137964286Y-80474819D02*
X138583333Y-80474819D01*
X138583333Y-80474819D02*
X138250000Y-80855771D01*
X138250000Y-80855771D02*
X138392857Y-80855771D01*
X138392857Y-80855771D02*
X138488095Y-80903390D01*
X138488095Y-80903390D02*
X138535714Y-80951009D01*
X138535714Y-80951009D02*
X138583333Y-81046247D01*
X138583333Y-81046247D02*
X138583333Y-81284342D01*
X138583333Y-81284342D02*
X138535714Y-81379580D01*
X138535714Y-81379580D02*
X138488095Y-81427200D01*
X138488095Y-81427200D02*
X138392857Y-81474819D01*
X138392857Y-81474819D02*
X138107143Y-81474819D01*
X138107143Y-81474819D02*
X138011905Y-81427200D01*
X138011905Y-81427200D02*
X137964286Y-81379580D01*
X138916667Y-80474819D02*
X139535714Y-80474819D01*
X139535714Y-80474819D02*
X139202381Y-80855771D01*
X139202381Y-80855771D02*
X139345238Y-80855771D01*
X139345238Y-80855771D02*
X139440476Y-80903390D01*
X139440476Y-80903390D02*
X139488095Y-80951009D01*
X139488095Y-80951009D02*
X139535714Y-81046247D01*
X139535714Y-81046247D02*
X139535714Y-81284342D01*
X139535714Y-81284342D02*
X139488095Y-81379580D01*
X139488095Y-81379580D02*
X139440476Y-81427200D01*
X139440476Y-81427200D02*
X139345238Y-81474819D01*
X139345238Y-81474819D02*
X139059524Y-81474819D01*
X139059524Y-81474819D02*
X138964286Y-81427200D01*
X138964286Y-81427200D02*
X138916667Y-81379580D01*
X140154762Y-80474819D02*
X140250000Y-80474819D01*
X140250000Y-80474819D02*
X140345238Y-80522438D01*
X140345238Y-80522438D02*
X140392857Y-80570057D01*
X140392857Y-80570057D02*
X140440476Y-80665295D01*
X140440476Y-80665295D02*
X140488095Y-80855771D01*
X140488095Y-80855771D02*
X140488095Y-81093866D01*
X140488095Y-81093866D02*
X140440476Y-81284342D01*
X140440476Y-81284342D02*
X140392857Y-81379580D01*
X140392857Y-81379580D02*
X140345238Y-81427200D01*
X140345238Y-81427200D02*
X140250000Y-81474819D01*
X140250000Y-81474819D02*
X140154762Y-81474819D01*
X140154762Y-81474819D02*
X140059524Y-81427200D01*
X140059524Y-81427200D02*
X140011905Y-81379580D01*
X140011905Y-81379580D02*
X139964286Y-81284342D01*
X139964286Y-81284342D02*
X139916667Y-81093866D01*
X139916667Y-81093866D02*
X139916667Y-80855771D01*
X139916667Y-80855771D02*
X139964286Y-80665295D01*
X139964286Y-80665295D02*
X140011905Y-80570057D01*
X140011905Y-80570057D02*
X140059524Y-80522438D01*
X140059524Y-80522438D02*
X140154762Y-80474819D01*
D12*
X139082857Y-79968200D02*
X138996190Y-79844391D01*
X138934285Y-79968200D02*
X138934285Y-79708200D01*
X138934285Y-79708200D02*
X139033333Y-79708200D01*
X139033333Y-79708200D02*
X139058095Y-79720581D01*
X139058095Y-79720581D02*
X139070476Y-79732962D01*
X139070476Y-79732962D02*
X139082857Y-79757724D01*
X139082857Y-79757724D02*
X139082857Y-79794867D01*
X139082857Y-79794867D02*
X139070476Y-79819629D01*
X139070476Y-79819629D02*
X139058095Y-79832010D01*
X139058095Y-79832010D02*
X139033333Y-79844391D01*
X139033333Y-79844391D02*
X138934285Y-79844391D01*
X139330476Y-79968200D02*
X139181904Y-79968200D01*
X139256190Y-79968200D02*
X139256190Y-79708200D01*
X139256190Y-79708200D02*
X139231428Y-79745343D01*
X139231428Y-79745343D02*
X139206666Y-79770105D01*
X139206666Y-79770105D02*
X139181904Y-79782486D01*
X139553333Y-79794867D02*
X139553333Y-79968200D01*
X139491428Y-79695820D02*
X139429523Y-79881534D01*
X139429523Y-79881534D02*
X139590476Y-79881534D01*
D10*
X187437381Y-68124819D02*
X187532619Y-68124819D01*
X187532619Y-68124819D02*
X187627857Y-68172438D01*
X187627857Y-68172438D02*
X187675476Y-68220057D01*
X187675476Y-68220057D02*
X187723095Y-68315295D01*
X187723095Y-68315295D02*
X187770714Y-68505771D01*
X187770714Y-68505771D02*
X187770714Y-68743866D01*
X187770714Y-68743866D02*
X187723095Y-68934342D01*
X187723095Y-68934342D02*
X187675476Y-69029580D01*
X187675476Y-69029580D02*
X187627857Y-69077200D01*
X187627857Y-69077200D02*
X187532619Y-69124819D01*
X187532619Y-69124819D02*
X187437381Y-69124819D01*
X187437381Y-69124819D02*
X187342143Y-69077200D01*
X187342143Y-69077200D02*
X187294524Y-69029580D01*
X187294524Y-69029580D02*
X187246905Y-68934342D01*
X187246905Y-68934342D02*
X187199286Y-68743866D01*
X187199286Y-68743866D02*
X187199286Y-68505771D01*
X187199286Y-68505771D02*
X187246905Y-68315295D01*
X187246905Y-68315295D02*
X187294524Y-68220057D01*
X187294524Y-68220057D02*
X187342143Y-68172438D01*
X187342143Y-68172438D02*
X187437381Y-68124819D01*
D12*
X187441667Y-67618200D02*
X187355000Y-67494391D01*
X187293095Y-67618200D02*
X187293095Y-67358200D01*
X187293095Y-67358200D02*
X187392143Y-67358200D01*
X187392143Y-67358200D02*
X187416905Y-67370581D01*
X187416905Y-67370581D02*
X187429286Y-67382962D01*
X187429286Y-67382962D02*
X187441667Y-67407724D01*
X187441667Y-67407724D02*
X187441667Y-67444867D01*
X187441667Y-67444867D02*
X187429286Y-67469629D01*
X187429286Y-67469629D02*
X187416905Y-67482010D01*
X187416905Y-67482010D02*
X187392143Y-67494391D01*
X187392143Y-67494391D02*
X187293095Y-67494391D01*
X187565476Y-67618200D02*
X187615000Y-67618200D01*
X187615000Y-67618200D02*
X187639762Y-67605820D01*
X187639762Y-67605820D02*
X187652143Y-67593439D01*
X187652143Y-67593439D02*
X187676905Y-67556296D01*
X187676905Y-67556296D02*
X187689286Y-67506772D01*
X187689286Y-67506772D02*
X187689286Y-67407724D01*
X187689286Y-67407724D02*
X187676905Y-67382962D01*
X187676905Y-67382962D02*
X187664524Y-67370581D01*
X187664524Y-67370581D02*
X187639762Y-67358200D01*
X187639762Y-67358200D02*
X187590238Y-67358200D01*
X187590238Y-67358200D02*
X187565476Y-67370581D01*
X187565476Y-67370581D02*
X187553095Y-67382962D01*
X187553095Y-67382962D02*
X187540714Y-67407724D01*
X187540714Y-67407724D02*
X187540714Y-67469629D01*
X187540714Y-67469629D02*
X187553095Y-67494391D01*
X187553095Y-67494391D02*
X187565476Y-67506772D01*
X187565476Y-67506772D02*
X187590238Y-67519153D01*
X187590238Y-67519153D02*
X187639762Y-67519153D01*
X187639762Y-67519153D02*
X187664524Y-67506772D01*
X187664524Y-67506772D02*
X187676905Y-67494391D01*
X187676905Y-67494391D02*
X187689286Y-67469629D01*
D10*
X141859819Y-82826190D02*
X141859819Y-83302380D01*
X141859819Y-83302380D02*
X142336009Y-83349999D01*
X142336009Y-83349999D02*
X142288390Y-83302380D01*
X142288390Y-83302380D02*
X142240771Y-83207142D01*
X142240771Y-83207142D02*
X142240771Y-82969047D01*
X142240771Y-82969047D02*
X142288390Y-82873809D01*
X142288390Y-82873809D02*
X142336009Y-82826190D01*
X142336009Y-82826190D02*
X142431247Y-82778571D01*
X142431247Y-82778571D02*
X142669342Y-82778571D01*
X142669342Y-82778571D02*
X142764580Y-82826190D01*
X142764580Y-82826190D02*
X142812200Y-82873809D01*
X142812200Y-82873809D02*
X142859819Y-82969047D01*
X142859819Y-82969047D02*
X142859819Y-83207142D01*
X142859819Y-83207142D02*
X142812200Y-83302380D01*
X142812200Y-83302380D02*
X142764580Y-83349999D01*
X141859819Y-82492856D02*
X142859819Y-82159523D01*
X142859819Y-82159523D02*
X141859819Y-81826190D01*
X142812200Y-80778570D02*
X142859819Y-80635713D01*
X142859819Y-80635713D02*
X142859819Y-80397618D01*
X142859819Y-80397618D02*
X142812200Y-80302380D01*
X142812200Y-80302380D02*
X142764580Y-80254761D01*
X142764580Y-80254761D02*
X142669342Y-80207142D01*
X142669342Y-80207142D02*
X142574104Y-80207142D01*
X142574104Y-80207142D02*
X142478866Y-80254761D01*
X142478866Y-80254761D02*
X142431247Y-80302380D01*
X142431247Y-80302380D02*
X142383628Y-80397618D01*
X142383628Y-80397618D02*
X142336009Y-80588094D01*
X142336009Y-80588094D02*
X142288390Y-80683332D01*
X142288390Y-80683332D02*
X142240771Y-80730951D01*
X142240771Y-80730951D02*
X142145533Y-80778570D01*
X142145533Y-80778570D02*
X142050295Y-80778570D01*
X142050295Y-80778570D02*
X141955057Y-80730951D01*
X141955057Y-80730951D02*
X141907438Y-80683332D01*
X141907438Y-80683332D02*
X141859819Y-80588094D01*
X141859819Y-80588094D02*
X141859819Y-80349999D01*
X141859819Y-80349999D02*
X141907438Y-80207142D01*
X142193152Y-79873808D02*
X142859819Y-79683332D01*
X142859819Y-79683332D02*
X142383628Y-79492856D01*
X142383628Y-79492856D02*
X142859819Y-79302380D01*
X142859819Y-79302380D02*
X142193152Y-79111904D01*
X142859819Y-78730951D02*
X142193152Y-78730951D01*
X141859819Y-78730951D02*
X141907438Y-78778570D01*
X141907438Y-78778570D02*
X141955057Y-78730951D01*
X141955057Y-78730951D02*
X141907438Y-78683332D01*
X141907438Y-78683332D02*
X141859819Y-78730951D01*
X141859819Y-78730951D02*
X141955057Y-78730951D01*
X142193152Y-78397618D02*
X142193152Y-78016666D01*
X141859819Y-78254761D02*
X142716961Y-78254761D01*
X142716961Y-78254761D02*
X142812200Y-78207142D01*
X142812200Y-78207142D02*
X142859819Y-78111904D01*
X142859819Y-78111904D02*
X142859819Y-78016666D01*
X142812200Y-77254761D02*
X142859819Y-77349999D01*
X142859819Y-77349999D02*
X142859819Y-77540475D01*
X142859819Y-77540475D02*
X142812200Y-77635713D01*
X142812200Y-77635713D02*
X142764580Y-77683332D01*
X142764580Y-77683332D02*
X142669342Y-77730951D01*
X142669342Y-77730951D02*
X142383628Y-77730951D01*
X142383628Y-77730951D02*
X142288390Y-77683332D01*
X142288390Y-77683332D02*
X142240771Y-77635713D01*
X142240771Y-77635713D02*
X142193152Y-77540475D01*
X142193152Y-77540475D02*
X142193152Y-77349999D01*
X142193152Y-77349999D02*
X142240771Y-77254761D01*
X142859819Y-76826189D02*
X141859819Y-76826189D01*
X142859819Y-76397618D02*
X142336009Y-76397618D01*
X142336009Y-76397618D02*
X142240771Y-76445237D01*
X142240771Y-76445237D02*
X142193152Y-76540475D01*
X142193152Y-76540475D02*
X142193152Y-76683332D01*
X142193152Y-76683332D02*
X142240771Y-76778570D01*
X142240771Y-76778570D02*
X142288390Y-76826189D01*
X145195476Y-79304819D02*
X145195476Y-80019104D01*
X145195476Y-80019104D02*
X145147857Y-80161961D01*
X145147857Y-80161961D02*
X145052619Y-80257200D01*
X145052619Y-80257200D02*
X144909762Y-80304819D01*
X144909762Y-80304819D02*
X144814524Y-80304819D01*
X146195476Y-80304819D02*
X145624048Y-80304819D01*
X145909762Y-80304819D02*
X145909762Y-79304819D01*
X145909762Y-79304819D02*
X145814524Y-79447676D01*
X145814524Y-79447676D02*
X145719286Y-79542914D01*
X145719286Y-79542914D02*
X145624048Y-79590533D01*
X147052619Y-79638152D02*
X147052619Y-80304819D01*
X146814524Y-79257200D02*
X146576429Y-79971485D01*
X146576429Y-79971485D02*
X147195476Y-79971485D01*
X152484523Y-61859819D02*
X151913095Y-61859819D01*
X152198809Y-61859819D02*
X152198809Y-60859819D01*
X152198809Y-60859819D02*
X152103571Y-61002676D01*
X152103571Y-61002676D02*
X152008333Y-61097914D01*
X152008333Y-61097914D02*
X151913095Y-61145533D01*
X153103571Y-60859819D02*
X153198809Y-60859819D01*
X153198809Y-60859819D02*
X153294047Y-60907438D01*
X153294047Y-60907438D02*
X153341666Y-60955057D01*
X153341666Y-60955057D02*
X153389285Y-61050295D01*
X153389285Y-61050295D02*
X153436904Y-61240771D01*
X153436904Y-61240771D02*
X153436904Y-61478866D01*
X153436904Y-61478866D02*
X153389285Y-61669342D01*
X153389285Y-61669342D02*
X153341666Y-61764580D01*
X153341666Y-61764580D02*
X153294047Y-61812200D01*
X153294047Y-61812200D02*
X153198809Y-61859819D01*
X153198809Y-61859819D02*
X153103571Y-61859819D01*
X153103571Y-61859819D02*
X153008333Y-61812200D01*
X153008333Y-61812200D02*
X152960714Y-61764580D01*
X152960714Y-61764580D02*
X152913095Y-61669342D01*
X152913095Y-61669342D02*
X152865476Y-61478866D01*
X152865476Y-61478866D02*
X152865476Y-61240771D01*
X152865476Y-61240771D02*
X152913095Y-61050295D01*
X152913095Y-61050295D02*
X152960714Y-60955057D01*
X152960714Y-60955057D02*
X153008333Y-60907438D01*
X153008333Y-60907438D02*
X153103571Y-60859819D01*
X153865476Y-61859819D02*
X153865476Y-60859819D01*
X154436904Y-61859819D02*
X154008333Y-61288390D01*
X154436904Y-60859819D02*
X153865476Y-61431247D01*
D11*
X152917857Y-60156927D02*
X152784524Y-59966451D01*
X152689286Y-60156927D02*
X152689286Y-59756927D01*
X152689286Y-59756927D02*
X152841667Y-59756927D01*
X152841667Y-59756927D02*
X152879762Y-59775975D01*
X152879762Y-59775975D02*
X152898809Y-59795022D01*
X152898809Y-59795022D02*
X152917857Y-59833118D01*
X152917857Y-59833118D02*
X152917857Y-59890260D01*
X152917857Y-59890260D02*
X152898809Y-59928356D01*
X152898809Y-59928356D02*
X152879762Y-59947403D01*
X152879762Y-59947403D02*
X152841667Y-59966451D01*
X152841667Y-59966451D02*
X152689286Y-59966451D01*
X153298809Y-60156927D02*
X153070238Y-60156927D01*
X153184524Y-60156927D02*
X153184524Y-59756927D01*
X153184524Y-59756927D02*
X153146428Y-59814070D01*
X153146428Y-59814070D02*
X153108333Y-59852165D01*
X153108333Y-59852165D02*
X153070238Y-59871213D01*
X153679761Y-60156927D02*
X153451190Y-60156927D01*
X153565476Y-60156927D02*
X153565476Y-59756927D01*
X153565476Y-59756927D02*
X153527380Y-59814070D01*
X153527380Y-59814070D02*
X153489285Y-59852165D01*
X153489285Y-59852165D02*
X153451190Y-59871213D01*
D10*
X130808333Y-61859819D02*
X130236905Y-61859819D01*
X130522619Y-61859819D02*
X130522619Y-60859819D01*
X130522619Y-60859819D02*
X130427381Y-61002676D01*
X130427381Y-61002676D02*
X130332143Y-61097914D01*
X130332143Y-61097914D02*
X130236905Y-61145533D01*
X131236905Y-61193152D02*
X131236905Y-61859819D01*
X131236905Y-61288390D02*
X131284524Y-61240771D01*
X131284524Y-61240771D02*
X131379762Y-61193152D01*
X131379762Y-61193152D02*
X131522619Y-61193152D01*
X131522619Y-61193152D02*
X131617857Y-61240771D01*
X131617857Y-61240771D02*
X131665476Y-61336009D01*
X131665476Y-61336009D02*
X131665476Y-61859819D01*
D11*
X130908333Y-60118832D02*
X130889285Y-60137880D01*
X130889285Y-60137880D02*
X130832143Y-60156927D01*
X130832143Y-60156927D02*
X130794047Y-60156927D01*
X130794047Y-60156927D02*
X130736904Y-60137880D01*
X130736904Y-60137880D02*
X130698809Y-60099784D01*
X130698809Y-60099784D02*
X130679762Y-60061689D01*
X130679762Y-60061689D02*
X130660714Y-59985499D01*
X130660714Y-59985499D02*
X130660714Y-59928356D01*
X130660714Y-59928356D02*
X130679762Y-59852165D01*
X130679762Y-59852165D02*
X130698809Y-59814070D01*
X130698809Y-59814070D02*
X130736904Y-59775975D01*
X130736904Y-59775975D02*
X130794047Y-59756927D01*
X130794047Y-59756927D02*
X130832143Y-59756927D01*
X130832143Y-59756927D02*
X130889285Y-59775975D01*
X130889285Y-59775975D02*
X130908333Y-59795022D01*
X131041666Y-59756927D02*
X131308333Y-59756927D01*
X131308333Y-59756927D02*
X131136904Y-60156927D01*
D10*
X179997844Y-90070656D02*
X179426416Y-90070656D01*
X179712130Y-90070656D02*
X179712130Y-89070656D01*
X179712130Y-89070656D02*
X179616892Y-89213513D01*
X179616892Y-89213513D02*
X179521654Y-89308751D01*
X179521654Y-89308751D02*
X179426416Y-89356370D01*
X180616892Y-89070656D02*
X180712130Y-89070656D01*
X180712130Y-89070656D02*
X180807368Y-89118275D01*
X180807368Y-89118275D02*
X180854987Y-89165894D01*
X180854987Y-89165894D02*
X180902606Y-89261132D01*
X180902606Y-89261132D02*
X180950225Y-89451608D01*
X180950225Y-89451608D02*
X180950225Y-89689703D01*
X180950225Y-89689703D02*
X180902606Y-89880179D01*
X180902606Y-89880179D02*
X180854987Y-89975417D01*
X180854987Y-89975417D02*
X180807368Y-90023037D01*
X180807368Y-90023037D02*
X180712130Y-90070656D01*
X180712130Y-90070656D02*
X180616892Y-90070656D01*
X180616892Y-90070656D02*
X180521654Y-90023037D01*
X180521654Y-90023037D02*
X180474035Y-89975417D01*
X180474035Y-89975417D02*
X180426416Y-89880179D01*
X180426416Y-89880179D02*
X180378797Y-89689703D01*
X180378797Y-89689703D02*
X180378797Y-89451608D01*
X180378797Y-89451608D02*
X180426416Y-89261132D01*
X180426416Y-89261132D02*
X180474035Y-89165894D01*
X180474035Y-89165894D02*
X180521654Y-89118275D01*
X180521654Y-89118275D02*
X180616892Y-89070656D01*
X181807368Y-89403989D02*
X181807368Y-90070656D01*
X181378797Y-89403989D02*
X181378797Y-89927798D01*
X181378797Y-89927798D02*
X181426416Y-90023037D01*
X181426416Y-90023037D02*
X181521654Y-90070656D01*
X181521654Y-90070656D02*
X181664511Y-90070656D01*
X181664511Y-90070656D02*
X181759749Y-90023037D01*
X181759749Y-90023037D02*
X181807368Y-89975417D01*
D11*
X180383559Y-88329669D02*
X180364511Y-88348717D01*
X180364511Y-88348717D02*
X180307369Y-88367764D01*
X180307369Y-88367764D02*
X180269273Y-88367764D01*
X180269273Y-88367764D02*
X180212130Y-88348717D01*
X180212130Y-88348717D02*
X180174035Y-88310621D01*
X180174035Y-88310621D02*
X180154988Y-88272526D01*
X180154988Y-88272526D02*
X180135940Y-88196336D01*
X180135940Y-88196336D02*
X180135940Y-88139193D01*
X180135940Y-88139193D02*
X180154988Y-88063002D01*
X180154988Y-88063002D02*
X180174035Y-88024907D01*
X180174035Y-88024907D02*
X180212130Y-87986812D01*
X180212130Y-87986812D02*
X180269273Y-87967764D01*
X180269273Y-87967764D02*
X180307369Y-87967764D01*
X180307369Y-87967764D02*
X180364511Y-87986812D01*
X180364511Y-87986812D02*
X180383559Y-88005859D01*
X180764511Y-88367764D02*
X180535940Y-88367764D01*
X180650226Y-88367764D02*
X180650226Y-87967764D01*
X180650226Y-87967764D02*
X180612130Y-88024907D01*
X180612130Y-88024907D02*
X180574035Y-88063002D01*
X180574035Y-88063002D02*
X180535940Y-88082050D01*
X181107368Y-88101097D02*
X181107368Y-88367764D01*
X181012130Y-87948717D02*
X180916892Y-88234431D01*
X180916892Y-88234431D02*
X181164511Y-88234431D01*
D10*
X168012142Y-90070656D02*
X167440714Y-90070656D01*
X167726428Y-90070656D02*
X167726428Y-89070656D01*
X167726428Y-89070656D02*
X167631190Y-89213513D01*
X167631190Y-89213513D02*
X167535952Y-89308751D01*
X167535952Y-89308751D02*
X167440714Y-89356370D01*
X168631190Y-89070656D02*
X168726428Y-89070656D01*
X168726428Y-89070656D02*
X168821666Y-89118275D01*
X168821666Y-89118275D02*
X168869285Y-89165894D01*
X168869285Y-89165894D02*
X168916904Y-89261132D01*
X168916904Y-89261132D02*
X168964523Y-89451608D01*
X168964523Y-89451608D02*
X168964523Y-89689703D01*
X168964523Y-89689703D02*
X168916904Y-89880179D01*
X168916904Y-89880179D02*
X168869285Y-89975417D01*
X168869285Y-89975417D02*
X168821666Y-90023037D01*
X168821666Y-90023037D02*
X168726428Y-90070656D01*
X168726428Y-90070656D02*
X168631190Y-90070656D01*
X168631190Y-90070656D02*
X168535952Y-90023037D01*
X168535952Y-90023037D02*
X168488333Y-89975417D01*
X168488333Y-89975417D02*
X168440714Y-89880179D01*
X168440714Y-89880179D02*
X168393095Y-89689703D01*
X168393095Y-89689703D02*
X168393095Y-89451608D01*
X168393095Y-89451608D02*
X168440714Y-89261132D01*
X168440714Y-89261132D02*
X168488333Y-89165894D01*
X168488333Y-89165894D02*
X168535952Y-89118275D01*
X168535952Y-89118275D02*
X168631190Y-89070656D01*
X169821666Y-89403989D02*
X169821666Y-90070656D01*
X169393095Y-89403989D02*
X169393095Y-89927798D01*
X169393095Y-89927798D02*
X169440714Y-90023037D01*
X169440714Y-90023037D02*
X169535952Y-90070656D01*
X169535952Y-90070656D02*
X169678809Y-90070656D01*
X169678809Y-90070656D02*
X169774047Y-90023037D01*
X169774047Y-90023037D02*
X169821666Y-89975417D01*
D11*
X168397857Y-88329669D02*
X168378809Y-88348717D01*
X168378809Y-88348717D02*
X168321667Y-88367764D01*
X168321667Y-88367764D02*
X168283571Y-88367764D01*
X168283571Y-88367764D02*
X168226428Y-88348717D01*
X168226428Y-88348717D02*
X168188333Y-88310621D01*
X168188333Y-88310621D02*
X168169286Y-88272526D01*
X168169286Y-88272526D02*
X168150238Y-88196336D01*
X168150238Y-88196336D02*
X168150238Y-88139193D01*
X168150238Y-88139193D02*
X168169286Y-88063002D01*
X168169286Y-88063002D02*
X168188333Y-88024907D01*
X168188333Y-88024907D02*
X168226428Y-87986812D01*
X168226428Y-87986812D02*
X168283571Y-87967764D01*
X168283571Y-87967764D02*
X168321667Y-87967764D01*
X168321667Y-87967764D02*
X168378809Y-87986812D01*
X168378809Y-87986812D02*
X168397857Y-88005859D01*
X168778809Y-88367764D02*
X168550238Y-88367764D01*
X168664524Y-88367764D02*
X168664524Y-87967764D01*
X168664524Y-87967764D02*
X168626428Y-88024907D01*
X168626428Y-88024907D02*
X168588333Y-88063002D01*
X168588333Y-88063002D02*
X168550238Y-88082050D01*
X168912142Y-87967764D02*
X169159761Y-87967764D01*
X169159761Y-87967764D02*
X169026428Y-88120145D01*
X169026428Y-88120145D02*
X169083571Y-88120145D01*
X169083571Y-88120145D02*
X169121666Y-88139193D01*
X169121666Y-88139193D02*
X169140714Y-88158240D01*
X169140714Y-88158240D02*
X169159761Y-88196336D01*
X169159761Y-88196336D02*
X169159761Y-88291574D01*
X169159761Y-88291574D02*
X169140714Y-88329669D01*
X169140714Y-88329669D02*
X169121666Y-88348717D01*
X169121666Y-88348717D02*
X169083571Y-88367764D01*
X169083571Y-88367764D02*
X168969285Y-88367764D01*
X168969285Y-88367764D02*
X168931190Y-88348717D01*
X168931190Y-88348717D02*
X168912142Y-88329669D01*
D10*
X181544819Y-66214047D02*
X181544819Y-66785475D01*
X181544819Y-66499761D02*
X180544819Y-66499761D01*
X180544819Y-66499761D02*
X180687676Y-66594999D01*
X180687676Y-66594999D02*
X180782914Y-66690237D01*
X180782914Y-66690237D02*
X180830533Y-66785475D01*
X180544819Y-65594999D02*
X180544819Y-65499761D01*
X180544819Y-65499761D02*
X180592438Y-65404523D01*
X180592438Y-65404523D02*
X180640057Y-65356904D01*
X180640057Y-65356904D02*
X180735295Y-65309285D01*
X180735295Y-65309285D02*
X180925771Y-65261666D01*
X180925771Y-65261666D02*
X181163866Y-65261666D01*
X181163866Y-65261666D02*
X181354342Y-65309285D01*
X181354342Y-65309285D02*
X181449580Y-65356904D01*
X181449580Y-65356904D02*
X181497200Y-65404523D01*
X181497200Y-65404523D02*
X181544819Y-65499761D01*
X181544819Y-65499761D02*
X181544819Y-65594999D01*
X181544819Y-65594999D02*
X181497200Y-65690237D01*
X181497200Y-65690237D02*
X181449580Y-65737856D01*
X181449580Y-65737856D02*
X181354342Y-65785475D01*
X181354342Y-65785475D02*
X181163866Y-65833094D01*
X181163866Y-65833094D02*
X180925771Y-65833094D01*
X180925771Y-65833094D02*
X180735295Y-65785475D01*
X180735295Y-65785475D02*
X180640057Y-65737856D01*
X180640057Y-65737856D02*
X180592438Y-65690237D01*
X180592438Y-65690237D02*
X180544819Y-65594999D01*
X180544819Y-64642618D02*
X180544819Y-64547380D01*
X180544819Y-64547380D02*
X180592438Y-64452142D01*
X180592438Y-64452142D02*
X180640057Y-64404523D01*
X180640057Y-64404523D02*
X180735295Y-64356904D01*
X180735295Y-64356904D02*
X180925771Y-64309285D01*
X180925771Y-64309285D02*
X181163866Y-64309285D01*
X181163866Y-64309285D02*
X181354342Y-64356904D01*
X181354342Y-64356904D02*
X181449580Y-64404523D01*
X181449580Y-64404523D02*
X181497200Y-64452142D01*
X181497200Y-64452142D02*
X181544819Y-64547380D01*
X181544819Y-64547380D02*
X181544819Y-64642618D01*
X181544819Y-64642618D02*
X181497200Y-64737856D01*
X181497200Y-64737856D02*
X181449580Y-64785475D01*
X181449580Y-64785475D02*
X181354342Y-64833094D01*
X181354342Y-64833094D02*
X181163866Y-64880713D01*
X181163866Y-64880713D02*
X180925771Y-64880713D01*
X180925771Y-64880713D02*
X180735295Y-64833094D01*
X180735295Y-64833094D02*
X180640057Y-64785475D01*
X180640057Y-64785475D02*
X180592438Y-64737856D01*
X180592438Y-64737856D02*
X180544819Y-64642618D01*
X180878152Y-63880713D02*
X181544819Y-63880713D01*
X180973390Y-63880713D02*
X180925771Y-63833094D01*
X180925771Y-63833094D02*
X180878152Y-63737856D01*
X180878152Y-63737856D02*
X180878152Y-63594999D01*
X180878152Y-63594999D02*
X180925771Y-63499761D01*
X180925771Y-63499761D02*
X181021009Y-63452142D01*
X181021009Y-63452142D02*
X181544819Y-63452142D01*
D12*
X182339765Y-65255714D02*
X182351670Y-65267618D01*
X182351670Y-65267618D02*
X182363574Y-65303333D01*
X182363574Y-65303333D02*
X182363574Y-65327142D01*
X182363574Y-65327142D02*
X182351670Y-65362856D01*
X182351670Y-65362856D02*
X182327860Y-65386666D01*
X182327860Y-65386666D02*
X182304050Y-65398571D01*
X182304050Y-65398571D02*
X182256431Y-65410475D01*
X182256431Y-65410475D02*
X182220717Y-65410475D01*
X182220717Y-65410475D02*
X182173098Y-65398571D01*
X182173098Y-65398571D02*
X182149289Y-65386666D01*
X182149289Y-65386666D02*
X182125479Y-65362856D01*
X182125479Y-65362856D02*
X182113574Y-65327142D01*
X182113574Y-65327142D02*
X182113574Y-65303333D01*
X182113574Y-65303333D02*
X182125479Y-65267618D01*
X182125479Y-65267618D02*
X182137384Y-65255714D01*
X182363574Y-65017618D02*
X182363574Y-65160475D01*
X182363574Y-65089047D02*
X182113574Y-65089047D01*
X182113574Y-65089047D02*
X182149289Y-65112856D01*
X182149289Y-65112856D02*
X182173098Y-65136666D01*
X182173098Y-65136666D02*
X182185003Y-65160475D01*
X182363574Y-64779523D02*
X182363574Y-64922380D01*
X182363574Y-64850952D02*
X182113574Y-64850952D01*
X182113574Y-64850952D02*
X182149289Y-64874761D01*
X182149289Y-64874761D02*
X182173098Y-64898571D01*
X182173098Y-64898571D02*
X182185003Y-64922380D01*
D10*
X180493452Y-77054819D02*
X180493452Y-76054819D01*
X180493452Y-76054819D02*
X180826785Y-76769104D01*
X180826785Y-76769104D02*
X181160118Y-76054819D01*
X181160118Y-76054819D02*
X181160118Y-77054819D01*
X181493452Y-76054819D02*
X182064880Y-76054819D01*
X181779166Y-77054819D02*
X181779166Y-76054819D01*
X182302976Y-76054819D02*
X182922023Y-76054819D01*
X182922023Y-76054819D02*
X182588690Y-76435771D01*
X182588690Y-76435771D02*
X182731547Y-76435771D01*
X182731547Y-76435771D02*
X182826785Y-76483390D01*
X182826785Y-76483390D02*
X182874404Y-76531009D01*
X182874404Y-76531009D02*
X182922023Y-76626247D01*
X182922023Y-76626247D02*
X182922023Y-76864342D01*
X182922023Y-76864342D02*
X182874404Y-76959580D01*
X182874404Y-76959580D02*
X182826785Y-77007200D01*
X182826785Y-77007200D02*
X182731547Y-77054819D01*
X182731547Y-77054819D02*
X182445833Y-77054819D01*
X182445833Y-77054819D02*
X182350595Y-77007200D01*
X182350595Y-77007200D02*
X182302976Y-76959580D01*
X183779166Y-76054819D02*
X183588690Y-76054819D01*
X183588690Y-76054819D02*
X183493452Y-76102438D01*
X183493452Y-76102438D02*
X183445833Y-76150057D01*
X183445833Y-76150057D02*
X183350595Y-76292914D01*
X183350595Y-76292914D02*
X183302976Y-76483390D01*
X183302976Y-76483390D02*
X183302976Y-76864342D01*
X183302976Y-76864342D02*
X183350595Y-76959580D01*
X183350595Y-76959580D02*
X183398214Y-77007200D01*
X183398214Y-77007200D02*
X183493452Y-77054819D01*
X183493452Y-77054819D02*
X183683928Y-77054819D01*
X183683928Y-77054819D02*
X183779166Y-77007200D01*
X183779166Y-77007200D02*
X183826785Y-76959580D01*
X183826785Y-76959580D02*
X183874404Y-76864342D01*
X183874404Y-76864342D02*
X183874404Y-76626247D01*
X183874404Y-76626247D02*
X183826785Y-76531009D01*
X183826785Y-76531009D02*
X183779166Y-76483390D01*
X183779166Y-76483390D02*
X183683928Y-76435771D01*
X183683928Y-76435771D02*
X183493452Y-76435771D01*
X183493452Y-76435771D02*
X183398214Y-76483390D01*
X183398214Y-76483390D02*
X183350595Y-76531009D01*
X183350595Y-76531009D02*
X183302976Y-76626247D01*
X184493452Y-76054819D02*
X184588690Y-76054819D01*
X184588690Y-76054819D02*
X184683928Y-76102438D01*
X184683928Y-76102438D02*
X184731547Y-76150057D01*
X184731547Y-76150057D02*
X184779166Y-76245295D01*
X184779166Y-76245295D02*
X184826785Y-76435771D01*
X184826785Y-76435771D02*
X184826785Y-76673866D01*
X184826785Y-76673866D02*
X184779166Y-76864342D01*
X184779166Y-76864342D02*
X184731547Y-76959580D01*
X184731547Y-76959580D02*
X184683928Y-77007200D01*
X184683928Y-77007200D02*
X184588690Y-77054819D01*
X184588690Y-77054819D02*
X184493452Y-77054819D01*
X184493452Y-77054819D02*
X184398214Y-77007200D01*
X184398214Y-77007200D02*
X184350595Y-76959580D01*
X184350595Y-76959580D02*
X184302976Y-76864342D01*
X184302976Y-76864342D02*
X184255357Y-76673866D01*
X184255357Y-76673866D02*
X184255357Y-76435771D01*
X184255357Y-76435771D02*
X184302976Y-76245295D01*
X184302976Y-76245295D02*
X184350595Y-76150057D01*
X184350595Y-76150057D02*
X184398214Y-76102438D01*
X184398214Y-76102438D02*
X184493452Y-76054819D01*
X185398214Y-76483390D02*
X185302976Y-76435771D01*
X185302976Y-76435771D02*
X185255357Y-76388152D01*
X185255357Y-76388152D02*
X185207738Y-76292914D01*
X185207738Y-76292914D02*
X185207738Y-76245295D01*
X185207738Y-76245295D02*
X185255357Y-76150057D01*
X185255357Y-76150057D02*
X185302976Y-76102438D01*
X185302976Y-76102438D02*
X185398214Y-76054819D01*
X185398214Y-76054819D02*
X185588690Y-76054819D01*
X185588690Y-76054819D02*
X185683928Y-76102438D01*
X185683928Y-76102438D02*
X185731547Y-76150057D01*
X185731547Y-76150057D02*
X185779166Y-76245295D01*
X185779166Y-76245295D02*
X185779166Y-76292914D01*
X185779166Y-76292914D02*
X185731547Y-76388152D01*
X185731547Y-76388152D02*
X185683928Y-76435771D01*
X185683928Y-76435771D02*
X185588690Y-76483390D01*
X185588690Y-76483390D02*
X185398214Y-76483390D01*
X185398214Y-76483390D02*
X185302976Y-76531009D01*
X185302976Y-76531009D02*
X185255357Y-76578628D01*
X185255357Y-76578628D02*
X185207738Y-76673866D01*
X185207738Y-76673866D02*
X185207738Y-76864342D01*
X185207738Y-76864342D02*
X185255357Y-76959580D01*
X185255357Y-76959580D02*
X185302976Y-77007200D01*
X185302976Y-77007200D02*
X185398214Y-77054819D01*
X185398214Y-77054819D02*
X185588690Y-77054819D01*
X185588690Y-77054819D02*
X185683928Y-77007200D01*
X185683928Y-77007200D02*
X185731547Y-76959580D01*
X185731547Y-76959580D02*
X185779166Y-76864342D01*
X185779166Y-76864342D02*
X185779166Y-76673866D01*
X185779166Y-76673866D02*
X185731547Y-76578628D01*
X185731547Y-76578628D02*
X185683928Y-76531009D01*
X185683928Y-76531009D02*
X185588690Y-76483390D01*
D11*
X182807738Y-73981927D02*
X182807738Y-74305737D01*
X182807738Y-74305737D02*
X182826785Y-74343832D01*
X182826785Y-74343832D02*
X182845833Y-74362880D01*
X182845833Y-74362880D02*
X182883928Y-74381927D01*
X182883928Y-74381927D02*
X182960119Y-74381927D01*
X182960119Y-74381927D02*
X182998214Y-74362880D01*
X182998214Y-74362880D02*
X183017261Y-74343832D01*
X183017261Y-74343832D02*
X183036309Y-74305737D01*
X183036309Y-74305737D02*
X183036309Y-73981927D01*
X183436309Y-74381927D02*
X183207738Y-74381927D01*
X183322024Y-74381927D02*
X183322024Y-73981927D01*
X183322024Y-73981927D02*
X183283928Y-74039070D01*
X183283928Y-74039070D02*
X183245833Y-74077165D01*
X183245833Y-74077165D02*
X183207738Y-74096213D01*
D10*
X128557368Y-90890656D02*
X128557368Y-91604941D01*
X128557368Y-91604941D02*
X128509749Y-91747798D01*
X128509749Y-91747798D02*
X128414511Y-91843037D01*
X128414511Y-91843037D02*
X128271654Y-91890656D01*
X128271654Y-91890656D02*
X128176416Y-91890656D01*
X129557368Y-91890656D02*
X128985940Y-91890656D01*
X129271654Y-91890656D02*
X129271654Y-90890656D01*
X129271654Y-90890656D02*
X129176416Y-91033513D01*
X129176416Y-91033513D02*
X129081178Y-91128751D01*
X129081178Y-91128751D02*
X128985940Y-91176370D01*
X143332142Y-89634819D02*
X142760714Y-89634819D01*
X143046428Y-89634819D02*
X143046428Y-88634819D01*
X143046428Y-88634819D02*
X142951190Y-88777676D01*
X142951190Y-88777676D02*
X142855952Y-88872914D01*
X142855952Y-88872914D02*
X142760714Y-88920533D01*
X143951190Y-88634819D02*
X144046428Y-88634819D01*
X144046428Y-88634819D02*
X144141666Y-88682438D01*
X144141666Y-88682438D02*
X144189285Y-88730057D01*
X144189285Y-88730057D02*
X144236904Y-88825295D01*
X144236904Y-88825295D02*
X144284523Y-89015771D01*
X144284523Y-89015771D02*
X144284523Y-89253866D01*
X144284523Y-89253866D02*
X144236904Y-89444342D01*
X144236904Y-89444342D02*
X144189285Y-89539580D01*
X144189285Y-89539580D02*
X144141666Y-89587200D01*
X144141666Y-89587200D02*
X144046428Y-89634819D01*
X144046428Y-89634819D02*
X143951190Y-89634819D01*
X143951190Y-89634819D02*
X143855952Y-89587200D01*
X143855952Y-89587200D02*
X143808333Y-89539580D01*
X143808333Y-89539580D02*
X143760714Y-89444342D01*
X143760714Y-89444342D02*
X143713095Y-89253866D01*
X143713095Y-89253866D02*
X143713095Y-89015771D01*
X143713095Y-89015771D02*
X143760714Y-88825295D01*
X143760714Y-88825295D02*
X143808333Y-88730057D01*
X143808333Y-88730057D02*
X143855952Y-88682438D01*
X143855952Y-88682438D02*
X143951190Y-88634819D01*
X145141666Y-88968152D02*
X145141666Y-89634819D01*
X144713095Y-88968152D02*
X144713095Y-89491961D01*
X144713095Y-89491961D02*
X144760714Y-89587200D01*
X144760714Y-89587200D02*
X144855952Y-89634819D01*
X144855952Y-89634819D02*
X144998809Y-89634819D01*
X144998809Y-89634819D02*
X145094047Y-89587200D01*
X145094047Y-89587200D02*
X145141666Y-89539580D01*
D11*
X143908333Y-87893832D02*
X143889285Y-87912880D01*
X143889285Y-87912880D02*
X143832143Y-87931927D01*
X143832143Y-87931927D02*
X143794047Y-87931927D01*
X143794047Y-87931927D02*
X143736904Y-87912880D01*
X143736904Y-87912880D02*
X143698809Y-87874784D01*
X143698809Y-87874784D02*
X143679762Y-87836689D01*
X143679762Y-87836689D02*
X143660714Y-87760499D01*
X143660714Y-87760499D02*
X143660714Y-87703356D01*
X143660714Y-87703356D02*
X143679762Y-87627165D01*
X143679762Y-87627165D02*
X143698809Y-87589070D01*
X143698809Y-87589070D02*
X143736904Y-87550975D01*
X143736904Y-87550975D02*
X143794047Y-87531927D01*
X143794047Y-87531927D02*
X143832143Y-87531927D01*
X143832143Y-87531927D02*
X143889285Y-87550975D01*
X143889285Y-87550975D02*
X143908333Y-87570022D01*
X144251190Y-87665260D02*
X144251190Y-87931927D01*
X144155952Y-87512880D02*
X144060714Y-87798594D01*
X144060714Y-87798594D02*
X144308333Y-87798594D01*
D10*
X159204819Y-80895475D02*
X159204819Y-80324047D01*
X160204819Y-80609761D02*
X159204819Y-80609761D01*
X160204819Y-79990713D02*
X159204819Y-79990713D01*
X159204819Y-79990713D02*
X159204819Y-79609761D01*
X159204819Y-79609761D02*
X159252438Y-79514523D01*
X159252438Y-79514523D02*
X159300057Y-79466904D01*
X159300057Y-79466904D02*
X159395295Y-79419285D01*
X159395295Y-79419285D02*
X159538152Y-79419285D01*
X159538152Y-79419285D02*
X159633390Y-79466904D01*
X159633390Y-79466904D02*
X159681009Y-79514523D01*
X159681009Y-79514523D02*
X159728628Y-79609761D01*
X159728628Y-79609761D02*
X159728628Y-79990713D01*
X159538152Y-78562142D02*
X160204819Y-78562142D01*
X159157200Y-78800237D02*
X159871485Y-79038332D01*
X159871485Y-79038332D02*
X159871485Y-78419285D01*
X159204819Y-77847856D02*
X159204819Y-77752618D01*
X159204819Y-77752618D02*
X159252438Y-77657380D01*
X159252438Y-77657380D02*
X159300057Y-77609761D01*
X159300057Y-77609761D02*
X159395295Y-77562142D01*
X159395295Y-77562142D02*
X159585771Y-77514523D01*
X159585771Y-77514523D02*
X159823866Y-77514523D01*
X159823866Y-77514523D02*
X160014342Y-77562142D01*
X160014342Y-77562142D02*
X160109580Y-77609761D01*
X160109580Y-77609761D02*
X160157200Y-77657380D01*
X160157200Y-77657380D02*
X160204819Y-77752618D01*
X160204819Y-77752618D02*
X160204819Y-77847856D01*
X160204819Y-77847856D02*
X160157200Y-77943094D01*
X160157200Y-77943094D02*
X160109580Y-77990713D01*
X160109580Y-77990713D02*
X160014342Y-78038332D01*
X160014342Y-78038332D02*
X159823866Y-78085951D01*
X159823866Y-78085951D02*
X159585771Y-78085951D01*
X159585771Y-78085951D02*
X159395295Y-78038332D01*
X159395295Y-78038332D02*
X159300057Y-77990713D01*
X159300057Y-77990713D02*
X159252438Y-77943094D01*
X159252438Y-77943094D02*
X159204819Y-77847856D01*
X159204819Y-76609761D02*
X159204819Y-77085951D01*
X159204819Y-77085951D02*
X159681009Y-77133570D01*
X159681009Y-77133570D02*
X159633390Y-77085951D01*
X159633390Y-77085951D02*
X159585771Y-76990713D01*
X159585771Y-76990713D02*
X159585771Y-76752618D01*
X159585771Y-76752618D02*
X159633390Y-76657380D01*
X159633390Y-76657380D02*
X159681009Y-76609761D01*
X159681009Y-76609761D02*
X159776247Y-76562142D01*
X159776247Y-76562142D02*
X160014342Y-76562142D01*
X160014342Y-76562142D02*
X160109580Y-76609761D01*
X160109580Y-76609761D02*
X160157200Y-76657380D01*
X160157200Y-76657380D02*
X160204819Y-76752618D01*
X160204819Y-76752618D02*
X160204819Y-76990713D01*
X160204819Y-76990713D02*
X160157200Y-77085951D01*
X160157200Y-77085951D02*
X160109580Y-77133570D01*
X159204819Y-75704999D02*
X159204819Y-75895475D01*
X159204819Y-75895475D02*
X159252438Y-75990713D01*
X159252438Y-75990713D02*
X159300057Y-76038332D01*
X159300057Y-76038332D02*
X159442914Y-76133570D01*
X159442914Y-76133570D02*
X159633390Y-76181189D01*
X159633390Y-76181189D02*
X160014342Y-76181189D01*
X160014342Y-76181189D02*
X160109580Y-76133570D01*
X160109580Y-76133570D02*
X160157200Y-76085951D01*
X160157200Y-76085951D02*
X160204819Y-75990713D01*
X160204819Y-75990713D02*
X160204819Y-75800237D01*
X160204819Y-75800237D02*
X160157200Y-75704999D01*
X160157200Y-75704999D02*
X160109580Y-75657380D01*
X160109580Y-75657380D02*
X160014342Y-75609761D01*
X160014342Y-75609761D02*
X159776247Y-75609761D01*
X159776247Y-75609761D02*
X159681009Y-75657380D01*
X159681009Y-75657380D02*
X159633390Y-75704999D01*
X159633390Y-75704999D02*
X159585771Y-75800237D01*
X159585771Y-75800237D02*
X159585771Y-75990713D01*
X159585771Y-75990713D02*
X159633390Y-76085951D01*
X159633390Y-76085951D02*
X159681009Y-76133570D01*
X159681009Y-76133570D02*
X159776247Y-76181189D01*
X138226190Y-76808152D02*
X138226190Y-77474819D01*
X137988095Y-76427200D02*
X137750000Y-77141485D01*
X137750000Y-77141485D02*
X138369047Y-77141485D01*
X138750000Y-77379580D02*
X138797619Y-77427200D01*
X138797619Y-77427200D02*
X138750000Y-77474819D01*
X138750000Y-77474819D02*
X138702381Y-77427200D01*
X138702381Y-77427200D02*
X138750000Y-77379580D01*
X138750000Y-77379580D02*
X138750000Y-77474819D01*
X139130952Y-76474819D02*
X139797618Y-76474819D01*
X139797618Y-76474819D02*
X139369047Y-77474819D01*
X140178571Y-77474819D02*
X140178571Y-76474819D01*
X140749999Y-77474819D02*
X140321428Y-76903390D01*
X140749999Y-76474819D02*
X140178571Y-77046247D01*
D12*
X139206667Y-75968200D02*
X139120000Y-75844391D01*
X139058095Y-75968200D02*
X139058095Y-75708200D01*
X139058095Y-75708200D02*
X139157143Y-75708200D01*
X139157143Y-75708200D02*
X139181905Y-75720581D01*
X139181905Y-75720581D02*
X139194286Y-75732962D01*
X139194286Y-75732962D02*
X139206667Y-75757724D01*
X139206667Y-75757724D02*
X139206667Y-75794867D01*
X139206667Y-75794867D02*
X139194286Y-75819629D01*
X139194286Y-75819629D02*
X139181905Y-75832010D01*
X139181905Y-75832010D02*
X139157143Y-75844391D01*
X139157143Y-75844391D02*
X139058095Y-75844391D01*
X139305714Y-75732962D02*
X139318095Y-75720581D01*
X139318095Y-75720581D02*
X139342857Y-75708200D01*
X139342857Y-75708200D02*
X139404762Y-75708200D01*
X139404762Y-75708200D02*
X139429524Y-75720581D01*
X139429524Y-75720581D02*
X139441905Y-75732962D01*
X139441905Y-75732962D02*
X139454286Y-75757724D01*
X139454286Y-75757724D02*
X139454286Y-75782486D01*
X139454286Y-75782486D02*
X139441905Y-75819629D01*
X139441905Y-75819629D02*
X139293333Y-75968200D01*
X139293333Y-75968200D02*
X139454286Y-75968200D01*
D10*
X173542200Y-56486904D02*
X173589819Y-56344047D01*
X173589819Y-56344047D02*
X173589819Y-56105952D01*
X173589819Y-56105952D02*
X173542200Y-56010714D01*
X173542200Y-56010714D02*
X173494580Y-55963095D01*
X173494580Y-55963095D02*
X173399342Y-55915476D01*
X173399342Y-55915476D02*
X173304104Y-55915476D01*
X173304104Y-55915476D02*
X173208866Y-55963095D01*
X173208866Y-55963095D02*
X173161247Y-56010714D01*
X173161247Y-56010714D02*
X173113628Y-56105952D01*
X173113628Y-56105952D02*
X173066009Y-56296428D01*
X173066009Y-56296428D02*
X173018390Y-56391666D01*
X173018390Y-56391666D02*
X172970771Y-56439285D01*
X172970771Y-56439285D02*
X172875533Y-56486904D01*
X172875533Y-56486904D02*
X172780295Y-56486904D01*
X172780295Y-56486904D02*
X172685057Y-56439285D01*
X172685057Y-56439285D02*
X172637438Y-56391666D01*
X172637438Y-56391666D02*
X172589819Y-56296428D01*
X172589819Y-56296428D02*
X172589819Y-56058333D01*
X172589819Y-56058333D02*
X172637438Y-55915476D01*
X172923152Y-55058333D02*
X173589819Y-55058333D01*
X172542200Y-55296428D02*
X173256485Y-55534523D01*
X173256485Y-55534523D02*
X173256485Y-54915476D01*
X167455476Y-55179819D02*
X167455476Y-55894104D01*
X167455476Y-55894104D02*
X167407857Y-56036961D01*
X167407857Y-56036961D02*
X167312619Y-56132200D01*
X167312619Y-56132200D02*
X167169762Y-56179819D01*
X167169762Y-56179819D02*
X167074524Y-56179819D01*
X168455476Y-56179819D02*
X167884048Y-56179819D01*
X168169762Y-56179819D02*
X168169762Y-55179819D01*
X168169762Y-55179819D02*
X168074524Y-55322676D01*
X168074524Y-55322676D02*
X167979286Y-55417914D01*
X167979286Y-55417914D02*
X167884048Y-55465533D01*
X168836429Y-55275057D02*
X168884048Y-55227438D01*
X168884048Y-55227438D02*
X168979286Y-55179819D01*
X168979286Y-55179819D02*
X169217381Y-55179819D01*
X169217381Y-55179819D02*
X169312619Y-55227438D01*
X169312619Y-55227438D02*
X169360238Y-55275057D01*
X169360238Y-55275057D02*
X169407857Y-55370295D01*
X169407857Y-55370295D02*
X169407857Y-55465533D01*
X169407857Y-55465533D02*
X169360238Y-55608390D01*
X169360238Y-55608390D02*
X168788810Y-56179819D01*
X168788810Y-56179819D02*
X169407857Y-56179819D01*
X191928571Y-77681009D02*
X192071428Y-77728628D01*
X192071428Y-77728628D02*
X192119047Y-77776247D01*
X192119047Y-77776247D02*
X192166666Y-77871485D01*
X192166666Y-77871485D02*
X192166666Y-78014342D01*
X192166666Y-78014342D02*
X192119047Y-78109580D01*
X192119047Y-78109580D02*
X192071428Y-78157200D01*
X192071428Y-78157200D02*
X191976190Y-78204819D01*
X191976190Y-78204819D02*
X191595238Y-78204819D01*
X191595238Y-78204819D02*
X191595238Y-77204819D01*
X191595238Y-77204819D02*
X191928571Y-77204819D01*
X191928571Y-77204819D02*
X192023809Y-77252438D01*
X192023809Y-77252438D02*
X192071428Y-77300057D01*
X192071428Y-77300057D02*
X192119047Y-77395295D01*
X192119047Y-77395295D02*
X192119047Y-77490533D01*
X192119047Y-77490533D02*
X192071428Y-77585771D01*
X192071428Y-77585771D02*
X192023809Y-77633390D01*
X192023809Y-77633390D02*
X191928571Y-77681009D01*
X191928571Y-77681009D02*
X191595238Y-77681009D01*
X193023809Y-78204819D02*
X193023809Y-77681009D01*
X193023809Y-77681009D02*
X192976190Y-77585771D01*
X192976190Y-77585771D02*
X192880952Y-77538152D01*
X192880952Y-77538152D02*
X192690476Y-77538152D01*
X192690476Y-77538152D02*
X192595238Y-77585771D01*
X193023809Y-78157200D02*
X192928571Y-78204819D01*
X192928571Y-78204819D02*
X192690476Y-78204819D01*
X192690476Y-78204819D02*
X192595238Y-78157200D01*
X192595238Y-78157200D02*
X192547619Y-78061961D01*
X192547619Y-78061961D02*
X192547619Y-77966723D01*
X192547619Y-77966723D02*
X192595238Y-77871485D01*
X192595238Y-77871485D02*
X192690476Y-77823866D01*
X192690476Y-77823866D02*
X192928571Y-77823866D01*
X192928571Y-77823866D02*
X193023809Y-77776247D01*
X193357143Y-77538152D02*
X193738095Y-77538152D01*
X193500000Y-77204819D02*
X193500000Y-78061961D01*
X193500000Y-78061961D02*
X193547619Y-78157200D01*
X193547619Y-78157200D02*
X193642857Y-78204819D01*
X193642857Y-78204819D02*
X193738095Y-78204819D01*
X193928572Y-77538152D02*
X194309524Y-77538152D01*
X194071429Y-77204819D02*
X194071429Y-78061961D01*
X194071429Y-78061961D02*
X194119048Y-78157200D01*
X194119048Y-78157200D02*
X194214286Y-78204819D01*
X194214286Y-78204819D02*
X194309524Y-78204819D01*
X194642858Y-77823866D02*
X195404763Y-77823866D01*
X195023810Y-78204819D02*
X195023810Y-77442914D01*
X191928571Y-74281009D02*
X192071428Y-74328628D01*
X192071428Y-74328628D02*
X192119047Y-74376247D01*
X192119047Y-74376247D02*
X192166666Y-74471485D01*
X192166666Y-74471485D02*
X192166666Y-74614342D01*
X192166666Y-74614342D02*
X192119047Y-74709580D01*
X192119047Y-74709580D02*
X192071428Y-74757200D01*
X192071428Y-74757200D02*
X191976190Y-74804819D01*
X191976190Y-74804819D02*
X191595238Y-74804819D01*
X191595238Y-74804819D02*
X191595238Y-73804819D01*
X191595238Y-73804819D02*
X191928571Y-73804819D01*
X191928571Y-73804819D02*
X192023809Y-73852438D01*
X192023809Y-73852438D02*
X192071428Y-73900057D01*
X192071428Y-73900057D02*
X192119047Y-73995295D01*
X192119047Y-73995295D02*
X192119047Y-74090533D01*
X192119047Y-74090533D02*
X192071428Y-74185771D01*
X192071428Y-74185771D02*
X192023809Y-74233390D01*
X192023809Y-74233390D02*
X191928571Y-74281009D01*
X191928571Y-74281009D02*
X191595238Y-74281009D01*
X193023809Y-74804819D02*
X193023809Y-74281009D01*
X193023809Y-74281009D02*
X192976190Y-74185771D01*
X192976190Y-74185771D02*
X192880952Y-74138152D01*
X192880952Y-74138152D02*
X192690476Y-74138152D01*
X192690476Y-74138152D02*
X192595238Y-74185771D01*
X193023809Y-74757200D02*
X192928571Y-74804819D01*
X192928571Y-74804819D02*
X192690476Y-74804819D01*
X192690476Y-74804819D02*
X192595238Y-74757200D01*
X192595238Y-74757200D02*
X192547619Y-74661961D01*
X192547619Y-74661961D02*
X192547619Y-74566723D01*
X192547619Y-74566723D02*
X192595238Y-74471485D01*
X192595238Y-74471485D02*
X192690476Y-74423866D01*
X192690476Y-74423866D02*
X192928571Y-74423866D01*
X192928571Y-74423866D02*
X193023809Y-74376247D01*
X193357143Y-74138152D02*
X193738095Y-74138152D01*
X193500000Y-73804819D02*
X193500000Y-74661961D01*
X193500000Y-74661961D02*
X193547619Y-74757200D01*
X193547619Y-74757200D02*
X193642857Y-74804819D01*
X193642857Y-74804819D02*
X193738095Y-74804819D01*
X193928572Y-74138152D02*
X194309524Y-74138152D01*
X194071429Y-73804819D02*
X194071429Y-74661961D01*
X194071429Y-74661961D02*
X194119048Y-74757200D01*
X194119048Y-74757200D02*
X194214286Y-74804819D01*
X194214286Y-74804819D02*
X194309524Y-74804819D01*
X194642858Y-74423866D02*
X195404763Y-74423866D01*
X195023810Y-74804819D02*
X195023810Y-74042914D01*
X156152844Y-90070656D02*
X155581416Y-90070656D01*
X155867130Y-90070656D02*
X155867130Y-89070656D01*
X155867130Y-89070656D02*
X155771892Y-89213513D01*
X155771892Y-89213513D02*
X155676654Y-89308751D01*
X155676654Y-89308751D02*
X155581416Y-89356370D01*
X156771892Y-89070656D02*
X156867130Y-89070656D01*
X156867130Y-89070656D02*
X156962368Y-89118275D01*
X156962368Y-89118275D02*
X157009987Y-89165894D01*
X157009987Y-89165894D02*
X157057606Y-89261132D01*
X157057606Y-89261132D02*
X157105225Y-89451608D01*
X157105225Y-89451608D02*
X157105225Y-89689703D01*
X157105225Y-89689703D02*
X157057606Y-89880179D01*
X157057606Y-89880179D02*
X157009987Y-89975417D01*
X157009987Y-89975417D02*
X156962368Y-90023037D01*
X156962368Y-90023037D02*
X156867130Y-90070656D01*
X156867130Y-90070656D02*
X156771892Y-90070656D01*
X156771892Y-90070656D02*
X156676654Y-90023037D01*
X156676654Y-90023037D02*
X156629035Y-89975417D01*
X156629035Y-89975417D02*
X156581416Y-89880179D01*
X156581416Y-89880179D02*
X156533797Y-89689703D01*
X156533797Y-89689703D02*
X156533797Y-89451608D01*
X156533797Y-89451608D02*
X156581416Y-89261132D01*
X156581416Y-89261132D02*
X156629035Y-89165894D01*
X156629035Y-89165894D02*
X156676654Y-89118275D01*
X156676654Y-89118275D02*
X156771892Y-89070656D01*
X157962368Y-89403989D02*
X157962368Y-90070656D01*
X157533797Y-89403989D02*
X157533797Y-89927798D01*
X157533797Y-89927798D02*
X157581416Y-90023037D01*
X157581416Y-90023037D02*
X157676654Y-90070656D01*
X157676654Y-90070656D02*
X157819511Y-90070656D01*
X157819511Y-90070656D02*
X157914749Y-90023037D01*
X157914749Y-90023037D02*
X157962368Y-89975417D01*
D11*
X156538559Y-88329669D02*
X156519511Y-88348717D01*
X156519511Y-88348717D02*
X156462369Y-88367764D01*
X156462369Y-88367764D02*
X156424273Y-88367764D01*
X156424273Y-88367764D02*
X156367130Y-88348717D01*
X156367130Y-88348717D02*
X156329035Y-88310621D01*
X156329035Y-88310621D02*
X156309988Y-88272526D01*
X156309988Y-88272526D02*
X156290940Y-88196336D01*
X156290940Y-88196336D02*
X156290940Y-88139193D01*
X156290940Y-88139193D02*
X156309988Y-88063002D01*
X156309988Y-88063002D02*
X156329035Y-88024907D01*
X156329035Y-88024907D02*
X156367130Y-87986812D01*
X156367130Y-87986812D02*
X156424273Y-87967764D01*
X156424273Y-87967764D02*
X156462369Y-87967764D01*
X156462369Y-87967764D02*
X156519511Y-87986812D01*
X156519511Y-87986812D02*
X156538559Y-88005859D01*
X156919511Y-88367764D02*
X156690940Y-88367764D01*
X156805226Y-88367764D02*
X156805226Y-87967764D01*
X156805226Y-87967764D02*
X156767130Y-88024907D01*
X156767130Y-88024907D02*
X156729035Y-88063002D01*
X156729035Y-88063002D02*
X156690940Y-88082050D01*
X157071892Y-88005859D02*
X157090940Y-87986812D01*
X157090940Y-87986812D02*
X157129035Y-87967764D01*
X157129035Y-87967764D02*
X157224273Y-87967764D01*
X157224273Y-87967764D02*
X157262368Y-87986812D01*
X157262368Y-87986812D02*
X157281416Y-88005859D01*
X157281416Y-88005859D02*
X157300463Y-88043955D01*
X157300463Y-88043955D02*
X157300463Y-88082050D01*
X157300463Y-88082050D02*
X157281416Y-88139193D01*
X157281416Y-88139193D02*
X157052844Y-88367764D01*
X157052844Y-88367764D02*
X157300463Y-88367764D01*
D14*
%TO.C,J11*%
X150940000Y-54455000D02*
X158560000Y-54455000D01*
X150940000Y-56360000D02*
X150940000Y-54455000D01*
X151575000Y-56995000D02*
X150940000Y-56360000D01*
X158560000Y-54455000D02*
X158560000Y-56995000D01*
X158560000Y-56995000D02*
X151575000Y-56995000D01*
%TO.C,R8*%
X168200000Y-68575000D02*
X169025000Y-68575000D01*
X168200000Y-70175000D02*
X168200000Y-68575000D01*
X169025000Y-68575000D02*
X169025000Y-70175000D01*
X169025000Y-70175000D02*
X168200000Y-70175000D01*
%TO.C,C1*%
X100100000Y-85725000D02*
X100900000Y-85725000D01*
X100100000Y-87325000D02*
X100100000Y-85725000D01*
X100900000Y-85725000D02*
X100900000Y-87325000D01*
X100900000Y-87325000D02*
X100100000Y-87325000D01*
%TO.C,J7*%
X163290702Y-90665837D02*
X170910702Y-90665837D01*
X163290702Y-92570837D02*
X163290702Y-90665837D01*
X163925702Y-93205837D02*
X163290702Y-92570837D01*
X170910702Y-90665837D02*
X170910702Y-93205837D01*
X170910702Y-93205837D02*
X163925702Y-93205837D01*
%TO.C,J2*%
X138290702Y-90415837D02*
X145910702Y-90415837D01*
X138290702Y-92320837D02*
X138290702Y-90415837D01*
X138925702Y-92955837D02*
X138290702Y-92320837D01*
X145910702Y-90415837D02*
X145910702Y-92955837D01*
X145910702Y-92955837D02*
X138925702Y-92955837D01*
%TO.C,J10*%
X137850000Y-54455000D02*
X145470000Y-54455000D01*
X137850000Y-56360000D02*
X137850000Y-54455000D01*
X138485000Y-56995000D02*
X137850000Y-56360000D01*
X145470000Y-54455000D02*
X145470000Y-56995000D01*
X145470000Y-56995000D02*
X138485000Y-56995000D01*
%TO.C,C17*%
X156175000Y-59575000D02*
X157775000Y-59575000D01*
X156175000Y-60375000D02*
X156175000Y-59575000D01*
X157775000Y-59575000D02*
X157775000Y-60375000D01*
X157775000Y-60375000D02*
X156175000Y-60375000D01*
%TO.C,J5*%
X184940000Y-63480000D02*
X190020000Y-63480000D01*
X184940000Y-65385000D02*
X184940000Y-63480000D01*
X185575000Y-66020000D02*
X184940000Y-65385000D01*
X190020000Y-63480000D02*
X190020000Y-66020000D01*
X190020000Y-66020000D02*
X185575000Y-66020000D01*
%TO.C,R3*%
X156337500Y-65730000D02*
X157162500Y-65730000D01*
X156337500Y-67330000D02*
X156337500Y-65730000D01*
X157162500Y-65730000D02*
X157162500Y-67330000D01*
X157162500Y-67330000D02*
X156337500Y-67330000D01*
%TO.C,J4*%
X188887123Y-54683099D02*
X188887123Y-58483099D01*
X188887123Y-58483099D02*
X196387123Y-58483099D01*
X196387123Y-54683099D02*
X188887123Y-54683099D01*
X196387123Y-58483099D02*
X196387123Y-54683099D01*
X196797123Y-54273099D02*
X194297123Y-54273099D01*
X196797123Y-56773099D02*
X196797123Y-54273099D01*
%TO.C,C3*%
X128925000Y-87035837D02*
X130525000Y-87035837D01*
X128925000Y-87835837D02*
X128925000Y-87035837D01*
X130525000Y-87035837D02*
X130525000Y-87835837D01*
X130525000Y-87835837D02*
X128925000Y-87835837D01*
%TO.C,R5*%
X126775000Y-59562500D02*
X128375000Y-59562500D01*
X126775000Y-60387500D02*
X126775000Y-59562500D01*
X128375000Y-59562500D02*
X128375000Y-60387500D01*
X128375000Y-60387500D02*
X126775000Y-60387500D01*
%TO.C,C6*%
X180850000Y-76925000D02*
X181650000Y-76925000D01*
X180850000Y-78525000D02*
X180850000Y-76925000D01*
X181650000Y-76925000D02*
X181650000Y-78525000D01*
X181650000Y-78525000D02*
X180850000Y-78525000D01*
%TO.C,J8*%
X175540702Y-90665837D02*
X183160702Y-90665837D01*
X175540702Y-92570837D02*
X175540702Y-90665837D01*
X176175702Y-93205837D02*
X175540702Y-92570837D01*
X183160702Y-90665837D02*
X183160702Y-93205837D01*
X183160702Y-93205837D02*
X176175702Y-93205837D01*
%TO.C,R6*%
X155025000Y-84542500D02*
X156625000Y-84542500D01*
X155025000Y-85367500D02*
X155025000Y-84542500D01*
X156625000Y-84542500D02*
X156625000Y-85367500D01*
X156625000Y-85367500D02*
X155025000Y-85367500D01*
%TO.C,R4*%
X154587500Y-65730000D02*
X155412500Y-65730000D01*
X154587500Y-67330000D02*
X154587500Y-65730000D01*
X155412500Y-65730000D02*
X155412500Y-67330000D01*
X155412500Y-67330000D02*
X154587500Y-67330000D01*
%TO.C,R12*%
X165625000Y-59562500D02*
X167225000Y-59562500D01*
X165625000Y-60387500D02*
X165625000Y-59562500D01*
X167225000Y-59562500D02*
X167225000Y-60387500D01*
X167225000Y-60387500D02*
X165625000Y-60387500D01*
D15*
%TO.C,TB1*%
X101980000Y-52160000D02*
X101980000Y-95340000D01*
X101980000Y-95340000D02*
X119760000Y-95340000D01*
X119760000Y-52160000D02*
X101980000Y-52160000D01*
X119760000Y-95340000D02*
X119760000Y-52160000D01*
D16*
X120470000Y-91530000D02*
G75*
G02*
X120270000Y-91530000I-100000J0D01*
G01*
X120270000Y-91530000D02*
G75*
G02*
X120470000Y-91530000I100000J0D01*
G01*
D14*
%TO.C,D2*%
X156250000Y-71265000D02*
X156750000Y-71265000D01*
X156250000Y-72265000D02*
X156250000Y-71265000D01*
X156750000Y-71265000D02*
X156750000Y-72265000D01*
X156750000Y-72065000D02*
X156250000Y-72065000D01*
X156750000Y-72165000D02*
X156250000Y-72165000D01*
X156750000Y-72265000D02*
X156250000Y-72265000D01*
%TO.C,R10*%
X139150000Y-59562500D02*
X140750000Y-59562500D01*
X139150000Y-60387500D02*
X139150000Y-59562500D01*
X140750000Y-59562500D02*
X140750000Y-60387500D01*
X140750000Y-60387500D02*
X139150000Y-60387500D01*
%TO.C,C9*%
X170950000Y-62850000D02*
X172550000Y-62850000D01*
X170950000Y-63650000D02*
X170950000Y-62850000D01*
X172550000Y-62850000D02*
X172550000Y-63650000D01*
X172550000Y-63650000D02*
X170950000Y-63650000D01*
%TO.C,J9*%
X188080702Y-90415837D02*
X195700702Y-90415837D01*
X188080702Y-92320837D02*
X188080702Y-90415837D01*
X188715702Y-92955837D02*
X188080702Y-92320837D01*
X195700702Y-90415837D02*
X195700702Y-92955837D01*
X195700702Y-92955837D02*
X188715702Y-92955837D01*
%TO.C,C5*%
X183100000Y-76975000D02*
X183900000Y-76975000D01*
X183100000Y-78575000D02*
X183100000Y-76975000D01*
X183900000Y-76975000D02*
X183900000Y-78575000D01*
X183900000Y-78575000D02*
X183100000Y-78575000D01*
%TO.C,R1*%
X135465000Y-75830000D02*
X136515000Y-75830000D01*
X135465000Y-76370000D02*
X135465000Y-75830000D01*
X136515000Y-75830000D02*
X136515000Y-76370000D01*
X136515000Y-76370000D02*
X135465000Y-76370000D01*
%TO.C,C2*%
X100100000Y-81725000D02*
X100900000Y-81725000D01*
X100100000Y-83325000D02*
X100100000Y-81725000D01*
X100900000Y-81725000D02*
X100900000Y-83325000D01*
X100900000Y-83325000D02*
X100100000Y-83325000D01*
%TO.C,C18*%
X169425000Y-59575000D02*
X171025000Y-59575000D01*
X169425000Y-60375000D02*
X169425000Y-59575000D01*
X171025000Y-59575000D02*
X171025000Y-60375000D01*
X171025000Y-60375000D02*
X169425000Y-60375000D01*
%TO.C,J6*%
X151370702Y-90665837D02*
X158990702Y-90665837D01*
X151370702Y-92570837D02*
X151370702Y-90665837D01*
X152005702Y-93205837D02*
X151370702Y-92570837D01*
X158990702Y-90665837D02*
X158990702Y-93205837D01*
X158990702Y-93205837D02*
X152005702Y-93205837D01*
%TO.C,Q1*%
X135400000Y-66900000D02*
X142100000Y-66900000D01*
X135400000Y-69600000D02*
X135400000Y-66900000D01*
X136400000Y-70600000D02*
X135400000Y-69600000D01*
X136400000Y-70600000D02*
X142100000Y-70600000D01*
X142100000Y-70600000D02*
X142100000Y-66900000D01*
%TO.C,J3*%
X124940000Y-54455000D02*
X132560000Y-54455000D01*
X124940000Y-56360000D02*
X124940000Y-54455000D01*
X125575000Y-56995000D02*
X124940000Y-56360000D01*
X132560000Y-54455000D02*
X132560000Y-56995000D01*
X132560000Y-56995000D02*
X125575000Y-56995000D01*
%TO.C,D1*%
X142700000Y-75750000D02*
X142700000Y-76250000D01*
X142700000Y-76250000D02*
X144300000Y-76250000D01*
X143000000Y-75450000D02*
X142700000Y-75750000D01*
X144300000Y-75450000D02*
X143000000Y-75450000D01*
X144300000Y-76250000D02*
X144300000Y-75450000D01*
%TO.C,J13*%
X177850000Y-54705000D02*
X185470000Y-54705000D01*
X177850000Y-56610000D02*
X177850000Y-54705000D01*
X178485000Y-57245000D02*
X177850000Y-56610000D01*
X185470000Y-54705000D02*
X185470000Y-57245000D01*
X185470000Y-57245000D02*
X178485000Y-57245000D01*
%TO.C,C10*%
X177750000Y-64500000D02*
X178250000Y-64500000D01*
X177750000Y-65500000D02*
X177750000Y-64500000D01*
X178250000Y-64500000D02*
X178250000Y-65500000D01*
X178250000Y-65500000D02*
X177750000Y-65500000D01*
%TO.C,C15*%
X192925000Y-87100000D02*
X194525000Y-87100000D01*
X192925000Y-87900000D02*
X192925000Y-87100000D01*
X194525000Y-87100000D02*
X194525000Y-87900000D01*
X194525000Y-87900000D02*
X192925000Y-87900000D01*
%TO.C,C8*%
X170925000Y-65850000D02*
X172525000Y-65850000D01*
X170925000Y-66650000D02*
X170925000Y-65850000D01*
X172525000Y-65850000D02*
X172525000Y-66650000D01*
X172525000Y-66650000D02*
X170925000Y-66650000D01*
%TO.C,D4*%
X177562500Y-70450000D02*
X177562500Y-67450000D01*
X179213060Y-68150920D02*
X179213060Y-69751120D01*
X179213060Y-68951020D02*
X178311360Y-68951020D01*
X179213060Y-68951020D02*
X180363680Y-68150920D01*
X179213060Y-68951020D02*
X180363680Y-69700320D01*
X180363680Y-68951020D02*
X181361900Y-68951020D01*
X180363680Y-69700320D02*
X180363680Y-68150920D01*
X182162500Y-67450000D02*
X177562500Y-67450000D01*
X182162500Y-67450000D02*
X182162500Y-70450000D01*
X182162500Y-70450000D02*
X177562500Y-70450000D01*
%TO.C,R7*%
X172700000Y-68650000D02*
X173525000Y-68650000D01*
X172700000Y-70250000D02*
X172700000Y-68650000D01*
X173525000Y-68650000D02*
X173525000Y-70250000D01*
X173525000Y-70250000D02*
X172700000Y-70250000D01*
%TO.C,L2*%
X174712500Y-64400000D02*
X175512500Y-64400000D01*
X174712500Y-66000000D02*
X174712500Y-64400000D01*
X175512500Y-64400000D02*
X175512500Y-66000000D01*
X175512500Y-66000000D02*
X174712500Y-66000000D01*
%TO.C,C19*%
X182925000Y-59825000D02*
X184525000Y-59825000D01*
X182925000Y-60625000D02*
X182925000Y-59825000D01*
X184525000Y-59825000D02*
X184525000Y-60625000D01*
X184525000Y-60625000D02*
X182925000Y-60625000D01*
%TO.C,C16*%
X142925000Y-59575000D02*
X144525000Y-59575000D01*
X142925000Y-60375000D02*
X142925000Y-59575000D01*
X144525000Y-59575000D02*
X144525000Y-60375000D01*
X144525000Y-60375000D02*
X142925000Y-60375000D01*
%TO.C,D3*%
X155000000Y-71250000D02*
X155500000Y-71250000D01*
X155000000Y-72250000D02*
X155000000Y-71250000D01*
X155500000Y-71250000D02*
X155500000Y-72250000D01*
X155500000Y-72050000D02*
X155000000Y-72050000D01*
X155500000Y-72150000D02*
X155000000Y-72150000D01*
X155500000Y-72250000D02*
X155000000Y-72250000D01*
%TO.C,R13*%
X179150000Y-59812500D02*
X180750000Y-59812500D01*
X179150000Y-60637500D02*
X179150000Y-59812500D01*
X180750000Y-59812500D02*
X180750000Y-60637500D01*
X180750000Y-60637500D02*
X179150000Y-60637500D01*
%TO.C,R14*%
X138725000Y-79580000D02*
X139775000Y-79580000D01*
X138725000Y-80120000D02*
X138725000Y-79580000D01*
X139775000Y-79580000D02*
X139775000Y-80120000D01*
X139775000Y-80120000D02*
X138725000Y-80120000D01*
%TO.C,R9*%
X186960000Y-67230000D02*
X188010000Y-67230000D01*
X186960000Y-67770000D02*
X186960000Y-67230000D01*
X188010000Y-67230000D02*
X188010000Y-67770000D01*
X188010000Y-67770000D02*
X186960000Y-67770000D01*
%TO.C,J14*%
X143465000Y-78580000D02*
X147910000Y-78580000D01*
X143465000Y-81120000D02*
X143465000Y-78580000D01*
X147910000Y-78580000D02*
X148545000Y-79215000D01*
X148545000Y-79215000D02*
X148545000Y-81120000D01*
X148545000Y-81120000D02*
X143465000Y-81120000D01*
%TO.C,R11*%
X152375000Y-59562500D02*
X153975000Y-59562500D01*
X152375000Y-60387500D02*
X152375000Y-59562500D01*
X153975000Y-59562500D02*
X153975000Y-60387500D01*
X153975000Y-60387500D02*
X152375000Y-60387500D01*
%TO.C,C7*%
X130175000Y-59575000D02*
X131775000Y-59575000D01*
X130175000Y-60375000D02*
X130175000Y-59575000D01*
X131775000Y-59575000D02*
X131775000Y-60375000D01*
X131775000Y-60375000D02*
X130175000Y-60375000D01*
%TO.C,C14*%
X179840702Y-87785837D02*
X181440702Y-87785837D01*
X179840702Y-88585837D02*
X179840702Y-87785837D01*
X181440702Y-87785837D02*
X181440702Y-88585837D01*
X181440702Y-88585837D02*
X179840702Y-88585837D01*
%TO.C,C13*%
X167855000Y-87785837D02*
X169455000Y-87785837D01*
X167855000Y-88585837D02*
X167855000Y-87785837D01*
X169455000Y-87785837D02*
X169455000Y-88585837D01*
X169455000Y-88585837D02*
X167855000Y-88585837D01*
%TO.C,C11*%
X182000000Y-64595000D02*
X182500000Y-64595000D01*
X182000000Y-65595000D02*
X182000000Y-64595000D01*
X182500000Y-64595000D02*
X182500000Y-65595000D01*
X182500000Y-65595000D02*
X182000000Y-65595000D01*
%TO.C,U1*%
X182312500Y-73150000D02*
X182712500Y-72750000D01*
X182312500Y-75650000D02*
X182312500Y-73150000D01*
X182712500Y-72750000D02*
X183912500Y-72750000D01*
X183912500Y-72750000D02*
X183912500Y-75650000D01*
X183912500Y-75650000D02*
X182312500Y-75650000D01*
%TO.C,J1*%
X125080702Y-90165837D02*
X132700702Y-90165837D01*
X125080702Y-92070837D02*
X125080702Y-90165837D01*
X125715702Y-92705837D02*
X125080702Y-92070837D01*
X132700702Y-90165837D02*
X132700702Y-92705837D01*
X132700702Y-92705837D02*
X125715702Y-92705837D01*
%TO.C,C4*%
X143175000Y-87350000D02*
X144775000Y-87350000D01*
X143175000Y-88150000D02*
X143175000Y-87350000D01*
X144775000Y-87350000D02*
X144775000Y-88150000D01*
X144775000Y-88150000D02*
X143175000Y-88150000D01*
D15*
%TO.C,U2*%
X153295000Y-76680000D02*
X158395000Y-76680000D01*
X153295000Y-80680000D02*
X153295000Y-76680000D01*
X153295000Y-80680000D02*
X158395000Y-80680000D01*
X158395000Y-80680000D02*
X158395000Y-76680000D01*
D16*
X153440000Y-83125000D02*
G75*
G02*
X153240000Y-83125000I-100000J0D01*
G01*
X153240000Y-83125000D02*
G75*
G02*
X153440000Y-83125000I100000J0D01*
G01*
D14*
%TO.C,R2*%
X138725000Y-75580000D02*
X139775000Y-75580000D01*
X138725000Y-76120000D02*
X138725000Y-75580000D01*
X139775000Y-75580000D02*
X139775000Y-76120000D01*
X139775000Y-76120000D02*
X138725000Y-76120000D01*
%TO.C,J12*%
X164455000Y-54455000D02*
X172075000Y-54455000D01*
X164455000Y-56360000D02*
X164455000Y-54455000D01*
X165090000Y-56995000D02*
X164455000Y-56360000D01*
X172075000Y-54455000D02*
X172075000Y-56995000D01*
X172075000Y-56995000D02*
X165090000Y-56995000D01*
%TO.C,C12*%
X155995702Y-87785837D02*
X157595702Y-87785837D01*
X155995702Y-88585837D02*
X155995702Y-87785837D01*
X157595702Y-87785837D02*
X157595702Y-88585837D01*
X157595702Y-88585837D02*
X155995702Y-88585837D01*
%TD*%
M02*
